<?xml version="1.0" encoding="UTF-8"?><svg id="Layer_2" xmlns="http://www.w3.org/2000/svg" viewBox="0 0 329.06 27.62"><defs><style>.cls-1{fill:#231f20;}</style></defs><g id="text"><g><path class="cls-1" d="m9.07,11.78h.07c1.02-.2,1.17-.65,1.17-.9,0-.94-3.27-2.11-3.44-2.11-.1,0-.32.04-.36.36v.08c-.64,3.71-4.04,8.56-6.16,10.5-.25.25-.36.43-.36.59,0,.19.16.34.34.34.96,0,5.69-3.49,8.12-8.42.2-.39.24-.4.61-.47Z"/><path class="cls-1" d="m19.38,9.11c-.21,0-.37.15-.37.34,0,.21.18.39.3.48,2.03,1.86,4.65,4.96,5.52,7.04h0c.69,1.63,1.49,1.87,1.9,1.87.76,0,1.32-.76,1.32-1.8,0-4.05-7.99-7.93-8.66-7.93Z"/><path class="cls-1" d="m13.4,1.24c-.25,0-.41.16-.41.41,0,.04,0,.13.04.24.28,1.34.35,2.79.35,3.44.06,2.47.09,6.46.09,10.41,0,3.03-.03,5.62-.09,7.13-.02.69-.21,1.3-2.18,1.3-.89,0-2.08-.13-3.63-.39-.21-.03-.31-.03-.41-.03-.36,0-.38.26-.38.31,0,.27.19.36,1.7,1.04.89.4,2.23,1.01,2.43,1.25l.08.11c.13.19.29.42.69.42,1.81,0,4.32-1.29,4.32-3.71,0-.44-.05-1.62-.08-2.57l-.04-.98c-.03-1.64-.06-4.42-.06-7.28,0-2.59.02-5.98.12-7.48.06-.97.09-.99.34-1.11.09-.05.19-.1.32-.18.42-.27.65-.59.65-.91,0-1.12-3.83-1.41-3.87-1.41Z"/><path class="cls-1" d="m55.73,11.23c-.56,0-1.48,1.34-1.67,1.63-.04.07-.14.14-.21.14h-4.82v-1.8h5.91c.63,0,.86-.37.86-.68,0-.86-2.14-2.17-2.62-2.17-.31,0-.83.46-1.55,1.38-.04.07-.11.14-.18.14h-2.41c.02-.42.08-.44.33-.54.09-.04.2-.08.33-.14.28-.14.64-.36.64-.71,0-.6-1.5-.96-2.56-1.14h5.73c.02.56.43.94,1.04.94.38,0,.75-.15.99-.41.21-.22.31-.5.29-.8-.03-.58-.07-1.09-.11-1.52-.04-.48-.07-.86-.07-1.17,0-.42,0-.46.33-.66.22-.11.79-.4.79-.92,0-.87-2.09-1.83-2.35-1.83-.39,0-.64.28-1.08.81-.06.06-.07.06-.13.07h-10.25c-.53-.38-1.99-1.12-2.5-1.12-.19,0-.34.16-.34.37,0,.04,0,.14.04.24.13.66.18,1.37.18,2.44,0,.95-.07,2.08-.21,3.58v.09c0,.57.41.95,1.01.95s1.32-.43,1.35-1.06h3.96v.17s0,.14.04.25c.24.91.31,1.56.32,2.1h-.14c-1.94,0-4.05-.15-6.28-.45l-.32-.04v.32c0,.51,1.03,1.8,1.74,1.8h0c2.36-.27,3.29-.3,4.73-.3h.26c0,.17,0,.37-.01.59,0,.39-.01.82-.02,1.21h-.9c-.44,0-4.41-.01-7.73-.48l-.32-.05v.33c0,.5.93,1.86,1.71,1.86h0c1.21-.14,2.38-.22,3.44-.27-.03.04-.05.1-.05.17,0,.12.06.2.15.31l.1.13c.39.41,1.07,1.2,1.31,1.85.11.3.26.55.45.73-1.53-.03-4.16-.14-6.49-.47l-.32-.05v.33c0,.5.93,1.86,1.71,1.86h0c2.44-.27,4.73-.33,6.22-.33h.68c.02.33.03.68.04,1.05,0,.23.01.46.02.67v.78h-.14c-1.2,0-3.66-.06-6.58-.45l-.32-.04v.32c0,.51,1.03,1.8,1.74,1.8h0c2.42-.28,3.66-.3,5.04-.3h.26c-.04,1.27-.1,2.6-.17,3.77v.08c0,.61.44,1.01,1.13,1.01.43,0,.84-.16,1.1-.44.2-.21.29-.47.28-.73-.02-.8-.04-1.6-.07-2.37-.02-.46-.03-.9-.04-1.32h6.27c.66,0,.89-.35.89-.68,0-.8-2.14-2.29-2.68-2.29-.41,0-.64.28-1.38,1.21l-.21.27c-.11.14-.16.17-.2.17h-2.69c0-1.58.02-1.59.37-1.76.21-.09.51-.35.51-.66,0-.03,0-.05,0-.08h7.19c.83,0,.89-.52.89-.68,0-.81-2.03-2.32-2.68-2.32-.57,0-1.65,1.51-1.67,1.53-.04.07-.14.14-.21.14h-3.22c.46-.35.95-.74,1.17-.92l.1-.08c.18-.14.26-.2.46-.2h.24c.8,0,.89-.41.89-.59,0-.4-.95-1.04-1.79-1.48h6.27c.83,0,.89-.52.89-.68,0-.96-2.19-2.41-2.68-2.41Zm-6.04,3.09v.08c-.1.82-.24,1.53-1.1,3.18h-2.2c.28-.25.46-.64.46-1.08,0-1.47-1.44-1.98-2.43-2.16.49-.01.94-.01,1.33-.01h3.95s0,0,0,0Zm1.43-10.79c.27-.06.5-.19.62-.36h1.76c.03.54.03,1.34.03,2.11v.75h-2.44c0-.85,0-1.49.03-2.27,0-.19.01-.24,0-.24Zm-4.25,0c.27-.06.5-.19.62-.36h1.52c.03.29.03.59.03.99,0,.43-.02.83-.03,1.2,0,.23-.02.46-.02.67h-2.14c0-.74,0-1.53.03-2.27,0-.19.03-.24,0-.24Zm-4.11-.32s.03-.03.05-.04h1.93c.04.31.05.62.05.99,0,.7,0,1.31-.02,1.87h-2.3c0-.3,0-.6-.02-.9,0-.35-.01-.69-.01-.98q0-.73.31-.95Z"/><path class="cls-1" d="m33.67,2c.89.65,1.86,1.68,2.26,2.4h0c.48.85,1.04,1.03,1.43,1.03.78,0,1.41-.69,1.41-1.53,0-1.91-2.87-2.8-4.81-2.8-.43,0-.77,0-.77.34,0,.2.14.31.48.56Z"/><path class="cls-1" d="m36.03,20.72c0-4.67,3.65-13.47,3.69-13.56.04-.11.17-.47.17-.71,0-.37-.24-.41-.34-.41-.31,0-.64,0-5.15,9.94l-.33.73c-.5,1.14-1.08,1.26-2.26,1.26-.3,0-1.01,0-1.01.47,0,.32.38.48.94.61,1.98.51,2.25,1.64,2.25,2.67,0,.5-.07,1.03-.14,1.55-.05.38-.1.76-.13,1.15v.36c0,1.69.75,2.44,1.5,2.44.42,0,.83-.23,1.12-.63.5-.7.56-1.78.15-2.96-.29-.88-.44-1.86-.44-2.92Z"/><path class="cls-1" d="m31.12,8.94c.91.5,2.03,1.42,2.49,2.05.35.48.82.75,1.29.75.74,0,1.35-.67,1.35-1.5,0-1.66-2.11-2.26-4.08-2.26-1.33,0-1.56.13-1.56.44,0,.21.16.31.38.44l.13.08Z"/><path class="cls-1" d="m64.12,10.99c.35.48.82.75,1.29.75.74,0,1.35-.67,1.35-1.5,0-1.66-2.11-2.26-4.08-2.26-1.33,0-1.56.13-1.56.44,0,.21.16.31.38.44l.13.08c.91.5,2.03,1.42,2.49,2.04Z"/><path class="cls-1" d="m64.18,2c.88.65,1.85,1.68,2.26,2.4h0c.48.85,1.04,1.03,1.43,1.03.78,0,1.41-.69,1.41-1.53,0-1.91-2.87-2.8-4.81-2.8-.43,0-.77,0-.77.34,0,.2.14.31.48.56Z"/><path class="cls-1" d="m67.18,20.38c0-3.82,2.28-9.97,4.19-14.46.15-.34.24-.63.24-.82l-.03-.34h-.28c-1.09,0-6.1,11.83-6.15,11.96-.47,1.14-1.02,1.25-2.26,1.25-.3,0-1.01,0-1.01.47,0,.32.38.48.94.61,1.98.51,2.25,1.64,2.25,2.67,0,.5-.07,1.03-.14,1.55-.05.38-.1.76-.13,1.15v.39c0,1.8.79,2.44,1.47,2.44.39,0,.76-.2,1.04-.57.53-.7.66-1.84.33-3.04-.3-1.12-.45-2.22-.45-3.27Z"/><path class="cls-1" d="m86.52.85c-.12-.06-.23-.06-.34-.06-.42,0-.8.27-1.79,1.81-.02.04-.14.1-.18.1h-5.83c-1.33,0-5.74-.08-8.53-.42l-.32-.04v.32c0,.47.85,1.71,1.59,1.71h0c1.14-.12,2.65-.19,4.61-.24.12.97.17,2.77.17,3.92h-1.65c-.56-.35-2.58-1.31-2.89-1.31-.24,0-.34.18-.34.34,0,.07.02.12.02.15l.27-.08-.26.17c.24,1.09.3,3.5.3,3.82,0,.27-.01.81-.02,1.54-.04,3.41-.12,10.51-.37,13.58v.12c0,.63.41,1.04,1.04,1.04.72,0,1.5-.5,1.5-1.26v-1.11h10.91v1.23c0,.8.57,1.16,1.13,1.16.69,0,1.44-.51,1.44-1.35v-.11c-.15-2.46-.36-11.03-.36-14.34q0-1.52.44-1.76l.06-.04c.35-.21.78-.46.78-.91,0-.91-2.35-1.92-2.74-1.92-.45,0-.82.5-1.12.93l-.04.07h-2.56l.03-2.81c0-.61.1-.66.12-.68.34-.13.5-.3.58-.47h6.03c.89,0,.98-.45.98-.65,0-.68-1.66-2.14-2.65-2.5Zm-2.11,22.77h-10.88c0-.43,0-.87.01-1.34,0-.53.01-1.07.02-1.62h10.82l.03,2.96Zm-10.65-14.05s.06-.03.13-.07c.1-.05.17-.1.23-.15h0s1.74,0,1.74,0c-.14,3.31-.88,5.76-2.28,7.48.04-3.07.1-5.84.12-6.69,0-.16.02-.51.05-.56Zm-.2,9.74c0-.49,0-.98.01-1.47.14-.02.26-.1.48-.25l.11-.08c2.27-1.67,3.4-4.12,3.74-8.17h1.43c0,1.26-.01,2.65-.02,3.64,0,.58,0,1.03,0,1.25.03,1,.32,2.16,2.35,2.16,1.36,0,2.35-.39,2.71-1.03,0,1.18.01,2.51.01,3.96h-10.82Zm10.22-5.83c-.09-.17-.2-.84-.25-1.16-.11-.69-.14-.87-.42-.87-.3,0-.34.33-.37.65-.22,2.14-.36,2.14-.96,2.14h-.1c-.21-.04-.27-.09-.28-.2,0-.19,0-.43-.01-.71,0-.38-.02-.84-.02-1.35,0-.42,0-.87.01-1.34,0-.42.01-.85.02-1.29h2.83s.03.04.04.07c.05.59.08,2.26.1,4.72-.13-.27-.34-.5-.58-.65Zm-5.81-8.35c0-.1-.01-.19-.01-.26,0-.23.02-.27.03-.28.01-.02.1-.06.17-.1l.12-.06c.2-.08.36-.25.42-.43h.57c.05.77.07,1.73.07,2.08v1.87h-1.37c.02-.71.02-1.47.02-2.27,0-.22-.01-.41-.02-.56Z"/><path class="cls-1" d="m101.79,12.25h0c2.04-.26,6.51-.27,7.01-.27h9.32c.81,0,.98-.34.98-.62,0-.53-1.59-2.2-2.8-2.62-.12-.06-.23-.06-.31-.06-.31,0-.63.14-1.76,1.87-.02.04-.14.1-.18.1h-3.51v-3.53h5.76c.81,0,.98-.34.98-.62,0-.69-1.7-2.19-2.68-2.53-.12-.06-.23-.06-.31-.06-.26,0-.61.14-1.67,1.78-.02.04-.14.1-.18.11h-1.9c0-1.07.03-1.94.06-2.31q.04-.62.29-.73c.09-.04.21-.09.34-.16.38-.19.61-.49.61-.8,0-.99-3.47-1.38-3.5-1.38-.37,0-.41.24-.41.34,0,.07,0,.19.04.25.21.8.27,2.52.29,3.33,0,.12,0,.29.01.49,0,.26.02.59.02.95h-2.76c.15-.28.29-.56.42-.82.05-.11.12-.13.43-.2.64-.11,1.02-.41,1.02-.8,0-.98-2.92-1.8-3.05-1.8-.41,0-.41.44-.41.65,0,1.46-1.59,5.44-2.47,6.83-.25.38-.31.55-.32.67-.25-.03-.47-.06-.68-.09l-.33-.05v.33c0,.46.98,1.74,1.62,1.74Zm6.51-5.13v3.53c-1.48,0-4.23-.08-6.28-.25.62-.5,1.62-1.61,2.71-3.28h3.57Z"/><path class="cls-1" d="m93.99,2.74c1.03.61,2.47,1.82,3.21,2.98.44.69,1,1.07,1.57,1.07.74,0,1.32-.67,1.32-1.53,0-2.7-5.13-3.32-5.9-3.32-.49,0-.53.29-.53.37,0,.17.14.29.32.43Z"/><path class="cls-1" d="m115.69,16.53c.33-.2.84-.5.84-1,0-1.07-2.46-2.01-2.65-2.01-.46,0-1.08.71-1.22.96-.08.1-.16.14-.2.14h-5.73c-.75-.52-2.84-1.34-3.05-1.34l-.31.06v.28c0,.07,0,.17.04.29.28.99.35,2.52.35,3.26,0,1.58-.04,2.96-.21,4.98v.12c0,.63.45,1.04,1.13,1.04.27,0,.83-.09,1.17-.45.21-.21.31-.5.3-.82l-.02-.65h6.74v.41c0,.83.58,1.19,1.16,1.19.69,0,1.44-.5,1.44-1.32v-.11c-.24-3.3-.24-3.57-.24-4.23,0-.44,0-.55.47-.82Zm-9.59,1.26c0-.26.02-.52.01-.77q.02-.66.27-.83l.15-.1c.06-.04.1-.07.14-.1h6.02c.14,0,.17.07.17.1.03.54.06,1.06.06,1.62,0,.78-.02,1.57-.05,2.33h-6.76c0-.22,0-.43-.01-.63,0-.28-.01-.55-.01-.81s0-.54.02-.8Z"/><path class="cls-1" d="m120.25,22.98c-.07,0-.18.01-.45.1-3.6,1.08-8.79,1.57-12.34,1.57-4.76,0-7.16-.85-8.03-2.84-.09-.21-.13-.6-.13-.8v-1.21c0-1.17.02-3.32.15-4.5.03-.37.11-.4.38-.49.08-.03.17-.06.26-.09.61-.25.94-.58.94-.96,0-.96-2.37-2.04-2.77-2.04-.21,0-.43.06-1.1.87-.08.1-.19.17-.28.17l-.56.03c-.64,0-2.6-.25-3.72-.42l-.33-.05v.33c0,.56.96,1.89,1.66,1.89.32-.02.84-.1,1.34-.18.43-.07.88-.14,1.12-.15l.53-.03c.08,0,.08.02.08.05v1.12c0,5.07-.03,5.91-.41,6.25-1.42,1.14-3.52,2.45-4.77,2.74-.41.08-.44.35-.44.43,0,.36,2.06,2.44,2.59,2.44.42,0,.57-.45.65-.7.02-.05.02-.1.02-.09.28-.31.59-.64.91-.98.97-1.05,2.06-2.22,2.73-3.04,1.74,4.76,7.96,4.76,11.01,4.76,4.03,0,7.95-.48,8.01-.49.45-.09.65-.39.78-.64.22-.48,1.04-1.16,1.64-1.67.7-.59.91-.77.91-1,0-.17-.14-.34-.38-.34Z"/><path class="cls-1" d="m137.43,4.19c-8.17,0-12.52,7.09-12.52,12.22,0,1.21.27,2.23.78,2.92.35.5.64,1.02.92,1.52.73,1.3,1.36,2.43,2.59,2.43,2.87,0,8.21-7.04,8.21-13.7,0-1.69-.3-3.03-.85-3.8.16,0,.32-.02.48-.02,5.9,0,8.58,4.31,8.58,8.31,0,1.94-.72,8.44-9.93,10.93-1.57.43-1.57.74-1.57.91,0,.15.09.41.71.41,2.94,0,13.34-2.9,13.34-12.12,0-4.82-3.36-10-10.73-10Zm-7.92,15.94c-1.21,0-2.51-1.78-2.51-4.42,0-3.62,2.58-8.2,7.38-9.58.07,0,.18,0,.27-.04.09-.02.15-.02.24-.02.25,0,.9,0,.9,2.42,0,5.43-4.45,11.65-6.27,11.65Z"/><path class="cls-1" d="m155.72,2c.88.65,1.85,1.68,2.26,2.4h0c.48.85,1.04,1.03,1.43,1.03.78,0,1.41-.69,1.41-1.53,0-1.91-2.87-2.8-4.81-2.8-.43,0-.77,0-.77.34,0,.2.14.31.48.56Z"/><path class="cls-1" d="m155.66,10.99c.35.48.82.75,1.29.75.74,0,1.35-.67,1.35-1.5,0-1.66-2.11-2.26-4.08-2.26-1.33,0-1.56.13-1.56.44,0,.21.16.31.38.44l.13.08c.91.5,2.03,1.42,2.49,2.04Z"/><path class="cls-1" d="m178.06.85c-.12-.06-.23-.06-.34-.06-.42,0-.8.27-1.79,1.81-.02.04-.14.1-.18.1h-5.83c-1.33,0-5.74-.08-8.53-.42l-.32-.04v.32c0,.47.85,1.71,1.59,1.71h0c1.14-.12,2.65-.19,4.61-.24.12.97.17,2.77.17,3.92h-1.65c-.56-.35-2.58-1.31-2.89-1.31-.24,0-.34.18-.34.34,0,.07.02.12.02.15l.27-.08-.26.17c.24,1.09.3,3.5.3,3.82,0,.27-.01.81-.02,1.54-.04,3.41-.12,10.51-.37,13.58v.12c0,.63.41,1.04,1.04,1.04.72,0,1.5-.5,1.5-1.26v-1.11h10.91v1.23c0,.8.57,1.16,1.13,1.16.69,0,1.44-.51,1.44-1.35v-.11c-.15-2.46-.36-11.03-.36-14.34q0-1.52.44-1.76l.06-.04c.35-.21.78-.46.78-.91,0-.91-2.35-1.92-2.74-1.92-.45,0-.82.5-1.12.93l-.04.07h-2.56l.03-2.81c0-.61.1-.66.12-.68.34-.13.5-.3.58-.47h6.03c.89,0,.98-.45.98-.65,0-.68-1.66-2.14-2.65-2.5Zm-2.11,22.77h-10.88c0-.43,0-.87.01-1.34,0-.53.01-1.07.02-1.62h10.82l.03,2.96Zm-10.65-14.05s.06-.03.13-.07c.1-.05.17-.1.23-.15h0s1.74,0,1.74,0c-.14,3.31-.88,5.76-2.28,7.48.04-3.07.1-5.84.12-6.69,0-.16.02-.51.05-.56Zm-.2,9.74c0-.49,0-.98.01-1.47.14-.02.26-.1.48-.25l.11-.08c2.27-1.67,3.4-4.12,3.74-8.17h1.43c0,1.26-.01,2.65-.02,3.64,0,.58,0,1.03,0,1.25.03,1,.32,2.16,2.35,2.16,1.36,0,2.35-.39,2.71-1.03,0,1.18.01,2.51.01,3.96h-10.82Zm10.22-5.83c-.09-.17-.2-.84-.25-1.16-.11-.69-.14-.87-.42-.87-.3,0-.34.33-.37.65-.22,2.14-.36,2.14-.96,2.14h-.1c-.21-.04-.27-.09-.28-.2,0-.19,0-.43-.01-.71,0-.38-.02-.84-.02-1.35,0-.42,0-.87.01-1.34,0-.42.01-.85.02-1.29h2.83s.03.04.04.07c.05.59.08,2.26.1,4.72-.13-.27-.34-.5-.58-.65Zm-5.81-8.35c0-.1-.01-.19-.01-.26,0-.23.02-.27.03-.28.01-.02.1-.06.17-.1l.12-.06c.2-.08.36-.25.42-.43h.57c.05.77.07,1.73.07,2.08v1.87h-1.37c.02-.71.02-1.47.02-2.27,0-.22-.01-.41-.02-.56Z"/><path class="cls-1" d="m158.73,20.38c0-3.82,2.28-9.97,4.19-14.46.15-.34.24-.63.24-.82l-.03-.34h-.28c-1.09,0-6.1,11.83-6.15,11.96-.47,1.14-1.02,1.25-2.26,1.25-.3,0-1.01,0-1.01.47,0,.32.38.48.94.61,1.98.51,2.25,1.64,2.25,2.67,0,.5-.07,1.03-.14,1.55-.05.38-.1.76-.13,1.15v.39c0,1.8.79,2.44,1.47,2.44.39,0,.76-.2,1.04-.57.53-.7.66-1.84.33-3.04-.3-1.12-.45-2.22-.45-3.27Z"/><path class="cls-1" d="m184.44,5.4c.63.66,1.26,1.81,1.45,2.46h0c.32,1.06,1,1.18,1.27,1.18.64,0,1.35-.62,1.35-1.5,0-1.91-3.04-2.96-4.05-2.96l-.34.03v.28c0,.13.07.2.19.34l.13.16Z"/><path class="cls-1" d="m193.85,8.84c-.42,0-.76.35-1.58,1.63-.03.05-.13.1-.15.11h-1.11v-.75c1.04-.82,1.95-1.74,2.68-2.48.25-.25.47-.47.66-.66l.09-.1c.14-.14.15-.15.28-.15h.3c.8,0,.92-.37.92-.59,0-.67-2.28-2.14-2.71-2.14-.3,0-.34.3-.36.45v.06c-.34,1.31-1.22,2.9-1.88,3.98,0-2.15.04-3.83.09-4.8.04-.64.1-.67.38-.8.07-.03.15-.07.23-.12.17-.08.67-.34.67-.8,0-1.03-3.44-1.38-3.47-1.38-.24,0-.34.18-.34.34,0,.04,0,.17.04.27.32,1.66.33,6.03.33,9.64-1.9-.05-3.6-.19-5.05-.41l-.33-.05v.33c0,.46.96,1.74,1.59,1.74h0c1.25-.17,2.43-.25,3.6-.27-.9,3.08-4.32,8.2-5.95,9.61-.46.41-.55.59-.55.76,0,.19.16.34.37.34.38,0,3.87-1.85,6.25-5.99-.06,2.83-.16,6.06-.31,9.64v.07c0,.89.58,1.29,1.16,1.29.74,0,1.53-.58,1.53-1.44v-.04c-.1-3.62-.18-7.55-.21-10.9.61.51,1.25,1.31,1.81,2.25.49.82,1.01.99,1.37.99.67,0,1.19-.6,1.19-1.38,0-1.8-2.66-2.76-4.37-2.86,0-.42,0-.83-.01-1.23,0-.38-.01-.75-.01-1.12h4.48c.66,0,.89-.35.89-.65,0-.63-1.73-2.41-2.53-2.41Z"/><path class="cls-1" d="m207.54,5.4c-.39,0-.78.32-1.16.96-.07.09-.17.14-.23.14h-4.36c.8-1.11,1.69-2.54,2.22-3.58.12-.26.16-.31.45-.35.96-.15,1.06-.61,1.06-.8,0-.91-3.56-1.77-3.59-1.77-.19,0-.34.16-.34.37,0,.07,0,.16.04.31.02.09.02.22.02.36,0,1-.46,2.94-1.29,5.46h-.7c-.71-.48-2.64-1.28-2.93-1.28-.06,0-.34.02-.34.37,0,.04,0,.14.04.24.24,1.12.3,3.45.3,3.78.03.6.03,1.79.03,3.3,0,4.48-.07,10.29-.27,13.18v.09c0,.69.45,1.13,1.13,1.13s1.47-.53,1.47-1.32v-1.48h7.51c0,.23-.02.45-.03.67-.01.27-.03.52-.03.75v.03c0,.69.48,1.16,1.16,1.16.43,0,.84-.17,1.13-.48.25-.27.38-.6.36-.94-.15-3.42-.24-10.68-.24-14.38,0-2.67.02-2.68.49-2.96.33-.2.79-.47.79-.96,0-1.03-2.47-2.01-2.68-2.01Zm-.92,10.31c0,2.47,0,5.21-.03,7.45h-7.51c0-1.06-.02-2.24-.03-3.46-.01-1.32-.03-2.69-.03-3.98h7.6Zm-7.32-7.63c.06-.04.12-.08.17-.11.05-.03.09-.06.12-.09h6.79c.09,0,.14.03.14.1.05.74.09,3.11.09,6.38h-7.6c0-2.57.03-4.67.06-5.44q.04-.73.22-.84Z"/><path class="cls-1" d="m239.87,7.94c-3.9,4.72-13.57,13.89-17.39,13.89-.58,0-.97-.23-1.19-.67-.07-.19-.28-.64-.66-.64-.6,0-.86,1.06-.86,1.47,0,1.78,2.86,3.05,3.78,3.05.59,0,.95-.32,1.33-.66.2-.18.41-.37.67-.53,6.56-3.93,13.22-10.66,15.15-15.31.36-.85.39-1.01.39-1.11v-.31h-.28c-.12,0-.24,0-.92.83Z"/><path class="cls-1" d="m222.38,7.64c1.04.52,2.73,1.57,3.8,2.48h0c.51.42.96.61,1.42.61.67,0,1.16-.53,1.16-1.26,0-1.06-1.04-2.86-4.96-2.86-.88,0-1.92.1-1.92.56,0,.13.06.28.49.47Z"/><path class="cls-1" d="m223.15,15.63c.7,0,1.16-.48,1.16-1.19,0-1.14-1.04-2.47-3.96-2.47-2.16,0-3.04.57-3.07.59l-.13.08v.15c0,.25.22.33.43.41l.13.05c1.21.39,3.02,1.25,4.13,1.95.49.3.91.43,1.3.43Z"/><path class="cls-1" d="m262.25,12.02c-.3,0-.48.11-.62.2l-.07.04c-.19.14-.33.19-.61.22-1.13.08-2.09.2-3.12.32-.87.1-1.75.21-2.72.29-.1,0-.25,0-.42.01-.58.02-1.47.01-1.7-.05l-.1-.04c-.18-.08-.37-.16-.55-.16-.31,0-.53.22-.53.56,0,1.28,1.97,1.98,2.62,1.98.35,0,.74-.08,1.26-.22,1.71-.51,3.91-.88,5.87-1.02,0,0,.02.03.02.14,0,.19-.09,1.01-.27,2.1-.36-.1-.84-.18-1.36-.08-4.3.52-4.71.54-5.22.54-.7,0-.98-.07-1.06-.11-.1-.07-.21-.14-.3-.17-.16-.08-.33-.12-.49-.12-.25,0-.53.16-.53.62,0,1.28,2.08,1.98,2.77,1.98.09,0,.22,0,1.38-.28,1.98-.55,3.67-.67,4.51-.68-.11.64-.23,1.27-.33,1.85l-.12.67c-6.37.59-6.67.59-6.86.59-.7,0-.98-.07-1.06-.1-.11-.07-.26-.15-.33-.17-.16-.08-.33-.12-.49-.12-.25,0-.53.16-.53.62,0,1.04,1.61,2.01,2.86,2.01.41,0,.83-.08,1.37-.22,1.48-.37,3.44-.6,5.12-.6.72,0,1.42.05,1.9.14.16.04.31.04.4.04.67,0,.98-.43.98-.83,0-.5-.45-1.11-1.43-1.34,1.23-5.26,1.41-5.84,1.67-5.96.34-.17.73-.52.73-.95,0-.86-2.2-1.68-2.68-1.68Z"/><path class="cls-1" d="m294.41,8.26c-.38,0-.61.15-.84.3-.23.15-.47.3-.94.34-1.47.13-2.82.29-4.13.44-1.39.16-2.83.33-4.43.47-.35.03-1.08.09-1.77.09-.65,0-1.23-.06-1.45-.15-.38-.19-.63-.27-.83-.27-.26,0-.44.17-.44.44,0,1.34,2.29,2.5,3.41,2.5.48,0,1.03-.12,1.78-.31,3.05-.87,6.92-1.42,8.76-1.42.15,0,.32,0,.32.48,0,.24-.35,2.66-1.11,7.39-9.3.89-9.47.89-10.14.89-.9,0-1.56-.09-1.87-.24l-.11-.06c-.33-.18-.61-.34-.88-.34-.14,0-.47.06-.47.62,0,1.4,2.5,2.56,3.78,2.56.58,0,1.14-.14,1.85-.32l.1-.03c2.21-.54,5.12-.87,7.58-.87,1.25,0,2.19.07,2.86.21.17.03.31.04.45.04.69,0,1.16-.38,1.16-.92,0-.36-.4-1.3-2.15-1.58l.35-1.43c.41-1.68.89-3.65,1.24-5.03.09-.34.22-.56.38-.64.75-.4.91-.84.91-1.13,0-.97-2.53-2.01-3.38-2.01Z"/><path class="cls-1" d="m325.25,8.29c-.4,0-.69.2-.97.39-.25.17-.49.34-.82.37-.86.07-2.59.29-4.11.49-1.14.15-2.19.28-2.73.33-.63.08-1.37.12-2.18.12-1.84,0-2.05-.33-2.07-.36-.16-.25-.45-.4-.75-.4-.37,0-.8.24-.8.92,0,.86,2.45,2.44,4.17,2.44.6,0,1.15-.19,1.92-.45.24-.08.51-.17.81-.27,3.4-1.09,6.51-1.32,6.53-1.32.26,0,.57.08.57.31-.08.52-5.32,10.4-13.7,13.99-.97.4-.97.68-.97.78,0,.04.01.34.44.34.23,0,.51-.05.87-.16,6.62-1.91,11.58-6.15,15.62-13.37.35-.6.62-.76.99-.98l.22-.14c.33-.21.77-.55.77-1,0-1.15-3.04-2.04-3.81-2.04Z"/><path class="cls-1" d="m316.48,6.97c.32,0,.65-.03.96-.09l1.28-.22c1.99-.34,4.04-.68,5.83-.78,1.06-.08,1.54-.64,1.54-1.16,0-1.16-1.96-1.41-2.44-1.41-.78,0-1.25.26-1.69.52-.33.19-.64.36-1.1.46-1.74.42-3.12.63-4.21.63-.94,0-1.66-.17-2.07-.48-.19-.15-.38-.3-.6-.3-.34,0-.56.32-.56.83,0,1.13,1.35,2.01,3.08,2.01Z"/></g></g></svg>