<?xml version="1.0" encoding="UTF-8"?><svg id="Layer_2" xmlns="http://www.w3.org/2000/svg" viewBox="0 0 261.06 23.73"><defs><style>.cls-1{fill:#231f20;}</style></defs><g id="text"><path class="cls-1" d="m24.1,14.64c0,.92-.49,1.58-1.17,1.58-.36,0-1.06-.21-1.66-1.63h0c-.74-1.77-2.98-4.42-4.71-6.01-.11-.09-.27-.24-.27-.44,0-.19.16-.33.36-.33.58,0,7.46,3.34,7.46,6.83ZM7.81,10.17h.06c.9-.18,1.04-.58,1.04-.81,0-.85-2.84-1.84-2.99-1.84-.07,0-.31.02-.36.42-.53,3.17-3.44,7.31-5.25,8.97-.22.22-.32.38-.32.54,0,.18.15.33.33.33.83,0,4.9-3,6.99-7.23.16-.32.18-.32.49-.38ZM11.51,1.07c-.24,0-.39.15-.39.39,0,.04,0,.14.03.19.24,1.15.31,2.4.31,2.96.05,2.13.08,5.54.08,8.91,0,2.58-.03,4.81-.08,6.1-.02.57-.17,1.08-1.82,1.08-.76,0-1.78-.11-3.1-.33-.18-.03-.27-.03-.36-.03-.35,0-.36.28-.36.31,0,.25.15.33,1.47.93.71.32,1.9.86,2.07,1.06l.07.1c.12.17.26.38.63.38,1.57,0,3.74-1.12,3.74-3.22,0-.36-.04-1.32-.07-2.13l-.04-.92c-.02-1.38-.05-3.74-.05-6.24,0-2.22.02-5.13.1-6.4.05-.81.07-.82.27-.92.08-.04.17-.09.27-.16.37-.24.57-.52.57-.81,0-1.01-3.32-1.25-3.35-1.25Zm36.5,10.66c0,.3-.21.62-.8.62h-5.23c.7.37,1.43.88,1.43,1.22,0,.16-.08.54-.8.54h-.21c-.15,0-.21.04-.37.16l-.09.07c-.2.16-.55.44-.91.71h2.63s.12-.04.15-.1c.02-.02.96-1.33,1.47-1.33s2.34,1.27,2.34,2.03c0,.3-.21.62-.8.62h-6.11s0,.02,0,.03c0,.29-.27.52-.46.6-.27.14-.29.14-.29,1.43h2.26s.07-.04.14-.13l.17-.22c.65-.81.84-1.06,1.22-1.06.47,0,2.34,1.3,2.34,2,0,.1-.04.62-.8.62h-5.33c.01.35.02.72.04,1.1.02.65.05,1.33.06,2.02.01.24-.07.47-.25.66-.23.24-.59.39-.97.39-.61,0-1.01-.36-1.01-.91v-.07c.07-.99.12-2.11.15-3.18h-.18c-1.18,0-2.24.02-4.31.26h0c-.65,0-1.54-1.12-1.54-1.58v-.32l.32.04c2.5.34,4.6.39,5.63.39h.08v-.63c0-.18-.01-.37-.02-.56,0-.3-.02-.59-.04-.87h-.55c-1.28,0-3.24.05-5.32.28h0c-.7,0-1.51-1.18-1.51-1.63v-.33l.32.05c1.94.27,4.13.37,5.45.4-.13-.15-.24-.34-.32-.57-.15-.4-.54-.96-1.11-1.57l-.09-.11c-.08-.09-.14-.17-.14-.29,0-.04,0-.07.01-.1-.89.04-1.87.11-2.87.23h0c-.7,0-1.51-1.18-1.51-1.63v-.08c-.74,2.31-1.44,4.98-1.44,6.87,0,.9.13,1.74.38,2.48.35,1.02.3,1.96-.14,2.57-.7.98-2.31.74-2.31-1.57v-.31c.02-.34.07-.66.11-.99.06-.44.12-.9.12-1.33,0-.87-.23-1.82-1.89-2.25-.43-.1-.84-.24-.84-.56,0-.44.64-.44.91-.44,1.02,0,1.47-.1,1.9-1.05l.29-.63c3.87-8.54,4.15-8.54,4.45-8.54.08,0,.34.03.34.39,0,.2-.11.52-.15.62-.02.04-.84,2.03-1.64,4.5l.25.04c2.83.4,6.24.41,6.62.41h.73c0-.32,0-.68.01-.99,0-.17,0-.33,0-.47h-.18c-1.24,0-2.04.03-4.05.26h0c-.65,0-1.54-1.12-1.54-1.58v-.32l.32.04c1.91.26,3.71.39,5.37.39h.08c-.01-.45-.07-1-.27-1.75-.03-.09-.03-.17-.03-.23v-.11h-3.31c-.05.55-.64.91-1.19.91s-.91-.34-.91-.85v-.08c.12-1.29.18-2.26.18-3.07,0-.91-.04-1.52-.15-2.08-.03-.08-.03-.17-.03-.21,0-.2.15-.36.33-.36.45,0,1.69.63,2.16.96h8.76l.29.15-.22-.18c.4-.48.62-.73.97-.73.23,0,2.05.82,2.05,1.61,0,.47-.51.73-.7.83-.26.16-.26.18-.26.53,0,.27.03.6.06,1,.03.37.07.8.09,1.3.01.27-.08.52-.26.71-.22.23-.54.36-.88.36-.52,0-.9-.33-.93-.81h-4.39c.84.17,1.76.47,1.76.94,0,.32-.33.52-.57.64-.11.05-.2.09-.28.12-.19.08-.23.09-.25.38h2.02s.09-.04.12-.1c.93-1.2,1.25-1.2,1.36-1.2.45,0,2.29,1.13,2.29,1.9,0,.29-.2.62-.78.62h-5.02v1.46h4.08s.12-.04.15-.1c.23-.34.98-1.41,1.46-1.41s2.34,1.26,2.34,2.1Zm-7.56.62h-3.33c-.24,0-.5,0-.79,0,.82.21,1.77.69,1.77,1.82,0,.35-.13.66-.33.89h1.76c.73-1.4.84-2,.92-2.69,0,0,0-.01,0-.02Zm1.32-9.07c-.02.65-.03,1.19-.03,1.9h2.01v-.6c0-.66,0-1.34-.03-1.8l-1.45.03c-.11.14-.3.25-.52.3.02,0,.02.05.02.17Zm-3.64,0c-.02.61-.02,1.28-.03,1.9h1.75c0-.17.01-.35.02-.54.01-.32.03-.66.03-1.03,0-.33,0-.57-.02-.81h-1.25c-.11.14-.3.25-.52.3.02,0,.02.05.02.17Zm-1.91-.47h-1.61s-.02.01-.03.02q-.25.18-.25.79c0,.25,0,.54.01.84,0,.24,0,.49.01.73h1.89c.01-.47.01-.98.01-1.56,0-.31-.01-.56-.04-.81Zm-11.64,4.93c.78.43,1.73,1.21,2.12,1.74.31.42.72.66,1.14.66.66,0,1.19-.59,1.19-1.32,0-1.46-1.83-1.97-3.53-1.97-1.08,0-1.38.09-1.38.41,0,.2.15.29.34.41l.12.07Zm2.18-5.95c.75.55,1.58,1.43,1.92,2.04h0c.42.74.92.9,1.26.9.69,0,1.25-.6,1.25-1.35,0-1.67-2.48-2.44-4.16-2.44-.38,0-.7,0-.7.33,0,.19.13.29.43.51Zm38.91,2.66l-.02,2.37h2.12l.03-.04c.27-.37.59-.81,1-.81.32,0,2.39.85,2.39,1.69,0,.4-.4.64-.69.81q-.41.23-.41,1.5c0,2.83.19,10.17.31,12.28v.09c0,.74-.66,1.19-1.27,1.19s-1.01-.42-1.01-1.04v-1.02h-9.26v.91c0,.67-.68,1.12-1.32,1.12-.56,0-.93-.38-.93-.93v-.1c.21-2.64.29-8.97.32-11.67,0-.61.01-1.06.02-1.29,0-.27-.05-2.33-.25-3.26l-.03-.2c-1.54,3.73-3.21,8.44-3.21,11.45,0,.89.13,1.83.38,2.79.29,1.04.18,2.03-.29,2.64-.25.32-.57.5-.92.5-.6,0-1.3-.56-1.3-2.13v-.34c.02-.34.07-.66.11-.99.06-.44.12-.9.12-1.32,0-.87-.23-1.82-1.89-2.25-.43-.1-.84-.24-.84-.56,0-.44.63-.44.91-.44,1.04,0,1.51-.09,1.9-1.05.04-.1,4.33-10.26,5.31-10.26h.28l.03.34c0,.17-.07.42-.21.71-.09.21-.18.42-.27.63.06-.05.13-.07.22-.07.27,0,2,.81,2.49,1.12h1.36c0-.97-.05-2.45-.14-3.28-1.12.02-2.65.07-3.91.2h0c-.65,0-1.4-1.09-1.4-1.5v-.32l.32.04c2.39.3,6.16.36,7.3.36h4.99s.1-.04.12-.07c.86-1.33,1.19-1.57,1.57-1.57.1,0,.19,0,.31.05.87.32,2.29,1.57,2.29,2.18,0,.18-.09.6-.88.6h-5.14c-.07.14-.22.28-.5.4,0,0-.08.04-.08.54Zm2.43,13.33h-9.19c0,.46,0,.91-.01,1.35,0,.38,0,.75-.01,1.1h9.23l-.02-2.45Zm-9.16-3.45c1.13-1.46,1.75-3.51,1.87-6.25h-1.43c-.06.04-.11.08-.2.13-.06.03-.08.04-.1.06-.01.04-.02.32-.03.45-.02.71-.07,3.01-.1,5.61Zm9.16,2.21c0-1.17,0-2.24,0-3.21-.37.49-1.18.79-2.28.79-1.77,0-2.03-1.01-2.05-1.89,0-.19,0-.58,0-1.07,0-.84.02-2,.02-3.07h-1.14c-.29,3.46-1.26,5.56-3.21,6.99l-.09.06c-.17.12-.28.19-.4.22,0,.39,0,.79-.01,1.18h9.18Zm-.02-4.55c-.02-2.02-.05-3.39-.08-3.88l-2.37-.02c0,.36,0,.72-.01,1.06,0,.4-.01.78-.01,1.15,0,.44,0,.83.02,1.16,0,.24,0,.45,0,.61,0,.07.04.1.21.14h.08c.49,0,.6,0,.78-1.8.03-.28.07-.59.36-.59.27,0,.3.2.4.78.04.27.13.82.21.97.17.1.31.25.42.43Zm-5.37-7.07c0,.67,0,1.31-.02,1.9h1.09v-1.56c0-.31-.02-1.09-.06-1.75h-.42c-.06.16-.2.3-.38.37l-.09.05c-.05.03-.12.06-.13.07,0,0-.01.04-.01.21,0,.06,0,.13,0,.22,0,.13.02.29.02.48Zm-11.89-3.12c.75.55,1.58,1.43,1.92,2.04h0c.42.74.92.9,1.26.9.69,0,1.25-.6,1.25-1.35,0-1.67-2.48-2.44-4.16-2.44-.38,0-.7,0-.7.33,0,.19.13.29.43.51Zm-.06,7.69c.31.42.72.66,1.14.66.66,0,1.19-.59,1.19-1.32,0-1.46-1.83-1.97-3.53-1.97-1.08,0-1.38.09-1.38.41,0,.2.15.29.35.41l.11.07c.78.43,1.73,1.21,2.12,1.74Zm23.51-7.05c.88.52,2.1,1.55,2.74,2.54.52.81,1.09.93,1.38.93.65,0,1.17-.59,1.17-1.35,0-2.35-4.42-2.88-5.09-2.88-.47,0-.49.3-.49.36,0,.17.13.28.29.4Zm5.27,6.29l.33.05c.16.03.34.05.54.07.02-.11.09-.27.27-.55.75-1.18,2.11-4.57,2.11-5.82,0-.18,0-.6.39-.6.11,0,2.65.69,2.65,1.58,0,.35-.34.62-.91.72-.26.06-.3.08-.34.15-.11.21-.21.43-.33.64h2.25c0-.3,0-.56-.02-.78,0-.18,0-.32,0-.42-.02-.7-.08-2.17-.25-2.84-.04-.05-.04-.16-.04-.23,0-.08.03-.33.39-.33.03,0,3.04.3,3.04,1.22,0,.28-.2.55-.55.72-.12.06-.21.1-.3.14q-.19.08-.22.59c-.02.31-.05,1.03-.05,1.94h1.59s.1-.05.12-.07c.92-1.42,1.23-1.54,1.46-1.54.07,0,.17,0,.28.05.84.29,2.32,1.61,2.32,2.21,0,.21-.11.57-.88.57h-4.89v2.94h2.97s.1-.04.12-.07c.98-1.5,1.27-1.62,1.54-1.62.07,0,.17,0,.28.05,1.05.37,2.42,1.82,2.42,2.28,0,.21-.11.57-.88.57h-7.98c-.43,0-4.25,0-6,.23h0c-.58,0-1.44-1.12-1.44-1.53v-.33Zm3.97-2.53c-.89,1.36-1.7,2.28-2.24,2.74,1.72.14,3.98.2,5.24.2v-2.94h-3Zm9,8.71c0,.56,0,.79.21,3.62v.1c0,.72-.66,1.17-1.27,1.17-.52,0-1.04-.33-1.04-1.06v-.32h-5.69l.02.51c.01.28-.08.54-.27.73-.3.31-.79.4-1.03.4-.61,0-1.01-.37-1.01-.93v-.1c.15-1.74.18-2.92.18-4.26,0-.64-.06-1.94-.3-2.78-.04-.11-.04-.2-.04-.26v-.28l.31-.05c.18,0,1.96.69,2.62,1.14h4.89s.09-.03.14-.1c.13-.21.67-.83,1.08-.83.17,0,2.31.8,2.31,1.77,0,.45-.44.72-.74.89-.38.22-.38.29-.38.67Zm-7.83,1.07c0,.23,0,.46.01.69,0,.17,0,.33.01.5h5.71c.02-.64.04-1.3.04-1.95,0-.49-.03-.95-.05-1.39,0-.03-.04-.05-.11-.05h-5.14s-.06.05-.11.08l-.12.08q-.2.13-.22.68c0,.21,0,.43-.01.66,0,.22-.01.45-.01.69Zm12.09,3.72c-.06,0-.16.01-.39.09-3.08.93-7.52,1.34-10.55,1.34-4.06,0-6.1-.72-6.84-2.41-.07-.16-.11-.49-.11-.66v-1.04c0-1,.02-2.83.13-3.85.03-.29.07-.31.3-.38.07-.02.15-.05.23-.08.54-.22.83-.52.83-.86,0-.84-2.07-1.79-2.42-1.79-.23,0-.44.12-.98.76-.07.08-.15.13-.21.13l-.48.03c-.54,0-2.22-.22-3.18-.36l-.33-.05v.33c0,.51.83,1.66,1.47,1.66.27-.01.72-.09,1.16-.16.37-.06.75-.12.95-.13l.48-.02v.96c0,4.26-.03,5.04-.34,5.32-1.22.98-3,2.09-4.07,2.33-.38.08-.41.33-.41.41,0,.31,1.79,2.13,2.26,2.13.39,0,.52-.41.59-.62.01-.04.03-.09,0-.07l.79-.85c.81-.87,1.71-1.84,2.28-2.54,1.53,4.03,6.83,4.03,9.44,4.03,3.45,0,6.81-.41,6.87-.42.4-.08.58-.35.7-.57.19-.4.88-.98,1.39-1.41.62-.51.79-.67.79-.89,0-.19-.16-.33-.36-.33Zm21.86-7.49c0,7.93-8.93,10.42-11.46,10.42-.58,0-.65-.27-.65-.39,0-.23.17-.49,1.38-.82,7.86-2.12,8.48-7.67,8.48-9.32,0-3.41-2.29-7.08-7.31-7.08-.11,0-.22,0-.33,0,.45.68.69,1.8.69,3.22,0,5.72-4.6,11.78-7.07,11.78-1.08,0-1.62-.97-2.25-2.1-.24-.43-.49-.87-.79-1.3-.44-.6-.67-1.48-.67-2.53,0-4.4,3.74-10.5,10.76-10.5,6.34,0,9.23,4.46,9.23,8.6Zm-10.68-4.89c0-2.03-.53-2.03-.73-2.03-.07,0-.12,0-.19.02-.08.03-.17.03-.24.04-4.08,1.19-6.28,5.09-6.28,8.17,0,2.24,1.09,3.75,2.11,3.75,1.55,0,5.33-5.3,5.33-9.93Zm15.01-5.52c.75.55,1.58,1.43,1.92,2.04h0c.42.74.92.9,1.26.9.69,0,1.25-.6,1.25-1.35,0-1.67-2.48-2.44-4.16-2.44-.38,0-.7,0-.7.33,0,.19.13.29.43.51Zm14.86,2.66l-.02,2.37h2.12l.02-.04c.27-.38.59-.82,1-.82.32,0,2.39.85,2.39,1.69,0,.4-.4.64-.69.81q-.41.23-.41,1.5c0,2.83.19,10.18.31,12.28v.09c0,.74-.66,1.19-1.27,1.19s-1.01-.42-1.01-1.04v-1.02h-9.26v.91c0,.67-.68,1.12-1.32,1.12-.56,0-.93-.38-.93-.93v-.1c.21-2.63.28-8.69.32-11.6,0-.64.01-1.12.02-1.35,0-.44-.06-2.4-.25-3.26l-.03-.2c-1.54,3.73-3.21,8.44-3.21,11.45,0,.9.13,1.83.38,2.79.28,1.04.18,2.03-.29,2.64-.25.32-.58.5-.92.5-.6,0-1.3-.56-1.3-2.13v-.34c.02-.34.07-.66.11-.99.06-.44.12-.9.12-1.32,0-.87-.23-1.82-1.89-2.25-.43-.1-.84-.24-.84-.56,0-.44.64-.44.91-.44,1.04,0,1.51-.09,1.9-1.05.04-.1,4.33-10.26,5.31-10.26h.28l.03.34c0,.17-.07.42-.21.71-.09.21-.18.42-.27.63.06-.05.13-.07.22-.07.27,0,2,.81,2.49,1.12h1.36c0-.98-.05-2.46-.14-3.28-1.12.02-2.65.07-3.91.2h0c-.65,0-1.4-1.09-1.4-1.5v-.32l.32.04c2.39.3,6.16.36,7.3.36h4.99s.1-.05.12-.07c.86-1.33,1.19-1.57,1.57-1.57.09,0,.2,0,.31.05.87.31,2.29,1.57,2.29,2.18,0,.14-.06.6-.88.6h-5.14c-.07.14-.22.28-.5.4,0,0-.08.04-.08.54Zm2.43,13.33h-9.19c0,.46,0,.91-.01,1.35,0,.38,0,.75-.01,1.1h9.23l-.02-2.45Zm-9.16-3.45c1.13-1.46,1.75-3.51,1.87-6.25h-1.44c-.06.04-.11.08-.2.13-.06.03-.08.04-.1.06-.01.04-.02.33-.03.45-.02.86-.07,3.12-.1,5.61Zm9.16,2.21c0-1.17,0-2.24,0-3.21-.37.49-1.18.79-2.28.79-1.77,0-2.02-1.01-2.05-1.89,0-.19,0-.58,0-1.07,0-.84.02-2,.02-3.07h-1.15c-.29,3.46-1.26,5.56-3.21,6.99l-.08.06c-.18.12-.29.2-.41.22,0,.4,0,.79-.01,1.19h9.18Zm-.02-4.55c-.02-2.02-.05-3.39-.09-3.88l-2.37-.02c0,.36,0,.72-.01,1.06,0,.4-.01.78-.01,1.15,0,.44,0,.83.02,1.16,0,.24,0,.45,0,.61,0,.07.04.1.21.14h.08c.49,0,.6,0,.78-1.8.03-.28.06-.59.36-.59.27,0,.3.2.4.78.04.27.13.82.21.98.17.1.31.25.42.43Zm-5.37-7.07c0,.67,0,1.31-.02,1.9h1.09v-1.56c0-.29-.02-1.09-.06-1.75h-.42c-.06.16-.2.3-.38.37l-.09.05c-.05.03-.12.06-.13.07,0,0-.01.04-.01.21,0,.06,0,.13,0,.22,0,.13.02.29.02.48Zm-11.95,4.56c.31.42.72.66,1.14.66.66,0,1.19-.59,1.19-1.32,0-1.46-1.83-1.97-3.53-1.97-1.08,0-1.38.09-1.38.41,0,.2.15.29.34.41l.12.07c.78.43,1.73,1.21,2.12,1.74Zm30.65-1.91c-.38,0-.68.3-1.39,1.41-.02.03-.08.06-.1.07h-.91v-.58c.89-.7,1.67-1.48,2.29-2.12.21-.21.4-.4.56-.56l.08-.08q.11-.12.21-.12h.26c.75,0,.83-.38.83-.54,0-.59-1.98-1.87-2.36-1.87-.29,0-.33.29-.35.43v.04c-.28,1.07-.98,2.36-1.52,3.27,0-1.78.03-3.17.08-3.96.03-.52.08-.55.3-.65.06-.03.13-.06.2-.1.15-.07.6-.3.6-.72,0-.94-2.98-1.22-3.01-1.22-.2,0-.33.14-.33.33,0,.04,0,.15.03.24.27,1.41.28,5.12.28,8.21-1.61-.04-3.04-.16-4.28-.35l-.33-.05v.33c0,.4.85,1.53,1.41,1.53h0c1.05-.14,2.04-.21,3.02-.23-.79,2.64-3.68,6.96-5.07,8.16-.36.32-.48.5-.48.68s.16.33.36.33c.33,0,3.26-1.55,5.31-5.02-.05,2.4-.14,5.13-.26,8.17,0,.79.52,1.14,1.04,1.14.65,0,1.35-.51,1.35-1.27v-.03c-.09-3.05-.15-6.38-.18-9.25.5.44,1.01,1.09,1.47,1.86.43.71.89.86,1.21.86.6,0,1.06-.54,1.06-1.22,0-1.56-2.26-2.39-3.75-2.48,0-.34,0-.68-.01-1.02,0-.31,0-.62-.01-.92h3.8c.59,0,.8-.32.8-.59,0-.55-1.51-2.1-2.21-2.1Zm14.06-1.17c0,.44-.4.68-.69.86-.38.22-.4.23-.4,2.5,0,3.18.08,9.4.21,12.31.01.3-.1.6-.32.83-.26.27-.62.42-1,.42-.61,0-1.04-.43-1.04-1.04v-.03c0-.2.01-.42.02-.65,0-.17.02-.34.02-.53h-6.34v1.22c0,.7-.67,1.17-1.3,1.17s-1.01-.4-1.01-1.01v-.08c.17-2.49.23-7.46.23-11.28,0-1.29,0-2.31-.03-2.82,0-.28-.05-2.28-.25-3.23-.03-.08-.03-.16-.03-.21,0-.35.3-.36.34-.36.27,0,1.93.7,2.52,1.09h.55c.7-2.11,1.09-3.79,1.09-4.63,0-.11,0-.23-.02-.3-.03-.14-.03-.22-.03-.28,0-.2.15-.36.33-.36.03,0,3.12.73,3.12,1.56,0,.17-.09.59-.94.72-.23.04-.26.07-.36.28-.45.88-1.19,2.06-1.86,3.01h3.65s.11-.03.17-.1c.33-.55.68-.83,1.03-.83.17,0,2.34.83,2.34,1.77Zm-9.59,7.15c0,1.1.01,2.25.03,3.37.01,1.03.02,2.03.02,2.93h6.35c.02-1.89.02-4.17.02-6.3h-6.43Zm.11-6.47c-.03.05-.05.34-.06.61-.03.66-.05,2.44-.05,4.61h6.43c0-2.78-.03-4.79-.08-5.42,0-.03,0-.05-.08-.05h-5.8s-.06.05-.11.08c-.03.03-.09.06-.14.09-.04.03-.1.06-.11.07Zm-12.67-2.38c.54.56,1.07,1.54,1.23,2.09h0c.28.94.88,1.04,1.13,1.04.56,0,1.19-.54,1.19-1.32,0-1.66-2.63-2.57-3.51-2.57l-.33.03v.28c0,.12.06.2.17.32l.12.13Zm30.42,1.93c1.05.52,2.44,1.43,3.25,2.12h0c.45.37.84.54,1.25.54.6,0,1.04-.47,1.04-1.12,0-.93-.9-2.49-4.29-2.49-1.12,0-1.69.17-1.69.52,0,.13.05.27.44.44Zm14.96.19c-3.33,4.03-11.59,11.88-14.86,11.88-.48,0-.8-.19-.98-.54-.14-.37-.36-.57-.6-.57-.58,0-.78,1.02-.78,1.3,0,1.55,2.48,2.65,3.27,2.65.52,0,.85-.29,1.16-.58.17-.15.35-.31.57-.45,5.63-3.37,11.33-9.14,12.99-13.13.31-.74.33-.87.33-.97v-.31h-.28c-.12,0-.22,0-.82.73Zm-14.29,6.65c.62,0,1.04-.43,1.04-1.06,0-.99-.9-2.16-3.43-2.16-1.86,0-2.62.49-2.65.51l-.13.08v.15c0,.24.22.32.39.38l.12.04c1.03.33,2.58,1.06,3.53,1.66.43.26.79.38,1.13.38Zm31.41-3.17c-.27,0-.43.1-.61.21-.16.12-.26.16-.5.18-.96.07-1.79.17-2.66.27-.74.09-1.5.18-2.34.25-.09,0-.21,0-.36,0-.49.02-1.25,0-1.43-.04l-.08-.04c-.15-.07-.33-.14-.49-.14-.29,0-.49.21-.49.52,0,1.12,1.72,1.74,2.29,1.74.31,0,.64-.07,1.09-.19,1.44-.43,3.3-.74,4.99-.84,0,.01,0,.03,0,.05,0,.16-.08.84-.23,1.75-.31-.08-.71-.14-1.14-.06-3.69.45-4.02.47-4.46.47-.62,0-.84-.06-.88-.08-.08-.06-.18-.12-.27-.15-.14-.07-.29-.11-.44-.11-.24,0-.49.15-.49.57,0,1.12,1.81,1.74,2.42,1.74.08,0,.19,0,1.19-.24,1.65-.46,3.07-.57,3.8-.58-.09.54-.19,1.08-.28,1.57l-.09.51c-5.42.5-5.68.5-5.84.5-.62,0-.84-.06-.88-.08-.1-.07-.23-.13-.29-.15-.14-.07-.29-.11-.44-.11-.24,0-.49.15-.49.57,0,.91,1.4,1.76,2.49,1.76.35,0,.71-.07,1.19-.19,1.26-.32,2.94-.51,4.38-.51.61,0,1.21.05,1.62.12.14.04.27.04.36.04.61,0,.88-.39.88-.75,0-.44-.38-.96-1.21-1.18,1.03-4.42,1.2-4.94,1.4-5.04.3-.15.65-.46.65-.85,0-.81-1.99-1.48-2.34-1.48Zm25.45-3.22c-.33,0-.55.14-.75.26-.19.12-.4.25-.79.29-1.26.11-2.4.25-3.54.38-1.19.14-2.42.28-3.83.41-.62.05-2.33.09-2.7-.05-.33-.16-.55-.24-.72-.24-.25,0-.41.17-.41.41,0,1.17,1.99,2.18,2.96,2.18.41,0,.89-.1,1.53-.27,2.6-.75,5.92-1.21,7.49-1.21.13,0,.24,0,.24.37,0,.21-.3,2.26-.95,6.29-7.94.76-8.08.76-8.65.76-.76,0-1.33-.07-1.58-.2l-.09-.05c-.29-.16-.54-.3-.77-.3-.13,0-.44.05-.44.57,0,1.22,2.17,2.23,3.27,2.23.51,0,.99-.12,1.59-.27l.09-.02c1.89-.46,4.38-.75,6.49-.75,1.07,0,1.87.06,2.44.18.15.03.27.03.39.03.61,0,1.04-.34,1.04-.83,0-.32-.34-1.14-1.83-1.38l.32-1.32c.34-1.41.74-3.02,1.03-4.17.08-.28.18-.46.3-.53.66-.35.8-.74.8-1,0-.91-2.28-1.77-2.93-1.77Zm16.82-1.02c.28,0,.56-.03.83-.08l1.11-.19c1.7-.29,3.45-.58,4.98-.67.94-.07,1.35-.57,1.35-1.04,0-1.17-2.11-1.25-2.13-1.25-.68,0-1.08.23-1.47.45-.28.16-.54.31-.94.39-2.71.66-4.58.72-5.36.12-.16-.13-.33-.26-.53-.26-.31,0-.52.29-.52.75,0,.99,1.17,1.77,2.68,1.77Zm7.51,1.05c-.36,0-.62.18-.85.34-.21.15-.41.28-.68.31-.73.06-2.21.25-3.51.42-.98.13-1.89.24-2.35.29-.53.07-1.18.1-1.86.1-1.55,0-1.73-.27-1.74-.29-.35-.52-1.4-.53-1.4.47,0,.82,2.23,2.13,3.61,2.13.52,0,1-.16,1.66-.38.21-.07.43-.15.69-.23,2.88-.92,5.56-1.13,5.58-1.13.21,0,.45.06.45.22-.14.8-4.92,9.04-11.71,11.95-.85.35-.85.62-.85.7,0,.03.01.34.41.34.2,0,.45-.05.75-.14,5.68-1.63,9.94-5.28,13.4-11.47.29-.51.52-.64.83-.83l.19-.12c.29-.19.68-.48.68-.89,0-1.03-2.61-1.79-3.3-1.79Z"/></g></svg>