<?xml version="1.0" encoding="UTF-8"?><svg id="Layer_2" xmlns="http://www.w3.org/2000/svg" viewBox="0 0 312.51 112.19"><defs><style>.cls-1{fill:#231f20;}</style></defs><g id="text"><path class="cls-1" d="m1.79,24.62c-.79,0-1.65-1.25-1.65-1.74v-.32l.32.04c2.92.34,8,.45,9.51.45h1.4l.02-.92c.03-1.62.06-3.62.06-5.65h-.44c-1.38,0-3.51.05-5.79.31h0c-.73,0-1.6-1.27-1.6-1.74v-.32l.32.04c2.54.33,5.71.45,7.22.45h.3c0-1.02,0-2.02-.01-2.99,0-.85-.01-1.67-.01-2.44h-5.07C3.39,14.64.67,16.36.31,16.36H.03l-.03-.28c0-.19.13-.36.49-.75C2.74,12.97,6.19,6.11,6.19,3.31c0-.39.28-.42.37-.42.03,0,3.39.77,3.39,1.82,0,.61-.84.77-1.15.84-.26.05-.3.08-.55.67-.36.81-.74,1.56-1.15,2.29h4.33c0-1.33-.05-5.31-.39-7.05-.03-.09-.03-.18-.03-.22,0-.16.11-.34.34-.34.04,0,3.73.27,3.73,1.35,0,.3-.22.61-.59.83-.15.1-.28.17-.39.22-.21.1-.25.12-.29.95v.26c-.04.95-.08,2.35-.08,4.01h4.73c.06,0,.14-.05.18-.11,1.18-1.61,1.49-1.99,1.87-1.99.78,0,2.86,1.98,2.86,2.72,0,.15-.06.65-.87.65h-8.76v5.42h2.99c.05,0,.12-.05.2-.15,1.31-1.68,1.42-1.81,1.76-1.81.6,0,2.78,1.89,2.78,2.58,0,.31-.22.65-.84.65h-6.88c0,2.89.03,5.39.05,6.57h6.13c.1,0,.2-.06.23-.11.01-.02,1.24-2.01,1.92-2.01.88,0,2.97,2.1,2.97,2.78,0,.15-.06.62-.9.62h-14.31c-1.73,0-5.64.06-8.04.31h0Zm33.35-12.8c0-.34,0-.62.02-.67.02-.01.08-.04.14-.07l.07-.03c.07-.02.14-.06.21-.1h17.9c.83,0,.9-.47.9-.62,0-.81-2.17-2.58-2.94-2.58-.48,0-1.55,1.35-1.84,1.82-.03.05-.13.11-.23.11h-4.62c.74-.77,1.54-1.66,1.93-2.12.21-.23.22-.25.52-.29.3-.05,1.11-.17,1.11-.73,0-.82-2.61-1.64-3.23-1.82h6.31c.79,0,.87-.43.87-.62,0-.64-1.99-2.5-2.86-2.5-.46,0-1.48,1.29-1.75,1.73-.03.06-.14.11-.2.11h-4.08l.02-.52q.02-.56.22-.65c.11-.05.25-.12.42-.23.38-.23.59-.5.59-.78,0-1.05-3.47-1.29-3.5-1.29-.27,0-.34.2-.34.31l.03.16s.02.06.03.11c.2.78.24,1.84.26,2.89h-.1c-1.82,0-5.63-.09-8.42-.45l-.32-.04v.32c0,.5.82,1.74,1.6,1.74h0c2.85-.28,6.08-.31,7-.31h3.92c-.2.09-.2.36-.2.53,0,.82-.1,1.9-1.3,4.42h-2.97c.53-.14.91-.68.91-1.34,0-2.03-3.48-3.2-4.43-3.2l-.34.03v.28c0,.13.06.2.2.35l.16.18c.72.73,1.62,1.87,1.87,2.53h0c.31.81.77,1.08,1.09,1.16h-4.06c-.83-.42-2.64-1.12-3.09-1.12-.2,0-.34.14-.34.34,0,.04,0,.15.04.24.07.2.46,1.94.46,4.97,0,4.92-1.15,8.42-3.44,10.4-.51.47-.62.59-.62.77s.16.34.34.34c.08,0,.24,0,1.08-.52,5-3.25,5-9.78,5-13.29Zm7.73,11.34c.02-.94.02-1.92.02-2.9h-.05c-1.27,0-2.17.04-4.45.31h0c-.62,0-1.45-1.01-1.61-1.57-.71.7-1.33,1.18-1.62,1.18-.2,0-.34-.14-.34-.34,0-.23.21-.54.34-.71.97-1.3,3.1-4.77,3.1-6.55,0-.22,0-.59.37-.59.16,0,2.86,1.01,2.86,1.77,0,.34-.3.57-.9.7-.32.05-.36.07-.51.34-.05.08-.09.15-.14.23-.03.05-.06.1-.09.16h3v-.11c0-1.26-.12-2.57-.3-3.35l-.04-.18c0-.18.13-.37.42-.37.03,0,3.22.3,3.22,1.21,0,.27-.17.51-.52.74-.15.1-.27.16-.37.21-.19.09-.21.1-.23.85,0,.19,0,.39-.01.6,0,.13,0,.26-.01.39h2.79c.07,0,.17-.06.21-.11.98-1.33,1.35-1.51,1.61-1.51.54,0,2.61,1.43,2.61,2.24,0,.15-.06.65-.87.65h-6.35c0,.39,0,.8-.01,1.21,0,.44-.01.88-.01,1.33h2.1c.05,0,.12-.05.2-.15.83-1.04,1.11-1.37,1.48-1.37s2.55,1.24,2.55,2.13c0,.31-.22.65-.84.65h-5.48c0,1,.03,2,.05,2.9h4.82c.07,0,.17-.06.2-.11l.08-.1c.96-1.24,1.33-1.49,1.6-1.49.5,0,2.78,1.44,2.78,2.33,0,.24-.11.65-.87.65h-12.71c-1.18,0-3.53.04-5.96.31h0c-.71,0-1.66-1.22-1.66-1.74v-.33l.32.04c2.54.35,5.87.44,7.44.44h1.79Zm-5.67-4.6c1.96.28,3.87.42,5.69.43,0-.47,0-.93-.01-1.37,0-.4-.01-.79-.01-1.17h-3.88c-.52.71-1.16,1.47-1.78,2.11Zm30.32-2.05c-4.27,2.55-8.16,3.69-8.95,3.69-.29,0-.42-.18-.42-.34,0-.32.46-.56.85-.71,2.67-1.01,5.56-2.6,8.37-4.6-.05-.44-.1-.85-.15-1.17l-.03-.18c0-.27.18-.4.34-.4s.73.21,1.45.54c1.16-.9,2.13-1.71,3.01-2.52h-2.64c-1.71,0-5.25.06-7.64.31h0c-.75,0-1.63-1.26-1.63-1.74v-.32l.32.04c2.86.33,7.44.45,9.09.45h.08v-3.41h-.22c-1.31,0-2.92.02-5.35.28h0c-.72,0-1.54-1.22-1.54-1.68v-.32l.32.04c3.08.38,5.68.42,6.66.42h.14v-.71c-.04-.93-.07-2.48-.3-3.48-.03-.1-.03-.19-.03-.23,0-.21.15-.37.34-.37.03,0,3.45.33,3.45,1.35,0,.31-.25.61-.74.87-.44.28-.52.32-.52,2.58h.67s.1-.05.12-.09c.1-.16.98-1.54,1.5-1.54.07,0,.18,0,.29.06.84.33,2.34,1.56,2.34,2.24,0,.18-.08.59-.87.59h-4.06v3.41h1.56c2.17-2.15,3.98-4.3,5.54-6.57.49-.72.85-1.5,1.05-2.32.03-.1.12-.35.36-.35.29,0,3.14,1.36,3.14,2.24,0,.56-.78.7-1.07.75-.1.02-.19.04-.27.05-.31.06-.35.06-.79.63-1.63,2.04-3.3,3.91-4.96,5.56h3.06c.11,0,.21-.07.23-.11,1.24-1.93,1.71-1.93,1.87-1.93.07,0,.18,0,.29.06.84.31,2.68,1.91,2.68,2.63,0,.15-.06.62-.9.62h-8.54c-1.18,1.11-2.46,2.18-3.87,3.24h5.92c.1,0,.14-.02.17-.06.67-.76.81-.86,1.12-.86.34,0,2.47,1.06,2.47,1.91,0,.45-.43.68-.74.85l-.08.04c-.37.19-.38.2-.38,1.77,0,1.84.1,5.03.22,6.84v.07c0,.73-.7,1.18-1.35,1.18s-1.09-.42-1.09-1.04v-.67h-7.78v.81c0,.67-.73,1.12-1.4,1.12-.62,0-1.04-.38-1.04-.96v-.08c.26-2.45.33-6.12.36-7.68v-.36c0-.08,0-.23,0-.43Zm9.92,1.72c0-1.21,0-2.24-.05-2.86-.01-.05-.06-.05-.08-.05h-7.07s-.06.04-.08.06l-.15.09c-.22.13-.24.14-.28.84-.02.3-.02.67-.03,1.09,0,.26,0,.54-.02.82h7.77Zm-7.81,1.27c-.02,1.06-.02,2.22-.02,3.32h7.81c.02-1.06.02-2.22.02-3.32h-7.81Zm22.51-1.35c-.47-.65-.72-1.59-.72-2.71,0-4.73,4.02-11.29,11.57-11.29,6.81,0,9.92,4.79,9.92,9.24,0,8.52-9.61,11.2-12.32,11.2-.61,0-.68-.28-.68-.4,0-.16,0-.46,1.47-.86,8.48-2.29,9.14-8.28,9.14-10.06,0-3.68-2.47-7.64-7.89-7.64-.13,0-.27,0-.4.01.49.72.77,1.94.77,3.48,0,6.15-4.94,12.66-7.59,12.66-1.14,0-1.73-1.04-2.41-2.25-.26-.46-.53-.94-.85-1.4Zm9.3-10.02c0-2.21-.59-2.21-.81-2.21-.08,0-.13,0-.21.02-.09.03-.18.04-.25.04-4.41,1.28-6.79,5.49-6.79,8.82,0,2.43,1.19,4.06,2.29,4.06,1.67,0,5.76-5.72,5.76-10.72Zm33.14,17.17h0c2.82-.19,4.1-1.24,4.1-2.13,0-.42-.27-.82-.75-1.11-.23-.15-.45-1.15-.55-1.63-.15-.68-.2-.94-.5-.94-.22,0-.35.19-.39.54-.55,2.93-.99,3.27-4.29,3.27-3.47,0-3.47-.27-3.47-.81,0-2.5.07-2.53.49-2.74.26-.13.69-.4.69-.76,0-1-3.02-1.12-3.05-1.12-.36,0-.4.24-.4.34,0,.04,0,.16.03.24.13.76.14,1.64.14,1.89,0,.37-.04,1.1-.07,1.74-.02.33-.03.64-.04.89v.11c0,2.06,2.71,2.33,5.07,2.33.88,0,1.96-.05,2.98-.11Zm-2.57-23.35l-.02-.14c0-.16.11-.34.34-.34.31,0,2.18.84,2.65,1.15h4.55c.08,0,.11-.04.12-.06.28-.4.68-.87,1.06-.87.11,0,2.41.85,2.41,1.8,0,.44-.43.69-.74.88q-.44.24-.44,2.12c0,2.47.11,6.88.22,9.09,0,.87-.68,1.36-1.32,1.36-.49,0-1.01-.34-1.01-1.1v-.7h-5.34v.84c0,.71-.7,1.18-1.35,1.18-.6,0-.98-.4-.98-1.01v-.08c.17-2.79.2-6.97.2-9.21,0-2.86-.23-4.32-.33-4.82l.26-.16-.27.08Zm7.87,4.42c0-1.32-.04-2.15-.05-2.39,0,0-.03-.04-.04-.05h-4.93s-.08.06-.11.08l-.16.09s-.07.04-.08.05c-.01.03-.03.2-.03.49,0,.17,0,.4,0,.67,0,.31-.01.67-.02,1.07h5.42Zm0,3.47v-2.18h-5.43v2.18h5.43Zm-5.43,1.29v2.71h5.4c0-.42,0-.85.01-1.29,0-.47.01-.94.01-1.41h-5.42Zm-9.4-.87c-.04,2.25-.12,4.44-.21,5.88v.11c0,.63.4,1.04,1.01,1.04.39,0,.78-.16,1.04-.43.22-.23.32-.51.31-.82-.08-1.62-.11-4.1-.13-6.56.75.5,1.64,1.27,2.17,2.03.41.56.84.85,1.29.85.61,0,1.07-.54,1.07-1.26,0-2.09-3.08-2.5-4.54-2.64v-1.56h4.11c.78,0,.82-.49.82-.59,0-.72-1.78-2.3-2.41-2.3-.22,0-.53.11-1.42,1.54-.03.05-.09.08-.09.09h-1c0-.94.03-1.7.08-2.22q.03-.58.27-.68c.09-.04.2-.08.33-.15.4-.2.63-.49.63-.79,0-.18-.09-.52-.74-.72-.9-.26-2.06-.57-2.51-.57-.36,0-.37.31-.37.34,0,.04,0,.13.04.25.21.71.29,3.22.29,4.53-1.63-.04-3.79-.14-5.33-.38l-.33-.05v.33c0,.43.88,1.62,1.47,1.62h0c1.22-.16,2.8-.23,4.02-.25-.98,2.15-4.5,6.05-6.22,7.06-.32.19-.56.35-.56.61,0,.16.13.34.42.34.86,0,4.12-1.78,6.48-4.65Zm4.96,7.39c.69.56,1.62,1.53,1.97,2.23.3.6.76.94,1.26.94.67,0,1.21-.63,1.21-1.4,0-2.47-4.41-2.58-4.46-2.58-.36,0-.4.22-.4.31,0,.15.09.23.27.38l.14.12Zm-9.31,7.09c1.93,0,3.9-2.73,3.9-5.41v-.22c0-.15,0-.59-.34-.59-.21,0-.3.17-.36.28l-.07.12c-.67,1.55-1.58,2.44-2.96,2.89-1.1.34-1.49,1.11-1.49,1.67,0,.74.54,1.26,1.32,1.26Zm17.08-5.69c0,.21.18.34.28.42,1.03.77,2.32,1.86,3.2,3.46.51.98,1.13,1.13,1.45,1.13.7,0,1.26-.67,1.26-1.49,0-2.58-5.13-3.87-5.77-3.87-.29,0-.42.18-.42.34Zm27.91-9.08c2.21.54,3.97,2.74,4.18,5.24.07.97.67,1.41,1.23,1.41.7,0,1.4-.62,1.4-1.8,0-2.79-3.23-6.02-7.39-6.02-.34,0-.84,0-.84.4,0,.15,0,.44,1.42.78Zm-13.03-2.65c.12.55.19,1.24.19,2.04,0,.44-.03.94-.06,1.44-.03.64-.05,1.25-.05,1.84,0,4.04,1.01,6.6,3.38,8.56.83.68,1.92,1.1,2.84,1.1,1.04,0,1.68-.57,1.68-1.49v-.19c-.03-.34-.06-.66-.06-1.12,0-1.02.18-2.38.52-3.94.12-.48.18-.81.18-1.02s-.15-.4-.34-.4c-.17,0-.32.07-.79,1-.16.34-.34.74-.53,1.16-.39.87-.82,1.85-1.2,2.48-.16.27-.37.39-.65.39-.03,0-2.99-.48-2.99-5.32,0-.81.08-1.62.25-2.42.02-.11.04-.23.07-.36.1-.46.21-1.04.21-1.65,0-2.49-2.15-3.04-2.24-3.06-.23,0-.48.17-.48.54,0,.1.02.2.04.31l.02.09Zm34.98.33c-.42.09-.81.14-1.22.14-3.06,0-3.73-2.2-3.73-2.75,0-.22.16-.4.37-.4.15,0,.3.08.8.41.74.51,1.44.74,2.28.74.11,0,1.1-.01,2.22-.36.05-.26.05-.47.05-.68,0-.91-.24-1.31-.9-1.46l-.08-.02c-.2-.06-.53-.17-.53-.5,0-.52,1.01-.84,1.46-.84.36,0,1.52.11,1.83,1.41.05,0,.1.01.15.02.19.02.38.02.56.02.42,0,.69-.06.72-.07.1-.05.29-.1.43-.1.5,0,.87.41.87.98,0,1.06-1.16,2.03-3.44,2.89l-.06.12c-.81,1.76-1.35,2.79-1.84,3.66.33-.1.65-.15.97-.15,1.28,0,2.36.9,2.91,2.36,1.26-2.74,3.45-5.41,6.19-5.41,1.67,0,3.7,1.25,3.7,2.72,0,1.17-1.22,2.36-3.26,3.18l-.25.1c-1.82.72-4.07,1.62-5.86,2.49.04.51.07,1.02.07,1.54,0,.43-.03.88-.06,1.31-.1,1.12-.9,1.94-1.54,1.94-.28,0-.93-.13-.93-1.38,0-.06,0-.13.01-.2,0-.05.01-.11.01-.17.03-.36.11-.59.18-.82.09-.27.19-.56.21-1.09-1.81,1.18-2.79,2.44-2.79,3.56,0,.61.6,2.21,3.33,2.21,1.11,0,2.27-.27,3.17-.75.31-.17.63-.26.97-.26.74,0,1.29.47,1.29,1.1,0,1.32-2.41,2.13-4.65,2.13-3.4,0-5.69-2.15-5.69-4.15,0-1.81,1.6-3.81,4.39-5.48-.02-1.74-.32-3.73-1.59-3.73-.75,0-1.68.74-2.62,2.09-.1.18-.22.41-.34.65-.08.16-.17.33-.25.49-.52.98-1.32,2.28-2.21,2.28-.39,0-1.01-.33-1.01-1.21,0-.69.44-1.51,1.18-2.2,2.51-2.35,3.38-3.85,4.52-6.4Zm4.42,6.87c.68-.35,1.44-.72,2.19-1.1.99-.49,1.97-.98,2.79-1.41,1.2-.64,1.81-1.25,1.81-1.79,0,0-.15-1.2-1.48-1.2-2.25,0-4.44,3.36-5.31,5.5Zm-1.46-10.17c-.08-.05-.23-.12-.34-.16,0,.15-.02.31-.04.48.2-.13.33-.25.38-.32Zm22.82,17.44c-1.15,0-1.73-1.04-2.41-2.25-.26-.46-.53-.94-.85-1.4-.47-.65-.72-1.59-.72-2.71,0-4.73,4.02-11.29,11.57-11.29,6.81,0,9.92,4.79,9.92,9.24,0,8.52-9.61,11.2-12.32,11.2-.61,0-.67-.28-.67-.4,0-.16,0-.46,1.47-.86,8.48-2.29,9.14-8.28,9.14-10.06,0-3.68-2.47-7.64-7.89-7.64-.13,0-.27,0-.4.01.49.72.76,1.94.76,3.48,0,6.15-4.94,12.66-7.59,12.66Zm6.04-13.67c0-2.21-.59-2.21-.81-2.21-.08,0-.13,0-.21.02-.09.03-.18.04-.25.04-4.41,1.28-6.79,5.49-6.79,8.82,0,2.43,1.19,4.06,2.29,4.06,1.67,0,5.76-5.72,5.76-10.72Zm22.7,8.09c.35-.2,1.36-.8,2.87-1.48.13,1.68.26,3.39.42,4.44.41,2.76,2.6,4.27,6.16,4.27.05,0,5.38-.02,5.38-1.85,0-.65-.69-1.15-1.57-1.15-.33,0-.72.08-1.14.24-.6.23-1.99.57-3.34.57-2.18,0-3.41-.81-3.67-2.39-.2-1.23-.35-2.96-.41-4.89,1.22-.48,3.44-1.27,5.99-1.77-.44,3.28-1.21,3.28-1.55,3.28-.53,0-1.29-.36-2.11-1-.21-.18-.47-.29-.66-.29-.27,0-.4.18-.4.37,0,.19.13.39.42.65.56.53,1.4,1.62,1.42,2.44.04.59.46.97,1.07.97.85,0,2.06-.76,2.83-2.46h0c.42-.93.69-2.32.85-4.26,2.15-.23,3.93-.11,5.42.35,1.61.5,2.38-.17,2.38-.8,0-.75-.59-1.17-2.54-1.81-1.22-.42-2.28-.98-3.16-1.66-.21-.17-.4-.26-.57-.26-.23,0-.42.18-.42.4,0,.1,0,.35,1.36,1.68,0,0-.03.03-.15.05-.5.08-1.14.21-1.83.35l-.4.08c.02-.52.04-.97.07-1.32.03-1.12.13-1.86.2-2.39.04-.33.08-.57.08-.78,0-.99-.99-1.6-1.91-1.6-.77,0-1.4.4-1.4.9,0,.11.05.38.49.54.32.12.66,1.45.66,4.05,0,.31,0,.65-.02.97-2.05.43-3.6.88-6.17,1.67,0-.76,0-1.48.03-2.14v-.22c0-2.43-1.45-3.08-2.3-3.08-.69,0-1.4.29-1.4.79,0,.3.24.55.53.86.34.36.76.8.87,1.37.12.68.23,1.69.34,2.99-1.14.36-2.18.73-3.33,1.14-.65.25-1.37.48-2.17.48-.67,0-.81-.02-1.65-.67-.05-.04-.31-.22-.56-.22-.31,0-.62.24-.62.79,0,2.06,2.95,2.5,3.53,2.5.83,0,1.47-.33,2.06-.71Zm27.81-9.77c0-.29.2-.45.4-.45s.37.11.56.23l.14.08c1,.59,1.97.89,2.91.89.15,0,.92-.01,1.99-.23.06-.41.11-.95.11-1.5,0-.58-.07-1.56-.57-1.62-.59-.05-.94-.29-.94-.64,0-.38.75-1.01,1.54-1.01.65,0,1.89.48,2.11,2.25.95.26,1.2.31,1.59.36.63.07,1.06.49,1.06,1.04,0,1.34-2.29,2.33-3.42,2.74-.01.04-.03.08-.04.13l-.08.22c-1.23,3.46-2.78,8.04-3.86,12.71-.31,1.45-1.14,2.54-1.93,2.54-.54,0-1.12-.55-1.12-1.57,0-.58.2-1.23.6-1.91.93-1.59,3.81-9.4,4.49-11.57-.41.08-.91.15-1.44.15-3.36,0-4.09-2.27-4.09-2.83Zm8.62-.8s-.05-.11-.38-.3c-.02.24-.05.49-.1.74.32-.22.46-.38.47-.45Zm4.87,3.18c.16,0,.38-.05.73-.13.04-.01.14-.01.22-.01.7,0,1.99.31,1.99.81,0,.17-.11.4-.35.71-.29.43-.47.64-.72.91-.17.19-.37.41-.62.73-.13.13-.19.28-.19.45,0,.18.12.37.39.37.18,0,.35-.07.54-.23,1.69-1.36,2.39-1.6,3.96-1.93.6-.11.98-.49.98-.95,0-.89-2.12-2.24-4.73-2.24-1.54,0-2.66.76-2.66,1.15,0,.04.01.37.45.37Zm-3.78,11.11c0,2.18,3.21,4.09,6.86,4.09,2.76,0,2.97-1.05,2.97-1.38,0-.62-.7-1.24-2.33-1.24-.47,0-.84.05-1.16.08-.24.03-.45.06-.66.06-2.5,0-4.37-1.12-4.37-2.12,0-.13.03-.25.12-.43.06-.15.13-.33.13-.52,0-.35-.22-.51-.42-.51-.52,0-1.15,1.08-1.15,1.96Zm17,.39c-.45,0-.48.26-.48.34,0,.2.16.32.42.51.08.06.16.12.26.2,1.12.79,2.51,1.9,3.3,3.43h0c.33.63.83.99,1.37.99.79,0,1.46-.75,1.46-1.63,0-2.65-5.03-3.84-6.33-3.84ZM20.84,57.51s-.05.02-.07.03c0,0,0,.05-.01.18-.02.39-.06,1.43-.06,2.59,0,.53,0,1.06.02,1.54,0,.41.01.79.01,1.12,0,.23.03.68.05,1.14.03.49.06.98.06,1.24,0,2.86-2.86,3.5-3.87,3.5-.4,0-.53-.19-.71-.46-.17-.23-1.39-.81-2.11-1.16-1.37-.66-1.55-.75-1.55-1.02v-.12l.08-.08s.12-.11.28-.11c.04,0,.16,0,.29.04,1.43.22,2.54.38,3.38.38,1.48,0,1.81-.44,1.84-1.16.03-.43.03-1.2.03-2.11h-8.45c0,1.23.03,2.49.06,3.61l.02,1.09c0,.79-.71,1.24-1.4,1.24s-1.09-.38-1.09-.96v-.07c.13-2.33.2-4.9.2-7.24,0-.86,0-1.67-.03-2.34,0-.4-.12-2.49-.36-3.38-.04-.11-.04-.2-.04-.24v-.28l.31-.03c.17,0,1.85.59,2.62,1.01h7.82s.12-.04.15-.09l.04-.06c.23-.35.59-.81,1.01-.81.19,0,2.61.9,2.61,1.91,0,.42-.36.65-.62.82l-.1.06c-.19.12-.34.18-.43.21Zm-10.78,2.47v1.76h8.45v-1.76h-8.45Zm8.45-1.32c0-.38,0-.73-.02-1.04,0-.3-.01-.56-.01-.78,0-.01-.03-.02-.08-.02h-8.05q-.24.18-.26.65v.14c0,.11,0,.26-.01.43,0,.18-.01.39-.02.62h8.45Zm5.3-8.06c-.45,0-.87.57-1.78,1.87-.03.05-.16.11-.23.11h-6.65c-.02-.47-.04-1.14-.04-1.9h6.38c.62,0,.84-.33.84-.65,0-.94-2.13-2.16-2.58-2.16-.38,0-.69.27-1.57,1.4-.07.09-.15.15-.2.15h-2.88c0-.33,0-.66.01-.97,0-.28,0-.55.01-.81h8.17c.81,0,.87-.5.87-.65,0-.64-1.9-2.41-2.78-2.41-.36,0-.66.24-1.73,1.68-.03.06-.14.11-.21.11h-4.31v-.19c.02-.84.06-.86.29-.98.11-.05.24-.12.38-.21.37-.22.59-.53.59-.83,0-1.06-3.47-1.35-3.5-1.35-.21,0-.34.13-.34.34,0,.04,0,.13.04.23.2.86.31,1.84.33,2.98h-1.28c-1.68,0-5.2-.09-7.8-.44l-.32-.04v.32c0,.47.87,1.74,1.6,1.74h0c2.65-.28,5.58-.31,6.41-.31h1.4v.13c0,.31.02.93.03,1.65h-.08c-.97,0-4.35-.03-7.19-.39l-.32-.04v.32c0,.5.93,1.63,1.65,1.63h0c2.28-.22,4.25-.25,5.71-.25h.22c0,.58-.02,1.21-.04,1.9h-1.58c-1.57,0-6.68-.08-9.46-.45l-.32-.04v.32c0,.52,1,1.74,1.74,1.74h0c2.34-.24,6.19-.31,7.89-.31h14.64c.76,0,.87-.41.87-.65,0-.82-2.15-2.61-2.92-2.61Zm33.49,6.53c0,.15-.06.65-.82.65h-3.82c-.07,1.59-.17,3.51-.36,4.98h.73s.1-.06.12-.09c.85-1.34,1.05-1.62,1.45-1.62.09,0,.16.02.2.03l.08.02c.45.19,2.16,1.48,2.16,2.28,0,.22-.17.59-.82.59h-4.11c-.99,4.71-4.24,4.76-4.38,4.76-.29,0-.52-.16-.61-.42-.13-.46-1.01-1.11-1.58-1.54-.59-.44-.81-.61-.81-.84,0-.16.12-.34.39-.34l.21.03c.32.05.63.12.94.19.51.12,1,.23,1.45.23.71,0,1.49-.25,2.06-2.06h-6.52c-.04.25-.09.5-.14.74-.04.19-.07.38-.11.57-.11.65-.9,1.1-1.54,1.1-.53,0-.87-.32-.87-.82,0-.1,0-.21.04-.34.66-2.44,1.15-4.87,1.48-7.4-.95.03-1.98.11-2.95.21h0c-.65,0-1.52-1.1-1.52-1.57v-.33l.32.05c1.23.18,2.86.27,4.33.32.21-1.72.41-5.18.41-5.59v-.17c0-.14,0-.56.37-.56.07,0,.14.02.29.07.21.07.53.23.9.42.38.19.8.4,1.1.51.04.01.08.02.11.04h5.08c.12,0,.13,0,.18-.06.02-.03.04-.05.07-.08.63-.69.72-.73.87-.73.47,0,2.19,1.07,2.19,1.71,0,.45-.44.75-.88.98q-.21.11-.21.51v.17c-.03.92-.05,1.88-.1,2.82h.6s.08-.04.09-.06c.79-1.26,1.07-1.62,1.48-1.62.07,0,.13.01.17.03l.1.03c.8.34,2.13,1.52,2.13,2.22Zm-8.98.65c-.17,1.87-.35,3.47-.55,4.98h2.36c.11-.6.35-2.3.47-4.98h-2.27Zm-3.94-1.24h2.08c.1-1.07.22-3.21.22-3.92v-.14h-1.33s-.05.02-.06.02l-.12.04q-.34.13-.43.89v.12c-.09.69-.22,1.75-.37,2.98Zm-.18,1.25c-.2,1.56-.43,3.32-.7,4.97h2.2c.22-1.35.46-3.25.63-4.98h-2.13Zm4.49-3.93c-.04.5-.09,1-.14,1.5-.04.39-.08.79-.11,1.19h2.22c.06-1.19.08-2.31.11-3.2l.02-.7c0-.11-.01-.13-.01-.14,0,0-.03-.02-.12-.02h-1.15c-.02.15-.12.34-.43.5l-.09.04q-.23.11-.27.59l-.02.23Zm2.32-2.51h0s0,0,0,0h0Zm-13.33,16.09v-.04c-.11-3.87-.19-9.17-.19-13.4.41.38.82.9,1.24,1.55.45.7.92.8,1.16.8.6,0,1.07-.54,1.07-1.24,0-1.6-1.98-2.25-3.47-2.32v-1.29h3.01c-.17.29-.32.53-.43.69-.38.49-.45.67-.45.82,0,.18.16.34.34.34.57,0,2.15-1.67,4-4.76h10.82c.81,0,.9-.45.9-.65,0-.7-1.93-2.36-2.75-2.36-.5,0-.78.4-1.64,1.62-.02.03-.12.08-.15.09h-6.43c.3-.54.55-1.02.76-1.42l.09-.17c.04-.07.06-.13.09-.18.08-.17.08-.17.28-.21.65-.14.98-.38.98-.73,0-.8-2.79-1.57-3.03-1.57s-.34.19-.34.56c0,1.6-1.34,4.71-2.42,6.79-.44-.71-1.48-1.73-1.98-1.73-.43,0-.99.82-1.39,1.51-.02.04-.1.08-.12.09h-.14c0-1.78.03-3.17.08-4.01.04-.61.08-.63.34-.77.06-.03.12-.06.18-.09.15-.08.62-.34.62-.75,0-1.01-3.14-1.29-3.17-1.29-.23,0-.34.18-.34.34,0,.04,0,.16.03.25.18,1.01.27,3.92.28,6.32-.88-.03-2.18-.11-3.99-.38l-.33-.05v.33c0,.43.88,1.62,1.46,1.62h0c1.39-.17,2.08-.24,2.83-.25-.32,2.5-3.28,7.81-4.97,9.37-.41.41-.47.54-.47.68l.06.31h.28c.54,0,3.23-1.83,5.08-5.07-.07,4.88-.16,8.4-.26,10.78,0,.89.58,1.21,1.07,1.21.68,0,1.4-.54,1.4-1.35Zm50.15-1.51c0,.32-.32.39-1.04.54-.65.14-1.53.32-1.99.67-.15.11-.3.17-.45.17-.28,0-3.61-2.38-5.26-9.19.01,1.81.09,4.75.14,5.61,0,.17.03.38.05.61.04.43.09.92.09,1.31,0,2.36-2.4,3.11-3.22,3.11-.37,0-.52-.21-.7-.45-.22-.34-1.23-.88-1.89-1.24-.87-.47-1.08-.58-1.08-.83,0-.05.02-.31.37-.31.06,0,.14.01.25.03l.19.03c1.19.25,1.98.36,2.56.36,1.37,0,1.37-.49,1.37-1.68,0-1.09-.04-3.39-.09-5.46-.11.15-.28.26-.4.33l-.17.1c-.15.08-.25.13-.36.45-2.02,5.51-6.39,8-7.44,8-.27,0-.39-.18-.39-.34,0-.2.16-.41.49-.63,3.56-2.32,5.2-7.06,5.42-7.96h-.45c-.33,0-1.14.08-2.2.25-.16.02-.31-.05-.5-.22-.3-.27-.86-.98-.86-1.32v-.34h.02c-.29-.24-.44-.73-.64-1.5-.28.09-.6.18-.93.27l-.08.02c.03.07.04.13.04.18,0,.27-.24.46-.47.6-.17.08-.22.1-.23,1.2l.19-.02c.74,0,3.78,2.16,3.78,3.95,0,.76-.54,1.38-1.21,1.38-.44,0-.98-.31-1.2-1.16-.36-1.3-.93-2.59-1.47-3.35-.04-.06-.07-.11-.1-.16,0,.18,0,.39,0,.61,0,2.35.06,5.78.11,7.97.01.31-.11.63-.35.88-.27.28-.64.45-1,.45-.5,0-1.01-.34-1.01-1.1v-.11c.15-2.34.25-4.81.27-7.37-.07.29-.36.5-.88.62-.27.05-.28.08-.41.45-1.45,3.81-3.24,6.33-3.8,6.33-.19,0-.34-.16-.34-.37,0-.14.04-.3.14-.49.51-1.07,1.9-4.88,1.9-7.69,0-.37.11-.56.34-.56s2.84.62,3.04,1.47c0-.45,0-.9,0-1.35,0-.49-.01-1.05-.04-1.69-1.01.25-1.92.49-2.4.62-.07.02-.15.08-.24.14-.14.1-.29.21-.51.21-.66,0-1.63-2.03-1.63-2.38,0-.31.33-.35.48-.32h.08c.58.06,1.33.09,1.91.09l.74-.02c1.53-2.13,4.36-6.81,4.6-8.42.02-.17.07-.52.39-.52s2.72,1.08,2.72,1.82c0,.29-.18.64-1.04.73-.17.02-.28.06-.44.3-1.34,1.85-3.19,4.3-4.77,6.01,1.27-.08,2.48-.19,3.41-.3-.26-.6-.57-1.09-.79-1.43-.15-.23-.21-.37-.21-.49,0-.18.16-.34.34-.34.58,0,3.53,1.9,3.53,3.62,0,.75-.45,1.26-.95,1.4,1.29.21,2.21.23,2.48.23h.69s.03-.03.09-.11c.15-.19.53-.62.84-.62s1.41.7,1.8,1.29c-.04-1.44-.08-2.69-.12-3.21h-1.93v.25c.02.24-.08.48-.26.68-.24.26-.63.41-1.03.41-.62,0-1.01-.38-1.01-.96v-.08c.17-1.66.22-4.69.22-5.82,0-.31-.06-2.63-.3-3.69-.03-.1-.03-.19-.03-.23v-.28l.31-.06c.26,0,1.96.81,2.59,1.2h.61c.2-.7.46-1.85.46-2.88,0-.11,0-.23-.01-.33,0-.1-.01-.2-.01-.28,0-.42.28-.45.37-.45.24,0,3.11.84,3.11,1.71,0,.2-.11.69-1.12.79-.14.01-.17.05-.29.21l-.04.06c-.34.47-.62.85-.88,1.18h3.34c.08,0,.1,0,.14-.06.51-.62.71-.83,1.09-.83.44,0,2.41,1.13,2.41,1.88,0,.45-.45.69-.81.89-.34.17-.37.18-.37,1.41,0,1.55.11,4.19.19,5.27.02.29-.09.57-.31.8-.26.27-.62.43-1.01.43-.5,0-1.01-.34-1.01-.98v-.22h-1.46s.01.08.01.11c0,.17-.07.39-.37.58.34,1.39.74,2.55,1.22,3.54,1.15-.92,2.45-2.17,2.68-2.92.03-.1.11-.34.35-.34.48,0,2.52,1.67,2.52,2.36,0,.14-.06.59-.84.59-.12,0-.28,0-.47-.03-.28-.06-.46-.07-.66.01l-.42.17c-.79.32-1.84.75-2.69,1.06,1.07,1.89,2.97,4.21,6.05,5.12.24.07.48.17.48.41Zm-12.85-14.42c0,.82.03,1.62.05,2.46h6.42c.02-.77.02-1.63.02-2.46h-6.49Zm6.49-1.3c0-1.32,0-2.11-.11-2.24h-5.76c-.11.08-.26.18-.43.28-.15.16-.16,1.16-.17,1.96h6.46Zm-13.62-4.53c.9-.14,1-.58,1-.76,0-.82-2.85-1.77-3-1.77-.37,0-.37.37-.37.59,0,1.32-.52,2.89-1.48,5.27-.55-.17-1.37-.35-1.8-.35-.29,0-.42.18-.42.34,0,.12.06.32.36.53.69.55,1.48,1.22,2.02,2.26.3.6.76.94,1.26.94.62,0,1.15-.6,1.15-1.32,0-.43-.2-1.22-1.5-1.94.77-1.02,1.8-2.5,2.36-3.51.13-.22.17-.24.42-.29Zm34.34,1.7c-.02.13-.03.27-.04.42-.03.35-.06.75-.17,1.06-1.07,3.34-2.82,6.51-4,7.91-.21.24-.29.41-.29.58,0,.18.16.34.34.34.39,0,3.07-1.41,6.28-8.09q.16-.33.42-.37c.8-.1.86-.52.86-.65,0-.88-2.89-1.66-3.03-1.66-.09,0-.32.04-.35.36l.28.03h0s-.29.06-.29.06Zm-8.23-3.08c-.41,0-.73,0-.73.34,0,.2.14.3.45.54.81.6,1.71,1.55,2.08,2.21h0c.45.79.98.96,1.34.96.73,0,1.32-.64,1.32-1.43,0-1.78-2.66-2.61-4.46-2.61Zm-2.66,7c.84.46,1.87,1.31,2.29,1.88h0c.45.6.94.73,1.26.73.69,0,1.24-.6,1.24-1.38,0-1.31-1.5-2.16-3.81-2.16-1.25,0-1.46.13-1.46.42,0,.2.16.3.36.42l.13.08Zm25.4,3.24c-5.18-1.86-6.69-6.8-6.85-7.38.07-.02.19-.05.29-.07.15-.03.34-.07.55-.13.79-.23.96-.61.96-.89,0-.79-1.72-1.82-2.22-1.82-.25,0-.39.13-1.06.89-.07.09-.14.12-.17.12h-1.57c-.09,0-2.18,0-4.12-.39l-.34-.07v.34c0,.45.91,1.6,1.54,1.6h0c1.21-.14,2.54-.22,2.96-.22h1.48c.17,0,.2,0,.22.18.95,5.71,4.57,9.51,5.29,9.51.17,0,.32-.07.44-.18.34-.3,1.28-.46,1.9-.56.77-.13,1.08-.19,1.08-.52,0-.24-.22-.33-.41-.41Zm-3.4,3.66c0,.45-.42.7-.73.88l-.21-.2s0,0,0,0l.15.24q-.44.26-.44,2.02c0,1.59.09,3.85.22,5.89.02.35-.08.66-.3.9-.3.32-.75.44-1.08.44-.65,0-1.1-.45-1.1-1.1l.02-.89h-6.5l.02,1.05c.01.3-.08.57-.28.77-.37.38-.93.41-1.09.41-.64,0-1.07-.41-1.07-1.01v-.08c.17-2.58.2-4.51.2-5.74,0-1.69-.04-3.63-.36-5.15-.03-.1-.03-.19-.03-.23,0-.36.3-.37.34-.37.3,0,2.11.75,2.79,1.23h5.64s.1-.03.17-.12c.36-.59.72-.89,1.09-.89.43,0,2.55,1.12,2.55,1.94Zm-10,3.86c0,1.03,0,2,.02,3.02h6.53c.02-1.16.02-2.26.02-3.24,0-1.29,0-2.4-.06-3.17,0-.04,0-.07-.11-.07h-5.89s-.06.04-.08.06l-.17.11q-.22.14-.24.76c-.03.89-.03,1.73-.03,2.54Zm-9.36,1.29c0,.46-.07.95-.13,1.43-.05.35-.09.7-.12,1.06v.34c0,1.57.71,2.27,1.4,2.27.4,0,.78-.22,1.05-.59.47-.65.52-1.66.14-2.75-.3-.86-.46-1.79-.46-2.76,0-2.19.74-4.61,4.9-13.83.13-.29.19-.51.19-.67,0-.37-.24-.4-.31-.4-.89,0-6.32,10.84-6.55,11.3-.51,1.03-1.01,1.13-2.1,1.13-.29,0-.96,0-.96.45,0,.31.36.46.88.58,1.81.47,2.05,1.5,2.05,2.44Zm33.54-17.67c.9-.14,1-.58,1-.76,0-.82-2.85-1.77-3-1.77-.37,0-.37.37-.37.59,0,1.33-.52,2.89-1.47,5.27-.55-.17-1.37-.35-1.8-.35-.29,0-.42.18-.42.34,0,.12.06.32.36.53.69.55,1.48,1.22,2.02,2.26.3.6.76.94,1.26.94.62,0,1.15-.6,1.15-1.32,0-.43-.2-1.22-1.5-1.94.77-1.01,1.8-2.5,2.36-3.51.13-.22.17-.24.42-.29Zm19.98,20.24c0,.32-.32.39-1.04.54-.64.14-1.53.32-1.99.67-.15.11-.3.17-.45.17-.28,0-3.61-2.38-5.26-9.19.01,1.82.09,4.76.14,5.61,0,.17.03.39.05.62.04.43.09.91.09,1.3,0,2.36-2.4,3.11-3.22,3.11-.37,0-.52-.21-.7-.45-.22-.34-1.23-.88-1.89-1.24-.87-.47-1.08-.58-1.08-.83,0-.05.02-.31.37-.31.06,0,.14.01.25.03l.19.03c1.19.25,1.98.36,2.56.36,1.37,0,1.37-.49,1.37-1.68,0-1.09-.04-3.39-.09-5.47-.11.15-.28.26-.4.33l-.17.1c-.15.08-.25.13-.36.45-2.02,5.51-6.39,8-7.44,8-.27,0-.4-.18-.4-.34,0-.2.16-.41.49-.63,3.56-2.32,5.2-7.06,5.42-7.96h-.45c-.33,0-1.14.08-2.2.25-.16.02-.32-.05-.5-.22-.3-.27-.86-.98-.86-1.32v-.34h.02c-.29-.24-.44-.73-.64-1.5-.28.09-.6.18-.93.27l-.08.02c.03.07.04.13.04.18,0,.27-.24.46-.47.6-.17.08-.22.1-.23,1.2l.19-.02c.74,0,3.78,2.16,3.78,3.95,0,.76-.54,1.38-1.21,1.38-.44,0-.98-.31-1.2-1.16-.36-1.3-.93-2.59-1.47-3.35-.04-.06-.07-.11-.1-.16,0,.18,0,.39,0,.61,0,2.3.06,5.74.11,7.97.02.31-.11.63-.35.88-.27.28-.64.45-1,.45-.5,0-1.01-.34-1.01-1.1v-.11c.15-2.34.25-4.81.27-7.37-.07.29-.36.49-.88.61-.27.05-.28.08-.41.45-1.45,3.81-3.25,6.33-3.8,6.33-.19,0-.34-.16-.34-.37,0-.14.04-.3.14-.49.51-1.07,1.9-4.88,1.9-7.69,0-.37.11-.56.34-.56s2.83.62,3.04,1.46c0-.45,0-.9,0-1.35,0-.48-.01-1.04-.04-1.69-1.02.25-1.93.49-2.4.62-.08.02-.16.08-.24.14-.14.1-.29.21-.5.21-.66,0-1.63-2.03-1.63-2.38,0-.2.14-.34.34-.34.06,0,.1.01.14.02h.08c.58.06,1.33.09,1.91.09l.74-.02c1.53-2.13,4.36-6.81,4.6-8.42.02-.18.07-.52.39-.52s2.72,1.08,2.72,1.82c0,.29-.18.64-1.04.73-.17.02-.28.06-.44.3-1.34,1.85-3.19,4.3-4.77,6.01,1.27-.08,2.48-.19,3.41-.3-.26-.6-.57-1.09-.79-1.43-.16-.23-.21-.37-.21-.49,0-.18.16-.34.34-.34.58,0,3.53,1.9,3.53,3.62,0,.75-.45,1.26-.95,1.4,1.29.21,2.21.23,2.48.23h.69s.03-.03.09-.11c.15-.19.53-.62.84-.62s1.41.71,1.8,1.29c-.04-1.44-.08-2.69-.12-3.21h-1.93v.25c.02.24-.08.48-.26.68-.24.26-.63.41-1.03.41-.61,0-1.01-.38-1.01-.96v-.08c.17-1.66.22-4.69.22-5.82,0-.31-.06-2.63-.3-3.69-.04-.1-.04-.19-.04-.23v-.28l.31-.06c.26,0,1.96.81,2.59,1.2h.61c.2-.7.46-1.85.46-2.88,0-.11,0-.23-.02-.33,0-.1-.01-.2-.01-.28,0-.42.28-.45.37-.45.24,0,3.11.84,3.11,1.71,0,.2-.11.69-1.12.79-.14.01-.17.05-.29.21l-.04.06c-.34.47-.62.85-.88,1.18h3.34c.08,0,.1,0,.14-.06.51-.62.71-.84,1.09-.84.44,0,2.41,1.13,2.41,1.88,0,.45-.45.69-.81.89-.34.17-.36.18-.36,1.41,0,1.66.12,4.3.2,5.27.02.29-.09.57-.31.8-.26.27-.62.43-1.01.43-.5,0-1.01-.34-1.01-.98v-.22h-1.46s.01.08.01.11c0,.17-.07.39-.37.58.34,1.39.74,2.55,1.22,3.54,1.15-.92,2.45-2.17,2.68-2.92.03-.1.11-.34.35-.34.48,0,2.52,1.67,2.52,2.36,0,.14-.06.59-.84.59-.12,0-.28,0-.47-.03-.28-.06-.46-.07-.66.01l-.4.16c-.8.33-1.86.76-2.71,1.07,1.07,1.89,2.96,4.21,6.05,5.12.24.07.48.17.48.41Zm-12.85-14.42c0,.82.03,1.62.05,2.46h6.42c.02-.77.02-1.63.02-2.46h-6.49Zm6.49-1.3c0-1.32,0-2.11-.11-2.24h-5.76c-.11.08-.26.18-.43.28-.15.16-.16,1.16-.17,1.96h6.46ZM20.78,93.56c-.68,0-.98.18-1.29.37-.26.15-.53.31-1.12.43-.16.04-.35.07-.55.11,0-.36.03-.66.05-.87.03-.35.07-.65.11-.92.05-.33.09-.61.09-.89,0-.73-.32-1.24-1.14-1.83-1.14-.74-1.59-.97-2.17-.97-.79,0-1.4.57-1.4,1.07,0,.44.42.68.73.68,1.64.02,1.71,1.1,1.71,3.75v.32c-1.67.25-4.85.69-5.62.69-1.06,0-1.96-.19-3.02-.62l-.15-.07c-.21-.1-.39-.18-.58-.18-.13,0-.54.06-.54.82,0,1.56,2.73,2.19,3.87,2.19.52,0,.9-.13,1.38-.29.31-.1.66-.22,1.15-.34.63-.15,1.32-.28,2.01-.41-2.96,4.31-6.77,8.01-10.53,10.22-.3.17-.81.51-.81.81,0,.16.12.34.4.34.57,0,7.03-2.19,12.58-9.97.07,1.64.13,3.32.13,5.04,0,.63,0,1.74-.06,2.13-.54-.21-2.36-1.01-3.06-1.39-.14-.1-.34-.13-.44-.13-.38,0-.39.31-.39.34,0,.19.15.38.3.54,1.25,1.33,2.66,2.83,2.86,3.94.16.91.68,1.49,1.32,1.49,1.1,0,1.68-1.75,1.68-3.48,0-.51-.05-1.02-.1-1.55-.05-.56-.11-1.2-.13-1.95-.02-.94-.06-1.99-.1-3.04-.05-1.32-.1-2.69-.12-3.86,1.59-.12,3.06-.06,4.48.19,1.3.22,1.87-.37,1.87-.92,0-1.29-2.7-1.74-3.39-1.74Zm27.83-2.66c0,.33-.14.6-.28.87l-.03.07c-.47,1-.58,1.86-.67,5.14-.2,11.09-9.13,14.42-10.08,14.42-.35,0-.37-.26-.37-.31,0-.19.08-.35,1.25-1.08,4.12-2.51,6.71-7.49,6.92-13.32.02-.52.03-.98.04-1.43.01-.61.02-1.22.07-1.99.03-.33.03-.63.03-.91,0-2.2-.78-2.29-1.04-2.32-.3-.05-.75-.27-.75-.67,0-.31.46-.93,1.29-.93.91,0,3.62,1.28,3.62,2.47Zm-11.09,19.93v.15s.02,0,.03-.01v-.14s-.02,0-.03,0Zm4.18-17.98c.08-.19.16-.38.16-.61,0-1.31-2.51-2.19-3.11-2.19-.71,0-1.54.42-1.54.96,0,.39.42.59.8.65,1.2.07,1.44,2.02,1.44,5.15,0,.93-.06,1.78-.16,2.92-.03.18-.03.37-.03.52,0,1.39.59,1.88,1.09,1.88,1.03,0,1.35-1.67,1.35-2.27,0-.13-.01-.27-.03-.46l-.02-.22c-.11-1.06-.17-1.72-.17-4.9,0-.6.07-1.1.2-1.36l.03-.07Zm39.5-4.42c-1.26,0-1.52.2-1.52.51,0,.22.19.31.43.42l.17.08c.81.42,1.7,1.11,2.39,1.85h0c.37.38.71.45.93.45.61,0,1.09-.52,1.09-1.18,0-1.38-1.8-2.13-3.5-2.13Zm-13.13,12.3c.66,0,1.1-.45,1.1-1.12,0-1.06-.96-2.3-3.67-2.3-2,0-2.81.53-2.85.55l-.13.08v.15c0,.24.22.32.41.39l.12.04c1.12.36,2.79,1.15,3.81,1.79.46.28.84.4,1.21.4Zm15.41-7.13c-3.59,4.35-12.5,12.81-16.02,12.81-.52,0-.88-.21-1.08-.6-.14-.38-.37-.6-.63-.6-.61,0-.82,1.08-.82,1.38,0,1.66,2.66,2.83,3.5,2.83.55,0,.89-.3,1.24-.62.18-.17.38-.34.62-.49,6.05-3.63,12.19-9.83,13.98-14.13.33-.79.36-.94.36-1.03v-.31h-.28c-.12,0-.23,0-.86.77Zm-6.08-2.88c.52.29,1.51.92,2.33,1.89h0c.29.33.65.52.97.52.61,0,1.09-.53,1.09-1.21,0-1.42-1.85-2.19-3.59-2.19-.63,0-1.38.08-1.38.45,0,.25.23.36.5.49l.07.03Zm-6.54,4.92h0c.48.39.9.57,1.33.57.63,0,1.1-.5,1.1-1.18,0-.99-.97-2.66-4.6-2.66-1.19,0-1.79.18-1.79.54,0,.12.06.28.46.45,1.13.56,2.63,1.55,3.5,2.29Zm38.35-.67c-.38,0-.66.08-.98.18-.28.08-.59.18-1.05.24l-3,.38s0-.05,0-.08c0-.11-.01-.21-.01-.33,0-1.9.13-2.38.29-2.78l.04-.09c.08-.22.18-.46.18-.7,0-1.1-2.44-2.22-3.56-2.22-.45,0-1.26.3-1.26.9,0,.38.4.59.77.65.92.06,1.18.99,1.32,4.93-.48.06-.97.12-1.49.19-.93.12-1.93.25-3.04.37-1.61.21-2.84-.03-4.31-.52-.11-.03-.21-.09-.3-.14-.15-.08-.29-.16-.45-.16-.34,0-.51.27-.51.79,0,1.55,2.57,2.36,3.67,2.36.71,0,1.38-.22,1.96-.42.36-.12.71-.24,1.03-.29,1.42-.25,2.41-.4,3.43-.52-.39,4.91-3.63,9.28-8.51,11.46-1.23.53-1.32.7-1.32.9,0,.07.03.31.39.31.28,0,.79-.11,1.16-.21,6.35-1.59,10.48-6.57,10.57-12.73l.42-.04c.68-.08,1.32-.11,2.04-.11,1.44,0,2.77.19,4.28.6.21.07.38.07.57.07.74,0,1.29-.44,1.29-1.01,0-1.22-2.54-1.99-3.62-1.99Zm35.84-1.23c-.19,0-.35.11-.85.82-3.72,5.32-9.47,8.72-9.88,8.83,0,0-.02-.04-.02-.09,0-.62.38-5.82.74-6.97.08-.25.13-.53.13-.82,0-1.31-1.37-3.06-2.78-3.06-.62,0-1.52.27-1.52.76,0,.41.49.62.87.75.46.14,1.06.63,1.06,3.23,0,1.42-.16,3.25-.47,5.45-.06.4-.15.68-.22.9-.06.2-.12.38-.12.57,0,.53,1.11,2.5,2.19,2.5.54,0,1-.45,1.36-.82.15-.14.28-.28.39-.35,5.68-3.87,9.45-10.38,9.45-11.32,0-.36-.3-.37-.34-.37Zm-17.5.25c-1.04,0-1.46.77-1.46,1.1,0,.12.05.53.71.59.74.09,1.42.33,1.42,1.42,0,2.56-4.31,8.91-7.88,10.81-.3.15-.66.39-.66.67,0,.16.12.34.39.34.81,0,2.85-1,4.86-2.66,1.83-1.52,4.27-4.12,5.55-7.92.11-.37.26-.84.26-1.38,0-1.7-1.94-2.97-3.2-2.97Zm48.05-3.92c0,.15-.06.62-.9.62h-7.31c.81.4,1.86,1.02,1.86,1.48,0,.59-.86.63-1.14.65-.29,0-.31.02-.49.18l-.06.05c-.36.34-1.07.94-1.74,1.49h4.72s.12-.05.2-.15c.52-.66.89-.95,1.2-.95.22,0,2.64,1.11,2.64,2.05,0,.5-.52.78-1,1.01-.31.13-.31.13-.31,2.77,0,1.92.03,4,.08,5.31l.03.7c.04,1.07.06,1.61.06,2.53,0,2.56-2.46,3.76-4.12,3.76-.39,0-.52-.18-.69-.4-.25-.33-1.52-.95-2.36-1.36-1.26-.61-1.46-.72-1.46-.98,0-.05.02-.31.37-.31.07,0,.2,0,.36.03,1.53.28,2.68.41,3.5.41,1.64,0,1.96-.5,1.99-1.43v-2.54c0-1.92-.01-4.23-.03-6.1-.15,1.19-2.32,1.35-4.22,1.35-1.78,0-2.97-.32-2.97-1.88v-.37c.03-.49.06-.94.06-1.37,0-.22-.02-.52-.03-.78h-.94c.02.05.03.11.03.16,0,.13-.06.46-.64.58l-.09.02c-.05,0-.11.02-.13.03,0,0-.04.04-.11.21-.74,1.75-1.98,2.85-3.19,3.54.53.14,1.61.6,2.16.91h4.46s.09-.03.12-.09c.44-.71.81-.81,1-.81.2,0,2.33.94,2.33,1.74,0,.38-.33.57-.57.72l-.09.06c-.37.22-.37.3-.37.66,0,.45.03,1.6.14,3.09.02.32-.1.65-.33.89-.24.25-.57.39-.93.39-.61,0-1.04-.4-1.04-.98v-.33s-5.09,0-5.09,0v.78c0,.72-.68,1.21-1.32,1.21-.59,0-.98-.4-.98-.98v-.14c.11-1.06.2-2.96.2-3.98v-.36c0-.38-.04-1.52-.22-2.26l.26-.16s0,0,0,0l-.27.08-.02-.12c-1.15.54-2.2.74-2.68.81,0,.65,0,1.34-.01,2.03,0,.81-.01,1.64-.01,2.45,0,.85,0,1.69.02,2.49,0,.72.01,1.4.01,2.02s-.6,1.32-1.46,1.32c-.67,0-1.1-.44-1.1-1.12v-.08c.18-2.99.31-7.35.31-10.61,0-.39,0-.76-.02-1.09,0-.29-.01-.56-.01-.81,0-.8-.12-3.32-.33-4.37-.03-.09-.03-.21-.03-.25,0-.21.13-.34.34-.34.35,0,2.39,1.03,2.91,1.4.02.01.03.02.04.03h4.02c-.33-.16-.62-.47-.84-.91h0c-.29-.61-1.1-1.53-1.72-2.07-.21-.2-.32-.32-.32-.49,0-.34.37-.34.51-.34,1.17,0,4.12.78,4.12,2.61,0,.54-.29.99-.71,1.2h3.04c1.1-1.79,1.51-2.77,1.61-3.83,0,0,0-.02,0-.02h-6.3c-1.65,0-5.05.06-7.39.31h0c-.75,0-1.63-1.26-1.63-1.74v-.32l.32.04c2.78.33,7.22.45,8.81.45h2.29v-.08c-.04-1.26-.15-2.33-.3-2.92-.04-.11-.04-.2-.04-.24v-.28l.31-.03s3.53.29,3.53,1.26c0,.48-.6.82-1.1,1.02-.03.04-.09.28-.13,1.12,0,.04,0,.09,0,.15h6.47c.07,0,.16-.09.2-.15,1.2-1.63,1.53-1.76,1.85-1.76.07,0,.18,0,.29.06.98.36,2.59,1.91,2.59,2.49Zm-15.09,13.08v.1c-.03.35-.03,1.25-.03,2.11h5.16c.01-.37.01-.77.01-1.17,0-.49,0-1.05-.05-1.57l-.05-.05h-4.55s-.06.04-.09.05c-.02.01-.05.03-.07.04-.16.09-.27.15-.29.18-.02.03-.02.17-.03.31Zm-5.01-2.56c3.2-1.2,4.17-3.51,4.46-4.75h-3.92c-.05.04-.11.08-.16.12-.34.21-.36.22-.36.92,0,.8,0,2.13-.02,3.71Zm15.47-1.98c-.01-1.13-.03-2.09-.05-2.68,0-.05-.04-.09-.08-.09h-4.3c-.05.17-.2.32-.44.42-.2.08-.28.11-.28,1.67,0,.38,0,.47,1.17.47q1.67,0,2.28-1.93c.08-.19.16-.39.38-.39.34,0,.4.37.5,1.05.04.23.09.59.14.73.36.14.6.42.66.74Zm21.52,2.85c0,.41-.38.66-.65.84l-.06.04c-.4.26-.43.28-.43,1.61,0,1.6.12,4.43.22,5.97.02.28-.1.57-.32.81-.26.28-.64.44-1.02.44-.64,0-1.07-.41-1.07-1.01v-.7h-4.8l.02.94c0,.65-.59,1.16-1.35,1.16-.63,0-1.04-.39-1.04-.98v-.08c.22-2.62.22-5.73.22-7.06,0-.29-.05-2.44-.27-3.47-.03-.1-.03-.19-.03-.23,0-.36.3-.37.34-.37.28,0,2.01.75,2.65,1.18h3.93s.12-.04.15-.09c.41-.64.71-.89,1.05-.89.58,0,2.47,1.14,2.47,1.88Zm-8.18,4.48c0,.42,0,.85.01,1.28,0,.32.01.65.01.96h4.84c.02-1.14.02-2.33.02-3.41,0-1.15,0-2.14-.05-2.8,0-.04,0-.08-.11-.08h-4.21s-.06.06-.11.08c-.04.03-.1.07-.16.1q-.15.1-.19.75c-.03.73-.06,1.87-.06,3.12Zm20.78-4.51c0,.44-.39.67-.68.84l-.07.04c-.33.2-.42.25-.42,2,0,1.51.08,3.65.22,5.72.03.32-.08.63-.3.87-.3.32-.74.47-1.04.47-.64,0-1.07-.44-1.07-1.1l.02-.81h-5.1l.02,1c0,.63-.62,1.19-1.32,1.19-.64,0-1.07-.41-1.07-1.01v-.08c.18-2.59.2-4.42.2-5.57,0-1.5-.03-3.67-.33-5.09-.03-.1-.03-.19-.03-.23,0-.36.3-.37.34-.37.32,0,2.25.93,2.71,1.23h4.24s.12-.04.15-.09c.41-.64.71-.89,1.06-.89.19,0,2.5.92,2.5,1.88Zm-8.48,3.84c0,.97,0,1.92.02,2.91h5.13c.02-1.15.02-2.23.02-3.19,0-1.28,0-2.29-.06-3.06,0-.04,0-.07-.11-.07h-4.49s-.06.04-.08.05l-.18.12q-.21.15-.23.75c-.03.89-.03,1.7-.03,2.48Zm2.97-13.69c0,.95.06,2.17.11,3.36.03.67.06,1.33.08,1.92.02.32-.12.66-.37.93-.28.29-.65.46-1.03.46-.49,0-.98-.32-.98-1.04l.02-.56h-8.55v.58c0,.71-.71,1.18-1.38,1.18s-1.07-.42-1.07-1.07v-.08c.14-1.93.22-5.18.22-6.24,0-.36-.14-2.43-.36-3.44-.03-.1-.03-.19-.03-.23v-.28l.31-.06c.4,0,2.25.91,2.74,1.2h7.76c.08,0,.1,0,.14-.06.1-.1.18-.19.26-.28.13-.15.26-.29.37-.38.12-.08.26-.18.46-.18.38,0,2.5,1.09,2.5,1.88,0,.45-.45.69-.81.89q-.39.22-.39,1.49Zm-10.75.06c0,.99,0,2.4.02,3.72h8.57c0-.39,0-.77.01-1.16,0-.48.01-.96.01-1.44,0-1.66-.04-2.9-.06-3.24h-7.99s-.05.03-.08.05c-.04.02-.08.05-.12.08q-.36.21-.36,1.98Zm44.18,4.73c0,1.17-1.22,2.36-3.26,3.18l-.25.1c-1.82.72-4.07,1.62-5.86,2.49.04.51.07,1.02.07,1.54,0,.43-.03.88-.06,1.31-.1,1.12-.9,1.94-1.54,1.94-.28,0-.93-.13-.93-1.38,0-.06,0-.13.01-.19,0-.05.01-.11.01-.17.03-.36.11-.59.18-.82.09-.27.19-.56.21-1.09-1.81,1.18-2.79,2.44-2.79,3.56,0,.61.6,2.21,3.33,2.21,1.11,0,2.27-.27,3.17-.75.31-.17.63-.26.97-.26.74,0,1.29.47,1.29,1.1,0,1.32-2.41,2.13-4.65,2.13-3.4,0-5.69-2.15-5.69-4.15,0-1.81,1.6-3.81,4.39-5.48-.02-1.74-.32-3.73-1.59-3.73-.75,0-1.68.74-2.62,2.09-.1.18-.22.4-.34.64-.08.17-.17.34-.26.51-.52.98-1.32,2.28-2.21,2.28-.39,0-1.01-.33-1.01-1.21,0-.69.44-1.51,1.18-2.2,2.51-2.35,3.38-3.85,4.52-6.4-.42.09-.81.14-1.22.14-3.06,0-3.73-2.2-3.73-2.75,0-.23.16-.4.37-.4.16,0,.33.1.8.41.74.51,1.44.74,2.28.74.11,0,1.1-.01,2.22-.36.05-.26.05-.47.05-.68,0-.91-.24-1.31-.9-1.46l-.08-.02c-.2-.06-.53-.17-.53-.5,0-.52,1.01-.84,1.46-.84.36,0,1.52.11,1.83,1.41.05,0,.1.01.16.02.19.02.37.02.56.02.42,0,.69-.06.72-.07.1-.05.28-.1.43-.1.5,0,.87.41.87.98,0,1.06-1.16,2.03-3.44,2.89l-.06.12c-.81,1.76-1.35,2.79-1.84,3.66.33-.1.65-.15.98-.15,1.28,0,2.36.9,2.91,2.36,1.25-2.74,3.44-5.41,6.19-5.41,1.67,0,3.7,1.25,3.7,2.72Zm-9.29,4.13c.68-.35,1.43-.72,2.18-1.09.99-.49,1.97-.98,2.8-1.42,1.2-.64,1.81-1.24,1.81-1.79,0,0-.15-1.2-1.48-1.2-2.25,0-4.44,3.36-5.31,5.5Zm-1.46-10.17c-.08-.05-.23-.12-.34-.16,0,.17-.02.33-.04.48.2-.13.33-.25.38-.32Zm43.12,7.66c0,.31-.33.43-1.2.76-.65.25-1.55.58-1.85.9-.14.14-.32.23-.49.23-.96,0-6.51-3.57-10.2-9.82-.05.06-.11.15-.19.3-1.41,2.5-3.11,4.65-5.06,6.4,1.87.2,4.26.29,5.43.29h1.74s.07-.05.09-.09c.32-.51.7-1.02,1.01-1.36.12-.12.25-.18.4-.18.06,0,.12.01.15.02l.13.03c1.06.47,2.1,1.67,2.1,2.22,0,.27-.21.59-.79.59h-1.17v.02c0,.36-.38.54-.58.65-.27.13-.42.2-.43,2.99h2.15c.07,0,.17-.06.2-.11.01-.02.98-1.57,1.64-1.57.08,0,.14.01.18.02l.11.02c.83.29,2.49,1.46,2.49,2.26,0,.19-.09.65-.9.65h-5.88v4.14c0,1.08,0,1.79,2.63,1.79.6,0,1.13-.04,1.66-.14,1.23-.2,1.37-.7,1.92-3.3l.07-.32c.07-.3.15-.59.42-.59.34,0,.38.32.53,1.26.08.54.25,1.66.44,1.81.5.33.77.75.77,1.19,0,.52-.43,2.22-5.97,2.22-3.39,0-4.65-.93-4.65-3.45v-.2c0-.5.02-1.01.03-1.52.02-.99.05-1.98.05-2.9h-2.61c-.72,4.73-3.52,7.45-9.05,8.81-.4.1-.72.15-.99.15-.35,0-.48-.18-.48-.34,0-.12,0-.4,1.09-.75,4.22-1.34,6.57-3.91,7.18-7.84-1.13.03-2.99.09-4.71.27h0c-.72,0-1.68-1.2-1.68-1.71v-.32l.32.04c1.91.25,4.53.33,6.22.38.01-.3.01-.6.01-.91,0-.17,0-1.53-.08-2.52-.17.02-.33.03-.47.05-.13.02-.25.03-.37.04h0c-.49,0-1.02-.54-1.32-.99-3.23,2.58-6.37,3.63-6.69,3.63-.36,0-.37-.31-.37-.34,0-.19.13-.37.87-.8,2.65-1.48,4.88-3.62,6.56-5.62-.18.12-.4.18-.62.18-.3,0-.87-.12-1.31-.93-.36-.64-1.21-1.53-2.02-2.12l-.1-.08c-.2-.17-.32-.27-.32-.45,0-.34.34-.34.7-.34,1.74,0,4.31.8,4.31,2.52,0,.2-.04.4-.11.57,1.68-2.1,2.7-3.94,2.9-4.49h-.63c-.81,0-2.63.09-4.17.28h0c-.65,0-1.6-1.27-1.6-1.74v-.33l.33.05c1.95.29,4.47.42,5.39.42h.9c.09,0,.23-.05.33-.13.11-.07.19-.12.26-.17.31-.2.49-.31.67-.31.34,0,2.22,1.15,2.22,1.77,0,.2-.1.34-.23.44.56.71,1.12,1.35,1.7,1.92.48-.54,1.45-1.79,2.19-3.35.06-.18.14-.41.4-.41s2.69,1.5,2.69,2.16c0,.13-.05.56-.76.56-.12,0-.3-.03-.48-.06-.26-.07-.22-.06-.42.08-.05.03-.1.07-.16.11-.79.57-1.61,1.09-2.67,1.69.53.49,1.14,1,1.86,1.56,1.48-1.45,1.94-2.08,2.51-3.17.02-.05.04-.09.05-.12.03-.08.11-.28.34-.28.28,0,2.61,1.65,2.61,2.3,0,.27-.22.54-.7.54-.18,0-.4-.03-.61-.1l-.11-.02c-.12-.03-.07-.08-.26.05-.05.03-.1.07-.17.11l-.15.09c-.6.36-1.46.88-2.44,1.41,2.37,1.65,4.7,2.69,6.76,2.99.15.02.5.08.5.39Zm-15.49,3.94h2.49v-1.4c0-.67,0-1.3-.09-2.26h-.55c-.29-.02-.61,0-.98,0,0,.22-.18.43-.54.63l-.06.04q-.21.12-.21.59v.84c0,.55-.02,1.09-.06,1.56Zm39.14-12.76c-.09.14-.18.26-.27.39-.03.06-.14.11-.2.11h-5.54v-.94q.02-.56.22-.65c.11-.05.25-.12.42-.23.38-.23.59-.5.59-.77,0-.99-3.5-1.29-3.53-1.29l-.31.06v.28c0,.06,0,.14.03.25.2,1.07.3,2.12.3,3.3h-1.56c-1.43,0-5.72-.08-8.42-.44l-.32-.04v.32c0,.48.86,1.74,1.6,1.74h0c2.77-.3,6.6-.31,7.03-.31h1.68v2.57h-.08c-1.39,0-5.58-.08-8.22-.44l-.32-.04v.33c0,.52.93,1.74,1.57,1.74,1.29,0,2.83-.1,4.2-.18,1.08-.07,2.02-.13,2.64-.13h9.91c.62,0,.84-.33.84-.65,0-.66-1.94-2.36-2.69-2.36-.14,0-.28.04-.41.13-.3.21-.64.68-.93,1.08-.1.14-.19.27-.27.37-.04.05-.13.15-.2.15h-3.78c0-.24,0-.53,0-.85,0-.53.01-1.14.02-1.71h9.38c.81,0,.87-.5.87-.65,0-.55-1.89-2.55-2.78-2.55-.17,0-.32.07-.42.17-.36.26-.73.82-1.04,1.26Zm-11,10.05c-.37,0-.45.17-.45.31l.05.34c.06.39.15.99.15,1.84-.07,6.35-4.97,8.59-7.88,9.36-.97.27-1.05.42-1.05.61,0,.17.1.37.56.37.19,0,.49-.03.85-.09,6.31-.94,9.62-4.31,9.84-10.04q.04-.79.28-.91l.11-.05c.27-.12.45-.37.45-.65,0-1.01-2.89-1.1-2.92-1.1Zm-7.11,2.95c1.74,0,2.92-2.18,3.19-3.89h15.37c-.19.56-1.24,2.08-1.96,2.99-.11.14-.17.25-.17.37,0,.18.16.34.34.34.12,0,.25-.05.36-.12.42-.22.92-.55,1.46-.89,1.03-.66,2.3-1.48,2.93-1.51,1.21-.08,1.38-.63,1.38-.95,0-1.06-2.22-2.06-2.66-2.25l-.11-.02c-.43,0-.83.35-1.1.64-.07.07-.22.14-.27.14h-15.49c-.02-.59-.14-1.85-.67-1.85-.18,0-.42.14-.47.54-.31,1.56-1,2.59-2.56,3.81-.57.45-.89.98-.89,1.48,0,.67.57,1.18,1.32,1.18Zm22.55,5.78c-.41-.26-.64-2.12-.74-2.92-.11-.87-.13-1.05-.42-1.05h-.17l-.08.16s-.05.11-.08.27l-.08.49c-.34,1.95-.66,3.78-1.75,3.96-.82.13-1.64.19-2.45.19-3.02,0-3.02-.29-3.02-2.18s.08-4.14.11-5.01v-.13q.03-.62.23-.69c.38-.13.64-.43.64-.75,0-.93-2.91-1.1-2.94-1.1-.35,0-.37.26-.37.31,0,.06.01.1.02.14l.28-.06s0,0,0,0l-.26.17c.13.7.13,1.14.13,2.58,0,.46-.03,2.6-.08,5.6v.11c0,3.2,3.41,3.2,5.24,3.2.87,0,1.93-.05,2.91-.14h0c2.46-.25,3.56-1.24,3.56-2.1,0-.29-.12-.71-.66-1.05Zm15.53-13.33c.48,3.66.87,8.48.89,9.46,0,.47.33.75.65.75s.63-.23.68-.74c.06-1.06.47-5.98.89-9.47l.04-.34c.17-1.31.35-2.79.35-3.86,0-.98-.52-2.44-1.96-2.44-1.33,0-1.93,1.27-1.93,2.44,0,1.07.19,2.57.35,3.88l.04.33Zm1.54,12.39c-1.12,0-1.99.88-1.99,1.99s.87,1.99,1.99,1.99,1.99-.88,1.99-1.99-.87-1.99-1.99-1.99Z"/></g></svg>