<?xml version="1.0" encoding="UTF-8"?><svg id="Layer_2" xmlns="http://www.w3.org/2000/svg" viewBox="0 0 415.29 27.89"><defs><style>.cls-1{fill:#231f20;}</style></defs><g id="text"><g><path class="cls-1" d="m22.3,12.69c-.22,0-.59.16-1.06.93-.04.06-.12.1-.18.1h-6.73c-.43-.21-2.4-1.09-2.71-1.09l-.31.03v.28s0,.14.04.25c.26.99.38,3.22.39,3.67.03.83.06,1.8.06,2.87,0,2.23-.07,4.67-.21,7.06v.08c0,.61.44,1.01,1.13,1.01.03,0,.7,0,1.12-.44.22-.23.33-.53.32-.88l-.03-1.27c-.03-1.16-.06-2.45-.06-3.69h7.36c0,.93,0,1.73-.03,2.2-.02.79-.29,1.21-1.66,1.21-.76,0-1.79-.11-3.19-.35-.13-.04-.26-.04-.3-.04-.28,0-.41.18-.41.34,0,.25.19.37,1.36.99.73.4,1.85.99,2.03,1.26.19.28.33.49.75.49.04,0,3.84-.16,3.84-3.74,0-.28-.02-.81-.05-1.34-.02-.5-.04-.99-.04-1.25,0-.36,0-.76-.01-1.18,0-.47-.02-.98-.02-1.49,0-.97.03-1.93.06-2.57.02-.33.04-.34.28-.45.06-.03.13-.06.21-.1.27-.15.72-.4.72-.86,0-.76-2.19-2.04-2.65-2.04Zm-.89,5.73v1.8h-7.36v-1.8h7.36Zm-7.36-1.39v-1.01q.02-.63.27-.82l.06-.04h6.92c.06-.01.08,0,.08.04,0,.23,0,.5.01.81,0,.31.01.66.02,1.03h-7.36Z"/><path class="cls-1" d="m.51,9c.91.5,2.03,1.42,2.49,2.05.35.48.82.75,1.29.75.74,0,1.35-.67,1.35-1.5,0-1.66-2.11-2.26-4.08-2.26-1.33,0-1.56.13-1.56.44,0,.21.16.31.38.44l.13.08Z"/><path class="cls-1" d="m3.06,2.06c.88.65,1.85,1.68,2.26,2.4h0c.48.85,1.04,1.03,1.43,1.03.78,0,1.41-.69,1.41-1.53,0-1.91-2.87-2.8-4.81-2.8-.43,0-.77,0-.77.34,0,.2.14.31.48.56Z"/><path class="cls-1" d="m25.03,8.74c-.46,0-1.28,1.07-1.73,1.72-.03.06-.18.14-.27.14h-4.31c-.02-.52-.04-1.27-.05-2.1h5.48c.66,0,.89-.35.89-.68,0-.93-2.23-2.2-2.68-2.2-.26,0-.59.11-1.59,1.38-.11.14-.16.17-.2.17h-1.9c0-.36,0-.73.01-1.08,0-.31.01-.62.01-.9h7.19c.85,0,.92-.52.92-.68,0-.82-2.12-2.41-2.77-2.41-.16,0-.54,0-1.7,1.63-.04.07-.16.14-.24.14h-3.38s0-.06,0-.09c0-.11.01-.22.01-.31.04-1.01.06-1.02.38-1.16.09-.04.2-.09.32-.15.53-.27.64-.56.64-.77,0-1.01-3.68-1.38-3.71-1.38l-.31.03v.28s0,.17.04.28c.26,1.11.32,2.3.33,3.26h-.78c-2.01,0-3.98-.15-6.4-.48l-.32-.04v.33c0,.28.26.76.62,1.17-.68.5-2.71,4.52-6.06,11.96-.5,1.14-1.08,1.26-2.26,1.26-.3,0-1.01,0-1.01.47,0,.32.38.48.94.61,1.98.51,2.25,1.64,2.25,2.67,0,.5-.07,1.03-.14,1.55-.05.38-.1.76-.13,1.15v.36c0,1.69.75,2.44,1.5,2.44.42,0,.83-.23,1.12-.63.5-.7.56-1.78.15-2.96-.29-.88-.44-1.86-.44-2.92,0-1.96.46-4.53,2.41-9.84.33.6,1.04,1.32,1.62,1.32h0c2.76-.29,4.53-.33,5.89-.33h11.72c.88,0,.92-.54.92-.65,0-1.06-2.51-2.53-2.96-2.53Zm-15.22-2.87c.04-.09.14-.4.17-.63.22.16.45.26.66.26h0c2.52-.28,3.34-.33,4.86-.33h.9v.17c.01.34.03,1.02.03,1.82h-.17c-1.57,0-2.79-.06-5.52-.42l-.32-.04v.32c0,.53,1.01,1.77,1.77,1.77h0l.86-.1c1.62-.19,1.79-.2,3.09-.2h.29c0,.75,0,1.49-.02,2.1h-.91c-1.16,0-4.17-.05-7.36-.46.48-1.26,1.03-2.67,1.68-4.26Z"/><path class="cls-1" d="m46.04,13.12c-.41,0-.44.31-.44.37,0,.04,0,.16.04.21.16.74.24,1.86.24,3.64,0,2.25-.09,6.07-.18,7.86v.09c0,.61.45,1.04,1.1,1.04.39,0,.8-.17,1.06-.44.21-.22.31-.48.29-.76v-.61c-.04-1.6-.09-4.03-.09-6.03,0-1.26.03-2.34.06-2.92q.05-.51.58-.76c.21-.08.51-.34.51-.66,0-.68-2.06-1.04-3.17-1.04Z"/><path class="cls-1" d="m57.81,23.92c-.24-.27-.4-2.34-.47-3.34-.13-1.7-.14-1.91-.49-1.91-.27,0-.31.2-.4.76-.71,5.07-.86,5.19-2.73,5.19-1.05,0-1.08-.53-1.11-1.04-.06-.78-.06-2.72-.06-4.44,0-4.08,0-4.08.5-4.26.39-.13.65-.45.65-.78,0-.14-.05-.5-.55-.66-.68-.26-2.43-.5-2.56-.5-.3,0-.44.21-.44.41,0,.08.03.14.03.14.12.76.15,2,.15,2.41s0,1.18-.02,2.14c-.02,1.49-.04,3.38-.04,4.84,0,2.28,0,3.93,3.87,3.93,1.34,0,4.44-.17,4.44-1.71,0-.3-.14-.74-.78-1.17Z"/><path class="cls-1" d="m44.51,13.59c-.26-.11-2.49-.51-2.75-.51-.13,0-.34.05-.34.37l.06.64c.14,1.19.18,1.58.18,2.24,0,4.73-2.04,8.44-5.6,10.19-.28.13-.74.39-.74.68,0,.04.01.37.47.37.08,0,8.3-1.6,8.3-11.61v-.73c0-.1.01-.14.01-.14.02-.01.09-.03.14-.04.06-.02.14-.04.22-.07.35-.13.61-.45.61-.75,0-.14-.05-.5-.54-.66Z"/><path class="cls-1" d="m33.58,2.36c.93.68,1.87,1.69,2.26,2.4h0c.48.85,1.04,1.03,1.43,1.03.52,0,.98-.31,1.22-.78.2.56.95,1.5,1.6,1.5h0c1.72-.17,3.29-.23,4.51-.26-.19,1.55-.55,3.18-.81,4.02-.5.02-1.1.05-1.7.05-.47,0-1.56-.12-2.34-.26-.13-.04-.23-.04-.27-.04l-.34.03v.28c0,.13.95,2.68,1.77,2.68.2,0,.35-.1.49-.19.12-.08.23-.15.37-.17h.08c4.24-.67,7.92-1.23,10.86-2.05.41.45.73.88.97,1.28.41.7.9,1.05,1.46,1.05.73,0,1.32-.67,1.32-1.5,0-2.42-5.31-4.29-6.66-4.29-.28,0-.41.18-.41.34,0,.22.19.36.3.44.73.52,1.43,1.1,2.07,1.69-1.91.24-4.04.43-6.34.56.57-.95,1.31-2.42,1.62-3.04.03-.05.05-.1.08-.15.09-.18.13-.24.22-.26.37-.07.79-.21.92-.48h8.25c.86,0,.95-.47.95-.68,0-.81-1.69-2.12-2.53-2.44-.12-.06-.23-.06-.31-.06-.28,0-.6.13-1.61,1.69-.04.06-.17.15-.18.17h-4.3c0-.37.01-.81.02-1.14,0-.22,0-.4,0-.47q.03-.72.39-.89c.55-.28.82-.56.82-.86,0-.86-3.47-1.22-3.5-1.22l-.34.03v.28c0,.07,0,.17.04.28.17.69.17,1.84.17,2.75v1.23c-1.87,0-4.83-.12-7.4-.42h-.1c0-.08.02-.16.02-.24,0-1.91-2.87-2.8-4.81-2.8-.43,0-.77,0-.77.34,0,.2.14.31.48.56Z"/><path class="cls-1" d="m36.23,26.11c.5-.7.56-1.78.15-2.96-.3-.89-.44-1.77-.44-2.7,0-2.78,1.19-5.96,3.57-12.29.09-.24.23-.67.23-.95,0-.36-.29-.37-.34-.37-.35,0-.74.42-5.24,9.34l-.18.35c-.56,1.15-1.1,1.27-2.27,1.27-.3,0-1.01,0-1.01.47,0,.27.27.45.94.61,1.97.51,2.25,1.5,2.25,2.49,0,.45-.07.92-.14,1.42-.05.38-.11.76-.14,1.16v.36c0,1.69.75,2.44,1.5,2.44.42,0,.83-.23,1.12-.63Z"/><path class="cls-1" d="m31.03,9c.91.5,2.03,1.42,2.49,2.04.35.48.82.75,1.29.75.74,0,1.35-.67,1.35-1.5,0-1.66-2.11-2.26-4.08-2.26-1.33,0-1.56.13-1.56.44,0,.21.16.31.38.44l.13.08Z"/><path class="cls-1" d="m81.5,7.26c-.54,0-.8.23-1.07.47-.27.23-.57.49-1.25.7-1.19.35-2.79.91-4.9,1.68-.04-.18-.09-.36-.13-.54-.07-.28-.13-.55-.2-.84l-.06-.24c-.12-.5-.21-.86-.21-1.28,0-.17,0-.39.06-.63,0-.07.02-.13.03-.2.03-.16.06-.32.06-.48,0-1.42-2.59-1.86-3.53-1.86-1.35,0-1.81.8-1.86,1.26,0,.27.19.56.71.56.07,0,.14-.01.2-.02l.11-.02c.09-.02.19-.02.27-.02.89,0,1.29.76,2.6,5.04-3.1,1.12-4.76,1.62-6.18,1.62-.33,0-.64-.05-.86-.13-.26-.11-.54-.17-.78-.17-.39,0-.65.24-.65.62,0,1.43,2.72,2.2,3.84,2.2.8,0,1.49-.33,2.53-.88.87-.44,1.77-.87,2.67-1.31,1.09,3.86,1.99,7.67,2.24,8.77.08.33.12.67.15.96.03.23.05.45.09.64.29,1.27.96,3.41,2.13,3.41.52,0,1.04-.52,1.04-1.68,0-.97-.41-2.11-.54-2.45-1.51-3.51-2.48-7.12-3.3-10.5,1.49-.67,5.27-2.25,6.26-2.25.11,0,.15.02.14.05,0,.6-2.19,4.29-3.85,6.07-.11.13-.37.46-.37.7,0,.22.16.37.38.37.6,0,4.06-2.63,6.35-5.44.19-.22.51-.44.83-.65.58-.39,1.12-.76,1.12-1.29,0-.98-2.74-2.23-4.05-2.23Z"/><path class="cls-1" d="m112.29,8.23c-.4,0-.66.16-.91.32-.3.19-.65.41-1.39.47-3.07.27-5.48.63-8.02,1.01-.92.14-1.87.28-2.88.42-.27.03-.56.06-.91.06-1.08,0-2.17-.2-2.5-.46-.89-.67-1.55-.39-1.55.32,0,1.74,3.48,2.83,4.35,2.83.59,0,1.15-.17,2-.44,5.25-1.65,10.02-2.17,10.91-2.17.29,0,.63.04.63.2-.03.63-3.56,4.33-5.48,6-2-1.19-4.53-2.09-5.07-2.09-.23,0-.41.15-.41.34,0,.23.19.39.83.81,2.18,1.44,3.98,3.29,5.5,5.62.43.68,1.02,1.07,1.61,1.07.75,0,1.32-.66,1.32-1.53,0-1.02-.87-2.19-2.59-3.47,1.97-1.18,5.1-3.47,6.77-4.88.2-.16.52-.31.82-.46.66-.32,1.35-.65,1.35-1.28,0-1.45-3.72-2.71-4.35-2.71Z"/><path class="cls-1" d="m140.71,5.37c-1.08,0-1.47.78-1.47.98,0,.18.08.5.64.61.85.22.97.52.97.82,0,.41-.46,1.74-3.54,6.04h-.01c-3.56-1.58-5.98-1.95-6.28-1.95s-.47.12-.47.34c0,.21.14.38.92.77,1.36.66,2.99,1.6,4.5,2.58-3.54,4.38-7.62,7.67-11.82,9.51-.78.36-.92.54-.92.74v.12l.08.08s.13.11.29.11c.07,0,7.36-.83,14.46-9.13,1.07.82,1.86,1.55,2.34,2.15.65.84,1.27,1.02,1.68,1.02.73,0,1.23-.54,1.23-1.35,0-.85-.42-2.05-3.65-3.83,1.09-1.45,2.16-3.05,3.19-4.77.19-.32.45-.61.7-.88.41-.45.8-.87.8-1.42,0-1.32-2.51-2.56-3.65-2.56Z"/><path class="cls-1" d="m167.85,4.25c-8.17,0-12.52,7.09-12.52,12.22,0,1.21.27,2.23.78,2.92.35.5.64,1.02.92,1.52.73,1.3,1.36,2.43,2.59,2.43,2.87,0,8.21-7.04,8.21-13.7,0-1.69-.3-3.03-.85-3.8.16,0,.32-.02.48-.02,5.9,0,8.58,4.31,8.58,8.31,0,1.94-.72,8.44-9.93,10.93-1.57.43-1.57.74-1.57.91,0,.15.09.41.71.41,2.94,0,13.34-2.9,13.34-12.12,0-4.82-3.36-10-10.73-10Zm-7.92,15.94c-1.21,0-2.51-1.78-2.51-4.42,0-3.62,2.58-8.2,7.38-9.58.07,0,.18,0,.27-.04.09-.02.15-.02.24-.02.25,0,.9,0,.9,2.42,0,5.43-4.45,11.65-6.27,11.65Z"/><path class="cls-1" d="m199.8,21.36c-.03-.55-.1-1.11-.17-1.65-.04-.34-.09-.67-.12-.99-.03-.34-.06-.69-.09-1.03-.06-.65-.12-1.3-.16-1.96,1.01-.31,5.06-1.68,5.06-3.36,0-.49-.35-1.03-1.33-1.07-.66-.03-1.89-.51-2.47-.77-.11-.07-.23-.11-.37-.11-.28,0-.41.18-.41.34s.1.33.2.37c1.04.82,1.2,1.11,1.2,1.2,0,0-.02.46-1.95,1.15v-.6c0-1.14.03-2.1.1-3,.73-.21,2.99-.94,2.99-2.14,0-.62-.39-.98-1.07-.98-.57,0-1.09.28-1.63.59.33-2.02.49-2.38.49-2.39l.03-.07c.05-.21.1-.4.15-.58.1-.38.19-.72.19-1.06,0-.96-1.31-2.53-2.35-2.53-.74,0-1.56.77-1.56,1.1,0,.41.47.57.9.73.46.16.59.21.59,1.13,0,1.05-.24,2.94-.27,3.15-.05.38-.1.78-.14,1.19-.23.03-.44.05-.64.05-1.36,0-2.57-.61-3.69-1.27l-.09-.05c-.28-.16-.46-.26-.63-.26-.19,0-.4.14-.4.44,0,.65.87,3.26,4.87,3.26.14,0,.28,0,.43,0-.08,1.39-.13,2.66-.13,3.87-.69.16-2.06.43-3.57.43-1.24,0-2.32-.18-3.51-.59-.2-.07-.57-.2-.83-.2-.37,0-.5.23-.5.44,0,.31,1.02,2.47,5.11,2.47.42,0,1.82-.03,3.3-.35,0,.85.04,1.68.09,2.48.01.3.03.61.04.9.02.41.04.8.05,1.18-.36-.05-.75-.07-1.2-.07-2.57,0-6.39.9-6.39,3.38,0,1.63,1.57,3.38,4.11,3.38,2.09,0,4.73-1.4,5.59-3.68.89.58,1.63,1.3,2.15,2.09.51.8,1.09.92,1.39.92.68,0,1.19-.58,1.19-1.35,0-1.07-1.57-3.08-4.53-4.12Zm-.28-13.74s0,0,0,0l.04.08-.04-.07Zm-4.27,14.87c.68,0,1.37.1,2.1.3-.57,1.6-2.23,2.44-3.65,2.44s-2.18-.73-2.18-1.26c0-1.17,2.44-1.48,3.72-1.48Z"/><path class="cls-1" d="m230.01,12.93c-1.41,0-2.84.34-4.13.97,1.18-1.61,3.77-4.93,5.58-6.29.66-.5,1.3-1.05,1.3-1.77,0-.91-1.42-2.07-2.93-2.07-1.64,0-3.27,1.04-4.34,1.92-.28.23-.66.36-1.06.36-.27,0-.48-.03-.69-.1l-.16-.06c-.19-.07-.35-.14-.52-.14-.24,0-.53.13-.53.77,0,1.2.88,2.01,2.2,2.01,1.19,0,1.97-.88,2.66-1.65.52-.59,1.02-1.14,1.56-1.14.34,0,.51.09.51.26,0,.04-.02.21-.26.61-.5.79-6.07,8.45-7.29,9.9-2.17,2.56-2.56,3.3-2.56,3.92,0,.69.48,1.19,1.13,1.19.55,0,1.11-.35,1.54-.97.13-.19.34-.62.56-1.07.15-.32.31-.63.42-.83,1.97-3.45,4.59-4.17,6.43-4.17,3.03,0,4.67,2.25,4.67,4.36,0,1.95-1.22,4.28-4.62,5.11.04-.2.06-.39.06-.59,0-1.85-1.58-3.35-3.53-3.35-1.54,0-3.14.95-3.14,2.53,0,2.07,2.62,3.35,5.05,3.35,5.42,0,8.66-3.62,8.66-7.11,0-2.29-1.78-5.93-6.57-5.93Zm-4.37,8.73c.93,0,1.69.8,1.69,1.78,0,.29-.04.52-.13.76-1.34-.15-2.7-.75-2.7-1.61,0-.28.11-.93,1.14-.93Z"/><path class="cls-1" d="m256.68,7.79c.23.02.46.02.69.03.22,0,.45.02.69.03.04,0,.07,0,.1,0-.27.4-1.1,1.42-1.59,1.99-.23.27-.37.54-.37.73,0,.25.16.41.41.41.23,0,.51-.14.93-.45,2.39-1.85,4.68-2.34,5.3-2.37,1.16-.04,1.58-.58,1.58-1.07,0-.78-1.09-1.65-2.65-1.65-.25,0-.48.02-.71.05-.21.02-.42.04-.66.04h-.09c-.94.03-1.85.06-2.76.06-1.2,0-2.61-.06-3.89-.53l-.25-.09c-.31-.11-.57-.2-.78-.2-.3,0-.44.19-.44.37,0,.33,1.23,2.36,4.49,2.65Z"/><path class="cls-1" d="m264.16,3.43c-1.47,0-1.47.36-1.47.5,0,.22.18.34.6.55.56.31,1.64,1,2.53,2.06h0c.33.37.67.56,1.03.56.64,0,1.16-.59,1.16-1.32,0-1.17-1.33-2.35-3.87-2.35Z"/><path class="cls-1" d="m264.77,21.71c-.22,0-.48.03-.75.07-.38.07-.73.2-1.12.35-.46.17-.98.37-1.71.53-.79.18-1.64.27-2.52.27-3.6,0-6.64-1.46-6.64-3.18,0-.39.15-.82.44-1.24.15-.22.26-.55.26-.76,0-.37-.22-.5-.41-.5-.51,0-1.86,1.56-1.86,3.2,0,2.88,3.95,5.14,9,5.14,3.87,0,7.15-1.21,7.15-2.65,0-.73-.74-1.22-1.83-1.22Z"/><path class="cls-1" d="m267.47,2.03c-1.68,0-1.68.38-1.68.53,0,.23.19.31.46.44l.18.09c.92.48,1.87,1.2,2.6,1.98h0c.31.32.65.48.99.48.65,0,1.16-.55,1.16-1.25,0-1.55-1.93-2.26-3.71-2.26Z"/><path class="cls-1" d="m294.41,23.23c-.39,0-.79.15-1.07.27-1.14.57-2.55.88-3.97.88-2.72,0-4.48-1.26-4.48-3.21,0-2.65,3.82-4.88,6.21-4.88h.3c.05,0,.11,0,.17.01.08,0,.16.02.23.02,1.08,0,2.68-.48,2.68-1.8,0-.2-.08-1.22-1.59-1.22-.57,0-1.24.12-2.66.71-1.19-.36-1.76-1.33-1.76-2.98,0-1.29.33-2.74.62-4.02.07-.3.13-.59.2-.88.03-.17.08-.35.13-.54.11-.4.24-.86.24-1.36,0-2.13-2.18-3.23-3.11-3.23-.87,0-1.53.6-1.53,1.13,0,.14.06.48.65.61,1.09.22,1.35.52,1.35,1.54,0,.44-.06.96-.14,1.55l-.04.36c-.04.31-.09.65-.14,1-.15,1.07-.32,2.28-.32,3.44,0,2.1.58,3.5,1.75,4.26-3.07,1.54-5.09,4.14-5.09,6.61,0,2.2,1.91,5.48,7.18,5.48,1.87,0,5.72-.6,5.72-2.44,0-.74-.67-1.32-1.53-1.32Z"/><path class="cls-1" d="m324.83,8.32c-.38,0-.61.15-.84.3-.23.15-.47.3-.94.34-1.47.13-2.82.29-4.13.44-1.39.16-2.83.33-4.43.47-.35.03-1.08.09-1.77.09-.65,0-1.23-.06-1.45-.15-.38-.19-.63-.27-.83-.27-.26,0-.44.17-.44.44,0,1.34,2.29,2.5,3.41,2.5.48,0,1.03-.12,1.78-.31,3.05-.87,6.92-1.42,8.76-1.42.15,0,.32,0,.32.48,0,.24-.35,2.66-1.11,7.39-9.31.89-9.47.89-10.14.89-.9,0-1.56-.09-1.87-.24l-.11-.06c-.33-.18-.61-.34-.87-.34-.14,0-.47.06-.47.62,0,1.4,2.5,2.56,3.78,2.56.58,0,1.14-.14,1.85-.32l.1-.03c2.21-.54,5.12-.87,7.58-.87,1.25,0,2.19.07,2.86.21.17.03.31.04.45.04.69,0,1.16-.38,1.16-.92,0-.36-.4-1.3-2.15-1.58l.35-1.42c.41-1.68.89-3.65,1.25-5.04.09-.34.22-.56.38-.64.75-.4.91-.84.91-1.13,0-.97-2.53-2.01-3.38-2.01Z"/><path class="cls-1" d="m345.31,12.03c.44.41.9.62,1.35.62.95,0,1.38-.78,1.38-1.56,0-1.38-1.57-2.99-5.99-2.99-2.32,0-2.32.37-2.32.53,0,.28.34.43.58.51,1.72.66,3.4,1.37,5.01,2.89h0Z"/><path class="cls-1" d="m362.45,6.62h-.12c-.14,0-.29.05-.82.68-3.64,4.23-14.03,13.84-17.52,13.84-.53,0-.94-.19-1.27-.57l-.05-.06c-.22-.25-.38-.43-.62-.43-.61,0-.62,1.21-.62,1.22,0,1.73,2.94,3.14,3.9,3.14.64,0,.97-.38,1.29-.74.19-.22.39-.45.69-.64,10.63-6.83,15.34-15.36,15.34-16.12l-.03-.15-.17-.17Z"/><path class="cls-1" d="m386.34,5.92c-.43,0-.74.22-1.03.43-.25.18-.48.35-.8.39-.46.06-1.29.19-2.25.33-1.76.26-3.95.58-4.77.68-.67.06-1.37.12-2.02.12-1.5,0-2.2-.26-2.34-.48-.18-.27-.48-.43-.78-.43-.37,0-.8.25-.8.95,0,1.16,2.92,2.71,4.26,2.71.6,0,1.14-.18,1.89-.44.27-.09.58-.2.93-.3,1.29-.41,5.28-1.54,6.69-1.54.37,0,.6.17.6.43-.14.93-5.96,11.8-14.08,15.46-.86.41-.98.64-.98.83,0,.04.01.34.47.34.23,0,.51-.05.87-.16,6.38-1.93,11.48-6.6,16.04-14.71.45-.78.76-1,1.25-1.34.32-.23.76-.6.76-1.08,0-1.11-3.05-2.2-3.9-2.2Z"/><path class="cls-1" d="m412.49,9.66c-.93,0-1.32.62-1.32.95,0,.18.09.51.66.67.43.12.43.23.43.3,0,1.21-4.64,7.32-8.92,9.61-.23.11-.76.42-.76.77,0,.09.04.41.5.41,1.07,0,4.71-1.78,8.08-5.18.01.17.02.33.02.47,0,1.16,0,2.6-.09,3.96-.02.3-.07.49-.14.72-.05.16-.09.34-.13.56-.06.38-.09.73-.09,1.05,0,1.42.54,2.41,1.32,2.41.45,0,1.19-.3,1.19-2.32v-.33c-.03-.27-.06-1.83-.06-3.43,0-2.27.09-2.79.15-2.91.08-.16.12-.35.12-.55,0-.47-.28-1-.69-1.36.55-.68,1.01-1.38,1.41-1.98.1-.16.26-.31.42-.48.34-.35.72-.74.72-1.25,0-.89-1.6-2.07-2.8-2.07Z"/></g></g></svg>