<?xml version="1.0" encoding="UTF-8"?><svg id="Layer_2" xmlns="http://www.w3.org/2000/svg" viewBox="0 0 184.36 64.13"><defs><style>.cls-1{fill:#231f20;}</style></defs><g id="text"><path class="cls-1" d="m.35,7.72c-.19-.12-.35-.21-.35-.41,0-.32.29-.41,1.38-.41,1.71,0,3.53.52,3.53,1.97,0,.73-.54,1.32-1.19,1.32-.24,0-.72-.09-1.14-.66-.39-.53-1.34-1.31-2.12-1.74l-.11-.07Zm23.7,1.98c0,.1-.04.6-.83.6h-10.04c-1.16,0-2.67.03-5.04.28h0c-.48,0-1.07-.57-1.38-1.08-1.65,4.49-2.03,6.67-2.03,8.33,0,.9.13,1.74.38,2.48.35,1.02.3,1.96-.14,2.57-.25.36-.61.56-.99.56-.66,0-1.32-.66-1.32-2.13v-.31c.02-.34.07-.66.11-.99.06-.44.12-.9.12-1.32,0-.87-.23-1.82-1.89-2.25-.5-.12-.84-.26-.84-.56,0-.44.64-.44.91-.44,1.02,0,1.48-.1,1.9-1.05C6.7,6.06,7.76,4.46,8.12,4.16c-.29-.34-.51-.75-.51-.99v-.33l.32.04c2.07.29,3.76.41,5.47.41h.62c0-.82-.06-1.81-.28-2.75-.03-.1-.03-.21-.03-.25V.03l.31-.03s3.22.3,3.22,1.22c0,.19-.1.46-.57.7-.1.05-.19.09-.27.13-.26.11-.26.12-.3.96,0,.08,0,.17-.01.27,0,.01,0,.02,0,.03h2.85c.05,0,.15-.05.17-.1,1.01-1.41,1.35-1.41,1.49-1.41.59,0,2.41,1.37,2.41,2.1,0,.15-.06.62-.83.62h-6.11c0,.23,0,.48-.01.73,0,.29,0,.59-.01.88h1.59s.07-.04.14-.13c.86-1.1,1.16-1.2,1.39-1.2.4,0,2.34,1.11,2.34,1.92,0,.3-.21.62-.8.62h-4.66c0,.67.02,1.28.04,1.72h3.66c.07,0,.18-.06.2-.1.48-.69,1.12-1.49,1.52-1.49s2.57,1.28,2.57,2.21Zm-16.98-1.01c2.71.35,5.26.39,6.25.39h.74c.01-.5.02-1.11.02-1.72h-.21c-1.11,0-1.28.02-2.63.17l-.74.08h0c-.69,0-1.56-1.08-1.56-1.56v-.32l.32.04c2.33.31,3.38.36,4.72.36h.11c0-.67-.02-1.23-.02-1.51v-.1h-.73c-1.3,0-2,.05-4.15.28h0c-.17,0-.36-.08-.54-.2-.03.19-.11.41-.14.49-.54,1.33-1.01,2.53-1.42,3.6Zm14.38,3.97c0,.41-.4.63-.64.77-.07.04-.13.07-.19.09-.2.09-.2.09-.22.35-.02.54-.05,1.36-.05,2.2,0,.44,0,.87.01,1.28,0,.36.01.7.01,1.01,0,.22.02.64.04,1.06.02.45.04.91.04,1.15,0,3.11-3.29,3.25-3.33,3.25-.39,0-.51-.19-.68-.44-.15-.22-1.13-.75-1.72-1.06-1.02-.55-1.19-.65-1.19-.89,0-.17.13-.34.39-.34.04,0,.15,0,.27.04,1.19.2,2.07.3,2.72.3,1.14,0,1.36-.34,1.38-1,.02-.4.03-1.06.03-1.84h-6.22c0,1.03.03,2.1.05,3.06l.03,1.14c0,.31-.09.58-.29.79-.37.38-.96.39-.99.39-.62,0-1.01-.36-1.01-.91.12-2.12.18-4.21.18-6.11,0-.91-.03-1.73-.05-2.46,0-.37-.11-2.31-.33-3.14-.03-.11-.03-.19-.03-.23v-.28l.31-.03c.27,0,1.95.76,2.33.94h5.76s.09-.03.12-.07c.41-.67.74-.81.95-.81.41,0,2.31,1.1,2.31,1.79Zm-9.33,3.2v1.46h6.22v-1.46h-6.22Zm6.22-1.27c0-.3,0-.58-.01-.84,0-.27-.01-.5-.01-.7h-5.92s-.05.04-.05.04q-.2.15-.22.67v.82h6.22ZM2.64,1.84c.75.55,1.58,1.43,1.92,2.04h0c.42.74.92.9,1.26.9.69,0,1.25-.61,1.25-1.35C7.07,1.76,4.58.99,2.91.99c-.38,0-.7,0-.7.34,0,.19.13.29.43.51Zm33.11,11.89v-.62c0-.05,0-.08,0-.09.02,0,.06-.02.09-.03.06-.02.12-.03.19-.06.32-.12.55-.41.55-.68,0-.13-.05-.46-.48-.6-.23-.1-2.15-.44-2.37-.44-.1,0-.33.04-.33.36l.05.59c.12.99.15,1.33.15,1.88,0,4.03-1.74,7.2-4.78,8.69-.3.14-.66.36-.66.62,0,.04.01.36.44.36.07,0,7.15-1.37,7.15-9.98Zm-11.24-5.94c.78.43,1.73,1.21,2.12,1.74.42.58.89.66,1.14.66.66,0,1.19-.59,1.19-1.32,0-1.46-1.83-1.97-3.53-1.97-1.08,0-1.38.09-1.38.41,0,.2.15.29.35.41l.11.07Zm4.51,14.63c.44-.61.49-1.55.14-2.57-.25-.76-.38-1.51-.38-2.3,0-2.37,1.02-5.09,3.05-10.51.07-.2.2-.58.2-.83,0-.35-.3-.36-.33-.36-.3,0-.47,0-4.51,8l-.17.33c-.47.97-.9,1.06-1.9,1.06-.27,0-.91,0-.91.44,0,.3.34.44.84.56,1.66.43,1.89,1.26,1.89,2.09,0,.38-.06.79-.12,1.21-.05.32-.09.65-.12,1v.31c0,1.47.66,2.13,1.32,2.13.38,0,.74-.2.99-.56Zm18.48-1.92c-.2-.25-.33-1.99-.39-2.83-.11-1.49-.13-1.68-.46-1.68-.27,0-.31.21-.38.69-.62,4.41-.74,4.41-2.29,4.41-.86,0-.89-.41-.91-.86-.05-.67-.05-2.33-.05-3.8,0-3.46,0-3.47.4-3.6.35-.12.58-.4.58-.71,0-.13-.05-.45-.5-.6-.58-.22-2.1-.44-2.21-.44-.29,0-.41.2-.41.39,0,.09.04.14.03.12.09.58.13,1.55.13,2.06,0,.34,0,1.01-.02,1.83-.02,1.27-.03,2.9-.03,4.15,0,1.98,0,3.4,3.35,3.4,1.44,0,3.85-.2,3.85-1.51,0-.37-.25-.74-.68-1.02ZM26.69,2.1c.79.58,1.59,1.43,1.92,2.04h0c.42.75.92.9,1.26.9.43,0,.82-.24,1.04-.61.21.5.83,1.23,1.38,1.23h0c1.45-.15,2.77-.2,3.81-.23-.16,1.29-.46,2.64-.67,3.36-.46.02-.93.04-1.42.04-.4,0-1.33-.1-1.99-.22-.12-.04-.21-.04-.25-.04l-.33.03v.28c0,.12.81,2.34,1.56,2.34.18,0,.32-.09.44-.17.1-.07.19-.12.36-.15,3.63-.56,6.77-1.04,9.3-1.74.34.38.61.73.81,1.07.45.76.95.92,1.28.92.64,0,1.17-.59,1.17-1.32,0-2.13-4.54-3.72-5.74-3.72-.25,0-.39.17-.39.34,0,.21.17.33.27.41.6.43,1.18.9,1.7,1.39-1.6.2-3.36.36-5.26.46.49-.81,1.09-2.02,1.35-2.54.02-.04.05-.09.07-.13.07-.15.1-.18.16-.2.31-.06.68-.18.8-.41h7.04c.77,0,.86-.43.86-.62,0-.74-1.47-1.86-2.18-2.13-.11-.06-.21-.06-.28-.06-.26,0-.54.11-1.41,1.46-.03.04-.12.11-.12.12h-3.64c0-.31.01-.66.02-.93,0-.19,0-.34,0-.4q.02-.59.31-.73c.5-.25.73-.49.73-.77,0-.79-3.01-1.09-3.04-1.09l-.33.03v.28c0,.06,0,.15.03.25.15.59.15,1.57.15,2.35v1.02c-1.6,0-4.11-.11-6.29-.36h-.04c0-.06,0-.11,0-.16,0-1.67-2.48-2.44-4.16-2.44-.38,0-.7,0-.7.34,0,.19.13.29.43.51Zm12.99,10.67c.23-.09.46-.34.46-.6,0-.66-1.94-.93-2.75-.93-.3,0-.41.19-.41.36,0,.04,0,.15.03.19.14.63.2,1.59.2,3.11,0,1.92-.08,5.19-.16,6.73v.08c0,.55.41.93.99.93.35,0,.71-.15.93-.39.18-.19.27-.43.26-.68v-.43c-.04-1.39-.08-3.5-.08-5.26,0-1.1.03-2.02.05-2.5q.04-.41.47-.62Zm16.35-.64c.73-.37,1.48-.73,2.24-1.1.93,3.29,1.69,6.52,1.91,7.47.07.28.1.55.13.82.02.2.04.39.08.56.25,1.1.83,2.95,1.86,2.95.46,0,.93-.46.93-1.48,0-.84-.35-1.82-.46-2.11-1.29-3-2.12-6.07-2.82-8.96,1.55-.7,4.54-1.91,5.31-1.91.04,0,.07,0,.08,0,0,.52-1.87,3.65-3.29,5.17-.12.14-.33.41-.33.63s.15.36.36.36c.53,0,3.46-2.21,5.47-4.68.16-.19.43-.37.7-.55.48-.32.98-.66.98-1.14,0-.91-2.49-1.95-3.51-1.95-.47,0-.71.21-.95.41-.22.2-.48.42-1.06.59-1.01.3-2.38.77-4.16,1.43-.03-.14-.07-.28-.1-.42-.06-.24-.12-.48-.17-.73l-.05-.21c-.1-.42-.18-.73-.18-1.08,0-.15,0-.33.05-.53,0-.06.02-.12.03-.17.03-.14.05-.27.05-.41,0-1.34-2.46-1.64-3.07-1.64-1.18,0-1.59.71-1.64,1.12,0,.24.17.52.65.52.06,0,.12,0,.18-.02l.1-.02c.07-.02.15-.02.22-.02.73,0,1.07.64,2.17,4.25-2.63.95-4.03,1.37-5.24,1.37-.28,0-.54-.04-.72-.11-.23-.1-.47-.15-.68-.15-.36,0-.6.22-.6.57,0,1.25,2.36,1.92,3.33,1.92.69,0,1.29-.29,2.18-.76Zm33.93-5.09c-.35,0-.58.14-.8.28-.26.16-.55.34-1.17.4-2.64.23-4.7.54-6.88.86-.79.12-1.6.24-2.46.36-.23.02-.47.05-.78.05-.91,0-1.84-.17-2.12-.38-.79-.59-1.39-.33-1.39.3,0,1.54,2.99,2.47,3.77,2.47.51,0,1-.14,1.72-.38,4.49-1.41,8.57-1.86,9.33-1.86.08,0,.5,0,.5.13-.06.56-3.03,3.67-4.66,5.09-1.72-1.02-3.87-1.78-4.34-1.78-.22,0-.39.15-.39.34,0,.23.2.38.72.73,1.86,1.23,3.4,2.81,4.7,4.8.38.6.89.94,1.41.94.67,0,1.17-.58,1.17-1.35,0-.89-.72-1.86-2.18-2.96,1.73-1.04,4.33-2.95,5.75-4.15.17-.14.43-.26.69-.39.58-.28,1.18-.57,1.18-1.13,0-1.31-3.34-2.36-3.77-2.36Zm20.01,7.61c.9.69,1.56,1.3,1.97,1.81.57.74,1.12.89,1.47.89.64,0,1.09-.49,1.09-1.19s-.36-1.77-3.11-3.29c.92-1.23,1.83-2.59,2.71-4.05.16-.27.38-.51.59-.74.36-.39.7-.76.7-1.25,0-1.15-2.18-2.23-3.17-2.23s-1.3.7-1.3.88c0,.17.08.46.58.56.7.18.8.43.8.66,0,.28-.29,1.33-3.01,5.13-3.39-1.52-5.35-1.67-5.36-1.67-.36,0-.44.18-.44.34,0,.22.19.39.81.7,1.15.56,2.53,1.35,3.82,2.18-3.02,3.73-6.5,6.53-10.08,8.1-.62.29-.81.45-.81.67v.12l.08.08c.07.07.17.11.28.11.06,0,6.3-.71,12.39-7.8Zm14.11,3.31c-.24-.43-.49-.87-.79-1.3-.44-.6-.67-1.48-.67-2.53,0-4.4,3.74-10.5,10.76-10.5,6.34,0,9.23,4.46,9.23,8.6,0,7.93-8.93,10.42-11.46,10.42-.58,0-.65-.27-.65-.39,0-.23.17-.49,1.38-.82,7.86-2.12,8.48-7.67,8.48-9.32,0-3.41-2.29-7.07-7.31-7.07-.11,0-.22,0-.33,0,.45.68.69,1.8.69,3.22,0,5.72-4.6,11.78-7.07,11.78-1.08,0-1.62-.97-2.25-2.1Zm7.85-10.61c0-2.03-.53-2.03-.73-2.03-.07,0-.12,0-.19.02-.08.03-.17.03-.24.03-4.08,1.19-6.28,5.09-6.28,8.17,0,2.24,1.09,3.75,2.11,3.75,1.55,0,5.33-5.3,5.33-9.93ZM18.27,62.36c0,.68-.46,1.19-1.06,1.19-.27,0-.78-.1-1.23-.81-.44-.66-1.05-1.26-1.79-1.75-.76,1.94-3.02,3.13-4.81,3.13-2.2,0-3.56-1.52-3.56-2.94,0-2.15,3.29-2.94,5.51-2.94.37,0,.69.02.99.06,0-.32-.02-.64-.04-.98-.01-.25-.03-.5-.03-.76-.04-.66-.07-1.36-.08-2.07-1.26.27-2.43.29-2.79.29-3.54,0-4.42-1.89-4.42-2.16,0-.19.12-.41.46-.41.23,0,.55.11.72.17,1.02.35,1.94.5,2.99.5,1.27,0,2.42-.22,3.02-.36,0-1.01.04-2.08.11-3.24-.11,0-.21,0-.32,0-3.46,0-4.21-2.27-4.21-2.83,0-.28.2-.41.39-.41.16,0,.32.09.57.23l.07.04c.95.56,1.98,1.08,3.13,1.08.17,0,.33-.02.51-.04.03-.34.07-.66.11-.99.02-.18.23-1.8.23-2.69,0-.76-.1-.79-.48-.93-.38-.13-.79-.28-.79-.66,0-.33.74-.99,1.38-.99.93,0,2.05,1.36,2.05,2.21,0,.3-.08.59-.17.92-.04.15-.08.31-.13.5l-.03.07s-.13.31-.4,1.95c.44-.25.87-.47,1.35-.47.6,0,.96.33.96.88,0,1.04-1.9,1.67-2.56,1.86-.06.76-.09,1.58-.09,2.53v.46c1.29-.47,1.59-.83,1.59-.93-.01-.08-.16-.33-1.01-1-.1-.04-.18-.19-.18-.35s.13-.34.39-.34c.12,0,.24.03.34.1.65.29,1.6.63,2.09.66.72.03,1.18.41,1.18.96,0,1.45-3.41,2.62-4.33,2.91.04.56.09,1.11.14,1.65.03.29.06.58.08.87.03.27.07.56.1.85.06.46.12.92.15,1.39,2.53.9,3.88,2.63,3.88,3.56Zm-10.97-1.3c0,.44.63,1.04,1.82,1.04s2.58-.69,3.07-2.02c-.61-.17-1.18-.25-1.75-.25-1.09,0-3.15.26-3.15,1.22Zm7.39-11.1v-.02s-.04-.03-.06-.04v.08s.04,0,.06-.02Zm29.11,6.73c0,3.02-2.79,6.13-7.46,6.13-2.1,0-4.37-1.11-4.37-2.91,0-1.38,1.39-2.21,2.73-2.21,1.69,0,3.06,1.31,3.06,2.91,0,.15-.01.3-.04.45,2.84-.72,3.87-2.68,3.87-4.32,0-1.79-1.39-3.69-3.96-3.69-1.57,0-3.8.62-5.47,3.55-.1.17-.23.44-.36.71-.19.39-.37.75-.48.92-.38.54-.87.85-1.35.85-.59,0-1.01-.45-1.01-1.06,0-.54.33-1.18,2.2-3.38,1.06-1.24,5.82-7.79,6.24-8.47.21-.34.22-.48.22-.5,0-.12-.13-.18-.39-.18-.45,0-.87.47-1.31.97-.59.67-1.27,1.43-2.3,1.43-1.15,0-1.92-.71-1.92-1.77,0-.61.31-.7.49-.7.15,0,.3.06.46.12l.13.05c.45.15,1.08.11,1.46-.21.93-.75,2.33-1.65,3.74-1.65,1.31,0,2.54,1.02,2.54,1.82,0,.64-.56,1.12-1.12,1.55-1.48,1.11-3.62,3.83-4.67,5.25,1.07-.5,2.25-.77,3.41-.77,4.13,0,5.67,3.14,5.67,5.12Zm-10.35,3.2c0,.68,1.11,1.2,2.24,1.34.07-.19.1-.38.1-.61,0-.82-.63-1.48-1.41-1.48-.82,0-.94.47-.94.76Zm24.99-10.3c0,.24.15.39.39.39.21,0,.45-.12.82-.4,2.04-1.58,3.99-2,4.52-2.02,1.02-.04,1.39-.52,1.39-.96,0-.69-.95-1.45-2.31-1.45-.22,0-.42.02-.61.04-.18.02-.36.04-.56.04h-.08c-.8.03-1.58.05-2.36.05-1.03,0-2.22-.05-3.32-.45l-.21-.07c-.27-.09-.49-.17-.68-.17-.28,0-.41.19-.41.36,0,.29,1.07,2.06,3.88,2.31.2.01.4.02.59.03.19,0,.38.01.59.03h0c-.26.38-.92,1.18-1.32,1.64-.21.24-.33.48-.33.65Zm6.86-6.16c-1.3,0-1.3.33-1.3.47,0,.22.21.34.54.51.48.27,1.4.85,2.16,1.75h0c.29.33.6.49.91.49.57,0,1.04-.52,1.04-1.17,0-1.02-1.15-2.05-3.35-2.05Zm.52,15.65c-.19,0-.41.03-.65.06-.33.06-.62.17-.97.3-.39.15-.84.32-1.46.45-.67.15-1.41.23-2.15.23-3.06,0-5.64-1.23-5.64-2.68,0-.33.13-.69.37-1.04.13-.2.23-.48.23-.68,0-.34-.21-.47-.39-.47-.45,0-1.64,1.35-1.64,2.78,0,2.49,3.4,4.44,7.75,4.44,3.4,0,6.16-1.04,6.16-2.31,0-.65-.65-1.09-1.61-1.09Zm2.31-16.85c-1.48,0-1.48.34-1.48.49,0,.22.18.31.42.41l.15.07c.79.41,1.59,1.02,2.21,1.68h0c.35.35.67.43.88.43.58,0,1.04-.49,1.04-1.12,0-1.36-1.67-1.97-3.22-1.97Zm20.98,18.15c-.34,0-.69.13-.93.24-.97.48-2.17.75-3.38.75-2.31,0-3.8-1.06-3.8-2.71,0-2.24,3.24-4.14,5.28-4.14h.26s.09,0,.14.01c.07,0,.14.01.2.01.94,0,2.34-.42,2.34-1.58,0-.5-.37-1.09-1.4-1.09-.49,0-1.07.1-2.28.61-1-.31-1.47-1.11-1.47-2.51,0-1.1.28-2.34.53-3.44.06-.26.12-.51.17-.75.03-.14.07-.29.11-.46.1-.35.2-.74.2-1.18,0-1.85-1.89-2.81-2.7-2.81s-1.35.53-1.35,1.01c0,.13.06.44.59.56.9.18,1.12.43,1.12,1.28,0,.38-.05.82-.12,1.33l-.04.3c-.03.27-.07.56-.12.86-.13.92-.28,1.95-.28,2.95,0,1.77.48,2.97,1.46,3.65-2.61,1.33-4.32,3.55-4.32,5.66,0,1.9,1.65,4.73,6.19,4.73,1.61,0,4.94-.52,4.94-2.13,0-.65-.59-1.17-1.35-1.17Zm23.97-12.77c-.33,0-.55.14-.75.26-.19.12-.4.25-.79.29-1.26.11-2.4.25-3.54.38-1.19.14-2.42.28-3.8.4-.62.05-2.35.1-2.72-.05-.33-.16-.55-.24-.73-.24-.25,0-.41.17-.41.41,0,1.17,1.99,2.18,2.96,2.18.41,0,.89-.1,1.53-.27,2.6-.75,5.92-1.21,7.49-1.21.13,0,.24,0,.24.37,0,.21-.3,2.26-.95,6.29-7.94.76-8.08.76-8.65.76-.76,0-1.33-.07-1.58-.2l-.09-.05c-.29-.16-.54-.3-.77-.3-.13,0-.44.06-.44.57,0,1.22,2.17,2.23,3.27,2.23.51,0,.99-.12,1.59-.27l.09-.02c1.89-.46,4.38-.75,6.49-.75,1.07,0,1.87.06,2.44.18.15.03.27.03.39.03.61,0,1.04-.34,1.04-.83,0-.32-.34-1.14-1.83-1.38l.32-1.31c.34-1.41.74-3.02,1.03-4.17.08-.28.18-.46.3-.53.66-.35.8-.74.8-1,0-.91-2.28-1.77-2.93-1.77Zm15.43,3.25c.48.45.91.54,1.18.54.84,0,1.22-.69,1.22-1.38,0-1.2-1.35-2.6-5.17-2.6-2.03,0-2.03.33-2.03.49,0,.27.28.39.52.47,1.47.56,2.9,1.17,4.27,2.46h0Zm14.72-4.7h-.12c-.15,0-.3.09-.74.59-3.11,3.62-11.99,11.84-14.97,11.84-.44,0-.79-.15-1.1-.52-.2-.22-.34-.39-.56-.39-.56,0-.57,1.04-.57,1.09,0,1.5,2.55,2.73,3.38,2.73.57,0,.86-.33,1.13-.65.16-.19.33-.38.58-.54,9.11-5.86,13.16-13.19,13.16-13.84l-.03-.14-.16-.17Zm18.37-.6c-.38,0-.66.2-.91.37-.21.15-.41.29-.67.33-.39.05-1.11.16-1.93.28-1.51.22-3.38.49-4.08.58-.58.05-1.17.1-1.73.1-1.36,0-1.88-.24-1.97-.39-.16-.24-.43-.39-.7-.39-.33,0-.73.22-.73.86,0,1.01,2.53,2.36,3.69,2.36.52,0,.98-.16,1.63-.38.24-.08.5-.17.8-.26,1.11-.35,4.51-1.31,5.71-1.31.11,0,.47.02.47.32-.09.51-4.84,9.96-12.03,13.21-.72.34-.86.54-.86.75,0,.03.01.34.44.34.2,0,.45-.05.76-.14,5.48-1.65,9.85-5.66,13.76-12.61.38-.66.64-.84,1.06-1.13.29-.2.67-.53.67-.96,0-1.04-2.74-1.92-3.38-1.92Zm20.31,3.2c-.83,0-1.17.56-1.17.86,0,.13.06.46.59.61.34.1.34.17.34.22,0,1-4.05,6.29-7.62,8.2-.25.13-.68.38-.68.7,0,.09.03.39.47.39.92,0,4.01-1.5,6.88-4.39,0,.11,0,.22,0,.31,0,.99,0,2.23-.08,3.39-.01.25-.06.42-.12.61-.04.14-.08.29-.12.48-.05.33-.08.63-.08.9,0,1.24.48,2.1,1.17,2.1.4,0,1.06-.26,1.06-2.03v-.29c-.02-.24-.05-1.57-.05-2.94,0-1.91.08-2.37.13-2.47.07-.14.11-.31.11-.49,0-.41-.23-.86-.58-1.17.46-.58.85-1.16,1.18-1.67.08-.13.21-.26.35-.41.29-.3.63-.65.63-1.1,0-.86-1.45-1.82-2.44-1.82Z"/></g></svg>