<?xml version="1.0" encoding="UTF-8"?><svg id="Layer_2" xmlns="http://www.w3.org/2000/svg" viewBox="0 0 794.12 28.65"><defs><style>.cls-1{fill:#231f20;}</style></defs><g id="text"><g><path class="cls-1" d="m23.91,22.98c-.73,0-2.05,2.15-2.06,2.17-.04.07-.16.14-.27.14h-6.67c-.02-1.49-.05-4.16-.06-7.18h7.49c.66,0,.89-.35.89-.68,0-.74-2.34-2.77-2.99-2.77-.36,0-.48.15-1.89,1.96-.05.06-.15.17-.23.17h-3.27v-5.93h9.52c.85,0,.92-.52.92-.68,0-.77-2.27-2.92-3.08-2.92-.4,0-.74.4-2,2.14-.04.07-.14.14-.21.14h-5.15c0-1.79.05-3.3.08-4.33v-.33c.05-.92.09-.94.33-1.05.12-.06.26-.12.42-.23.39-.23.62-.56.62-.88,0-1.15-3.98-1.44-4.02-1.44-.24,0-.34.18-.34.34,0,.04,0,.14.04.24.37,1.9.41,6.27.42,7.68h-4.76c.45-.8.86-1.63,1.26-2.52.27-.63.31-.68.61-.74.34-.07,1.23-.25,1.23-.89,0-1.1-3.62-1.95-3.65-1.95-.11,0-.38.04-.38.44,0,3.05-3.74,10.49-6.18,13.05-.38.42-.53.6-.53.8l.03.28h.28c.38,0,3.37-1.95,6.54-7.14h5.54c0,.83,0,1.73.01,2.67,0,1.05.02,2.15.02,3.26h-.35c-1.64,0-5.08-.13-7.83-.48l-.32-.04v.32c0,.5.93,1.86,1.71,1.86h0c2.47-.27,4.78-.33,6.28-.33h.51c0,2.19-.04,4.35-.07,6.1l-.02,1.07h-1.54c-1.65,0-7.16-.11-10.32-.48l-.32-.04v.32c0,.51.95,1.86,1.77,1.86h0c2.6-.26,6.84-.33,8.72-.33h15.52c.88,0,.95-.5.95-.65,0-.73-2.25-2.99-3.2-2.99Z"/><path class="cls-1" d="m55.48,23.56c-.28,0-.68.27-1.71,1.61l-.08.11c-.04.07-.16.14-.24.14h-5.25c-.03-.98-.05-2.08-.05-3.2h5.97c.66,0,.89-.35.89-.68,0-.96-2.33-2.29-2.74-2.29-.39,0-.69.35-1.59,1.47-.05.06-.15.17-.23.17h-2.3c0-.49,0-.98.02-1.47,0-.45.01-.9.01-1.34h6.91c.85,0,.92-.52.92-.68,0-.87-2.22-2.41-2.8-2.41-.28,0-.68.19-1.73,1.62-.04.07-.16.14-.24.14h-3.05c0-.15,0-.3.01-.45,0-.23.01-.45.01-.65.02-.83.04-.84.26-.94.11-.05.24-.12.4-.22.37-.25.55-.5.55-.78,0-.95-3.44-1.29-3.47-1.29-.3,0-.44.19-.44.37l.02.13.02.05c.2.85.33,2.28.33,3.64v.14h-3.32c.04-.07.08-.14.12-.2.05-.09.1-.17.15-.25.17-.3.22-.33.57-.38.63-.14.95-.38.95-.73,0-.81-2.91-1.89-3.08-1.89-.38,0-.38.37-.38.62,0,1.93-2.32,5.7-3.37,7.11-.14.17-.36.5-.36.75,0,.17.11.34.34.34.31,0,1-.54,1.77-1.3.13.6,1.05,1.73,1.72,1.73h0c2.26-.26,3.3-.33,4.83-.33h.08c0,1.08,0,2.16-.02,3.2h-1.97c-1.7,0-5.31-.1-8.07-.48l-.32-.04v.33c0,.54,1.03,1.86,1.77,1.86h0c2.63-.29,5.18-.33,6.47-.33h13.78c.8,0,.92-.42.92-.68,0-.97-2.55-2.5-2.99-2.5Zm-13.85-5.48h4.25c0,.41,0,.85.01,1.29,0,.49.01,1,.02,1.51-1.99,0-4.09-.16-6.24-.47.68-.71,1.39-1.55,1.96-2.33Z"/><path class="cls-1" d="m37.49,12.36s.09-.05.15-.08l.08-.04c.08-.03.16-.07.22-.11h19.42c.88,0,.95-.5.95-.65,0-.87-2.33-2.77-3.17-2.77-.51,0-1.67,1.46-1.97,1.96-.04.07-.16.14-.27.14h-5.06c.82-.85,1.7-1.83,2.13-2.33.22-.25.25-.28.58-.32.32-.05,1.18-.19,1.18-.77,0-.96-3.59-1.98-3.62-1.98-.38,0-.38.35-.38.59,0,.89-.11,2.07-1.41,4.82h-8.22c-.9-.45-2.86-1.21-3.35-1.21-.17,0-.34.11-.34.34,0,.04,0,.16.05.25.08.21.5,2.11.5,5.4,0,5.35-1.25,9.15-3.73,11.3-.55.51-.67.63-.67.82s.16.34.34.34c.09,0,.26,0,1.16-.56,5.41-3.51,5.41-10.59,5.41-14.39,0-.38,0-.68.03-.74Z"/><path class="cls-1" d="m39.27,5.89l-.34.03v.28c0,.13.06.2.22.37l.17.19c.79.79,1.76,2.03,2.03,2.75h0c.43,1.11,1.09,1.28,1.45,1.28.7,0,1.26-.64,1.26-1.47,0-2.19-3.75-3.44-4.78-3.44Z"/><path class="cls-1" d="m36.08,5.73h0c3.09-.31,6.59-.33,7.59-.33h11.42c.83,0,.92-.45.92-.65,0-.69-2.14-2.68-3.08-2.68-.49,0-1.59,1.39-1.88,1.87-.04.07-.16.14-.24.14h-4.44l.02-.59c.02-.62.02-.62.26-.73.12-.06.27-.13.46-.25.4-.24.62-.53.62-.82,0-1.12-3.74-1.38-3.78-1.38l-.34.03v.28c0,.06.02.11.03.16,0,.03.02.07.04.12.22.85.26,1.97.29,3.17h-.14c-1.97,0-6.11-.1-9.13-.48l-.32-.04v.32c0,.53.9,1.86,1.71,1.86Z"/><path class="cls-1" d="m87.43,8.5c-.12-.06-.23-.06-.31-.06-.17,0-.67,0-2,2.08-.04.06-.16.14-.27.14h-3.37c1.82-1.8,3.64-3.84,5.42-6.07.49-.62.53-.63.87-.69.09-.02.19-.03.29-.06.31-.06,1.14-.21,1.14-.79,0-.95-3.18-2.41-3.38-2.41-.24,0-.33.25-.37.37-.23.91-.6,1.73-1.14,2.52-1.69,2.46-3.66,4.8-6.02,7.13h-1.73v-3.75h4.42c.83,0,.92-.43.92-.62,0-.72-1.61-2.06-2.53-2.41-.12-.06-.23-.06-.31-.06-.57,0-1.56,1.58-1.61,1.66-.03.05-.13.1-.15.11h-.75c0-2.48.09-2.53.58-2.84.51-.28.79-.6.79-.92,0-1.06-3.68-1.44-3.71-1.44-.19,0-.34.16-.34.37,0,.04,0,.14.04.25.25,1.09.29,2.78.31,3.79v.79s-.16,0-.16,0c-1.06,0-3.88-.04-7.22-.45l-.32-.04v.32c0,.5.88,1.8,1.65,1.8h0c2.64-.28,4.38-.3,5.8-.3h.26v3.75h-.11c-1.79,0-6.76-.12-9.87-.48l-.32-.04v.32c0,.51.93,1.86,1.74,1.86h0c2.59-.26,6.43-.33,8.29-.33h2.93c-.97.89-2.05,1.79-3.33,2.79-.78-.36-1.39-.59-1.57-.59-.17,0-.34.13-.34.4l.03.19c.05.35.11.8.16,1.28-3.05,2.18-6.19,3.91-9.09,5-.42.16-.91.42-.91.75,0,.17.14.34.44.34.86,0,5.09-1.24,9.73-4.01,0,.24,0,.42,0,.51v.44c-.04,1.83-.12,5.65-.4,8.27v.09c0,.61.44,1.01,1.1,1.01.72,0,1.5-.48,1.5-1.19v-.9h8.48v.75c0,.66.47,1.1,1.16,1.1s1.44-.48,1.44-1.26v-.08c-.12-1.74-.24-5.22-.24-7.42,0-1.71.02-1.72.43-1.94l.08-.04c.35-.19.79-.43.79-.9,0-.9-2.28-2.04-2.65-2.04-.33,0-.46.1-1.19.93-.04.05-.08.08-.2.08h-6.49c1.56-1.17,2.96-2.34,4.26-3.56h9.27c.88,0,.95-.5.95-.65,0-.78-1.98-2.5-2.89-2.83Zm-4.66,12.9c0,1.23,0,2.49-.02,3.65h-8.52c0-1.23,0-2.49.02-3.65h8.52Zm-8.47-1.33c0-.32.01-.63.02-.92,0-.45.02-.85.03-1.18.05-.77.07-.79.32-.93l.16-.1s.07-.04.1-.07h7.67c.08,0,.11.04.11.07.06.67.06,1.8.06,3.12h-8.47Z"/><path class="cls-1" d="m109.83,4.8c-8.17,0-12.52,7.09-12.52,12.22,0,1.21.27,2.23.78,2.92.35.5.64,1.02.92,1.52.73,1.3,1.36,2.43,2.59,2.43,2.87,0,8.21-7.04,8.21-13.7,0-1.69-.3-3.03-.85-3.8.16,0,.32-.01.48-.01,5.9,0,8.58,4.31,8.58,8.31,0,1.94-.72,8.44-9.93,10.93-1.57.44-1.57.74-1.57.91,0,.15.09.41.71.41,2.94,0,13.34-2.9,13.34-12.12,0-4.82-3.36-10-10.73-10Zm-7.92,15.94c-1.21,0-2.51-1.78-2.51-4.42,0-3.62,2.58-8.2,7.38-9.58.07,0,.18,0,.27-.04.09-.02.15-.02.24-.02.25,0,.9,0,.9,2.42,0,5.43-4.45,11.65-6.27,11.65Z"/><path class="cls-1" d="m134.4,17.67c-.08-1.76-.12-4.48-.15-7.15.83.55,1.82,1.39,2.4,2.23.43.6.9.91,1.38.91.65,0,1.13-.58,1.13-1.35,0-2.26-3.35-2.69-4.92-2.84v-1.74h4.48c.8,0,.86-.47.86-.62,0-.78-1.91-2.47-2.59-2.47-.25,0-.61.19-1.48,1.59l-.04.06c-.03.06-.11.1-.12.11h-1.11c0-1.01.04-1.87.09-2.43q.04-.65.31-.76c.1-.04.21-.09.35-.16.43-.21.67-.52.67-.83,0-.19-.1-.55-.78-.76-.97-.28-2.24-.62-2.72-.62-.36,0-.37.29-.37.34,0,.04,0,.14.04.26.22.77.31,3.53.32,4.94-1.78-.04-4.13-.15-5.8-.42l-.33-.05v.33c0,.46.94,1.74,1.56,1.74h0c1.34-.18,3.08-.26,4.4-.27-1.04,2.33-4.89,6.6-6.77,7.7-.39.24-.59.4-.59.64,0,.17.14.34.44.34.94,0,4.49-1.95,7.05-5.09-.04,2.45-.12,4.86-.23,6.44v.12c0,.67.42,1.1,1.07,1.1.42,0,.84-.17,1.11-.46.23-.24.34-.54.33-.87Z"/><path class="cls-1" d="m131.24,20.37c-.21,0-.31.17-.37.29l-.07.13c-.73,1.69-1.72,2.66-3.23,3.15-1.18.37-1.6,1.19-1.6,1.79,0,.79.58,1.35,1.41,1.35,2.08,0,4.2-2.95,4.2-5.84v-.24c0-.17,0-.62-.34-.62Z"/><path class="cls-1" d="m146.36,20.59c-.3,0-.44.18-.44.34,0,.22.18.35.3.44,1.12.84,2.52,2.02,3.47,3.76.55,1.06,1.21,1.21,1.56,1.21.74,0,1.35-.71,1.35-1.59,0-2.78-5.54-4.17-6.23-4.17Z"/><path class="cls-1" d="m146.05,24.21c-.26-.16-.5-1.25-.61-1.78-.16-.75-.22-1-.51-1-.22,0-.35.2-.4.57-.6,3.2-1.08,3.56-4.67,3.56-3.79,0-3.79-.3-3.79-.9,0-2.72.07-2.76.54-3,.27-.14.73-.42.73-.8,0-1.05-3.26-1.19-3.29-1.19-.37,0-.41.24-.41.34,0,.04,0,.17.03.26.14.82.15,1.78.15,2.05,0,.4-.04,1.19-.08,1.9-.02.36-.04.69-.05.96v.12c0,1.73,1.69,2.5,5.48,2.5.98,0,2.18-.06,3.23-.12h0c3.04-.2,4.42-1.33,4.42-2.29,0-.45-.29-.87-.8-1.18Z"/><path class="cls-1" d="m139.93,2.3l-.26.17c.11.54.36,2.13.36,5.23,0,1.96-.02,6.85-.21,9.99v.09c0,.65.41,1.07,1.04,1.07.69,0,1.44-.5,1.44-1.25v-.93h5.84v.78c0,.8.56,1.16,1.07,1.16.68,0,1.41-.53,1.41-1.38v-.08c-.13-2.4-.24-7.19-.24-9.85q0-2.05.49-2.32c.33-.2.79-.47.79-.93,0-1.02-2.48-1.92-2.59-1.92-.4,0-.83.5-1.12.93-.01.02-.04.07-.15.07h-4.94c-.48-.32-2.54-1.24-2.87-1.24-.24,0-.34.18-.34.34,0,.07.01.12.02.15l.27-.08Zm2.34,4.9c0-.44.01-.84.02-1.18,0-.29.01-.53.01-.72,0-.32.01-.5.04-.55.01-.01.05-.03.09-.05l.17-.1s.09-.05.13-.08h5.37s.05.05.05.07c.01.25.06,1.16.06,2.62h-5.93Zm0,3.76v-2.41h5.93v2.41h-5.93Zm5.93,1.36c0,.52,0,1.04-.02,1.56,0,.49-.01.96-.01,1.43h-5.9v-2.99h5.93Z"/><path class="cls-1" d="m137.46,18.55c-.35,0-.4.2-.4.31,0,.15.09.23.29.4l.15.12c.75.61,1.76,1.67,2.14,2.43.32.64.81,1.01,1.35,1.01.71,0,1.29-.67,1.29-1.5,0-2.65-4.76-2.77-4.81-2.77Z"/><path class="cls-1" d="m173.87,9.84c-.38,0-.89,0-.89.41,0,.16,0,.45,1.52.82,2.41.59,4.32,2.98,4.55,5.7.08,1.04.71,1.51,1.31,1.51.74,0,1.5-.66,1.5-1.92,0-3.01-3.49-6.51-8-6.51Z"/><path class="cls-1" d="m169.34,15.64c-.18,0-.33.07-.83,1.07-.18.37-.37.81-.57,1.27-.42.94-.89,2-1.29,2.69-.18.29-.42.44-.73.44-.03,0-3.27-.52-3.27-5.79,0-.88.09-1.76.27-2.62.02-.12.05-.25.08-.39.1-.5.23-1.12.23-1.78,0-2.68-2.32-3.28-2.41-3.29-.24,0-.5.17-.5.56,0,.1.02.21.05.33l.02.1c.14.6.21,1.34.21,2.21,0,.48-.03,1.02-.06,1.54v.12c-.03.66-.06,1.29-.06,1.9,0,4.37,1.09,7.15,3.66,9.27.89.73,2.07,1.19,3.06,1.19,1.11,0,1.8-.61,1.8-1.59v-.21c-.03-.37-.06-.72-.06-1.22,0-1.11.2-2.59.57-4.27.13-.5.19-.88.19-1.1s-.15-.4-.34-.4Z"/><path class="cls-1" d="m207.48,8.62c-2.99,0-5.36,2.93-6.72,5.91-.58-1.6-1.76-2.6-3.15-2.6-.37,0-.74.06-1.11.18.54-.95,1.13-2.08,2.03-4.02l.07-.14c2.47-.93,3.72-1.97,3.72-3.11,0-.6-.39-1.04-.92-1.04-.15,0-.34.05-.45.11-.06.02-.37.08-.79.08-.2,0-.4,0-.61-.02-.07-.01-.13-.02-.18-.03-.32-1.41-1.58-1.53-1.97-1.53-.46,0-1.56.35-1.56.89,0,.34.35.46.56.52l.08.02c.73.17,1,.6,1,1.61,0,.23,0,.46-.05.75-1.19.37-2.23.39-2.43.39-.91,0-1.68-.25-2.48-.8-.53-.36-.7-.44-.86-.44-.21,0-.38.18-.38.4,0,.59.72,2.96,4.02,2.96.45,0,.89-.05,1.36-.16-1.25,2.79-2.18,4.43-4.93,6.99-.8.74-1.28,1.62-1.28,2.36,0,.94.66,1.29,1.07,1.29.95,0,1.81-1.4,2.38-2.46.1-.18.19-.36.28-.54.13-.26.26-.51.37-.71,1.03-1.47,2.05-2.28,2.87-2.28,1.41,0,1.73,2.18,1.75,4.08-3.03,1.81-4.77,3.97-4.77,5.93,0,2.16,2.47,4.47,6.14,4.47,2.41,0,5.02-.88,5.02-2.29,0-.66-.59-1.16-1.38-1.16-.36,0-.7.09-1.04.28-.98.52-2.24.82-3.45.82-2.67,0-3.63-1.45-3.63-2.42,0-1.23,1.09-2.61,3.08-3.9h0c-.02.61-.12.92-.23,1.23-.08.24-.17.5-.2.88,0,.07,0,.13-.01.19,0,.07-.02.14-.02.21,0,1.32.69,1.47.98,1.47.69,0,1.54-.89,1.65-2.09.03-.46.06-.95.06-1.42,0-.58-.02-1.13-.07-1.68,1.94-.95,4.38-1.92,6.36-2.71l.28-.11c2.2-.88,3.52-2.16,3.52-3.42,0-1.58-2.19-2.92-3.99-2.92Zm1.33,2.74c0,.6-.66,1.27-1.97,1.97-.89.47-1.96,1-3.03,1.53-.84.42-1.68.83-2.43,1.22.94-2.33,3.34-6.04,5.81-6.04,1.47,0,1.63,1.32,1.63,1.33Zm-9.42-5.97c.03-.21.05-.41.05-.6.13.04.33.13.42.2-.05.09-.21.24-.47.4Z"/><path class="cls-1" d="m231.13,4.8c-8.17,0-12.52,7.09-12.52,12.22,0,1.21.27,2.23.78,2.92.35.5.64,1.02.92,1.52.73,1.3,1.36,2.43,2.59,2.43,2.87,0,8.21-7.04,8.21-13.7,0-1.69-.3-3.03-.85-3.8.16,0,.32-.01.48-.01,5.9,0,8.58,4.31,8.58,8.31,0,1.94-.72,8.44-9.93,10.93-1.57.44-1.57.74-1.57.91,0,.15.09.41.71.41,2.94,0,13.34-2.9,13.34-12.12,0-4.82-3.36-10-10.73-10Zm-7.92,15.94c-1.21,0-2.51-1.78-2.51-4.42,0-3.62,2.58-8.2,7.38-9.58.07,0,.18,0,.27-.04.09-.02.15-.02.24-.02.25,0,.9,0,.9,2.42,0,5.43-4.45,11.65-6.27,11.65Z"/><path class="cls-1" d="m271.73,10.76c-1.32-.46-2.48-1.07-3.43-1.8-.22-.18-.43-.28-.61-.28-.24,0-.44.18-.44.4,0,.35.99,1.38,1.42,1.81.02.02.03.04.04.04-.02.01-.07.04-.16.05-.55.09-1.25.23-2.02.39l-.43.09c.03-.58.05-1.08.08-1.46.04-1.22.14-2.02.22-2.6.05-.36.08-.62.08-.84,0-1.06-1.06-1.71-2.04-1.71-.81,0-1.5.44-1.5.95,0,.11.05.39.51.57.35.14.73,1.58.73,4.41,0,.35,0,.72-.02,1.07-2.25.46-3.93.96-6.73,1.82,0-.84,0-1.63.03-2.35v-.24c0-2.62-1.55-3.32-2.47-3.32-.74,0-1.5.31-1.5.83,0,.31.25.58.57.92.37.39.82.87.95,1.5.14.74.25,1.84.37,3.27-1.23.39-2.37.79-3.63,1.24-.71.27-1.49.53-2.36.53-.73,0-.88-.02-1.8-.73-.05-.04-.33-.24-.59-.24-.32,0-.65.26-.65.83,0,2.22,3.18,2.68,3.81,2.68.9,0,1.58-.36,2.22-.76.38-.22,1.49-.87,3.14-1.62.14,1.83.29,3.7.46,4.84.44,2.98,2.81,4.61,6.66,4.61.06,0,5.81-.02,5.81-1.98,0-.69-.74-1.23-1.68-1.23-.36,0-.78.09-1.22.26-.65.25-2.16.62-3.63.62-2.37,0-3.72-.88-4-2.62-.22-1.32-.38-3.25-.45-5.32,1.33-.52,3.77-1.39,6.55-1.93-.48,3.62-1.33,3.62-1.7,3.62-.58,0-1.4-.39-2.31-1.09-.22-.19-.5-.31-.7-.31-.28,0-.41.19-.41.37,0,.2.14.42.45.69.61.58,1.52,1.77,1.55,2.67.04.62.48,1.02,1.13,1.02.92,0,2.21-.82,3.05-2.66h0c.45-1,.75-2.52.92-4.63,2.36-.25,4.29-.12,5.91.38,1.72.53,2.55-.18,2.55-.85,0-.79-.64-1.25-2.74-1.94Z"/><path class="cls-1" d="m297.93,8.23c-1.65,0-2.86.81-2.86,1.22,0,.04.01.37.47.37.17,0,.41-.05.79-.14.05-.02.16-.02.24-.02.65,0,2.18.31,2.18.9,0,.28-.27.64-.38.78-.31.46-.52.69-.78.98-.19.21-.4.45-.67.79-.14.14-.21.29-.21.47s.13.38.41.38c.19,0,.37-.08.57-.25,1.83-1.48,2.6-1.74,4.31-2.1.64-.12,1.05-.52,1.05-1.01,0-.95-2.29-2.41-5.11-2.41Z"/><path class="cls-1" d="m292.69,6.6c0-.59-.44-1.02-1.13-1.1-.43-.05-.71-.1-1.75-.39-.24-1.92-1.57-2.43-2.27-2.43-.85,0-1.65.67-1.65,1.07,0,.37.38.62,1,.68.53.07.64,1.01.64,1.78,0,.49-.04,1.07-.12,1.65-1.17.24-2.01.26-2.18.26-1.02,0-2.08-.32-3.17-.96l-.15-.09c-.21-.13-.4-.25-.59-.25s-.41.16-.41.47c0,.6.79,3.05,4.41,3.05.6,0,1.16-.08,1.6-.17-.71,2.29-3.87,10.85-4.88,12.59-.43.73-.65,1.43-.65,2.06,0,1.09.62,1.68,1.19,1.68.84,0,1.73-1.18,2.07-2.74,1.17-5.08,2.85-10.03,4.18-13.79.03-.09.06-.17.09-.26l.04-.13c1.21-.44,3.71-1.52,3.71-2.95Zm-2.99.34c.06-.31.1-.61.12-.9.42.23.45.37.45.37-.02.07-.18.27-.57.53Z"/><path class="cls-1" d="m299.57,23.53c-.51,0-.91.05-1.26.09-.26.03-.49.06-.72.06-2.72,0-4.76-1.23-4.76-2.33,0-.14.04-.28.13-.47.07-.17.14-.35.14-.56,0-.36-.23-.53-.44-.53-.55,0-1.22,1.16-1.22,2.11,0,2.35,3.47,4.41,7.42,4.41,2.97,0,3.2-1.12,3.2-1.47,0-.65-.75-1.32-2.5-1.32Z"/><path class="cls-1" d="m308.19,22.35c-.45,0-.5.24-.5.34,0,.21.17.33.45.54.08.06.17.13.28.21,1.22.86,2.73,2.06,3.59,3.72h0c.35.68.89,1.06,1.47,1.06.85,0,1.56-.8,1.56-1.74,0-2.86-5.44-4.14-6.84-4.14Z"/><path class="cls-1" d="m356.44,8.53c-.48,0-.93.61-1.91,2.02-.03.06-.18.14-.27.14h-7.23c-.02-.52-.04-1.27-.05-2.11h6.94c.66,0,.89-.35.89-.68,0-1.01-2.29-2.32-2.77-2.32-.4,0-.73.29-1.68,1.5-.05.06-.15.17-.23.17h-3.15c0-.36,0-.73.01-1.08,0-.31.01-.62.01-.9h8.89c.85,0,.92-.52.92-.68,0-.68-2.05-2.59-2.99-2.59-.37,0-.71.27-1.85,1.81-.04.07-.16.14-.24.14h-4.7v-.23c.02-.93.07-.95.33-1.08.12-.06.26-.13.41-.23.39-.23.62-.56.62-.88,0-1.13-3.74-1.44-3.78-1.44-.22,0-.34.13-.34.34,0,.04,0,.14.04.25.22.94.34,2.01.36,3.26h-1.42c-1.82,0-5.64-.1-8.46-.48l-.32-.04v.32c0,.5.93,1.86,1.71,1.86h0c2.88-.31,6.05-.33,6.95-.33h1.54v.17c.01.34.03,1.02.03,1.82h-.11c-1.05,0-4.73-.03-7.8-.42l-.32-.04v.32c0,.52,1.01,1.74,1.77,1.74h0c2.47-.24,4.61-.27,6.2-.27h.26c0,.78-.03,1.53-.05,2.11h-1.73c-1.71,0-7.25-.09-10.26-.48l-.32-.04v.32c0,.55,1.07,1.86,1.86,1.86h0c2.54-.26,6.71-.33,8.56-.33h15.88c.8,0,.92-.42.92-.68,0-.85-2.34-2.8-3.14-2.8Z"/><path class="cls-1" d="m351.64,12.78c-.44,0-.83.49-1.08.87l-.04.06c-.04.06-.12.1-.18.1h-8.49c-.83-.45-2.66-1.09-2.84-1.09l-.31.03v.28s0,.14.04.25c.26.97.38,3.24.39,3.67.03.72.03,1.61.03,2.54,0,2.55-.08,5.33-.21,7.85v.08c0,.61.47,1.01,1.16,1.01.74,0,1.5-.48,1.5-1.32l-.03-1.18c-.03-1.22-.06-2.6-.06-3.93h9.21c0,1,0,1.85-.03,2.31-.04.77-.4,1.28-2.02,1.28-.91,0-2.12-.17-3.67-.41-.13-.05-.26-.05-.3-.05-.17,0-.27.09-.29.11l-.08.08v.12c0,.27.21.39,1.66,1.08.84.4,2.11,1.01,2.3,1.26.19.28.33.49.75.49,1.08,0,4.17-.69,4.17-3.78,0-.28-.03-.81-.06-1.34-.03-.5-.06-.99-.06-1.24,0-.35,0-.76-.01-1.21,0-.53-.02-1.1-.02-1.68,0-1.31.05-2.48.06-2.81,0-.16.02-.22.02-.22.02,0,.06-.02.09-.04.1-.04.26-.09.46-.23l.11-.07c.28-.18.66-.42.66-.87,0-1.08-2.6-2.04-2.8-2.04Zm-.92,5.88v1.95h-9.21v-1.95h9.21Zm-8.88-3.42h8.74c.07-.01.1,0,.11.04,0,.24,0,.52.01.84,0,.34.01.73.02,1.15h-9.21c0-.26.01-.49.02-.69,0-.19.01-.35.01-.47v-.15q.02-.52.3-.72Z"/><path class="cls-1" d="m390.43,13.2l-.11-.03s-.12-.03-.18-.03c-.42,0-.73.39-1.58,1.75-.02.03-.1.07-.12.08h-.67c.05-1.03.08-2.08.1-3.09v-.18c0-.45,0-.45.25-.57.46-.25.94-.56.94-1.04,0-.66-1.86-1.83-2.35-1.83-.16,0-.25.04-.93.78-.03.03-.05.05-.07.08-.06.07-.07.08-.21.08h-5.52s-.08-.03-.12-.04c-.32-.12-.79-.35-1.2-.56-.4-.2-.75-.37-.97-.45-.16-.05-.23-.08-.3-.08-.37,0-.37.44-.37.59v.18c0,.45-.23,4.23-.45,6.08-1.6-.06-3.38-.16-4.72-.35l-.32-.05v.33c0,.5.92,1.68,1.62,1.68h0c1.06-.11,2.2-.2,3.23-.23-.36,2.75-.89,5.4-1.62,8.06-.04.13-.04.26-.04.36,0,.52.36.86.92.86.69,0,1.53-.48,1.65-1.18.03-.2.07-.41.12-.62.05-.27.1-.54.15-.81h7.13c-.62,2.01-1.49,2.29-2.27,2.29-.49,0-1.02-.12-1.58-.25-.33-.07-.67-.15-1.02-.21l-.23-.03c-.28,0-.4.18-.4.34,0,.23.19.39.87.9.63.47,1.58,1.18,1.73,1.68.09.27.33.44.63.44.15,0,3.66-.06,4.73-5.16h4.47c.68,0,.86-.39.86-.62,0-.86-1.84-2.25-2.33-2.45l-.08-.02s-.11-.03-.21-.03c-.42,0-.61.28-1.55,1.75-.02.04-.13.1-.15.1h-.82c.21-1.6.32-3.71.4-5.44h4.16c.78,0,.86-.47.86-.68,0-.72-1.43-2.02-2.3-2.39Zm-9.56,3.06c-.19,1.9-.45,3.97-.69,5.44h-2.43c.29-1.79.54-3.7.76-5.41v-.04h2.36Zm4.63,0c-.13,2.96-.4,4.81-.51,5.44h-2.6c.22-1.64.42-3.43.6-5.44h2.51Zm-6.41-4.56l.02-.13q.11-.84.49-.98l.13-.05s.04-.01.07-.02h1.47v.17c0,.78-.13,3.12-.24,4.27h-2.31c.17-1.35.3-2.51.39-3.26Zm4.3.07q.05-.53.31-.66l.09-.05c.35-.18.45-.39.46-.55h1.27c.17,0,.17.03.17.19l-.02.7c-.02,1-.06,2.23-.12,3.54h-2.46c.04-.44.08-.88.12-1.31.05-.54.11-1.08.15-1.63l.02-.25Z"/><path class="cls-1" d="m371.23,12.13c.46.41.92.99,1.39,1.72.48.75.98.86,1.24.86.64,0,1.13-.58,1.13-1.32,0-1.73-2.15-2.42-3.77-2.49v-1.44h3.32c-.19.33-.36.6-.49.79-.4.53-.48.72-.48.87,0,.19.16.34.34.34.61,0,2.32-1.81,4.32-5.16h11.74c.86,0,.95-.47.95-.68,0-.76-2.07-2.53-2.96-2.53-.53,0-.83.44-1.76,1.75-.02.04-.14.1-.18.11h-7.01c.33-.59.61-1.13.85-1.58l.1-.19c.04-.07.07-.14.1-.19.09-.19.09-.2.32-.24.69-.15,1.05-.4,1.05-.76,0-.83-3.01-1.68-3.26-1.68-.23,0-.34.2-.34.59,0,1.74-1.47,5.15-2.64,7.41-.46-.77-1.6-1.89-2.15-1.89-.45,0-1.06.89-1.49,1.63-.03.05-.13.1-.15.1h-.17c0-1.93.03-3.44.09-4.37.04-.67.1-.7.39-.85.06-.03.13-.06.19-.1.16-.09.66-.36.66-.8,0-1.08-3.38-1.38-3.41-1.38-.24,0-.34.18-.34.34,0,.04,0,.17.04.26.2,1.1.29,4.28.3,6.88-.95-.03-2.37-.12-4.35-.41l-.33-.05v.33c0,.46.94,1.74,1.56,1.74h0c1.51-.19,2.27-.26,3.1-.27-.33,2.71-3.56,8.51-5.4,10.2-.43.44-.51.57-.51.72l.06.31h.28c.59,0,3.53-2.01,5.53-5.57-.08,5.34-.17,9.18-.29,11.71v.07c0,.95.61,1.29,1.13,1.29.72,0,1.5-.58,1.5-1.44v-.04c-.12-4.21-.21-9.98-.21-14.59Z"/><path class="cls-1" d="m402.17,18.83c0-.91-2.93-1.68-3.29-1.68-.23,0-.34.2-.34.59,0,3.05-1.52,7.19-2.07,8.34-.1.21-.15.37-.15.52,0,.21.15.37.34.37.6,0,2.58-2.87,4.1-6.85.14-.4.16-.44.46-.5.63-.15.95-.41.95-.79Z"/><path class="cls-1" d="m398.01,7.34c.75.6,1.61,1.33,2.2,2.46.32.64.81,1.01,1.35,1.01.66,0,1.23-.64,1.23-1.41,0-.46-.22-1.32-1.64-2.1.84-1.1,1.96-2.72,2.57-3.83.14-.24.2-.28.47-.32.96-.15,1.06-.61,1.06-.8,0-.88-3.07-1.89-3.23-1.89-.37,0-.37.37-.37.62,0,1.44-.56,3.15-1.61,5.75-.59-.19-1.5-.38-1.96-.38-.3,0-.44.18-.44.34,0,.13.07.33.38.56Z"/><path class="cls-1" d="m425.32,24.7c-2.7-.8-4.98-2.72-6.59-5.59.92-.34,2.06-.8,2.93-1.15l.48-.19c.22-.09.43-.07.73-.01.2.03.37.03.5.03.83,0,.89-.47.89-.62,0-.74-2.2-2.53-2.71-2.53-.25,0-.33.25-.36.35-.26.83-1.69,2.19-2.94,3.2-.53-1.09-.97-2.37-1.34-3.89.33-.2.41-.44.41-.62,0-.04,0-.09-.02-.14h1.64v.26c0,.68.54,1.04,1.07,1.04.41,0,.81-.17,1.08-.46.23-.24.35-.54.33-.85-.09-1.05-.21-3.92-.21-5.72,0-1.34.04-1.36.41-1.55.39-.21.87-.47.87-.94,0-.8-2.12-2.01-2.59-2.01-.38,0-.57.18-1.16.9-.05.06-.08.08-.17.08h-3.67c.37-.45.71-.92.99-1.31l.05-.07c.12-.17.16-.22.33-.24,1.08-.1,1.2-.61,1.2-.83,0-.91-3.09-1.83-3.35-1.83-.11,0-.38.04-.38.47,0,.09,0,.19.01.31,0,.11.02.24.02.36,0,1.12-.29,2.39-.51,3.15h-.69c-.68-.43-2.52-1.31-2.8-1.31l-.31.06v.28s0,.14.04.25c.27,1.15.33,3.67.33,4,0,1.22-.06,4.51-.24,6.32v.09c0,.61.42,1.01,1.07,1.01.43,0,.84-.17,1.1-.44.2-.21.29-.47.28-.72v-.29h2.14c.04.57.09,1.97.13,3.59-.36-.64-1.61-1.46-1.98-1.46-.34,0-.77.5-.89.66-.07.1-.12.13-.11.13h-.75c-.31,0-1.36-.02-2.82-.26.57-.09,1.13-.65,1.13-1.52,0-1.85-3.18-3.9-3.81-3.9-.19,0-.34.16-.34.34,0,.13.06.27.23.52.24.37.58.92.87,1.59-1.02.13-2.37.25-3.78.33,1.72-1.85,3.75-4.54,5.21-6.56.18-.26.3-.32.49-.34.91-.09,1.11-.47,1.11-.77,0-.8-2.59-1.95-2.93-1.95s-.38.36-.4.54c-.26,1.75-3.34,6.84-5,9.15l-.82.02c-.63,0-1.44-.04-2.07-.09h-.09c-.15-.04-.49,0-.49.31,0,.38,1.04,2.56,1.74,2.56.22,0,.39-.12.53-.22.09-.07.18-.13.27-.15.52-.14,1.52-.4,2.64-.68.03.7.04,1.32.04,1.86,0,3.39-.1,6.66-.3,9.72v.12c0,.8.54,1.16,1.07,1.16.38,0,.79-.18,1.07-.48.25-.27.39-.6.37-.94-.06-2.41-.12-6.14-.12-8.65,0-.28,0-.53,0-.76.04.07.09.15.15.25.59.83,1.2,2.23,1.6,3.64.23.92.81,1.24,1.28,1.24.71,0,1.29-.66,1.29-1.47,0-1.93-3.28-4.26-4.08-4.26l-.23.02c.01-1.24.06-1.26.26-1.35.25-.15.5-.35.5-.64,0-.06-.01-.13-.05-.21l.11-.03c.37-.1.72-.2,1.03-.3.24.92.41,1.47.78,1.71l-.1-.02v.34c0,.36.61,1.13.92,1.41.2.18.36.25.53.23,1.15-.19,2.02-.27,2.38-.27h.52c-.21.91-2.04,6.17-5.9,8.68-.35.23-.52.45-.52.66,0,.17.13.34.41.34,1.13,0,5.85-2.7,8.04-8.66.13-.35.24-.41.4-.5l.18-.11c.14-.09.35-.22.47-.42.05,2.27.09,4.8.09,6,0,1.3,0,1.84-1.51,1.84-.64,0-1.49-.12-2.78-.39l-.2-.03c-.11-.02-.2-.03-.26-.03-.36,0-.38.26-.38.31,0,.25.18.35,1.16.88.72.39,1.82.98,2.06,1.35.19.26.36.48.74.48.89,0,3.47-.81,3.47-3.35,0-.42-.05-.95-.1-1.41-.02-.25-.05-.48-.06-.67-.06-.96-.14-4.35-.15-6.29,1.77,7.52,5.42,10.15,5.73,10.15.16,0,.31-.06.47-.18.5-.37,1.47-.58,2.17-.73.78-.17,1.11-.23,1.11-.56,0-.25-.26-.35-.51-.42Zm-6.35-15.23c0,.89,0,1.86-.02,2.71h-7.01c-.02-.92-.05-1.81-.05-2.71h7.08Zm-7.05-1.36c0-.88.02-2,.19-2.17.18-.1.34-.21.47-.3h6.19c.05,0,.08,0,.08,0,.12.13.12,1.01.12,2.47h-7.05Z"/><path class="cls-1" d="m450.71,14.67c-.39,0-.78.32-1.16.96-.08.1-.16.14-.2.14h-6.12c-.73-.52-2.7-1.34-3.02-1.34-.06,0-.34.02-.34.38,0,.04,0,.14.04.24.34,1.66.39,3.75.39,5.59,0,1.33-.02,3.42-.21,6.22v.09c0,.64.46,1.07,1.13,1.07.18,0,.78-.03,1.17-.44.21-.22.31-.5.3-.82l-.02-1.17h7.1l-.02.99c0,.69.48,1.16,1.16,1.16.34,0,.83-.12,1.15-.47.23-.25.34-.58.32-.96-.15-2.21-.24-4.66-.24-6.39q0-1.92.48-2.21l-.15-.24h0s.22.2.22.2c.33-.2.78-.46.78-.94,0-.87-2.33-2.07-2.74-2.07Zm-8.07,3.51q.02-.68.27-.84l.19-.12s.06-.04.1-.06h6.39c.09,0,.14.03.14.1.06.84.06,2.05.06,3.44,0,1.07,0,2.28-.02,3.54h-7.13c-.02-1.11-.02-2.18-.02-3.3,0-.88,0-1.79.03-2.75Z"/><path class="cls-1" d="m457.15,12.8c-5.7-2.04-7.3-7.49-7.45-8.04.08-.03.21-.06.34-.08.17-.04.36-.08.6-.14.85-.24,1.03-.65,1.03-.94,0-.84-1.88-1.95-2.38-1.95-.27,0-.41.14-1.13.96-.08.1-.16.14-.2.14h-1.7c-.1,0-2.36,0-4.47-.42l-.34-.07v.34c0,.48.97,1.71,1.65,1.71h0c1.32-.15,2.76-.24,3.22-.24h1.61c.2,0,.24.02.27.22,1.03,6.18,4.94,10.29,5.71,10.29.18,0,.34-.07.46-.19.37-.33,1.39-.5,2.07-.62.82-.14,1.16-.2,1.16-.54,0-.25-.22-.34-.43-.42Z"/><path class="cls-1" d="m429.62,9.25c.91.5,2.03,1.42,2.49,2.05h0c.48.65,1,.78,1.35.78.74,0,1.32-.65,1.32-1.47,0-1.41-1.61-2.32-4.11-2.32-1.33,0-1.56.13-1.56.44,0,.21.16.31.38.44l.13.08Z"/><path class="cls-1" d="m432.21,2.61c.88.65,1.85,1.68,2.26,2.4h0c.48.85,1.04,1.03,1.43,1.03.78,0,1.41-.69,1.41-1.53,0-1.91-2.87-2.8-4.81-2.8-.43,0-.77,0-.77.34,0,.2.14.31.48.56Z"/><path class="cls-1" d="m434.51,21.23c0-2.38.8-5,5.32-15.01.09-.21.21-.51.21-.72,0-.37-.22-.41-.31-.41-.95,0-6.83,11.74-7.08,12.24-.56,1.13-1.11,1.24-2.3,1.24-.3,0-1.01,0-1.01.47,0,.32.38.48.94.61,1.98.51,2.25,1.64,2.25,2.67,0,.5-.07,1.03-.14,1.55-.05.38-.1.76-.13,1.15v.36c0,1.69.75,2.44,1.5,2.44.42,0,.83-.23,1.12-.63.5-.7.56-1.78.15-2.96-.33-.94-.5-1.94-.5-3Z"/><path class="cls-1" d="m444.16,7c.85-.11.92-.54.92-.68,0-.91-3.11-1.77-3.26-1.77-.1,0-.32.04-.36.37l.28.03h0l-.3.07c-.02.14-.03.29-.04.45-.03.38-.07.82-.19,1.16-1.16,3.63-3.07,7.07-4.35,8.59-.22.26-.31.43-.31.61,0,.19.16.34.34.34.43,0,3.32-1.52,6.78-8.76q.17-.37.48-.42Z"/><path class="cls-1" d="m462.68,7.34c.75.6,1.61,1.33,2.2,2.46.32.64.81,1.01,1.35,1.01.66,0,1.23-.64,1.23-1.41,0-.46-.22-1.32-1.64-2.1.84-1.1,1.96-2.72,2.57-3.83.14-.24.2-.28.47-.32.96-.15,1.06-.61,1.06-.8,0-.88-3.07-1.89-3.23-1.89-.37,0-.37.37-.37.62,0,1.44-.56,3.15-1.61,5.75-.59-.19-1.5-.38-1.96-.38-.3,0-.44.18-.44.34,0,.13.07.33.38.56Z"/><path class="cls-1" d="m489.99,24.7c-2.7-.8-4.98-2.72-6.59-5.59.92-.34,2.06-.8,2.93-1.15l.48-.19c.22-.09.43-.07.73-.01.2.03.37.03.5.03.83,0,.89-.47.89-.62,0-.74-2.2-2.53-2.71-2.53-.25,0-.33.25-.36.35-.26.83-1.69,2.19-2.94,3.2-.53-1.09-.97-2.37-1.34-3.89.33-.2.41-.44.41-.62,0-.04,0-.09-.02-.14h1.64v.26c0,.68.54,1.04,1.07,1.04.41,0,.81-.17,1.08-.46.23-.24.35-.54.33-.85-.09-1.05-.21-3.92-.21-5.72,0-1.34.04-1.36.41-1.55.39-.21.87-.47.87-.94,0-.8-2.12-2.01-2.59-2.01-.38,0-.57.18-1.16.9-.05.06-.08.08-.17.08h-3.67c.37-.45.71-.92.99-1.31l.05-.07c.12-.17.16-.22.33-.24,1.08-.1,1.2-.61,1.2-.83,0-.91-3.09-1.83-3.35-1.83-.11,0-.38.04-.38.47,0,.09,0,.19.01.31,0,.11.02.24.02.36,0,1.12-.29,2.39-.51,3.15h-.69c-.68-.43-2.52-1.31-2.8-1.31l-.31.06v.28s0,.14.04.25c.27,1.15.33,3.67.33,4,0,1.22-.06,4.51-.24,6.32v.09c0,.61.42,1.01,1.07,1.01.43,0,.84-.17,1.1-.44.2-.21.29-.47.28-.72v-.29h2.14c.04.57.09,1.97.13,3.59-.36-.64-1.61-1.46-1.98-1.46-.34,0-.77.5-.89.66-.07.1-.12.13-.11.13h-.75c-.31,0-1.36-.02-2.82-.26.57-.09,1.13-.65,1.13-1.52,0-1.85-3.18-3.9-3.81-3.9-.19,0-.34.16-.34.34,0,.13.06.27.23.52.24.37.58.92.87,1.59-1.02.13-2.37.25-3.78.33,1.72-1.85,3.75-4.54,5.21-6.56.18-.26.3-.32.49-.34.91-.09,1.11-.47,1.11-.77,0-.8-2.59-1.95-2.93-1.95s-.38.36-.4.54c-.26,1.75-3.34,6.84-5,9.15l-.82.02c-.63,0-1.44-.04-2.07-.09h-.09c-.15-.04-.49,0-.49.31,0,.38,1.04,2.56,1.74,2.56.22,0,.39-.12.53-.22.09-.07.18-.13.27-.15.52-.14,1.52-.4,2.64-.68.03.7.04,1.32.04,1.86,0,3.39-.1,6.66-.3,9.72v.12c0,.8.54,1.16,1.07,1.16.38,0,.79-.18,1.07-.48.25-.27.39-.6.37-.94-.06-2.41-.12-6.14-.12-8.65,0-.28,0-.53,0-.76.04.07.09.15.15.25.59.83,1.2,2.23,1.6,3.64.23.92.81,1.24,1.28,1.24.71,0,1.29-.66,1.29-1.47,0-1.93-3.28-4.26-4.08-4.26l-.23.02c.01-1.24.06-1.26.26-1.35.25-.15.5-.35.5-.64,0-.06-.01-.13-.05-.21l.11-.03c.37-.1.72-.2,1.03-.3.24.92.41,1.47.78,1.71l-.1-.02v.34c0,.36.61,1.13.92,1.41.2.18.36.25.53.23,1.15-.19,2.02-.27,2.38-.27h.52c-.21.91-2.04,6.17-5.9,8.68-.35.23-.52.45-.52.66,0,.17.13.34.41.34,1.13,0,5.85-2.7,8.04-8.66.13-.35.24-.41.4-.5l.18-.11c.14-.09.35-.22.47-.42.05,2.27.09,4.8.09,6,0,1.3,0,1.84-1.51,1.84-.64,0-1.49-.12-2.78-.39l-.2-.03c-.11-.02-.2-.03-.26-.03-.36,0-.38.26-.38.31,0,.25.18.35,1.16.88.72.39,1.82.98,2.06,1.35.19.26.36.48.74.48.89,0,3.47-.81,3.47-3.35,0-.42-.05-.95-.1-1.41-.02-.25-.05-.48-.06-.67-.06-.96-.14-4.35-.15-6.29,1.77,7.52,5.42,10.15,5.73,10.15.16,0,.31-.06.47-.18.5-.37,1.47-.58,2.17-.73.78-.17,1.11-.23,1.11-.56,0-.25-.26-.35-.51-.42Zm-6.35-15.23c0,.89,0,1.86-.02,2.71h-7.01c-.02-.92-.05-1.81-.05-2.71h7.08Zm-7.05-1.36c0-.88.02-2,.19-2.17.18-.1.34-.21.47-.3h6.19c.05,0,.07,0,.08,0,.12.13.12,1.01.12,2.47h-7.05Z"/><path class="cls-1" d="m466.84,18.83c0-.91-2.93-1.68-3.29-1.68-.23,0-.34.2-.34.59,0,3.05-1.52,7.19-2.07,8.34-.1.21-.15.37-.15.52,0,.21.15.37.34.37.6,0,2.58-2.87,4.1-6.85.14-.4.16-.44.46-.5.63-.15.95-.41.95-.79Z"/><path class="cls-1" d="m514.23,8.5c-.73,0-1.05.19-1.39.39-.28.17-.57.34-1.22.46-.18.04-.39.08-.62.12.01-.39.04-.73.06-.98.03-.38.08-.71.12-1,.05-.36.1-.67.1-.96,0-.78-.34-1.33-1.22-1.97-1.23-.8-1.71-1.05-2.34-1.05-.84,0-1.5.61-1.5,1.13,0,.46.45.71.77.71,1.8.02,1.88,1.2,1.88,4.09v.36c-1.86.28-5.28.75-6.12.75-1.15,0-2.14-.2-3.29-.67l-.16-.07c-.22-.1-.42-.19-.63-.19-.13,0-.56.06-.56.86,0,1.65,2.98,2.35,4.17,2.35.56,0,.97-.14,1.49-.31.34-.11.72-.24,1.25-.37.7-.16,1.47-.31,2.24-.45-3.22,4.7-7.37,8.73-11.46,11.13-.33.19-.87.54-.87.85,0,.17.13.34.41.34.62,0,7.64-2.38,13.66-10.86.08,1.8.15,3.65.15,5.53,0,.7,0,1.95-.07,2.35-.56-.21-2.57-1.1-3.35-1.52-.15-.1-.36-.14-.46-.14-.39,0-.41.29-.41.34,0,.2.16.4.33.58,1.35,1.44,2.88,3.06,3.1,4.27.17.97.72,1.6,1.4,1.6,1.18,0,1.8-1.88,1.8-3.74,0-.56-.05-1.1-.11-1.68-.06-.61-.12-1.3-.14-2.12-.03-1.02-.07-2.16-.11-3.3-.05-1.44-.11-2.93-.13-4.21,1.74-.13,3.33-.07,4.89.2,1.38.23,2-.39,2-.98,0-1.3-2.77-1.86-3.65-1.86Z"/><path class="cls-1" d="m528.21,6.4c1.32.08,1.58,2.2,1.58,5.61,0,1.01-.07,1.93-.18,3.17-.03.2-.03.4-.03.56,0,1.49.63,2.01,1.16,2.01,1.1,0,1.44-1.79,1.44-2.44,0-.14-.02-.3-.04-.5l-.02-.22c-.12-1.16-.18-1.87-.18-5.31,0-.65.08-1.19.22-1.5l.03-.07c.09-.2.18-.4.18-.65,0-1.41-2.7-2.35-3.35-2.35-.76,0-1.65.44-1.65,1.01,0,.41.44.62.84.68Z"/><path class="cls-1" d="m535.79,2.95c-.89,0-1.38.65-1.38.98,0,.42.48.65.8.71.28.03,1.15.13,1.15,2.54,0,.3,0,.62-.03.98-.05.84-.06,1.5-.08,2.17,0,.49-.02.99-.04,1.55-.23,6.33-3.04,11.74-7.52,14.46-1.26.78-1.35.96-1.35,1.15,0,.05.02.31.38.31,1.04,0,10.7-3.6,10.91-15.61.09-3.56.21-4.5.73-5.59l.04-.07c.15-.29.3-.59.3-.93,0-1.27-2.92-2.65-3.9-2.65Zm-8.08,24.29v.12s-.01,0-.01.01v-.14s0,0,.01,0Z"/><path class="cls-1" d="m566.15,5.35l.08.04c.56.31,1.64,1,2.53,2.06h0c.31.36.69.56,1.03.56.65,0,1.16-.56,1.16-1.29,0-1.52-1.99-2.35-3.87-2.35-.55,0-1.47.06-1.47.47,0,.26.24.38.52.51Z"/><path class="cls-1" d="m570.34,2.95c-1.42,0-1.62.25-1.62.53,0,.23.19.31.46.44l.18.09c.88.46,1.85,1.21,2.6,2.01h0c.31.32.66.48.99.48.65,0,1.16-.55,1.16-1.25,0-1.49-1.95-2.29-3.78-2.29Z"/><path class="cls-1" d="m555.34,8.25c1.04.52,2.73,1.57,3.8,2.48h0c.51.42.96.61,1.42.61.67,0,1.16-.53,1.16-1.26,0-1.06-1.04-2.86-4.96-2.86-.88,0-1.92.1-1.92.56,0,.13.06.28.49.47Z"/><path class="cls-1" d="m556.1,16.23c.7,0,1.16-.48,1.16-1.19,0-1.14-1.04-2.47-3.96-2.47-2.16,0-3.04.57-3.07.59l-.13.08v.15c0,.25.22.33.43.4l.13.05c1.21.39,3.02,1.25,4.13,1.95.49.3.91.43,1.3.43Z"/><path class="cls-1" d="m572.82,8.54c-3.9,4.72-13.56,13.89-17.39,13.89-.58,0-.97-.23-1.19-.67-.15-.41-.39-.64-.66-.64-.65,0-.86,1.16-.86,1.47,0,1.78,2.86,3.05,3.78,3.05.59,0,.95-.32,1.33-.66.2-.18.41-.37.67-.53,6.56-3.93,13.22-10.66,15.15-15.31.36-.85.39-1.01.39-1.11v-.31h-.28c-.12,0-.24,0-.92.83Z"/><path class="cls-1" d="m596,10.05c-.41,0-.7.09-1.05.19-.3.09-.64.19-1.14.26l-3.27.42s0-.08,0-.11c0-.12-.01-.23-.01-.36,0-2.07.14-2.59.32-3.03l.04-.11c.09-.23.19-.49.19-.75,0-1.16-2.66-2.38-3.84-2.38-.48,0-1.35.32-1.35.95,0,.4.42.61.81.68,1.02.07,1.3,1.09,1.46,5.39-.52.06-1.06.13-1.62.21-1.02.13-2.11.27-3.31.4-1.75.23-3.09-.04-4.68-.57-.12-.04-.23-.1-.33-.15-.16-.09-.31-.17-.48-.17-.53,0-.53.62-.53.83,0,1.67,2.77,2.53,3.96,2.53.77,0,1.49-.24,2.12-.45.4-.13.77-.26,1.12-.31,1.32-.23,2.47-.41,3.75-.57-.41,5.35-3.93,10.1-9.25,12.47-1.32.57-1.42.74-1.42.96,0,.09.04.31.41.31.32,0,.92-.14,1.25-.22,6.89-1.72,11.36-7.13,11.45-13.8l.48-.04c.73-.08,1.44-.12,2.22-.12,1.57,0,3,.2,4.65.65.23.08.41.08.61.08.78,0,1.38-.46,1.38-1.07,0-1.31-2.74-2.14-3.9-2.14Z"/><path class="cls-1" d="m611.18,8.99c-1.11,0-1.56.82-1.56,1.16,0,.13.05.55.74.62.81.1,1.56.36,1.56,1.57,0,2.78-4.68,9.68-8.56,11.74-.32.16-.7.41-.7.71,0,.17.13.34.41.34,1.41,0,8.69-3.81,11.27-11.45.12-.41.28-.91.28-1.49,0-1.83-2.09-3.2-3.44-3.2Z"/><path class="cls-1" d="m630.15,8.71c-.2,0-.36.12-.9.88-4.07,5.82-10.29,9.47-10.76,9.57,0,0-.02-.03-.02-.12,0-.68.41-6.31.8-7.56.09-.27.14-.57.14-.88,0-1.41-1.48-3.29-2.99-3.29-.66,0-1.62.28-1.62.8,0,.43.53.65.93.79.5.16,1.17.69,1.17,3.52,0,1.54-.17,3.53-.51,5.91-.06.44-.16.74-.24.98-.07.23-.13.41-.13.61,0,.57,1.19,2.68,2.35,2.68.57,0,1.06-.49,1.46-.88.16-.16.31-.31.43-.38,6.15-4.19,10.23-11.24,10.23-12.26,0-.36-.29-.37-.34-.37Z"/><path class="cls-1" d="m655.75,2.03c-.12-.06-.23-.06-.31-.06-.32,0-.69.14-1.98,1.9-.05.06-.15.17-.23.17h-7.04c0-.07.01-.13.01-.19.05-1.04.13-1.23.16-1.24.54-.22,1.18-.58,1.18-1.08,0-1.03-3.77-1.35-3.81-1.35l-.31.03v.28s0,.14.04.25c.17.65.29,1.81.32,3.18v.11h-2.51c-1.73,0-6.54-.12-9.56-.48l-.32-.04v.32c0,.51.93,1.86,1.74,1.86h0c2.54-.26,6.23-.33,8.02-.33h6.86s0,.04,0,.05c-.11,1.15-.56,2.22-1.76,4.18h-3.43c.51-.19.87-.71.87-1.33,0-1.97-3.18-2.8-4.44-2.8-.16,0-.53,0-.53.34,0,.18.12.29.34.52.67.59,1.56,1.59,1.87,2.25h0c.26.52.61.87,1,1.02h-4.48s-.03-.02-.05-.04c-.56-.4-2.76-1.51-3.14-1.51-.22,0-.34.13-.34.34,0,.04,0,.17.04.27.23,1.13.36,3.87.36,4.74,0,.27,0,.56.01.88,0,.37.02.76.02,1.19,0,3.54-.14,8.27-.33,11.51v.09c0,.73.46,1.19,1.16,1.19.92,0,1.56-.74,1.56-1.41s0-1.42-.01-2.19c0-.86-.02-1.77-.02-2.7s0-1.78.02-2.66c0-.76.01-1.51.01-2.22.52-.07,1.68-.28,2.96-.89,0,.01,0,.02,0,.03l.02.13.27-.08h0l-.26.17c.19.8.23,2.04.23,2.45v.4c0,1.1-.09,3.17-.21,4.31v.15c0,.62.42,1.04,1.04,1.04.68,0,1.41-.52,1.41-1.29v-.87h5.58l-.02.38c0,.61.45,1.04,1.1,1.04.39,0,.74-.15.99-.42.24-.26.38-.62.35-.95-.12-1.61-.15-2.86-.15-3.35,0-.38,0-.49.41-.73l.1-.06c.26-.15.61-.36.61-.75,0-.86-2.29-1.86-2.5-1.86-.19,0-.59.11-1.06.87-.04.07-.11.11-.15.11h-4.84c-.61-.34-1.86-.87-2.4-1,1.32-.74,2.68-1.94,3.5-3.86q.1-.24.28-.27l.1-.02c.61-.14.68-.47.68-.61,0-.07-.02-.14-.04-.2h1.08c.02.29.04.62.04.87,0,.46-.02.93-.05,1.46v.42c-.01,1.67,1.27,2.01,3.19,2.01,2.13,0,4.56-.18,4.56-1.59,0-.4-.29-.77-.72-.94-.06-.15-.12-.55-.16-.8-.12-.75-.18-1.12-.52-1.12-.23,0-.31.21-.39.41q-.67,2.11-2.49,2.11c-1.29,0-1.29-.11-1.29-.54,0-1.71.08-1.74.31-1.83.25-.11.42-.28.46-.46h4.68c.06,0,.11.05.11.12.06,1.71.09,6.34.09,9.83v2.76c-.02,1.02-.38,1.58-2.18,1.58-.89,0-2.14-.15-3.8-.45-.18-.04-.32-.04-.39-.04-.36,0-.37.26-.37.31,0,.27.18.37,1.58,1.05.91.44,2.29,1.11,2.56,1.48.18.24.32.43.73.43,1.79,0,4.44-1.29,4.44-4.05,0-1-.02-1.59-.06-2.77l-.03-.73c-.06-1.44-.09-3.7-.09-5.76,0-2.88,0-2.88.35-3.02.52-.24,1.07-.55,1.07-1.08,0-1.01-2.6-2.2-2.83-2.2-.33,0-.72.3-1.28,1.02-.09.11-.2.17-.23.17h-5.18c.74-.61,1.54-1.29,1.94-1.66l.06-.06c.2-.18.23-.2.55-.21.3-.02,1.21-.06,1.21-.68,0-.51-1.21-1.2-2.09-1.63h8.03c.88,0,.95-.5.95-.65,0-.63-1.74-2.29-2.8-2.68Zm-13.21,16.31s.06-.03.08-.05c.03-.02.07-.04.1-.06h4.94c.06,0,.08.04.08.08.06.56.06,1.17.06,1.7,0,.44,0,.89-.02,1.3h-5.64c0-.94,0-1.93.03-2.31v-.1q.02-.36.36-.55Zm-5.76-6.25c0-.77.03-.78.4-1.02.06-.04.12-.08.18-.13h4.29c-.31,1.34-1.36,3.89-4.89,5.2.02-1.74.02-3.19.02-4.06Z"/><path class="cls-1" d="m685.26,15.03c-.36,0-.69.28-1.12.96-.04.06-.12.11-.18.11h-4.6c-.47-.32-2.59-1.34-2.93-1.34-.06,0-.34.02-.34.38,0,.04,0,.14.04.24.32,1.55.36,3.9.36,5.53,0,1.25-.02,3.24-.21,6.04v.09c0,.64.46,1.07,1.13,1.07.74,0,1.41-.6,1.41-1.26l-.02-1.11h5.58l-.02.9c0,.8.57,1.16,1.13,1.16.32,0,.79-.15,1.11-.5.24-.26.35-.58.32-.92-.15-2.24-.24-4.56-.24-6.21,0-1.91.1-1.97.47-2.19l.08-.05c.31-.18.73-.43.73-.89,0-1-2.47-2.01-2.68-2.01Zm-6.49,3.48q.02-.67.26-.83l.2-.14s.06-.04.1-.06h4.88c.09,0,.14.03.14.1.06.84.06,1.93.06,3.32,0,1.05,0,2.22-.02,3.48h-5.61c-.02-1.08-.02-2.12-.02-3.18,0-.85,0-1.72.03-2.69Z"/><path class="cls-1" d="m671.63,15.06c-.36,0-.69.28-1.12.96-.04.06-.12.1-.18.1h-4.27c-.69-.46-2.56-1.27-2.86-1.27-.06,0-.34.02-.34.37,0,.04,0,.14.04.24.24,1.12.3,3.45.3,3.77,0,1.44,0,4.82-.24,7.65v.09c0,.63.43,1.04,1.1,1.04.81,0,1.44-.54,1.44-1.23l-.02-1.05h5.26v.78c0,.64.46,1.07,1.13,1.07.41,0,.81-.17,1.09-.47.24-.25.36-.57.34-.86-.11-1.66-.24-4.73-.24-6.48,0-1.46.04-1.48.48-1.77l.07-.04c.29-.19.7-.46.7-.89,0-.79-2.03-2.01-2.65-2.01Zm-6.15,3.49q.04-.73.22-.83c.06-.04.12-.08.17-.11.05-.03.09-.06.12-.09h4.58c.09,0,.14.03.14.1.06.72.06,1.8.06,3.04s0,2.48-.02,3.72h-5.3c0-.35,0-.71-.01-1.06,0-.46-.02-.93-.02-1.39,0-1.35.03-2.59.06-3.38Z"/><path class="cls-1" d="m667.98,5.75c0,1.15-.09,4.68-.24,6.77v.09c0,.69.45,1.13,1.13,1.13s1.47-.5,1.47-1.25v-.66h9.32l-.02.63c0,.76.52,1.1,1.04,1.1.4,0,.8-.18,1.1-.49.27-.29.42-.65.4-.99-.02-.64-.05-1.35-.09-2.07-.06-1.29-.12-2.63-.12-3.66q0-1.4.44-1.64c.39-.21.87-.47.87-.94,0-.85-2.37-2.01-2.68-2.01-.21,0-.35.1-.48.19-.12.1-.26.25-.4.41-.09.1-.17.19-.28.3-.05.07-.08.08-.17.08h-8.42c-.52-.31-2.54-1.31-2.97-1.31l-.31.06v.28s0,.14.04.24c.24,1.1.39,3.35.39,3.74Zm2.73-1.5s.09-.07.14-.09c.03-.02.06-.04.1-.06l8.7.03c.01.37.06,1.71.06,3.51,0,.52,0,1.04-.01,1.56,0,.43-.01.86-.01,1.28h-9.34c-.03-1.44-.03-2.98-.03-4.06q0-1.93.4-2.17Z"/><path class="cls-1" d="m711.65,8.62c-2.99,0-5.36,2.93-6.72,5.91-.58-1.6-1.76-2.6-3.15-2.6-.37,0-.74.06-1.11.18.54-.95,1.13-2.08,2.03-4.02l.07-.14c2.47-.93,3.72-1.97,3.72-3.11,0-.6-.39-1.04-.92-1.04-.12,0-.31.03-.45.11-.04.01-.33.08-.79.08-.21,0-.4,0-.61-.02-.07-.01-.13-.02-.18-.03-.32-1.41-1.58-1.53-1.97-1.53-.46,0-1.56.35-1.56.89,0,.34.35.46.56.52l.08.02c.73.17,1,.6,1,1.61,0,.23,0,.46-.05.75-1.22.38-2.3.39-2.43.39-.91,0-1.68-.25-2.48-.8-.53-.36-.7-.44-.86-.44-.21,0-.37.18-.37.4,0,.59.72,2.96,4.02,2.96.45,0,.89-.05,1.36-.16-1.25,2.79-2.19,4.43-4.93,6.99-.8.74-1.27,1.62-1.27,2.36,0,.94.66,1.29,1.07,1.29.95,0,1.81-1.4,2.38-2.46.1-.18.19-.36.28-.54.13-.26.26-.51.37-.71,1.03-1.47,2.05-2.28,2.86-2.28,1.41,0,1.73,2.18,1.75,4.08-3.03,1.81-4.77,3.97-4.77,5.93,0,2.16,2.47,4.47,6.14,4.47,2.41,0,5.02-.88,5.02-2.29,0-.66-.59-1.16-1.38-1.16-.36,0-.7.09-1.04.28-.98.52-2.24.82-3.45.82-2.67,0-3.63-1.45-3.63-2.42,0-1.23,1.09-2.61,3.08-3.9h0c-.02.61-.12.92-.23,1.23-.08.24-.17.5-.2.88,0,.07,0,.13-.01.19,0,.07-.02.14-.02.21,0,1.32.69,1.47.98,1.47.69,0,1.54-.89,1.65-2.09.03-.46.06-.95.06-1.42,0-.58-.02-1.13-.07-1.68,1.94-.96,4.38-1.93,6.36-2.71l.27-.11c2.2-.88,3.52-2.16,3.52-3.42,0-1.58-2.19-2.92-3.99-2.92Zm1.33,2.74c0,.6-.66,1.27-1.97,1.97-.89.47-1.96,1-3.03,1.53-.84.42-1.68.83-2.43,1.22.94-2.33,3.34-6.04,5.81-6.04,1.47,0,1.63,1.32,1.63,1.33Zm-9.42-5.97c.03-.21.05-.41.05-.6.13.04.33.13.42.2-.05.09-.21.24-.47.4Z"/><path class="cls-1" d="m747.64,12.91c-2.25-.33-4.79-1.46-7.37-3.27,1.07-.59,2.03-1.16,2.69-1.56l.14-.09c.07-.04.13-.08.18-.12.12-.08.12-.08.16-.08.03,0,.08.01.15.03l.11.02c.23.06.47.1.65.1.51,0,.74-.28.74-.56,0-.67-2.51-2.47-2.8-2.47-.23,0-.31.2-.34.29-.01.04-.03.08-.06.13-.62,1.19-1.12,1.88-2.75,3.46-.78-.61-1.47-1.19-2.06-1.72,1.16-.66,2.06-1.23,2.93-1.85.07-.04.12-.08.17-.12.2-.14.19-.16.45-.09.2.03.4.06.53.06.74,0,.8-.45.8-.59,0-.72-2.7-2.32-2.9-2.32-.26,0-.34.24-.41.44-.81,1.72-1.88,3.09-2.39,3.66-.64-.63-1.25-1.33-1.88-2.12.13-.11.25-.26.25-.48,0-.67-2.01-1.89-2.38-1.89-.18,0-.38.12-.71.34-.08.06-.17.11-.28.18-.11.09-.26.15-.37.15h-.97c-.99,0-3.73-.13-5.85-.45l-.33-.05v.33c0,.49,1.06,1.87,1.72,1.86,1.75-.22,3.7-.3,4.52-.3h.72c-.2.55-1.35,2.62-3.24,4.98.1-.21.16-.45.16-.71,0-1.85-2.78-2.71-4.66-2.71-.4,0-.74,0-.74.34,0,.18.12.29.34.47l.11.09c.88.64,1.8,1.61,2.2,2.31.48.87,1.08,1,1.4,1,.28,0,.53-.09.75-.25-1.83,2.2-4.28,4.58-7.18,6.19-.86.51-.93.68-.93.85,0,.06.02.34.37.34s3.76-1.14,7.26-3.94c.31.49.89,1.09,1.42,1.09h0c.12-.01.25-.03.4-.04.16-.02.34-.04.54-.06.09,1.08.09,2.58.09,2.76,0,.35,0,.69-.01,1.01-2.28-.07-4.82-.16-6.77-.42l-.32-.04v.32c0,.55,1.03,1.83,1.8,1.83h0c1.89-.19,3.92-.27,5.14-.3-.66,4.29-3.21,7.08-7.8,8.55-1.17.37-1.17.66-1.17.79,0,.17.13.34.5.34.29,0,.64-.05,1.07-.16,6-1.47,9.03-4.43,9.8-9.56h2.87c0,1-.03,2.09-.05,3.16-.01.56-.03,1.11-.04,1.65v.21c0,2.71,1.36,3.71,5.02,3.71,5.98,0,6.45-1.82,6.45-2.38,0-.46-.29-.91-.82-1.27-.22-.15-.4-1.39-.49-1.98-.15-1.01-.2-1.35-.55-1.35-.27,0-.36.3-.43.62l-.07.34c-.6,2.83-.75,3.37-2.1,3.6-.58.1-1.15.15-1.8.15-2.87,0-2.87-.78-2.87-1.96v-4.51h6.4c.86,0,.95-.47.95-.68,0-.8-1.67-2.08-2.68-2.42l-.11-.02s-.11-.02-.19-.02c-.7,0-1.75,1.67-1.76,1.69-.04.07-.16.14-.24.14h-2.36c0-3.07.18-3.15.48-3.29.21-.11.61-.31.61-.68,0-.02,0-.03,0-.05h1.3c.61,0,.83-.33.83-.62,0-.59-1.12-1.88-2.26-2.38l-.14-.03s-.09-.02-.16-.02c-.16,0-.29.06-.42.18-.35.38-.75.91-1.1,1.47-.04.07-.08.11-.12.11h-1.88c-1.28,0-3.91-.1-5.95-.32,2.13-1.9,3.99-4.24,5.52-6.97.1-.18.17-.28.24-.35,4,6.79,10.02,10.66,11.06,10.66.17,0,.36-.09.51-.24.33-.35,1.3-.71,2.02-.98.93-.35,1.28-.48,1.28-.8s-.35-.37-.52-.4Zm-16.21,2.98v-.91q0-.52.24-.66l.07-.04c.38-.21.57-.43.57-.67,0,0,0,0,0-.01.41,0,.78,0,1.08,0h.63c.1,1.05.1,1.75.1,2.48v1.54h-2.75c.04-.53.06-1.12.06-1.72Z"/><path class="cls-1" d="m752.82,5.97h0c3.01-.32,7.16-.33,7.62-.33h1.84v2.83h-.11c-1.51,0-6.05-.09-8.92-.48l-.32-.04v.33c0,.55.99,1.86,1.68,1.86,1.4,0,3.07-.1,4.55-.2,1.17-.07,2.19-.14,2.86-.14h10.75c.66,0,.89-.35.89-.68,0-.71-2.08-2.53-2.89-2.53-.15,0-.29.05-.44.14-.33.23-.69.73-1.01,1.17-.11.15-.21.29-.3.4-.05.06-.15.17-.23.17h-4.12c0-.27,0-.59.01-.95,0-.58.02-1.25.02-1.88h10.19c.85,0,.92-.52.92-.68,0-.59-2.03-2.74-2.99-2.74-.18,0-.34.07-.44.18-.38.28-.79.88-1.12,1.37-.1.15-.19.28-.29.41-.04.07-.16.14-.24.14h-6.03v-1.04c.02-.62.02-.62.26-.73.12-.06.27-.13.46-.25.4-.24.62-.53.62-.82,0-1.06-3.77-1.38-3.81-1.38l-.31.06v.28c0,.06,0,.14.04.27.22,1.16.33,2.31.33,3.61h-1.72c-1.55,0-6.21-.09-9.13-.48l-.32-.04v.32c0,.5.93,1.86,1.71,1.86Z"/><path class="cls-1" d="m751.6,17.81c1.87,0,3.16-2.37,3.44-4.22h16.72c-.19.59-1.34,2.28-2.13,3.28-.11.15-.18.26-.18.38,0,.19.16.34.34.34.12,0,.27-.05.38-.12.45-.24,1-.59,1.58-.97,1.11-.72,2.5-1.61,3.19-1.64,1.29-.09,1.48-.67,1.48-1.01,0-1.13-2.39-2.21-2.87-2.42l-.11-.02c-.45,0-.89.37-1.17.69-.08.08-.26.16-.32.16h-16.82c-.03-.61-.14-2-.7-2-.19,0-.43.15-.49.56-.34,1.69-1.09,2.82-2.78,4.14-.62.49-.96,1.05-.96,1.59,0,.72.6,1.25,1.41,1.25Z"/><path class="cls-1" d="m759.32,14.67c-.38,0-.47.17-.47.31l.05.37c.06.43.16,1.07.16,2-.07,6.9-5.4,9.34-8.57,10.17-1.12.31-1.12.48-1.12.64,0,.25.2.37.59.37.2,0,.52-.03.92-.09,6.83-1.01,10.42-4.67,10.66-10.86.05-.87.05-.88.32-1l.12-.06c.29-.12.48-.39.48-.69,0-1.06-3.11-1.16-3.14-1.16Z"/><path class="cls-1" d="m776.05,24.12c-.45-.28-.7-2.31-.81-3.18-.12-.95-.14-1.12-.44-1.12h-.18l-.08.16s-.05.11-.09.29l-.09.53c-.37,2.12-.71,4.12-1.92,4.31-.89.14-1.78.21-2.66.21-3.3,0-3.3-.32-3.3-2.39s.09-4.54.12-5.49h-.28s.29-.09.29-.09c.03-.68.03-.69.26-.77.4-.13.68-.46.68-.79,0-.97-3.14-1.16-3.17-1.16-.36,0-.37.26-.37.31,0,.06.01.11.02.15l.02.12c.15.76.15,1.23.15,2.8,0,.48-.03,2.69-.09,6.07v.12c0,3.44,3.68,3.44,5.66,3.44.94,0,2.09-.06,3.15-.15h0c2.65-.27,3.84-1.33,3.84-2.26,0-.31-.12-.76-.71-1.12Z"/><path class="cls-1" d="m790.34,9.64c.52,3.96.94,9.19.97,10.26,0,.5.35.8.68.8s.66-.24.71-.78c.06-1.15.52-6.49.97-10.27l.04-.35c.18-1.43.38-3.04.38-4.21,0-1.05-.56-2.62-2.11-2.62-1.64,0-2.07,1.71-2.07,2.62,0,1.16.2,2.78.38,4.21l.04.35Z"/><circle class="cls-1" cx="791.99" cy="25.24" r="2.14"/></g></g></svg>