<?xml version="1.0" encoding="UTF-8"?><svg id="Layer_2" xmlns="http://www.w3.org/2000/svg" viewBox="0 0 169.09 19.58"><defs><style>.cls-1{fill:#fff;}</style></defs><g id="BOOK_NOW"><g><path class="cls-1" d="M14.76,13.54c0,4.46-4.54,5.6-7.29,5.6-1.61,0-3.19-.16-4.77-.16-.78,0-1.58,.05-2.36,.16h-.05c-.18,0-.29-.16-.29-.34s.08-.34,.21-.44c2.18-.21,2.2-.57,2.28-3.22,0-.8,0-1.76,.03-2.88,.03-.7,.03-1.71,.03-2.75s0-2.07-.03-2.85c0-.49,.03-1.12,.03-1.76,0-2.85-.21-3.37-2.2-3.6-.13-.03-.21-.21-.21-.39s.05-.36,.21-.36h.03c.39,.05,.88,.05,1.4,.05,1.63,0,3.68-.16,4.9-.16,2.07,0,6.66,.36,6.66,4.23,0,2.33-1.74,3.53-3.32,4.02-.13,.03-.16,.05-.16,.1s.18,.08,.31,.1c2.15,.39,4.59,1.89,4.59,4.62v.03ZM6.79,1.19c-1.5,0-1.71,.28-1.71,3.06v3.73c0,.29,.05,.62,.42,.62h.1c.26-.05,.75-.08,1.14-.1,1.5-.05,3.76-.49,3.76-3.37,0-2.02-.93-3.94-3.71-3.94Zm.23,8.17c-.34,0-1.3,.03-1.53,.08-.42,.08-.42,.26-.42,.47v2.1c0,5.26,.03,6.41,2.65,6.41,2.44,0,4.15-2.05,4.15-4.41,0-.52-.03-4.64-4.85-4.64Z"/><path class="cls-1" d="M29.31,19.5c-6.61,0-9.91-4.95-9.91-9.65C19.4,4.41,23.68,0,29.39,0c5.99,0,9.8,4.43,9.8,9.85s-3.53,9.65-9.88,9.65Zm-.08-18.65c-4.85,0-6.72,4.59-6.72,8.45,0,1.89,.62,9.34,6.95,9.34,4.77,0,6.61-3.92,6.61-8.33S34.19,.86,29.23,.86Z"/><path class="cls-1" d="M53.23,19.5c-6.61,0-9.91-4.95-9.91-9.65,0-5.45,4.28-9.85,9.98-9.85,5.99,0,9.8,4.43,9.8,9.85s-3.53,9.65-9.88,9.65Zm-.08-18.65c-4.85,0-6.72,4.59-6.72,8.45,0,1.89,.62,9.34,6.95,9.34,4.77,0,6.61-3.92,6.61-8.33S58.11,.86,53.15,.86Z"/><path class="cls-1" d="M85.37,18.83c0,.16-.08,.31-.29,.31h-.03s-2.1-.18-4.1-.18c-1.01,0-2,.05-2.67,.18h-.05c-.16,0-.26-.13-.26-.31,0-.16,.08-.36,.26-.47,.65-.03,1.19-.18,1.19-.57,0-.29-.21-.67-3.29-4.41-3.06-3.66-3.09-3.68-3.32-3.68s-.39,.26-.39,.57c0,.62,0,3.5,.03,4.51,.03,3.03,.16,3.32,2.2,3.58,.16,.13,.23,.31,.23,.44,0,.18-.1,.34-.26,.34h-.03s-2.05-.18-4.05-.18c-1.06,0-2.13,.05-2.85,.21h-.05c-.16,0-.26-.13-.26-.31,0-.16,.08-.34,.23-.47,2.2-.29,2.18-.83,2.2-3.58,.03-1.19,.03-2.93,.03-4.62,0-2.31,0-4.59-.03-5.5-.05-2.96-.03-3.27-2.28-3.47-.16-.13-.21-.28-.21-.44,0-.18,.08-.34,.26-.34,.03,0,1.97,.13,3.97,.13,1.09,0,2.18-.03,2.98-.16h.05c.16,0,.23,.13,.23,.31,0,.16-.08,.34-.23,.47-2.15,.28-2.18,.44-2.18,4.9,0,2.41,0,2.46,.26,2.46,.13,0,.73-.03,6.9-6.2,.23-.23,.31-.41,.31-.54,0-.44-.8-.57-1.32-.6-.16-.13-.23-.31-.23-.44,0-.18,.1-.34,.29-.34,0,0,1.45,.13,3.03,.13,.86,0,1.76-.03,2.52-.16h.05c.16,0,.29,.16,.29,.36,0,.16-.08,.36-.26,.47-1.14,.31-2,.7-2.7,1.22-2.23,1.69-4.98,4.28-6.22,5.24-.1,.08-.16,.21-.16,.31,0,.08,.03,.16,.08,.23,1.95,2.23,5.16,6.38,7.29,8.53,.93,.96,1.58,1.45,2.62,1.58,.13,.1,.21,.29,.21,.47Z"/><path class="cls-1" d="M115,5.63c-.03,.54-.03,1.45-.03,2.52,0,3.22,.1,8.04,.34,10.45v.13c0,.47-.26,.65-.57,.65h-.05c-.26,0-.52-.16-.75-.57-.86-1.32-3.14-4.02-5.6-6.77-2.28-2.57-5.34-5.94-7.18-8.14-.03-.03-.05-.05-.08-.05-.05,0-.08,.05-.08,.13,0,.65-.03,1.43-.03,2.26,0,3.06,.08,6.85,.18,8.43,.23,3.29,.7,3.42,2.75,3.74,.16,.13,.21,.31,.21,.44,0,.18-.1,.34-.26,.34,0,0-1.79-.18-3.66-.18-.88,0-1.79,.03-2.54,.16h-.05c-.18,0-.23-.13-.23-.31,0-.16,.05-.34,.18-.44,2.28-.26,2.39-.8,2.39-6.48,0-2.49-.03-5.94-.03-8.61,0-.6-.34-1.84-2.44-2.1-.13-.1-.21-.29-.21-.44,0-.18,.1-.34,.34-.34,0,0,1.3,.1,2.62,.1,.6,0,1.22-.03,1.71-.08h.05c.36,0,.31,.23,.57,.75,.44,.91,2.85,3.68,6.46,7.52,1.58,1.69,3.32,3.74,4.77,5.37,.05,.05,.08,.08,.1,.08,.05,0,.05-.05,.05-.13v-.1c-.03-1.01-.05-2.46-.05-3.86,0-1.89,.03-3.71,.03-4.43-.03-2.9,.03-4.1-2.85-4.43-.16-.13-.21-.29-.21-.44,0-.18,.1-.34,.26-.34,0,0,1.76,.16,3.63,.16,.93,0,1.87-.05,2.62-.16h.03c.18,0,.29,.16,.29,.36,0,.13-.08,.31-.21,.42-2.57,.28-2.33,1.19-2.46,4.43Z"/><path class="cls-1" d="M130.98,19.5c-6.61,0-9.91-4.95-9.91-9.65,0-5.45,4.28-9.85,9.99-9.85,5.99,0,9.8,4.43,9.8,9.85s-3.53,9.65-9.88,9.65Zm-.08-18.65c-4.85,0-6.72,4.59-6.72,8.45,0,1.89,.62,9.34,6.95,9.34,4.77,0,6.61-3.92,6.61-8.33s-1.89-9.47-6.85-9.47Z"/><path class="cls-1" d="M166.98,2.57c-1.76,3.45-6.38,14.73-7.13,16.42-.13,.31-.26,.54-.52,.54-.26-.03-.44-.16-.57-.54-.41-1.45-3.32-7.26-3.32-7.26-.03,0-.05,.05-.1,.16-.73,1.69-1.97,4.95-2.85,7.13-.1,.29-.34,.54-.62,.57-.29,0-.44-.16-.6-.62-.31-1.01-1.69-4.05-3.16-7.29-1.48-3.19-3.4-7.05-4.2-8.87-.49-1.06-.91-1.45-1.92-1.63-.13-.13-.21-.31-.21-.44,0-.18,.08-.31,.26-.31,0,0,1.61,.13,3.32,.13,.88,0,1.76-.03,2.52-.13h.03c.18,0,.26,.16,.26,.31,0,.18-.08,.36-.23,.47-.83,.08-1.35,.26-1.35,.78,0,.13,.03,.29,.1,.47,1.09,2.96,4.18,9.05,5.84,12.89,.05,.13,.1,.21,.16,.21,.23,0,2.13-5.08,2.13-5.11,0-.39-3.29-7.18-3.5-7.6-.54-1.11-1.06-1.53-2.18-1.63-.13-.13-.21-.29-.21-.44s.1-.31,.26-.31c0,0,1.63,.1,3.4,.1,.88,0,1.79-.03,2.57-.1h.03c.16,0,.26,.16,.26,.31s-.08,.34-.23,.44c-.86,.13-1.3,.34-1.3,.8,0,.49,2.15,5.63,2.33,5.63s1.94-4.75,1.94-5.6c0-.47-.31-.8-1.53-.88-.18-.03-.26-.16-.26-.31,0-.21,.13-.42,.29-.42,.03,0,1.3,.13,2.75,.13,.7,0,1.48-.03,2.15-.13h.03c.13,0,.21,.18,.21,.36s-.08,.39-.29,.42c-.83,.1-1.4,.31-1.82,1.14-.57,1.14-2.8,6.25-2.8,6.56,0,.08,0,.16,.05,.23,.54,1.17,2.05,4.18,2.98,6.33,.08,.16,.13,.26,.18,.26s.08-.1,.16-.28c4.56-11.05,4.98-12.45,4.98-13.3,0-.49-.31-.86-1.89-.96-.16-.1-.23-.28-.23-.41,0-.18,.1-.34,.29-.34,0,0,1.37,.13,2.98,.13,.78,0,1.63-.03,2.39-.13h.03c.18,0,.29,.13,.29,.31,0,.16-.08,.31-.23,.44-.88,.16-1.45,.6-1.87,1.4Z"/></g></g></svg>