<?xml version="1.0" encoding="UTF-8"?><svg id="Layer_2" xmlns="http://www.w3.org/2000/svg" viewBox="0 0 233.21 34.23"><defs><style>.cls-1{fill:#fff;}</style></defs><g id="BOOK_NOW"><g><path class="cls-1" d="M20.84,2.73c-.72,0-1.92,.07-1.92,.5,0,.18,.17,.26,.49,.41,.07,.03,.15,.07,.22,.11,1.15,.6,2.34,1.5,3.24,2.47h0c.36,.36,.74,.55,1.12,.55,.72,0,1.29-.61,1.29-1.4,0-1.81-2.3-2.64-4.43-2.64Z"/><path class="cls-1" d="M17.51,27.01c-.27,0-.59,.04-.9,.08-.46,.09-.88,.25-1.36,.43-.57,.22-1.22,.46-2.13,.66-.99,.22-2.05,.33-3.14,.33-4.01,0-8.34-1.56-8.34-4.07,0-.51,.2-1.07,.57-1.61,.17-.25,.3-.63,.3-.86,0-.43-.27-.46-.35-.46-.5,0-2.15,1.79-2.15,3.8,0,3.47,4.81,6.19,10.95,6.19,4.7,0,8.67-1.43,8.67-3.12,0-.81-.85-1.36-2.11-1.36Z"/><path class="cls-1" d="M7.53,9.54c.28,.02,.57,.03,.85,.04,.28,0,.56,.02,.85,.04,.28,0,.35,.05,.36,.03-.1,.27-1.44,1.93-2.09,2.67-.26,.3-.42,.61-.42,.81,0,.22,.13,.35,.35,.35,.25,0,.57-.16,1.06-.53,2.97-2.31,5.85-2.92,6.63-2.96,1.33-.04,1.81-.64,1.81-1.17,0-.89-1.34-1.89-3.12-1.89-.31,0-.59,.03-.86,.06-.27,.03-.53,.06-.83,.06h-.11c-1.17,.04-2.28,.07-3.4,.07-1.5,0-3.24-.08-4.84-.66-.1-.03-.21-.07-.31-.11-.37-.13-.68-.24-.92-.24-.27,0-.39,.16-.39,.31,0,.38,1.55,2.79,5.39,3.12Z"/><path class="cls-1" d="M16.76,4.46c-.76,0-1.66,.08-1.66,.46,0,.17,.15,.29,.67,.55,.7,.39,2.05,1.25,3.16,2.57h0c.38,.42,.77,.63,1.16,.63,.71,0,1.29-.66,1.29-1.48,0-1.37-1.59-2.75-4.62-2.75Z"/><path class="cls-1" d="M60.14,12.51c-.16,0-.3,.05-.51,.18-.17,.1-.37,.31-.59,.53-.17,.17-.34,.35-.49,.47-.23,.2-.45,.33-.81,.33h-14.27c-1.94,0-6.97-.06-11.85-.56l-.22-.02v.22c0,.65,1.12,2.07,1.96,2.07h.09c3.93-.3,6.73-.3,9.99-.3h2.75c.21,1.41,.27,7.1,.27,10.03,0,1.55-.04,2.92-.07,3.59-.07,1.33-.65,1.83-2.16,1.83-1.12,0-2.8-.3-4.57-.63-.21-.04-.37-.04-.45-.04-.13,0-.39,0-.39,.24s.3,.43,1.71,1.21c1.04,.57,2.47,1.36,2.78,1.83,.23,.35,.47,.58,.88,.58,1.74,0,5.03-.95,5.03-4.55,0-.41-.04-1.09-.08-1.76-.04-.64-.07-1.24-.07-1.58v-2.36c0-2.13,0-4.79,.04-5.99,0-.21,0-.39,.01-.54,0-.74,.03-.81,.29-.88,.53-.14,.86-.45,.86-.79,0-.06-.01-.12-.04-.17h7.48c.07,0,.12,0,.15,.01-.33,.58-3.32,3.56-5.33,5.04-.14,.07-.26,.25-.26,.41,0,.1,.07,.28,.35,.28,.81,0,7.22-3.47,7.29-3.51,1-.56,1.34-.69,2.42-.72,.83-.04,1.35-.44,1.35-1.03,0-.97-2.7-3.39-3.54-3.39Z"/><path class="cls-1" d="M37.25,5.27h.09c3.93-.3,7.31-.3,10.59-.3h4.79c.12,0,.16,.03,.17,.02-.11,.4-2.29,2.87-4.1,4.73-2.5-1.5-6.37-2.08-6.9-2.08-.36,0-.39,.21-.39,.28,0,.18,.14,.28,.44,.47,2.11,1.22,4.76,3.18,5.74,4.59,.49,.68,1.02,1.02,1.59,1.02,.77,0,1.4-.75,1.4-1.66,0-.75-.45-1.46-.87-1.85,1.56-.97,3.5-2.27,4.93-3.22l.45-.3c.74-.48,1.41-.61,2.06-.75l.23-.05c.75-.14,1.25-.61,1.25-1.17,0-1.05-2.8-2.9-3.54-2.9-.27,0-.51,.17-1.63,1.14-.26,.22-.44,.32-.77,.32h-4.83c-1.65,0-7.43-.04-12.45-.56l-.22-.02v.22c0,.65,1.12,2.07,1.96,2.07Z"/><path class="cls-1" d="M90.06,20.11h0c.59,.7,1.24,1.09,1.84,1.09,.81,0,1.4-.64,1.4-1.51,0-3.23-6.95-4.1-7.88-4.1-.26,0-.31,.13-.31,.24,0,.13,.07,.18,.37,.38l.28,.19c1.32,.9,3.24,2.42,4.3,3.71Z"/><path class="cls-1" d="M99.06,6.74c-.36,0-1.02,.84-1.21,1.09-.1,.13-.16,.22-.48,.22h-8.58c.73-1.39,1.34-2.7,1.79-3.67l.07-.16c.16-.38,.18-.44,.58-.53,.83-.18,1.13-.63,1.13-.98,0-.96-3.64-2-3.95-2s-.31,.34-.31,.61c0,3.44-3.61,11.54-4.76,13.34-.21,.34-.33,.56-.4,.7-1.2-1.37-3.01-2.41-3.52-2.41-.2,0-.28,.15-.28,.28,0,.09,.03,.22,.26,.56,.31,.49,.75,1.2,1.12,2.01-1.39,.17-3.49,.34-5.77,.46,1.97-2.09,4.59-5.58,6.44-8.08,.26-.33,.44-.46,.72-.49,1.11-.11,1.23-.6,1.23-.8,0-.76-3.23-2.22-3.57-2.22-.28,0-.32,.32-.35,.55-.51,3.34-5.15,10.03-5.94,11.14h-.91c-.44,0-1.56-.02-2.66-.15-.04,0-.07,0-.11-.02-.14-.03-.43-.04-.43,.26,0,.38,1.33,3.05,1.96,3.05,.19,0,.36-.12,.52-.23,.13-.09,.27-.19,.42-.22,.4-.08,1.05-.24,1.83-.43,.54-.13,1.13-.27,1.75-.42,.04,.94,.06,1.78,.06,2.48,0,4.2-.13,8.25-.37,12.06v.15c0,.95,.59,1.29,1.14,1.29,.46,0,.94-.21,1.26-.54,.28-.29,.42-.66,.4-1.05-.07-2.99-.15-7.63-.15-10.75s0-3.22,.41-3.45c.36-.18,.56-.42,.56-.67,0-.11-.04-.21-.11-.29,.82-.22,1.5-.41,2.02-.58,.07,.26,.12,.52,.17,.78l.03,.16c.26,1.54,1.12,1.7,1.47,1.7,.71,0,1.48-.68,1.48-1.77,0-.64-.29-1.29-.73-1.9,.77-.42,2.64-2.65,4.69-6.37h9.4c.2,0,.36,.03,.36,.4,0,6.62-.09,11.23-.52,13.71-1.11,6.09-3.74,6.91-6.17,6.91-1.47,0-3.13-.36-4.56-.71l-.11-.03c-.11-.03-.2-.05-.28-.05-.11,0-.19,.07-.22,.1l-.06,.06v.08c0,.2,.16,.31,1.66,1.14,1.14,.63,3.05,1.69,3.23,2.12,.07,.16,.26,.42,.79,.42h0c4.4-.22,7.55-3.87,8.43-9.76,.43-2.75,.49-6.5,.49-9.81v-2.32c0-.96,.1-1.01,.75-1.36,.85-.42,.97-.93,.97-1.19,0-1.03-2.65-2.45-3.12-2.45Z"/><path class="cls-1" d="M70.28,8.23c.94,.75,2.01,1.66,2.75,3.08,.37,.74,.93,1.16,1.53,1.16,.74,0,1.36-.73,1.36-1.59,0-.7-.23-1.6-1.95-2.47,1.03-1.37,2.48-3.49,3.31-4.96,.2-.36,.3-.43,.68-.5,.74-.12,1.18-.42,1.18-.8,0-.94-3.83-2.15-3.87-2.15-.28,0-.28,.25-.28,.39V.91c0,.85-.24,2.42-2.08,7.04-1.03-.39-2.18-.58-2.66-.58-.27,0-.39,.14-.39,.28,0,.18,.15,.38,.41,.57Z"/><path class="cls-1" d="M79.09,21.13h-.08l-.16,.16v.08c0,.11,.06,.2,.16,.37,.04,.06,.08,.13,.13,.22,.76,1.18,1.56,3.14,2.03,4.99,.26,1.14,.91,1.54,1.43,1.54,.79,0,1.44-.81,1.44-1.81,0-2.73-4.41-5.56-4.96-5.56Z"/><path class="cls-1" d="M71.37,20.72c-.28,0-.28,.42-.28,.57,0,3.79-1.88,8.92-2.56,10.36-.12,.23-.17,.42-.17,.58,0,.2,.14,.31,.28,.31,.6,0,2.97-3.25,4.92-8.35,.18-.51,.22-.63,.67-.72,.7-.16,1.05-.44,1.05-.83,0-.98-3.5-1.92-3.91-1.92Z"/><path class="cls-1" d="M135.14,24.81c0-.57-.04-1.16-.07-1.73-.02-.28-.03-.56-.04-.83-.07-1.01-.22-3.73-.22-7.14v-1.5c3.36-.96,5.06-2.18,5.06-3.6,0-1.03-.79-1.31-2.09-1.65-.32-.1-1.07-.4-1.73-.67-.25-.1-.49-.2-.69-.28,.03-.2,.05-.39,.05-.58,0-1.37-1.89-2.97-2.86-2.97s-1.77,.98-1.77,1.36c0,.45,.51,.59,1.03,.72,.82,.23,.99,.28,.99,3.81v2.03c-.87,.11-1.26,.13-1.41,.13-1.08,0-1.97-.2-2.53-.37-.44-.13-1.1-.41-1.68-.66-.39-.17-.76-.32-1.05-.43-.3-.11-.7-.24-.93-.24-.26,0-.35,.16-.35,.31,0,.55,1.74,3.69,6.31,3.69,.27,0,.87,0,1.64-.14,.04,3.46,.07,6.99,.11,8.59v1.63c-.75-.12-1.5-.19-2.23-.19-3.91,0-6.98,1.77-6.98,4.02,0,2.13,2.54,4.13,5.22,4.13,2.88,0,5.44-2.25,6.07-5.29,1.37,.76,2.57,1.89,3.32,3.13,.58,.91,1.1,1.11,1.44,1.11,.69,0,1.25-.73,1.25-1.62,0-1.72-3.06-3.92-5.84-4.8Zm-.25-13.49c.02-.42,.1-1.36,.36-3.19,1.36,.81,1.93,1.17,1.93,1.62,0,.23,0,.92-2.29,1.57Zm-5.27,14.48c.91,0,1.94,.15,3.06,.43-.52,2.21-2.23,3.62-4.41,3.62-1.12,0-3.02-.37-3.02-1.75,0-1.11,1.76-2.31,4.37-2.31Z"/><path class="cls-1" d="M119.85,16.86c-.91,0-4.09,7.32-4.12,7.39-.12,.3-.21,.43-.25,.48-.14-.23-.34-1.08-.34-2.13,0-2.51,1.07-5.21,2.01-7.61,.21-.54,.41-1.01,.6-1.45,.49-1.14,.88-2.04,.88-3.08,0-2.81-2.92-6.23-4.36-6.23-.62,0-.69,.27-.69,.39,0,.15,.11,.28,.27,.48,.06,.07,.12,.15,.18,.24,1.23,1.69,1.8,3.25,1.8,4.9,0,1.09-.24,2.14-.49,3.25l-.14,.61c-.18,.78-.38,1.57-.6,2.4-.66,2.52-1.35,5.13-1.35,8.13,0,3.95,1.17,8.22,3.05,8.22,.67,0,1.14-.58,1.14-1.4,0-.32-.08-.69-.24-1.09-.19-.45-.28-.99-.28-1.68,0-1.56,.83-5.84,3.05-10.66,.17-.33,.25-.58,.25-.76,0-.29-.19-.39-.35-.39Z"/><path class="cls-1" d="M158.87,9.54c.28,.02,.57,.03,.85,.04,.28,0,.56,.02,.85,.04,.28,0,.35,.05,.36,.03-.1,.27-1.44,1.93-2.09,2.67-.26,.3-.42,.61-.42,.81,0,.22,.13,.35,.35,.35,.25,0,.57-.16,1.06-.53,2.97-2.31,5.85-2.92,6.63-2.96,1.33-.04,1.81-.64,1.81-1.17,0-.89-1.34-1.89-3.12-1.89-.31,0-.59,.03-.86,.06-.27,.03-.53,.06-.83,.06h-.11c-1.17,.04-2.28,.07-3.4,.07-1.5,0-3.24-.08-4.84-.66-.1-.03-.21-.07-.31-.11-.37-.13-.68-.24-.92-.24-.27,0-.39,.16-.39,.31,0,.38,1.55,2.79,5.39,3.12Z"/><path class="cls-1" d="M168.84,27.01c-.27,0-.59,.04-.9,.08-.46,.09-.88,.25-1.36,.43-.57,.22-1.22,.46-2.13,.66-.99,.22-2.05,.33-3.14,.33-4.01,0-8.34-1.56-8.34-4.07,0-.51,.2-1.07,.57-1.61,.17-.25,.3-.63,.3-.86,0-.43-.27-.46-.35-.46-.5,0-2.15,1.79-2.15,3.8,0,3.47,4.81,6.19,10.95,6.19,4.7,0,8.67-1.43,8.67-3.12,0-.81-.85-1.36-2.11-1.36Z"/><path class="cls-1" d="M195.59,17.76c-1.56,0-3.17,.55-4.91,1.69-.82,.59-2.86,1.69-3.33,1.69-.12,0-.25,0-.25-.88,0-1.99,.7-6.01,1.21-9,2.06-.85,5.38-2.45,5.38-3.85,0-.51-.48-.88-1.14-.88-.36,0-.73,.1-1.07,.29-.18,.1-.41,.24-.69,.4-.54,.32-1.25,.75-1.97,1.13,.23-1.21,.53-3.11,.53-3.57,0-1.26-.86-2.56-2.3-2.56-1.16,0-2,.9-2,1.51,0,.1,.04,.43,.54,.43h.22c.31,0,.96,0,.96,3.06,0,.39-.03,.82-.06,1.28-.02,.26-.03,.53-.05,.8h-.04c-.9,.24-1.49,.34-2.05,.34-.89,0-1.71-.28-3.24-1.1-.71-.4-1.24-.35-1.24,.1,0,.72,1.44,3.5,4.66,3.5,.55,0,1.11-.09,1.67-.28-.33,2.63-.81,5.46-1.16,7.15-.26,1.32-.42,2.69-.42,3.75,0,2.49,1.15,3.61,1.96,3.61,.43,0,1.03-.25,1.5-1.44,.4-1.07,3.19-5.26,6.63-5.26,2.93,0,4.29,2.29,4.29,3.84,0,1.38-.76,6.08-10.53,8.61-1.99,.52-1.99,.69-1.99,.87,0,.28,.3,.28,.61,.28,.1,0,9.77-.24,13.35-5.56,.9-1.31,1.42-2.86,1.42-4.23,0-4.03-4.25-5.71-6.53-5.71Z"/><path class="cls-1" d="M226.98,19.18c-1.39,0-2.89,.46-4.12,1.27-1.05,.69-1.85,1.36-2.5,1.9-.45,.38-.85,.71-1.2,.94-.49,.32-.88,.53-1.16,.53-.71,0-1.11-1.09-1.11-2.98,0-1.5,.28-3.31,.52-4.57,.1-.52,.2-.95,.29-1.33,.19-.86,.32-1.42,.32-2.04s-.09-1.14-.31-1.83c-.09-.24-.14-.57-.14-.98,0-.72,.25-2.38,2.61-2.38,.76,0,1.84,.11,2.53,.37l.27,.08c.42,.13,.81,.26,1.18,.26,.75,0,1.59-.76,1.59-1.85,0-2.54-4.72-4.7-5.3-4.7-.28,0-.35,.17-.35,.28,0,.13,.06,.26,.14,.41,.05,.1,.1,.21,.13,.32,.06,.21,.19,.39,.35,.61,.2,.27,.43,.59,.55,1.03,0,.04,.02,.07,.03,.11,0,.39-.63,.79-.84,.91-.2,.12-.4,.23-.6,.34-2.11,1.19-4.29,2.42-4.29,5.23,0,.23,0,.46,.04,.74,.04,.25,.04,.58,.04,.87,0,.99-.11,2.02-.19,2.37l-.13,.96c-.26,1.88-.55,4-.55,5.7,0,4.37,2.28,5.78,3.39,5.78,.6,0,1.13-.36,1.77-1.2,.31-.41,.58-.8,.84-1.15,.99-1.38,1.7-2.38,3.02-3.38,.74-.57,1.58-.86,2.5-.86,1.97,0,4.11,1.47,4.11,3.84,0,2.99-3.47,6.86-10.11,8.46-1.77,.41-1.77,.57-1.77,.72,0,.28,.3,.28,.61,.28,5.76,0,14.1-3.38,14.1-9.49,0-2.96-2.91-5.56-6.23-5.56Z"/></g></g></svg>