<?xml version="1.0" encoding="utf-8"?>
<!-- Generator: Adobe Illustrator 26.3.1, SVG Export Plug-In . SVG Version: 6.00 Build 0)  -->
<svg version="1.1" id="Layer_1" xmlns="http://www.w3.org/2000/svg" xmlns:xlink="http://www.w3.org/1999/xlink" x="0px" y="0px"
	 viewBox="0 0 500 500" style="enable-background:new 0 0 500 500;" xml:space="preserve">
<path d="M161.8,101.3c11.6-25.7,13.3-25.7,14.1-25.7c0.6,0,0.6,0.7,0.6,0.9c0,0.8-0.4,2.1-0.8,3.1c-6.7,17.7-22.4,60.7-22.4,79.3
	c0,3.2,0.4,5.9,1.4,8.4c0.8,2.2,1.2,4.2,1.2,6c0,5.5-3.3,8.4-6.6,8.4c-4.4,0-6.5-4.9-6.5-9.5c0-0.3,0-0.5,0.1-0.8
	c0-0.3,0.1-0.6,0.1-0.9c0.1-1.8,0.3-3.5,0.6-5.2c0.3-2.2,0.6-4.2,0.6-6.1c0-4.2-1.1-8.4-9.4-10.5c-2.6-0.6-3.7-1.2-3.7-2
	c0-0.8,1-1.1,4-1.3c4.9-0.1,8.5-0.6,10.3-5.2C148.8,131.4,155.5,115.2,161.8,101.3z M162.7,132.3c0,0.5,0.4,0.9,0.9,0.9
	c1.5,0,16.4-7.5,29.1-35.7c0.7-1.6,1-1.9,2.3-2.1c3-0.5,3.5-1.7,3.5-2.4c0-3.2-12.8-7.5-13.9-7.5c-1,0-1,0.7-1.1,1.2
	c0,0.1,0,0.2-0.1,0.5c-0.8,15.3-13.2,35.7-19.3,42.8C163.1,131.1,162.7,131.8,162.7,132.3z M189.4,83.6h0.1c0,0,0.1,0,0.1,0
	c5.2-0.8,11.3-1.1,13.4-1.1h5.6c1.1,0,1.7,0.2,1.9,1.5c3.5,24.5,18.2,42.8,21.9,42.8c0.8,0,1.4-0.3,2.1-0.7
	c3.2-2.3,7.8-3.1,10.9-3.6c2.4-0.4,3.3-0.5,3.3-1.3c0-0.3-0.2-0.6-1.3-1.1c-23.3-8.9-31.5-31.3-31.7-34c0-0.4,0.4-0.6,2.2-0.9
	c0.7-0.1,1.5-0.3,2.4-0.6c1.8-0.5,3.8-1.7,3.8-3.3c0-3-7.7-7.7-9.4-7.7c-0.9,0-1.5,0.5-4.3,3.9c-0.4,0.5-1.1,0.9-1.5,0.9h-6
	c-2.5,0-10.6-0.3-18.5-1.8c-0.2,0-0.3,0-0.4,0.1c-0.1,0.1-0.2,0.2-0.2,0.4C183.6,78.7,187.3,83.6,189.4,83.6z M131,105.6
	c3.4,1.9,7.9,6.2,10.1,9.1c1.6,2.1,3.5,3.2,5.4,3.2c3.1,0,5.7-2.9,5.7-6.3c0-3.8-2.5-6.6-7.2-8.1c-2.4-0.8-5.4-1.2-8.7-1.2
	c-1.7,0-7.2,0.1-7.2,1.5C129.1,104.3,129.5,104.7,131,105.6z M176.7,177.9c0.6-8,0.9-16.6,0.9-26.5c0-10.3-0.3-16.7-1.6-23.2
	c0,0,0-0.1,0-0.1c0,0,0-0.1,0-0.1c0-0.1-0.1-0.2-0.1-0.4c0-1,0.7-1,0.9-1c1.5,0,10.3,3.7,13.3,5.8l0.2,0.2h24.4
	c0.5,0,0.8-0.1,1.2-0.7c2.2-2.9,3.8-4.3,4.9-4.3c2,0,11.4,5.2,11.4,8.2c0,1.4-1.3,2.4-2.9,3.5c-2.4,1.5-2.6,1.9-2.6,8.6
	c0,7.1,0.5,18.9,1.1,28l0,0.4c0,3.8-3.8,5.2-6.2,5.2c-3,0-4.8-1.7-4.8-4.4v-4.8h-29.2l0.1,5.3c0,2.5-1.9,5.2-6.2,5.2
	c-2.4,0-4.8-1.4-4.8-4.4V177.9z M217.1,151c0-5.2,0-9.7-0.3-12.8c0-0.6-0.1-1.2-1.4-1.2H190l-0.7,0.6c-1.7,1.2-1.7,1.2-1.7,14.8
	c0,5.1,0,10.3,0.1,15.4H217C217.1,162,217.1,156.2,217.1,151z M140.5,76c0.2,0.1,0.4,0.3,0.7,0.5c3.5,2.5,7.3,7.3,9.1,10.6
	c2,3.6,4.4,4.3,6,4.3c3.2,0,5.8-2.9,5.8-6.5c0-7.3-9.6-11.2-19-11.2c-3.8,0-3.8,0.5-3.8,0.9C139.3,75.2,139.7,75.4,140.5,76z
	 M252.1,178.1c1.4,0,9.4-8.7,17.1-27.9c0,0,0-0.1,0-0.1c0.6-1.7,0.8-2.2,2.4-2.5c3.1-0.7,3.4-2.1,3.4-2.7c0-3.4-13.3-6.6-13.9-6.6
	c-0.8,0-0.8,1.3-0.8,1.8c0,9.4-4.6,27.2-8.4,35.1c-0.4,0.9-0.5,1.5-0.5,2C251.3,177.8,251.5,178.1,252.1,178.1z M305.4,80.4
	c-0.1-0.4-0.1-0.7-0.1-0.9c0-0.6,0.4-0.9,0.8-0.9c1.5,0,9.5,3.8,12.5,5.9l0.2,0.2h2.9c1-4.2,2-9,2-14.3c0-0.5,0-1-0.1-1.5
	c0-0.4-0.1-0.8-0.1-1.2c0-0.3,0-1.3,0.9-1.3c0.7,0,14.6,3.8,14.6,7.5c0,1.3-1.6,2.7-4.5,2.8c-1.1,0.1-1.3,0.5-1.9,1.3l-0.1,0.1
	c-1.7,2.3-3.6,4.5-5.4,6.5h15.7c0.7,0,1.2-0.6,1.4-0.8c2.8-3.7,3.7-4.3,4.7-4.3c0.8,0,3.7,1.5,5.8,3c2.3,1.5,4.9,3.7,4.9,5.4
	c0,1.7-1.8,2.8-3.5,3.6c-1.3,0.7-1.6,1.1-1.6,6.6c0,7.4,0.5,18.6,0.9,23.8l0,0.3c0,1.4-1,5.2-5.8,5.2c-2.2,0-4.6-1.4-4.6-4.4V122
	H337c1,0.4,1.5,0.9,1.5,1.9c0,0.6-0.3,1.4-1.6,2.1c1.4,5.9,3.5,11.7,6,16.8c2.6-2.3,10.1-9.4,11.8-13.9l0-0.1c0.1-0.4,0.2-1,1-1
	c1.8,0,11.4,7.1,11.4,10.4c0,0.5-0.2,2-2.9,2c-0.5,0-1-0.1-1.6-0.2l-0.4-0.1c-0.5-0.1-1-0.2-1.4-0.2c-0.4,0-0.9,0.1-1.5,0.3
	c-3.6,1.4-9.5,3.6-14.9,5.4c6.7,12.2,16.1,20.6,27.2,24.3c0.7,0.2,1.4,0.5,1.4,1.1c0,0.8-1.1,1.1-3.9,1.7c-3,0.7-7.1,1.7-9.2,3.5
	c-0.8,0.6-1.4,0.9-2,0.9c-2.4,0-17.6-13.4-23.2-48.6c-0.1,1-0.2,2.8-0.2,6.1c0,2,0.1,13.2,1.1,34.9l0,0.5c0,6.7-4.8,13.4-14.1,13.4
	c-1.5,0-2.4-0.6-3.2-2c-1.1-2-5.7-4.7-8.7-6.6c-3.2-1.9-3.9-2.4-3.9-2.9c0-0.1,0-0.8,1-0.8c0.2,0,0.5,0.1,1,0.2l0.5,0.1
	c4.6,1,8.4,1.5,11.2,1.5c6.8,0,6.8-1.6,6.8-12.3c0-1.2,0-29.9-1.1-38.4h-8.9v1.5c0,2.6-2.7,4.8-5.8,4.8c-2.2,0-4.4-1.3-4.4-4.2v-0.4
	c0.7-8.8,1-21.3,1-27.1C306.9,94.1,306.4,85.3,305.4,80.4z M345.2,100.7c0-11-0.1-11.6-1.5-11.6H319l-0.1,0.1
	c-0.5,0.4-1.1,0.8-1.9,1.3c-0.6,0.4-1.1,1.4-1.1,10.3H345.2z M315.9,105c0,4.4,0,8.8,0.1,12.6h28.9c0.1-3.9,0.2-8.3,0.2-12.6H315.9z
	 M284.6,138c0,0.4,0.5,1.3,1,1.9c2.7,4.3,4.8,11.3,5.8,15.1c1.2,4.7,4,5.2,5.2,5.2c2.5,0,5.2-2.3,5.2-6.1c0-8.6-14.8-16.7-16.5-16.7
	C284.9,137.4,284.6,137.6,284.6,138z M288.3,177.1c-1.2,0.8-1.9,1.6-1.9,2.2c0,0.1,0,0.8,1,0.8c3.6,0,23.7-9.2,33.3-35.5
	c0.6-1.7,1.2-2.1,1.9-2.4c0.1-0.1,0.3-0.1,0.4-0.2l0.2-0.1c0.8-0.6,2.1-1.4,2.1-2.6c0-2.4-7.3-7.5-8.8-7.5c-0.7,0-1.7,1-3,2.5
	c-0.1,0.1-0.2,0.2-0.3,0.3c0,0,0,0,0,0.1c-0.4,0.6-0.8,0.8-1,0.8h-2.9c-1.4,0-6.7-0.1-13.8-1.5c-0.2,0-0.3,0-0.4,0.1
	c-0.1,0.1-0.2,0.2-0.2,0.4c0,1.3,3.5,6.2,5.1,6.2c0,0,0.1,0,0.1,0c4.8-0.8,8.5-1,9.9-1h2.4c0.2,0,0.2,0,0.2,0.2
	C312.6,142.3,304.8,165.9,288.3,177.1z M257.6,96.1c2.6,2.1,6.2,5.7,8.9,10.7c1.4,2.6,3.3,4.1,5.4,4.1c2.7,0,4.8-2.6,4.8-5.7
	c0-3.4-2.3-6.3-6.6-8.5c3.6-4.5,8.5-11.4,11.3-16.3c0.7-1.3,1.1-1.5,2.4-1.8c3.6-0.4,3.9-2,3.9-2.5c0-3.3-13.2-7.7-13.9-7.7
	c-0.9,0-0.9,0.8-0.9,1.9c0,3.4-0.7,9.3-6.4,24.9c-3.4-1.1-6.4-1.6-8.9-1.6c-0.7,0-1.4,0-1.4,0.8C256.1,94.8,256.5,95.2,257.6,96.1z
	 M260.7,134.9c0.7,0,1.2-0.5,1.7-0.9c0.4-0.4,0.9-0.7,1.4-0.9l11.3-3c0.2,3.3,0.2,7.4,0.2,10.7c0,11.7-0.5,25.4-1.3,37.8v0.5
	c0,3.5,2.4,4.7,4.4,4.7c2.9,0,6.1-2,6.1-5.3l0-0.3c-0.3-11.9-0.6-25.4-0.6-35.5c0-11.3,0.1-11.4,1.5-12.2c0.9-0.6,1.8-1.2,1.8-2.1
	c0-0.6-0.4-1.1-1-1.5l5.2-1.6c0.2,0.9,0.4,1.6,0.5,2.2c0.7,3.6,2.6,5.7,5.1,5.7c2.6,0,5.2-2.3,5.2-6.2c0-7.9-13-15.3-15.8-15.3
	c-0.4,0-0.8,0.4-0.8,0.8c0,0.3,0.1,0.7,0.8,1.8c1.6,2.6,2.9,5.1,3.9,7.5c-4.5,0.5-10.3,0.8-15.9,1.2l-1.2,0.1
	c7.8-8.1,17.4-20.6,22.6-27.5c0.8-1.1,1.4-1.6,2.5-1.7c3.7-0.2,4-1.9,4-2.4c0-2.9-11.8-8.5-13.1-8.5c-0.8,0-0.9,0.9-1,1.7
	c-1.6,10.9-18.2,35.9-19.9,38.6c-0.4,0-0.8,0-1.1,0.1c-0.4,0-0.8,0.1-1.1,0.1h-2c-1.2,0-5.2,0-8.9-0.5c-0.2,0-0.3,0-0.4-0.1
	c-0.1,0-0.3-0.1-0.5-0.1c-0.2,0-0.8,0.1-0.8,0.8C253.6,123.6,257.9,134.9,260.7,134.9z M133.5,288.6c-9.8,0-15.1-7.1-15.1-12.2
	c0-7.3,9-12.3,21.9-12.3c1.8,0,3.6,0.2,5.5,0.4c0-1.7-0.1-3.5-0.2-5.3c0-0.8-0.1-1.5-0.1-2.2c-0.2-2.9-0.3-5.9-0.3-8.9
	c-2.6,0.6-7.9,1.2-11.5,1.2c-15.6,0-19.2-8.4-19.2-9.7c0-0.5,0.5-1,1.1-1c0.6,0,1.5,0.3,2.3,0.6l0.5,0.2c4.4,1.6,8.6,2.3,13.5,2.3
	c2,0,8.5-0.3,13.4-1.6c0-5.2,0.1-9.9,0.4-14.1c-0.2,0-0.3,0-0.5,0c-0.4,0-0.7,0.1-1.1,0.1c-16.6,0-17.4-12.3-17.4-12.4
	c0-1.1,0.7-1.2,1-1.2c0.5,0,1,0.4,1.7,0.8c0.2,0.1,0.3,0.2,0.5,0.3c3.9,2.3,8.5,4.7,13.6,4.7c1,0,2-0.1,2.9-0.2l0,0l0.4-4.1
	c0.7-7,0.9-9.2,0.9-10.4c0-4.1-0.9-4.5-2.6-5.1c-2-0.7-3.2-1.1-3.2-2.1c0-1,2.9-4.4,5.9-4.4c4.1,0,8.7,6,8.7,9.2
	c0,1.3-0.4,2.6-0.8,4.1c-0.2,0.5-0.3,1.1-0.5,1.7c-0.9,2.6-1.5,5.7-2,8.8l0.3-0.1c2.2-1.3,3.9-2,6-2c3.6,0,3.9,2.4,3.9,3.5
	c0,4-6.1,6.8-11.5,8c-0.3,2.8-0.4,5.7-0.4,9.1c0,0.8,0,1.6,0.1,2.4c0,0.6,0,1.1,0,1.7c4.7-1.6,7.6-3.5,7.6-4.8
	c0-0.9-1.5-2.3-4.2-4.6c-0.4-0.3-0.8-0.7-0.8-1.2c0-0.4,0.3-0.6,0.9-0.6c0.3,0,0.7,0.1,1.3,0.4c2.7,1.2,6.6,2.4,9.4,2.5
	c3.1,0.1,5.1,1.6,5.1,3.7c0,3.4-5,8.5-18.8,12.7c0.2,3.6,0.5,7.2,1,10.7l0.8,5.5c0.2,1.2,0.4,2.4,0.5,3.7
	c8.2,2.8,16.6,9.1,16.6,15.1c0,2.8-1.8,4.9-4.3,4.9c-1.9,0-3.8-1.3-5.3-3.7c-1.8-2.8-4.4-5.4-7.6-7.5
	C150.2,283.9,140.8,288.6,133.5,288.6z M137.1,269.9c-5.4,0-13.9,1.6-13.9,6c0,2.8,3.7,5,8.4,5c9,0,13-5.8,14-9.6
	C142.8,270.4,139.9,269.9,137.1,269.9z M220.8,292.3c0,0.7-0.1,1.4-0.2,2c12.2-3.3,16.6-11.9,16.6-18.9c0-7.7-5.3-16-16.8-16
	c-4.8,0-16.6,1.6-23.6,16.4c-2.7,5.9-4.6,9.4-8.6,9.4c-2.3,0-4-1.8-4-4.3c0-3.4,4.3-8.4,9.3-14.1c6.7-7.7,22.2-28.6,26.7-36.1
	c0.4-0.6,0.7-1.3,0.7-1.8c0-1.1-1.2-1.4-2.2-1.4c-2.1,0-3.8,2-5.7,4.4c-2.4,2.9-5,6.2-9.3,6.2c-4.6,0-7.9-3-7.9-7.2
	c0-1.8,0.5-2.7,1.5-2.7c0.7,0,1.4,0.3,2.3,0.6c0.7,0.3,1.5,0.4,2.5,0.4c1.6,0,3-0.5,4.2-1.4l0.4-0.3c4.4-3,9.3-6.5,15.1-6.5
	c6.8,0,11,4.8,11,7.5c0,2.4-2.4,4.5-4.9,6.4c-6.5,5-17.1,18.6-20.8,23.5c4.8-2.7,10.4-4.1,16.1-4.1c15.2,0,23.5,10.9,23.5,21.1
	c0,10.3-9.8,25.7-31,25.7c-10.5,0-18.4-5.1-18.4-11.8c0-5.7,5.8-8.8,11.3-8.8C216.2,280.4,220.8,286.4,220.8,292.3z M202.2,288.9
	c0,0.9,0.5,5.1,10.2,6.2c0.5-1,0.8-2.1,0.8-3.2c0-3.7-2.9-6.7-6.5-6.7C202.5,285.2,202.2,288,202.2,288.9z M258.6,265.4
	c0,10.6,14.4,18.8,32.8,18.8c8.3,0,25.6-2.4,25.6-9.7c0-2.8-2.8-4.6-7-4.6c-0.8,0-1.7,0.1-2.5,0.2l-0.1,0c-1.4,0.2-2.6,0.7-4,1.3
	c-1.3,0.6-2.9,1.2-4.8,1.7c-3.4,0.8-6.9,1.2-10.2,1.2c-11.8,0-24.5-4.6-24.5-12.1c0-1.3,0.5-2.9,1.5-4.5c0.3-0.6,1.1-2,1.1-3
	c0-1.1-0.7-1.2-1-1.2C263.6,253.6,258.6,259.8,258.6,265.4z M326.2,209.4c1.3,1.4,2.6,1.7,3.5,1.7c2.1,0,3.7-1.9,3.7-4.2
	c0-5.7-7.9-7.8-13.2-7.8c-0.1,0-5.5,0-5.5,1.5c0,0.6,0.7,1,2.2,1.7C320.1,203.9,323.5,206.5,326.2,209.4z M322,212.3
	c0-5.8-8-7.9-13.3-7.9c-5,0-5,0.9-5,1.3c0,0.5,0.5,0.8,1.3,1.3c0.2,0.1,0.4,0.2,0.7,0.4c2.5,1.3,6.2,4,9.2,7.5c0,0,0,0,0,0
	c1.1,1.2,2.2,1.8,3.4,1.8C320.2,216.6,322,214.7,322,212.3z M269.4,210.1c-1.8-0.6-3-1-3.7-1c-0.9,0-1,0.7-1,0.9
	c0,1.2,4.4,8.5,16,10c1,0.2,2,0.2,2.9,0.3c0.5,0,0.9,0,1.4,0.1c0.2,0,1,0.1,1.1,0.3c0,0.5-1.8,3.1-5.1,6.8c-1.6,1.9-1.8,2.6-1.8,3
	c0,0.5,0.3,0.9,0.9,0.9c0.8,0,2.3-1,3.5-1.9c6.5-4.9,15-7.9,19.6-8.1c0,0,0,0,0,0c3.7-0.1,6-1.6,6-3.8c0-2.1-3-6.1-10.1-6.1
	c-1.1,0-2.2,0.1-3.2,0.2c-0.5,0-1.1,0.1-1.6,0.1c-3.6,0.2-7.2,0.3-10.7,0.3C279.2,212,274.1,211.7,269.4,210.1z M375.3,286.5
	c-1.2,0-2.6,0.4-4,1c-3.9,2-8.9,3-14.1,3c-10.2,0-16.6-4.4-16.6-11.5c0-6.3,5.4-10.7,8.6-12.7c5.2-3.2,10.9-4.7,14.3-4.7h1
	c0.2,0,0.4,0,0.7,0.1c0.3,0,0.5,0.1,0.8,0.1c6.1,0,9.9-3.6,9.9-6.9c0-3.3-3-4.5-5.8-4.5c-1.2,0-2.7,0.2-4.3,0.7
	c-1.9,0.5-3.1,1.1-4.5,1.7c-0.6,0.3-1.2,0.5-1.8,0.8c-3.7-1.5-5.4-5.1-5.4-11.2c0-5.1,1.3-10.7,2.5-15.6c0.2-0.6,0.3-1.3,0.4-1.9
	c0.1-0.4,0.2-0.8,0.3-1.1c0.5-2,0.9-3.8,0.9-5.8c0-5-5.4-11.5-11.1-11.5c-4.2,0-6,3.2-6,4.2c0,1.2,1.4,1.7,2.6,1.9
	c3.3,0.8,4.8,1.1,4.8,5.8c0,1.7-0.2,3.9-0.5,6.9c-0.1,0.9-0.2,1.8-0.3,2.7c-0.5,3.9-1.1,8.3-1.1,12.6c0,8,2.2,13.1,6.9,15.8
	c-11.3,5.7-18.8,15.4-18.8,24.4c0,7.9,6.9,19.7,25.9,19.7c6.7,0,20.5-2.1,20.5-8.8C381,288.7,378.5,286.5,375.3,286.5z M170.1,325.1
	h-9.3c-0.3,0-0.5,0.2-0.5,0.5v16.5h-14.7v-16.5c0-0.3-0.2-0.5-0.5-0.5h-9.3c-0.3,0-0.5,0.2-0.5,0.5v43.1c0,0.3,0.2,0.5,0.5,0.5h9.3
	c0.3,0,0.5-0.2,0.5-0.5v-18.3h14.7v18.3c0,0.3,0.2,0.5,0.5,0.5h9.3c0.3,0,0.5-0.2,0.5-0.5v-43.1
	C170.6,325.4,170.4,325.1,170.1,325.1z M200.5,370.1c-12.4,0-19.7-8.5-19.7-22.8c0-14.3,7.4-22.8,19.8-22.8
	c12.4,0,19.7,8.5,19.7,22.7C220.3,361.5,212.9,370.1,200.5,370.1z M200.6,332.4c-5.7,0-8.9,5.3-8.9,14.9c0,9.6,3.1,14.9,8.9,14.9
	c5.6,0,8.8-5.4,8.8-14.9C209.4,337.7,206.2,332.4,200.6,332.4z M259,333v-7.3c0-0.3-0.2-0.5-0.5-0.5h-34.3c-0.3,0-0.5,0.2-0.5,0.5
	v7.3c0,0.3,0.2,0.5,0.5,0.5h12v35.3c0,0.3,0.2,0.5,0.5,0.5h9.3c0.3,0,0.5-0.2,0.5-0.5v-35.3h12.1C258.8,333.5,259,333.3,259,333z
	 M298.8,368.8v-7.2c0-0.3-0.2-0.5-0.5-0.5h-20.6v-10.8h15.1c0.3,0,0.5-0.2,0.5-0.5v-7.1c0-0.3-0.2-0.5-0.5-0.5h-15.1v-8.7h20.1
	c0.3,0,0.5-0.2,0.5-0.5v-7.2c0-0.3-0.2-0.5-0.5-0.5H268c-0.3,0-0.5,0.2-0.5,0.5v43.1c0,0.3,0.2,0.5,0.5,0.5h30.2
	C298.5,369.3,298.8,369.1,298.8,368.8z M338.7,368.8v-7.3c0-0.3-0.2-0.5-0.5-0.5h-19.4v-35.3c0-0.3-0.2-0.5-0.5-0.5h-9.3
	c-0.3,0-0.5,0.2-0.5,0.5v43.1c0,0.3,0.2,0.5,0.5,0.5h29.2C338.5,369.3,338.7,369.1,338.7,368.8z M163.6,394.6
	c0,7.2-5.1,11.4-14.1,11.4h-7.3v16.2c0,0.3-0.2,0.5-0.5,0.5h-4.5c-0.3,0-0.5-0.2-0.5-0.5V384c0-0.3,0.2-0.5,0.5-0.5h12.7
	C161.2,383.5,163.6,389.6,163.6,394.6z M149.6,388.2h-7.5v13.3h7.1c5.7,0,8.6-2.3,8.6-6.8C157.9,390.3,155.2,388.2,149.6,388.2z
	 M200.9,422c0.1,0.2,0.1,0.4,0,0.5s-0.3,0.2-0.4,0.2h-5c-0.2,0-0.4-0.1-0.5-0.3l-8.2-17.5h-8.4v17.3c0,0.3-0.2,0.5-0.5,0.5h-4.4
	c-0.3,0-0.5-0.2-0.5-0.5V384c0-0.3,0.2-0.5,0.5-0.5h12.8c11.3,0,13.6,5.7,13.6,10.5c0,5-2.8,8.6-7.8,10L200.9,422z M186.1,388.2
	h-7.7v12.2h7.4c5.7,0,8.5-2,8.5-6.3C194.3,391.3,193.4,388.2,186.1,388.2z M243.2,403.1c0,12.4-6.4,20.4-16.3,20.4
	c-9.9,0-16.3-7.9-16.3-20.2c0-12.4,6.4-20.4,16.3-20.4C236.8,382.8,243.2,390.8,243.2,403.1z M226.9,387.6
	c-6.5,0-10.5,5.8-10.5,15.5c0,9.7,3.9,15.5,10.5,15.5c6.5,0,10.5-5.8,10.5-15.5C237.4,393.4,233.5,387.6,226.9,387.6z M265.2,383.5
	h-4.5c-0.3,0-0.5,0.2-0.5,0.5v28.2c0,4.1-2,6.6-5.4,6.6c-0.9,0-2,0-3.5-0.3c-0.2,0-0.3,0-0.4,0.1c-0.1,0.1-0.2,0.3-0.2,0.4l0.2,3.7
	c0,0.3,0.2,0.5,0.5,0.5l0.3,0c1.2,0.1,2.3,0.2,3.3,0.2c6.7,0,10.7-4,10.7-10.7V384C265.7,383.7,265.5,383.5,265.2,383.5z
	 M305.6,417.9h-19.4v-13.6h14.2c0.3,0,0.5-0.2,0.5-0.5V400c0-0.3-0.2-0.5-0.5-0.5h-14.2v-11.2h19c0.3,0,0.5-0.2,0.5-0.5V384
	c0-0.3-0.2-0.5-0.5-0.5h-24c-0.3,0-0.5,0.2-0.5,0.5v38.2c0,0.3,0.2,0.5,0.5,0.5h24.4c0.3,0,0.5-0.2,0.5-0.5v-3.8
	C306.2,418.1,305.9,417.9,305.6,417.9z M343.2,411.6l-4.3-1.5c-0.1,0-0.3,0-0.4,0c-0.1,0.1-0.2,0.2-0.3,0.3
	c-1.2,5.6-4.2,8.1-9.2,8.1c-6.6,0-10.7-6-10.7-15.5c0-9.6,4.1-15.5,10.7-15.5c4.6,0,7.5,2.7,8.8,8c0,0.1,0.1,0.3,0.2,0.3
	c0.1,0.1,0.3,0.1,0.4,0.1l4.5-1.2c0.3-0.1,0.4-0.4,0.4-0.6c-1.8-7.2-7-11.3-14.3-11.3c-9.9,0-16.5,8.2-16.5,20.4
	c0,12.3,6.5,20.2,16.5,20.2c7.5,0,12.4-3.8,14.5-11.2C343.7,412,343.5,411.7,343.2,411.6z M378.7,383.5h-28.4
	c-0.3,0-0.5,0.2-0.5,0.5v3.8c0,0.3,0.2,0.5,0.5,0.5h11.3v33.8c0,0.3,0.2,0.5,0.5,0.5h4.6c0.3,0,0.5-0.2,0.5-0.5v-33.8h11.4
	c0.3,0,0.5-0.2,0.5-0.5V384C379.3,383.7,379,383.5,378.7,383.5z M80.7,418.1c-0.3-0.3-0.7-0.7-1-1c-0.3-0.3-0.8-0.3-1.2,0l-1.2,1.1
	c-4.8-5-9.5-10.1-13.8-15.4l-1.2,1c4.4,5.3,9,10.5,13.9,15.5l-2.5,2.5c-5-5.1-9.7-10.3-14.1-15.7l-1.2,1c4.5,5.4,9.2,10.7,14.2,15.8
	l-1.1,1.1c-0.2,0.2-0.2,0.4-0.2,0.6c0,0.2,0.1,0.4,0.2,0.6c0.4,0.4,0.7,0.7,1.1,1.1c0.2,0.2,0.4,0.2,0.6,0.2c0,0,0,0,0,0
	c0.2,0,0.4-0.1,0.6-0.2l7-7C81.1,418.9,81.1,418.4,80.7,418.1z M187.8,480.2c-0.5-0.1-0.9-0.2-1.4-0.4c-0.4-0.1-0.9,0.1-1,0.6
	l-0.4,1.5c-6.6-1.8-13.2-3.9-19.7-6.3l-0.6,1.5c6.5,2.5,13.1,4.6,19.8,6.5l-0.9,3.2c-6.8-1.8-13.5-4-20.1-6.4l-0.6,1.5
	c6.6,2.5,13.4,4.7,20.2,6.6l-0.4,1.4c-0.1,0.4,0.1,0.9,0.6,1l1.5,0.4c0.1,0,0.1,0,0.2,0c0.4,0,0.7-0.2,0.8-0.6l2.5-9.5
	C188.5,480.8,188.2,480.3,187.8,480.2z M99.6,435.5c0-0.2-0.1-0.4-0.3-0.5l-1.1-0.9c-0.2-0.1-0.4-0.2-0.6-0.2
	c-0.2,0-0.4,0.1-0.6,0.3l-1,1.3c-5.3-4.4-10.4-9-15.3-13.9l-1.1,1.1c5,4.9,10.1,9.5,15.4,14l-2.2,2.7c-5.4-4.5-10.6-9.2-15.6-14.2
	l-1.1,1.1c5.1,5,10.3,9.7,15.7,14.3l-1,1.2c-0.3,0.3-0.2,0.9,0.1,1.2l1.2,1c0.2,0.1,0.3,0.2,0.5,0.2c0.2,0,0.5-0.1,0.6-0.3l6.2-7.6
	C99.6,435.9,99.6,435.7,99.6,435.5z M99.8,63.3L99.8,63.3c0.2,0.2,0.4,0.3,0.6,0.3c0.2,0,0.4-0.1,0.5-0.2l1.1-0.9
	c0.4-0.3,0.4-0.8,0.1-1.1l-0.6-0.7c5.4-4.3,11-8.3,16.8-12.1l-1.6-2.5c-5.9,3.8-11.6,7.9-17.1,12.2l-1.3-1.6
	c5.5-4.4,11.3-8.5,17.2-12.4l-1.6-2.5c-6,3.9-11.8,8.1-17.4,12.5l-0.5-0.6c-0.1-0.2-0.3-0.3-0.5-0.3c-0.2,0-0.4,0-0.6,0.2l-1.2,1
	c-0.2,0.1-0.3,0.3-0.3,0.5c0,0.2,0,0.4,0.2,0.6L99.8,63.3z M41.1,113.6l8.2,5.4c0.1,0.1,0.3,0.1,0.4,0.1c0.1,0,0.1,0,0.2,0
	c0.2,0,0.4-0.2,0.5-0.4l0.8-1.2c0.2-0.4,0.1-0.9-0.2-1.1l-0.8-0.5c3.9-5.7,8-11.2,12.3-16.6l-2.4-1.9c-4.4,5.4-8.5,11.1-12.4,16.8
	l-1.7-1.2c3.9-5.8,8.2-11.5,12.6-17l-2.4-1.9c-4.5,5.6-8.7,11.3-12.7,17.2l-0.7-0.5c-0.2-0.1-0.4-0.2-0.6-0.1
	c-0.2,0-0.4,0.2-0.5,0.3c-0.3,0.4-0.6,0.9-0.9,1.3c-0.1,0.2-0.2,0.4-0.1,0.6C40.8,113.3,41,113.4,41.1,113.6z M64,399.5
	c-0.3-0.4-0.6-0.7-0.9-1.1c-0.3-0.3-0.8-0.4-1.1-0.1l-1.3,1c-4.3-5.4-8.4-11-12.2-16.8l-1.3,0.9c3.8,5.8,7.9,11.4,12.2,16.9
	l-2.8,2.2c-4.4-5.5-8.6-11.3-12.4-17.1l-1.3,0.9c3.9,5.9,8.1,11.6,12.5,17.2l-1.2,1c-0.2,0.1-0.3,0.3-0.3,0.5c0,0.2,0,0.4,0.2,0.6
	l1,1.2h0c0.1,0.2,0.3,0.3,0.6,0.3c0,0,0.1,0,0.1,0c0.2,0,0.4-0.1,0.5-0.2l7.6-6.2C64.2,400.3,64.3,399.8,64,399.5z M64.2,98.7
	c0.2,0.1,0.3,0.2,0.5,0.2c0.2,0,0.5-0.1,0.6-0.3l0.9-1.1c0.3-0.3,0.2-0.9-0.1-1.2l-0.7-0.6c4.4-5.3,9.1-10.4,14-15.3l-2.2-2.2
	c-4.9,5-9.6,10.1-14.1,15.5l-1.5-1.3c4.5-5.4,9.3-10.6,14.3-15.6l-2.2-2.2c-5,5.1-9.8,10.3-14.4,15.8L58.6,90
	c-0.3-0.3-0.9-0.2-1.2,0.1c-0.3,0.4-0.7,0.8-1,1.2c-0.1,0.2-0.2,0.4-0.2,0.6c0,0.2,0.1,0.4,0.3,0.6L64.2,98.7z M141.6,462.7
	c-0.1-0.2-0.2-0.4-0.4-0.5l-1.3-0.7c-0.4-0.2-0.9,0-1.1,0.3l-0.8,1.5c-6.1-3.2-12-6.7-17.9-10.4l-0.8,1.3c5.9,3.7,11.8,7.2,18,10.5
	l-1.6,3.1c-6.2-3.3-12.3-6.8-18.2-10.6l-0.8,1.3c6,3.8,12.1,7.4,18.4,10.7l-0.7,1.3c-0.1,0.2-0.1,0.4-0.1,0.6
	c0.1,0.2,0.2,0.4,0.4,0.5l1.4,0.7c0.1,0.1,0.2,0.1,0.4,0.1c0.1,0,0.2,0,0.3,0c0.2-0.1,0.4-0.2,0.5-0.4l4.5-8.8
	C141.6,463.2,141.6,462.9,141.6,462.7z M164,472.5l-1.3-0.5c-0.4-0.2-0.9,0-1.1,0.5L161,474c-0.2-0.1-0.3-0.1-0.5-0.2
	c-6.3-2.5-12.4-5.3-18.4-8.3l-0.7,1.4c6,3,12.1,5.8,18.4,8.3c0.2,0.1,0.4,0.2,0.6,0.2l-1.3,3.3c-0.1-0.1-0.3-0.1-0.4-0.2
	c-6.4-2.5-12.7-5.4-18.8-8.5l-0.7,1.4c6.1,3.1,12.4,5.9,18.7,8.4c0.2,0.1,0.4,0.2,0.7,0.3l-0.6,1.4v0c-0.1,0.2-0.1,0.4,0,0.6
	s0.2,0.4,0.4,0.4c0.5,0.2,1,0.4,1.4,0.6c0.1,0,0.2,0.1,0.3,0.1c0.3,0,0.6-0.2,0.8-0.5l3.5-9.2C164.6,473.1,164.4,472.6,164,472.5z
	 M165,26c0.1,0.3,0.4,0.5,0.8,0.5c0.1,0,0.2,0,0.3-0.1l1.4-0.5c0.4-0.2,0.6-0.6,0.5-1l-0.4-1c6.5-2.4,13.1-4.5,19.8-6.3l-0.7-2.7
	c-6.8,1.8-13.5,3.9-20.1,6.3l-0.8-2.1c6.6-2.4,13.4-4.6,20.2-6.4l-0.7-2.7c-6.9,1.8-13.8,4-20.5,6.4l-0.3-0.8
	c-0.1-0.2-0.2-0.4-0.4-0.5c-0.2-0.1-0.4-0.1-0.6,0l-1.5,0.5c-0.2,0.1-0.4,0.2-0.5,0.4c-0.1,0.2-0.1,0.4,0,0.6L165,26z M119.5,449.7
	l-1.2-0.8c-0.4-0.2-0.9-0.1-1.1,0.2l-0.9,1.4c-5.7-3.8-11.3-7.9-16.7-12.2l-1,1.2c5.4,4.3,11,8.4,16.8,12.3l-1.9,2.9
	c-5.8-3.9-11.5-8-17-12.5l-1,1.2c5.6,4.4,11.3,8.6,17.1,12.5l-0.9,1.3c-0.1,0.2-0.2,0.4-0.1,0.6c0,0.2,0.2,0.4,0.4,0.5l1.3,0.8
	c0.1,0.1,0.3,0.1,0.4,0.1c0.1,0,0.1,0,0.2,0c0.2,0,0.4-0.2,0.5-0.4l5.4-8.3C120,450.4,119.9,449.9,119.5,449.7z M142,36.2
	c0.1,0.3,0.4,0.5,0.7,0.5c0.1,0,0.2,0,0.4-0.1l1.3-0.6c0.2-0.1,0.3-0.3,0.4-0.5c0.1-0.2,0.1-0.4,0-0.6l-0.4-0.9
	c4.4-2.2,8.9-4.2,13.4-6.1c1.9-0.8,3.7-1.5,5.6-2.2l-1-2.6c-1.9,0.7-3.8,1.5-5.7,2.3c-4.6,1.9-9.1,4-13.6,6.1l-1-2
	c4.5-2.2,9.1-4.3,13.7-6.2c1.9-0.8,3.8-1.6,5.7-2.3l-1-2.6c-1.9,0.7-3.9,1.5-5.8,2.3c-4.7,1.9-9.3,4-13.9,6.3l-0.4-0.8
	c-0.2-0.4-0.7-0.6-1.1-0.4l-1.4,0.7c-0.2,0.1-0.3,0.3-0.4,0.5c-0.1,0.2-0.1,0.4,0,0.6L142,36.2z M49.3,379.2l-0.8-1.2
	c-0.2-0.4-0.7-0.5-1.1-0.3l-1.4,0.9c-3.7-5.8-7.2-11.8-10.4-18l-1.4,0.7c3.2,6.2,6.7,12.2,10.4,18.1l-3,1.9
	c-3.8-6-7.3-12.1-10.6-18.3l-1.4,0.7c3.3,6.3,6.8,12.4,10.6,18.5l-1.3,0.8c-0.4,0.2-0.5,0.8-0.2,1.1l0.8,1.3v0
	c0.1,0.2,0.3,0.3,0.5,0.4c0.1,0,0.1,0,0.2,0c0.2,0,0.3,0,0.4-0.1l8.3-5.4C49.5,380.1,49.6,379.6,49.3,379.2z M120.2,48.6L120.2,48.6
	c0.2,0.2,0.4,0.4,0.7,0.4c0.2,0,0.3,0,0.4-0.1l1.2-0.8c0.4-0.2,0.5-0.7,0.3-1.1l-0.5-0.8c5.9-3.7,11.9-7.1,18-10.3l-1.3-2.6
	c-6.2,3.2-12.3,6.7-18.3,10.4l-1.1-1.8c6-3.8,12.1-7.3,18.4-10.5l-1.3-2.6c-6.4,3.3-12.6,6.8-18.7,10.6l-0.4-0.7
	c-0.1-0.2-0.3-0.3-0.5-0.4c-0.2,0-0.4,0-0.6,0.1l-1.3,0.8c-0.2,0.1-0.3,0.3-0.4,0.5c0,0.2,0,0.4,0.1,0.6L120.2,48.6z M81.1,80.1
	c0.2,0.2,0.4,0.2,0.6,0.2c0.2,0,0.4-0.1,0.6-0.2l1-1c0.3-0.3,0.3-0.8,0-1.2l-0.6-0.6c4.9-4.8,10.1-9.4,15.4-13.8l-1.9-2.4
	c-5.4,4.4-10.6,9.1-15.7,13.9l-1.4-1.4c5.1-4.9,10.3-9.6,15.8-14.1L93,57.2c-5.5,4.5-10.9,9.3-16,14.2l-0.6-0.6
	c-0.3-0.3-0.8-0.3-1.2,0l-1.1,1.1c-0.2,0.2-0.2,0.4-0.2,0.6c0,0.2,0.1,0.4,0.2,0.6L81.1,80.1z M9.2,184.9l9.5,2.6c0.1,0,0.1,0,0.2,0
	c0.1,0,0.3,0,0.4-0.1c0.2-0.1,0.3-0.3,0.4-0.5l0.4-1.4c0.1-0.4-0.1-0.9-0.6-1l-1-0.3c1.9-6.6,4.1-13.2,6.5-19.7l-2.6-1
	c-2.5,6.5-4.6,13.2-6.5,19.9l-2.2-0.6c1.9-6.8,4.1-13.5,6.7-20.1l-2.6-1c-2.5,6.7-4.7,13.5-6.7,20.3l-0.9-0.2
	c-0.2-0.1-0.4,0-0.6,0.1c-0.2,0.1-0.3,0.3-0.4,0.5l-0.4,1.5l0,0C8.5,184.3,8.7,184.8,9.2,184.9z M451.3,122.4l0.8,1.2
	c0.2,0.2,0.4,0.4,0.7,0.4c0.1,0,0.3,0,0.4-0.1l1.4-0.9c3.7,5.9,7.1,12,10.2,18.2l1.4-0.7c-3.2-6.2-6.6-12.4-10.3-18.3l3-1.9
	c3.8,6.1,7.3,12.3,10.5,18.6l1.4-0.7c-3.2-6.4-6.7-12.6-10.5-18.7l1.3-0.8c0.2-0.1,0.3-0.3,0.4-0.5c0-0.2,0-0.4-0.1-0.6l-0.8-1.3
	c-0.1-0.2-0.3-0.3-0.5-0.4c-0.2,0-0.4,0-0.6,0.1l-8.3,5.3C451.2,121.5,451.1,122,451.3,122.4z M17.3,160l9.2,3.6
	c0.1,0,0.2,0.1,0.3,0.1c0.3,0,0.6-0.2,0.8-0.5l0.5-1.3c0.1-0.2,0.1-0.4,0-0.6c-0.1-0.2-0.2-0.4-0.4-0.4l-1-0.4
	c0.3-0.8,0.6-1.6,1-2.5c2.3-5.6,4.8-11,7.6-16.4l-2.6-1.3c-2.7,5.4-5.3,11-7.6,16.6c-0.3,0.8-0.7,1.7-1,2.5l-2.1-0.8
	c0.3-0.8,0.7-1.7,1-2.5c2.4-5.7,4.9-11.3,7.7-16.7l-2.6-1.3c-2.8,5.5-5.4,11.2-7.8,17c-0.4,0.9-0.7,1.7-1,2.6l-0.8-0.3
	c-0.4-0.2-0.9,0-1.1,0.5l-0.6,1.4c-0.1,0.2-0.1,0.4,0,0.6C16.9,159.8,17.1,159.9,17.3,160z M463.6,144.2l0.6,1.3l0,0
	c0.1,0.3,0.4,0.5,0.7,0.5c0.1,0,0.2,0,0.4-0.1l1.5-0.7c2.6,5.4,5,10.9,7.2,16.4c0.4,0.9,0.7,1.9,1,2.8l1.5-0.6
	c-0.4-1-0.8-2.1-1.2-3.1c-2.2-5.5-4.5-10.9-7.1-16.2l3.2-1.5c2.7,5.5,5.1,11.1,7.4,16.8c0.4,0.9,0.7,1.9,1.1,2.8l1.5-0.6
	c-0.4-1.1-0.8-2.1-1.2-3.2c-2.2-5.6-4.6-11.1-7.3-16.5l1.4-0.7c0.4-0.2,0.6-0.7,0.4-1.1l-0.7-1.4c-0.1-0.2-0.3-0.3-0.5-0.4
	c-0.2-0.1-0.4-0.1-0.6,0l-8.8,4.4C463.5,143.3,463.4,143.8,463.6,144.2z M485.7,215.7l0.2,1.4c0,0.2,0.1,0.4,0.3,0.5
	c0.1,0.1,0.3,0.2,0.5,0.2c0,0,0.1,0,0.1,0l1.4-0.2c0.9,6.9,1.5,13.9,1.8,20.8l2.3-0.1c-0.4-7-1-14-2-21l3-0.4
	c0.9,7.1,1.5,14.1,1.8,21.3l2.3-0.1c-0.4-7.2-1.1-14.3-2-21.4l1.3-0.2c0.2,0,0.4-0.1,0.5-0.3c0.1-0.2,0.2-0.4,0.2-0.6l-0.2-1.5
	c0-0.2-0.1-0.4-0.3-0.5c-0.2-0.1-0.4-0.2-0.6-0.2l-9.7,1.4C486,214.8,485.7,215.3,485.7,215.7z M480.9,191.1l0.4,1.4
	c0.1,0.2,0.2,0.4,0.4,0.5c0.1,0.1,0.3,0.1,0.4,0.1c0.1,0,0.1,0,0.2,0l1.5-0.4c1.6,6.8,2.9,13.6,3.9,20.5l2-0.3
	c-1.1-6.9-2.5-13.8-4.2-20.7l3.1-0.8c1.6,6.9,3,13.9,4,21l2-0.3c-1.1-7.1-2.5-14.1-4.2-21.1l1.3-0.3c0.4-0.1,0.7-0.6,0.6-1
	c-0.1-0.5-0.2-1-0.4-1.5c-0.1-0.2-0.2-0.4-0.4-0.5c-0.2-0.1-0.4-0.1-0.6-0.1l-9.5,2.4C481,190.3,480.8,190.7,480.9,191.1z
	 M473.5,167.2l0.5,1.4v0c0.1,0.3,0.4,0.5,0.8,0.5c0.1,0,0.2,0,0.3,0l1.6-0.6c2.3,6.6,4.4,13.2,6.1,20l1.8-0.5
	c-1.8-6.8-3.9-13.5-6.3-20.1l3.2-1.2c2.4,6.7,4.5,13.5,6.2,20.4l1.8-0.5c-1.8-6.9-4-13.8-6.5-20.5l1.4-0.5c0.4-0.2,0.6-0.6,0.5-1
	l-0.5-1.5c-0.2-0.4-0.6-0.6-1.1-0.5l-9.2,3.4C473.5,166.3,473.3,166.8,473.5,167.2z M26.7,335.2c0.1-0.2,0.1-0.4,0-0.6
	c-0.2-0.5-0.3-0.9-0.5-1.4c-0.1-0.2-0.2-0.4-0.4-0.5c-0.2-0.1-0.4-0.1-0.6,0l-1.6,0.6c-2.4-6.5-4.4-13.1-6.2-19.8l-1.8,0.5
	c1.9,6.7,4,13.3,6.4,19.9l-3.2,1.2c-2.4-6.6-4.5-13.4-6.3-20.2l-1.8,0.5c1.9,6.9,4.1,13.6,6.6,20.3l-1.4,0.5
	c-0.2,0.1-0.4,0.2-0.5,0.4c-0.1,0.2-0.1,0.4,0,0.6c0.2,0.5,0.4,1,0.5,1.5c0.1,0.2,0.2,0.4,0.4,0.5c0.1,0,0.2,0.1,0.3,0.1
	c0.1,0,0.2,0,0.3-0.1l9.2-3.5C26.5,335.6,26.7,335.4,26.7,335.2z M19,311.4c0.1-0.2,0.1-0.4,0.1-0.6l-0.4-1.4
	c-0.1-0.4-0.6-0.7-1-0.6l-1.5,0.4c-1.7-6.7-3-13.5-4.1-20.3l-2,0.3c1.1,6.9,2.6,13.7,4.3,20.4l-3.1,0.8c-1.7-6.9-3.1-13.8-4.2-20.8
	l-2,0.3c1.2,7,2.7,14,4.4,20.9l-1.3,0.3c-0.2,0.1-0.4,0.2-0.5,0.4c-0.1,0.2-0.1,0.4-0.1,0.6l0.4,1.5c0.1,0.2,0.2,0.4,0.4,0.5
	c0.1,0.1,0.3,0.1,0.4,0.1c0.1,0,0.1,0,0.2,0l9.5-2.5C18.8,311.7,18.9,311.5,19,311.4z M28,136.2l8.8,4.5c0.1,0.1,0.2,0.1,0.4,0.1
	c0.3,0,0.6-0.2,0.7-0.4l0.7-1.3c0.2-0.4,0.1-0.9-0.3-1.1l-0.9-0.5c3.2-6.1,6.8-12,10.5-17.8l-2.5-1.6c-3.8,5.9-7.3,11.9-10.6,18.1
	l-1.9-1c3.3-6.2,6.9-12.3,10.7-18.2l-2.5-1.6c-3.9,6-7.5,12.2-10.8,18.5l-0.8-0.4c-0.2-0.1-0.4-0.1-0.6-0.1
	c-0.2,0.1-0.4,0.2-0.5,0.4c-0.2,0.5-0.5,0.9-0.7,1.4c-0.1,0.2-0.1,0.4-0.1,0.6C27.7,135.9,27.8,136.1,28,136.2z M36.9,357.5
	l-0.7-1.3c-0.2-0.4-0.7-0.6-1.1-0.4l-1.5,0.7c-3-6-5.7-12.1-8.2-18.4c-0.1-0.2-0.1-0.4-0.2-0.6l-1.5,0.6c0.1,0.3,0.2,0.6,0.3,0.9
	c2.4,6.2,5.2,12.3,8.1,18.2l-3.1,1.6c-3-6.2-5.8-12.4-8.4-18.8c-0.1-0.2-0.1-0.4-0.2-0.6L19,340c0.1,0.3,0.2,0.6,0.4,0.9
	c2.5,6.3,5.3,12.5,8.3,18.6l-1.4,0.7c-0.4,0.2-0.6,0.7-0.4,1.1l0.7,1.4h0c0.1,0.3,0.4,0.4,0.7,0.4c0.1,0,0.3,0,0.4-0.1l8.8-4.5
	C36.9,358.4,37.1,357.9,36.9,357.5z M1,236.5l9.8,0.5c0,0,0,0,0,0c0.4,0,0.8-0.3,0.8-0.8l0.1-1.4c0-0.2-0.1-0.4-0.2-0.6
	c-0.1-0.2-0.3-0.3-0.6-0.3l-1.1-0.1c0.5-6.9,1.2-13.8,2.3-20.6l-2.6-0.4c-1,6.9-1.8,13.9-2.2,20.8l-2.5-0.2c0.5-7,1.3-14.1,2.3-21
	l-2.6-0.4c-1.1,7.1-1.8,14.1-2.2,21.3l-1.1-0.1c-0.5,0-0.8,0.3-0.9,0.8c0,0.5-0.1,1-0.1,1.5c0,0.2,0.1,0.4,0.2,0.6
	C0.5,236.4,0.7,236.5,1,236.5z M3.7,210.5l9.7,1.6c0,0,0.1,0,0.1,0c0.2,0,0.3-0.1,0.5-0.2c0.2-0.1,0.3-0.3,0.3-0.5l0.2-1.4
	c0.1-0.4-0.2-0.9-0.7-0.9l-1.1-0.2c0.3-2,0.7-3.9,1.1-5.8c1-4.8,2.1-9.6,3.3-14.4l-2.7-0.7c-1.8,6.8-3.2,13.6-4.4,20.5L7.9,208
	c0.3-2,0.7-4,1.1-6c1-4.9,2.1-9.8,3.4-14.7l-2.7-0.7c-1.8,6.9-3.3,13.9-4.5,20.9l-1-0.2c-0.4-0.1-0.9,0.2-0.9,0.7L3,209.5v0
	c0,0.2,0,0.4,0.1,0.6C3.3,210.3,3.5,210.4,3.7,210.5z M13.9,286.8c0.1-0.2,0.2-0.4,0.1-0.6l-0.2-1.4c-0.1-0.4-0.5-0.7-0.9-0.7
	l-1.4,0.2c-0.9-6.8-1.6-13.7-2-20.6l-2.3,0.1c0.4,7,1.1,13.9,2.2,20.8l-3,0.4c-1-7-1.6-14-2-21.1l-2.3,0.1
	c0.4,7.1,1.2,14.2,2.2,21.2l-1.3,0.2c-0.2,0-0.4,0.1-0.5,0.3c-0.1,0.2-0.2,0.4-0.2,0.6l0.2,1.5v0c0.1,0.4,0.4,0.7,0.8,0.7
	c0,0,0.1,0,0.1,0l9.7-1.5C13.6,287.1,13.8,287,13.9,286.8z M11.5,261.3l-0.1-1.5c0-0.5-0.4-0.8-0.9-0.8l-1.3,0.1
	c-0.1-3.1-0.2-6.2-0.1-9.2c0-3.8,0.1-7.7,0.3-11.5L7,238.3c-0.2,3.9-0.2,7.7-0.2,11.6c0,3.1,0.1,6.2,0.2,9.3l-2.8,0.1
	c-0.1-3.1-0.2-6.3-0.2-9.4c0-3.9,0.1-7.8,0.3-11.7L2,238c-0.2,3.9-0.2,7.9-0.2,11.8c0,3.2,0.1,6.4,0.2,9.5l-1.2,0
	c-0.5,0-0.8,0.4-0.8,0.9l0.1,1.5c0,0.4,0.4,0.8,0.8,0.8c0,0,0,0,0,0l9.8-0.5C11.2,262.1,11.6,261.7,11.5,261.3z M266,12
	c0.2,0,0.4-0.1,0.5-0.2c0.2-0.1,0.3-0.3,0.3-0.6l0.1-1.3c6.9,0.5,13.8,1.2,20.7,2.3l0.3-2C280.9,9,274,8.2,267,7.7l0.2-2.8
	c7.1,0.5,14.1,1.2,21.1,2.3l0.3-2c-7.1-1.1-14.2-2-21.3-2.5l0.1-1.2c0-0.2-0.1-0.4-0.2-0.6c-0.1-0.2-0.3-0.3-0.6-0.3l-1.5-0.1
	c-0.4,0-0.8,0.3-0.9,0.8l-0.6,9.8c0,0.2,0.1,0.4,0.2,0.6c0.1,0.2,0.3,0.3,0.6,0.3L266,12C265.9,12,265.9,12,266,12z M433.8,402.7
	c-0.2-0.1-0.4-0.2-0.6-0.2c-0.2,0-0.4,0.1-0.6,0.3l-0.9,1.1c-0.1,0.2-0.2,0.4-0.2,0.6c0,0.2,0.1,0.4,0.3,0.6l0.7,0.6
	c-3.5,4.1-7.1,8-10.9,11.9l2.2,2.2c3.8-3.9,7.4-7.9,11-12l1.5,1.3c-3.6,4.2-7.3,8.2-11.1,12.1l2.2,2.2c3.9-4,7.6-8.1,11.2-12.3
	l0.6,0.5c0.2,0.1,0.3,0.2,0.5,0.2c0.2,0,0.5-0.1,0.6-0.3l1-1.2c0.3-0.3,0.2-0.9-0.1-1.2L433.8,402.7z M448.9,382.6
	c-0.4-0.2-0.9-0.1-1.1,0.2l-0.8,1.2l0,0c-0.3,0.4-0.2,0.9,0.2,1.1l0.8,0.5c-3.9,5.7-8.1,11.3-12.6,16.6l2.4,1.9
	c4.5-5.4,8.7-11.1,12.7-16.9l1.7,1.2c-4,5.8-8.3,11.5-12.8,17l2.4,1.9c4.6-5.6,8.9-11.3,12.9-17.2l0.7,0.5c0.1,0.1,0.3,0.1,0.5,0.1
	c0.3,0,0.5-0.1,0.7-0.4l0.9-1.3c0.1-0.2,0.2-0.4,0.1-0.6c0-0.2-0.2-0.4-0.3-0.5L448.9,382.6z M420,82.6c0,0.2,0.1,0.4,0.2,0.6l1,1
	c0.2,0.2,0.4,0.2,0.6,0.2c0,0,0,0,0,0c0.2,0,0.4-0.1,0.6-0.2l1.2-1.1c4.8,5,9.4,10.3,13.8,15.6l1.2-1c-4.4-5.4-9-10.7-13.9-15.7
	l2.5-2.4c4.9,5.2,9.6,10.5,14.1,16l1.2-1c-4.5-5.5-9.2-10.9-14.2-16.1l1.1-1.1c0.2-0.2,0.2-0.4,0.3-0.6c0-0.2-0.1-0.4-0.2-0.6
	l-1.1-1.1c-0.2-0.2-0.4-0.2-0.6-0.2c-0.2,0-0.4,0.1-0.6,0.2l-7,6.9C420.1,82.2,420,82.4,420,82.6z M436.8,102l0.9,1.1
	c0.2,0.2,0.4,0.3,0.6,0.3c0.2,0,0.4-0.1,0.5-0.2l1.3-1c4.3,5.5,8.3,11.2,12.1,17l1.3-0.8c-3.8-5.9-7.9-11.6-12.2-17.1l2.8-2.2
	c4.4,5.6,8.5,11.4,12.4,17.4l1.3-0.8c-3.9-6-8-11.8-12.4-17.5l1.2-1c0.2-0.1,0.3-0.3,0.3-0.5c0-0.2,0-0.4-0.2-0.6l-0.9-1.2
	c-0.1-0.2-0.3-0.3-0.5-0.3c-0.2,0-0.4,0-0.6,0.2l-7.7,6.1C436.6,101.1,436.5,101.6,436.8,102z M401.3,435c-0.3-0.3-0.8-0.4-1.1-0.1
	l-1.1,0.9c-0.2,0.1-0.3,0.3-0.3,0.5c0,0.2,0,0.4,0.2,0.6l0.5,0.7c-5.3,4.3-10.9,8.4-16.5,12.2l1.7,2.5c5.8-3.9,11.4-8,16.8-12.3
	l1.3,1.6c-5.5,4.4-11.1,8.5-16.9,12.5l1.7,2.5c5.9-3.9,11.6-8.1,17.2-12.6l0.5,0.7l0,0c0.2,0.2,0.4,0.3,0.6,0.3
	c0.2,0,0.4-0.1,0.5-0.2l1.2-1c0.3-0.3,0.4-0.8,0.1-1.2L401.3,435z M419.9,418.1c-0.3-0.3-0.8-0.3-1.2,0l-1,1c-0.3,0.3-0.3,0.8,0,1.2
	l0.6,0.6c-4.9,4.8-9.9,9.4-15.2,13.8l2,2.4c5.3-4.4,10.5-9.1,15.4-13.9l1.4,1.4c-5,4.9-10.1,9.6-15.5,14.1l2,2.4
	c5.4-4.5,10.7-9.3,15.7-14.2l0.6,0.6c0.2,0.2,0.4,0.2,0.6,0.2c0.2,0,0.4-0.1,0.6-0.2l1.1-1.1c0.2-0.2,0.2-0.4,0.2-0.6
	c0-0.2-0.1-0.4-0.2-0.6L419.9,418.1z M401.7,65.1c-0.3,0.3-0.2,0.9,0.1,1.1l1.1,0.9c0.2,0.1,0.3,0.2,0.5,0.2c0.2,0,0.5-0.1,0.6-0.3
	l1-1.2c5.1,4.3,10.1,8.9,14.9,13.7c0.1,0.1,0.3,0.3,0.4,0.4l1.1-1.1c-0.1-0.1-0.3-0.3-0.4-0.4c-4.8-4.8-9.9-9.4-15-13.8l2.3-2.7
	c5.2,4.4,10.3,9.1,15.2,14c0.1,0.1,0.3,0.3,0.4,0.4l1.1-1.1c-0.1-0.1-0.3-0.3-0.4-0.4c-4.9-4.9-10.1-9.6-15.3-14.1l1-1.2
	c0.1-0.2,0.2-0.4,0.2-0.6c0-0.2-0.1-0.4-0.3-0.6l-1.2-1c-0.2-0.1-0.4-0.2-0.6-0.2c-0.2,0-0.4,0.1-0.6,0.3L401.7,65.1L401.7,65.1z
	 M470.4,365.6l-8.7-4.6c-0.4-0.2-0.9-0.1-1.1,0.3l-0.7,1.3h0c-0.2,0.4-0.1,0.9,0.3,1.1l0.9,0.5c-3.3,6.1-6.9,12.1-10.8,17.9l2.5,1.6
	c3.9-5.9,7.5-11.9,10.9-18.1l1.9,1c-3.4,6.2-7.1,12.3-11,18.2l2.5,1.6c4-6,7.7-12.2,11.1-18.5l0.7,0.4c0.1,0.1,0.3,0.1,0.4,0.1
	c0.1,0,0.2,0,0.2,0c0.2-0.1,0.4-0.2,0.5-0.4l0.7-1.4C470.9,366.3,470.8,365.8,470.4,365.6z M381.8,51.3l1.2,0.8
	c0.1,0.1,0.3,0.1,0.5,0.1c0.3,0,0.5-0.1,0.7-0.4l0.9-1.4c5.7,3.9,11.3,8,16.7,12.4l1-1.2c-5.4-4.4-11.1-8.6-16.8-12.5l2-2.9
	c5.8,4,11.5,8.2,17.1,12.7l1-1.2c-5.6-4.5-11.3-8.8-17.2-12.8l0.9-1.3c0.1-0.2,0.2-0.4,0.1-0.6c0-0.2-0.2-0.4-0.3-0.5l-1.3-0.9
	c-0.4-0.2-0.9-0.1-1.1,0.2l-5.4,8.2C381.3,50.5,381.4,51,381.8,51.3z M498.4,265.6l-9.8-0.6c-0.4,0-0.8,0.3-0.9,0.8l-0.1,1.4
	c0,0.4,0.3,0.8,0.8,0.9l1.1,0.1c-0.5,6.9-1.4,13.9-2.5,20.7l2.6,0.4c1.1-6.9,1.9-13.9,2.4-21l2.5,0.2c-0.6,7.1-1.4,14.1-2.6,21.2
	l2.6,0.4c1.1-7.1,2-14.2,2.5-21.4l1,0.1c0,0,0,0,0.1,0c0.2,0,0.4-0.1,0.5-0.2c0.2-0.1,0.3-0.3,0.3-0.6c0-0.5,0.1-1,0.1-1.5
	C499.1,266,498.8,265.6,498.4,265.6z M499.5,240.2c0-0.2-0.1-0.4-0.3-0.6c-0.2-0.1-0.4-0.2-0.6-0.2l-9.8,0.4c-0.4,0-0.8,0.4-0.8,0.8
	l0.1,1.5c0,0.4,0.4,0.8,0.8,0.8c0,0,0,0,0,0l1.2,0c0.1,2.3,0.1,4.7,0.1,7c0,4.6-0.2,9.2-0.5,13.8l2.5,0.1c0.2-4.7,0.4-9.3,0.3-14
	c0-2.4-0.1-4.7-0.1-7.1l2.7-0.1c0.1,2.4,0.1,4.8,0.1,7.2c0,4.7-0.2,9.4-0.5,14.1l2.5,0.1c0.3-4.8,0.4-9.5,0.4-14.3
	c0-2.4-0.1-4.8-0.2-7.3l1.2,0c0.2,0,0.4-0.1,0.6-0.3c0.1-0.2,0.2-0.4,0.2-0.6C499.5,241.2,499.5,240.7,499.5,240.2z M495.4,291.5
	l-9.7-1.7c-0.4-0.1-0.9,0.2-0.9,0.7l-0.3,1.4l0,0c-0.1,0.4,0.2,0.9,0.7,0.9l1.1,0.2c-0.2,1.2-0.4,2.4-0.7,3.7
	c-1.1,5.6-2.4,11.2-3.9,16.7l2.7,0.7c1.8-6.8,3.4-13.7,4.6-20.6l2.4,0.4c-0.2,1.3-0.4,2.5-0.7,3.8c-1.1,5.7-2.5,11.4-4,17l2.7,0.7
	c1.9-6.9,3.4-14,4.7-21l1,0.2c0,0,0.1,0,0.1,0c0.2,0,0.3-0.1,0.5-0.1c0.2-0.1,0.3-0.3,0.3-0.5l0.3-1.5c0-0.2,0-0.4-0.1-0.6
	C495.8,291.7,495.6,291.6,495.4,291.5z M489.7,317.1l-9.5-2.7c-0.4-0.1-0.9,0.1-1,0.6c-0.1,0.5-0.3,0.9-0.4,1.4l0,0
	c-0.1,0.4,0.1,0.9,0.6,1l1,0.3c-2,6.7-4.2,13.3-6.7,19.7l2.6,1c2.6-6.6,4.8-13.2,6.8-20l2.2,0.6c-2,6.8-4.3,13.6-6.9,20.2l2.6,1
	c2.6-6.7,4.9-13.5,6.9-20.4l0.9,0.3c0.1,0,0.2,0,0.2,0c0.1,0,0.3,0,0.4-0.1c0.2-0.1,0.3-0.3,0.4-0.5l0.4-1.5c0.1-0.2,0-0.4-0.1-0.6
	C490,317.3,489.9,317.1,489.7,317.1z M481.3,341.9l-9.1-3.7c-0.4-0.2-0.9,0-1.1,0.5l-0.5,1.3c-0.1,0.2-0.1,0.4,0,0.6
	c0.1,0.2,0.2,0.4,0.4,0.4l1,0.4c-0.1,0.1-0.1,0.3-0.2,0.4c-2.6,6.3-5.5,12.5-8.7,18.5l2.6,1.3c3.2-6.1,6.1-12.4,8.7-18.7
	c0.1-0.1,0.1-0.3,0.2-0.4l2.1,0.8c-0.1,0.1-0.1,0.3-0.2,0.4c-2.7,6.4-5.6,12.7-8.9,18.9l2.6,1.3c3.2-6.2,6.2-12.6,8.9-19.1
	c0.1-0.1,0.1-0.3,0.2-0.4l0.8,0.3c0.1,0,0.2,0.1,0.3,0.1c0.1,0,0.2,0,0.3-0.1c0.2-0.1,0.4-0.2,0.4-0.4l0.6-1.4
	c0.1-0.2,0.1-0.4,0-0.6C481.7,342.1,481.5,341.9,481.3,341.9z M214.3,14c0,0,0.1,0,0.1,0l1.4-0.2c0.4-0.1,0.8-0.5,0.7-0.9l-0.2-1.1
	c6.9-1,13.8-1.6,20.7-2L237,7.2c-7,0.3-14,1-20.9,1.9l-0.3-2.4c7-1,14.1-1.7,21.1-2.1l-0.1-2.5c-7.1,0.3-14.3,1-21.4,2l-0.1-1
	c-0.1-0.4-0.5-0.8-0.9-0.7c-0.5,0.1-1,0.1-1.5,0.2c-0.2,0-0.4,0.1-0.5,0.3c-0.1,0.2-0.2,0.4-0.2,0.6l1.5,9.7
	C213.6,13.7,214,14,214.3,14z M289.3,14.7l1.4,0.2c0,0,0.1,0,0.1,0c0.4,0,0.7-0.3,0.8-0.7l0.2-1.4c6.8,1.2,13.6,2.6,20.4,4.4
	l0.5-1.8c-6.8-1.8-13.6-3.4-20.5-4.6l0.5-3c7,1.2,13.9,2.7,20.8,4.5l0.5-1.8c-6.9-1.9-13.9-3.4-20.9-4.7l0.2-1.3
	c0-0.2,0-0.4-0.1-0.6c-0.1-0.2-0.3-0.3-0.5-0.3l-1.5-0.3c-0.2,0-0.4,0-0.6,0.1c-0.2,0.1-0.3,0.3-0.3,0.5l-1.6,9.7
	C288.6,14.2,288.9,14.6,289.3,14.7z M287.2,485.4l-1.4,0.2c-0.2,0-0.4,0.1-0.5,0.3c-0.1,0.2-0.2,0.4-0.1,0.6l0.2,1.1
	c-6.8,1-13.6,1.7-20.5,2.2l0.2,2.6c6.9-0.4,13.9-1.1,20.7-2.1l0.4,2.4c-6.9,1-13.9,1.8-20.9,2.2l0.2,2.6c7.1-0.4,14.2-1.1,21.2-2.1
	l0.1,1c0.1,0.4,0.4,0.7,0.8,0.7c0,0,0.1,0,0.1,0l1.5-0.2c0.2,0,0.4-0.2,0.5-0.3c0.1-0.2,0.2-0.4,0.1-0.6l-1.5-9.7
	C288,485.6,287.6,485.3,287.2,485.4z M239.4,11.6l1.4-0.1c0.2,0,0.4-0.1,0.6-0.3c0.1-0.2,0.2-0.4,0.2-0.6l0-1.2
	c2.7-0.1,5.4-0.2,8.1-0.2c4.2,0,8.4,0.1,12.7,0.3l0.1-2.3C258.3,7.1,254,7,249.7,7c-2.7,0-5.5,0-8.2,0.1l-0.1-2.6
	c2.8-0.1,5.5-0.2,8.3-0.2c4.3,0,8.6,0.1,12.9,0.3l0.1-2.3c-4.3-0.2-8.7-0.4-13.1-0.4c-2.8,0-5.6,0-8.4,0.1l0-1.1
	c0-0.2-0.1-0.4-0.3-0.6c-0.2-0.1-0.4-0.2-0.6-0.2c-0.5,0-1,0-1.5,0.1c-0.2,0-0.4,0.1-0.6,0.3c-0.1,0.2-0.2,0.4-0.2,0.6l0.4,9.8
	c0,0.2,0.1,0.4,0.3,0.6C239,11.6,239.2,11.6,239.4,11.6C239.4,11.6,239.4,11.6,239.4,11.6z M381.1,449.9c-0.1-0.2-0.3-0.3-0.5-0.4
	c-0.2,0-0.4,0-0.6,0.1l-1.2,0.8c-0.4,0.2-0.5,0.8-0.2,1.1l0.5,0.8c-5.8,3.7-11.7,7.2-17.8,10.4l1.4,2.6c6.2-3.2,12.2-6.7,18-10.5
	l1.1,1.8c-5.9,3.8-12,7.3-18.2,10.6l1.4,2.6c6.3-3.3,12.4-6.9,18.4-10.7l0.5,0.7c0,0,0,0,0,0l0,0c0.1,0.2,0.3,0.3,0.5,0.4
	c0.1,0,0.1,0,0.2,0c0.2,0,0.3,0,0.4-0.1l1.3-0.8c0.4-0.2,0.5-0.8,0.2-1.1L381.1,449.9z M237.2,488l-1.4-0.1c-0.4,0-0.8,0.3-0.9,0.8
	l-0.1,1.3c-6.9-0.4-13.7-1.1-20.5-2L214,490c6.9,1,13.8,1.8,20.7,2.2l-0.2,2.8c-7-0.4-14-1.1-21-2.1l-0.3,2.1
	c7,1.1,14.1,1.8,21.2,2.3l-0.1,1.2c0,0.2,0.1,0.4,0.2,0.6c0.1,0.2,0.3,0.3,0.6,0.3l1.5,0.1c0,0,0,0,0,0c0.4,0,0.8-0.3,0.8-0.8
	l0.5-9.8c0-0.2-0.1-0.4-0.2-0.6C237.6,488.1,237.4,488,237.2,488z M212.3,485.4l-1.4-0.2c-0.4-0.1-0.9,0.2-0.9,0.7l-0.2,1.4
	c-6.8-1.1-13.5-2.5-20.2-4.2l-0.5,1.8c6.7,1.8,13.5,3.2,20.4,4.4l-0.5,3c-6.9-1.1-13.8-2.6-20.7-4.3l-0.5,1.8
	c6.9,1.8,13.8,3.3,20.8,4.5l-0.2,1.3h0c-0.1,0.4,0.2,0.9,0.7,0.9l1.5,0.2c0,0,0.1,0,0.1,0c0.2,0,0.3-0.1,0.5-0.2
	c0.2-0.1,0.3-0.3,0.3-0.5l1.5-9.7C213,485.9,212.7,485.5,212.3,485.4z M188.9,18.4c0.1,0.2,0.2,0.4,0.4,0.5c0.1,0.1,0.3,0.1,0.4,0.1
	c0.1,0,0.1,0,0.2,0l1.4-0.4c0.4-0.1,0.7-0.6,0.6-1l-0.3-1.1c3.7-0.9,7.4-1.8,11.2-2.5c3.1-0.6,6.1-1.1,9.2-1.6l-0.4-2.7
	c-6.9,1.1-13.8,2.4-20.6,4.1l-0.6-2.3c3.8-0.9,7.6-1.8,11.4-2.5c3.1-0.6,6.3-1.2,9.4-1.7l-0.4-2.7c-7.1,1.1-14.1,2.5-21.1,4.2
	l-0.2-0.9c-0.1-0.2-0.2-0.4-0.4-0.5c-0.2-0.1-0.4-0.1-0.6-0.1L187,7.9c-0.4,0.1-0.7,0.6-0.6,1L188.9,18.4z M262.2,488l-1.4,0.1
	c-0.4,0-0.8,0.4-0.8,0.9l0.1,1.2c-3.4,0.2-6.9,0.3-10.3,0.3c-3.4,0-6.9,0-10.3-0.2l-0.1,2.3c3.5,0.2,6.9,0.3,10.4,0.3
	c3.5,0,7,0,10.5-0.2l0.1,2.6c-3.5,0.2-7,0.3-10.6,0.3c-3.5,0-7-0.1-10.5-0.2l-0.1,2.3c3.5,0.2,7.1,0.3,10.6,0.3
	c3.6,0,7.1,0,10.7-0.2l0,1.1v0c0,0.4,0.4,0.8,0.8,0.8c0,0,0,0,0,0l1.5-0.1c0.2,0,0.4-0.1,0.6-0.3c0.1-0.2,0.2-0.4,0.2-0.6l-0.5-9.8
	C263.1,488.3,262.7,488,262.2,488z M359.4,462.6c-0.2-0.4-0.7-0.6-1.1-0.4c-0.4,0.2-0.9,0.4-1.3,0.7c-0.4,0.2-0.6,0.7-0.4,1.1
	l0.5,0.9c-5,2.5-10.2,4.9-15.4,7.1c-1.1,0.5-2.3,0.9-3.4,1.4l1,2.6c1.1-0.5,2.3-0.9,3.4-1.4c5.3-2.2,10.5-4.6,15.6-7.1l1,2
	c-5.2,2.6-10.4,5-15.7,7.2c-1.1,0.5-2.3,0.9-3.5,1.4l1,2.6c1.2-0.5,2.3-0.9,3.5-1.4c5.4-2.2,10.7-4.7,16-7.3l0.4,0.7
	c0.1,0.3,0.4,0.5,0.7,0.5c0.1,0,0.2,0,0.4-0.1l1.4-0.7c0.2-0.1,0.3-0.3,0.4-0.5c0.1-0.2,0-0.4-0.1-0.6L359.4,462.6z M337,27
	c-0.2,0.4,0,0.9,0.5,1.1l1.3,0.5c0.1,0,0.2,0.1,0.3,0.1c0.3,0,0.6-0.2,0.8-0.5l0.6-1.6c6.4,2.6,12.8,5.5,18.9,8.7l0.7-1.4
	c-6.2-3.2-12.6-6.1-19.1-8.7l1.3-3.3c6.6,2.7,13,5.6,19.4,8.9l0.7-1.4c-6.4-3.3-12.9-6.2-19.5-8.9l0.6-1.4c0.1-0.2,0.1-0.4,0-0.6
	c-0.1-0.2-0.2-0.4-0.4-0.4l-1.4-0.6c-0.4-0.2-0.9,0-1.1,0.5L337,27L337,27z M360.2,38.5c0.4,0.2,0.9,0.4,1.3,0.7
	c0.1,0.1,0.3,0.1,0.4,0.1c0.3,0,0.6-0.2,0.7-0.4l0.8-1.5c6.1,3.3,12.1,6.8,17.9,10.6l0.9-1.3c-5.9-3.8-11.9-7.4-18-10.7l1.7-3.1
	c6.2,3.3,12.4,7,18.3,10.9l0.9-1.3c-6-3.9-12.1-7.6-18.4-10.9l0.7-1.4c0.1-0.2,0.1-0.4,0.1-0.6c-0.1-0.2-0.2-0.4-0.4-0.5l-1.4-0.7
	c-0.4-0.2-0.9-0.1-1.1,0.3l-4.6,8.7C359.7,37.8,359.8,38.3,360.2,38.5z M336.5,472.9c-0.2-0.4-0.6-0.6-1.1-0.5l-1.4,0.5
	c-0.4,0.2-0.6,0.6-0.5,1.1l0.4,1c-6.4,2.4-13,4.6-19.6,6.4l0.7,2.7c6.7-1.8,13.3-4,19.8-6.4l0.8,2.1c-6.6,2.5-13.2,4.7-20,6.5
	l0.7,2.7c6.8-1.9,13.6-4.1,20.3-6.6l0.3,0.8c0.1,0.2,0.2,0.4,0.4,0.5c0.1,0,0.2,0.1,0.3,0.1c0.1,0,0.2,0,0.3-0.1l1.4-0.5
	c0.4-0.2,0.6-0.6,0.5-1.1L336.5,472.9z M313.3,19.7c0.1,0.2,0.3,0.3,0.5,0.4l1.4,0.4c0.1,0,0.1,0,0.2,0c0.4,0,0.7-0.2,0.8-0.6
	l0.4-1.5c6.7,1.9,13.3,4.1,19.8,6.5l0.6-1.5c-6.5-2.5-13.1-4.8-19.9-6.8l0.9-3.2c6.8,1.9,13.6,4.2,20.2,6.7l0.6-1.5
	c-6.7-2.6-13.4-4.9-20.3-6.9l0.4-1.4c0.1-0.4-0.1-0.9-0.6-1c-0.5-0.1-1-0.3-1.5-0.4c-0.4-0.1-0.9,0.1-1,0.6l-2.6,9.5
	C313.1,19.3,313.2,19.6,313.3,19.7z M312.6,480.8c-0.1-0.4-0.6-0.7-1-0.6l-1.4,0.4c-0.2,0.1-0.4,0.2-0.5,0.4s-0.1,0.4-0.1,0.6l0.3,1
	c-4.4,1.1-8.8,2.2-13.3,3.1c-2.3,0.4-4.6,0.9-6.9,1.2l0.4,2.7c6.9-1.1,13.7-2.6,20.4-4.3l0.6,2.3c-4.5,1.2-9,2.2-13.6,3.1
	c-2.3,0.5-4.7,0.9-7,1.3l0.4,2.7c7-1.2,14-2.6,20.8-4.4l0.2,0.9c0.1,0.2,0.2,0.4,0.4,0.5c0.1,0.1,0.3,0.1,0.4,0.1c0.1,0,0.1,0,0.2,0
	c0.5-0.1,1-0.3,1.5-0.4c0.2-0.1,0.4-0.2,0.5-0.4c0.1-0.2,0.1-0.4,0.1-0.6L312.6,480.8z"/>
</svg>
