<?xml version="1.0" encoding="utf-8"?>
<!-- Generator: Adobe Illustrator 25.0.0, SVG Export Plug-In . SVG Version: 6.00 Build 0)  -->
<svg version="1.1" id="レイヤー_1" xmlns="http://www.w3.org/2000/svg" xmlns:xlink="http://www.w3.org/1999/xlink" x="0px"
	 y="0px" viewBox="0 0 20.8 24.9" style="enable-background:new 0 0 20.8 24.9;" xml:space="preserve">
<path fill="#fff" d="M2.4,17L0,24.2c-0.2,0.5,0.3,0.9,0.8,0.6l6.5-3.9c0.3-0.2,0.5-0.4,0.7-0.6L20.6,4.4c0.2-0.3,0.2-0.7,0-0.9l-4.3-3.4
	C16-0.1,15.6,0,15.4,0.3L2.8,16.2C2.6,16.4,2.5,16.7,2.4,17z M4,17l3,2.4c0.2,0.2,0.1,0.5-0.1,0.7l-4.6,2.8
	c-0.3,0.2-0.6-0.1-0.5-0.4l1.7-5.2C3.4,17,3.8,16.9,4,17z"/>
</svg>
