<?xml version="1.0" encoding="UTF-8"?><svg id="Layer_2" xmlns="http://www.w3.org/2000/svg" viewBox="0 0 687.11 74.96"><defs><style>.cls-1{stroke-width:.57px;}.cls-1,.cls-2{fill:#231f20;stroke:#231f20;stroke-miterlimit:10;}.cls-2{stroke-width:.28px;}</style></defs><g id="text"><g><path class="cls-1" d="M9.09,11.73c-.46,.09-.61,.09-.88,.64C5.81,17.23,1.13,20.63,.34,20.63c-.03,0-.06-.03-.06-.06,0-.09,.12-.24,.27-.39,2.16-1.97,5.59-6.86,6.22-10.66,.03-.12,0-.21,.09-.21,.12,0,3.16,1.15,3.16,1.82,0,.24-.27,.49-.94,.61Zm2.61,15.12c-.3,0-.36-.18-.55-.42-.46-.55-4.07-1.91-4.07-2.13,0-.03,.03-.03,.09-.03,.09,0,.18,0,.36,.03,1.61,.27,2.79,.39,3.67,.39,2,0,2.43-.64,2.46-1.58,.06-1.58,.09-4.25,.09-7.14,0-3.67-.03-7.74-.09-10.41,0-.76-.09-2.22-.36-3.52-.03-.06-.03-.12-.03-.15,0-.09,.03-.12,.12-.12,.18,0,3.58,.36,3.58,1.12,0,.21-.18,.46-.52,.67-.61,.4-.7,.12-.79,1.52-.09,1.37-.12,4.4-.12,7.5,0,2.79,.03,5.59,.06,7.29,.03,.88,.12,2.95,.12,3.55,0,2.34-2.52,3.43-4.04,3.43Zm13.39-9.75c-.94-2.25-3.7-5.4-5.59-7.14-.15-.12-.21-.21-.21-.27,0-.03,.03-.06,.09-.06,.64,0,8.38,3.89,8.38,7.65,0,.91-.46,1.52-1.03,1.52-.52,0-1.12-.49-1.64-1.7Z"/><path class="cls-1" d="M40.27,11.64c-2.76,0-4.8-1.88-4.8-3.28,0-.24,.06-.76,.24-.76,.12,0,.33,.15,.61,.49,.09,.09,1.76,1.79,4.22,1.79,.97,0,2.55-.42,3.73-.91-1.24-1-2.4-1.85-3.16-2.43-.55-.43-.76-.94-.76-1.43,0-.79,.61-1.49,1.43-1.49,.21,0,.43,.03,.64,.12,.49,.18,.85,.61,.94,.67,1.85,1.37,3.86,1.55,4.28,1.55,.36,0,.58-.03,.79-.06h.06c.36,0,.94,.27,.94,.97,0,1.15-2.12,2.37-2.88,2.76,2.61,2.22,6.13,5.53,6.13,8.9,0,1.91-1.49,2.1-1.67,2.1-.52,0-.91-.4-1.43-.79-.88-.7-3.83-1.37-6.28-1.37-3.28,0-4.52,1.43-4.52,2.73,0,1.46,1.61,2.98,4.92,2.98,.85,0,1.7-.12,2.37-.33,.21-.06,.39-.09,.58-.09,.82,0,1.43,.49,1.43,1,0,.39-.49,1.34-3.67,1.34-6.53,0-7.04-3.83-7.04-4.49,0-2.13,2.31-4.07,7.32-4.07,1.7,0,3.34,.21,4.58,.46,.21,.03,.36,.06,.52,.06,.61,0,.76-.27,.76-.67,0-.91-.73-3.58-4.92-7.29-2.19,1-3.83,1.55-5.34,1.55Zm6.74-4.49c0-.24-.15-.52-.7-.79-.09-.03-2.73-1.09-3.49-1.09-.39,0-.58,.18-.58,.4,0,.39,.97,1.21,3.01,2.88,1.31-.64,1.76-1,1.76-1.4Z"/><path class="cls-1" d="M68.54,18.2c-.46,1-1.31,1.52-1.91,1.52-.4,0-.67-.21-.67-.7,0-.36,.15-.88,.61-1.52,1.55-2.25,4.28-6.35,5.37-9.29,.03-.12,.12-.24,.15-.36-.94,.24-1.61,.27-1.94,.27-2.88,0-3.76-2.22-3.76-2.79,0-.12,.06-.15,.12-.15,.15,0,.43,.18,.58,.27,.76,.52,1.94,1,3.13,1,.09,0,.97,0,2.25-.33,.06-.49,.09-.97,.09-1.4,0-1.94-.49-1.97-.76-1.97-.49,0-.76-.09-.76-.3,0-.15,.36-.91,1.21-.91,.15,0,1.79,.03,1.88,2.1,2.28,.42,2.55,.52,2.55,1.09,0,.85-1.49,2.1-3.37,2.76-.3,.82-.67,1.73-4.77,10.72Zm5.4,8.62c-2.34,0-3.98-1.85-3.98-3.28,0-1.79,2.28-2.85,5.31-2.85,.76,0,1.49,.06,2.22,.21,0-1.27-.15-2.67-.15-3.79,0-2.61,.64-4.1,2.88-5.56,1-.67,1.85-1.37,1.85-2.06,0-.33,0-.4-.85-1.25-.24-.24-.43-.42-.43-.52s.12-.12,.4-.12c1.85,0,3.73,1.58,3.73,2.95,0,.46-.3,1.64-1.21,1.64-.24,0-.52-.06-.82-.12-.09-.03-.21-.03-.4-.03-.94,0-4.16,.3-4.16,3.28,0,.49,.06,1.06,.12,1.73,.09,1.25,.39,2.88,.46,4.25,2.52,.88,4.49,2.4,4.49,3.76,0,.64-.39,1.15-.88,1.15-.33,0-.7-.24-1.03-.85-.52-.94-1.46-1.82-2.64-2.49-.42,2.25-2.67,3.95-4.92,3.95Zm.49-5.16c-2.22,0-3.58,.88-3.58,1.76,0,1.09,1.55,1.61,2.76,1.61,1.88,0,3.52-1.15,3.8-2.82-.94-.33-1.97-.55-2.98-.55Zm-.55-16.06c.33-.18,.64-.33,.85-.55,.12-.09,.21-.27,.21-.46,0-.39-.49-.61-.82-.73,0,.52-.09,1.09-.24,1.73Z"/><path class="cls-1" d="M99.66,3.11c-.06,.03-.09,.09-.15,.12-.33,.24-.43,.27-.43,1.21v.43c.03,1.03,.06,2.16,.06,3.37,0,6.41-.79,14.76-5.65,18.86-.46,.39-.85,.61-1.03,.61-.03,0-.06,0-.06-.06,0-.12,.15-.36,.58-.82,3.28-3.61,4.22-11.17,4.22-17.49,0-5.68-.64-8.11-.7-8.32-.03-.12-.03-.18-.03-.21,0-.06,0-.09,.03-.09,.52,0,2.73,1.09,3.25,1.43,.06,.03,.15,.09,.21,.15h13.06c.21,0,.36-.06,.52-.27,.39-.55,.76-.76,.94-.76,.33,0,2.61,1.18,2.61,1.79,0,.27-.33,.52-.73,.73-.55,.27-.67,.09-.76,1.25-.15,1.97-.33,4.28-.33,6.56,0,9.93,3.43,11.78,3.58,11.78,.46,0,.85-1.49,1.61-4.92,.09-.36,.15-.52,.18-.52,.24,0-.09,5.53,.64,7.04,.21,.42,.3,.79,.3,1.09,0,.73-.46,1.15-1.12,1.15-.43,0-.91-.15-1.4-.52-4.89-3.43-5.5-10.44-5.5-16.79,0-2,.06-3.98,.06-5.71v-.58c0-.33-.15-.52-.49-.52h-13.48Zm9.87,15.61v-1.03h-2.58c0,1.61,.03,3.22,.06,4.83,1.31-.15,2.52-.33,3.34-.46-.39-.64-.91-1.27-1.46-1.82-.09-.09-.15-.18-.15-.21,0,0,0-.03,.06-.03,.52,0,4.68,1.61,4.68,3.8,0,.73-.52,1.24-1.06,1.24-.42,0-.88-.3-1.12-1.06-.15-.43-.36-.91-.67-1.43-2.19,.88-7.59,2.1-9.41,2.61-.4,.09-.55,.43-.79,.43-.46,0-1.76-2.25-1.76-2.58,0-.06,.03-.06,.12-.06h.15c.79,.06,1.76,.09,2.43,.09,1.15,0,3.01-.18,3.95-.3,.03-1.52,.03-3.28,.06-5.04h-2.4l.03,1.52c0,.55-.58,.91-1.09,.91-.4,0-.73-.21-.73-.7v-.12c.18-2.28,.21-3.67,.21-4.86,0-.67,0-2.95-.33-4.58-.03-.09-.03-.15-.03-.18s.03-.06,.03-.06c.18,0,1.94,.73,2.58,1.18h1.73v-1.15c0-.55,0-1.55-.06-2.43-1.52,.18-3.16,.3-4.4,.3-.12,0-1.12,0-1.12-.15,0-.06,.21-.15,.67-.18,2.67-.3,7.23-1.49,8.44-2.85,.09-.09,.09-.15,.15-.15,.3,0,2.22,1.55,2.22,1.97,0,.18-.18,.33-.49,.33-.12,0-.24-.03-.39-.06-.15-.06-.3-.06-.46-.06s-.27,0-.43,.06c-.43,.15-1,.27-1.7,.4,.06,.06,.09,.12,.09,.21,0,.12-.09,.27-.4,.43-.36,.18-.46,.24-.49,1.18,0,.64-.03,1.37-.03,2.16h1.91c.15,0,.3-.06,.39-.21,.52-.73,.7-.76,.82-.76,.4,0,2.19,.97,2.19,1.55,0,.3-.36,.49-.64,.64-.46,.27-.58,.42-.58,1.7s.12,2.95,.24,4.8c.03,.64-.52,1.03-1.03,1.03-.39,0-.76-.24-.76-.79v-.03Zm-4.16-1.79c0-1.94,.03-3.83,.03-5.34h-1.82s-.06,.06-.12,.09q-.52,.33-.52,3.52c0,.55,.03,1.12,.03,1.73h2.4Zm4.19,0c.03-1.03,.03-1.91,.03-2.73s0-1.55-.06-2.28c0-.18-.18-.33-.3-.33h-2.25c-.03,1.61-.03,3.43-.03,5.34h2.61Z"/><path class="cls-1" d="M136.92,23.84c-.15,0-.36-.03-.61-.12-.15-.06-.24-.09-.33-.09-.12,0-.24,.09-.49,.24-3.37,2.06-8.26,3.01-9.38,3.01-.24,0-.39-.06-.39-.12s.18-.18,.58-.27c2.76-.7,7.83-3.4,8.68-5.1,.06-.12,.09-.24,.18-.24,.18,0,2.13,1.85,2.13,2.43,0,.18-.12,.27-.36,.27Zm-.27-11.29c-1.67,0-6.04,.06-8.74,.33h-.03c-.55,0-1.31-1.15-1.31-1.58v-.03c3.1,.39,8.47,.52,10.2,.52h2.82c0-.21,.03-.46,.03-.55,0-.97,0-1.61-.15-2.22h-4.68v.46c0,.33-.4,.88-1.15,.88-.46,0-.85-.21-.85-.73v-.09c.18-1.82,.24-3.92,.24-5.13,0-.39-.09-2.55-.33-3.67-.03-.09-.03-.15-.03-.18,0-.06,.03-.09,.06-.09,.12,0,1.76,.49,2.76,1.18l.03,.03h10.23c.15,0,.24-.03,.36-.18,.21-.21,.46-.52,.64-.67,.09-.06,.18-.12,.33-.12,.21,0,2.4,1,2.4,1.73,0,.3-.39,.52-.73,.7-.46,.27-.58,.49-.58,1.24v.3c0,1.34,.15,3.49,.21,4.65,.03,.55-.46,1.03-1.18,1.03-.43,0-.82-.24-.82-.79v-.55h-4.13c.12,.06,.18,.15,.18,.21,0,.15-.24,.33-.46,.43-.55,.27-.58,.3-.58,2.13h8.08c.21,0,.43-.15,.52-.3,1.15-1.64,1.37-1.85,1.7-1.85,.06,0,.12,0,.18,.03,1.03,.36,2.67,2.09,2.67,2.52,0,.18-.15,.36-.67,.36h-17.25Zm9.02,7.77v-.09h-3.28c.21,.06,.33,.15,.33,.27,0,.09-.15,.21-.36,.33q-.58,.24-.58,1.4c0,.3,0,.67,.03,.88,.03,.52,.09,.79,.09,1.43,0,2.7-2.88,3.16-3.34,3.16-.27,0-.36-.15-.49-.46-.33-.73-3.37-1.85-3.37-2.06,0-.03,.03-.03,.12-.03,.06,0,.18,0,.36,.03,1.34,.21,2.37,.36,3.13,.36,1.7,0,1.73-.49,1.73-2.58,0-1.09-.03-2.22-.09-2.76h-4.4c-.09,.49-.7,.82-1.21,.82-.46,0-.85-.24-.85-.76v-.09c.15-1.46,.24-2.16,.24-3.07,0-.24-.12-1.76-.36-2.92-.03-.09-.03-.15-.03-.18q0-.06,.03-.06c.15,0,2.19,.85,2.92,1.34l.03,.03h8.65c.15,0,.33-.09,.46-.24,.3-.46,.73-.91,.91-.91,.39,0,2.49,1.24,2.49,1.76,0,.3-.43,.46-.73,.76-.55,.55-.58,.18-.61,.64v.15c0,.67,.18,1.61,.27,2.61,.06,.85-.82,1.06-1.21,1.06-.46,0-.88-.24-.88-.79v-.03Zm-10.2-17.85c-.06,.06-.12,.09-.21,.15-.4,.24-.43,.24-.49,1.18,0,.27-.03,.61-.03,1.03h11.72c0-.73-.03-1.43-.06-2.03,0-.09-.06-.33-.33-.33h-10.6Zm-.73,3.16c0,.82,.03,1.76,.03,2.61h11.66c.03-.88,.03-1.76,.03-2.61h-11.72Zm1.52,10.44s-.06,.06-.12,.09c-.58,.36-.64,.39-.64,2.06,0,.36,.03,.79,.03,1.21l10.17,.03c0-.52,.03-1,.03-1.43,0-.61-.03-1.15-.06-1.64,0-.12-.06-.33-.33-.33h-9.08Zm13.85,10.14c-1.15-1.31-3.77-2.82-5.92-3.79-.12-.06-.21-.12-.21-.18,0-.03,.09-.06,.21-.06,.88,0,8.11,.79,8.11,3.49,0,.67-.42,1.21-1,1.21-.36,0-.76-.18-1.18-.67Z"/><path class="cls-1" d="M171.65,18.11c-2.61,1.58-3.67,3.16-3.67,4.43,0,1,.97,2.7,3.92,2.7,1.18,0,2.49-.27,3.58-.85,.33-.18,.64-.24,.91-.24,.64,0,1.09,.39,1.09,.88,0,1.15-2.43,2-4.74,2-3.49,0-5.86-2.16-5.86-4.19s1.97-4.13,4.77-5.77c0-1.46-.15-4.52-2.03-4.52-.82,0-1.88,.67-3.1,2.4-.21,.36-.43,.82-.67,1.27-.46,.85-1.31,2.31-2.13,2.31-.21,0-.79-.18-.79-1,0-.55,.33-1.37,1.18-2.16,2.76-2.58,3.7-4.19,5.07-7.26,.06-.12,.09-.24,.15-.36l-.21,.06c-.64,.18-1.15,.24-1.64,.24-3.1,0-3.73-2.16-3.73-2.67,0-.06,.03-.12,.09-.12,.09,0,.33,.15,.7,.4,.97,.67,1.82,.85,2.64,.85,.09,0,1.31,0,2.67-.46,.09-.39,.09-.7,.09-.97,0-1.06-.3-1.67-1.21-1.88-.18-.06-.43-.12-.43-.27,0-.27,.82-.61,1.28-.61,.24,0,1.52,.03,1.73,1.52,.09,0,.21,0,.36,.03,.24,.03,.46,.03,.67,.03,.46,0,.79-.06,.88-.09,.12-.06,.27-.09,.36-.09,.39,0,.64,.33,.64,.76,0,1.18-1.67,2.16-3.64,2.88l-.12,.24c-1.09,2.37-1.73,3.52-2.46,4.77,.64-.36,1.25-.52,1.79-.52,1.55,0,2.7,1.34,3.1,3.16,1.31-3.28,3.8-6.47,6.77-6.47,1.61,0,3.7,1.21,3.7,2.64,0,1.18-1.37,2.37-3.34,3.16-2.06,.82-4.77,1.88-6.83,2.92,.06,.61,.09,1.21,.09,1.85,0,.46-.03,.94-.06,1.4-.09,1.03-.82,1.82-1.37,1.82-.39,0-.7-.33-.7-1.18,0-.12,.03-.24,.03-.39,.06-.76,.39-.97,.42-2.1l.03-.55Zm-.3-14.06v.24c0,.42-.06,.82-.15,1.24,.67-.27,1.15-.67,1.15-.94,0-.24-.7-.46-.73-.46-.12-.03-.21-.06-.27-.09Zm1.73,12.24c1.79-.94,4.28-2.13,6.07-3.07,1.31-.7,2.12-1.43,2.12-2.22,0-.12-.24-1.61-1.91-1.61-2.88,0-5.53,4.49-6.29,6.8v.09Z"/><path class="cls-1" d="M205.69,5.57c.18,2.19,.61,4.58,1.61,6.68,1.55-2.06,2.55-3.95,2.64-4.58,.03-.12,.03-.21,.12-.21,.24,0,2.49,1.55,2.49,2.12,0,.21-.24,.4-.7,.4h-.36c-.3,0-.46,.09-.61,.33-.82,1.27-1.7,2.43-2.67,3.49,1.64,2.31,3.64,3.04,3.92,3.04,.85,0,1.79-1.37,2.88-3.61,.27-.55,.27-.27,.27-.24,0,.49-.49,2.52-.49,3.73,0,.36,.06,.67,.18,.79,.27,.27,.4,.61,.4,.91,0,.52-.4,.94-1.25,.94-.73,0-4.28-.58-6.92-4.52-4.65,4.37-10.84,4.86-11.48,4.86-.18,0-.27-.03-.27-.06,0-.09,.42-.24,1.09-.4,4.19-.91,7.38-2.98,9.84-5.83-1.37-2.64-2-5.62-2.34-7.83h-9.2c-.06,.03-.12,.09-.21,.12-.36,.18-.42,.21-.42,.82v1.79c0,4.83-.64,10.41-5.68,13.51-.49,.3-.88,.49-1.06,.49-.03,0-.06-.03-.06-.06,0-.09,.15-.3,.61-.67,3.49-2.91,4.25-7.32,4.25-11.63,0-2.79-.3-5.43-.55-6.31-.03-.09-.03-.15-.03-.18,0-.06,0-.09,.06-.09,.4,0,2.46,.88,3.16,1.34,.06,.03,.12,.06,.18,.12h8.87c-.09-.82-.55-3.64-.76-4.22-.06-.12-.09-.18-.09-.24s.06-.06,.18-.06c.7,0,3.28,.33,3.28,.97,0,.18-.18,.36-.49,.52-.49,.24-.52,.24-.52,.85,0,.06,0,.79,.06,2.19h4.16c.21,0,.42-.12,.52-.27,.61-.85,1.27-1.76,1.67-1.76,.06,0,.12,0,.18,.03,1.34,.49,2.58,2.03,2.58,2.4,0,.18-.15,.36-.67,.36h-8.38Zm-16.21,20.13c0-.58,.46-1.21,1.46-1.55,1.67-.55,2.67-1.91,3.49-3.19,.09-.15,.15-.21,.18-.21,.06,0,.06,.12,.06,.3,0,2.92-2.03,5.65-4.07,5.65-.73,0-1.12-.46-1.12-1Zm9.96-16.85c-.91,0-1.73,.03-3.13,.27h-.03c-.33,0-1.18-1.09-1.18-1.43,1.76,.33,3.43,.43,4.37,.43h.58c.06,0,.27-.09,.36-.24,.27-.55,.91-1.24,1.12-1.24,.06,0,.12,0,.15,.03,1.64,.76,1.88,1.55,1.88,1.76s-.12,.43-.58,.43h-3.55Zm-1.73,6.53c0,.43,.03,.79,.03,1.12,.03,.49-.43,.85-1,.85-.36,0-.7-.21-.7-.67v-.09c.06-.97,.15-2.03,.15-3.43,0-.36-.03-1.43-.24-2.46,0-.06-.03-.12-.03-.18s.03-.09,.09-.09c.15,0,1.73,.52,2.31,.88l.03,.03h2.06c.12,0,.27-.03,.36-.18,.12-.21,.36-.49,.52-.61,.09-.03,.15-.09,.24-.09,.18,0,2.03,.88,2.03,1.49,0,.27-.3,.46-.55,.61-.43,.27-.49,.3-.49,.97,0,.49,.12,.76,.18,1.58v.06c0,.58-.55,.91-1,.91-.36,0-.73-.21-.73-.7h-3.28Zm7.62,11.78c-1.06,.06-2.13,.12-3.04,.12-4.55,0-5.13-1.18-5.13-2.22v-.12c.03-.76,.12-1.55,.12-2.16,0-.52-.03-1.37-.15-2.1-.03-.09-.03-.18-.03-.21,0-.06,.03-.06,.12-.06,.24,0,3.01,.24,3.01,.91,0,.15-.21,.36-.58,.55-.55,.27-.55,.3-.61,1-.09,.88-.09,.67-.09,1.55,0,.76,.15,1.18,3.95,1.18,3.46,0,4.22-.52,4.83-3.8,.03-.24,.09-.33,.12-.33,.18,0,.39,2.37,.97,2.73,.46,.27,.67,.61,.67,.94,0,.85-1.43,1.82-4.16,2Zm-7.1-15.03c-.06,.03-.09,.09-.15,.12q-.33,.21-.36,.76v1.64h3.28c.03-.49,.03-.91,.03-1.28s0-.7-.03-.94c0-.09-.12-.3-.33-.3h-2.43Zm4.95,10.35c-.39-.79-1.43-1.88-2.22-2.52-.21-.18-.33-.27-.33-.3s.03-.03,.12-.03c.46,0,4.52,.27,4.52,2.49,0,.67-.46,1.21-1,1.21-.36,0-.79-.24-1.09-.85Zm5.5-19.49c-.4-.67-1.37-1.61-2.1-2.16-.18-.15-.3-.24-.3-.27,0-.06,.15-.09,.43-.09,.7,0,3.89,.3,3.89,2.09,0,.61-.42,1.12-.94,1.12-.33,0-.7-.18-.97-.7Zm4.01,22.01c-.91-1.67-2.22-2.88-3.55-3.86-.12-.09-.18-.15-.18-.21,0-.03,.06-.06,.15-.06,.58,0,5.98,1.37,5.98,3.89,0,.73-.49,1.31-1.06,1.31-.43,0-.91-.3-1.34-1.06Z"/><path class="cls-1" d="M233.13,26.46c-2.67,0-6.62-1.28-6.62-8.99,0-3.34,.7-6.74,.7-10.05,0-1.55-.15-2.85-.85-3.61-.27-.3-.4-.49-.4-.61s.12-.18,.33-.18c.06,0,3.19,0,3.19,3.22,0,.3-.03,.64-.09,1-.33,2.28-1.46,6.98-1.46,10.78,0,1.76,.15,6.47,5.53,6.47,2.7,0,6.01-1.34,8.99-3.92,.24-.21,.46-.33,.55-.33,.06,0,.06,.03,.06,.06,0,.52-4.46,6.16-9.93,6.16Zm.7-19.16c1.82,0,3.86,.73,3.86,2.22,0,.61-.4,1.06-.88,1.06-.3,0-.61-.15-.88-.49-.82-1-1.88-1.82-2.73-2.31-.24-.12-.46-.21-.46-.3,0,0,.27-.18,1.09-.18Zm5.8,1.43c-.82-1-1.85-1.82-2.7-2.31-.24-.12-.49-.21-.49-.3,0-.12,.73-.18,1.09-.18,2.43,0,3.86,1.09,3.86,2.22,0,.61-.39,1.06-.91,1.06-.27,0-.58-.15-.85-.49Z"/><path class="cls-1" d="M261.61,24.57c3.7-.76,5.19-3.25,5.19-5.47,0-2.37-1.85-4.65-4.95-4.65-2.16,0-4.74,.91-6.68,4.31-.27,.49-.76,1.58-.97,1.88-.43,.61-.91,.85-1.31,.85-.49,0-.85-.36-.85-.91,0-.49,.27-1.12,2.49-3.73,1.21-1.43,6.8-9.11,7.32-9.93,.18-.3,.3-.58,.3-.76,0-.15-.06-.55-.79-.55-1.46,0-2.25,2.79-4.22,2.79-1.09,0-1.91-.64-1.91-1.73,0-.24,.03-.49,.24-.49,.15,0,.33,.09,.58,.18,.27,.09,.52,.12,.79,.12,.43,0,.88-.12,1.24-.43,.82-.67,2.49-1.85,4.16-1.85,1.43,0,2.64,1.12,2.64,1.79,0,.58-.55,1.06-1.18,1.55-2.46,1.85-6.29,7.2-6.29,7.29h.03s.06,0,.15-.06c1.4-.88,3.13-1.4,4.83-1.4,4.4,0,6.29,3.25,6.29,5.65,0,3.43-3.19,6.83-8.38,6.83-2.19,0-4.77-1.15-4.77-3.07,0-1.37,1.4-2.25,2.85-2.25,1.88,0,3.25,1.49,3.25,3.07,0,.33-.06,.64-.18,.97l.12-.03Zm-1.58-.94c0-1.12-.88-2.06-1.97-2.06-1.28,0-1.43,.88-1.43,1.21,0,1.12,1.67,1.79,3.16,1.91,.18-.36,.24-.7,.24-1.06Z"/><path class="cls-1" d="M278.98,26.67c-.88-1.7-2.43-2.95-3.67-3.83-.3-.24-.61-.42-.61-.52,0-.03,.06-.06,.21-.06,1.24,0,6.56,1.21,6.56,3.86,0,.82-.61,1.46-1.27,1.46-.43,0-.88-.27-1.21-.91Z"/><path class="cls-1" d="M309.59,13.61v-.33c0-2.67-.36-3.34-1.03-3.55-.58,.12-1.52,.18-1.73,.18-1.73,0-2.95-.82-2.95-1.67,0-.18,.03-.52,.27-.52,.12,0,.3,.09,.46,.21,.55,.36,1.37,.49,2.31,.49,1.85,0,4.19-.52,5.62-.82,1.18-.24,1.58-.91,2.82-.91,.49,0,2.31,.15,2.31,1.15,0,.42-.49,.82-1.34,.85-1.64,.03-4.01,.39-6.16,.76,.09,.09,.21,.18,.3,.27,.76,.67,.97,.97,.97,1.61,0,.33-.06,.76-.12,1.37-.06,.43-.09,.82-.12,1.28,1.58-.21,3.19-.43,4.62-.55,1.58-.15,1.94-.58,2.98-.58,.82,0,3.07,.36,3.07,1.37,0,.46-.55,.82-1.34,.82-.12,0-.24,0-.36-.03-1.06-.15-2.19-.21-3.34-.21-1.94,0-3.89,.18-5.74,.46-.12,1.64-.18,3.25-.18,4.19,0,1.12,.09,2.58,3.92,2.58,.36,0,.76-.03,1.21-.06,1.31-.12,2-.88,3.13-.94h.24c1.09,0,2.22,.43,2.22,1.06,0,1.52-5.59,1.52-6.22,1.52-2.91,0-6.1-.4-6.1-3.73,0-.15,.03-.33,.03-.49,.15-1.58,.21-2.82,.24-3.89-1.4,.24-2.67,.52-3.77,.79-1,.24-1.37,.46-1.97,.46-.12,0-3.55-.18-3.55-1.91,0-.36,.09-.49,.27-.49,.15,0,.36,.09,.64,.21,.76,.3,1.85,.43,2.61,.43,.64,0,1.97-.18,5.8-.76v-.61Z"/><path class="cls-1" d="M335.79,16.07c-.09,1.49-.15,2.88-.15,3.73,0,1.46,.24,2.85,4.49,2.85,.85,0,1.79-.06,2.58-.15,1.43-.15,2.22-1,3.43-1.15,.15-.03,.3-.03,.46-.03,.12,0,2.22,0,2.22,1.06,0,1.73-6.29,1.88-8.84,1.88-2,0-5.98-.03-5.98-3.98,0-.18,0-.36,.03-.55,.24-2.76,.27-4.46,.27-6.19v-.33c0-3.7-.52-5.25-1.94-5.34-.82-.03-1.12-.24-1.12-.46s.64-.82,1.64-.82c1.24,0,3.61,1.4,3.61,3.22,0,.79-.3,1.7-.43,2.76-.09,.91-.18,1.91-.24,2.92,2.67-.73,7.23-2.85,7.23-3.49,0-.18-.21-.36-.79-.55-.39-.12-.58-.21-.58-.3,0-.15,.76-.27,1.31-.27,.24,0,3.61,.4,3.61,1.85,0,.33-.24,.7-.91,.94-3.34,1.24-7.17,2.03-9.87,2.4h-.03Zm11.26-5.43c-.79-.94-1.79-1.67-2.61-2.13-.24-.12-.46-.21-.46-.3,0-.03,.43-.18,1.18-.18,1.64,0,3.58,.7,3.58,2.06,0,.58-.4,1-.88,1-.24,0-.55-.15-.82-.46Zm3.22-1.46c-.85-.91-1.85-1.64-2.67-2.06-.24-.12-.49-.21-.49-.27,0-.24,1.28-.24,1.34-.24,1.67,0,3.49,.7,3.49,2,0,.55-.39,.97-.88,.97-.24,0-.52-.12-.79-.39Z"/><path class="cls-1" d="M360.84,27.15c-.06,0-.09,0-.09-.03,0-.09,.33-.36,1.21-.91,4.43-2.7,7.41-8.05,7.65-14.7,.06-1.31,.03-2.25,.12-3.7,.03-.36,.03-.7,.03-1,0-2.06-.61-2.73-1.4-2.82-.18-.03-.55-.18-.55-.43,0-.15,.33-.7,1.09-.7,.94,0,3.61,1.37,3.61,2.37,0,.3-.15,.58-.3,.88-.55,1.15-.67,2.16-.76,5.71-.21,11.9-9.84,15.33-10.63,15.33Zm2.16-11.78c0-.15,0-.33,.03-.52,.12-1.34,.18-2.25,.18-3.22,0-3.55-.27-5.8-1.85-5.89-.21-.03-.58-.15-.58-.39,0-.33,.67-.73,1.37-.73,.58,0,3.07,.91,3.07,2.06,0,.21-.09,.39-.18,.61-.21,.46-.24,1.21-.24,1.61,0,3.46,.06,4.19,.18,5.34,.03,.3,.06,.52,.06,.7,0,.64-.33,2.16-1.15,2.16-.46,0-.88-.55-.88-1.73Z"/><path class="cls-1" d="M396.24,11.55c.58,.24,.94,.58,.94,1.46,0,.24,0,.49-.06,.79-1.79,10.2-12.02,13.09-12.9,13.09-.06,0-.09-.03-.09-.06,0-.06,.3-.27,.76-.49,5.16-2.46,10.05-8.65,10.05-12.84,0-.79-.18-1.31-.67-1.31-.06,0-.12,.03-.18,.03-.09,.03-.15,.03-.21,.03-.21,0-.3-.12-.3-.3,0-.06,0-.12,.03-.18-1.49,.24-2.79,.61-3.77,.97-.73,.27-1.12,.46-1.7,.46-1.31,0-3.95-.88-3.95-2.19,0-.27,.12-.36,.3-.36s.39,.09,.64,.21c.67,.33,1.97,.55,2.98,.55,.3,0,.55-.03,.76-.06,2.79-.46,6.35-1.12,10.14-1.52,1.06-.09,1.49-.64,2.43-.64,.7,0,3.55,.76,3.55,1.82,0,.42-.46,.79-1.09,.79-.12,0-.27-.03-.42-.06-1.43-.33-2.76-.49-4.19-.49-.3,0-.88,0-3.31,.21l.27,.09Zm2.1-7.38c.97,0,2.4,.42,2.4,1.12,0,.36-.46,.67-1.31,.7-2.31,.03-5.44,.73-7.29,.97-.36,.06-.7,.06-1.03,.06-2.61,0-2.92-1.61-2.92-1.85,0-.21,.12-.33,.27-.33,.09,0,.18,.06,.3,.12,.58,.36,1.4,.52,2.31,.52,1.76,0,3.86-.52,5.16-.79,.76-.12,1.18-.52,2.1-.52Z"/><path class="cls-1" d="M410,22.27c-.15,0-.21-.03-.21-.12s.18-.3,.61-.52c4.31-2.31,9.08-8.53,9.08-9.87,0-.3-.21-.46-.64-.58-.33-.09-.46-.24-.46-.39,0-.18,.27-.67,1.03-.67,1.06,0,2.52,1.06,2.52,1.79,0,.61-.76,1.06-1.09,1.58-.46,.7-.97,1.46-1.58,2.19,.46,.27,.82,.82,.82,1.31,0,.15-.03,.3-.09,.42-.15,.27-.18,1.64-.18,3.04,0,1.55,.03,3.16,.06,3.46v.3c0,1.97-.73,2.03-.91,2.03-.64,0-1.03-.97-1.03-2.13,0-.3,.03-.64,.09-1,.09-.52,.24-.76,.27-1.31,.09-1.37,.09-2.79,.09-3.98,0-.33-.03-.79-.09-1.09-3.49,3.7-7.32,5.53-8.29,5.53Z"/><path class="cls-1" d="M437.38,13.76c-.82-1.06-2.25-2.49-3.22-3.28-.18-.15-.27-.21-.27-.27s.12-.06,.33-.06c1.25,.03,5.28,.91,5.28,3.34,0,.64-.36,1.09-.88,1.09-.36,0-.79-.24-1.24-.82Zm-2.22,12.08c-.09,0-.12,0-.12-.03,0-.09,.33-.27,.79-.46,8.56-3.55,14.42-14.6,14.42-16.33,0-.61-.36-.97-1.24-1.15-.3-.06-.43-.18-.43-.3,0-.03,.21-.76,1.27-.76,1.34,0,3.4,1.18,3.4,2.12,0,.73-.91,1.31-1.37,2.19-7.01,13.18-16.43,14.73-16.73,14.73Zm7.41-14.33c-.67-1.18-1.88-2.79-2.73-3.7-.15-.15-.21-.24-.21-.3,0-.03,.03-.03,.09-.03,1.15,0,5.04,1.55,5.04,3.83,0,.73-.39,1.24-.94,1.24-.36,0-.85-.3-1.24-1.03Z"/><path class="cls-1" d="M476.56,14.65c-2.14,.09-8.59-.03-11.69,.76-.57,.15-1.01,.27-1.47,.27-1.32,0-3.3-1.52-3.3-2.67,0-.24,.05-.33,.18-.33,.15,0,.44,.21,.72,.42,.52,.36,1.68,.43,2.48,.43,.41,0,8.31-.43,11.69-.73,.26-.03,.57-.03,.9-.03,.59,0,2.4,.03,2.4,.88,0,.55-.98,.97-1.91,1Z"/><path class="cls-1" d="M487.09,27.15c-.06,0-.09,0-.09-.03,0-.09,.33-.36,1.21-.91,4.43-2.7,7.41-8.05,7.65-14.7,.06-1.31,.03-2.25,.12-3.7,.03-.36,.03-.7,.03-1,0-2.06-.61-2.73-1.4-2.82-.18-.03-.55-.18-.55-.43,0-.15,.33-.7,1.09-.7,.94,0,3.61,1.37,3.61,2.37,0,.3-.15,.58-.3,.88-.55,1.15-.67,2.16-.76,5.71-.21,11.9-9.84,15.33-10.63,15.33Zm2.16-11.78c0-.15,0-.33,.03-.52,.12-1.34,.18-2.25,.18-3.22,0-3.55-.27-5.8-1.85-5.89-.21-.03-.58-.15-.58-.39,0-.33,.67-.73,1.37-.73,.58,0,3.07,.91,3.07,2.06,0,.21-.09,.39-.18,.61-.21,.46-.24,1.21-.24,1.61,0,3.46,.06,4.19,.18,5.34,.03,.3,.06,.52,.06,.7,0,.64-.33,2.16-1.15,2.16-.46,0-.88-.55-.88-1.73Z"/><path class="cls-1" d="M506.59,24.76c-.12,0-.18-.03-.18-.06,0-.09,.33-.3,.94-.55,9.38-3.8,15.52-13.57,15.52-14.67,0-.3-.15-.55-.64-.55-.82,0-3.58,1.03-5.01,1.64-1.03,.43-1.49,.7-2.1,.7-1.24,0-3.28-1.12-3.28-2.1,0-.49,.21-.67,.42-.67,.15,0,.3,.09,.36,.24,.15,.33,.79,.46,1.58,.46,.61,0,1.31-.06,1.97-.15,.91-.12,4.01-.73,4.95-.88,.82-.15,1.24-.94,1.94-.94s3.22,.82,3.22,1.97c0,.21-.12,.43-.42,.64-.52,.33-.94,.58-1.43,1.4-1.09,1.82-2.31,3.46-3.61,4.95,2,.39,8.5,3.55,8.5,6.07,0,.7-.42,1.18-1,1.18-.42,0-.91-.27-1.34-.94-1.27-2-3.76-4.31-5.89-5.68-.21-.12-.39-.27-.52-.36-6.5,7.17-13.54,8.29-14,8.29Zm21.92-15.79c-.79-.94-1.79-1.67-2.61-2.13-.24-.12-.46-.21-.46-.3,0-.03,.43-.18,1.18-.18,1.64,0,3.58,.7,3.58,2.06,0,.58-.39,1-.88,1-.24,0-.55-.15-.82-.46Zm3.19-1.46c-.85-.91-1.85-1.64-2.67-2.06-.24-.12-.49-.21-.49-.27,0-.24,1.28-.24,1.34-.24,1.67,0,3.49,.7,3.49,2,0,.55-.4,.97-.88,.97-.24,0-.52-.12-.79-.39Z"/><path class="cls-1" d="M544.66,21.93c2.79-.33,7.5-1.06,10.66-1.73-.82-1.4-1.88-2.76-3.01-3.86-.36-.36-.55-.58-.55-.67,0-.03,.03-.06,.09-.06,.67,0,6.98,3.95,6.98,6.77,0,.82-.52,1.37-1.12,1.37-.46,0-.97-.33-1.27-1.18-.24-.61-.52-1.27-.85-1.88-3.22,1.18-7.65,2.52-11.14,3.25-.52,.09-1.09,.55-1.79,.55-1.12,0-2.55-1.58-2.55-2.64,0-.85,.88-1.21,.88-1.21,.15,0,.21,.24,.27,.49,.18,.67,.7,.97,1.82,.97,.15,0,.33-.03,.52-.03,2.55-5.47,4.68-11.54,4.68-13.36,0-.82-.36-1.06-1.09-1.15-.18-.03-.49-.15-.49-.39,0-.3,.49-.67,1.15-.67,.82,0,3.37,1,3.37,2.31,0,.79-.79,1.55-1.28,2.73-1.61,3.73-4.04,8.23-5.5,10.44l.21-.03Z"/><path class="cls-2" d="M13.44,57.56v.7c0,1.49,.05,3.02,.07,3.77,.02,.62-.67,.77-.91,.77-.36,0-.67-.19-.67-.65v-.07c.07-1.06,.14-3.24,.14-4.51H5.13c-.22,2.33-1.49,2.98-2.06,2.98-.5,0-.89-.36-.89-.82,0-.31,.17-.67,.55-.98,1.3-1.08,1.68-1.75,1.92-3.05,.02-.17,.07-.26,.14-.26,.05,0,.26,.26,.34,1.54h6.94c0-.55,0-1.42-.05-1.87-1.54,.02-3.82,.1-5.5,.26h-.02c-.43,0-1.06-.91-1.06-1.22,2.42,.29,6.31,.38,7.68,.38h3.74c.14,0,.29-.1,.38-.22,.05-.05,.94-1.27,1.3-1.27,.05,0,.1,0,.14,.02,.79,.29,1.99,1.32,1.99,1.75,0,.14-.12,.29-.5,.29h-6.14c.14,.07,.22,.14,.22,.22,0,.14-.17,.26-.36,.34-.38,.14-.38,.24-.43,.86,0,.14-.02,.29-.02,.46h6.89c.12,0,.31-.1,.41-.19,.1-.12,.46-.48,.74-.48,.26,0,1.99,1.01,1.99,1.73,0,.26-.26,.5-.94,.55-1.01,.07-1.9,.94-2.9,1.39-.1,.05-.17,.07-.19,.07s-.02-.02-.02-.02c0-.02,.02-.1,.07-.19,.31-.53,.94-1.85,.94-2.11,0-.1-.05-.14-.14-.14h-6.84Zm-4.99,4.42c-.67,0-1.54,0-2.57,.17h-.02c-.24,0-.84-.72-.84-.96,1.3,.24,2.78,.26,3.48,.26h.14s.17-.07,.24-.17c.53-.74,.7-.77,.74-.77s.07,.02,.1,.02c.5,.24,1.25,.91,1.25,1.15,0,.14-.1,.29-.36,.29h-2.16Zm0-2.18c-.67,0-1.3,0-2.33,.17h-.02c-.24,0-.84-.72-.84-.96,1.3,.24,2.54,.26,3.24,.26h.14s.17-.07,.24-.17c.53-.74,.7-.77,.74-.77s.07,.02,.1,.02c.5,.24,1.25,.91,1.25,1.15,0,.14-.1,.29-.36,.29h-2.16Zm8.93,10.8v-.41h-4.25v.98c0,1.3,.24,1.44,3.24,1.44,4.87,0,5.02-.02,5.78-3.96,.05-.19,.07-.26,.1-.26,.19,0,.31,3.02,.79,3.29,.36,.22,.53,.43,.53,.67,0,.6-1.1,1.22-3.29,1.44-.91,.1-2.62,.14-3.98,.14-3.17,0-4.49-.22-4.49-2.33v-.14c0-.26,.02-.72,.02-1.27H7.72l.02,.96c.02,.58-.62,.7-.91,.7-.34,0-.65-.17-.65-.58v-.07c.14-1.44,.19-4.22,.19-5.18,0-.31-.07-1.9-.26-2.78-.02-.07-.02-.12-.02-.14t.02-.05c.1,0,1.44,.38,2.09,.77l8.64,.1c.12,0,.22-.02,.31-.14,.17-.17,.36-.41,.5-.53,.07-.05,.14-.1,.24-.1,.19,0,1.87,.86,1.87,1.37,0,.24-.31,.41-.58,.55-.36,.22-.46,.38-.46,.98v.26c0,1.1,.12,3.22,.17,4.13,.02,.53-.48,.82-.89,.82-.34,0-.65-.19-.65-.62v-.02Zm-9.1-6.07s-.1,.07-.17,.12c-.31,.19-.34,.19-.38,.94,0,.22-.02,.6-.02,1.06h4.13c0-.67-.02-1.7-.07-2.11h-3.48Zm-.58,2.74c0,.72,.02,1.56,.02,2.3h4.1c0-.84,.02-1.73,.02-2.3H7.7Zm5.47,0c-.02,.7-.05,1.54-.05,2.3h4.27c.02-.74,.02-1.54,.02-2.3h-4.25Zm.07-2.74c.07,.02,.14,.02,.22,.05,.19,.05,.29,.14,.29,.24,0,.07-.07,.17-.26,.24-.26,.1-.24,.12-.29,.77,0,.17-.02,.46-.02,.82h4.25c0-.7-.02-1.34-.05-1.85,0-.07-.05-.26-.26-.26h-3.86Zm3.82-4.73c-.67,0-.84,0-1.87,.17h-.02c-.24,0-.84-.72-.84-.96,1.3,.24,2.09,.26,2.78,.26h.14s.17-.07,.24-.17c.53-.74,.7-.77,.74-.77s.07,.02,.1,.02c.46,.22,1.18,.89,1.18,1.15,0,.14-.1,.29-.36,.29h-2.09Zm.38,2.21c-1.25,0-1.8,.07-2.26,.14h-.02c-.24,0-.84-.72-.84-.96,1.3,.24,2.47,.26,3.17,.26h.53s.17-.07,.24-.17c.17-.22,.58-.79,.79-.79,.05,0,.07,.02,.1,.02,.43,.19,1.34,.82,1.34,1.22,0,.12-.1,.26-.38,.26h-2.66Z"/><path class="cls-2" d="M33.36,69.01l.02,1.75c1.49-.26,3.02-.58,4.3-.86,.1-.02,.17-.02,.24-.02,.1,0,.17,.02,.17,.07,0,.43-6.29,2.23-9.89,3.1-.22,.05-.31,.26-.48,.26-.36,0-1.18-1.75-1.18-1.85,0-.05,.05-.07,.1-.07h.05c.36,.07,.74,.1,1.1,.1,1.03,0,2.81-.26,4.27-.5,0-.65,.02-1.3,.02-1.97h-.19c-1.22,0-1.9,0-3.84,.19h-.02c-.38,0-.98-.84-.98-1.1,2.23,.26,3.67,.31,4.92,.31h.12c0-.7,.02-1.37,.02-2.04h-2.33v.41c0,.43-.46,.7-.86,.7-.31,0-.58-.17-.58-.55v-.07c.17-1.63,.22-3.05,.22-4.18,0-.29-.12-2.06-.29-2.93,0-.07-.02-.1-.02-.14,0-.07,.02-.1,.07-.1,.24,0,1.68,.74,1.97,.96l.02,.02h1.8v-1.8h-.36c-.89,0-2.69,.02-4.08,.22h-.02c-.26,0-.94-.89-.94-1.15,1.68,.26,4.18,.34,5.09,.34h.31c0-.62-.02-1.27-.07-1.85-1.85,.17-3.77,.26-4.34,.26-.24,0-.38-.07-.38-.17,0-.07,.12-.14,.38-.19,2.09-.34,5.33-1.01,7.03-1.68,.38-.14,.62-.38,.77-.53,.05-.05,.07-.07,.1-.07,.22,0,1.42,1.39,1.42,1.75,0,.17-.1,.24-.29,.24-.14,0-.31-.02-.55-.12-.07-.02-.14-.05-.22-.05s-.12,.02-.17,.02c-.53,.12-1.2,.22-1.94,.31,.17,.05,.26,.14,.26,.24,0,.12-.12,.24-.31,.31-.36,.17-.38,.19-.41,1.15v.36h2.52s.17-.1,.24-.19c.24-.36,.82-1.01,1.06-1.01,.05,0,.07,0,.1,.02,.58,.31,1.54,1.06,1.54,1.49,0,.14-.07,.29-.38,.29h-5.09v1.8h1.92c.12,0,.24-.05,.31-.17,.1-.12,.46-.62,.65-.62,.12,0,1.63,.77,1.63,1.3,0,.24-.29,.38-.5,.53-.41,.26-.41,.36-.41,1.34s.1,2.3,.17,3.38c.05,.6-.48,.79-.79,.79-.29,0-.58-.19-.58-.6v-.07h-2.4v2.04h1.73s.22-.07,.29-.19c.62-.94,.79-.94,.86-.94,.05,0,.1,.02,.12,.02,.1,.05,1.54,.79,1.54,1.44,0,.12-.1,.26-.46,.26h-4.08Zm-1.25-7.9h-1.85s-.07,.07-.12,.1c-.34,.26-.36,.12-.38,.91v.91h2.35v-1.92Zm0,2.52h-2.35c0,.7,.02,1.46,.02,2.14h2.33v-2.14Zm11.81-3.5c-.38,0-.89,0-1.49,.02-.43,6.84-1.99,12.53-9.17,14.54-.31,.1-.5,.12-.62,.12-.07,0-.12-.02-.12-.05,0-.1,.26-.26,.58-.38,5.76-2.18,7.49-7.42,7.85-14.18-.79,.02-1.61,.07-2.3,.14h-.02c-.41,0-1.06-.91-1.06-1.2,1.01,.12,2.26,.22,3.43,.26,.02-.72,.05-1.44,.05-2.21,0-.5,0-2.88-.19-3.65,0-.05-.02-.07-.02-.12,0-.02,.02-.05,.07-.05,.14,0,2.66,.41,2.66,.96,0,.19-.24,.34-.48,.46-.38,.19-.48,.24-.5,.91-.02,1.27-.05,2.52-.12,3.74,.67,.02,1.27,.02,1.68,.02h.84c.24,0,.31-.1,.38-.19,.29-.41,.55-.67,.67-.67,.34,0,1.85,1.01,1.85,1.49,0,.22-.17,.43-.53,.62-.58,.29-.6,.36-.6,1.01-.05,2.86-.05,4.49-.31,6.55-.58,4.25-2.28,5.88-4.46,5.98-.12,0-.24-.02-.31-.19-.24-.58-2.86-1.99-2.86-2.18h.02s.14,0,.26,.05c1.06,.31,1.99,.58,2.81,.58,1.49,0,2.54-.94,3.1-4.37,.36-2.16,.29-5.59,.34-7.63,0-.34-.17-.38-.34-.38h-1.08Zm-10.58,3.5l.02,2.14h2.42c.02-.67,.02-1.42,.02-2.14h-2.47Zm.02-2.52v1.92h2.45c0-.6-.02-1.15-.05-1.63,0-.07-.05-.29-.31-.29h-2.09Z"/><path class="cls-2" d="M53.78,73.4c-.46,.14-.7,.19-.79,.19-.05,0-.07,0-.07-.02,0-.05,.26-.22,.6-.41,4.08-2.3,7.97-8.38,7.97-11.18,0-.77-.36-1.06-.86-1.06-.36,0-.5-.1-.5-.24,0-.22,.53-.67,1.18-.67,.26,0,.53,.05,.86,.14,.74,.19,1.18,.53,1.18,1.37v.07c1.27-.91,3.7-2.93,3.7-3.55,0-.29-.31-.43-.67-.43-1.32,0-4.8,.5-7.34,1.32-.77,.24-1.18,.46-1.68,.46s-3.05-.79-3.05-2.09c0-.22,.1-.34,.26-.34,.12,0,.24,.05,.36,.17,.43,.41,1.25,.55,2.21,.55,.41,0,.84-.02,1.27-.07,2.35-.24,5.38-.67,7.49-.84,.98-.07,.94-.36,1.3-.36,.55,0,2.86,1.1,2.86,1.99,0,.58-1.08,.65-1.58,.96-1.61,1.03-3.84,2.3-5.21,2.98-.96,4.3-4.78,9.65-9.46,11.06Z"/><path class="cls-2" d="M76.44,62.75c2.06,0,2.9,.86,2.9,1.73,0,.41-.24,.72-.7,.72-.26,0-.55-.1-.91-.31-.91-.58-2.35-1.25-3.31-1.56-.19-.07-.29-.1-.29-.14,0,0,.65-.43,2.3-.43Zm16.15-3.82c0,.07-.1,.34-.29,.79-1.51,3.65-6.79,8.95-11.88,12-.62,.38-.86,.91-1.46,.91s-2.76-.94-2.76-2.18c0-.29,.19-.94,.46-.94,.12,0,.24,.17,.31,.36,.22,.43,.6,.67,1.15,.67,3.31,0,11.18-7.75,13.92-11.06,.31-.38,.5-.58,.55-.58v.02Zm-11.4,1.97c-.82-.7-2.14-1.54-3.05-1.99-.17-.07-.26-.14-.26-.17,0-.1,.58-.22,1.3-.22,2.86,0,3.7,1.25,3.7,2.04,0,.43-.26,.77-.7,.77-.29,0-.6-.12-.98-.43Z"/><path class="cls-2" d="M94.89,72.44c-.1,0-.14-.02-.14-.05,0-.07,.26-.24,.74-.43,7.42-3,12.26-10.73,12.26-11.59,0-.24-.12-.43-.5-.43-.65,0-2.83,.82-3.96,1.3-.82,.34-1.18,.55-1.66,.55-.98,0-2.59-.89-2.59-1.66,0-.38,.17-.53,.34-.53,.12,0,.24,.07,.29,.19,.12,.26,.62,.36,1.25,.36,.48,0,1.03-.05,1.56-.12,.72-.1,3.17-.58,3.91-.7,.65-.12,.98-.74,1.54-.74s2.54,.65,2.54,1.56c0,.17-.1,.34-.34,.5-.41,.26-.74,.46-1.13,1.1-.86,1.44-1.82,2.74-2.86,3.91,1.58,.31,6.72,2.81,6.72,4.8,0,.55-.34,.94-.79,.94-.34,0-.72-.22-1.06-.74-1.01-1.58-2.98-3.41-4.66-4.49-.17-.1-.31-.22-.41-.29-5.14,5.66-10.7,6.55-11.06,6.55Z"/><path class="cls-2" d="M127.12,64.93c0,2.98,.07,6,.1,6.36,.05,1.58-.36,2.38-.84,2.38-.5,0-1.06-.82-1.06-2.14,0-.34,.05-.72,.12-1.1,.14-.77,.19-.65,.29-1.49,.14-1.15,.22-4.15,.22-6.7,0-4.8-.29-5.71-1.13-5.76-.34-.02-.48-.12-.48-.29,0-.1,.19-.55,.74-.55,.77,0,2.54,.98,2.54,2.16,0,.5-.24,1.06-.34,1.97-.1,.77-.14,1.92-.17,3.19,.1,0,.22-.02,.34-.02,.36,0,.74-.02,1.13-.02,3.55,0,4.39,1.27,4.39,2.02,0,.48-.34,.86-.84,.86-.26,0-.6-.12-.94-.38-1.25-1.01-2.74-1.87-4.08-2.21v1.73Z"/><path class="cls-2" d="M155.42,73.79l.02-1.2h-10.1v1.15c0,.55-.55,.91-1.06,.91-.36,0-.7-.22-.7-.74v-.07c.17-2.71,.22-5.64,.22-8.45,0-2.98,0-7.25-.38-8.98-.02-.1-.02-.14-.02-.17,0-.05,0-.07,.02-.07,.26,0,1.92,.7,2.52,1.13,.02,.02,.07,.05,.1,.07h2.23c.6-2.35,.62-2.86,.62-3.36,0-.29,0-.58-.02-.79v-.05c0-.07,.02-.1,.07-.1,.19,0,2.88,.84,2.88,1.37,0,.19-.26,.36-.82,.41-.29,.02-.36,.17-.48,.34-.38,.5-1.01,1.54-1.49,2.18h5.74c.14,0,.29-.1,.38-.22,.17-.24,.67-.79,.89-.79,.29,0,2.14,1.08,2.14,1.66,0,.26-.29,.46-.7,.65-.48,.24-.5,.29-.5,3.41,0,3.29,.12,8.47,.22,11.45,.05,.91-.94,1.01-1.06,1.01-.38,0-.72-.22-.72-.72v-.02Zm.07-11.11h-10.18c0,1.18-.02,2.54-.02,3.98h10.2v-3.98Zm-10.2,4.63c0,1.54,.02,3.12,.02,4.63h10.13c.02-1.54,.05-3.1,.05-4.63h-10.2Zm.65-9.26s-.12,.1-.19,.14c-.41,.26-.43,.38-.43,1.03v2.81h10.18c0-1.46-.02-2.74-.07-3.65,0-.17-.12-.34-.31-.34h-9.17Z"/><path class="cls-2" d="M170.16,69.56c.02,1.68,.05,3.14,.1,4.1,.02,.62-.6,.94-.91,.94-.34,0-.62-.22-.62-.77v-.07c.05-1.1,.1-2.57,.12-4.2-1.1,0-2.3,.05-3.94,.22h-.02c-.38,0-.98-.86-.98-1.13,1.87,.24,3.67,.31,4.97,.34,.02-1.01,.05-2.04,.05-3.1h-1.94v.67c0,.43-.46,.72-.84,.72-.29,0-.55-.17-.55-.55v-.1c.12-1.27,.14-2.26,.14-3.1,0-.62-.02-1.15-.02-1.66,0-.31-.05-2.11-.24-2.98-.02-.07-.02-.12-.02-.17s.02-.07,.07-.07c.26,0,1.49,.6,1.97,.94l.02,.02h1.42c0-.94,0-1.78-.02-2.42-1.01,0-1.9,.05-3.58,.22h-.02c-.38,0-.98-.86-.98-1.13,1.9,.24,3.36,.31,4.56,.34,0-.77-.02-2.33-.22-3.31-.02-.07-.02-.12-.02-.14,0-.07,.02-.07,.07-.07,.17,0,2.59,.36,2.59,.86,0,.14-.14,.29-.43,.43-.41,.22-.55,.14-.6,.91-.02,.34-.02,.77-.05,1.32h1.15c.07,0,.24-.07,.31-.19,.07-.14,.77-1.27,1.08-1.27,.05,0,.1,.02,.14,.02,.79,.31,1.8,1.42,1.8,1.75,0,.14-.1,.26-.48,.26h-4.03c-.02,.7-.02,1.54-.02,2.42h1.51c.12,0,.22-.07,.29-.19,.19-.29,.41-.5,.6-.5,.38,0,1.63,.89,1.63,1.27,0,.19-.24,.31-.41,.41-.36,.22-.43,.26-.43,1.3s.07,2.69,.14,4.1v.05c0,.48-.41,.77-.79,.77-.29,0-.58-.19-.58-.65l.02-.29h-2.02c0,1.06,.02,2.11,.02,3.1h1.3c.07,0,.24-.07,.31-.19,.1-.14,.79-1.2,1.1-1.2,.05,0,.1,.02,.14,.02,.72,.29,1.85,1.25,1.85,1.68,0,.14-.12,.26-.5,.26h-4.2Zm-1.22-7.1c0-.77-.02-1.49-.02-2.18h-1.51s-.1,.07-.14,.1c-.31,.22-.34,.22-.34,2.09h2.02Zm-.02,2.81c0-.74,.02-1.46,.02-2.18h-2.02c0,.7,.02,1.49,.02,2.18h1.97Zm3.26-2.81c0-.72,0-1.37-.05-1.94,0-.07-.07-.24-.26-.24h-1.7c0,.7-.02,1.44-.02,2.18h2.04Zm-.02,2.81c0-.79,.02-1.51,.02-2.18h-2.04v2.18h2.02Zm7.99-2.33c.07,.02,.14,.07,.19,.1,.1,.05,.19,.14,.19,.26s-.12,.24-.48,.36c-.43,.14-.48,.29-.7,.96-.58,1.73-1.61,4.7-2.45,6.86,2.04-.22,4.2-.58,5.83-.89-.72-1.3-1.68-2.62-2.5-3.6-.07-.07-.1-.14-.1-.17s.02-.02,.05-.02c.43,0,5.21,3.31,5.21,5.5,0,.7-.38,1.2-.84,1.2-.38,0-.79-.34-1.06-1.18-.12-.41-.31-.82-.53-1.25-1.97,.65-5.28,1.61-8.4,2.28-.19,.02-.31,.26-.48,.26-.29,0-1.34-1.87-1.34-2.09v-.02s.07,.02,.14,.02c.55,.07,1.3,.12,1.7,.12,.07,0,.34,0,1.7-.12,.58-2.09,1.61-6.77,1.61-8.54-1.06,.02-2.18,.1-3.17,.19h-.02c-.41,0-1.06-.89-1.06-1.18,2.35,.29,5.86,.34,7.18,.34h1.18c.14,0,.31-.1,.38-.22,.1-.14,.96-1.44,1.27-1.44,.05,0,.1,0,.14,.02,.82,.31,1.99,1.61,1.99,1.94,0,.14-.1,.29-.48,.29h-5.18Zm-.46-5.86c-1.27,0-1.78,.02-3.79,.24h-.02c-.41,0-1.06-.91-1.06-1.2,2.35,.29,3.65,.36,4.97,.36h.62c.14,0,.29-.1,.36-.22,.1-.14,.96-1.44,1.27-1.44,.05,0,.1,0,.14,.02,.82,.31,1.99,1.61,1.99,1.94,0,.14-.1,.29-.48,.29h-4.01Z"/><path class="cls-2" d="M200.28,70.16c.02,1.3,.05,2.57,.07,3.74,0,.48-.5,.91-1.03,.91-.38,0-.72-.22-.72-.74v-.07c.05-1.2,.1-2.5,.14-3.84h-1.99c-1.34,0-4.42,.05-6.55,.26h-.02c-.43,0-1.13-.89-1.13-1.22v-.02c2.47,.29,6.41,.38,7.8,.38h1.92c.02-.94,.02-1.87,.05-2.81h-4.13v.58c0,.36-.34,.72-.96,.72-.34,0-.65-.17-.65-.58v-.07c.17-1.85,.19-3.77,.19-5.06,0-1.92-.19-3.31-.31-3.84-.02-.07-.02-.12-.02-.17,0-.02,0-.05,.02-.05,.19,0,1.75,.67,2.3,1.06l.02,.02h3.6c0-.89-.02-1.7-.05-2.4h-1.37c-1.34,0-4.42,.05-6.55,.26h-.02c-.43,0-1.13-.89-1.13-1.22v-.02c2.47,.29,6.41,.38,7.8,.38h1.27c-.02-.96-.1-2.42-.26-3.19-.02-.07-.02-.12-.02-.17t.02-.02c.12,0,2.81,.36,2.81,.91,0,.17-.17,.31-.41,.48-.53,.34-.6,.14-.65,1.18,0,.26-.02,.53-.02,.82h4.99c.17,0,.34-.1,.41-.22,.91-1.3,1.08-1.46,1.34-1.46,.05,0,.1,0,.14,.02,.82,.29,2.14,1.58,2.14,1.97,0,.14-.12,.29-.53,.29h-8.52c-.02,.72-.05,1.54-.05,2.4h3.77c.12,0,.22-.02,.31-.14,.53-.6,.65-.65,.77-.65,.17,0,1.92,.86,1.92,1.39,0,.26-.31,.41-.58,.55-.46,.24-.48,.24-.48,1.56s.1,3.38,.19,4.82v.05c0,.48-.48,.77-.91,.77-.36,0-.7-.19-.7-.65v-.31h-4.3c0,.94,.02,1.87,.05,2.81h5.69c.17,0,.31-.1,.41-.22,.89-1.25,1.1-1.46,1.37-1.46,.07,0,.12,0,.17,.02,.65,.22,2.21,1.46,2.21,1.97,0,.14-.12,.29-.55,.29h-9.29Zm-5.06-10.2l-.14,.1c-.34,.22-.38,.12-.41,.91-.02,.43-.02,.98-.02,1.63h4.22c0-.91,.02-1.8,.02-2.64h-3.67Zm-.58,3.24c0,.94,0,1.99,.02,2.95h4.18c.02-1.01,.02-1.99,.02-2.95h-4.22Zm5.59-3.24v2.64h4.34c0-.94,0-1.78-.05-2.38,0-.07-.07-.26-.31-.26h-3.98Zm0,3.24v2.95h4.3c.02-.98,.05-2.02,.05-2.95h-4.34Z"/><path class="cls-2" d="M222.52,61.43c0-1.2,.24-2.5,.36-3.48,.07-.6,.14-1.1,.14-1.54,0-.91-.29-1.25-1.25-1.44-.22-.05-.34-.14-.34-.26,0-.26,.38-.67,.98-.67,.65,0,2.23,.82,2.23,2.33,0,.55-.22,1.06-.29,1.46-.24,1.13-.65,2.62-.65,3.91,0,1.22,.38,2.26,1.63,2.59,1.2-.5,1.7-.58,2.09-.58,.96,0,1.03,.58,1.03,.74,0,.91-1.2,1.2-1.9,1.2-.1,0-.22-.02-.31-.02h-.24c-1.99,0-5.14,1.85-5.14,4.08,0,1.49,1.25,2.76,3.77,2.76,1.06,0,2.23-.22,3.24-.72,.26-.12,.53-.19,.74-.19,.58,0,.98,.38,.98,.82,0,1.15-2.59,1.7-4.3,1.7-4.13,0-5.45-2.59-5.45-4.1,0-1.99,1.78-4.08,4.3-5.21-1.3-.58-1.66-1.92-1.66-3.38Z"/><path class="cls-2" d="M243.43,72.84c.09-.07,.16-.12,.22-.14,.15-.04,.4-.08,.75-.1,.84-.05,1.35-.13,1.55-.23,.12-.17,.18-.41,.18-.72v-.9s0-3.28,0-3.28l-.03-1.55v-3.25s-.05-3.69-.05-3.69c0-.88-.06-1.38-.17-1.49-.15-.16-.61-.26-1.38-.28-.33,0-.61-.03-.86-.08-.11-.06-.17-.14-.17-.23,0-.07,.02-.15,.06-.24,.08-.04,.15-.06,.21-.06,.12,0,.27,0,.44,.01,.51,.05,1.03,.07,1.57,.07l.95-.03,2.27,.05c1.13,0,2.02-.02,2.65-.05,.64-.03,1.07-.05,1.29-.05,.2,0,.69,.02,1.47,.06h1.83s.22,.03,.22,.03l1.07-.04,.13,.06c.04,.07,.07,.14,.09,.22,0,.12-.02,.31-.06,.56-.04,.25-.06,.41-.06,.47,0,.9,.03,1.66,.09,2.28,0,.05-.03,.09-.07,.1-.09,0-.17-.01-.25-.04-.09-.16-.22-.45-.38-.87-.16-.42-.4-.9-.72-1.44-.21-.36-.38-.58-.5-.65-.12-.07-.37-.1-.75-.1-.08,0-.47,0-1.17-.03-.19,0-.37-.01-.55-.01l-3.68,.08h-.32c-.47,0-.76,.06-.85,.18-.15,.21-.22,.82-.22,1.83,0,.1,.02,1.14,.06,3.11v1.8c.09,.03,.2,.04,.31,.04h.22c.15,0,.36,0,.64,.01,.45,.02,.75,.03,.9,.03,.1,0,.19,0,.27-.01,.93-.03,2.12-.05,3.58-.05,.45-.08,.72-.17,.8-.27,.13-.15,.23-.56,.29-1.21,.06-.65,.21-1.02,.43-1.11,.11,0,.22,.02,.31,.06,.02,.07,.03,.13,.03,.19s0,.16-.03,.3c-.05,.32-.07,1.31-.07,2.99,0,.45,.02,.95,.07,1.5,.05,.55,.07,.85,.07,.89,0,.08-.01,.18-.04,.31-.07,.03-.13,.05-.17,.05h-.09c-.14-.24-.27-.62-.4-1.12-.22-.87-.46-1.42-.7-1.64-.25-.22-.64-.33-1.19-.33-.12,0-.34,0-.66,.02s-.79,.02-1.42,.02h-.84c-1.19,0-1.97,.03-2.34,.08v.43s0,2.38,0,2.38v1.5s0,1.46,0,1.46c0,.88,.06,1.39,.17,1.53,.15,.19,.46,.28,.95,.28h.79c.07-.01,.34,0,.8,0,.47,.01,1.04,.02,1.73,.02,1.66,0,2.76-.07,3.31-.21,.55-.14,1-.4,1.36-.76,.36-.36,.8-1.15,1.34-2.35,.16-.36,.32-.53,.49-.53,.08,0,.16,.04,.26,.1-.25,.86-.4,1.42-.43,1.69-.1,.61-.15,1.23-.17,1.86,0,.29-.07,.53-.21,.72h-.28l-3.62,.04-1.62-.05-3.86,.05h-1.57c-.2,0-.38,0-.55,.01-1.55,.07-2.68,.1-3.41,.1-.13,0-.22-.02-.26-.06-.05-.04-.07-.1-.07-.18v-.12Z"/><path class="cls-2" d="M260.49,56.68l.09-.22c.7,0,1.4,0,2.09,.03h.43c.13,0,.27,0,.43-.01,.56-.03,1.57-.04,3.04-.04,.29,0,.58,0,.85,0,.28,0,.54,.01,.8,.02,.05,.03,.09,.07,.12,.12l-.03,.21c-.05,.09-.18,.13-.39,.13h-.1c-.24,0-.64,.01-1.19,.06-.55,.05-.91,.14-1.09,.26-.11,.09-.17,.22-.17,.37,0,.33,.14,.84,.43,1.51l1.95,4.55,.68,1.51c.66,1.6,1.31,3.23,1.95,4.9,.07,.18,.13,.34,.19,.49l.86-2.11c.45-1.06,.9-2.2,1.35-3.4l.89-2.42c.02-.05,.06-.22,.14-.52,.83-2.28,1.25-3.71,1.25-4.32,0-.13-.06-.26-.17-.39s-.3-.24-.56-.33c-.1-.03-.44-.09-1-.15l-.95-.12c-.08-.09-.12-.16-.12-.22l.04-.1,4.17-.04h1.38c.46,0,.78,.03,.95,.09v.1c.01,.07-.01,.16-.06,.27-.21,.07-.39,.11-.57,.13-.72,.09-1.17,.19-1.34,.3-.17,.12-.35,.36-.54,.74l-3.38,8.37c-1.06,2.52-1.81,4.47-2.25,5.85l-.37,1.12c-.11,.07-.21,.1-.28,.1-.11,0-.24-.02-.37-.05-1.01-2.64-1.84-4.68-2.48-6.12l-3.91-8.93c-.28-.53-.5-.85-.64-.96-.14-.11-.64-.26-1.49-.46-.3-.07-.47-.11-.5-.13-.06-.04-.1-.11-.13-.2Z"/><path class="cls-2" d="M285.76,70.19c-.14,0-.22-.02-.22-.05,0-.07,.17-.17,.48-.26,4.03-1.27,8.06-5.81,8.06-7.51,0-.86-.55-1.01-1.03-1.08-.19-.02-.26-.12-.26-.24,0-.31,.46-.58,.91-.58,.94,0,2.23,1.13,2.23,2.06,0,.67-.48,1.25-.72,1.61-3.29,5.04-8.71,6.05-9.46,6.05Zm17.76-2.93c-.72-2.14-2.74-4.68-4.46-6.31-.36-.34-.53-.55-.53-.65,0-.02,0-.05,.05-.05,.7,0,6.98,3.91,6.98,6.91,0,.79-.43,1.27-.91,1.27-.41,0-.84-.34-1.13-1.18Zm-.43-6.62c-.67-.72-1.49-1.3-2.14-1.63-.19-.1-.36-.14-.36-.22s.46-.19,1.06-.19c1.34,0,2.74,.53,2.74,1.58,0,.43-.29,.77-.67,.77-.19,0-.41-.1-.62-.31Zm2.28-1.54c-.67-.72-1.46-1.3-2.11-1.63-.19-.1-.38-.17-.38-.22,0-.19,1.01-.19,1.06-.19,1.32,0,2.76,.55,2.76,1.58,0,.43-.31,.77-.7,.77-.19,0-.41-.1-.62-.31Z"/><path class="cls-2" d="M312.69,69.3s-.05-.02-.05-.02c0-.07,.24-.26,.58-.43,5.26-2.83,10.37-9.77,10.37-11.28,0-.41-.24-.67-.86-.84-.24-.07-.31-.17-.31-.26,0-.24,.5-.55,.91-.55,1.01,0,2.64,1.03,2.64,1.85,0,.58-.77,1.01-1.2,1.68-.55,.86-1.22,1.75-1.97,2.64,.6,.26,1.06,.89,1.06,1.42,0,.12-.02,.24-.07,.36-.17,.34-.22,2.14-.22,3.89,0,1.66,.05,3.24,.05,3.58,.02,.5,.05,2.4-.82,2.4-.48,0-.98-.82-.98-2.14,0-.34,.05-.72,.12-1.13,.14-.79,.26-.65,.31-1.51,.1-1.56,.1-3.17,.1-4.51,0-.53-.05-1.18-.24-1.56-4.42,4.78-8.93,6.43-9.41,6.43Z"/><path class="cls-2" d="M338.9,66.32c-.26,.12-.46,.17-.55,.17-.05,0-.07,0-.07-.02,0-.07,.12-.22,.43-.43,3.5-2.57,7.01-7.54,7.01-8.28,0-.36-.31-.6-.79-.72-.22-.05-.31-.14-.31-.26,0-.26,.55-.6,.96-.6,.82,0,2.11,.77,2.11,1.66,0,.34-.17,.65-.41,.96,.77-.1,2.23-.34,2.98-.46,.31-.05,.43-.19,.7-.36,.22-.14,.36-.22,.5-.22,.5,0,2.02,.98,2.02,1.49,0,.24-.22,.43-.65,.58-.5,.17-.84,.7-1.3,1.37-3.94,5.78-7.73,9.77-13.94,11.62-.36,.12-.62,.17-.77,.17-.1,0-.14-.02-.14-.07,0-.07,.26-.26,.74-.46,5.33-2.18,9.29-6.7,12.98-12.53,.1-.17,.22-.36,.22-.5,0-.17-.12-.29-.55-.29-.7,0-1.9,.31-2.69,.58-.24,.07-.43,.12-.6,.12-.1,0-.22-.02-.31-.05-2.74,3.24-4.85,5.38-7.56,6.55Z"/><path class="cls-2" d="M374.06,73.57c-1.13,0-5.04-.41-5.04-6.07,0-2.95,1.03-6.38,2.3-7.7,.17-.17,.29-.29,.29-.34,0,0,0-.02-.02-.02-.24,0-3,1.15-5.35,2.38-.48,.24-1.03,.36-1.58,.36-1.08,0-2.06-.46-2.06-1.27,0-.1,.02-.24,.19-.24,.14,0,.34,.07,.5,.1,.36,.05,.74,.12,1.18,.12s.89-.07,1.39-.24c1.13-.38,5.33-2.64,8.98-3.6,.5-.12,.89-.41,1.94-.48h.12c2.21,0,2.57,.77,2.57,1.15s-.36,.74-1.15,.74c-.17,0-.36-.02-.55-.05-.41-.07-.84-.1-1.3-.1-1.39,0-2.78,.31-3.46,.67-1.75,.94-3,4.66-3,7.75,0,4.9,3.12,5.09,3.84,5.09,.43,0,.91-.07,1.42-.24,.22-.07,.43-.1,.62-.1,.65,0,1.08,.36,1.08,.79,0,.96-1.94,1.3-2.9,1.3Zm3.22-10.58c-.62-.74-1.42-1.34-2.06-1.7-.19-.1-.36-.17-.36-.24,0-.02,.34-.14,.94-.14,1.92,0,2.83,.86,2.83,1.63,0,.46-.31,.82-.7,.82-.22,0-.43-.12-.65-.36Zm2.57-1.18c-.67-.72-1.49-1.27-2.14-1.61-.19-.1-.38-.17-.38-.24,0-.05,.41-.19,1.06-.19,1.2,0,2.76,.43,2.76,1.58,0,.43-.29,.77-.67,.77-.19,0-.41-.1-.62-.31Z"/><path class="cls-2" d="M396.38,67.31c1.85,2.06,5.71,4.42,10.3,4.75,.14,0,.22,.05,.22,.07,0,.22-2.02,.84-2.57,1.44-.1,.1-.17,.14-.26,.14-.79,0-5.5-2.35-7.82-5.9v1.75c0,1.63,.02,3.34,.05,4.18,.02,.62-.55,.86-.94,.86-.34,0-.65-.22-.65-.72v-.1c.07-.98,.14-3.07,.17-4.82-5.11,4.68-9.96,5.26-10.13,5.26-.12,0-.19-.02-.19-.07,0-.07,.14-.19,.46-.29,2.81-.94,6.07-2.93,9.38-6.55h-1.27c-1.32,0-4.66,.05-6.77,.26h-.02c-.43,0-1.08-.91-1.08-1.22,2.42,.29,6.6,.38,7.97,.38h1.68v-.5c0-.5-.12-1.42-.24-1.85-.02-.05-.02-.07-.02-.1,0-.05,.05-.07,.14-.07,.31,0,2.5,.26,2.5,.62,0,.12-.14,.24-.34,.36-.36,.19-.6,.14-.65,.72-.02,.22-.02,.48-.02,.82h5.62c.14,0,.31-.1,.38-.22,.22-.36,.96-1.39,1.32-1.39,.05,0,.1,0,.14,.02,1.01,.36,2.02,1.63,2.02,1.9,0,.14-.1,.26-.5,.26h-8.86Zm1.3-3.89h-4.13v.7c.02,.62-.7,.72-.84,.72-.31,0-.6-.17-.6-.58v-.07c.12-1.58,.17-2.9,.17-3.96l-.1,.1c-1.06,1.03-3.31,2.71-4.61,3.58-.29,.19-.31,.48-.53,.48-.29,0-1.66-1.32-1.66-1.58,0-.05,.05-.05,.19-.07,1.78-.12,6.02-2.42,6.48-2.69,.07-.05,.14-.1,.22-.12v-.84c0-.31-.12-2.18-.29-3.1,0-.07-.02-.12-.02-.14,0-.05,.02-.07,.05-.07,.26,0,1.63,.7,2.04,1.03l.02,.02h.41v-.02c.36-1.32,.5-1.9,.5-2.9,0-.19-.02-.38-.02-.53,0-.12,.02-.14,.07-.14,.22,0,2.42,.74,2.42,1.22,0,.22-.24,.38-.74,.43-.26,.02-.34,.17-.46,.34-.43,.6-.84,1.18-1.27,1.61h2.18c.12,0,.26-.07,.34-.19,.36-.58,.5-.67,.67-.67,.1,0,1.73,.82,1.73,1.37,0,.26-.31,.43-.53,.58-.31,.19-.38,.38-.38,1.44,0,1.13,.1,2.98,.17,4.42v.05c0,.48-.46,.77-.84,.77-.34,0-.65-.19-.65-.65v-.5Zm-9-5.3c-.48-.74-1.42-1.58-2.14-2.16-.17-.14-.29-.22-.29-.24s.02-.02,.07-.02c1.01,0,4.06,.67,4.06,2.26,0,.48-.31,.84-.72,.84-.31,0-.67-.19-.98-.67Zm5.35-.65s-.07,.07-.12,.1c-.34,.26-.36,.12-.38,.96-.02,.36-.02,.77-.02,1.18h4.2c0-.74,0-1.39-.02-1.94,0-.07-.05-.29-.31-.29h-3.34Zm-.53,2.86c0,.82,0,1.66,.02,2.47h4.15c0-.86,.02-1.7,.02-2.47h-4.2Zm11.21-2.9c-.07,0-.17,0-.26-.02-.1,0-.17-.02-.24-.02-.1,0-.19,.02-.31,.07-1.03,.53-4.22,1.94-4.49,1.94-.07,0-.12-.02-.12-.07s.02-.1,.1-.14c2.21-1.58,3.55-2.98,3.82-3.7,.02-.07,.05-.1,.1-.1,.22,0,1.87,1.25,1.87,1.78,0,.14-.14,.26-.46,.26Zm-1.25,6.17c-1.08-1.13-2.62-1.9-3.94-2.52-.12-.05-.17-.1-.17-.14,0-.02,.05-.05,.17-.05,.05,0,5.81,.46,5.81,2.45,0,.46-.34,.84-.79,.84-.31,0-.7-.17-1.08-.58Z"/><path class="cls-2" d="M421.03,73.79c-2.11,0-5.23-1.01-5.23-7.1,0-2.64,.55-5.33,.55-7.94,0-1.22-.12-2.26-.67-2.86-.22-.24-.31-.38-.31-.48s.1-.14,.26-.14c.05,0,2.52,0,2.52,2.54,0,.24-.02,.5-.07,.79-.26,1.8-1.15,5.52-1.15,8.52,0,1.39,.12,5.11,4.37,5.11,2.14,0,4.75-1.06,7.1-3.1,.19-.17,.36-.26,.43-.26,.05,0,.05,.02,.05,.05,0,.41-3.53,4.87-7.85,4.87Z"/><path class="cls-2" d="M440.92,60.18c-.34,.05-.65,.1-.91,.1-1.9,0-2.71-2.02-2.71-2.14,0-.07,.02-.1,.1-.1,.12,0,.36,.12,.67,.36,.53,.41,1.22,.55,1.94,.55,.31,0,.62-.02,.94-.07,0-.41,0-.82,.02-1.18v-.17c0-1.08-.65-1.2-.65-1.51,0-.26,.22-.7,.74-.7s1.37,.38,1.37,1.3v.19c1.15,.38,1.49,.29,1.9,.34,.5,.07,.84,.34,.84,.72,0,.41-.38,1.39-3.29,2.09-.14,1.32-.22,2.76-.26,4.15,.22,.41,.31,.84,.31,1.3,0,.62-.19,1.32-.58,2.04-.46,.86-.86,1.8-.86,2.66,0,2.16,2.81,2.4,3.55,2.4,2.04,0,5.06-1.01,5.06-3.94v-.26c-.12-1.58-.19-2.83-.19-3.89,0-1.85,.24-4.66,2.5-4.66,1.68,0,3.17,1.44,3.17,2.86,0,.7-.36,1.25-1.2,1.25h-.19c-.17-.02-.34-.02-.53-.02-.62,0-1.32,.1-1.82,.24-.14,.05-.24,.05-.31,.05-.12,0-.17-.02-.17-.07,0-.07,.1-.17,.31-.26,.67-.29,2.21-1.06,2.21-1.87,0-.19-.02-.34-.05-.38-.34-.74-.94-1.1-1.54-1.1-1.08,0-1.8,.89-1.8,3.17,0,.91,.12,1.87,.22,2.62,.14,1.27,.74,2.26,.74,3.24,0,1.54-1.85,4.42-6,4.42-1.68,0-4.75-.58-4.75-3.6,0-.48,.07-.96,.19-1.46-1.46,0-2.06-2.35-2.06-3.86,0-1.27,.43-2.35,1.66-2.35,.5,0,1.06,.24,1.44,.6v-3.02Zm-.14,5.76v-.17c0-1.01-.72-2.35-1.44-2.35-.77,0-.84,1.22-.84,1.42,0,1.27,.74,2.59,1.39,2.59,.36,0,.7-.41,.89-1.49Zm1.42-7.82c-.05,.19-.1,.38-.12,.58,.6-.14,1.08-.31,1.32-.5,.07-.07,.17-.17,.17-.24s-.02-.1-1.18-.79c-.05,.29-.12,.6-.19,.96Z"/><path class="cls-2" d="M462.06,73.96c-.7-1.34-1.92-2.33-2.9-3.02-.24-.19-.48-.34-.48-.41,0-.02,.05-.05,.17-.05,.98,0,5.18,.96,5.18,3.05,0,.65-.48,1.15-1.01,1.15-.34,0-.7-.22-.96-.72Z"/><path class="cls-2" d="M485.13,73.69c0,.53-.53,.89-.98,.89-.36,0-.7-.22-.7-.77v-.05c.12-2.57,.19-6.05,.24-9.17-1.73,3.14-4.61,4.78-5.04,4.78-.05,0-.07-.02-.07-.05,0-.07,.1-.19,.34-.38,1.99-1.58,4.56-6.02,4.8-7.54v-.72c-.86,0-1.97,.05-3.22,.22h-.02c-.29,0-.96-.89-.96-1.15,1.51,.24,3.14,.31,4.2,.34,0-.48-.02-.91-.02-1.3-.02-.5-.02-1.94-.1-2.88-1.15,.14-2.35,.22-3.31,.22-.24,0-.91,0-.91-.12,0-.05,.17-.12,.5-.14,2.04-.24,5.64-1.15,6.58-2.21,.07-.07,.07-.14,.14-.14,.17,0,1.7,1.25,1.7,1.58,0,.14-.12,.24-.38,.24-.07,0-.19,0-.31-.05-.12-.05-.24-.05-.36-.05s-.22,0-.34,.05c-.34,.12-.82,.24-1.39,.34,.14,.07,.24,.14,.24,.24s-.1,.22-.36,.36c-.36,.19-.43,.26-.43,3.86h.62c.07,0,.24-.07,.31-.19,.31-.53,.77-1.25,.98-1.25,.55,0,1.9,1.39,1.9,1.8,0,.12-.1,.24-.46,.24h-3.36v2.64c2.23,0,3.43,1.03,3.43,1.97,0,.48-.31,.84-.72,.84-.29,0-.6-.17-.89-.65-.43-.72-1.13-1.51-1.82-1.97,.02,3.31,.07,7.18,.17,10.15v.02Zm9.62-18.48c0,2.95,.22,5.52,.65,7.73,2.38-2.5,2.64-3.19,3.14-4.49,.02-.07,.05-.1,.07-.1,.14,0,1.97,1.61,1.97,2.14,0,.19-.17,.26-.38,.26-.12,0-.22-.02-.34-.05-.12-.02-.19-.05-.24-.05-.14,0-.22,.05-.46,.22-.58,.43-2.98,1.99-3.7,2.42,.94,4.37,2.88,7.32,6.29,9.05,.14,.07,.19,.12,.19,.17,0,.26-1.87,.22-2.5,.84-.07,.07-.17,.12-.24,.12s-.14-.02-.22-.1c-2.74-2.86-4.58-7.39-4.58-15.86,0-.7,.02-1.44,.05-2.18-.36,.14-.41,.17-.41,1.15,0,1.3-.02,2.83-.02,4.13-.05,11.38-8.04,13.46-8.3,13.46-.05,0-.07-.02-.07-.05,0-.1,.24-.31,.53-.46,2.78-1.49,6.6-5.21,6.6-14.38,0-3.65-.19-4.97-.26-5.33-.02-.05-.02-.1-.02-.12s.02-.05,.05-.05c.1,0,2.66,.46,2.66,1.06,0,.14-.14,.29-.36,.41l-.1,.05Zm-6.1,8.16c0-.24,.1-.55,.31-.89,.82-1.2,.84-2.71,.86-3.82,0-.19,.02-.26,.05-.26,.12,0,1.01,1.54,1.01,3.31,0,1.97-1.08,2.45-1.49,2.45-.43,0-.74-.31-.74-.79Z"/><path class="cls-2" d="M515.42,60.64c0,5.26-4.2,10.61-6.26,10.61-1.18,0-1.61-1.61-2.59-3.02-.38-.53-.58-1.3-.58-2.18,0-3.65,3.19-9.43,9.67-9.43,5.45,0,8.26,3.77,8.26,7.68,0,7.3-8.35,9.36-10.32,9.36-.22,0-.34-.05-.34-.1,0-.12,.38-.31,1.08-.5,6.31-1.7,8.02-5.88,8.02-8.86,0-3.55-2.45-6.79-7.01-6.79-.29,0-.58,.02-.86,.05,.6,.43,.94,1.66,.94,3.19Zm-.84-.86c0-1.73-.41-2.14-.94-2.14-.07,0-.14,0-.24,.02-.07,.02-.14,.02-.19,.02-3.7,1.06-6.02,4.66-6.02,7.8,0,2.11,1.06,3.72,2.21,3.72,1.61,0,5.18-5.02,5.18-9.43Z"/><path class="cls-2" d="M540.11,68.75c1.63,2.3,5.47,4.22,10.25,4.22h.17c.17,0,.24,.02,.24,.07,0,.19-2.04,.91-2.62,1.39-.14,.12-.29,.17-.46,.17-1.22,0-6.36-1.61-8.11-5.86h-.1c-1.56,4.73-8.35,6.07-10.85,6.07-.36,0-.48-.05-.48-.1,0-.1,.24-.19,.53-.24,4.7-.55,8.26-3.07,9.24-5.74h-1.42c-1.3,0-4.66,.05-6.74,.26h-.02c-.43,0-1.15-.94-1.15-1.25,2.38,.31,6.7,.38,8.04,.38h1.49l.07-.43c.05-.46,.07-.82,.07-1.2,0-.22,0-.41-.02-.65v-.07s0-.05,.05-.05c.86,0,2.52,.29,2.52,.65,0,.14-.14,.26-.48,.36-.43,.12-.43,0-.62,1.1-.02,.1-.02,.19-.05,.29h7.03c.14,0,.29-.1,.36-.22,.91-1.22,1.03-1.39,1.2-1.39,.5,0,2.04,1.54,2.04,1.9,0,.17-.1,.31-.46,.31h-9.72Zm-.36-7.3c0,.34,.02,.67,.02,1.01,.05,0,.1-.02,.17-.02,1.34,.14,3.89,.43,3.89,1.92,0,.43-.29,.77-.67,.77-.26,0-.58-.17-.89-.58-.55-.74-1.61-1.51-2.4-1.92-.05-.02-.07-.05-.1-.07,.02,.7,.02,1.44,.07,2.18,.02,.48-.46,.72-.74,.72s-.55-.19-.55-.6v-.05c.05-.7,.07-1.37,.1-1.97-1.56,1.68-3.77,2.76-5.02,3.12v.62c0,.41-.48,.67-.91,.67-.31,0-.62-.17-.62-.55v-.05c.14-2.38,.17-7.42,.17-8.93,0-.53-.05-1.82-.17-2.66v-.14s0-.07,.05-.07,1.22,.38,2.02,.96l.02,.02h2.95c.12-.43,.43-1.58,.43-2.35,0-.36-.02-.72-.05-.96v-.05c0-.07,.02-.1,.07-.1,.1,0,2.76,.62,2.76,1.27,0,.19-.26,.36-.82,.41-.29,.02-.36,.17-.48,.34-.38,.53-.79,1.03-1.18,1.44h6.86c.12,0,.24-.05,.31-.17,.12-.17,.34-.43,.46-.53,.07-.02,.12-.07,.22-.07,.24,0,1.75,.77,1.75,1.27,0,.24-.22,.43-.43,.55-.43,.26-.46,.22-.48,.65v.94c0,1.82,.02,5.74,.14,7.97v.05c0,.43-.46,.72-.86,.72-.34,0-.62-.17-.62-.6,.02-1.44,.02-4.3,.02-6.6,0-1.66,0-3.05-.02-3.34,0-.07-.1-.24-.29-.24h-10.8s-.1,.07-.17,.12c-.26,.17-.34,.14-.36,.58-.02,.19-.02,.82-.02,1.66,0,1.87,.02,4.87,.05,6.84,1.44-.77,3.91-2.86,4.78-4.18-.96,.02-2.06,.07-3.34,.19h-.02c-.36,0-1.01-.82-1.01-1.06,1.63,.19,3.41,.29,4.66,.31,0-2.59-.19-3.46-.24-3.6-.02-.05-.02-.1-.02-.12,0-.05,.02-.05,.1-.05,.31,0,2.11,.38,2.11,.77,0,.12-.12,.26-.31,.36-.43,.22-.5,.07-.53,.77-.02,.58-.05,1.2-.05,1.87h.24s.07-.12,.14-.22c1.18-1.56,1.58-2.69,1.73-3.14,.02-.12,.02-.19,.07-.19,.02,0,1.61,.91,1.61,1.3,0,.12-.12,.24-.46,.24h-.19c-.19,0-.31,.1-.41,.19-.53,.5-1.42,1.27-2.11,1.73l-.14,.1h1.85s.19-.07,.24-.19c.17-.31,.72-.86,.82-.86,.02,0,.07,.02,.1,.02,.55,.26,1.42,.96,1.42,1.34,0,.12-.1,.24-.38,.24h-4.51Zm-3.46-1.78c-.22-.43-.77-1.1-1.25-1.46-.14-.1-.19-.17-.19-.19,0-.07,.12-.07,.31-.07,1.06,.02,2.54,.5,2.54,1.49,0,.43-.34,.77-.72,.77-.24,0-.5-.14-.7-.53Z"/><path class="cls-2" d="M562.31,55.93c-.86,.89-1.73,1.73-2.64,2.54,.34-.05,.7-.1,1.08-.1,1.34,0,2.18,.48,2.18,1.25,0,.38-.31,.72-.72,.72-.24,0-.5-.1-.79-.36-.53-.48-1.32-.96-2.06-1.22-2.76,2.4-4.75,3.29-4.92,3.29-.02,0-.02-.02-.02-.02,0-.07,.14-.22,.5-.5,3.1-2.38,6.84-6.89,7.3-8.16,.05-.14,.05-.22,.12-.22,.34,0,2.23,.91,2.23,1.27,0,.17-.22,.29-.6,.29h-.22c-.34,0-.43,.19-.65,.41l-.17,.17h3.7c.26,0,.29-.07,.38-.17,.22-.22,.34-.29,.53-.43,.07-.05,.12-.05,.17-.05,.26,0,1.94,.89,1.94,1.42,0,.17-.14,.31-.53,.43-.48,.14-.77,.22-1.08,.62-4.01,4.92-8.33,8.06-13.25,9.29-.5,.12-.82,.19-.96,.19-.05,0-.07,0-.07-.02,0-.05,.31-.22,.94-.46,6.89-2.59,12.05-9.89,12.05-10.08,0-.05-.05-.1-.22-.1h-4.22Zm3.02,8.21c-.98,.91-2.02,1.78-3.14,2.62,.38-.07,.82-.12,1.27-.12,1.46,0,2.54,.5,2.54,1.42,0,.46-.36,.84-.82,.84-.29,0-.58-.12-.89-.43-.55-.58-1.44-1.15-2.28-1.46-.05-.02-.1-.02-.12-.05-3.41,2.45-5.71,3.19-5.93,3.19-.02,0-.05-.02-.05-.02,0-.07,.17-.22,.6-.46,4.06-2.38,8.59-6.91,9.29-8.52,.07-.14,.07-.22,.14-.22,.31,0,2.21,1.06,2.21,1.37,0,.17-.24,.26-.74,.29-.43,0-.55,.14-.82,.38-.22,.19-.41,.38-.62,.58h4.8c.26,0,.31-.12,.41-.22,.46-.41,.55-.48,.65-.48,.34,0,1.94,1.03,1.94,1.44,0,.19-.17,.34-.58,.46-.48,.14-.74,.19-1.06,.62-5.54,7.3-12.31,8.83-16.9,9.14-.24,.02-.46,.02-.6,.02-.29,0-.46-.02-.46-.07,0-.07,.36-.17,1.06-.29,4.01-.7,10.32-2.62,15.48-9.67,.07-.1,.14-.19,.14-.26,0-.05-.07-.1-.22-.1h-5.33Z"/><path class="cls-2" d="M582.11,56.58c-.5,.34-.55,.38-.55,.89v.55c.02,.72,.02,1.49,.02,2.3,0,1.25-.02,2.62-.14,3.96,1.54-1.1,3.55-3.36,3.84-4.34-.74,.02-1.51,.1-2.21,.17h-.02c-.29,0-.84-.72-.84-.94,1.46,.22,2.47,.24,3.22,.24v-.26c-.02-.58-.02-1.32-.17-1.85-.02-.07-.02-.1-.02-.12s0-.02,.05-.02c.31,0,2.02,.34,2.02,.7,0,.12-.12,.26-.31,.36-.43,.22-.48,.1-.53,.74,0,.14-.02,.31-.02,.46h.65s.19-.07,.26-.17c.36-.53,.53-.74,.72-.74,.05,0,.1,0,.12,.02,.72,.38,1.2,.86,1.2,1.15,0,.1-.07,.24-.36,.24h-2.62c0,.26-.02,.55-.02,.84,.84,.02,2.83,.14,2.83,1.2,0,.36-.29,.65-.65,.65-.19,0-.43-.1-.62-.36-.36-.48-.98-1.03-1.56-1.32,0,1.01,.05,2.14,.12,3.5,.02,.48-.43,.67-.7,.67s-.5-.17-.5-.55v-.07c.07-1.15,.12-2.11,.14-2.98-1.1,1.63-2.86,2.64-4.03,3.14-.77,7.99-4.49,9.34-4.56,9.34-.05,0-.07-.02-.07-.05,0-.07,.14-.29,.48-.62,2.3-2.4,2.81-7.06,2.81-11.33,0-4.49-.36-6.48-.48-6.94-.02-.07-.02-.12-.02-.17s.02-.07,.05-.07c.38,0,2.04,.84,2.45,1.1,.02,.02,.1,.05,.12,.07h5.69v-.24c0-.98-.07-1.82-.26-2.59-.02-.07-.02-.12-.02-.17t.02-.02s2.86,.36,2.86,.89c0,.14-.14,.31-.38,.46-.58,.36-.65,.19-.7,.98-.02,.31-.05,.46-.05,.7h4.87c.17,0,.34-.1,.41-.22,.82-1.15,.98-1.39,1.27-1.39,.05,0,.1,0,.14,.02,.53,.19,2.09,1.42,2.09,1.9,0,.14-.12,.29-.53,.29h-15.48Zm8.04,14.52c.02,.38,.07,.91,.07,1.3,0,1.87-2.06,2.33-2.66,2.33-.17,0-.22-.1-.34-.29-.31-.5-2.64-1.44-2.64-1.61,0,0,.02-.02,.07-.02s.14,.02,.29,.05c.98,.19,1.78,.31,2.4,.31,.94,0,1.44-.26,1.49-.89,.02-.29,.02-.7,.02-1.18h-.82c-1.2,0-4.08,.05-6.34,.24h-.02c-.41,0-1.06-.84-1.06-1.13,2.69,.29,6.29,.36,7.54,.36h.7v-1.85h-.5c-1.13,0-3.17,.05-5.18,.22h-.02c-.38,0-1.01-.82-1.01-1.08,2.64,.31,5.16,.31,6.34,.31h.36v-.5c-.02-.36-.02-.82-.07-1.22-1.49,.07-3.05,.14-4.56,.14-2.23,0-2.57-.1-2.57-.26,0-.05,.1-.12,.36-.12,3.07-.12,8.14-.7,10.73-1.27,.6-.12,1.01-.38,1.25-.53,.1-.05,.12-.07,.14-.07s1.3,1.1,1.3,1.58c0,.14-.1,.22-.26,.22-.12,0-.26-.05-.41-.1-.14-.05-.29-.1-.46-.1h-.1c-.86,.12-2.11,.24-3.5,.36,.12,.05,.19,.12,.19,.17,0,.1-.12,.19-.29,.26-.43,.19-.46,.29-.46,1.44h2.83c.14,0,.26-.1,.34-.19,.34-.43,.84-1.03,1.1-1.03,.29,0,1.94,.94,1.94,1.49,0,.14-.1,.29-.46,.29h-5.78c0,.6,0,1.27,.02,1.85h4.56c.14,0,.31-.1,.38-.22,.31-.46,1.03-1.22,1.22-1.22,.79,0,2.11,1.39,2.11,1.7,0,.14-.1,.26-.48,.26h-7.78Zm3.14-11.18c1.13,1.54,3.24,2.81,5.71,3.31,.1,.02,.14,.05,.14,.07,0,.14-1.58,.38-2.11,.74-.07,.05-.12,.07-.19,.07-.02,0-2.14-.74-3.74-3.96v.38c0,.82,.05,1.68,.12,3.1,.02,.53-.53,.67-.72,.67-.26,0-.48-.14-.48-.53v-.07c.07-1.01,.1-1.75,.12-2.38-1.75,2.45-4.68,3.24-4.94,3.24-.05,0-.1-.02-.1-.05,0-.05,.1-.12,.34-.24,1.66-.79,3.82-2.98,4.49-4.32-.48,.02-1.01,.07-1.61,.14h-.02c-.29,0-.89-.77-.89-.98,.98,.14,1.92,.22,2.74,.24l-.02-.22c-.02-.58-.02-1.32-.17-1.85-.02-.07-.02-.1-.02-.12s0-.02,.05-.02c.26,0,2.02,.29,2.02,.67,0,.12-.12,.24-.31,.34-.41,.22-.46,.1-.5,.74,0,.17-.02,.31-.02,.48,.22,0,.38,.02,.55,.02h.62c.07,0,.24-.07,.31-.17,.72-1.01,.94-1.01,1.01-1.01,.05,0,.1,.02,.12,.02,.6,.22,1.58,1.13,1.58,1.37,0,.14-.1,.29-.48,.29h-3.58Z"/><path class="cls-2" d="M606.43,72.76c-.31,.1-.5,.12-.62,.12-.1,0-.14-.02-.14-.05,0-.1,.24-.26,.65-.46,6.65-3,11.26-11.9,11.26-12.41,0-.34-.26-.58-.7-.58-1.15,0-4.37,.91-5.35,1.22-1.01,.31-1.56,.58-2.16,.58-.98,0-3.14-1.18-3.14-1.92,0-.38,.19-.53,.41-.53,.17,0,.34,.1,.43,.24,.22,.34,1.03,.48,2.04,.48,.53,0,1.08-.05,1.63-.1,.98-.12,4.51-.65,5.54-.79,.62-.1,.89-.65,1.42-.65,.65,0,2.86,.84,2.86,1.51,0,.22-.17,.43-.5,.67-.38,.26-.67,.46-1.06,1.13-3.12,5.54-6.98,9.84-12.55,11.52Zm14.62-14.64c-1.2,0-2.16-.94-2.16-2.14s.96-2.16,2.16-2.16,2.18,.96,2.18,2.16-.98,2.14-2.18,2.14Zm1.46-2.16c0-.82-.62-1.44-1.44-1.44s-1.46,.62-1.46,1.44,.65,1.46,1.46,1.46,1.44-.65,1.44-1.46Z"/><path class="cls-2" d="M643.65,62.8c-3.48,6.22-7.63,9.14-12.22,10.46-.31,.1-.5,.12-.62,.12-.1,0-.12-.02-.12-.05,0-.07,.22-.24,.62-.41,6.6-2.83,10.97-10.75,10.97-11.26,0-.29-.26-.48-.67-.48-.12,0-2.62,.22-5.23,1.06-.98,.31-1.51,.55-2.09,.55-1.3,0-3.07-1.2-3.07-1.7,0-.36,.19-.5,.41-.5,.14,0,.31,.07,.41,.22,.17,.29,.94,.38,1.82,.38,.55,0,1.18-.02,1.75-.1,.98-.1,4.22-.55,5.4-.65,.62-.05,.89-.6,1.39-.6,.67,0,2.78,.72,2.78,1.39,0,.19-.17,.38-.5,.6-.38,.24-.67,.34-1.03,.96Zm-2.52-6.89c.22,0,1.7,.14,1.7,.89,0,.34-.36,.65-1.01,.7-1.73,.1-3.74,.48-5.64,.79-.24,.05-.48,.07-.72,.07-1.3,0-2.21-.65-2.21-1.37,0-.02,0-.43,.22-.43,.1,0,.22,.1,.34,.19,.41,.31,1.06,.43,1.78,.43,1.1,0,2.4-.26,3.38-.5,.91-.19,1.18-.77,2.16-.77Z"/><path class="cls-2" d="M658.96,62.36c-1.25-1.18-2.52-1.75-4.03-2.33-.22-.07-.31-.14-.31-.19,0-.07,.65-.19,1.61-.19,3.19,0,4.51,1.1,4.51,2.14,0,.26-.1,1.01-.86,1.01-.26,0-.58-.12-.91-.43Zm13.32-3.86c0,.48-3.7,7.2-12.02,12.55-.65,.41-.77,1.06-1.44,1.06-.72,0-2.86-1.1-2.86-2.26,0-.07,.05-.74,.26-.74,.1,0,.19,.12,.36,.31,.29,.34,.67,.53,1.18,.53,2.95,0,11.35-7.92,14.02-11.02,.29-.34,.43-.46,.48-.46l.02,.02Z"/><path class="cls-2" d="M685.51,74c-.82,0-1.46-.65-1.46-1.46s.65-1.46,1.46-1.46,1.46,.65,1.46,1.46-.65,1.46-1.46,1.46Zm-.31-5.69c-.02-.86-.36-5.04-.77-8.14-.14-1.15-.34-2.59-.34-3.58,0-.67,.31-1.85,1.42-1.85s1.44,1.18,1.44,1.85c0,.98-.19,2.42-.34,3.58-.36,3-.72,7.25-.77,8.14-.02,.26-.17,.41-.34,.41-.14,0-.31-.14-.31-.41Z"/></g></g></svg>