<?xml version="1.0" encoding="utf-8"?>
<!-- Generator: Adobe Illustrator 26.3.1, SVG Export Plug-In . SVG Version: 6.00 Build 0)  -->
<svg version="1.1" id="Layer_1" xmlns="http://www.w3.org/2000/svg" xmlns:xlink="http://www.w3.org/1999/xlink" x="0px" y="0px"
	 viewBox="0 0 327.8 224.8" style="enable-background:new 0 0 327.8 224.8;" xml:space="preserve">
<path d="M9.8,150.7c0,3.5-0.5,7.9-3,10.4c-0.3,0.3-0.4,0.4-0.4,0.5c0,0,0,0,0,0c0.1,0,0.3-0.1,0.6-0.3c3-2.3,3.6-6.3,3.8-9.4h1.3
	c0.4,6.1,2.9,9.3,3.2,9.3c0.1,0,0.2,0,0.2-0.1c0.4-0.4,1.8-0.5,1.8-0.7c0,0-0.1-0.1-0.2-0.1c-3.5-1.5-4.4-5.1-4.9-8.3h2.2
	c0,0.1,0,0.3,0,0.4c0,0,0,0,0,0c0,0.3,0.2,0.5,0.5,0.5c0.3,0,0.7-0.3,0.7-0.6c-0.1-1.3-0.1-3-0.1-3.6c0-0.6,0-0.7,0.4-0.9
	c0.2-0.1,0.4-0.3,0.4-0.4c0-0.3-1-1.2-1.4-1.2c-0.2,0-0.4,0.3-0.6,0.6c-0.1,0.1-0.2,0.2-0.3,0.2h-2.8c0,0-0.1,0-0.1-0.1
	c-0.5-0.3-1.7-0.8-1.8-0.8c0,0,0,0,0,0.1c0,0,0,0.1,0,0.1C9.6,146.8,9.8,148.5,9.8,150.7z M10.9,149v-0.7c0-0.8,0-0.7,0.3-0.9
	c0.1,0,0.1-0.1,0.1-0.1h3c0.2,0,0.3,0.1,0.3,0.2c0,0.2,0,1.2,0,2.3c0,0.5,0,1,0,1.5h-3.7C10.9,151.3,10.9,151,10.9,149z M0.4,158.8
	c0-0.2,0.1-0.5,0.4-0.8c0.7-0.6,1-1.4,1.1-2.1c0-0.1,0-0.1,0.1-0.1c0,0,0.3,0.4,0.3,1.3c0,1.2-0.6,2.2-1.3,2.2
	C0.6,159.3,0.4,159.1,0.4,158.8z M2,149.1c0,1.4,0,3.8-0.1,5.5c0,0,0,0,0,0.1c0,0.3,0.2,0.5,0.4,0.5c0.3,0,0.7-0.2,0.7-0.6v-0.2h3.6
	c0.1,0,0.2,0.1,0.2,0.2c-0.1,1.9-0.3,5-2,5c-0.5,0-1.1-0.2-1.5-0.4c-0.1,0-0.1,0-0.1,0s-0.1,0-0.1,0c0,0.2,1.1,0.9,1.3,1.4
	c0,0.1,0.1,0.1,0.2,0.1c0,0,0.1,0,0.1,0c2.5,0,2.9-3.4,3.1-5.6c0-0.2,0.1-0.3,0.3-0.4c0.3-0.2,0.5-0.3,0.5-0.4
	c0-0.3-0.9-0.9-1.2-0.9c-0.1,0-0.1,0-0.1,0.1c-0.1,0.1-0.1,0.2-0.3,0.4c-0.1,0.1-0.1,0.1-0.3,0.1H5.3v-2.1h2.1
	c0.3,0,0.3-0.1,0.3-0.3c0,0-0.1-0.6-1-1c0,0-0.1,0-0.1,0c-0.2,0-0.6,0.6-0.6,0.7c-0.1,0.1-0.2,0.1-0.2,0.1H5.3c0-0.7,0-1.3,0-1.9
	h2.1c0.3,0,0.3-0.1,0.3-0.3c0,0-0.1-0.6-1-1c0,0-0.1,0-0.1,0c-0.2,0-0.6,0.6-0.6,0.7C6,149,5.9,149,5.9,149H5.3c0-0.5,0-0.9,0-1.3
	c0-0.3,0-0.3,0.3-0.4c0.1-0.1,0.2-0.1,0.2-0.2c0,0,0-0.1-0.1-0.1H8c0.3,0,0.3-0.1,0.3-0.3c0-0.3-0.6-0.9-1.1-1.1c0,0-0.1,0-0.1,0
	c-0.1,0-0.5,0.5-0.6,0.8c0,0.1-0.2,0.1-0.2,0.1h-3c-0.4-0.3-1.3-0.7-1.5-0.7c0,0,0,0,0,0c0,0,0,0.1,0,0.1C2,147,2,148,2,149.1z
	 M3,147.9c0-0.5,0-0.5,0.3-0.7c0.1,0,0.1-0.1,0.1-0.1h1c0.1,0.5,0.1,1.3,0.1,2H2.9L3,147.9z M2.9,149.5h1.5v1.9H2.9V149.5z
	 M4.4,151.9c0,0.8,0,1.5,0,2.1H3c0-0.7,0-1.4,0-2.1H4.4z M4.9,155.2C4.9,155.2,4.9,155.1,4.9,155.2c-0.1-0.1,0-0.1,0-0.1
	c0.6,0,1.4,0.4,1.4,1c0,0.3-0.2,0.5-0.4,0.5c-0.1,0-0.3-0.1-0.4-0.3C5.5,155.9,5.2,155.4,4.9,155.2z M3.8,155.5
	c0.4,0,1.5,0.7,1.5,1.3c0,0.3-0.2,0.6-0.5,0.6c-0.2,0-0.3-0.1-0.4-0.4c-0.1-0.4-0.4-1-0.6-1.4C3.8,155.6,3.8,155.6,3.8,155.5
	C3.8,155.5,3.8,155.5,3.8,155.5z M3.8,157.4c0,0.6-0.3,0.8-0.6,0.8c-0.2,0-0.4-0.2-0.4-0.6c0,0,0-0.1,0-0.1c0-0.1,0-0.2,0-0.3
	c0-0.4-0.1-1-0.1-1.3c0-0.1,0-0.1,0-0.1s0,0,0,0C2.9,155.8,3.8,156.6,3.8,157.4z M24.2,154.2c-1-0.4-1.2-1.4-1.2-2.5
	c0-0.9,0.2-1.9,0.3-2.6c0.1-0.5,0.1-0.8,0.1-1.2c0-0.7-0.2-0.9-0.9-1.1c-0.2,0-0.3-0.1-0.3-0.2c0-0.2,0.3-0.5,0.7-0.5
	c0.5,0,1.7,0.6,1.7,1.7c0,0.4-0.2,0.8-0.2,1.1c-0.2,0.8-0.5,2-0.5,2.9c0,0.9,0.3,1.7,1.2,1.9c0.9-0.4,1.3-0.4,1.6-0.4
	c0.7,0,0.8,0.4,0.8,0.6c0,0.7-0.9,0.9-1.4,0.9c-0.1,0-0.2,0-0.2,0c-0.1,0-0.1,0-0.2,0c-1.5,0-3.9,1.4-3.9,3.1c0,1.1,0.9,2.1,2.8,2.1
	c0.8,0,1.7-0.2,2.4-0.5c0.2-0.1,0.4-0.1,0.6-0.1c0.4,0,0.7,0.3,0.7,0.6c0,0.9-1.9,1.3-3.2,1.3c-3.1,0-4.1-1.9-4.1-3.1
	C21,156.6,22.3,155,24.2,154.2z M34.8,154.9c0-0.1,0-0.2,0.1-0.4c0.2-0.5,0.3-0.3,0.9-1c4.6-5.3,4.6-5.7,4.6-6
	c0-0.2-0.1-0.4-0.3-0.4c-0.2,0-0.5,0.1-0.7,0.4c-0.2,0.2-0.4,0.5-0.6,0.7c-0.2,0.1-0.4,0.2-0.6,0.2c-0.7,0-1.6-0.8-1.6-1.5
	c0-0.1,0-0.1,0.1-0.1c0,0,0.1,0,0.2,0c0.5,0.1,0.8,0.3,1.2,0.3c0.7,0,1.2-0.4,1.4-0.5c0.3-0.2,0.6-0.3,1-0.3c0.7,0,1.4,0.4,1.4,1.1
	c0,0.4-0.3,0.9-0.9,1.5c-1.2,1.1-4.9,4.5-4.9,5.3c0,0.1,0.1,0.1,0.1,0.1c0,0,0.1,0,0.1,0c1-0.2,2.4-1,4.2-1.7
	c3.5-1.5,4.1-0.4,4.1,0.1c0,0.3-0.3,0.6-0.8,0.6c-0.1,0-0.2,0-0.3,0c-0.4-0.1-0.8-0.1-1.2-0.1c-1.5,0-3,1.1-3.1,1.2
	c-0.9,0.8-1.3,1.7-1.3,2.5c0,1.6,1.5,2.8,3.3,2.8c0.2,0,0.4,0,0.7-0.1c0.1,0,0.1,0,0.2,0c0.5,0,0.8,0.4,0.8,0.7
	c0,0.6-0.7,0.7-1.2,0.7c-2.4,0-4.4-1.9-4.4-3.9c0-0.8,0.3-1.5,1-2.2c0.2-0.2,0.3-0.4,0.3-0.5c0,0,0,0-0.1,0c-0.3,0-1.7,0.9-1.9,1
	c-0.3,0.2-0.6,0.3-0.8,0.3C35.3,155.7,34.8,155.4,34.8,154.9z M62.7,153.8c0-2.9-2.1-5.8-6.2-5.8c-4.9,0-7.3,4.3-7.3,7.1
	c0,0.7,0.1,1.2,0.4,1.6c0.7,1.1,1.1,2.3,1.9,2.3c1.5,0,4.7-4,4.7-8c0-1.2-0.3-2.1-0.7-2.4c0.2,0,0.4,0,0.6,0c3.4,0,5.3,2.4,5.3,5.1
	c0,2.2-1.3,5.4-6,6.6c-0.5,0.1-0.8,0.3-0.8,0.4c0,0,0.1,0.1,0.3,0.1C56.4,160.8,62.7,159.2,62.7,153.8z M55.7,150.4
	c0,3.3-2.7,7.1-3.9,7.1c-0.9,0-1.7-1.2-1.7-2.8c0-2.4,1.7-5.1,4.5-5.8c0,0,0.1,0,0.1,0c0.1,0,0.1,0,0.2,0
	C55.3,148.8,55.7,149.1,55.7,150.4z M71.6,159.2l0-1.1H75v0.3v0c0,0.4,0.2,0.5,0.4,0.5c0.5,0,0.7-0.4,0.6-0.7c0-0.7-0.1-1.3-0.1-1.9
	c0-0.7,0-0.8,0.3-0.9c0.1-0.1,0.3-0.2,0.3-0.4c0-0.4-1.3-1-1.3-1c-0.1,0-0.3,0.1-0.5,0.5c-0.1,0.1-0.1,0.1-0.2,0.1H72
	c-0.6-0.4-1.5-0.7-1.6-0.7c0,0,0,0,0,0s0,0.1,0,0.1c0.1,0.6,0.2,1.8,0.2,2c0,0.8,0,2.1-0.1,3.1c0,0,0,0.1,0,0.1
	c0,0.3,0.2,0.5,0.5,0.5C71.2,159.8,71.6,159.5,71.6,159.2z M71.6,155.8c0-0.4,0-0.3,0.3-0.6c0,0,0.1-0.1,0.1-0.1h2.8
	c0.1,0,0.2,0.1,0.2,0.2c0,0.4,0,0.8,0,1.1s0,0.7,0,1.1h-3.5C71.6,156,71.6,155.8,71.6,155.8z M72.5,152.9c-0.9,0-1.3,0-2.7,0.2h0
	c-0.3,0-0.7-0.7-0.7-0.9c1.6,0.2,2.6,0.3,3.5,0.3h0.3c0-0.6,0-1.3,0-1.9c-0.7,0-1.2,0-2.4,0.2h0c-0.3,0-0.7-0.7-0.7-0.9
	c1.4,0.2,2.3,0.2,3.1,0.3c0-0.2,0-0.4,0-0.6c0-0.5-0.1-1.2-0.1-1.6c0-0.1,0-0.1,0-0.1c0,0,0,0,0,0c0.1,0,1.9,0.2,1.9,0.5
	c0,0.1-0.1,0.2-0.4,0.3c-0.3,0.1-0.3,0.2-0.3,0.7c0,0.3,0,0.5,0,0.8h1c0.1,0,0.2-0.1,0.3-0.1c0-0.1,0.5-0.8,0.7-0.8
	c0.1,0,0.1,0,0.1,0c0.6,0.3,1.2,0.8,1.2,1.2c0,0.1-0.1,0.2-0.3,0.2h-3v1.9h1.6c0.1,0,0.2-0.1,0.3-0.1c0.2-0.4,0.6-0.8,0.7-0.8
	c0.1,0,0.1,0,0.1,0c0.4,0.2,1.3,0.8,1.3,1.2c0,0.1-0.1,0.2-0.3,0.2H72.5z M65.1,161.7C65.1,161.7,65,161.7,65.1,161.7
	c-0.1-0.1,0.1-0.3,0.3-0.5c1.8-2,2.3-6.1,2.3-9.7c0-2.2-0.2-4.4-0.4-5.5c0-0.1,0-0.1,0-0.1c0,0,0-0.1,0-0.1c0.1,0,1.4,0.5,1.9,0.8
	c0,0,0.1,0.1,0.1,0.1h8.7c0.1,0,0.2-0.1,0.3-0.2c0.4-0.6,0.6-0.6,0.6-0.6c0.4,0,1.5,0.8,1.5,1.2c0,0.2-0.2,0.3-0.5,0.5
	c-0.3,0.2-0.3,0.2-0.3,2.9c0,2,0,4.7,0.1,6.4c0,1,0.1,1.4,0.1,2.1c0,1.5-1.5,2.3-2.4,2.3c-0.1,0-0.2,0-0.3-0.2
	c-0.3-0.4-2.2-1.3-2.2-1.4c0,0,0,0,0.1,0c0,0,0.1,0,0.2,0c0.9,0.2,1.6,0.3,2.1,0.3c1,0,1.3-0.4,1.3-1.1c0-1.8,0-3.8,0-5.6
	c0-2.4,0-4.6-0.1-5.9c0-0.1-0.1-0.3-0.2-0.3h-9.1c0,0-0.1,0.1-0.1,0.1c-0.2,0.1-0.3,0.2-0.3,0.7c0,0.1,0,0.2,0,0.3
	c0,0.8,0.1,1.7,0.1,2.7c0,3.7-0.4,8.1-3.1,10.4C65.4,161.6,65.2,161.7,65.1,161.7z M84.6,146.7c-0.1-0.1-0.1-0.1-0.1-0.1
	c0,0,0.1-0.1,0.1-0.1c0.6,0,3.3,0.4,3.3,1.8c0,0.4-0.3,0.7-0.6,0.7c-0.3,0-0.5-0.2-0.8-0.6C86.1,147.8,85.2,147.1,84.6,146.7z
	 M83.1,159.9c0,0,0-0.1,0.1-0.1c0.8-0.2,2.1-1,2.9-1.7c0.3-0.3,0.3-0.7,0.3-3.8c0-0.3,0-0.5,0-0.7c0-0.1-0.1-0.2-0.2-0.2l-0.3,0
	c-0.3,0-1.1,0.2-1.5,0.2c0,0,0,0,0,0c-0.3,0-0.8-0.7-0.8-1c0.6,0.1,1.8,0.3,2.2,0.3c0,0,0,0,0.1,0l0.3,0c0.1,0,0.2-0.1,0.3-0.2
	c0.4-0.5,0.5-0.5,0.5-0.5c0.2,0,1.5,0.6,1.5,1c0,0.2-0.3,0.3-0.4,0.4c-0.3,0.1-0.4,0.1-0.5,0.5c-0.1,0.6-0.1,1.8-0.1,2.7
	c0,0.3,0,0.5,0,0.7c0,0.1,0,0.3,0.1,0.4c4.6-2.4,4.9-7.8,4.9-9.7c0-0.3,0-0.5,0-0.7c-0.9,0-1.9,0.1-2.8,0.1h0
	c-0.3,0-0.8-0.7-0.8-0.9c1.6,0.2,4,0.3,5,0.3h2.7c0.2,0,0.3-0.1,0.3-0.1c0.4-0.5,0.5-0.5,0.5-0.5c0.2,0,1.4,0.7,1.4,1.1
	c0,0.2-0.1,0.3-0.4,0.5c-0.4,0.2-0.4,0.3-0.4,0.8c0,2.1,0,3.4-0.3,4.9c-0.4,3.2-1.9,4.4-3.6,4.5c-0.1,0-0.2,0-0.2-0.1
	c-0.2-0.5-2.2-1.5-2.2-1.6c0,0,0,0,0,0c0,0,0.1,0,0.2,0c0.8,0.2,1.5,0.4,2.1,0.4c1.3,0,2.2-0.7,2.6-3.2c0.3-1.6,0.2-4.2,0.3-5.7
	c0-0.3-0.1-0.3-0.3-0.3h-2.4c0.1,0,0.1,0.1,0.1,0.1c0,0.1-0.1,0.2-0.3,0.2c-0.3,0.1-0.3,0.2-0.3,0.6c-0.2,3.9-1.3,7.9-6,9.8
	c0.7,1.3,2.4,1.6,4.8,1.6c2.3,0,5.3-0.3,7.4-0.9c0.1,0,0.2-0.1,0.2-0.1c0,0,0.1,0,0.1,0c0,0.2-1.2,1-1.5,1.5
	c-0.1,0.1-0.2,0.3-0.3,0.3c-0.1,0-2.4,0.3-4.7,0.3c-1.9,0-5.6,0-6.5-3c-0.4,0.6-1.5,1.8-2.3,2.6c-0.1,0.1-0.1,0.4-0.3,0.4
	C84.2,161.2,83.1,160,83.1,159.9z M105,159c1.5,0,4.7-4,4.7-8c0-1.2-0.3-2.1-0.7-2.4c0.2,0,0.4,0,0.6,0c3.4,0,5.3,2.4,5.3,5.1
	c0,2.2-1.3,5.4-6,6.6c-0.5,0.1-0.8,0.3-0.8,0.4c0,0,0.1,0.1,0.3,0.1c1.5,0,7.7-1.5,7.7-7c0-2.9-2.1-5.8-6.2-5.8
	c-4.9,0-7.3,4.3-7.3,7.1c0,0.7,0.1,1.2,0.4,1.6C103.8,157.8,104.2,159,105,159z M108.1,148.8c0,0,0.1,0,0.1,0c0.1,0,0.1,0,0.2,0
	c0.4,0,0.7,0.3,0.7,1.6c0,3.3-2.7,7.1-3.9,7.1c-0.9,0-1.7-1.2-1.7-2.8C103.6,152.3,105.3,149.6,108.1,148.8z M118.6,161.5
	c-0.1,0-0.1,0-0.1,0c0-0.1,0.1-0.1,0.4-0.2c2-0.7,4.9-2.5,6.9-4.6h-0.6c-1,0-3.4,0-5,0.2h0c-0.3,0-0.8-0.7-0.8-0.9
	c1.8,0.2,4.9,0.3,5.9,0.3h1.3c0-0.5-0.1-1.2-0.2-1.5c0,0,0-0.1,0-0.1s0-0.1,0.1-0.1c0.3,0,1.9,0.2,1.9,0.5c0,0.1-0.1,0.2-0.3,0.3
	c-0.3,0.2-0.4,0.1-0.5,0.6c0,0.1,0,0.2,0,0.3h4.2c0.1,0,0.2-0.1,0.3-0.2c0.2-0.3,0.7-1,1-1c0,0,0.1,0,0.1,0c0.8,0.3,1.5,1.2,1.5,1.4
	c0,0.1-0.1,0.2-0.4,0.2h-6.5c1.5,1.5,4.4,3,7.6,3.3c0.1,0,0.2,0,0.2,0.1c0,0.2-1.5,0.6-2,1c-0.1,0.1-0.1,0.1-0.2,0.1
	c-0.6,0-4.3-1.8-5.9-4.2c0,0.4,0,0.8,0,1.3c0,1.1,0,2.2,0.1,2.9c0,0.5-0.4,0.6-0.7,0.6c-0.3,0-0.5-0.2-0.5-0.5c0,0,0-0.1,0-0.1
	c0.1-0.9,0.1-2.6,0.1-3.7C123.3,160.8,118.9,161.5,118.6,161.5z M122.3,149.4v1c0,0.7-0.1,3.3-0.2,4.3c0,0,0,0.1,0,0.1
	c0,0.4,0.2,0.5,0.5,0.5c0.3,0,0.7-0.3,0.7-0.7v-0.2h10.2c0.3,0,0.4-0.1,0.4-0.2c0-0.4-0.9-1-1.4-1.3c0,0-0.1,0-0.1,0
	c-0.2,0-0.7,0.6-0.9,0.9c-0.1,0.1-0.2,0.1-0.3,0.1h-3.3v-1.5h4.1c0.2,0,0.3-0.1,0.3-0.2c0-0.5-1.3-1.2-1.4-1.2s-0.8,0.6-0.8,0.7
	s-0.1,0.1-0.3,0.1h-1.9v-1.3h4c0.3,0,0.3-0.1,0.3-0.2c0-0.5-1.2-1.1-1.4-1.1c-0.2,0-0.8,0.7-0.8,0.7c-0.1,0.1-0.1,0.1-0.3,0.1h-1.9
	v-0.6c0-0.2,0-0.3,0.2-0.3c0.2-0.1,0.4-0.2,0.4-0.3c0-0.1-0.1-0.1-0.2-0.2h4.9c0.3,0,0.4-0.1,0.4-0.2c0-0.3-0.7-1-1.4-1.3
	c0,0-0.1,0-0.1,0c-0.3,0-0.8,0.8-0.9,0.9c-0.1,0.1-0.2,0.1-0.3,0.1h-3.5c0.3-0.4,0.7-1,1-1.4c0.1-0.1,0.1-0.2,0.4-0.2
	c0.4,0,0.6-0.2,0.6-0.3c0-0.3-1.9-0.9-2.1-0.9c0,0,0,0,0,0.1c0,0,0,0,0,0c0,0.2,0,0.4,0,0.7c0,0.4-0.1,0.8-0.4,2h-2.9
	c-0.1,0-0.1-0.1-0.2-0.1c-0.1,0-0.2-0.1-0.3-0.1c0.3-0.4,0.5-0.7,0.7-1.1c0.1-0.2,0.2-0.3,0.5-0.3c0.4,0,0.6-0.1,0.6-0.3
	c0-0.3-1.7-1-1.9-1c-0.1,0,0,0.1-0.1,0.2c-0.3,1.9-2.4,5-3.9,6.3c-0.2,0.2-0.3,0.3-0.3,0.4c0,0,0,0,0,0
	C119.2,152.4,120.8,151.3,122.3,149.4z M123.6,148.9h3.1c0,0.1,0.1,0.4,0.1,1.4h-3.5C123.2,149.1,123.2,149.1,123.6,148.9z
	 M123.2,150.7h3.5c0,0.3,0,0.8,0,1.3h-3.6C123.2,151.6,123.2,151.1,123.2,150.7z M126.8,152.5c0,0.6,0,1.1,0,1.5h-3.5
	c0-0.4,0-1,0-1.5H126.8z M138.7,152.6c1.2,0,2.1,0.4,2.1,1.1c0,0.4-0.3,0.7-0.6,0.7c-0.2,0-0.4-0.1-0.6-0.4c-0.3-0.4-1-0.9-1.5-1.2
	c-0.1-0.1-0.2-0.1-0.2-0.2C138,152.6,138.7,152.6,138.7,152.6z M141,157c-0.2,0.6-0.3,1.1-0.3,1.6c0,0.5,0.1,0.9,0.3,1.3
	c0.4,1-0.1,1.7-0.6,1.7c-0.3,0-0.7-0.3-0.7-1.1c0-0.1,0-0.1,0-0.2c0-0.4,0.1-0.9,0.1-1.3c0-0.6-0.3-1.1-1.4-1.4
	c-0.3-0.1-0.4-0.1-0.4-0.2c0-0.1,0.1-0.1,0.4-0.1c0.7,0,1.1-0.1,1.5-0.7c3.5-5.7,3.8-5.9,3.9-5.9c0,0,0,0,0,0.1
	c0,0.1-0.1,0.3-0.1,0.4C143.2,152.4,141.4,155.7,141,157z M142.6,147.7v-0.8c0-0.2,0-0.9-0.1-1.4c0,0,0-0.1,0-0.1
	c0-0.1,0-0.1,0.1-0.1c0.5,0,1.8,0.3,1.8,0.6c0,0.1-0.1,0.2-0.4,0.3c-0.2,0.1-0.3,0.2-0.3,0.6c0,0,0,0,0,0.8h3.2v-0.8
	c0-0.2,0-0.9-0.1-1.5c0,0,0-0.1,0-0.1c0-0.1,0-0.1,0.1-0.1c0.5,0,1.8,0.3,1.8,0.6c0,0.1-0.1,0.2-0.4,0.3c-0.2,0.1-0.3,0.2-0.3,0.8
	c0,0.2,0,0.4,0,0.6h2.5c0.1,0,0.2-0.1,0.3-0.2c0.2-0.3,0.7-1.1,1-1.1c0,0,0.1,0,0.1,0c0.6,0.2,1.5,1.2,1.5,1.5
	c0,0.1-0.1,0.2-0.4,0.2h-5c0,0.2,0,0.5,0,0.7c0,0.4-0.4,0.5-0.6,0.5c-0.2,0-0.5-0.1-0.5-0.4c0,0,0,0,0,0c0-0.2,0-0.5,0-0.7h-3.2
	c0,0.5,0,1,0,1.3c0,0.3-0.3,0.5-0.6,0.5c-0.3,0-0.5-0.1-0.5-0.4c0,0,0,0,0-0.1c0-0.3,0-0.8,0-1.4c-1.3,0-3.3,0.1-4.5,0.2h0
	c-0.3,0-0.8-0.7-0.8-0.9C138.7,147.6,141.1,147.6,142.6,147.7z M150.2,151.8c0.2-0.2,0.2-0.2,0.5-0.3s0.4-0.2,0.4-0.3
	c0-0.3-1-0.9-1.2-0.9c0,0-0.2,0-0.5,0.3c-0.1,0.1-0.2,0.1-0.3,0.1h-2.6l0.1-0.1c0.2-0.3,0.2-0.3,0.4-0.3c0.3,0,0.5-0.2,0.5-0.3
	c0-0.3-1.4-0.8-1.6-0.8c-0.1,0-0.1,0-0.1,0.2c-0.2,1.6-2.4,4.6-3.8,5.8c-0.2,0.1-0.2,0.2-0.2,0.3c0,0,0,0,0.1,0c0.1,0,2-0.8,4-3.8
	c0.3,0.8,0.8,1.5,1.3,2.2c-1.6,1.5-3.6,2.7-5.4,3.3c-0.3,0.1-0.5,0.2-0.5,0.3c0,0,0,0,0.1,0c0.1,0,1.4-0.2,3.2-0.9
	c0.1,0.5,0.1,0.9,0.1,2c0,0.8,0,1.9-0.1,2.6c0,0,0,0.1,0,0.1c0,0.3,0.2,0.4,0.4,0.4c0.3,0,0.7-0.2,0.7-0.5c0-0.3,0-0.5,0-0.8h3.8
	c0,0.2,0,0.5,0,0.7c0,0.3,0.2,0.5,0.5,0.5c0.3,0,0.6-0.2,0.6-0.6c0,0,0,0,0,0c-0.1-1.1-0.1-1.7-0.1-2.2c0-0.7,0.1-0.8,0.3-0.9
	c0.2-0.1,0.4-0.2,0.4-0.4c0-0.4-1.3-1-1.4-1c-0.1,0-0.3,0.1-0.5,0.4c-0.1,0.1-0.1,0.1-0.2,0.1h-3l0,0c-0.3-0.2-0.7-0.4-1.1-0.6
	c1-0.5,1.9-1.1,2.8-1.8c1.6,1.5,3.6,2.2,4,2.2c0.1,0,0.2,0,0.3-0.1c0.4-0.4,1.7-0.7,1.7-0.9c0,0-0.1,0-0.2-0.1
	c-2.1-0.1-3.9-0.8-5.2-1.7C149.1,153.3,149.7,152.6,150.2,151.8z M146.1,157.4c0,0,0.1-0.1,0.1-0.1h3.2c0.1,0,0.2,0.1,0.2,0.2
	c0,0.4,0,0.7,0,1.1s0,0.7,0,1.2h-3.8c0-0.4,0-0.8,0-1.1C145.8,157.6,145.8,157.6,146.1,157.4z M147.8,153.4c-0.6-0.6-1.2-1.3-1.6-2
	l0.2-0.2h2.8c0.1,0,0.1,0,0.1,0.1C149.3,151.3,148.9,152.1,147.8,153.4z M139.6,150c-0.1-0.1-0.2-0.1-0.2-0.2s0.1-0.1,0.2-0.1
	c0.6,0,2.6,0.2,2.6,1.4c0,0.4-0.3,0.7-0.6,0.7c-0.2,0-0.5-0.1-0.7-0.5C140.7,150.9,140.1,150.4,139.6,150z M162.5,149.9
	C162.5,149.9,162.5,149.8,162.5,149.9c0.1-0.1,0.2,0,0.4,0.1c0.5,0.3,1.2,0.4,1.8,0.4c0.5,0,1-0.1,1.5-0.2c0.3-0.1,0.4-0.2,0.7-0.2
	c0.1,0,0.3,0,0.4,0c0.5,0,0.8,0.3,0.8,0.5c0,0.8-2.2,1-2.8,1C162.7,151.5,162.5,150,162.5,149.9z M162.2,157.4c0-0.1,0-0.2,0.1-0.2
	c0.1,0,0.2,0.1,0.4,0.3c0.4,0.5,1.6,0.9,3,0.9c0.3,0,0.7,0,1-0.1c0.4-0.1,0.7-0.3,1.3-0.3c0,0,0.1,0,0.1,0c0.6,0,0.9,0.3,0.9,0.6
	c0,0.8-1.8,1.1-2.8,1.1C162.8,159.7,162.2,157.8,162.2,157.4z M158.1,151.6c0.1-0.4,0.1-0.9,0.1-1.2c0-1-0.2-1.6-0.4-1.9
	c-0.1-0.1-0.2-0.3-0.2-0.3c0-0.1,0.1-0.1,0.4-0.1c0.6,0,1.4,0.9,1.4,2.1c0,0.6-0.2,1.1-0.5,1.9c-0.5,1.2-1,2.6-1,3.8
	c0,0.7,0.2,1.2,0.3,1.2c0.1,0,0.1-0.1,0.2-0.3c0.5-1.1,1.5-3.3,1.8-3.3c0,0,0.1,0,0.1,0.1c0,0.1,0,0.2-0.1,0.3
	c-0.5,1.3-1.3,3.5-1.3,4.8c0,0.4,0.1,0.7,0.1,1c0,0.1,0,0.2,0,0.3c0,0.4-0.2,0.6-0.5,0.6c-1.1,0-1.4-2.7-1.4-3.7
	C157.1,154.7,157.8,153.1,158.1,151.6z M174.8,157.5c0,0,0.1,0.2,0.1,0.5c0,2-1.4,3.3-2.4,3.3c-0.4,0-0.7-0.3-0.7-0.6
	s0.3-0.7,0.8-0.9c1.2-0.5,1.7-1.4,2.1-2.2C174.7,157.6,174.7,157.5,174.8,157.5z M184,156.7C184,156.7,184,156.7,184,156.7
	c-0.1-1.1-0.1-1.7-0.1-2.8c0-0.2,0-0.4,0-0.7c0-0.4,0-0.5,0.3-0.7c0.2-0.1,0.4-0.2,0.4-0.4c0-0.4-1.3-1.1-1.5-1.1
	c-0.1,0-0.1,0-0.2,0.1c-0.1,0.1-0.3,0.3-0.4,0.4c-0.1,0.1-0.1,0.1-0.2,0.1h-2.7c0-0.6,0-1.6,0-2.4h6.1c0.3,0,0.4-0.1,0.4-0.2
	c0-0.3-1.3-1.6-1.7-1.6c-0.1,0-0.2,0.1-1,1.2c-0.1,0.1-0.2,0.2-0.3,0.2h-3.5c0-0.4,0-0.8,0-1.1c0.1-0.8,0.1-0.6,0.5-0.9
	c0.2-0.1,0.3-0.2,0.3-0.4c0-0.4-2-0.7-2.1-0.7c0,0,0,0,0,0c0,0,0,0.1,0,0.1c0,0.1,0.2,1,0.2,3.5c0,0.6,0,1.4,0,2.3h-2.4
	c-0.6-0.5-1.7-0.8-1.8-0.8c0,0,0,0,0,0c0,0,0,0.1,0,0.1c0.1,0.7,0.2,2,0.2,2.2c0,1.3,0,2-0.1,3.6c0,0,0,0,0,0.1
	c0,0.4,0.3,0.5,0.5,0.5c0.3,0,0.7-0.2,0.7-0.6v-0.4h7v0.5c0,0.3,0.2,0.5,0.5,0.5C183.7,157.4,184,157.1,184,156.7z M182.8,156h-7
	c0-0.9,0-1.6,0-2.2c0-1.2,0-1.3,0.3-1.5c0.1,0,0.1-0.1,0.1-0.1h6.4c0.1,0,0.2,0.1,0.2,0.2c0,0.6,0,1.2,0,1.8
	C182.9,154.7,182.9,155.2,182.8,156z M181.1,160.4c-0.2-0.7-0.6-1.8-0.9-2.4c-0.1-0.1-0.1-0.2-0.1-0.2s0,0,0,0
	c0.4,0,2.3,1.3,2.3,2.6c0,0.5-0.3,0.9-0.6,0.9C181.5,161.1,181.3,160.9,181.1,160.4z M185.6,160.5c-0.5-1-1.5-2.1-2-2.5
	c-0.1-0.1-0.2-0.2-0.2-0.2c0,0,0,0,0.1,0c0.5,0,3.4,1.2,3.4,2.7c0,0.4-0.2,0.7-0.5,0.7C186.2,161.1,185.9,160.9,185.6,160.5z
	 M176.9,160.3c0-0.3,0.1-0.8,0.1-1.2c0-0.5,0-0.9-0.1-1.1c0-0.1,0-0.1,0-0.2s0-0.1,0-0.1c0.1,0,1.3,1.3,1.3,2.3
	c0,0.7-0.4,1.2-0.8,1.2c-0.3,0-0.5-0.2-0.5-0.7C176.9,160.4,176.9,160.4,176.9,160.3z M198.8,160c0-1.3,0-3.2,0-4.7
	c-0.8,0-1.5,0-2.9,0.2h0c-0.3,0-0.8-0.6-0.8-0.8c1.5,0.2,2.8,0.2,3.7,0.2c0-2.9-0.1-3.7-0.2-3.9c0,0,0-0.1,0-0.1c0,0,0,0,0.1,0
	c0.1,0,2,0.2,2,0.6c0,0.1-0.1,0.2-0.3,0.3c-0.4,0.2-0.4,0.1-0.4,0.6c0,0.4-0.1,1.3-0.1,2.5h1.7c0.1,0,0.2-0.1,0.3-0.1
	c0.6-0.8,0.8-1,0.9-1c0.3,0,1.6,0.9,1.6,1.3c0,0.1-0.1,0.2-0.4,0.2h-4.2c0,1.6,0,3.4,0,4.7h2.4c0.1,0,0.3-0.1,0.3-0.2
	c0.4-0.6,0.8-1.1,1-1.1c0,0,0.1,0,0.2,0c0.4,0.2,1.5,1,1.5,1.4c0,0.1-0.1,0.2-0.4,0.2h-6.1c-1,0-2,0-3.5,0.2h0
	c-0.3,0-0.8-0.7-0.8-0.9C196,159.9,197.7,160,198.8,160L198.8,160z M188.8,157.1C188.8,157.1,188.8,157.1,188.8,157.1
	c0-0.1,0.1-0.2,0.3-0.4c1.7-1.4,3.8-4.1,5.2-7c-1.1,0-2.6,0.1-3.8,0.2h0c-0.3,0-0.9-0.7-0.9-0.9c1.4,0.2,3.5,0.3,4.9,0.3
	c0.9-1.9,1.1-2.8,1.1-3.6c0-0.1,0-0.2,0.1-0.2c0.2,0,1.9,0.7,1.9,1c0,0.1-0.1,0.3-0.5,0.4c-0.3,0.1-0.3,0.1-0.4,0.3
	c-0.3,0.7-0.6,1.4-1,2.1h6.4c0.1,0,0.3-0.1,0.3-0.2c0.1-0.1,0.8-1.1,1-1.1c0.1,0,0.1,0,0.1,0c0.6,0.2,1.6,1.2,1.6,1.5
	c0,0.1-0.1,0.2-0.4,0.2h-9.3c-0.5,0.9-1,1.8-1.6,2.6c0.8,0.1,0.9,0.3,0.9,0.4c0,0.1-0.1,0.3-0.3,0.3c-0.4,0.2-0.4,0.1-0.5,0.8
	c0,1.1-0.1,2.6-0.1,4c0,1,0,2.1,0.1,3.1c0,0.4-0.4,0.7-0.8,0.7c-0.3,0-0.5-0.2-0.5-0.6c0,0,0-0.1,0-0.1c0.2-2,0.3-4.5,0.3-6.3
	c0-0.1,0-0.2,0-0.3v-0.8C191,155.9,189.1,157.1,188.8,157.1z M210,152c0.4,0,0.9-0.1,1.2-0.3c1.4-0.6,3-1,4.6-1.1c0,1.1,0,2.1,0,2.8
	c-0.3-0.1-0.6-0.2-0.9-0.2c-0.9,0-1.6,0.6-1.6,1.7c0,0.9,0.4,1.5,0.7,2.1c0.2,0.3,0.5,0.5,0.9,0.5c0.1,0,0.1,0,0.2,0
	c0.4-0.1,0.7-0.3,0.9-0.6c-0.5,2.2-2.5,3.9-3.4,4.2c-0.3,0.1-0.5,0.3-0.5,0.3c0,0,0,0.1,0.1,0.1c1.3,0,5-2.2,5-5.7
	c0-0.6-0.1-1.2-0.7-1.9c0-0.4-0.1-1.1-0.1-1.8c0-0.5,0-1,0.1-1.6c0.3,0,0.6,0,0.9,0c1.4,0,2.8,0.2,4.1,0.6c0.2,0.1,0.3,0.1,0.5,0.1
	c0.4,0,0.6-0.2,0.6-0.5c0-0.2-0.1-0.9-2-1.2c-0.7-0.1-1.6-0.5-2.4-0.9c-0.1-0.1-0.4-0.2-0.5-0.2c0,0-0.1,0-0.1,0
	c0,0.1,1.5,1.2,1.5,1.2c0,0,0.1,0.1,0.1,0.1c0,0.1-0.1,0.1-0.3,0.1c-0.8,0-1.5,0.1-2.2,0.1c0.1-0.5,0.1-1,0.2-1.6
	c0-0.2,0.1-0.4,0.1-0.6c0-1.3-1-1.4-1.3-1.4c-0.5,0-0.7,0.3-0.7,0.4c0,0.1,0,0.1,0.1,0.2c0.4,0.3,0.7,0.5,0.7,1.3c0,0.6,0,1.2,0,1.8
	c-1.8,0.2-3.5,0.5-5.3,0.7c-0.3,0-0.6,0.1-0.9,0.1c-0.5,0-1-0.1-1.1-0.2c-0.1-0.1-0.3-0.2-0.4-0.2c-0.1,0-0.2,0.1-0.2,0.3
	C208,151.3,209.1,152,210,152z M216,155c0,0.5-0.1,1.3-0.8,1.3c-1.1,0-1.3-1.5-1.3-1.7c0-0.6,0.4-1,0.8-1c0.2,0,0.8,0,1.2,0.9
	C216,154.7,216,154.8,216,155z M227.1,158c0.2,0,0.5-0.1,0.8-0.5c0.1-0.2,0.4-0.8,0.6-1.1c1.2-2,2.7-2.6,4-2.6
	c1.8,0,2.9,1.4,2.9,2.8c0,1.3-0.9,2.8-3.1,3.2l-0.1,0c0.1-0.2,0.1-0.4,0.1-0.6c0-0.9-0.8-1.8-1.9-1.8c-0.9,0-1.7,0.5-1.7,1.3
	c0,1.1,1.5,1.8,2.8,1.8c3.1,0,5-2,5-4.1c0-1.4-1.1-3.3-3.7-3.3c-1,0-2,0.3-2.9,0.8c-0.1,0-0.1,0-0.1,0s0,0,0,0
	c0-0.1,2.3-3.2,3.7-4.3c0.4-0.3,0.7-0.6,0.7-0.9c0-0.4-0.7-1.1-1.6-1.1c-1,0-2,0.7-2.5,1.1c-0.2,0.2-0.5,0.3-0.7,0.3
	c-0.2,0-0.3,0-0.5-0.1c-0.1-0.1-0.3-0.1-0.3-0.1c-0.1,0-0.1,0.1-0.1,0.3c0,0.6,0.5,1,1.1,1c1.2,0,1.6-1.7,2.5-1.7
	c0.4,0,0.5,0.2,0.5,0.3c0,0.1-0.1,0.3-0.2,0.5c-0.3,0.5-3.6,5-4.3,5.9c-1.3,1.5-1.5,1.9-1.5,2.2C226.6,157.7,226.8,158,227.1,158z
	 M231.2,159.9c-0.9-0.1-1.9-0.5-1.9-1.1c0-0.2,0.1-0.7,0.8-0.7c0.6,0,1.2,0.6,1.2,1.2C231.3,159.4,231.3,159.6,231.2,159.9z
	 M256.4,156.6c0,0,0,0.1-0.1,0.2c-0.3,1.5-0.5,2.8-1.7,3c-0.8,0.1-1.6,0.2-2.4,0.2c-3.1,0-3.3-0.3-3.3-1.3c0-0.1,0-0.3,0-0.6
	c0-1.1,0-3.3,0.1-5.1c0.7-0.4,1.4-0.7,1.8-0.9l0.3-0.2c0,2-0.1,4.2-0.1,5.8c0,0,0,0,0,0c0,0.4,0.2,0.6,0.5,0.6s0.7-0.2,0.7-0.7
	c0-0.5,0-1-0.1-1.7c0.4,0.3,0.9,0.6,1,1c0,0.1,0.1,0.1,0.2,0.1c0,0,0,0,0.1,0c2.1-0.3,2.1-2.2,2.2-6.2c0-0.3,0.1-0.3,0.3-0.5
	c0.3-0.2,0.4-0.4,0.4-0.5c0-0.4-1.4-0.8-1.5-0.8c-0.1,0-0.2,0-0.4,0.5c-0.1,0.1-0.1,0.3-0.2,0.3l-2,1c0-1.2,0-2.2,0.1-3
	c0.1-0.7,0.1-0.6,0.5-0.8c0.2-0.1,0.3-0.2,0.3-0.3c0-0.4-1.8-0.7-2-0.7c0,0,0,0,0,0s0,0.1,0,0.1c0.2,0.9,0.2,2.7,0.2,5.2l-0.5,0.3
	c-0.4,0.2-1,0.5-1.6,0.8c0-1.3,0.1-2.4,0.1-2.7c0-0.6,0.1-0.6,0.4-0.7c0.3-0.1,0.4-0.2,0.4-0.4c0-0.4-1.7-0.7-1.9-0.7
	c-0.1,0-0.1,0-0.1,0.1s0,0.1,0,0.1c0.1,0.7,0.1,1.8,0.1,2.4c0,0.5,0,1.4,0,2.3c-0.7,0.3-1.6,0.7-2.5,1c0,0.2,0.5,0.5,0.9,0.5
	c0.1,0,0.6-0.3,1.6-0.8c0,1.9-0.1,4.2-0.1,5.5c0,0,0,0,0,0.1c0,1.9,1.8,2,4.2,2c1.8,0,5.1-0.1,5.1-1.2c0-0.2-0.1-0.4-0.4-0.6
	C256.5,158.9,256.5,156.6,256.4,156.6z M254.1,150.2c0,0,0.1,0,0.1,0c0.1,0,0.2,0.1,0.2,0.2c0,0.4,0,0.9,0,1.4
	c0,3.7-0.6,3.9-1.3,3.9c-0.3,0-0.7-0.1-1.1-0.2c0-1.3,0-2.8,0-4.2L254.1,150.2z M240.7,158.3C240.7,158.3,240.8,158.3,240.7,158.3
	c1-0.1,1.5-0.2,2.8-0.7c0-1.3,0-3.6,0-5.5c-0.6,0-1.2,0.1-1.9,0.2c0,0,0,0,0,0c-0.3,0-0.8-0.6-0.8-0.9c1.3,0.2,2,0.3,2.7,0.3
	c0-1,0-1.9,0-2.4c0-0.8,0-1.8-0.2-2.7c0,0,0-0.1,0-0.1c0,0,0-0.1,0.1-0.1c0,0,2.1,0.3,2.1,0.8c0,0.2-0.2,0.3-0.4,0.4
	c-0.3,0.1-0.4,0.2-0.4,4.1h0.5c0.1,0,0.1-0.1,0.2-0.2c0.1-0.1,0.5-0.9,0.8-0.9c0.4,0,1.3,1,1.3,1.3c0,0.1-0.1,0.2-0.3,0.2h-2.4
	c0,1.9,0,4,0,5.1c1-0.4,1.9-0.8,2.6-1.2c0.1-0.1,0.2-0.1,0.2-0.1s0.1,0,0.1,0c0,0.3-3.6,2.5-5.4,3.4c-0.1,0.1-0.2,0.3-0.3,0.3
	C241.6,159.6,240.7,158.5,240.7,158.3z M274.9,161.4c-0.4,0-2.2-0.6-3.5-3.3c-2.6,3.1-6.2,3.5-6.5,3.5c-0.1,0-0.2,0-0.2-0.1
	s0.1-0.1,0.4-0.2c2.1-0.6,4.3-1.8,5.9-4.2c-0.9-2.5-1.1-5.4-1.3-7.3h-0.4c-0.9,0-2.7,0-4.1,0.2h0c-0.3,0-0.8-0.7-0.8-0.9
	c1.7,0.2,4.1,0.3,5,0.3h0.3c-0.2-2.6-0.2-2.9-0.4-3.5c0-0.1,0-0.1,0-0.1c0,0,0,0,0.2,0c0.2,0,1.8,0.2,1.8,0.6c0,0.1-0.1,0.3-0.3,0.4
	c-0.3,0.2-0.3,0.1-0.3,0.8c0,0.3,0,0.6,0,0.9c0,0.3,0,0.6,0,1h1.9c0.1,0,0.2-0.1,0.3-0.2c0.3-0.4,0.7-0.9,0.8-0.9
	c0.2,0,1.4,0.8,1.4,1.3c0,0.1-0.1,0.2-0.4,0.2h-4.1c0.1,2.1,0.3,4.4,1,6.3c0.5-1,1-2.1,1.3-3.5c0.1-0.4,0.1-1,0.1-1.3
	c0-0.1,0-0.1,0-0.1s1.7,0.5,1.7,0.9c0,0.1-0.1,0.2-0.5,0.4c-0.3,0.1-0.3,0.1-0.4,0.4c-0.4,1.7-1.1,3.2-1.9,4.4c1,2.1,2,2.5,2.1,2.5
	c0.3,0,0.6-0.5,1.2-2.1c0.2-0.6,0.2-0.2,0.2-0.1c0,0.5-0.2,2-0.2,2.6c0,0.1,0,0.2,0,0.3c0.1,0.2,0.2,0.4,0.2,0.5
	C275.6,161.2,275.3,161.4,274.9,161.4z M271.5,146.7c-0.1-0.1-0.1-0.1-0.1-0.1c0,0,0.3-0.1,0.5-0.1c1.4,0,1.7,0.6,1.7,1
	c0,0.3-0.3,0.6-0.6,0.6c-0.2,0-0.4-0.1-0.5-0.4C272.3,147.4,271.9,147.1,271.5,146.7z M268.3,151.3c-0.2,0-0.4,0.3-0.4,0.4
	c-0.1,0.1-0.1,0.1-0.2,0.1h-0.9c-0.2-0.2-1.2-0.6-1.4-0.6c0,0,0,0,0,0c0,0,0,0,0,0.1c0.1,0.5,0.2,1.5,0.2,1.7c0,0.7,0,2.2-0.1,3.2
	c0,0,0,0,0,0c0,0.2,0.2,0.3,0.4,0.3c0.3,0,0.6-0.2,0.6-0.4v-0.8h1.5l0,0.4c0,0.2,0.2,0.3,0.4,0.3c0.3,0,0.6-0.2,0.6-0.4c0,0,0,0,0,0
	c0-0.8-0.1-1.9-0.1-2.5c0-0.5,0-0.5,0.3-0.7c0.1-0.1,0.3-0.2,0.3-0.3C269.4,151.9,268.5,151.3,268.3,151.3z M267.9,155h-1.5
	c0-0.4,0-0.7,0-1.1c0-0.4,0-0.7,0-1.1c0-0.4,0.1-0.4,0.2-0.5h1.1c0.1,0,0.2,0.1,0.2,0.2c0,0.4,0,0.8,0,1.2
	C267.9,154.1,267.9,154.5,267.9,155z M264.9,159.3c-0.2,0-1-1-1-1.3c0,0,0,0,0.1,0c2.2,0,6.2-1.3,6.6-1.4c0.1,0,0.1,0,0.2,0
	c0.1,0,0.1,0,0.1,0.1c0,0.3-4.2,2-5.5,2.4C265.1,159.2,265,159.3,264.9,159.3z M261.6,156.9c0-1.3,0-3.6,0-5.5c-0.5,0-1,0.1-1.6,0.2
	c0,0,0,0,0,0c-0.3,0-0.8-0.6-0.8-0.9c1.1,0.1,1.8,0.2,2.4,0.3c0-0.8,0-1.5,0-2c0-0.8,0-1.8-0.2-2.7c0,0,0-0.1,0-0.1
	c0,0,0-0.1,0.1-0.1c0,0,2.1,0.3,2.1,0.8c0,0.2-0.2,0.3-0.4,0.4c-0.3,0.1-0.4,0.3-0.4,3.7h0.3c0.1,0,0.1-0.1,0.2-0.2
	c0.1-0.2,0.5-0.9,0.7-0.9c0,0,0.1,0,0.1,0c0.6,0.3,1.2,1,1.2,1.3c0,0.1-0.1,0.2-0.3,0.2h-2.1c0,1.9,0,4,0,5.2
	c0.8-0.3,1.7-0.6,2.4-0.9c0.1,0,0.2-0.1,0.2-0.1s0.1,0,0.1,0c0,0.3-3,1.9-4.9,2.8c-0.1,0.1-0.2,0.2-0.3,0.2c-0.2,0-1-1.1-1-1.2
	c0,0,0-0.1,0.1-0.1C259.8,157.4,260.9,157.1,261.6,156.9z M292.1,161c0,0.3-0.3,0.6-0.6,0.6c-0.3,0-0.6-0.1-0.9-0.5
	c-0.8-0.9-2.9-1.7-4-2.1c-0.1,0-0.1-0.1-0.1-0.1c0,0,0.1,0,0.2,0c1.7,0,4.3,0.9,5,1.3C291.9,160.4,292.1,160.7,292.1,161z
	 M279.1,147.3c-0.2-0.1-0.3-0.1-0.3-0.1c0-0.1,0.6-0.1,1.2-0.1c2.2,0,2.4,1,2.4,1.2c0,0.3-0.2,0.6-0.5,0.6c-0.2,0-0.4-0.1-0.7-0.3
	C280.7,148,279.8,147.6,279.1,147.3z M278,151.2C278,151.2,278.1,151.2,278,151.2c0.1,0,0.1,0,0.2,0c0.1,0,0.2,0,0.3,0
	c1.5,0,5.1-1.1,5.4-1.2c0.2-0.1,0.3-0.1,0.4-0.1c0,0,0.1,0,0.1,0c0,0.2-1.4,0.9-4.7,2.3c-0.2,0.1-0.3,0.3-0.5,0.3
	C278.8,152.5,278,151.3,278,151.2z M287.9,149.1c0.1-0.1,0.2-0.1,0.2-0.2s-0.1-0.2-0.3-0.2c-0.3-0.1-1.1-0.3-1.3-0.3
	c-0.1,0-0.2,0-0.2,0.1s0,0.1,0,0.1c0,0,0,0.1,0,0.1c0,1.7-1.4,3-3.7,3.9c-0.3-0.1-1.1-0.4-1.2-0.4c0,0,0,0,0,0c0,0,0,0.1,0,0.1
	c0,0.2,0.1,0.4,0.1,0.6c-0.7,0.2-1.4,0.4-2.2,0.5c-0.2,0-0.3,0.1-0.3,0.1c0,0,0.1,0.1,0.2,0.1c0.4,0,2.1-0.2,2.3-0.3
	c0,0.5,0,0.9,0,1c0,0.9-0.1,3.2-0.1,4.3c0,0,0,0,0,0.1c0,0.3,0.2,0.5,0.5,0.5c0.3,0,0.7-0.2,0.7-0.6v-0.3h5.9v0.2
	c0,0.3,0.2,0.4,0.5,0.4c0.3,0,0.7-0.2,0.7-0.6c0,0,0,0,0,0c0-0.8-0.1-2.5-0.1-3.6c0-0.7,0.1-0.8,0.4-1c0.2-0.1,0.4-0.2,0.4-0.4
	c0-0.4-1.3-1-1.4-1c-0.1,0-0.2,0-0.5,0.5c-0.1,0.1-0.2,0.1-0.3,0.1h-4.6c1.9-0.6,3.2-1.7,3.7-3.3c0.1-0.3,0.1-0.3,0.3-0.4
	c0.3,3.1,4,4,4.3,4c0.1,0,0.1,0,0.2-0.1c0.4-0.3,1.7-0.6,1.7-0.8c0,0,0,0-0.1,0C290.2,152,288.4,150.7,287.9,149.1z M288.6,157.8h-6
	c0-0.5,0-0.9,0-1.3h6C288.6,157,288.6,157.4,288.6,157.8z M288.7,156.1h-6V155h6V156.1z M288.4,153.3c0.1,0,0.2,0.1,0.2,0.2
	c0,0.3,0,0.6,0,1h-6l0-0.4c0-0.6,0.1-0.6,0.3-0.7l0.1-0.1H288.4z M277.6,161.7c-0.3,0-0.4,0-0.4-0.1s0.1-0.1,0.4-0.1
	c1.4-0.3,3.5-0.9,5.5-2c0.2-0.1,0.5-0.4,0.6-0.6c0-0.1,0-0.1,0.1-0.1c0.1,0,1.3,0.9,1.3,1.2c0,0.1-0.1,0.2-0.3,0.2
	c-0.1,0-0.1,0-0.2,0c-0.1,0-0.1,0-0.2,0c-0.1,0-0.3,0-0.4,0.1C281.5,161.3,278.9,161.7,277.6,161.7z M283,150.1
	C282.9,150.1,282.9,150.1,283,150.1c-0.1-0.1,0-0.1,0.1-0.2c0.8-0.8,2.3-3.5,2.4-4.4c0-0.1,0-0.2,0-0.2c0.1,0,1.8,0.5,1.8,0.9
	c0,0.1-0.2,0.2-0.5,0.2c-0.3,0-0.3,0-0.4,0.2c-0.2,0.2-0.3,0.5-0.5,0.7h4.6c0.1,0,0.3-0.1,0.3-0.1c0.1-0.1,0.3-0.4,0.6-0.4
	c0.1,0,1.5,0.7,1.5,1.2c0,0.2-0.2,0.4-0.7,0.4c-0.7,0-1.9,1.3-2.5,1.7c-0.1,0-0.1,0.1-0.1,0.1c0,0,0,0,0,0c0,0,0-0.1,0.1-0.1
	c0.8-1.4,1.2-2,1.2-2.1c0-0.1-0.1-0.1-0.1-0.1h-4.9C284,149.6,283.1,150.1,283,150.1z M307.5,159.5c0-0.4-0.1-0.9-0.1-1.2
	c0-0.2,0-0.4,0-0.7c0-0.5,0-1,0-1.5c0-0.5,0-0.5,0.3-0.6c0.1-0.1,0.2-0.1,0.2-0.2s0-0.1-0.1-0.1h1v0.2c0,0.3,0.2,0.5,0.5,0.5
	c0.3,0,0.6-0.2,0.6-0.6c0,0,0,0,0,0c-0.1-1.1-0.1-2.4-0.1-3.3s0-0.9,0.3-1.1c0.2-0.1,0.4-0.2,0.4-0.4c0-0.4-1.2-1-1.3-1
	s-0.2,0.1-0.5,0.5c-0.1,0.1-0.2,0.1-0.3,0.1h-1.9c0.3-0.4,0.6-1,0.8-1.4c0.1-0.1,0.1-0.2,0.3-0.3c0.3-0.1,0.4-0.2,0.4-0.3
	c0-0.2-0.2-0.2-0.9-0.4h4c0.3,0,0.4-0.1,0.4-0.2c0-0.3-1.2-1.3-1.6-1.3c-0.2,0-0.4,0.2-0.9,1c-0.1,0.1-0.2,0.1-0.3,0.1h-5.6l-0.1,0
	c-0.4-0.3-1.6-0.8-1.7-0.8c0,0,0,0,0,0c0,0,0,0.1,0,0.1c0.1,0.7,0.2,2.2,0.2,2.7c0,0.3,0,0.7,0,1c0,3.5-0.3,8.3-3.4,10.6
	c-0.3,0.2-0.4,0.3-0.4,0.4c0,0,0,0,0,0c0.1,0,0.3-0.1,0.6-0.3c4.5-2.6,4.2-9.2,4.2-11.8v-0.6c0-0.7,0-0.6,0.3-0.8
	c0.1,0,0.1-0.1,0.2-0.1h3.1c0,0.2,0,0.5,0,0.8s-0.1,1.1-0.2,1.6h-0.6l0,0c-0.5-0.4-1.5-0.8-1.6-0.8c0,0,0,0,0,0.1c0,0,0,0.1,0,0.1
	c0.2,1,0.2,2.6,0.2,2.9c0,0.8,0,1.8-0.1,3.2c0,0,0,0,0,0.1c0,0.3,0.2,0.4,0.4,0.4c0.3,0,0.7-0.2,0.7-0.5v-0.3h1.4
	c0,0.4,0.1,1.3,0.1,2.5c0,0.6,0,1.3,0,1.7c0,0.5-0.3,0.7-1,0.7c-0.4,0-0.9-0.1-1.5-0.2c-0.1,0-0.2,0-0.2,0c0,0-0.1,0-0.1,0
	c0,0.1,1.5,0.8,1.7,1.2c0.1,0.2,0.1,0.2,0.3,0.2C306.2,161.4,307.5,161,307.5,159.5z M305.1,151.5c0-0.6,0-0.5,0.3-0.7
	c0,0,0.1-0.1,0.1-0.1h3.1c0.2,0,0.2,0.2,0.2,0.2c0,0.4,0,0.9,0,1.5h-3.8C305.1,152.1,305.1,151.8,305.1,151.5z M305.1,154.8
	c0-0.6,0-1.3,0-1.9h3.8c0,0.6,0,1.3,0,1.9H305.1z M310.9,160.4c-0.2,0-0.4-0.2-0.6-0.6c-0.4-0.9-1.2-1.9-2.1-2.7
	c-0.1-0.1-0.1-0.1-0.1-0.1c0,0,0,0,0.1,0c0,0,3.3,1.1,3.3,2.6C311.5,160,311.3,160.4,310.9,160.4z M300.6,161.1
	C300.6,161.1,300.6,161.1,300.6,161.1c-0.1-0.1,0-0.1,0.2-0.3c1.1-0.7,3.2-3,3.2-4c0-0.1,0-0.2,0.1-0.2c0.1,0,1.5,0.7,1.5,1
	c0,0.1-0.1,0.2-0.4,0.2c0,0,0,0-0.1,0c0,0-0.1,0-0.1,0c-0.1,0-0.2,0-0.3,0.2C303.5,159.7,301.1,161.1,300.6,161.1z M295.6,150.2
	c0-0.1,0.7-0.1,0.8-0.1c1,0,2.2,0.3,2.2,1.2c0,0.4-0.3,0.7-0.6,0.7c-0.2,0-0.4-0.1-0.6-0.4c-0.3-0.4-1-1-1.5-1.3
	C295.7,150.3,295.6,150.2,295.6,150.2z M297.6,155.1c0.8-1.7,3-6.2,3.2-6.2c0,0,0,0,0,0.1c0,0.1,0,0.2-0.1,0.3
	c-1.1,2.7-2.3,6.1-2.3,8c0,0.6,0.1,1.1,0.3,1.6c0.4,1-0.1,1.7-0.6,1.7c-0.4,0-0.7-0.3-0.7-1.1c0-0.1,0-0.1,0-0.2
	c0-0.5,0.2-1,0.2-1.5c0-0.7-0.3-1.3-1.5-1.6c-0.3-0.1-0.4-0.1-0.4-0.2c0-0.1,0.2-0.1,0.4-0.1C296.8,155.9,297.2,155.9,297.6,155.1z
	 M297.1,146.2c0,0,0.1,0,0.3,0c1.1,0,2.7,0.5,2.7,1.5c0,0.4-0.3,0.7-0.7,0.7c-0.2,0-0.5-0.1-0.7-0.5c-0.3-0.5-0.8-1.1-1.4-1.5
	C297.2,146.3,297.1,146.3,297.1,146.2z M325.6,150.3c-1.8,0-3.2,1.9-4,3.8c-0.2-1.1-0.9-1.9-1.8-1.9c-0.3,0-0.7,0.1-1.1,0.3
	c0.4-0.7,0.8-1.4,1.5-2.8l0.1-0.1c1.2-0.4,2.2-1,2.2-1.7c0-0.3-0.1-0.5-0.4-0.5c-0.1,0-0.1,0-0.2,0.1c-0.1,0-0.3,0.1-0.5,0.1
	c-0.1,0-0.3,0-0.4,0c-0.1,0-0.2,0-0.2,0c-0.1-0.9-0.9-0.9-1-0.9c-0.3,0-0.8,0.2-0.8,0.4c0,0.1,0.1,0.1,0.3,0.2
	c0.5,0.1,0.7,0.5,0.7,1.1c0,0.2,0,0.3-0.1,0.6c-0.8,0.3-1.5,0.3-1.6,0.3c-0.5,0-1-0.1-1.6-0.5c-0.2-0.1-0.4-0.2-0.4-0.2
	c0,0-0.1,0-0.1,0.1c0,0.3,0.4,1.6,2.2,1.6c0.3,0,0.6,0,1-0.1l0.1,0c0,0.1-0.1,0.1-0.1,0.2c-0.8,1.8-1.4,2.8-3,4.3
	c-0.5,0.5-0.7,1-0.7,1.3c0,0.5,0.3,0.6,0.5,0.6c0.5,0,1-0.9,1.3-1.4c0.1-0.3,0.3-0.5,0.4-0.8c0.7-1,1.4-1.4,1.8-1.4
	c1.1,0,1.2,1.8,1.2,2.7c-1.7,1-2.8,2.2-2.8,3.4c0,1.2,1.4,2.5,3.5,2.5c1.4,0,2.8-0.5,2.8-1.2c0-0.3-0.3-0.5-0.6-0.5
	c-0.2,0-0.3,0-0.5,0.1c-0.6,0.3-1.4,0.5-2.1,0.5c-1.7,0-2.3-1-2.3-1.6c0-0.8,0.6-1.7,2.2-2.6l0,0.3c0,0.7-0.2,0.8-0.3,1.2
	c0,0.1,0,0.2,0,0.2c0,0.5,0.2,0.7,0.4,0.7c0.3,0,0.8-0.5,0.8-1.1c0-0.3,0-0.6,0-0.8c0-0.4,0-0.7-0.1-1.1c1.2-0.6,2.8-1.2,4-1.7
	c1.2-0.5,2-1.2,2-1.9C327.8,151,326.5,150.3,325.6,150.3z M320.7,147.8c0-0.1,0-0.1,0-0.1c0,0,0.1,0,0.2,0.1c0,0,0.4,0.1,0.4,0.3
	c0,0.2-0.3,0.4-0.7,0.6C320.6,148.2,320.7,148,320.7,147.8z M325.3,153c-1.1,0.6-2.5,1.3-3.6,1.8v-0.1c0.5-1.4,2-4,3.7-4
	c1,0,1.1,0.9,1.1,1C326.5,152.2,326.1,152.6,325.3,153z M2.1,179.9c0,0.5,0.1,0.5,0.7,0.8c0.4,0.2,0.6,0.5,0.6,0.8
	c0,0.5-0.5,1-1.1,1c-0.9,0-1.4-0.8-1.4-1.7c0-2,2.2-2.9,2.6-2.9c0.1,0,0.3,0.2,0.3,0.4c0,0.1,0,0.1-0.1,0.1
	C2.4,178.8,2.1,179.5,2.1,179.9z M5.3,179.9c0,0.5,0.1,0.5,0.7,0.8c0.4,0.2,0.6,0.5,0.6,0.8c0,0.7-0.6,1-1.1,1
	c-0.8,0-1.4-0.7-1.4-1.7c0-2.1,2.3-2.9,2.6-2.9c0.2,0,0.3,0.2,0.3,0.4c0,0.1,0,0.1-0.1,0.1C5.7,178.8,5.3,179.5,5.3,179.9z
	 M15.3,188.3c0,0.5-0.3,0.7-0.6,0.7c-0.2,0-0.4-0.2-0.5-0.6c-0.1-0.8-0.4-1.6-0.7-2.1c-0.1-0.1-0.1-0.2-0.1-0.2c0,0,0,0,0,0
	C13.7,186.1,15.3,187.2,15.3,188.3z M12.1,187.4c0,0.1-0.1,0.2-0.4,0.3c-0.3,0.1-0.3,0.1-0.3,0.4c-0.9,2.4-1.9,3.8-2.1,3.8
	c0,0-0.1,0-0.1-0.1c0,0,0-0.1,0.1-0.2c0.6-1.3,1.1-3.5,1.1-4.9c0-0.1,0-0.2,0.1-0.2C10.6,186.6,12.1,187.1,12.1,187.4z M15.2,178.3
	c2,0.3,4.1,0.3,5,0.3H23c0.1,0,0.2-0.1,0.3-0.2c0.1-0.1,0.6-0.9,0.9-0.9c0.3,0,1.4,0.9,1.4,1.3c0,0.1-0.1,0.2-0.4,0.2h-5.1
	c-0.9,0-2.5,0.1-4,0.2c0,0,0,0,0,0C15.7,179.3,15.2,178.6,15.2,178.3z M15.1,185.7c-0.3,0-0.5-0.2-0.6-0.7c0-0.1,0-0.2,0-0.3
	c-0.3,0.1-0.6,0.2-1,0.3c0.1,0.1,0.1,0.1,0.1,0.2c0,0.1-0.1,0.2-0.2,0.2c-0.2,0.1-0.2,0.1-0.2,1.7c0,1.5,0,3.7,0.1,5.2
	c0,0.3-0.2,0.6-0.7,0.6c-0.2,0-0.4-0.1-0.4-0.5c0,0,0,0,0-0.1c0.1-1.9,0.2-3.9,0.2-5.8c0-0.4,0-0.9,0-1.2c-0.7,0.2-1.2,0.3-1.5,0.4
	c-0.2,0-0.3,0.2-0.4,0.2c-0.2,0-0.8-1.2-0.8-1.3c0,0,0-0.1,0-0.1c0,0,0.1,0,0.1,0c0.4,0.1,0.8,0.1,1.2,0.1c0.1,0,0.2,0,0.3,0h0.2
	c2.4-3.6,2.6-4.9,2.7-5.3c0-0.1,0-0.2,0.1-0.2c0,0,0.1,0,0.1,0c0.2,0.1,1.4,0.6,1.4,0.9c0,0.1-0.1,0.3-0.5,0.3
	c-0.2,0-0.3,0.1-0.4,0.3c-0.9,1.3-2.2,3-3,3.9c0.9-0.1,1.9-0.1,2.6-0.2c-0.2-0.5-0.4-1-0.6-1.3c-0.1-0.1-0.1-0.2-0.1-0.2
	c0,0,0,0,0,0c0.2,0,2,1,2,2.1C15.7,185.4,15.4,185.7,15.1,185.7z M19.2,191.7C19.2,191.7,19.2,191.8,19.2,191.7
	c0,0.4,0.2,0.5,0.3,0.5c0.2,0,0.6-0.2,0.6-0.6c0-0.5-0.1-1.7-0.1-2.9h1.3c0,1,0,2.3-0.1,3c0,0,0,0.1,0,0.1c0,0.3,0.2,0.4,0.3,0.4
	c0.2,0,0.5-0.2,0.6-0.4c0.3,0.3,0.7,0.6,0.8,0.8c0.1,0.1,0.1,0.2,0.2,0.2c0.7,0,1.4-0.5,1.4-1.4c0-0.3,0-0.5,0-0.7c0-0.2,0-2,0-3.1
	c0-1.3,0-1.3,0.2-1.5c0.2-0.1,0.3-0.2,0.3-0.4c0-0.3-1-0.9-1.1-0.9c-0.1,0-0.3,0.4-0.4,0.4c-0.1,0.1-0.1,0.1-0.2,0.1h-5
	c0,0-0.1,0-0.1-0.1c-0.2-0.2-0.7-0.4-1-0.5c0-0.3,0.1-0.8,0.1-1.2h5.5c0,0.1,0,0.1,0,0.2c0,0,0,0.1,0,0.1c0,0.3,0.2,0.5,0.5,0.5
	c0.6,0,0.7-0.6,0.7-0.6c0-0.4-0.1-1.1-0.1-1.5c0-0.6,0-0.6,0.3-0.8c0.2-0.1,0.3-0.2,0.3-0.3c0-0.5-1.2-1-1.3-1c-0.1,0-0.2,0-0.5,0.4
	c-0.1,0.1-0.2,0.1-0.3,0.1h-4.8c-0.1-0.1-1.3-0.6-1.5-0.6c0,0,0,0,0,0c0,0,0,0.1,0,0.1c0.1,0.6,0.1,1.7,0.1,1.9c0,0.1,0,0.2,0,0.4
	c0,2.2,0,6.9-2.4,9.1c-0.1,0.1-0.2,0.2-0.2,0.2c0,0,0,0,0.1,0c0.3,0,2.5-1.2,3.3-5.9c0,0.3,0,0.5,0,0.6c0,0.6-0.1,4.8-0.2,5.9
	c0,0,0,0,0,0.1c0,0.3,0.2,0.5,0.4,0.5c0.3,0,0.6-0.2,0.6-0.6v-3.8h1.3C19.3,189.8,19.3,191,19.2,191.7z M22.1,186.5
	c0-0.2,0-0.3,0.2-0.3c0.1-0.1,0.2-0.1,0.2-0.2c0,0,0-0.1,0-0.1h1c0.2,0,0.2,0.1,0.2,0.2c0,0.3,0,1.2,0,2.2h-1.6
	C22.1,187.4,22.1,186.7,22.1,186.5z M23.7,188.7c0,1.1,0,2.2,0,2.5c0,0.4-0.3,0.5-0.6,0.5c-0.3,0-0.6-0.1-0.9-0.1
	c0-0.5-0.1-1.7-0.1-2.8H23.7z M20.1,186.5c0-0.2,0-0.2,0.2-0.3c0.1-0.1,0.2-0.1,0.2-0.2c0,0,0-0.1,0-0.1h0.9c0,0.2,0,0.3,0,1.6
	c0,0.2,0,0.5,0,0.8h-1.3C20.1,187.4,20.1,186.7,20.1,186.5z M17.4,181.7c0-0.2,0.1-0.4,0.2-0.5c0.1,0,0.1-0.1,0.1-0.1h4.9
	c0.2,0,0.3,0.1,0.3,0.2c0,0.2,0,0.6,0,1.2c0,0.2,0,0.4,0,0.6h-5.5C17.4,182.5,17.4,181.9,17.4,181.7z M18,188.3v-1.9
	c0-0.4,0-0.4,0.3-0.5h1c0,0.5,0,1.3,0,1.6v0.8H18z M13,178.6c-0.4,0.7-1,1.7-1.5,2.3c0.9,0.5,0.9,1,0.9,1.1c0,0.4-0.2,0.6-0.5,0.6
	c-0.2,0-0.4-0.1-0.6-0.5c-0.4-0.7-0.9-1.1-1.3-1.5c-0.1-0.1-0.2-0.1-0.2-0.2s0-0.1,0.1-0.1c0.3,0,1,0.2,1.3,0.3
	c0.2-0.5,0.9-2.5,0.9-3.4c0,0,0-0.1,0-0.1c0,0,0-0.1,0-0.1c0-0.1,0-0.1,0-0.1c0.1,0,1.6,0.6,1.6,0.9c0,0.1-0.1,0.3-0.4,0.3
	C13.1,178.3,13.1,178.4,13,178.6z M36.1,188.4c0,0.4,0,0.8,0,1.3c0,1.1,0,2.2,0.1,2.9c0,0.5-0.4,0.6-0.7,0.6c-0.3,0-0.5-0.2-0.5-0.5
	c0,0,0-0.1,0-0.1c0.1-0.9,0.1-2.6,0.1-3.7c-3.3,3.4-7.6,4.1-7.9,4.1c-0.1,0-0.1,0-0.1,0c0-0.1,0.1-0.1,0.4-0.2
	c2-0.7,4.9-2.5,6.9-4.6h-0.6c-1,0-3.4,0-5,0.2h0c-0.3,0-0.8-0.7-0.8-0.9c1.8,0.2,4.9,0.3,5.9,0.3h1.3c0-0.5-0.1-1.2-0.2-1.5
	c0,0,0-0.1,0-0.1s0-0.1,0.1-0.1c0.3,0,1.9,0.2,1.9,0.5c0,0.1-0.1,0.2-0.3,0.3c-0.3,0.2-0.4,0.1-0.5,0.6c0,0.1,0,0.2,0,0.3h4.2
	c0.1,0,0.2-0.1,0.3-0.2c0.2-0.3,0.7-1,1-1c0,0,0.1,0,0.1,0c0.8,0.3,1.5,1.2,1.5,1.4c0,0.1-0.1,0.2-0.4,0.2h-6.5
	c1.5,1.5,4.4,3,7.6,3.3c0.1,0,0.2,0,0.2,0.1c0,0.2-1.5,0.6-2,1c-0.1,0.1-0.1,0.1-0.2,0.1C41.4,192.6,37.7,190.8,36.1,188.4z
	 M27.5,183.9C27.5,183.9,27.5,183.9,27.5,183.9c0.3,0,1.9-1.1,3.4-3v1c0,0.7-0.1,3.3-0.2,4.3c0,0,0,0.1,0,0.1c0,0.4,0.2,0.5,0.5,0.5
	c0.3,0,0.7-0.3,0.7-0.7v-0.2H42c0.3,0,0.4-0.1,0.4-0.2c0-0.4-0.9-1-1.4-1.3c0,0-0.1,0-0.1,0c-0.2,0-0.7,0.6-0.9,0.9
	c-0.1,0.1-0.2,0.1-0.3,0.1h-3.3V184h4.1c0.2,0,0.3-0.1,0.3-0.2c0-0.5-1.3-1.2-1.4-1.2s-0.8,0.6-0.8,0.7s-0.1,0.1-0.3,0.1h-1.9v-1.3
	h4c0.3,0,0.3-0.1,0.3-0.2c0-0.5-1.2-1.1-1.4-1.1c-0.2,0-0.8,0.7-0.8,0.7c-0.1,0.1-0.1,0.1-0.3,0.1h-1.9v-0.6c0-0.2,0-0.3,0.2-0.3
	c0.2-0.1,0.4-0.2,0.4-0.3c0-0.1-0.1-0.1-0.2-0.2h4.9c0.3,0,0.4-0.1,0.4-0.2c0-0.3-0.7-1-1.4-1.3c0,0-0.1,0-0.1,0
	c-0.3,0-0.8,0.8-0.9,0.9c-0.1,0.1-0.2,0.1-0.3,0.1h-3.5c0.3-0.4,0.7-1,1-1.4c0.1-0.1,0.1-0.2,0.4-0.2c0.4,0,0.6-0.2,0.6-0.3
	c0-0.3-1.9-0.9-2.1-0.9c0,0,0,0,0,0.1c0,0,0,0,0,0c0,0.2,0,0.4,0,0.7c0,0.4-0.1,0.8-0.4,2h-2.9c-0.1,0-0.1-0.1-0.2-0.1
	c-0.1,0-0.2-0.1-0.3-0.1c0.3-0.4,0.5-0.7,0.7-1.1c0.1-0.2,0.2-0.3,0.5-0.3c0.4,0,0.6-0.1,0.6-0.3c0-0.3-1.7-1-1.9-1
	c-0.1,0,0,0.1-0.1,0.2c-0.3,1.9-2.4,5-3.9,6.3C27.6,183.8,27.5,183.9,27.5,183.9z M32.2,180.4h3.1c0,0.1,0.1,0.4,0.1,1.4h-3.5
	C31.8,180.6,31.8,180.6,32.2,180.4z M31.8,182.2h3.5c0,0.3,0,0.8,0,1.3h-3.6C31.8,183.1,31.8,182.6,31.8,182.2z M35.4,184
	c0,0.6,0,1.1,0,1.5h-3.5c0-0.4,0-1,0-1.5H35.4z M51.6,179.8c0,2-2.2,2.9-2.6,2.9c-0.1,0-0.3-0.2-0.3-0.4c0-0.1,0-0.1,0.1-0.1
	c1.2-0.3,1.6-1,1.6-1.4s-0.1-0.5-0.7-0.8c-0.4-0.2-0.6-0.5-0.6-0.8c0-0.5,0.5-1,1.1-1C51,178.1,51.6,178.8,51.6,179.8z M45.4,182.3
	c0-0.1,0-0.1,0.1-0.1c1.2-0.3,1.6-1,1.6-1.4c0-0.5-0.1-0.5-0.7-0.8c-0.4-0.2-0.6-0.5-0.6-0.8c0-0.5,0.4-1,1.1-1
	c0.8,0,1.4,0.8,1.4,1.7c0,2.1-2.3,2.9-2.6,2.9C45.5,182.7,45.4,182.4,45.4,182.3z M57.8,187.1c0-2,0.4-4,0.4-6
	c0-0.9-0.1-1.7-0.5-2.1c-0.2-0.2-0.2-0.3-0.2-0.4s0.1-0.1,0.2-0.1c0,0,1.9,0,1.9,1.9c0,0.2,0,0.4-0.1,0.6c-0.2,1.4-0.9,4.1-0.9,6.4
	c0,1,0.1,3.8,3.3,3.8c1.6,0,3.6-0.8,5.3-2.3c0.1-0.1,0.3-0.2,0.3-0.2c0,0,0,0,0,0c0,0.3-2.6,3.7-5.9,3.7
	C60.1,192.4,57.8,191.6,57.8,187.1z M73.5,192.5c-0.5-1-1.4-1.7-2.2-2.3c-0.2-0.1-0.4-0.3-0.4-0.3c0,0,0,0,0.1,0
	c0.7,0,3.9,0.7,3.9,2.3c0,0.5-0.4,0.9-0.8,0.9C74,193.1,73.7,192.9,73.5,192.5z M90.4,187.5C90.5,187.5,90.5,187.5,90.4,187.5
	c0.1,0.4-3.5,2.5-5.3,3.4c-0.1,0.1-0.2,0.3-0.3,0.3c-0.2,0-1.1-1.1-1.1-1.3c0-0.1,0-0.1,0.1-0.1c0.9,0,1.4-0.2,2.7-0.7
	c0-1.3,0-3.6,0-5.5c-0.6,0-1.2,0.1-1.9,0.2c0,0,0,0,0,0c-0.3,0-0.8-0.6-0.8-0.9c1.3,0.2,2,0.3,2.7,0.3c0-1,0-1.9,0-2.4
	c0-0.8,0-1.8-0.2-2.7c0,0,0-0.1,0-0.1c0,0,0-0.1,0.1-0.1c0,0,2.1,0.3,2.1,0.8c0,0.2-0.2,0.3-0.4,0.4c-0.3,0.1-0.4,0.2-0.4,4.1h0.5
	c0.1,0,0.1-0.1,0.2-0.2c0.1-0.1,0.5-0.9,0.8-0.9c0.4,0,1.3,1,1.3,1.3c0,0.1-0.1,0.2-0.3,0.2h-2.4c0,1.9,0,4,0,5.1
	c1-0.4,1.9-0.8,2.6-1.2C90.3,187.5,90.4,187.5,90.4,187.5z M90.8,190.5c0,1.9,1.8,2,4.2,2c1.8,0,5.1-0.1,5.1-1.2
	c0-0.2-0.1-0.4-0.4-0.6c-0.3-0.2-0.3-2.5-0.4-2.5c0,0,0,0.1-0.1,0.2c-0.3,1.5-0.5,2.8-1.7,3c-0.8,0.1-1.6,0.2-2.4,0.2
	c-3.1,0-3.3-0.3-3.3-1.3c0-0.1,0-0.3,0-0.6c0-1.1,0-3.3,0.1-5.1c0.7-0.4,1.4-0.7,1.8-0.9l0.3-0.2c0,2-0.1,4.2-0.1,5.8c0,0,0,0,0,0
	c0,0.4,0.2,0.6,0.5,0.6s0.7-0.2,0.7-0.7c0-0.5,0-1-0.1-1.7c0.4,0.3,0.9,0.6,1,1c0,0.1,0.1,0.1,0.2,0.1c0,0,0,0,0.1,0
	c2.1-0.3,2.1-2.2,2.2-6.2c0-0.3,0.1-0.3,0.3-0.5c0.3-0.2,0.4-0.4,0.4-0.5c0-0.4-1.4-0.8-1.5-0.8c-0.1,0-0.2,0-0.4,0.5
	c-0.1,0.1-0.1,0.3-0.2,0.3l-2,1c0-1.2,0-2.2,0.1-3c0.1-0.7,0.1-0.6,0.5-0.8c0.2-0.1,0.3-0.2,0.3-0.3c0-0.4-1.8-0.7-2-0.7
	c0,0,0,0,0,0s0,0.1,0,0.1c0.2,0.9,0.2,2.7,0.2,5.2l-0.5,0.3c-0.4,0.2-1,0.5-1.6,0.8c0-1.3,0.1-2.4,0.1-2.7c0-0.6,0.1-0.6,0.4-0.7
	c0.3-0.1,0.4-0.2,0.4-0.4c0-0.4-1.7-0.7-1.9-0.7c-0.1,0-0.1,0-0.1,0.1s0,0.1,0,0.1c0.1,0.7,0.1,1.8,0.1,2.4c0,0.5,0,1.4,0,2.3
	c-0.7,0.3-1.6,0.7-2.5,1c0,0.2,0.5,0.5,0.9,0.5c0.1,0,0.6-0.3,1.6-0.8C90.9,186.9,90.9,189.2,90.8,190.5
	C90.8,190.5,90.8,190.5,90.8,190.5z M97.1,181.7c0,0,0.1,0,0.1,0c0.1,0,0.2,0.1,0.2,0.2c0,0.4,0,0.9,0,1.4c0,3.7-0.6,3.9-1.3,3.9
	c-0.3,0-0.7-0.1-1.1-0.2c0-1.3,0-2.8,0-4.2L97.1,181.7z M114,178.2c-0.1-0.1-0.1-0.1-0.1-0.1c0,0,0.3-0.1,0.5-0.1
	c1.4,0,1.7,0.6,1.7,1c0,0.3-0.3,0.6-0.6,0.6c-0.2,0-0.4-0.1-0.5-0.4C114.7,178.9,114.4,178.6,114,178.2z M104.1,188.4
	c0-1.3,0-3.6,0-5.5c-0.5,0-1,0.1-1.6,0.2c0,0,0,0,0,0c-0.3,0-0.8-0.6-0.8-0.9c1.1,0.1,1.8,0.2,2.4,0.3c0-0.8,0-1.5,0-2
	c0-0.8,0-1.8-0.2-2.7c0,0,0-0.1,0-0.1c0,0,0-0.1,0.1-0.1c0,0,2.1,0.3,2.1,0.8c0,0.2-0.2,0.3-0.4,0.4c-0.3,0.1-0.4,0.3-0.4,3.7h0.3
	c0.1,0,0.1-0.1,0.2-0.2c0.1-0.2,0.5-0.9,0.7-0.9c0,0,0.1,0,0.1,0c0.6,0.3,1.2,1,1.2,1.3c0,0.1-0.1,0.2-0.3,0.2h-2.1c0,1.9,0,4,0,5.2
	c0.8-0.3,1.7-0.6,2.4-0.9c0.1,0,0.2-0.1,0.2-0.1c0.1,0,0.1,0,0.1,0c0,0.3-3,1.9-4.9,2.8c-0.1,0.1-0.2,0.2-0.3,0.2
	c-0.2,0-1-1.1-1-1.2c0,0,0-0.1,0.1-0.1C102.3,188.9,103.4,188.6,104.1,188.4z M116.3,179.8c0.2,0,1.4,0.8,1.4,1.3
	c0,0.1-0.1,0.2-0.4,0.2h-4.1c0.1,2.1,0.3,4.4,1,6.3c0.5-1,1-2.1,1.3-3.5c0.1-0.4,0.1-1,0.1-1.3c0-0.1,0-0.1,0-0.1s1.7,0.5,1.7,0.9
	c0,0.1-0.1,0.2-0.5,0.4c-0.3,0.1-0.3,0.1-0.4,0.4c-0.5,1.7-1.1,3.2-1.9,4.4c1,2.1,2,2.5,2.1,2.5c0.3,0,0.6-0.5,1.2-2.1
	c0.2-0.6,0.2-0.2,0.2-0.1c0,0.5-0.2,2-0.2,2.6c0,0.1,0,0.2,0,0.3c0.1,0.2,0.2,0.4,0.2,0.5c0,0.3-0.3,0.5-0.6,0.5
	c-0.4,0-2.2-0.6-3.5-3.3c-2.6,3.1-6.2,3.5-6.5,3.5c-0.1,0-0.2,0-0.2-0.1s0.1-0.1,0.4-0.2c2.1-0.6,4.3-1.8,5.9-4.2
	c-0.9-2.5-1.1-5.4-1.3-7.3h-0.4c-0.9,0-2.7,0-4.1,0.2h0c-0.3,0-0.8-0.7-0.8-0.9c1.7,0.2,4.1,0.3,5,0.3h0.3c-0.2-2.6-0.2-2.9-0.4-3.5
	c0-0.1,0-0.1,0-0.1c0,0,0,0,0.2,0c0.2,0,1.8,0.2,1.8,0.6c0,0.1-0.1,0.3-0.3,0.4c-0.3,0.2-0.3,0.1-0.3,0.8c0,0.3,0,0.6,0,0.9
	c0,0.3,0,0.6,0,1h1.9c0.1,0,0.2-0.1,0.3-0.2C115.7,180.2,116.1,179.8,116.3,179.8z M106.4,189.5c2.2,0,6.2-1.3,6.6-1.4
	c0.1,0,0.1,0,0.2,0c0.1,0,0.1,0,0.1,0.1c0,0.3-4.2,2-5.5,2.4c-0.1,0.1-0.2,0.2-0.4,0.2C107.2,190.8,106.4,189.8,106.4,189.5
	C106.4,189.5,106.4,189.5,106.4,189.5z M111.6,184c0.1-0.1,0.3-0.2,0.3-0.3c0-0.3-0.9-0.8-1.1-0.8c-0.2,0-0.4,0.3-0.4,0.4
	c-0.1,0.1-0.1,0.1-0.2,0.1h-0.9c-0.2-0.2-1.2-0.6-1.4-0.6c0,0,0,0,0,0c0,0,0,0,0,0.1c0.1,0.5,0.2,1.5,0.2,1.7c0,0.7,0,2.2-0.1,3.2
	c0,0,0,0,0,0c0,0.2,0.2,0.3,0.4,0.3c0.3,0,0.6-0.2,0.6-0.4v-0.8h1.5l0,0.4c0,0.2,0.2,0.3,0.4,0.3c0.3,0,0.6-0.2,0.6-0.4c0,0,0,0,0,0
	c0-0.8-0.1-1.9-0.1-2.5C111.2,184.2,111.2,184.2,111.6,184z M110.4,186.5h-1.5c0-0.4,0-0.7,0-1.1c0-0.4,0-0.7,0-1.1
	c0-0.4,0.1-0.4,0.2-0.5h1.1c0.1,0,0.2,0.1,0.2,0.2c0,0.4,0,0.8,0,1.2C110.4,185.6,110.4,186,110.4,186.5z M135.4,192.1h-9.1
	c-1,0-3.5,0-5.1,0.2h0c-0.3,0-0.8-0.7-0.8-0.9c1.9,0.2,5,0.3,6.1,0.3h1c0-1.2,0-2.5,0-3.4H127c-0.9,0-2.2,0-3.7,0.2h0
	c-0.3,0-0.8-0.7-0.8-0.9c1.7,0.2,3.7,0.3,4.6,0.3h0.3v-0.8c0-0.8,0-1.5-0.1-2.1c-1,0-2.2,0.1-3.2,0.2h0c-0.3,0-0.9-0.7-0.9-0.9
	c1.8,0.2,4.3,0.3,5.4,0.3h1.5c0.1,0,0.2-0.1,0.3-0.1c0.1-0.2,0.7-1,0.9-1c0.1,0,0.1,0,0.1,0c0.6,0.2,1.5,1.1,1.5,1.4
	c0,0.1-0.1,0.2-0.3,0.2h-3.5l0.1,0c0.2,0.1,0.2,0.1,0.2,0.2c0,0.1-0.1,0.2-0.3,0.3c-0.4,0.2-0.4,0.2-0.4,2.4h2.3
	c0.1,0,0.2-0.1,0.3-0.2c0.2-0.3,0.6-0.9,0.8-1c0.1-0.1,0.1-0.1,0.2-0.1c0.4,0,1.6,1.2,1.6,1.5c0,0.1-0.1,0.2-0.4,0.2h-4.8
	c0,1,0,2.2,0,3.4h4.2c0.1,0,0.3-0.1,0.3-0.2c0.2-0.3,0.8-1.2,1.1-1.2c0.3,0,1.7,1.2,1.7,1.6C135.8,192,135.7,192.1,135.4,192.1z
	 M136.6,183.9c0.1,0,0.2,0,0.2,0.1c0,0.1-1.5,0.5-2,1c-0.1,0.1-0.1,0.1-0.2,0.1c-0.5,0-4.1-2.3-6.5-6.4l-0.1,0.1
	c-3.4,5.2-8,7.3-8.5,7.3c0,0-0.1,0-0.1,0c0-0.1,0.1-0.1,0.3-0.3c2.4-1.5,5.1-4.2,7-7.5c0.2-0.4,0.3-0.9,0.4-1.2c0-0.1,0-0.1,0-0.1
	c0.1,0,2,0.8,2,1.1c0,0.1-0.2,0.3-0.6,0.3c-0.1,0-0.1,0-0.2,0C129.8,180.3,133.3,183.4,136.6,183.9z M147.4,189
	c-0.6,0-1.4,0-2.3,0.2h0c-0.2,0-0.7-0.7-0.7-0.9c1.1,0.2,2.3,0.2,3.1,0.3c0-1.7,0.1-3.6,0.1-5.3c-1.2,2.8-3.3,5.3-5.6,6.6
	c0,0.8,0,1.6,0,2.3c0,0.4-0.4,0.8-0.8,0.8c-0.3,0-0.5-0.2-0.5-0.6c0,0,0-0.1,0-0.1c0.2-2.5,0.3-6.1,0.3-8.4c0-0.2,0-0.3,0-0.5v-0.9
	c-1.9,2.4-3.5,3.3-3.6,3.3c0,0,0,0,0,0c0-0.1,0.1-0.1,0.2-0.3c1.4-1.4,3.4-4,4.6-6.5c0.2-0.4,0.3-1,0.4-1.3c0-0.1,0-0.1,0.1-0.1
	c0,0,1.7,0.8,1.7,1.2c0,0.1-0.2,0.3-0.6,0.3c-0.3,0.1-0.3,0.1-0.5,0.4c-0.4,0.6-0.8,1.2-1.2,1.7c0.2,0,0.4,0.1,0.4,0.1
	c0.3,0.1,0.3,0.2,0.3,0.3c0,0.1-0.1,0.2-0.4,0.3c-0.4,0.2-0.4,0.2-0.4,0.8c0,1.5-0.1,3.5-0.1,5.6c0,0.5,0,0.9,0,1.3
	c1.7-1.5,3.7-4.3,4.9-7.4c-0.9,0-2,0.1-3.1,0.2h0c-0.3,0-0.8-0.7-0.8-0.9c1.6,0.2,3.4,0.3,4.6,0.3c0-1.4,0-3.5-0.2-4.3
	c0-0.1,0-0.1,0-0.1c0,0,0,0,0,0c0.2,0,2,0.3,2,0.7c0,0.1-0.1,0.2-0.3,0.3c-0.4,0.2-0.4,0.1-0.5,0.8c0,0.5-0.1,1.5-0.1,2.6h2.5
	c0.1,0,0.2-0.1,0.3-0.2c0.1-0.2,0.7-1.1,1-1.1c0,0,0.1,0,0.1,0c0.6,0.2,1.6,1.2,1.6,1.5c0,0.1-0.1,0.2-0.4,0.2h-4.9
	c1.1,2.4,3.3,5.3,6.1,6.4c0.1,0,0.1,0.1,0.1,0.1c0,0.2-1.5,0.2-2,0.6c-0.1,0.1-0.1,0.1-0.2,0.1c-0.3,0-3-3.1-4.2-7
	c0,0.4,0,0.7,0,1.1c0,1.6,0,3.4,0,5h0.3c0.1,0,0.2-0.1,0.2-0.1c0.5-0.7,0.6-0.9,0.8-0.9c0.5,0,1.3,1,1.3,1.3c0,0.1-0.1,0.2-0.4,0.2
	h-2.3c0,1.5,0.1,2.7,0.1,3.4c0,0.5-0.4,0.7-0.7,0.7c-0.3,0-0.5-0.2-0.5-0.6c0,0,0,0,0,0C147.4,191.7,147.4,190.5,147.4,189z
	 M170.8,183.3c0-0.8-1.2-1.6-2.2-1.6c-1.8,0-3.2,1.9-4,3.8c-0.2-1.1-0.9-1.9-1.8-1.9c-0.3,0-0.7,0.1-1.1,0.3
	c0.4-0.7,0.8-1.4,1.5-2.8l0.1-0.1c1.2-0.4,2.2-1,2.2-1.7c0-0.3-0.1-0.5-0.4-0.5c-0.1,0-0.1,0-0.2,0.1c-0.1,0-0.3,0.1-0.5,0.1
	c-0.1,0-0.3,0-0.4,0c-0.1,0-0.2,0-0.2,0c-0.1-0.9-0.9-0.9-1-0.9c-0.3,0-0.8,0.2-0.8,0.4c0,0.1,0.1,0.1,0.3,0.2
	c0.5,0.1,0.7,0.5,0.7,1.1c0,0.2,0,0.3-0.1,0.6c-0.8,0.3-1.5,0.3-1.6,0.3c-0.5,0-1-0.1-1.6-0.5c-0.2-0.1-0.4-0.2-0.4-0.2
	c0,0-0.1,0-0.1,0.1c0,0.3,0.4,1.6,2.2,1.6c0.3,0,0.6,0,1-0.1l0.1,0c0,0.1-0.1,0.1-0.1,0.2c-0.8,1.8-1.4,2.8-3,4.3
	c-0.5,0.5-0.7,1-0.7,1.3c0,0.5,0.3,0.6,0.5,0.6c0.5,0,1-0.9,1.3-1.4c0.1-0.3,0.3-0.5,0.4-0.8c0.7-1,1.3-1.4,1.8-1.4
	c1.1,0,1.2,1.8,1.2,2.7c-1.7,1-2.8,2.2-2.8,3.4c0,1.2,1.4,2.5,3.5,2.5c1.4,0,2.8-0.5,2.8-1.2c0-0.3-0.3-0.5-0.6-0.5
	c-0.2,0-0.3,0-0.5,0.1c-0.6,0.3-1.4,0.5-2.1,0.5c-1.7,0-2.3-1-2.3-1.6c0-0.8,0.6-1.7,2.2-2.6l0,0.3c0,0.7-0.2,0.8-0.3,1.2
	c0,0.1,0,0.2,0,0.2c0,0.5,0.2,0.7,0.4,0.7c0.3,0,0.8-0.5,0.8-1.1c0-0.3,0-0.6,0-0.8c0-0.4,0-0.7-0.1-1.1c1.2-0.6,2.8-1.2,4-1.7
	C170,184.7,170.8,184,170.8,183.3z M163.7,179.3c0-0.1,0-0.1,0-0.1c0,0,0.1,0,0.2,0.1c0,0,0.4,0.1,0.4,0.3c0,0.2-0.3,0.4-0.7,0.6
	C163.6,179.7,163.7,179.5,163.7,179.3z M164.7,186.4L164.7,186.4c0.5-1.4,2-4.1,3.7-4.1c1,0,1.1,0.9,1.1,1c0,0.5-0.5,0.9-1.3,1.3
	C167.2,185.1,165.8,185.8,164.7,186.4z M183.2,178.4c0,0.1,0,0.1-0.1,0.1c-1.2,0.3-1.6,1-1.6,1.4c0,0.5,0.1,0.5,0.7,0.8
	c0.4,0.2,0.6,0.5,0.6,0.8c0,0.7-0.6,1-1.1,1c-0.8,0-1.4-0.7-1.4-1.7c0-2.1,2.3-2.9,2.6-2.9C183.1,178,183.2,178.2,183.2,178.4z
	 M179.9,178.4c0,0.1,0,0.1-0.1,0.1c-1.2,0.3-1.6,1-1.6,1.4c0,0.5,0.1,0.5,0.7,0.8c0.4,0.2,0.6,0.5,0.6,0.8c0,0.5-0.5,1-1.1,1
	c-0.9,0-1.4-0.8-1.4-1.7c0-2,2.2-2.9,2.6-2.9C179.8,178,179.9,178.2,179.9,178.4z M201,185.2c0,0.1-0.1,0.3-0.4,0.3h-8.4
	c-1,0-4.5,0-6.2,0.2h0c-0.3,0-0.9-0.8-0.9-1.1c1.9,0.2,6.1,0.3,7.2,0.3h5.4c0.1,0,0.2-0.1,0.3-0.2c0.9-1.3,1.1-1.3,1.2-1.3
	c0.1,0,0.1,0,0.1,0C199.8,183.7,201,184.9,201,185.2z M218.3,185.2c0,2.6-3.1,5.7-9.6,5.7c-0.6,0-0.9,0-0.9-0.1
	c0-0.1,0.4-0.2,0.8-0.2c6.3-1,8.6-3.7,8.6-5.7c0-1.3-1.1-2.8-3.3-2.8c-1.7,0-3.7,0.9-5.5,2.6c-0.8,0.7-1.5,1.1-2.2,1.1
	c-1.1,0-1.5-0.9-1.5-0.9c0-0.1,0.1-0.1,0.4-0.2c1-0.1,2.3-0.8,3.5-1.6c1.6-1,3.4-1.8,5.2-1.8C216.3,181.4,218.3,183.2,218.3,185.2z
	 M230.7,179.5c-4.9,0-7.3,4.3-7.3,7.1c0,0.7,0.1,1.2,0.4,1.6c0.7,1.1,1.1,2.3,1.9,2.3c1.5,0,4.7-4,4.7-8c0-1.2-0.3-2.1-0.7-2.4
	c0.2,0,0.4,0,0.6,0c3.4,0,5.3,2.4,5.3,5.1c0,2.2-1.3,5.4-6,6.6c-0.5,0.1-0.8,0.3-0.8,0.4c0,0,0.1,0.1,0.3,0.1c1.5,0,7.7-1.5,7.7-7
	C236.9,182.3,234.8,179.5,230.7,179.5z M229.9,181.9c0,3.3-2.7,7.1-3.9,7.1c-0.9,0-1.7-1.2-1.7-2.8c0-2.4,1.7-5.1,4.5-5.8
	c0,0,0.1,0,0.1,0c0.1,0,0.1,0,0.2,0C229.6,180.3,229.9,180.6,229.9,181.9z M254.3,188.3c0,0.4-0.3,0.8-0.7,0.8
	c-0.2,0-0.4-0.1-0.6-0.5c-0.6-1-1.7-2.2-2.8-2.8c-0.2-0.1-0.3-0.2-0.3-0.3c0,0,0,0,0.1,0C250.6,185.5,254.3,186.9,254.3,188.3z
	 M245.2,186.1c0,1.9-2.1,3.5-2.9,3.5c-0.4,0-0.7-0.3-0.7-0.6c0-0.3,0.2-0.5,0.6-0.8c1.5-0.7,2.3-1.4,2.7-2.5
	c0.1-0.2,0.1-0.3,0.2-0.3C245.1,185.6,245.2,185.6,245.2,186.1z M248.5,183.7c0,0.6,0,1.2,0,1.9c0,0.6,0,1.3,0,1.8
	c0,0.9,0.2,1.4,0.2,2c0,1.1-0.4,1.8-0.8,1.8c-0.3,0-0.5-0.3-0.6-0.8c-0.1-0.7-0.7-1.7-1.4-2.6c-0.1-0.1-0.1-0.1-0.1-0.2
	s0-0.1,0.1-0.1c0.1,0,0.1,0,0.2,0.1c0.4,0.2,1,0.8,1.4,1c0.1,0,0.1,0.1,0.2,0.1c0.1,0,0.1-0.1,0.1-0.2c0-0.4,0-1,0-4.7
	c-0.5,0.1-1,0.2-1.5,0.3c-0.8,0.2-1.1,0.3-1.5,0.3c-0.8,0-2.3-0.5-2.3-1.2c0-0.3,0.1-0.3,0.2-0.3c0.1,0,0.2,0.1,0.4,0.1
	c0.7,0.3,1.3,0.4,2.1,0.4c0.3,0,0.4,0,2.7-0.3v-1.2c0,0,0-0.1,0-0.1c0-1-0.3-1.5-1.1-1.5c-0.1,0-0.1,0-0.2,0h0
	c-0.1,0-0.3-0.1-0.3-0.2s0.1-0.5,0.7-0.5c0.5,0,2,0.5,2,1.2c0,0.3-0.2,0.6-0.2,1.1c0,0.3-0.1,0.7-0.1,1.1c0.5-0.1,1-0.1,1.4-0.2
	c0.9-0.1,0.9-0.5,1.6-0.5c1,0,2.1,0.5,2.1,0.9c0,0.2-0.2,0.4-0.7,0.4c-0.1,0-0.2,0-0.3,0c-0.6-0.1-1.3-0.2-2-0.2
	c-0.6,0-1.1,0-1.7,0.1L248.5,183.7z M262.6,179.7c0.3,0.2,0.8,0.3,1.4,0.3c1,0,2.3-0.3,3.1-0.5c0.5-0.1,0.7-0.3,1.2-0.3
	c0.6,0,1.4,0.3,1.4,0.7c0,0.2-0.3,0.4-0.8,0.4c-1.4,0-3.2,0.4-4.3,0.6c-0.2,0-0.4,0-0.6,0c-1.5,0-1.7-1-1.7-1.1
	c0-0.1,0.1-0.2,0.2-0.2C262.5,179.6,262.6,179.6,262.6,179.7z M272.2,183.2c0,0.3-0.3,0.5-0.6,0.5c-0.1,0-0.2,0-0.3,0
	c-0.8-0.2-1.6-0.3-2.5-0.3c-0.2,0-0.5,0-2,0.1l0.2,0.1c0.3,0.1,0.6,0.3,0.6,0.9c0,0.1,0,0.3,0,0.5c-1.1,6-7.1,7.8-7.6,7.8
	c0,0-0.1,0-0.1,0c0,0,0.2-0.2,0.5-0.3c3.1-1.5,6-5.1,6-7.6c0-0.5-0.1-0.8-0.4-0.8c0,0-0.1,0-0.1,0c-0.1,0-0.1,0-0.1,0
	c-0.1,0-0.2-0.1-0.2-0.2c0,0,0-0.1,0-0.1c-0.9,0.1-1.7,0.4-2.2,0.6c-0.4,0.2-0.7,0.3-1,0.3c-0.8,0-2.3-0.5-2.3-1.3
	c0-0.2,0.1-0.2,0.2-0.2s0.2,0.1,0.4,0.1c0.4,0.2,1.2,0.3,1.8,0.3c0.2,0,0.3,0,0.5,0c1.7-0.3,3.8-0.7,6-0.9c0.6-0.1,0.9-0.4,1.4-0.4
	C270.6,182.2,272.2,182.6,272.2,183.2z M282,183.7c0,0.3-0.1,0.6-0.2,0.8c-1.5,4.4-5.7,6.7-6.5,6.7c-0.1,0-0.1,0-0.1,0
	c0-0.1,0.1-0.2,0.3-0.3c2.3-1.2,5.2-5.3,5.2-7.1c0-1-0.8-1.1-1.1-1.1c-0.2,0-0.3-0.1-0.3-0.2c0-0.1,0.2-0.5,0.8-0.5
	C280.8,182,282,182.7,282,183.7z M291.3,181.8C291.4,181.8,291.4,181.8,291.3,181.8c0,0.6-2.3,4.7-6,7.2c-0.3,0.2-0.6,0.7-1,0.7
	c-0.6,0-1.2-1.2-1.2-1.4c0-0.2,0.1-0.4,0.2-0.9c0.2-1.5,0.3-2.7,0.3-3.5c0-1.5-0.3-2.1-0.8-2.2c-0.3-0.1-0.4-0.2-0.4-0.3
	c0-0.1,0.4-0.3,0.8-0.3c0.8,0,1.6,1,1.6,1.8c0,0.1,0,0.3-0.1,0.5c-0.3,0.8-0.5,4.2-0.5,4.5c0,0.2,0.2,0.2,0.2,0.2
	c0.3,0,4.1-2.3,6.5-5.7C291.1,182,291.3,181.8,291.3,181.8z M299.6,179.8c0,2-2.2,2.9-2.6,2.9c-0.1,0-0.3-0.2-0.3-0.4
	c0-0.1,0-0.1,0.1-0.1c1.2-0.3,1.6-1,1.6-1.4s-0.1-0.5-0.7-0.8c-0.4-0.2-0.6-0.5-0.6-0.8c0-0.5,0.5-1,1.1-1
	C299,178.1,299.6,178.8,299.6,179.8z M296.3,179.8c0,2.1-2.3,2.9-2.6,2.9c-0.2,0-0.3-0.2-0.3-0.4c0-0.1,0-0.1,0.1-0.1
	c1.2-0.3,1.6-1,1.6-1.4c0-0.5-0.1-0.5-0.7-0.8c-0.4-0.2-0.6-0.5-0.6-0.8c0-0.5,0.4-1,1.1-1C295.7,178.1,296.3,178.8,296.3,179.8z
	 M311.3,181.3c0.1,0,0.2,0.1,0.3,0.1c0.5,0.3,1.2,0.4,1.8,0.4c0.5,0,1-0.1,1.5-0.2c0.3-0.1,0.4-0.2,0.7-0.2c0.1,0,0.3,0,0.4,0
	c0.5,0,0.8,0.3,0.8,0.5c0,0.8-2.2,1-2.8,1C311.5,183,311.3,181.5,311.3,181.3C311.3,181.4,311.3,181.3,311.3,181.3z M309,184.9
	C309,184.9,309,185,309,184.9c0.1,0.1,0,0.3,0,0.4c-0.5,1.3-1.3,3.5-1.3,4.8c0,0.4,0.1,0.7,0.1,1c0,0.1,0,0.2,0,0.3
	c0,0.4-0.2,0.6-0.5,0.6c-1.1,0-1.4-2.7-1.4-3.7c0-2,0.7-3.7,1-5.2c0.1-0.4,0.1-0.9,0.1-1.2c0-1-0.2-1.6-0.4-1.9
	c-0.1-0.1-0.2-0.3-0.2-0.3c0-0.1,0.1-0.1,0.4-0.1c0.6,0,1.4,0.9,1.4,2.1c0,0.6-0.2,1.1-0.5,1.9c-0.5,1.2-1,2.6-1,3.8
	c0,0.7,0.2,1.2,0.3,1.2c0.1,0,0.1-0.1,0.2-0.3C307.7,187.2,308.7,184.9,309,184.9z M317.8,190.2c0,0.8-1.8,1.1-2.8,1.1
	c-3.4,0-4-1.9-4-2.3c0-0.1,0-0.2,0.1-0.2c0.1,0,0.2,0.1,0.4,0.3c0.4,0.5,1.6,0.9,3,0.9c0.3,0,0.7,0,1-0.1c0.4-0.1,0.7-0.3,1.3-0.3
	c0,0,0.1,0,0.1,0C317.5,189.6,317.8,189.9,317.8,190.2z M8.2,218.9c0,0.1-0.1,0.2-0.3,0.3c-0.2,0.1-0.3,0.1-0.4,0.5
	c-1,3.6-3.9,4.7-6.8,5.1c-0.2,0-0.4,0-0.5,0c-0.1,0-0.2,0-0.2-0.1s0.2-0.1,0.5-0.2c5.3-1.2,5.9-4.6,6.1-6.2c0-0.1,0-0.1,0-0.1
	C6.8,218.2,8.2,218.6,8.2,218.9z M16.3,222.4c-0.3-0.2-0.4-2.5-0.5-2.5c0,0,0,0,0,0.1c-0.3,1.4-0.5,2.9-1.4,3
	c-0.6,0.1-1.3,0.1-1.8,0.1c-2.2,0-2.3-0.3-2.3-1.5c0-1.1,0.1-1.9,0.1-2.4c0-0.7,0-0.7,0.2-0.8c0.1-0.1,0.3-0.2,0.3-0.3
	c0-0.1-0.1-0.1-0.2-0.2c0,0-0.1,0-0.1,0h1.4v0.7c0,0.3,0.2,0.5,0.5,0.5c0.3,0,0.7-0.3,0.7-0.7c0,0,0,0,0,0c-0.1-1.1-0.1-4.7-0.1-6.6
	c0-0.3,0-0.5,0-0.7c0-0.4,0.1-0.6,0.3-0.7c0.2-0.1,0.4-0.2,0.4-0.4c0-0.4-1.3-1-1.4-1c-0.1,0-0.1,0-0.2,0.1
	c-0.1,0.1-0.3,0.3-0.4,0.4c-0.1,0.1-0.1,0.1-0.2,0.1H5.8c-0.4-0.3-1.5-0.8-1.7-0.8c0,0,0,0,0,0c0,0,0,0.1,0,0.1
	c0.1,0.7,0.2,2,0.2,2.2c0,0.5,0,1.1,0,1.8c0,1.9,0,4.1-0.2,5.6c0,0,0,0.1,0,0.1c0,0.3,0.2,0.5,0.5,0.5c0,0,0.7-0.1,0.7-0.6l0-0.6
	h3.8c0,0.4,0,0.5,0,1.5c0,0.3,0,0.7-0.1,2.8c0,0,0,0,0,0.1c0,1.8,1.9,1.9,3.3,1.9c0.7,0,1.5,0,2.1-0.1c1.4-0.1,2.1-0.7,2.1-1.2
	C16.6,222.7,16.5,222.5,16.3,222.4z M5.7,210.1c0.1,0,0.1-0.1,0.1-0.1h5.8c0.1,0,0.2,0.1,0.2,0.2c0,0.4,0,1.1,0,2H5.3
	C5.3,210.6,5.3,210.4,5.7,210.1z M5.3,212.6h6.5v2.1H5.3V212.6z M5.4,217.5c0-0.7,0-1.5,0-2.3h6.5c0,0.8,0,1.6,0,2.3H5.4z M26,219.8
	c0,0.6-0.4,1.1-0.8,1.1c-0.3,0-0.7-0.3-0.8-1.1c-0.3-1.7-1.1-3.7-2.1-5.1c0-0.1-0.1-0.1-0.1-0.1c0,0,0-0.1,0.1-0.1
	C22.9,214.5,26,218,26,219.8z M34.8,222.8c0,0.1-0.1,0.2-0.4,0.2H25c-1,0-3.8,0-5.4,0.2h0c-0.3,0-0.8-0.7-0.8-0.9
	c1.9,0.2,5.3,0.3,6.3,0.3H27c0.9-2.3,2.4-7.1,2.4-8.7c0-0.2,0-0.2,0-0.2c0.1,0,2.1,0.5,2.1,1c0,0.2-0.2,0.3-0.6,0.3
	c-0.3,0-0.3,0.1-0.4,0.3c-0.7,1.9-2.4,5.7-3.3,7.3h4.2c0.1,0,0.3-0.1,0.3-0.2c0.2-0.3,0.8-1.2,1.1-1.2
	C33.3,221.2,34.8,222.4,34.8,222.8z M27.5,210.8c0,0.3-0.1,1.3-0.1,1.8h3.1c0.1,0,0.3-0.1,0.3-0.2c0.2-0.3,0.8-1.2,1-1.2
	c0,0,0.1,0,0.1,0c0.5,0.2,1.6,1.2,1.6,1.5c0,0.1-0.1,0.2-0.4,0.2h-7.4c-1,0-3.4,0-5,0.2h0c-0.3,0-0.8-0.7-0.8-0.9
	c1.9,0.2,4.9,0.3,5.9,0.3h0.4v-1.1c0-0.9,0-1.9-0.2-2.5c0-0.1,0-0.1,0-0.1c0,0,0,0,0,0s2.2,0.2,2.2,0.7c0,0.1-0.1,0.2-0.3,0.3
	C27.6,210.2,27.6,210,27.5,210.8z M51.2,211.8c0,0.3-0.3,0.6-0.9,0.6c-0.1,0-0.3,0-0.4,0c-0.3-0.1-0.6-0.1-1-0.1
	c-1,0-2.1,0.2-2.6,0.5c-1.3,0.7-2.2,3.5-2.2,5.8c0,3.7,2.3,3.8,2.9,3.8c0.3,0,0.7-0.1,1.1-0.2c0.2-0.1,0.3-0.1,0.5-0.1
	c0.5,0,0.8,0.3,0.8,0.6c0,0.7-1.5,1-2.2,1c-0.8,0-3.8-0.3-3.8-4.6c0-2.2,0.8-4.8,1.7-5.8c0.1-0.1,0.2-0.2,0.2-0.3c0,0,0,0,0,0
	c-0.2,0-2.2,0.9-4,1.8c-0.4,0.2-0.8,0.3-1.2,0.3c-0.8,0-1.5-0.3-1.5-1c0-0.1,0-0.2,0.1-0.2c0.1,0,0.3,0.1,0.4,0.1
	c0.3,0,0.6,0.1,0.9,0.1s0.7-0.1,1-0.2c0.8-0.3,4-2,6.7-2.7c0.4-0.1,0.7-0.3,1.5-0.4c0,0,0.1,0,0.1,0C51,211,51.2,211.5,51.2,211.8z
	 M69.8,214.3c0,0.2-0.2,0.4-0.5,0.4c-1,0.2-1.5,0.4-2.6,1.3c-0.1,0.1-0.2,0.1-0.2,0.1c-0.1,0-0.1,0-0.1-0.1c0-0.1,0-0.1,0.1-0.2
	c0.4-0.5,0.6-0.6,0.9-1.1c0.1-0.1,0.3-0.3,0.3-0.6c0-0.5-1.1-0.7-1.5-0.7c-0.1,0-0.1,0-0.2,0c-0.2,0-0.3,0.1-0.4,0.1
	c-0.1,0-0.1,0-0.1-0.1c0-0.1,0.6-0.6,1.5-0.6C68.6,213,69.8,213.9,69.8,214.3z M69.2,222.7c0,0.1,0,0.7-1.7,0.7
	c-2.2,0-4.2-1.1-4.2-2.4c0-0.5,0.4-1.1,0.6-1.1c0.1,0,0.1,0.1,0.1,0.1c0,0.1,0,0.2-0.1,0.3c-0.1,0.1-0.1,0.2-0.1,0.3
	c0,0.8,1.3,1.5,3,1.5c0.3,0,0.6-0.1,1.2-0.1c0,0,0,0,0,0C68.8,222.1,69.2,222.4,69.2,222.7z M63.6,211.9c0-0.3-0.2-0.5-0.5-0.5
	c-0.3,0-0.5-0.1-1.2-0.3c-0.1-1.1-0.8-1.4-1.2-1.4c-0.5,0-0.8,0.4-0.8,0.5c0,0.1,0.3,0.2,0.5,0.2c0.4,0.1,0.5,0.6,0.5,1.2
	c0,0.4,0,0.8-0.1,1.1c-0.8,0.2-1.4,0.2-1.4,0.2c-0.8,0-1.6-0.4-2-0.6c-0.1-0.1-0.3-0.2-0.4-0.2c0,0-0.1,0-0.1,0.1
	c0,0.3,0.4,1.6,2.4,1.6c0.5,0,0.9-0.1,1.2-0.2c-0.2,0.8-2.3,6.7-3,7.8c-0.3,0.4-0.4,0.8-0.4,1.1c0,0.5,0.3,0.8,0.5,0.8
	c0.4,0,0.9-0.6,1.1-1.5c0.6-2.7,1.5-5.5,2.5-8.2c0-0.1,0.1-0.2,0.1-0.3C62.1,213.3,63.6,212.7,63.6,211.9z M61.8,212.4
	c0.1-0.4,0.2-0.8,0.2-1.1c0.4,0.2,0.6,0.3,0.6,0.5C62.5,211.9,62.3,212.2,61.8,212.4z M87.9,213.1c0,0-0.1,0-0.1,0c-0.3,0-1,1-1,1.1
	c-0.1,0.1-0.2,0.2-0.3,0.2h-1.2c0-1.1,0-2.1,0.1-3.2c0-0.7,0.1-0.6,0.5-0.8c0.2-0.1,0.3-0.2,0.3-0.3c0-0.4-1.9-0.6-2.1-0.6
	c0,0,0,0,0,0c0,0,0,0.1,0,0.1c0.2,0.9,0.2,3,0.2,4.9h-2.9c0-1.1,0-2.2,0.1-3.3c0-0.7,0.1-0.6,0.5-0.8c0.2-0.1,0.3-0.2,0.3-0.3
	c0-0.4-1.9-0.6-2.1-0.6c0,0,0,0,0,0c0,0,0,0.1,0,0.1c0.2,0.8,0.2,2.5,0.2,5h-1.7c-0.3,0-0.7,0-1.2,0c0-1,0-1.8,0.1-2.6
	c0-0.8,0.1-0.6,0.5-0.9c0.2-0.1,0.3-0.2,0.3-0.4c0-0.4-2-0.7-2.1-0.7c0,0,0,0,0,0c0,0,0,0.1,0,0.1c0.1,0.2,0.2,1.1,0.2,4.4
	c-1.2,0-2.6-0.1-3.7-0.3c0,0.2,0.5,0.9,0.8,0.9h0c0.8-0.1,1.9-0.1,2.8-0.2c0,2.7-0.1,6.2-0.2,9.1c0,0,0,0,0,0c0,0.4,0.3,0.6,0.5,0.6
	c0.4,0,0.8-0.3,0.8-0.7v0l0-0.6h10.5c0.3,0,0.4-0.1,0.4-0.2c0-0.3-1.1-1.3-1.6-1.5c0,0-0.1,0-0.1,0c-0.3,0-0.9,0.9-1,1.2
	c-0.1,0.1-0.2,0.2-0.3,0.2h-7.8c0-2.1-0.1-4.2-0.1-6.1c0-0.6,0-1.3,0-1.9c0.5,0,0.9,0,1.2,0h1.8c0,1.9-0.1,3.8-0.1,5.4c0,0,0,0,0,0
	c0,0.4,0.2,0.6,0.5,0.6c0.3,0,0.7-0.3,0.7-0.7l0-0.7h2.8l0,0.7v0c0,0.4,0.2,0.6,0.5,0.6c0.6,0,0.7-0.6,0.7-0.7
	c-0.1-2-0.1-3.6-0.1-5.2h3.9c0.3,0,0.4-0.1,0.4-0.2C89.5,214.4,88.5,213.3,87.9,213.1z M84.1,218.9h-2.8c0-1.5,0-2.8,0-4.1h2.9
	C84.2,216.2,84.2,217.6,84.1,218.9z M99.8,215.6c0.1-0.1,0.1-0.1,0.1-0.2c0-0.1-0.1-0.1-0.4-0.3h3.6v0.5c0,0.3,0.2,0.5,0.5,0.5
	c0.3,0,0.7-0.3,0.7-0.7c0,0,0,0,0,0c-0.1-1-0.1-2.3-0.1-3.6c0-0.3,0-0.5,0-0.7c0-0.4,0.1-0.6,0.3-0.7c0.2-0.1,0.4-0.2,0.4-0.4
	c0-0.4-1.3-1-1.4-1c-0.1,0-0.1,0-0.2,0.1c-0.1,0.1-0.3,0.3-0.4,0.4c-0.1,0.1-0.1,0.1-0.2,0.1h-7.3c-0.3-0.2-1.5-0.8-1.7-0.8
	c0,0,0,0,0,0c0,0,0,0.1,0,0.1c0.1,0.7,0.2,2,0.2,2.2c0,1.3,0,2.9-0.1,4.5c0,0,0,0,0,0.1c0,0.4,0.2,0.5,0.5,0.5
	c0.3,0,0.7-0.2,0.7-0.6v-0.4h3.1c-0.3,1-3.5,4.2-6.9,5.6c-0.2,0.1-0.3,0.1-0.3,0.2c0,0,0,0,0.1,0c0.2,0,2.7-0.5,5.7-2.7
	c0,0.3,0.1,0.5,0.1,0.7c0,0.1,0,0.2,0,0.3c0,2.1-1.4,4.4-5.5,5.3c-0.3,0.1-0.5,0.1-0.5,0.2s0.1,0.1,0.3,0.1c0.2,0,6.9-0.2,6.9-5.7
	c0-0.7,0-0.6,0.3-0.8c0.2-0.1,0.3-0.3,0.3-0.3s0-0.3-0.9-0.4c0.5-0.4,1-0.9,1.4-1.4c0.1-0.2,0.2-0.2,0.3-0.3c0.1,0,0.1-0.1,0.3-0.1
	c0.5,0.7,1,1.3,1.7,1.9c0,0-0.8-0.1-1-0.1c0,0,0,0,0,0c0,0,0,0.1,0,0.1c0.2,0.7,0.2,2.3,0.2,3c0,1,0,2.1-0.1,3.3c0,0,0,0,0,0
	c0,0.4,0.3,0.6,0.5,0.6c0.4,0,0.7-0.3,0.7-0.6c-0.1-1.3-0.1-2.5-0.1-3.5c0-0.6,0-1,0-1.5c0-0.6,0.1-0.5,0.4-0.6
	c2,1.5,3.6,1.9,3.8,1.9c0.1,0,0.1,0,0.2-0.1c0.4-0.5,1.9-0.9,1.9-1.1c0,0-0.1-0.1-0.2-0.1C104.2,218.7,101.4,217.1,99.8,215.6z
	 M98.4,213.2c0,0.5,0,0.9,0,1.5H95c0-0.8,0-1.6,0-2.2h3.5C98.4,212.8,98.4,213,98.4,213.2z M95,212c0-1.5,0-1.7,0.3-1.9
	c0.1,0,0.1-0.1,0.1-0.1h2.9c0.1,0.4,0.1,0.8,0.1,2H95z M99.4,210.7c0-0.2,0-0.3,0.1-0.3c0.2-0.1,0.3-0.2,0.3-0.3
	c0-0.1,0-0.1-0.1-0.1h3.1c0.1,0,0.2,0.1,0.2,0.2c0,0.6,0,1.2,0,1.9h-3.7C99.4,211.6,99.4,211.2,99.4,210.7z M99.4,212.5h3.7
	c0,0.7,0,1.5,0,2.2h-3.7C99.4,213.7,99.4,213.1,99.4,212.5z M124.8,220.5c0,0,0,0,0,0.1c-0.4,2.5-0.5,2.6-1.8,2.6
	c-0.8,0-0.8,0-0.8-0.8c0-0.3,0-0.7,0-1.1c0-2.5,0-2.5,0.3-2.7c0.1-0.1,0.2-0.1,0.2-0.2c0,0,0,0,0-0.1h0.2v0.3c0,0.4,0.2,0.5,0.5,0.5
	c0.3,0,0.6-0.3,0.6-0.6c0,0,0,0,0,0c-0.1-1.4-0.1-4.6-0.1-6.4c0-1.3,0-1.4,0.4-1.6c0.2-0.1,0.4-0.2,0.4-0.4c0-0.3-1.1-1-1.4-1
	c-0.2,0-0.4,0.3-0.5,0.5c-0.1,0.1-0.1,0.1-0.2,0.1h-2.8l0,0c-0.4-0.3-1.4-0.7-1.6-0.7c0,0,0,0,0,0s0,0.1,0,0.1
	c0.2,1,0.2,2.2,0.2,3.2c0,1.6,0,4.7-0.1,6.5c0,0,0,0,0,0.1c0,0.3,0.2,0.5,0.4,0.5c0.3,0,0.7-0.2,0.7-0.6v-0.4h1.9
	c0.1,0.4,0.1,0.9,0.1,1c0,0.2,0,3,0,3.4c0,0,0,0.1,0,0.1c0,1.2,1.2,1.3,1.6,1.3c0.5,0,1.3-0.1,1.5-0.1c0.9-0.2,1.3-0.5,1.3-0.9
	c0-0.1-0.1-0.3-0.2-0.4C125,222.5,124.9,220.5,124.8,220.5z M119.3,210.8c0-0.5,0-0.4,0.2-0.5c0.1,0,0.1-0.1,0.2-0.1h3
	c0.1,0,0.2,0.1,0.2,0.2c0,0.4,0,1.1,0,2h-3.5C119.3,211.7,119.3,211.2,119.3,210.8z M119.3,212.9h3.5v2.1h-3.5V212.9z M119.3,217.9
	c0-0.7,0-1.6,0-2.4h3.5c0,0.9,0,1.7,0,2.4H119.3z M117.6,222.3c0-0.2-0.4-0.9-1.2-1.2c0,0,0,0-0.1,0c0,0-0.1,0-0.1,0.1
	c-0.2,0.2-0.4,0.5-0.6,0.8c-0.1,0.1-0.2,0.1-0.2,0.1l-1,0c0-0.6,0-1.2,0-1.8h2.3c0.3,0,0.3-0.1,0.3-0.2c0-0.3-0.6-0.8-1.1-1
	c0,0,0,0-0.1,0s-0.1,0-0.1,0.1c-0.1,0.1-0.3,0.3-0.5,0.6c-0.1,0.1-0.2,0.1-0.2,0.1h-0.6c0-0.5,0-1,0-1.5h2.3c0.3,0,0.3-0.1,0.3-0.2
	c0-0.3-0.6-0.8-1.1-1c0,0,0,0-0.1,0s-0.1,0-0.1,0.1c-0.1,0.1-0.3,0.3-0.5,0.6c-0.1,0.1-0.2,0.1-0.2,0.1h-0.6c0-0.3,0-0.6,0-0.8
	c0-0.2,0-0.3,0.1-0.3c0.2-0.1,0.3-0.2,0.3-0.3c0,0,0-0.1-0.1-0.1h2.5c0.2,0,0.3-0.1,0.3-0.2c0-0.3-0.7-0.9-1.2-1.2c0,0,0,0-0.1,0
	c-0.1,0-0.1,0-0.1,0.1c-0.2,0.2-0.4,0.5-0.6,0.8c-0.1,0.1-0.2,0.1-0.2,0.1H114c0.9-1.1,1-1.1,1.2-1.2c0.2-0.1,0.4-0.1,0.4-0.3
	c0-0.2-1.2-0.8-1.4-0.8c0,0-0.1,0-0.1,0.2c0,0.5-0.1,1-0.4,2h-1.5c0,0-0.1,0-0.1-0.1c-0.1,0-0.1,0-0.2-0.1c0.5-0.7,1-1.5,1.5-2.4
	h4.2c0.3,0,0.3-0.1,0.3-0.2c0-0.3-0.9-1.1-1.3-1.3c0,0-0.1,0-0.1,0c-0.2,0-0.6,0.8-0.7,0.9c-0.1,0.1-0.2,0.1-0.2,0.1h-2
	c0.2-0.4,0.4-0.8,0.5-1.3c0.2-0.4,0.2-0.3,0.4-0.4c0.1-0.1,0.2-0.1,0.2-0.2c0-0.1-0.1-0.1-0.2-0.2h2.5c0.2,0,0.3-0.1,0.3-0.2
	c0-0.2-0.6-1-1.2-1.2c0,0-0.1,0-0.1,0c-0.2,0-0.7,0.8-0.7,0.8c-0.1,0.1-0.2,0.1-0.2,0.1h-3.2c0.3-0.4,0.5-0.7,0.7-1
	c0.1-0.1,0.2-0.1,0.4-0.2c0.3,0,0.5-0.1,0.5-0.3c0-0.4-1.5-1-1.5-1c-0.1,0-0.1,0.1-0.1,0.1c0,0.8-1.2,3.4-1.8,4.1
	c-0.1,0.1-0.2,0.3-0.2,0.3c0,0,0,0,0,0c0,0,0.5-0.3,1.7-1.7h1.7c-0.1,0.3-0.2,1-0.7,2c-0.8,0-2.2-0.1-3.3-0.2c0,0.2,0.5,0.8,0.7,0.8
	h0c0.9-0.1,1.8-0.2,2.4-0.2c-1,2.2-2.4,4.1-3.5,5c-0.2,0.1-0.3,0.2-0.3,0.3c0,0,0,0,0,0c0.2,0,1.3-0.6,2.5-1.9v1.2
	c0,0.7-0.1,3.6-0.3,5.1c0,0.1,0,0.1,0,0.1c0,0.4,0.2,0.6,0.4,0.6c0.3,0,0.7-0.3,0.7-0.7v-0.6h5.4
	C117.5,222.5,117.6,222.5,117.6,222.3z M113.5,222.1h-1.7v-1.8h1.7C113.6,221,113.5,221.6,113.5,222.1z M113.6,219.9h-1.7v-1.5h1.8
	C113.6,218.7,113.6,219.3,113.6,219.9z M111.8,218c0-1.3,0.1-1.4,0.2-1.5c0.1,0,0.1-0.1,0.1-0.1h1.3c0.1,0.4,0.1,1.1,0.1,1.6H111.8z
	 M121,219.4c0,0.1-0.1,0.2-0.3,0.2c-0.2,0-0.2,0.1-0.4,0.6c-1.1,2.8-3.5,3.9-6.3,4.2c-0.2,0-0.3,0-0.4,0c-0.1,0-0.2,0-0.2,0
	s0.2-0.1,0.5-0.2c1.3-0.3,5.2-1.3,5.7-5.3c0-0.1,0-0.1,0.1-0.1C119.7,218.8,121,219.1,121,219.4z M139.7,213.3c-1.8,0-3.2,1.9-4,3.8
	c-0.2-1.1-0.9-1.9-1.8-1.9c-0.3,0-0.7,0.1-1.1,0.3c0.4-0.7,0.8-1.4,1.5-2.8l0.1-0.1c1.2-0.4,2.2-1,2.2-1.7c0-0.3-0.1-0.5-0.4-0.5
	c-0.1,0-0.1,0-0.2,0.1c-0.1,0-0.3,0.1-0.5,0.1c-0.1,0-0.3,0-0.4,0c-0.1,0-0.2,0-0.2,0c-0.1-0.9-0.9-0.9-1-0.9
	c-0.3,0-0.8,0.2-0.8,0.4c0,0.1,0.1,0.1,0.3,0.2c0.5,0.1,0.7,0.5,0.7,1.1c0,0.2,0,0.3-0.1,0.6c-0.8,0.3-1.5,0.3-1.6,0.3
	c-0.5,0-1-0.1-1.6-0.5c-0.2-0.1-0.4-0.2-0.4-0.2c0,0-0.1,0-0.1,0.1c0,0.3,0.4,1.6,2.2,1.6c0.3,0,0.6,0,1-0.1l0.1,0
	c0,0.1-0.1,0.1-0.1,0.2c-0.8,1.8-1.4,2.8-3,4.3c-0.5,0.5-0.7,1-0.7,1.3c0,0.5,0.3,0.6,0.5,0.6c0.5,0,1-0.9,1.3-1.4
	c0.1-0.3,0.3-0.5,0.4-0.8c0.7-1,1.4-1.4,1.8-1.4c1.1,0,1.2,1.8,1.2,2.7c-1.7,1-2.8,2.2-2.8,3.4c0,1.2,1.4,2.5,3.5,2.5
	c1.4,0,2.8-0.5,2.8-1.2c0-0.3-0.3-0.5-0.6-0.5c-0.2,0-0.3,0-0.5,0.1c-0.6,0.3-1.4,0.5-2.1,0.5c-1.7,0-2.3-1-2.3-1.6
	c0-0.8,0.6-1.7,2.2-2.6l0,0.3c0,0.7-0.2,0.8-0.3,1.2c0,0.1,0,0.2,0,0.2c0,0.5,0.2,0.7,0.4,0.7c0.3,0,0.8-0.5,0.8-1.1
	c0-0.3,0-0.6,0-0.8c0-0.4,0-0.7-0.1-1.1c1.2-0.6,2.8-1.2,4-1.7c1.2-0.5,2-1.2,2-1.9C141.9,214,140.7,213.3,139.7,213.3z
	 M134.8,210.8c0-0.1,0-0.1,0-0.1c0,0,0.1,0,0.2,0.1c0,0,0.4,0.1,0.4,0.3c0,0.2-0.3,0.4-0.7,0.6C134.8,211.2,134.8,211,134.8,210.8z
	 M139.4,216c-1.1,0.6-2.5,1.3-3.6,1.8v-0.1c0.4-1.4,2-4,3.7-4c1,0,1.1,0.9,1.1,1C140.7,215.2,140.2,215.6,139.4,216z M160.3,216.7
	c0,2.6-3.1,5.7-9.6,5.7c-0.6,0-0.9,0-0.9-0.1c0-0.1,0.4-0.2,0.8-0.2c6.3-1,8.6-3.7,8.6-5.7c0-1.3-1.1-2.8-3.3-2.8
	c-1.7,0-3.7,0.9-5.5,2.6c-0.8,0.7-1.5,1.1-2.2,1.1c-1.1,0-1.5-0.9-1.5-0.9c0-0.1,0.1-0.1,0.4-0.2c1-0.1,2.3-0.8,3.5-1.6
	c1.6-1,3.4-1.8,5.2-1.8C158.2,212.9,160.3,214.7,160.3,216.7z M170,216.9c0.5,0.6,3.6,3.9,3.6,6.3c0,0.6-0.4,1.1-0.8,1.1
	c-0.3,0-0.5-0.2-0.5-0.8c-0.2-2.4-2.1-5.1-2.9-6.1c-0.4-0.4-0.5-0.8-0.5-1.2s0.1-0.8,0.4-1.3c0.5-0.9,1.9-2.7,2.5-3.5
	c0.2-0.3,0.5-0.8,0.5-1.2c0-0.2-0.1-0.3-0.2-0.5c-0.1-0.1-0.2-0.3-0.2-0.3c0-0.1,0.1-0.2,0.2-0.2c0.4,0,1.4,0.7,1.4,1.4
	c0,0.4-0.3,0.8-0.5,1.1c-0.8,1-2.6,2.3-3.2,3.5c-0.1,0.2-0.2,0.5-0.2,0.8C169.6,216.3,169.7,216.6,170,216.9z M193.1,216.1
	c0,5.8-5.1,8.7-5.8,8.7c0,0,0,0,0,0c0-0.1,0.2-0.2,0.6-0.5c2.4-1.5,4.1-4.8,4.1-8c0-2.2-0.8-4.4-2-4.4c-1,0-2,1.5-2,3.4
	c0,1,0.3,1.6,0.5,2.2c0.1,0.2,0.1,0.3,0.1,0.5c0,0.5-0.3,0.9-0.6,0.9c-0.5,0-1.2-1.5-1.2-2.8c0-0.8,0.2-1.6,0.4-2.5
	c0.1-0.6,0.5-2.1,0.5-3.1c0-0.5-0.1-0.9-0.3-1c-0.1-0.1-0.3-0.1-0.3-0.3c0-0.2,0.3-0.3,0.5-0.3c0.3,0,1,0.3,1,1.4c0,0.5,0,0.6-0.6,3
	c0,0.1,0,0.2,0,0.3c0,0,0,0,0,0c0,0,0.1-0.1,0.1-0.3c0.5-1.5,1.4-2.3,2.3-2.3C192.2,211,193.1,213.8,193.1,216.1z M215.7,210.2
	c0,0.3-0.2,0.6-0.5,0.6c-0.1,0-0.3-0.1-0.5-0.2c-0.5-0.5-1.1-1-1.6-1.2c-0.1-0.1-0.3-0.1-0.3-0.2c0-0.1,0.8-0.1,0.8-0.1
	C214.6,209,215.7,209.4,215.7,210.2z M211.3,210.1c-0.1-0.1-0.3-0.1-0.3-0.2c0,0,0.3-0.1,0.7-0.1c1,0,2.1,0.4,2.1,1.2
	c0,0.3-0.2,0.6-0.5,0.6c-0.1,0-0.3-0.1-0.5-0.3C212.4,210.8,211.8,210.4,211.3,210.1z M213.8,222.7c0,0.1,0,0.7-1.7,0.7
	c-2.2,0-4.2-1.1-4.2-2.4c0-0.5,0.4-1.1,0.6-1.1c0.1,0,0.1,0.1,0.1,0.1c0,0.1,0,0.2-0.1,0.3c-0.1,0.1-0.1,0.2-0.1,0.3
	c0,0.8,1.3,1.5,3,1.5c0.3,0,0.6-0.1,1.2-0.1c0,0,0,0,0,0C213.4,222.1,213.8,222.4,213.8,222.7z M214.4,214.3c0,0.2-0.2,0.4-0.5,0.4
	c-1,0.2-1.5,0.4-2.6,1.3c-0.1,0.1-0.2,0.1-0.2,0.1c-0.1,0-0.1,0-0.1-0.1c0-0.1,0-0.1,0.1-0.2c0.4-0.5,0.6-0.6,0.9-1.1
	c0.1-0.1,0.3-0.3,0.3-0.6c0-0.5-1.1-0.7-1.5-0.7c-0.1,0-0.1,0-0.2,0c-0.2,0-0.3,0.1-0.4,0.1c-0.1,0-0.1,0-0.1-0.1
	c0-0.1,0.6-0.6,1.5-0.6C213.2,213,214.4,213.9,214.4,214.3z M208.3,211.9c0-0.3-0.2-0.5-0.5-0.5c-0.3,0-0.5-0.1-1.2-0.3
	c-0.1-1.1-0.8-1.4-1.2-1.4c-0.5,0-0.8,0.4-0.8,0.5c0,0.1,0.3,0.2,0.5,0.2c0.4,0.1,0.5,0.6,0.5,1.2c0,0.4,0,0.8-0.1,1.1
	c-0.8,0.2-1.4,0.2-1.4,0.2c-0.8,0-1.6-0.4-2-0.6c-0.1-0.1-0.3-0.2-0.4-0.2c0,0-0.1,0-0.1,0.1c0,0.3,0.4,1.6,2.4,1.6
	c0.5,0,0.9-0.1,1.2-0.2c-0.2,0.8-2.3,6.7-3,7.8c-0.3,0.4-0.4,0.8-0.4,1.1c0,0.5,0.3,0.8,0.5,0.8c0.4,0,0.9-0.6,1.1-1.5
	c0.6-2.7,1.5-5.5,2.5-8.2c0-0.1,0.1-0.2,0.1-0.3C206.8,213.3,208.3,212.7,208.3,211.9z M206.4,212.4c0.1-0.4,0.2-0.8,0.2-1.1
	c0.4,0.2,0.6,0.3,0.6,0.5C207.2,211.9,206.9,212.2,206.4,212.4z M231.2,212.5c-0.7-0.1-1.6-0.5-2.4-0.9c-0.1-0.1-0.4-0.2-0.5-0.2
	c0,0-0.1,0-0.1,0c0,0.1,1.5,1.2,1.5,1.2c0,0,0.1,0.1,0.1,0.1c0,0.1-0.1,0.1-0.3,0.1c-0.8,0-1.5,0.1-2.2,0.1c0.1-0.5,0.1-1,0.2-1.6
	c0-0.2,0.1-0.4,0.1-0.6c0-1.3-1-1.4-1.3-1.4c-0.5,0-0.7,0.3-0.7,0.4c0,0.1,0,0.1,0.1,0.2c0.4,0.3,0.7,0.5,0.7,1.3c0,0.6,0,1.2,0,1.8
	c-1.8,0.2-3.5,0.5-5.3,0.7c-0.3,0-0.6,0.1-0.9,0.1c-0.5,0-1-0.1-1.1-0.2c-0.1-0.1-0.3-0.2-0.4-0.2c-0.1,0-0.2,0.1-0.2,0.3
	c0,0.8,1,1.4,2,1.4c0.4,0,0.9-0.1,1.2-0.3c1.3-0.6,3-1,4.6-1.1c0,1.1,0,2.1,0,2.8c-0.3-0.1-0.6-0.2-0.9-0.2c-0.9,0-1.6,0.6-1.6,1.7
	c0,0.9,0.4,1.5,0.7,2.1c0.2,0.3,0.5,0.5,0.9,0.5c0.1,0,0.1,0,0.2,0c0.4-0.1,0.7-0.3,0.9-0.6c-0.5,2.2-2.5,3.9-3.4,4.2
	c-0.3,0.1-0.5,0.3-0.5,0.3c0,0,0,0.1,0.1,0.1c1.3,0,5-2.2,5-5.7c0-0.6-0.1-1.2-0.7-1.9c0-0.4-0.1-1.1-0.1-1.8c0-0.5,0-1,0.1-1.6
	c0.3,0,0.6,0,0.9,0c1.4,0,2.8,0.2,4.1,0.6c0.2,0.1,0.3,0.1,0.5,0.1c0.4,0,0.6-0.2,0.6-0.5C233.3,213.5,233.1,212.8,231.2,212.5z
	 M225.7,219.3c-1.1,0-1.3-1.5-1.3-1.7c0-0.6,0.4-1,0.8-1c0.2,0,0.8,0,1.2,0.9c0,0.2,0.1,0.4,0.1,0.5
	C226.5,218.6,226.4,219.3,225.7,219.3z M237.9,220.5c-1.2,0-2.1,0.9-2.1,2.1s1,2.1,2.1,2.1c1.2,0,2.1-1,2.1-2.1
	S239.1,220.5,237.9,220.5z M237.9,224.1c-0.8,0-1.5-0.7-1.5-1.5c0-0.8,0.7-1.5,1.5-1.5c0.8,0,1.5,0.7,1.5,1.5
	C239.4,223.4,238.7,224.1,237.9,224.1z M22.7,16.3c0.3-0.2,0.7-0.4,0.7-0.9c0-0.8-2.1-1.9-2.6-1.9c-0.4,0-0.7,0.3-1.1,0.9
	c-0.1,0.1-0.1,0.1-0.2,0.1H14c-0.7-0.5-2.5-1.2-2.8-1.2c0,0-0.3,0-0.3,0.4c0,0,0,0.1,0,0.2c0.3,1.5,0.4,3.5,0.4,5.2
	c0,1.2,0,3.1-0.2,5.7v0.1c0,0.6,0.4,1,1.1,1c0.2,0,0.7,0,1.1-0.4c0.2-0.2,0.3-0.5,0.3-0.8l0-1.1h6.5l0,0.9c0,0.6,0.5,1.1,1.1,1.1
	c0.3,0,0.8-0.1,1.1-0.4c0.2-0.2,0.3-0.5,0.3-0.9c-0.1-2-0.2-4.3-0.2-5.9C22.2,16.6,22.2,16.6,22.7,16.3l-0.2-0.2l0,0L22.7,16.3z
	 M13.4,16.8c0-0.6,0-0.6,0.2-0.8l0.2-0.1c0,0,0.1,0,0.1-0.1h5.9c0.1,0,0.1,0,0.1,0.1c0.1,0.8,0.1,1.9,0.1,3.2c0,1,0,2.1,0,3.2h-6.5
	c0-1,0-2,0-3C13.4,18.5,13.4,17.7,13.4,16.8z M2,18.2c-0.5-0.1-0.9-0.3-0.9-0.6c0-0.5,0.7-0.5,1-0.5c1.1,0,1.6-0.1,2.1-1.1
	c0.2-0.5,5.7-11.3,6.6-11.3c0.1,0,0.3,0,0.3,0.4c0,0.2-0.1,0.4-0.2,0.7C6.7,15,5.9,17.4,5.9,19.6c0,1,0.2,1.9,0.5,2.8
	c0.4,1.1,0.3,2.1-0.1,2.8c-0.3,0.4-0.7,0.6-1,0.6c-0.7,0-1.4-0.7-1.4-2.3v-0.3c0-0.4,0.1-0.7,0.1-1.1C4,21.6,4,21.1,4,20.6
	C4,19.7,3.8,18.6,2,18.2z M8.1,14c1.2-1.4,2.9-4.6,4-7.9c0.1-0.3,0.1-0.7,0.2-1.1c0-0.1,0-0.3,0-0.4l0.3-0.1c0,0,0,0,0,0l-0.3,0
	c0-0.3,0.3-0.4,0.4-0.4c0.1,0,3,0.8,3,1.7c0,0.1-0.1,0.5-0.9,0.6c-0.3,0-0.3,0-0.4,0.4C11.2,13.6,8.5,15,8.1,15
	c-0.2,0-0.3-0.2-0.3-0.3C7.8,14.5,7.9,14.3,8.1,14z M3.3,1.9c0-0.3,0.3-0.3,0.7-0.3c1.8,0,4.5,0.8,4.5,2.6c0,0.8-0.6,1.4-1.3,1.4
	c-0.4,0-0.9-0.2-1.3-1l0,0C5.5,4,4.6,3,3.8,2.4C3.5,2.2,3.3,2.1,3.3,1.9z M1.3,8.5C1.1,8.4,0.9,8.3,0.9,8.1c0-0.3,0.2-0.4,1.5-0.4
	c2.3,0,3.8,0.8,3.8,2.2c0,0.8-0.5,1.4-1.2,1.4c-0.3,0-0.8-0.1-1.3-0.7l0,0C3.3,9.9,2.2,9,1.4,8.6L1.3,8.5z M12.3,2.4V2.1l0.3,0.1
	c1.9,0.4,4,0.4,4.1,0.4h1.6c0,0,0.1,0,0.2-0.1c0.7-0.8,0.8-0.9,1.1-0.9c0.5,0,2.2,1,2.2,1.8c0,0.3-0.2,0.7-1,0.9
	c-0.2,0.1-0.4,0.1-0.6,0.1c-0.1,0-0.2,0-0.3,0.1c0.2,0.6,1.7,5.5,6.9,7.4c0.2,0.1,0.4,0.2,0.4,0.4c0,0.3-0.3,0.4-1.1,0.5
	c-0.6,0.1-1.6,0.3-1.9,0.6c-0.1,0.1-0.3,0.2-0.4,0.2c-0.7,0-4.3-3.8-5.3-9.5c0-0.2-0.1-0.2-0.2-0.2h-1.5c-0.4,0-1.8,0.1-3,0.2
	c0,0,0,0,0,0C13.2,4,12.3,2.9,12.3,2.4z M30.5,6.3c0-0.2,0.1-0.3,0.4-0.3c0.4,0,1.2,0.2,1.8,0.3c1-2.4,1.5-3.9,1.5-5.3
	c0-0.2,0-0.6,0.4-0.6c0.2,0,3,0.9,3,1.8c0,0.2-0.1,0.6-1,0.8c-0.2,0-0.3,0.1-0.4,0.3c-0.6,1-1.6,2.5-2.4,3.5
	c1.3,0.7,1.5,1.5,1.5,1.9c0,0.7-0.5,1.3-1.2,1.3c-0.5,0-1-0.3-1.3-0.9c-0.5-1-1.3-1.7-2-2.3C30.6,6.6,30.5,6.4,30.5,6.3z M29.7,24.9
	c0.6,0,2.3-2.5,3.8-6.3c0.1-0.4,0.1-0.4,0.4-0.5c0.5-0.1,0.8-0.3,0.9-0.6c0,2.6-0.1,5-0.3,7.4V25c0,0.8,0.5,1.1,1,1.1
	c0.4,0,0.7-0.2,1-0.4c0.2-0.3,0.4-0.6,0.3-0.9c-0.1-2.2-0.1-5.7-0.1-8c0-0.2,0-0.4,0-0.6c0,0,0.1,0.1,0.1,0.2c0.5,0.8,1.1,2,1.5,3.4
	c0.2,0.9,0.8,1.2,1.2,1.2c0.7,0,1.2-0.6,1.2-1.4c0-1.8-3-4-3.8-4l-0.2,0c0-1.1,0.1-1.1,0.2-1.2c0.2-0.1,0.5-0.3,0.5-0.6
	c0,0,0-0.1,0-0.2l0.1,0c0.3-0.1,0.7-0.2,0.9-0.3c0.2,0.8,0.3,1.3,0.6,1.5l0,0v0.3c0,0.3,0.6,1,0.9,1.3c0.2,0.2,0.3,0.2,0.5,0.2
	c1.1-0.2,1.9-0.2,2.2-0.2H43c-0.2,0.9-1.9,5.6-5.4,8c-0.3,0.2-0.5,0.4-0.5,0.6c0,0.2,0.1,0.3,0.4,0.3c1,0,5.4-2.5,7.4-8
	c0.1-0.3,0.2-0.4,0.4-0.5l0.2-0.1c0.1-0.1,0.3-0.2,0.4-0.3c0,2.1,0.1,4.4,0.1,5.5c0,1.2,0,1.7-1.4,1.7c-0.6,0-1.4-0.1-2.6-0.4
	l-0.2,0c-0.1,0-0.2,0-0.2,0c-0.3,0-0.4,0.3-0.4,0.3c0,0.2,0.2,0.4,1.1,0.8c0.7,0.4,1.7,0.9,1.9,1.2c0.2,0.2,0.3,0.4,0.7,0.4
	c0.8,0,3.2-0.8,3.2-3.1c0-0.4,0-0.9-0.1-1.3c0-0.2,0-0.5-0.1-0.6c-0.1-0.9-0.1-3.8-0.1-5.6c1.7,6.8,5,9.2,5.3,9.2
	c0.2,0,0.3-0.1,0.4-0.2c0.5-0.3,1.3-0.5,2-0.7c0.7-0.2,1-0.2,1-0.5c0-0.2-0.2-0.3-0.5-0.4c-3.1-0.9-5-3.2-6.1-5.1
	c0.9-0.3,1.9-0.7,2.7-1.1l0.4-0.2c0.2-0.1,0.4-0.1,0.7,0c0.2,0,0.3,0,0.5,0c0.8,0,0.8-0.5,0.8-0.6c0-0.7-2-2.4-2.5-2.4
	c-0.2,0-0.3,0.2-0.4,0.3c-0.2,0.8-1.5,2-2.7,2.9c-0.5-1-0.9-2.2-1.2-3.5c0.3-0.2,0.4-0.4,0.4-0.6c0,0,0-0.1,0-0.1h1.5v0.2
	c0,0.6,0.5,1,1,1c0.4,0,0.8-0.2,1-0.4c0.2-0.2,0.3-0.5,0.3-0.8c-0.1-1-0.2-3.6-0.2-5.3c0-1.2,0-1.2,0.4-1.4c0.4-0.2,0.8-0.4,0.8-0.9
	c0-0.7-2-1.9-2.4-1.9c-0.4,0-0.6,0.2-1.1,0.8c0,0.1-0.1,0.1-0.1,0.1h-3.3c0.3-0.3,0.5-0.7,0.9-1.2l0-0.1c0.1-0.2,0.1-0.2,0.3-0.2
	c1-0.1,1.1-0.6,1.1-0.8C48.8,0.8,46,0,45.7,0c-0.1,0-0.4,0-0.4,0.5c0,0.1,0,0.2,0,0.3c0,0.1,0,0.2,0,0.3c0,1-0.3,2.2-0.5,2.9h-0.6
	c-0.6-0.4-2.3-1.2-2.6-1.2l-0.3,0.1v0.3c0,0,0,0.1,0,0.2c0.2,1.1,0.3,3.4,0.3,3.7c0,1.1-0.1,4.2-0.2,5.8v0.1c0,0.6,0.4,1,1,1
	c0.4,0,0.8-0.2,1-0.4c0.2-0.2,0.3-0.4,0.3-0.7v-0.2h1.9c0,0.5,0.1,1.8,0.1,3.2c-0.4-0.6-1.5-1.3-1.8-1.3c-0.3,0-0.7,0.5-0.8,0.6
	c-0.1,0.1-0.1,0.1-0.1,0.1h-0.7c-0.3,0-1.2,0-2.5-0.2c0.5-0.1,0.9-0.6,0.9-1.4c0-1.7-2.9-3.6-3.5-3.6c-0.2,0-0.3,0.2-0.3,0.3
	c0,0.1,0.1,0.3,0.2,0.5c0.2,0.3,0.5,0.8,0.8,1.4c-0.9,0.1-2.1,0.2-3.4,0.3c1.6-1.7,3.4-4.2,4.8-6c0.2-0.2,0.3-0.3,0.4-0.3
	c0.9-0.1,1-0.4,1-0.7c0-0.7-2.4-1.8-2.7-1.8c-0.3,0-0.4,0.3-0.4,0.5c-0.2,1.6-3.1,6.3-4.6,8.4l-0.7,0c-0.6,0-1.3,0-1.9-0.1l-0.1,0
	c0,0-0.1,0-0.1,0c-0.2,0-0.3,0.1-0.3,0.3c0,0.4,1,2.4,1.6,2.4c0.2,0,0.4-0.1,0.5-0.2c0.1-0.1,0.2-0.1,0.2-0.1
	c0.5-0.1,1.4-0.4,2.4-0.6c0,0.6,0,1.2,0,1.7c0,0.5,0,0.9,0,1.4c-0.2-0.8-2.8-1.5-3-1.5c-0.2,0-0.3,0.2-0.3,0.6
	c0,2.8-1.4,6.6-1.9,7.7c-0.1,0.2-0.1,0.3-0.1,0.5C29.3,24.8,29.5,24.9,29.7,24.9z M50.2,8.8c0,0.8,0,1.7,0,2.5h-6.4
	c0-0.8,0-1.6,0-2.5H50.2z M43.8,7.5c0-0.8,0-1.8,0.2-2c0.2-0.1,0.3-0.2,0.4-0.3l5.8,0c0.1,0.1,0.1,0.9,0.1,2.2H43.8z M77,24
	c0-1-1.5-2.8-4.2-3.8c0-0.5-0.1-1-0.2-1.5c0-0.3-0.1-0.6-0.1-0.9c0-0.3-0.1-0.6-0.1-1c-0.1-0.6-0.1-1.2-0.2-1.8
	c1-0.3,4.7-1.6,4.7-3.1c0-0.6-0.5-1-1.3-1c-0.5,0-1.6-0.4-2.3-0.7c-0.1-0.1-0.2-0.1-0.4-0.1c-0.3,0-0.4,0.2-0.4,0.3
	c0,0.2,0.1,0.3,0.2,0.4c0.9,0.7,1.1,1,1.1,1.1c0,0.1-0.3,0.5-1.8,1v-0.5c0-1,0-1.9,0.1-2.7c0.7-0.2,2.8-0.9,2.8-2
	c0-0.6-0.4-0.9-1-0.9c-0.5,0-1,0.2-1.5,0.5C72.9,5.5,73,5.1,73,5.1l0-0.1c0-0.2,0.1-0.4,0.1-0.5c0.1-0.4,0.2-0.7,0.2-1
	c0-0.9-1.2-2.4-2.2-2.4c-0.7,0-1.5,0.7-1.5,1c0,0.4,0.4,0.5,0.8,0.7c0.4,0.1,0.5,0.2,0.5,1c0,1-0.2,2.7-0.3,2.9c0,0.3-0.1,0.7-0.1,1
	c-0.2,0-0.4,0-0.6,0c-1.3,0-2.4-0.6-3.4-1.2l-0.1,0c-0.3-0.2-0.4-0.2-0.6-0.2c-0.2,0-0.4,0.1-0.4,0.4c0,0.6,0.8,3,4.5,3
	c0.1,0,0.2,0,0.4,0c-0.1,1.3-0.1,2.4-0.1,3.5c-0.6,0.1-1.9,0.4-3.3,0.4c-1.1,0-2.1-0.2-3.2-0.5c-0.2-0.1-0.5-0.2-0.8-0.2
	c-0.4,0-0.5,0.2-0.5,0.4c0,0.3,0.9,2.3,4.7,2.3c0.4,0,1.7,0,3-0.3c0,0.8,0,1.5,0.1,2.3c0,0.3,0,0.6,0,0.8c0,0.4,0,0.7,0,1.1
	c-0.3,0-0.7-0.1-1.1-0.1c-2.4,0-5.9,0.8-5.9,3.1c0,1.5,1.5,3.1,3.8,3.1c1.9,0,4.4-1.3,5.2-3.4c0.8,0.5,1.5,1.2,2,1.9
	c0.5,0.7,1,0.9,1.3,0.9C76.5,25.3,77,24.7,77,24z M72.6,7.6C72.6,7.6,72.6,7.6,72.6,7.6L72.6,7.6L72.6,7.6z M68.6,21.3
	c0.6,0,1.2,0.1,1.9,0.3c-0.5,1.5-2,2.2-3.3,2.2c-1.3,0-2-0.7-2-1.1C65.2,21.6,67.4,21.3,68.6,21.3z M89.9,20.5c0.5,0,1-0.3,1.4-0.9
	c0.1-0.2,0.3-0.6,0.5-1c0.1-0.3,0.3-0.6,0.4-0.8c1.8-3.2,4.2-3.8,5.9-3.8c2.8,0,4.3,2.1,4.3,4c0,1.8-1.1,3.9-4.2,4.7
	c0-0.2,0-0.3,0-0.5c0-1.7-1.5-3.1-3.3-3.1c-1.4,0-2.9,0.9-2.9,2.4c0,1.9,2.4,3.1,4.7,3.1c5,0,8-3.3,8-6.6c0-2.1-1.7-5.5-6.1-5.5
	c-1.3,0-2.6,0.3-3.7,0.9c1.1-1.5,3.5-4.5,5.1-5.7c0.6-0.5,1.2-1,1.2-1.7c0-0.8-1.3-1.9-2.7-1.9c-1.5,0-3,1-4,1.8
	c-0.4,0.3-1.1,0.4-1.6,0.2l-0.1-0.1c-0.2-0.1-0.3-0.1-0.5-0.1c-0.2,0-0.5,0.1-0.5,0.7c0,1.1,0.8,1.9,2,1.9c1.1,0,1.8-0.8,2.5-1.5
	c0.5-0.5,0.9-1,1.4-1c0.3,0,0.4,0.1,0.4,0.2c0,0,0,0.2-0.2,0.5c-0.5,0.7-5.6,7.8-6.7,9.1c-2,2.4-2.4,3.1-2.4,3.6
	C88.8,20,89.3,20.5,89.9,20.5z M94.7,20.5c0.8,0,1.5,0.7,1.5,1.6c0,0.3,0,0.5-0.1,0.7c-1.2-0.1-2.5-0.7-2.5-1.5
	C93.6,21.1,93.7,20.5,94.7,20.5z M135.3,4.5c0,0.7-0.5,1.2-1.1,1.2c-0.2,0-0.6-0.1-0.9-0.4l0,0c-0.7-0.7-1.5-1.4-2.4-1.8l-0.2-0.1
	c-0.2-0.1-0.4-0.2-0.4-0.4c0-0.1,0-0.5,1.6-0.5C133.5,2.4,135.3,3,135.3,4.5z M116.1,19.4c0-1.5,1.3-3,1.7-3c0.2,0,0.4,0.1,0.4,0.5
	c0,0.2-0.1,0.5-0.2,0.7c-0.3,0.4-0.4,0.8-0.4,1.1c0,1.6,2.8,2.9,6.1,2.9c0.8,0,1.6-0.1,2.3-0.2c0.7-0.1,1.1-0.3,1.6-0.5
	c0.4-0.1,0.7-0.3,1-0.3c0.3,0,0.5-0.1,0.7-0.1c1,0,1.7,0.5,1.7,1.2c0,1.4-3,2.5-6.6,2.5C119.8,24.1,116.1,22.1,116.1,19.4z
	 M127.4,4.1c0-0.1,0-0.5,1.4-0.5c2.4,0,3.6,1.1,3.6,2.2c0,0.7-0.5,1.2-1.1,1.2c-0.3,0-0.7-0.2-1-0.5l0,0c-0.8-1-1.8-1.6-2.3-1.9
	C127.6,4.5,127.4,4.4,127.4,4.1z M117.7,5.3c0-0.2,0.1-0.4,0.4-0.4c0.2,0,0.4,0.1,0.7,0.2l0.2,0.1c1.2,0.4,2.5,0.5,3.6,0.5
	c0.8,0,1.7,0,2.5-0.1l0.1,0c0.2,0,0.4,0,0.6,0c0.2,0,0.4,0,0.7,0c1.5,0,2.5,0.8,2.5,1.5c0,0.5-0.4,1-1.5,1c-0.6,0-2.7,0.5-4.9,2.2
	c-0.4,0.3-0.7,0.4-0.9,0.4c-0.2,0-0.4-0.2-0.4-0.4c0-0.2,0.1-0.4,0.4-0.7c0.4-0.5,1.2-1.4,1.4-1.8c0,0,0,0-0.1,0c-0.2,0-0.4,0-0.6,0
	c-0.2,0-0.4,0-0.6,0C118.9,7.5,117.7,5.6,117.7,5.3z M150.9,14.3c-1.1-0.7-1.6-2-1.6-3.9c0-1.1,0.2-2.2,0.3-3.2
	c0-0.3,0.1-0.6,0.1-0.9l0-0.3c0.1-0.6,0.1-1,0.1-1.4c0-0.9-0.2-1.2-1.2-1.4C148.1,3,148,2.6,148,2.5c0-0.5,0.6-1.1,1.4-1.1
	c0.9,0,2.9,1,2.9,3c0,0.5-0.1,0.9-0.2,1.3c0,0.2-0.1,0.3-0.1,0.5c-0.1,0.3-0.1,0.5-0.2,0.8c-0.3,1.2-0.6,2.5-0.6,3.7
	c0,1.5,0.5,2.4,1.6,2.7c1.3-0.5,1.9-0.7,2.5-0.7c1.4,0,1.5,1,1.5,1.2c0,1.2-1.5,1.7-2.5,1.7c-0.1,0-0.1,0-0.2,0c-0.1,0-0.1,0-0.2,0
	h-0.3c-2.2,0-5.7,2-5.7,4.5c0,1.8,1.6,2.9,4.1,2.9c1.3,0,2.6-0.3,3.7-0.8c0.3-0.1,0.6-0.3,1-0.3c0.8,0,1.4,0.5,1.4,1.2
	c0,1.7-3.6,2.3-5.3,2.3c-4.9,0-6.6-3-6.6-5.1C146.2,18.1,148,15.7,150.9,14.3z M189.9,18.4c0,0.8-0.6,1.5-1.3,1.5
	c-0.4,0-0.9-0.3-1.2-0.8l0,0c-1.1-1.7-2.7-3.4-4.3-4.3c-0.5-0.3-0.7-0.5-0.7-0.7c0-0.2,0.1-0.3,0.4-0.3
	C184.1,13.7,189.9,16,189.9,18.4z M169.5,19.6c0-0.6,0.4-1.1,1.1-1.4c2.2-1.1,3.4-2.2,4-3.7c0.1-0.3,0.3-0.6,0.5-0.6
	c0.5,0,0.5,0.7,0.5,1.1c0,3-3.3,5.8-4.8,5.8C170.1,20.8,169.5,20.3,169.5,19.6z M170.8,10.4c0-0.7,0.4-0.7,0.5-0.7
	c0.2,0,0.4,0.1,0.7,0.2c1.1,0.4,2,0.6,3.2,0.6c0.5,0,0.7,0,3.9-0.4V8.3c0-1.9-0.7-2.1-1.4-2.1c0,0,0,0-0.1,0c-0.1,0-0.1,0-0.2,0
	c-0.3,0-0.7-0.2-0.7-0.6c0-0.4,0.4-1,1.4-1c0.8,0,3.3,0.8,3.3,2.2c0,0.2-0.1,0.5-0.1,0.8c-0.1,0.3-0.2,0.6-0.2,1
	c0,0.4-0.1,0.8-0.1,1.3c0.7-0.1,1.3-0.2,1.8-0.3c0.6-0.1,0.9-0.2,1.2-0.4c0.4-0.2,0.7-0.3,1.4-0.3c1.4,0,3.6,0.7,3.6,1.7
	c0,0.5-0.6,1.1-1.8,0.9c-1.7-0.3-3.6-0.4-5.7-0.1l-0.5,0.1c0,0.8,0,1.7,0,2.7c0,1,0,2,0,2.8c0,0.6,0.1,1.2,0.1,1.7
	c0.1,0.5,0.1,1,0.1,1.5c0,1.8-0.7,3.1-1.6,3.1c-0.5,0-1.1-0.5-1.2-1.5c-0.1-0.9-0.9-2.4-2.1-3.8c-0.1-0.2-0.2-0.3-0.2-0.5
	c0-0.2,0.2-0.4,0.4-0.4c0.2,0,0.3,0.1,0.4,0.2c0.2,0.1,0.5,0.4,0.9,0.6c0.5,0.3,1,0.7,1.3,0.9c0,0,0,0,0,0c0,0,0,0,0,0
	c0-0.6,0.1-1.6,0.1-7c-0.6,0.1-1.3,0.2-2,0.3c-0.5,0.1-0.8,0.2-1.1,0.3c-0.5,0.1-0.8,0.2-1.3,0.2C173.5,12.5,170.8,11.8,170.8,10.4z
	 M218,10.5c0,0.6-0.6,1-1.3,1c-0.1,0-0.3,0-0.4-0.1c-1.3-0.3-2.5-0.4-3.8-0.4c-0.2,0-0.6,0-2.1,0.1c0.3,0.2,0.4,0.6,0.4,1.2
	c0,0.2,0,0.5-0.1,0.8c-1.7,9.5-11.2,12.3-12.2,12.3c-0.2,0-0.4-0.1-0.4-0.3c0-0.1,0-0.3,0.9-0.7c4.7-2.2,9.1-7.9,9.1-11.6
	c0-0.4-0.1-0.9-0.3-0.9c0,0-0.1,0-0.1,0c-0.1,0-0.2,0-0.2,0c-0.3,0-0.5-0.2-0.5-0.4c-1.1,0.2-2.2,0.5-3.1,0.8l-0.2,0.1
	c-0.5,0.2-0.9,0.3-1.4,0.3c-1.3,0-3.9-0.9-3.9-2.3c0-0.5,0.3-0.6,0.6-0.6c0.2,0,0.4,0.1,0.7,0.2c0.5,0.3,1.7,0.5,2.6,0.5
	c0.3,0,0.5,0,0.7-0.1c0.5-0.1,1.1-0.2,1.7-0.3c2.3-0.4,4.9-0.8,7.6-1.1c0.4,0,0.7-0.2,1.1-0.3c0.3-0.1,0.7-0.3,1.2-0.3
	C215,8.5,218,9.2,218,10.5z M201.9,5.1c0-0.3,0.2-0.6,0.5-0.6c0.1,0,0.2,0.1,0.3,0.1l0.1,0c0.4,0.3,1.1,0.4,2,0.4
	c1.4,0,3-0.3,4.2-0.6l0.5-0.1c0.3,0,0.5-0.1,0.7-0.2c0.4-0.1,0.7-0.3,1.3-0.3c0.9,0,2.5,0.4,2.5,1.3c0,0.4-0.4,0.9-1.5,0.9
	c-1.5,0-3.2,0.3-4.8,0.6c-0.7,0.1-1.3,0.2-1.9,0.3c-0.3,0.1-0.7,0.1-1,0.1C202.5,7.1,201.9,5.6,201.9,5.1z M249.5,8.4
	c0,0.9-3.8,7.5-9.4,11.3c-0.1,0.1-0.2,0.2-0.4,0.4c-0.4,0.4-0.8,0.8-1.4,0.8c-1.1,0-2.2-2-2.2-2.5c0-0.2,0.1-0.4,0.1-0.6
	c0.1-0.2,0.2-0.5,0.2-0.9c0.3-2.2,0.5-4,0.5-5.4c0-2.6-0.6-3.1-1.1-3.2c-0.4-0.1-0.9-0.3-0.9-0.7c0-0.5,0.9-0.8,1.5-0.8
	c1.4,0,2.8,1.8,2.8,3.1c0,0.3,0,0.6-0.1,0.8c-0.4,1.1-0.7,6.3-0.7,7c0,0.1,0,0.1,0,0.1c0.4-0.1,6.2-3.5,9.9-8.8
	c0.5-0.7,0.7-0.8,0.8-0.8C249.2,8,249.5,8,249.5,8.4z M234.9,11.3c0,0.5-0.1,1-0.3,1.4c-1.3,3.8-3.7,6.4-5.5,7.9
	c-2,1.7-4,2.7-4.9,2.7c-0.3,0-0.4-0.2-0.4-0.3c0-0.3,0.4-0.5,0.7-0.7c3.6-1.9,7.9-8.3,7.9-10.8c0-1.1-0.7-1.3-1.4-1.4
	c-0.7-0.1-0.7-0.5-0.7-0.6c0-0.3,0.4-1.1,1.5-1.1C232.9,8.3,234.9,9.6,234.9,11.3z M3.8,73c0.1-2.4,0.2-6.8,0.2-11.4
	c0-4.3-0.1-7.2-0.2-8.6l0-0.1c0-0.4,0.3-0.7,0.7-0.7l0.7,0c1.9,0,3,0.1,4.9,0h0c0.1,0,0.3,0.1,0.3,0.2c0.1,0.1,0.1,0.3,0.1,0.4
	c0,0.6-0.2,0.7-0.4,0.7c-0.7,0-2.1-0.1-3.3-0.1c-0.5,0-1.1,0-1.5,0c-0.1,0-0.1,0-0.1,0.2c0,1.3,0,3.8,0,6.8c0,4.5,0,9.4,0.1,12.4
	c0,0.4-0.2,0.5-0.7,0.5C4.3,73.5,3.8,73.5,3.8,73z M25.3,57.7c-2.7,5.6-5,6.9-5.3,6.9c-0.1,0-0.2-0.1-0.2-0.2c0-0.1,0.1-0.2,0.2-0.4
	c1-1.2,2.5-3.9,3.5-6.8c0.1-0.3,0.1-0.6,0.2-0.9c0-0.1,0-0.2,0-0.4c0,0,0-0.1,0-0.1c0-0.1,0.1-0.2,0.2-0.2c0.1,0,2.5,0.7,2.5,1.3
	c0,0.1,0,0.4-0.7,0.5C25.4,57.4,25.4,57.4,25.3,57.7z M31.9,73.4c0.2-0.2,0.2-0.4,0.2-0.7C32,71,31.9,69,31.9,67.7
	c0-1.6,0-1.6,0.4-1.8l0,0c0.3-0.2,0.6-0.3,0.6-0.7c0-0.6-1.8-1.6-2.1-1.6c-0.3,0-0.6,0.2-0.9,0.7c-0.1,0.1-0.2,0.1-0.2,0.1H25
	c-0.6-0.4-2.1-1.1-2.4-1.1c-0.1,0-0.2,0-0.2,0.2c0,0,0,0.1,0,0.2c0.3,1.3,0.3,3,0.3,4.4c0,1.1,0,2.7-0.2,4.9v0.1
	c0,0.5,0.3,0.8,0.8,0.8c0.3,0,0.6-0.1,0.9-0.3c0.2-0.2,0.2-0.4,0.2-0.6l0-1h5.8l0,0.8v0c0,0.6,0.4,0.8,0.8,0.8
	C31.3,73.8,31.7,73.7,31.9,73.4z M24.7,65.5l0.1-0.1c0,0,0.1,0,0.1-0.1H30c0.2,0,0.2,0.1,0.2,0.2c0,0.7,0,1.6,0,2.7
	c0,0.9,0,1.9,0,2.9h-5.8c0-0.9,0-1.8,0-2.7c0-0.7,0-1.4,0-2.2C24.5,65.7,24.5,65.7,24.7,65.5z M23.8,53.8c1.7,0.3,3.5,0.3,3.5,0.3
	h1.3c0.1,0,0.2-0.1,0.2-0.1c0.6-0.6,0.7-0.7,0.8-0.7c0.4,0,1.8,0.9,1.8,1.5c0,0.2-0.1,0.5-0.8,0.7c-0.2,0.1-0.3,0.1-0.5,0.1
	c-0.1,0-0.3,0.1-0.3,0.1c0,0,1.2,4.8,6,6.5l0,0c0.1,0,0.3,0.1,0.3,0.2c0,0.2-0.2,0.2-0.8,0.3c-0.6,0.1-1.4,0.2-1.7,0.5
	c-0.1,0.1-0.2,0.1-0.3,0.1c-0.6,0-3.6-3.2-4.4-8.1c0-0.2-0.1-0.2-0.3-0.2h-1.3c-0.4,0-1.5,0.1-2.6,0.2l0,0c-0.4,0-1.2-0.9-1.2-1.3
	v-0.2L23.8,53.8z M15.1,58.5c1.9,0,3.2,0.7,3.2,1.7c0,0.6-0.4,1.1-1,1.1c-0.3,0-0.6-0.1-1-0.6l0,0c-0.4-0.5-1.3-1.2-2-1.6l-0.1-0.1
	c-0.2-0.1-0.3-0.2-0.3-0.3C13.9,58.7,13.9,58.5,15.1,58.5z M16.3,53.9c-0.3-0.2-0.3-0.3-0.3-0.4c0-0.2,0.2-0.2,0.5-0.2
	c1.5,0,3.7,0.7,3.7,2.1c0,0.6-0.5,1.1-1,1.1c-0.3,0-0.7-0.1-1.1-0.8l0,0C17.8,55.2,17,54.4,16.3,53.9z M22.2,56.8
	c-3.6,7.9-4.2,10-4.2,11.9c0,0.8,0.1,1.7,0.4,2.4c0.3,0.9,0.3,1.7-0.1,2.3c-0.2,0.3-0.5,0.5-0.8,0.5c-0.5,0-1.1-0.6-1.1-1.8v-0.3
	c0-0.3,0.1-0.6,0.1-0.9c0.1-0.4,0.1-0.8,0.1-1.2c0-0.8-0.2-1.8-1.8-2.2c-0.5-0.1-0.7-0.2-0.7-0.4c0-0.3,0.4-0.3,0.7-0.3
	c1,0,1.4-0.1,1.9-1c0-0.1,4.8-9.6,5.5-9.6c0.1,0,0.2,0.1,0.2,0.2C22.4,56.4,22.3,56.6,22.2,56.8z M47.1,64.6c-0.6,0-0.8-0.4-1-1.5
	c-0.3,0.1-0.6,0.2-0.9,0.3c-0.1,0-0.1,0-0.2,0.1c0.1,0.1,0.1,0.2,0.1,0.2c0,0.2-0.2,0.3-0.4,0.4c-0.2,0.1-0.2,0.1-0.2,2.2
	c0,2,0,5,0.1,6.8c0,0.2-0.1,0.5-0.3,0.7c-0.2,0.2-0.5,0.4-0.8,0.4c-0.4,0-0.8-0.2-0.8-0.8v-0.1c0.2-2.4,0.2-5,0.2-7.7
	c0-0.4,0-1,0-1.6c-0.9,0.2-1.8,0.4-2.2,0.6c-0.1,0-0.2,0.1-0.2,0.1c-0.1,0.1-0.2,0.2-0.4,0.2c-0.5,0-1.3-1.7-1.3-1.9
	c0-0.2,0.2-0.2,0.3-0.2c0,0,0,0,0.1,0c0.5,0,1.2,0.1,1.7,0.1h0.4l0.3,0c1.3-1.8,3.8-5.9,4-7.3c0-0.2,0-0.4,0.2-0.4
	c0.2,0,2.2,0.9,2.2,1.5c0,0.3-0.3,0.5-0.8,0.5c-0.2,0-0.3,0.1-0.5,0.3c-1.2,1.6-2.9,3.9-4.3,5.3c1.2-0.1,2.4-0.2,3.3-0.3
	c-0.2-0.6-0.5-1-0.7-1.4c-0.1-0.2-0.2-0.3-0.2-0.4c0-0.1,0.1-0.2,0.2-0.2c0.5,0,2.9,1.6,2.9,3C48,64.2,47.5,64.6,47.1,64.6z
	 M44.7,65.3c0.6,0,3.1,1.8,3.1,3.3c0,0.6-0.4,1.1-0.9,1.1c-0.3,0-0.8-0.2-0.9-0.9c-0.3-1.1-0.8-2.2-1.3-2.9
	c-0.1-0.2-0.2-0.3-0.2-0.4v-0.1L44.7,65.3z M42.7,66.8c0,0.3-0.2,0.4-0.7,0.5c-0.3,0.1-0.3,0.1-0.4,0.5c-1.2,3.3-2.8,5.4-3.2,5.4
	c-0.1,0-0.2-0.1-0.2-0.2c0-0.1,0-0.2,0.1-0.4c0.4-0.9,1.6-4.2,1.6-6.6c0-0.1,0-0.4,0.2-0.4C40.5,65.6,42.7,66.2,42.7,66.8z M44,54.6
	c-0.5,0.9-1.4,2.2-2.1,3.1c1.2,0.6,1.3,1.3,1.3,1.6c0,0.6-0.4,1-0.9,1c-0.4,0-0.8-0.3-1-0.8c-0.5-0.9-1.2-1.5-1.8-2
	c-0.2-0.2-0.3-0.3-0.3-0.4c0-0.1,0.1-0.2,0.3-0.2c0.4,0,1.1,0.2,1.6,0.3c0.8-2.1,1.3-3.5,1.3-4.6c0-0.2,0-0.4,0.2-0.4
	c0,0,2.5,0.8,2.5,1.4c0,0.1-0.1,0.4-0.8,0.5C44.2,54.4,44.1,54.4,44,54.6z M54.2,71.6L54.2,71.6c0-0.4,0-0.8-0.1-1.2
	c0-0.2,0-0.4,0-0.5c0-0.8-0.1-3.7-0.1-5.2c0-0.2,0-0.3,0-0.5c1.3,6.3,4.4,8.7,4.6,8.7c0.1,0,0.2,0,0.3-0.1c0.4-0.3,1.2-0.5,1.7-0.6
	c0.6-0.1,0.8-0.2,0.8-0.4c0-0.1-0.1-0.2-0.3-0.3c-2.2-0.6-4-2.2-5.3-4.5c0.7-0.3,1.7-0.7,2.4-0.9l0.4-0.2c0.1,0,0.2-0.1,0.3-0.1
	c0.1,0,0.2,0,0.3,0c0.2,0,0.3,0,0.4,0c0.6,0,0.6-0.3,0.6-0.4c0-0.5-1.7-1.9-2.1-1.9c-0.1,0-0.2,0.1-0.2,0.2
	c-0.3,0.8-1.9,2.2-2.4,2.6c-0.5-0.9-0.8-2-1.1-3.2c0.2-0.1,0.3-0.3,0.3-0.4c0,0,0-0.1-0.1-0.2h1.5v0.3c0,0.5,0.4,0.7,0.8,0.7
	c0.3,0,0.6-0.1,0.8-0.3c0.2-0.2,0.2-0.4,0.2-0.6c-0.1-0.9-0.2-3.2-0.2-4.5c0-1.1,0-1.1,0.4-1.3c0.3-0.2,0.6-0.4,0.6-0.7
	c0-0.6-1.6-1.5-2-1.5c-0.3,0-0.4,0.1-0.9,0.7c-0.1,0.1-0.1,0.1-0.2,0.1h-3.1c0.3-0.3,0.5-0.7,0.9-1.2l0-0.1c0.1-0.1,0.1-0.2,0.3-0.2
	c0.8-0.1,0.9-0.4,0.9-0.6c0-0.6-2.3-1.4-2.6-1.4c-0.1,0-0.2,0-0.2,0.3c0,0.1,0,0.2,0,0.2c0,0.1,0,0.2,0,0.3c0,0.9-0.3,2-0.4,2.6H51
	l0,0c-0.5-0.3-2-1-2.2-1c0,0-0.2,0-0.2,0.2c0,0,0,0.1,0,0.2c0.2,0.9,0.3,2.9,0.3,3.2c0,1,0,3.6-0.2,5V63c0,0.4,0.3,0.7,0.8,0.7
	c0.3,0,0.6-0.1,0.8-0.3c0.1-0.1,0.2-0.3,0.2-0.5v-0.3h1.8c0.1,1,0.2,6.4,0.2,8.2c0,1,0,1.5-1.3,1.5c-0.5,0-1.2-0.1-2.2-0.3
	c-0.1,0-0.1,0-0.2,0c-0.1,0-0.1,0-0.2,0c-0.2,0-0.2,0.1-0.2,0.2c0,0.1,0.1,0.2,0.9,0.6c0.6,0.3,1.5,0.8,1.7,1.1
	c0.1,0.2,0.3,0.3,0.5,0.3C52.3,74.1,54.2,73.4,54.2,71.6z M56.2,59.3c0,0.8,0,1.6,0,2.3h-5.7c0-0.8,0-1.5,0-2.3H56.2z M50.4,58.4
	c0-0.8,0-1.8,0.2-1.9c0.1-0.1,0.3-0.2,0.4-0.2h4.9c0.2,0,0.2,0.2,0.2,2.1H50.4z M51.5,66.7c-0.9,2.6-2.4,4.2-3.5,5.2
	c-1.3,1.1-2.4,1.6-2.8,1.6c-0.2,0-0.2-0.1-0.2-0.2c0-0.1,0.1-0.3,0.4-0.5c3.3-2.2,4.7-6.7,4.7-7l-0.5,0c-0.3,0-1,0.1-1.9,0.2
	c-0.1,0-0.2,0-0.3-0.2c-0.3-0.2-0.7-0.8-0.7-1.1v-0.2l0.2,0c1.4,0.3,2.4,0.3,2.7,0.3H50c0,0,0.1,0,0.2-0.1c0.1-0.1,0.4-0.5,0.6-0.5
	c0.3,0,1.6,0.9,1.6,1.3c0,0.3-0.2,0.4-0.4,0.5l-0.1,0.1C51.7,66.4,51.6,66.4,51.5,66.7z M71.2,53.4C71,55.8,71,60.2,71,64.8
	c0,4.3,0.1,7.2,0.2,8.6l0,0.1c0,0.4-0.3,0.7-0.7,0.7l-0.7,0c-0.9,0-1.6,0-2.3,0c-0.8,0-1.6,0-2.7,0.1c0,0,0,0,0,0
	c-0.1,0-0.3-0.1-0.3-0.2c0-0.1-0.1-0.2-0.1-0.4c0-0.6,0.2-0.7,0.4-0.7c0.9,0,2.1,0.1,3.3,0.1c0.5,0,1.1,0,1.5,0c0.1,0,0.1,0,0.1-0.2
	c0-1.3,0-3.8,0-6.8c0-4.5,0-9.4-0.1-12.4c0-0.4,0.2-0.5,0.8-0.5C70.8,52.9,71.2,52.9,71.2,53.4z M96.6,58.8c-2.4,0-4.3,2.4-5.3,4.8
	c-0.4-1.3-1.4-2.2-2.5-2.2c-0.4,0-0.7,0.1-1.1,0.2c0.5-0.9,1-1.8,1.7-3.4l0.1-0.1c1.9-0.7,2.9-1.5,2.9-2.4c0-0.4-0.3-0.7-0.6-0.7
	c-0.1,0-0.2,0-0.3,0.1c-0.1,0-0.6,0.1-1.2,0c-0.1,0-0.1,0-0.2,0c-0.2-1.1-1.2-1.2-1.5-1.2c-0.3,0-1.1,0.3-1.1,0.6
	c0,0.2,0.2,0.3,0.4,0.3l0.1,0c0.6,0.1,0.9,0.5,0.9,1.4c0,0.2,0,0.4-0.1,0.7c-1,0.3-1.8,0.3-2,0.3c-0.7,0-1.4-0.2-2-0.6
	c-0.4-0.3-0.5-0.3-0.6-0.3c-0.1,0-0.2,0.1-0.2,0.2c0,0.4,0.6,2.3,3.1,2.3c0.4,0,0.8-0.1,1.2-0.2c0,0,0,0,0,0c-1,2.3-1.8,3.6-4,5.7
	c-0.6,0.6-1,1.2-1,1.8c0,0.7,0.5,0.9,0.8,0.9c0.7,0,1.4-1.1,1.8-1.9c0.1-0.1,0.2-0.3,0.2-0.4c0.1-0.2,0.2-0.4,0.3-0.6
	c0.8-1.2,1.7-1.8,2.3-1.8c1.2,0,1.5,1.8,1.5,3.4c-2.4,1.4-3.8,3.1-3.8,4.6c0,1.7,1.9,3.5,4.8,3.5c1.9,0,3.9-0.7,3.9-1.7
	c0-0.5-0.4-0.8-1-0.8c-0.3,0-0.5,0.1-0.8,0.2c-0.8,0.4-1.8,0.7-2.8,0.7c-2.2,0-3-1.2-3-2c0-1,0.9-2.2,2.6-3.2l0,0.2
	c0,0.5-0.1,0.7-0.2,1c-0.1,0.2-0.1,0.4-0.2,0.7c0,0.1,0,0.1,0,0.2c0,0.1,0,0.1,0,0.2c0,1,0.5,1.1,0.7,1.1c0.5,0,1.1-0.7,1.2-1.6
	c0-0.3,0-0.7,0-1.1c0-0.5,0-0.9-0.1-1.4c1.5-0.8,3.5-1.5,5.1-2.2l0.2-0.1c1.7-0.7,2.7-1.7,2.7-2.6C99.7,59.8,98,58.8,96.6,58.8z
	 M93.8,63.7c-0.7,0.4-1.5,0.7-2.1,1.1c0.7-1.9,2.7-5,4.7-5c1.2,0,1.4,1.1,1.4,1.1c0,0.5-0.5,1-1.6,1.6
	C95.5,62.9,94.6,63.3,93.8,63.7z M90.3,55.6c0.1,0,0.4,0.2,0.5,0.2c0,0.1-0.2,0.3-0.6,0.5C90.2,56.1,90.2,55.8,90.3,55.6
	C90.2,55.6,90.2,55.6,90.3,55.6z M112.3,53.8c0,1.3,0,3.8,0,6.8c0,4.5,0,9.4,0.1,12.4c0,0.4-0.2,0.5-0.7,0.5c-0.3,0-0.7,0-0.7-0.5
	c0.1-2.4,0.2-6.8,0.2-11.4c0-4.3-0.1-7.2-0.2-8.6l0-0.1c0-0.4,0.3-0.7,0.7-0.7l0.7,0c1.9,0,3,0.1,4.9,0h0c0.1,0,0.3,0.1,0.3,0.2
	c0.1,0.1,0.1,0.3,0.1,0.4c0,0.6-0.2,0.7-0.4,0.7c-0.7,0-2.1-0.1-3.3-0.1c-0.5,0-1.1,0-1.5,0C112.3,53.7,112.3,53.7,112.3,53.8z
	 M131.5,69.3c0-0.5-0.1-0.9-0.1-1.4c0-0.3-0.1-0.5-0.1-0.8c0-0.3,0-0.5-0.1-0.8c-0.1-0.5-0.1-1.1-0.1-1.6c0.7-0.2,4-1.3,4-2.6
	c0-0.4-0.4-0.7-1-0.8c-0.5,0-1.5-0.4-2-0.6c-0.1,0-0.2-0.1-0.2-0.1c-0.2,0-0.2,0.1-0.2,0.2c0,0.1,0.1,0.2,0.1,0.2c0.6,0.5,1,0.9,1,1
	c0,0.1-0.1,0.5-1.7,1v-0.6c0-0.9,0-1.7,0.1-2.4c0.5-0.1,2.4-0.7,2.4-1.6c0-0.3-0.1-0.7-0.8-0.7c-0.5,0-0.9,0.2-1.3,0.5l0.1,0.1
	l-0.1-0.1l0,0c0.3-1.8,0.4-2.1,0.4-2.1l0,0c0-0.2,0.1-0.3,0.1-0.5c0.1-0.3,0.1-0.6,0.1-0.8c0-0.7-1-1.9-1.8-1.9
	c-0.6,0-1.1,0.6-1.1,0.8c0,0.3,0.3,0.4,0.7,0.5c0.4,0.1,0.5,0.2,0.5,1c0,0.8-0.2,2.3-0.2,2.5c0,0.3-0.1,0.7-0.1,1l-0.1,0
	c-0.2,0-0.4,0-0.5,0c-1.1,0-2.1-0.5-3-1l-0.1,0c-0.2-0.1-0.3-0.2-0.5-0.2c-0.1,0-0.2,0.1-0.2,0.3c0,0.5,0.7,2.5,3.8,2.5
	c0.1,0,0.3,0,0.4,0c-0.1,1.2-0.1,2.2-0.1,3.2c-0.5,0.1-1.7,0.4-2.9,0.4c-1,0-1.9-0.1-2.8-0.5c-0.2-0.1-0.4-0.2-0.6-0.2
	c-0.3,0-0.3,0.2-0.3,0.3c0,0.2,0.8,1.9,4,1.9c0.3,0,1.5,0,2.7-0.3c0,0.7,0,1.4,0.1,2.1c0,0.2,0,0.5,0,0.7c0,0.4,0,0.7,0,1
	c-0.3,0-0.6-0.1-1-0.1c-2,0-5,0.7-5,2.6c0,1.2,1.2,2.6,3.2,2.6c1.7,0,3.7-1.1,4.4-2.9c0.8,0.5,1.4,1.1,1.8,1.7
	c0.4,0.6,0.8,0.7,1,0.7c0.5,0,0.9-0.4,0.9-1C135.1,71.7,133.9,70.1,131.5,69.3z M128,70c0.6,0,1.1,0.1,1.8,0.3
	c-0.4,1.4-1.8,2.1-3,2.1c-1.2,0-1.8-0.6-1.8-1.1C125,70,127.9,70,128,70z M146.6,69.3c0.4,0,0.8-0.3,1.1-0.7
	c0.1-0.1,0.3-0.5,0.4-0.8c0.1-0.3,0.2-0.5,0.3-0.7c1.6-2.8,3.7-3.3,5.2-3.3c2.4,0,3.8,1.8,3.8,3.5c0,1.6-1,3.5-3.8,4.2
	c0.1-0.2,0.1-0.4,0.1-0.6c0-1.4-1.2-2.6-2.7-2.6c-1.2,0-2.4,0.7-2.4,1.9c0,1.6,2,2.6,3.9,2.6c4.2,0,6.8-2.8,6.8-5.5
	c0-1.8-1.4-4.6-5.1-4.6c-1.2,0-2.5,0.3-3.5,0.9c0.8-1.1,3.1-4.1,4.6-5.3c0.5-0.4,1-0.8,1-1.3c0-0.6-1-1.6-2.2-1.6
	c-1.3,0-2.7,0.9-3.4,1.5c-0.2,0.2-0.6,0.3-0.9,0.3c-0.2,0-0.4,0-0.6-0.1l-0.1,0c-0.1-0.1-0.3-0.1-0.4-0.1c-0.3,0-0.3,0.4-0.3,0.5
	c0,0.9,0.7,1.5,1.7,1.5c0.9,0,1.5-0.7,2-1.3c0.4-0.5,0.8-0.9,1.3-0.9c0.2,0,0.5,0.1,0.5,0.3c0,0,0,0.2-0.2,0.5
	c-0.4,0.6-4.8,6.7-5.8,7.8c-1.7,2-2,2.6-2,3C145.8,69,146.1,69.3,146.6,69.3z M150.7,69.4c0.8,0,1.4,0.7,1.4,1.5
	c0,0.3,0,0.5-0.1,0.7c-1.1-0.1-2.3-0.6-2.3-1.4C149.7,70,149.8,69.4,150.7,69.4z M173.9,60.2c0.4-0.5,1.2-1.5,1.3-1.7
	c0,0-0.1,0-0.2,0c-0.2,0-0.4,0-0.5,0c-0.2,0-0.4,0-0.5,0c-2.5-0.2-3.5-1.8-3.5-2c0-0.1,0.1-0.2,0.3-0.2c0.2,0,0.4,0.1,0.6,0.2
	l0.2,0.1c1,0.4,2.1,0.4,3.1,0.4c0.7,0,1.5,0,2.2,0c0.2,0,0.4,0,0.6,0c0.2,0,0.4,0,0.6,0c1.2,0,2,0.6,2,1.2c0,0.4-0.3,0.7-1.2,0.8
	c-0.5,0-2.3,0.4-4.2,1.9c-0.3,0.2-0.5,0.3-0.7,0.3c-0.2,0-0.2-0.1-0.2-0.2C173.6,60.6,173.7,60.4,173.9,60.2z M183.7,56.3
	c-0.6-0.6-1.3-1.2-2.1-1.6c0,0-0.1,0-0.1-0.1c-0.2-0.1-0.3-0.1-0.3-0.3c0-0.3,0.7-0.3,1.2-0.3c1.4,0,2.9,0.5,2.9,1.7
	c0,0.5-0.4,0.9-0.8,0.9C184.2,56.6,184,56.5,183.7,56.3L183.7,56.3z M169.1,68.5c0-1.3,1.1-2.4,1.4-2.4c0,0,0.2,0,0.2,0.3
	c0,0.2-0.1,0.4-0.2,0.6c-0.2,0.3-0.4,0.7-0.4,1c0,1.6,2.8,2.6,5.3,2.6c0.7,0,1.4-0.1,2-0.2c0.6-0.1,1-0.3,1.4-0.4
	c0.3-0.1,0.6-0.2,0.9-0.3c0.2,0,0.4-0.1,0.6-0.1c0.8,0,1.4,0.4,1.4,0.9c0,1.1-2.5,2-5.6,2C172.2,72.5,169.1,70.7,169.1,68.5z
	 M179.2,55.8c-0.3-0.2-0.4-0.2-0.4-0.4c0-0.3,0.6-0.3,1.1-0.3c2,0,3,0.9,3,1.8c0,0.5-0.4,1-0.8,1c-0.3,0-0.5-0.1-0.8-0.4l0,0
	C180.5,56.6,179.6,56.1,179.2,55.8z M203.5,71.7c0,1.3-2.6,1.8-4.4,1.8c-4.1,0-5.6-2.5-5.6-4.2c0-2,1.6-4,4.1-5.2
	c-1-0.6-1.5-1.7-1.5-3.4c0-0.9,0.1-1.9,0.3-2.7c0-0.3,0.1-0.5,0.1-0.8l0-0.3c0.1-0.5,0.1-0.9,0.1-1.2c0-0.8-0.2-1.1-1.1-1.3
	c-0.4-0.1-0.4-0.3-0.4-0.4c0-0.3,0.4-0.8,1.1-0.8c0.7,0,2.4,0.9,2.4,2.5c0,0.4-0.1,0.7-0.2,1.1c0,0.2-0.1,0.3-0.1,0.4
	c0,0.2-0.1,0.4-0.2,0.7c-0.2,1-0.5,2.2-0.5,3.2c0,1.4,0.5,2.2,1.5,2.4c1.1-0.5,1.7-0.6,2.1-0.6c1.1,0,1.2,0.7,1.2,0.9
	c0,1-1.2,1.3-2,1.3c-0.1,0-0.1,0-0.2,0c0,0-0.1,0-0.1,0h-0.2c-1.9,0-5,1.8-5,3.9c0,1.6,1.4,2.6,3.6,2.6c1.1,0,2.3-0.3,3.2-0.7
	c0.3-0.1,0.6-0.2,0.8-0.2C203,70.8,203.5,71.2,203.5,71.7z M216.6,53.4c-0.1,2.4-0.2,6.8-0.2,11.4c0,4.3,0.1,7.2,0.2,8.6l0,0.1
	c0,0.4-0.3,0.7-0.7,0.7l-0.7,0c-0.9,0-1.6,0-2.3,0c-0.8,0-1.6,0-2.7,0.1c0,0,0,0,0,0c-0.1,0-0.3-0.1-0.3-0.2c0-0.1-0.1-0.3-0.1-0.4
	c0-0.6,0.2-0.7,0.4-0.7c0.9,0,2.1,0.1,3.3,0.1c0.5,0,1.1,0,1.5,0c0.1,0,0.1,0,0.1-0.2c0-1.3,0-3.8,0-6.8c0-4.6,0-9.4-0.1-12.4
	c0-0.4,0.2-0.5,0.8-0.5C216.2,52.9,216.6,52.9,216.6,53.4z M15.9,104c0.5,0,1-0.4,1-0.9l0-0.3c-0.1-1.4-0.2-3.1-0.2-4.2
	c0-1.1,0.1-1.2,0.3-1.3l0.1,0c0.2-0.1,0.5-0.3,0.5-0.6c0-0.7-1.7-1.5-1.9-1.5c-0.3,0-0.4,0.2-0.8,0.7c0,0.1-0.1,0.1-0.2,0.1h-1.9
	c0.3-0.4,0.7-0.8,1-1.3l0.1-0.1c0.1-0.1,0.1-0.2,0.3-0.2c0.8-0.1,0.9-0.4,0.9-0.6c0-0.6-2.3-1.4-2.6-1.4c-0.1,0-0.2,0-0.2,0.3
	c0,0.1,0,0.1,0,0.2c0,0.1,0,0.2,0,0.3c0,1-0.1,1.5-0.5,2.8h-0.2c-0.4-0.3-1.8-1.1-2.1-1.1c-0.1,0-0.2,0.1-0.2,0.2c0,0,0,0.1,0,0.1
	c0,0,0,0,0,0.1c0.2,0.9,0.3,2.8,0.3,3.1v0.7c-0.1,0-0.1,0.1-0.1,0.1c-0.7,0.4-4.8,2.6-6.4,2.7l-0.1,0c-0.1,0-0.3,0-0.3,0.2
	c0,0.4,1.4,1.7,1.8,1.7c0.2,0,0.3-0.1,0.4-0.3c0.1-0.1,0.1-0.2,0.2-0.2c1.2-0.8,3.3-2.4,4.5-3.5c0,1.1-0.1,2.3-0.2,3.6v0.1
	c0,0.4,0.3,0.7,0.7,0.7c0.1,0,0.5-0.1,0.8-0.3c0.1-0.1,0.2-0.3,0.2-0.5v-0.6h3.8v0.4C15.1,103.7,15.4,104,15.9,104z M15.1,99.8
	c0,0.3,0,0.7,0,1c0,0.4,0,0.8,0,1.2h-3.9c0-0.7,0-1.5,0-2.2H15.1z M14.9,96.9c0.2,0,0.2,0.1,0.2,0.2c0,0.5,0,1.1,0,1.8h-3.9
	c0-0.4,0-0.7,0-1c0-0.6,0-0.6,0.2-0.7c0,0,0.1-0.1,0.1-0.1c0,0,0.1-0.1,0.1-0.1H14.9z M24.6,111.5c0,0.2-0.2,0.3-1,0.6
	c-0.6,0.3-1.4,0.6-1.6,0.9c-0.1,0.1-0.2,0.2-0.4,0.2c-0.8,0-5.2-2.2-7.7-5.6v1.3c0,1.6,0,3.3,0,4.2c0,0.3-0.1,0.5-0.2,0.7
	c-0.2,0.2-0.6,0.3-0.8,0.3c-0.4,0-0.8-0.3-0.8-0.9v-0.1c0.1-0.9,0.1-2.8,0.2-4.5c-5.2,4.6-9.9,5.1-10,5.1c-0.3,0-0.3-0.1-0.3-0.2
	c0-0.2,0.3-0.4,0.6-0.4c3.1-1,6.2-3.2,9.1-6.3h-0.9c-1.4,0-4.7,0.1-6.8,0.3l0,0c-0.5,0-1.2-1-1.2-1.4v-0.2l0.2,0
	c2.5,0.3,6.7,0.4,8,0.4h1.5v-0.4c0-0.5-0.1-1.4-0.2-1.8c0,0,0-0.1,0-0.1c0-0.1,0-0.2,0.3-0.2c0,0,2.6,0.2,2.6,0.8
	c0,0.2-0.2,0.4-0.4,0.5c-0.1,0-0.2,0.1-0.2,0.1c-0.2,0.1-0.3,0.1-0.3,0.5c0,0.2,0,0.4,0,0.7h5.5c0.1,0,0.2-0.1,0.3-0.1
	c0,0,0.9-1.5,1.4-1.5c0.1,0,0.1,0,0.2,0c1,0.4,2.1,1.6,2.1,2c0,0.3-0.2,0.4-0.6,0.4h-8.5c2,2,5.7,4.2,10,4.5c0,0,0,0,0,0
	C24.5,111.2,24.6,111.3,24.6,111.5z M22.9,96.5c0,0.2-0.2,0.4-0.6,0.4c-0.1,0-0.2,0-0.3,0c0,0-0.1,0-0.1,0c-0.1,0-0.2,0-0.3,0.1
	c-0.9,0.4-4.2,2-4.5,2c-0.2,0-0.3-0.1-0.3-0.2c0-0.1,0.1-0.2,0.2-0.3c2.4-1.7,3.5-3,3.8-3.6c0,0,0.1-0.2,0.2-0.2
	C21.2,94.6,22.9,95.9,22.9,96.5z M16.8,100.2c0-0.1,0-0.2,0.3-0.2c0.1,0,5.9,0.4,5.9,2.6c0,0.6-0.4,1-0.9,1c-0.4,0-0.8-0.2-1.2-0.6
	c-1-1.1-2.6-1.9-3.9-2.5C17,100.5,16.8,100.4,16.8,100.2z M3.9,94.9c1.2,0,4.2,0.7,4.2,2.4c0,0.6-0.4,1-0.9,1
	c-0.4,0-0.8-0.3-1.1-0.7l0,0c-0.5-0.8-1.5-1.7-2.1-2.1c-0.1-0.1-0.1-0.1-0.2-0.2c-0.1-0.1-0.2-0.1-0.2-0.2C3.7,95,3.7,94.9,3.9,94.9
	z M44.8,108.2c0,0.5-3.7,5-8,5c-4.7,0-5.4-4.5-5.4-7.2c0-1.3,0.1-2.7,0.3-4c0.1-1.3,0.3-2.6,0.3-3.9c0-1-0.1-2.2-0.6-2.8
	C31.1,95,31,94.9,31,94.7c0-0.1,0-0.3,0.4-0.3c0.1,0,2.7,0,2.7,2.7c0,0.2,0,0.5-0.1,0.8c-0.1,0.5-0.2,1.1-0.3,1.8
	c-0.4,1.9-0.8,4.5-0.8,6.7c0,1.2,0,5,4.2,5c2.2,0,4.8-1.1,7-3.1c0.1-0.1,0.4-0.3,0.5-0.3C44.7,108,44.8,108.1,44.8,108.2z
	 M61.7,98.6c0.1-0.5,0.1-0.8,0.1-1.1c0-2-1.2-2.5-1.9-2.5c-0.8,0-1.1,0.5-1.1,0.6c0,0.2,0.2,0.3,0.4,0.3c0.1,0,0.3,0.1,0.4,0.1
	c0.3,0.3,0.5,1,0.5,1.9c0,0.2,0,0.4,0,0.7c-1.7,0.1-3.5,0.8-5,2c-0.2-0.4-0.3-0.8-0.4-1.1c-0.2-0.5-0.4-1-0.5-1.4
	c-0.5-1-1.5-1.5-1.8-1.5c-0.2,0-0.3,0.1-0.3,0.3c0,0.2,0.1,0.3,0.2,0.5c0.3,0.7,0.7,1.8,1.1,2.8c0.2,0.5,0.4,1,0.6,1.5
	c-1.6,1.7-2.5,3.7-2.5,5.4c0,1.8,1.1,2.9,2.1,2.9c2,0,4.2-2.9,4.6-3.5c0.6,0.2,1,0.3,1.3,0.3c0.5,0,0.9-0.3,0.9-0.7
	c0-0.2-0.1-0.7-1.2-1.1c1-1.7,1.9-3.6,2.4-5.3c2.4,0.5,4,2.4,4,4.8c0,4.3-4.9,6.7-7.9,7.5c-1.1,0.3-1.1,0.5-1.1,0.6
	c0,0.2,0.3,0.2,0.5,0.2c2.9,0,10.3-2.4,10.3-8.1C67.3,101.6,64.9,99,61.7,98.6z M57,106c-1.4,1.9-2.9,2.4-3.2,2.4
	c-0.7,0-1.2-0.9-1.2-2c0-1.1,0.6-2.5,1.7-3.7C55.1,104.1,56,105.3,57,106z M59.9,99.7c-0.3,1.6-1,3.3-2,4.9
	c-0.9-0.5-1.8-1.6-2.5-3.2C56.8,100.4,58.4,99.8,59.9,99.7z M83.8,102.6c-1.2,0-2.5,0.3-3.5,0.9c0.8-1.1,3.1-4.1,4.6-5.3
	c0.5-0.4,1-0.8,1-1.3c0-0.6-1-1.6-2.2-1.6c-1.3,0-2.5,0.8-3.4,1.5c-0.2,0.2-0.6,0.3-0.9,0.3c-0.2,0-0.4,0-0.6-0.1l-0.1,0
	C78.6,97,78.5,97,78.3,97C78,97,78,97.4,78,97.5c0,0.9,0.7,1.5,1.7,1.5c0.9,0,1.5-0.7,2-1.3c0.4-0.5,0.8-0.9,1.3-0.9
	c0.2,0,0.5,0.1,0.5,0.3c0,0.1,0,0.2-0.2,0.5c-0.4,0.6-4.8,6.7-5.8,7.8c-1.7,2-2,2.6-2,3c0,0.5,0.3,0.9,0.8,0.9
	c0.4,0,0.8-0.3,1.1-0.7c0.1-0.1,0.3-0.5,0.4-0.8c0.1-0.3,0.2-0.5,0.3-0.7c1.6-2.8,3.7-3.3,5.2-3.3c2.4,0,3.8,1.8,3.8,3.5
	c0,1.6-1,3.5-3.8,4.2c0.1-0.2,0.1-0.4,0.1-0.6c0-1.4-1.2-2.6-2.7-2.6c-1.2,0-2.4,0.7-2.4,1.9c0,1.6,2,2.6,3.9,2.6
	c4.2,0,6.8-2.8,6.8-5.5C88.9,105.5,87.6,102.6,83.8,102.6z M80.4,109.4c0.8,0,1.4,0.7,1.4,1.5c0,0.3,0,0.5-0.1,0.7
	c-1.1-0.1-2.3-0.6-2.3-1.4C79.4,110,79.5,109.4,80.4,109.4z M109.3,92.6c0.1,0.1,0.1,0.3,0.1,0.4c0,0.6-0.2,0.7-0.4,0.7
	c-0.7,0-2.1-0.1-3.3-0.1c-0.5,0-1.1,0-1.5,0c-0.1,0-0.1,0-0.1,0.2c0,1.3,0,3.8,0,6.8c0,4.6,0,9.4,0.1,12.4c0,0.4-0.2,0.5-0.7,0.5
	c-0.3,0-0.7,0-0.7-0.5c0.1-2.4,0.2-6.8,0.2-11.4c0-4.3-0.1-7.2-0.2-8.6l0-0.1c0-0.4,0.3-0.7,0.7-0.7l0.7,0c1.9,0,3,0.1,4.9,0h0
	C109.1,92.4,109.3,92.4,109.3,92.6z M130.6,107.7c0,0.6-0.5,1.2-1,1.2c-0.3,0-0.7-0.2-1-0.7l0,0c-0.9-1.5-2.4-2.9-3.7-3.7
	c-0.4-0.2-0.5-0.4-0.5-0.5c0-0.1,0-0.2,0.2-0.2C125.7,103.8,130.6,105.7,130.6,107.7z M122.9,101.6c0,0.7,0,1.6,0,2.4
	c0,0.8,0,1.7,0,2.4c0,0.6,0.1,1,0.1,1.4c0.1,0.5,0.1,0.9,0.1,1.3c0,1.4-0.5,2.5-1.2,2.5c-0.4,0-0.8-0.4-1-1.2
	c-0.1-0.8-0.8-2.1-1.8-3.3c-0.1-0.1-0.2-0.2-0.2-0.3c0-0.1,0.1-0.2,0.2-0.2c0.1,0,0.3,0.1,0.3,0.1c0.2,0.1,0.5,0.3,0.7,0.5
	c0.4,0.3,0.8,0.6,1.1,0.8c0.1,0.1,0.1,0.1,0.1,0.1c0,0,0,0,0-0.1c0-0.5,0-1.4,0-6.1c-0.6,0.1-1.2,0.2-1.8,0.3
	c-0.4,0.1-0.7,0.2-1,0.2c-0.4,0.1-0.7,0.2-1.1,0.2c-1,0-3.3-0.6-3.3-1.7c0-0.5,0.2-0.5,0.4-0.5c0.1,0,0.3,0.1,0.6,0.2
	c1,0.4,1.8,0.5,2.8,0.5c0.4,0,0.6,0,3.5-0.3V99c0-1.3-0.4-1.9-1.3-1.9c0,0-0.1,0-0.1,0c0,0-0.1,0-0.2,0c-0.2,0-0.5-0.2-0.5-0.4
	c0-0.2,0.2-0.8,1.1-0.8c0.7,0,2.8,0.7,2.8,1.7c0,0.2-0.1,0.4-0.1,0.6c-0.1,0.3-0.2,0.5-0.2,0.9c0,0.3-0.1,0.8-0.1,1.3
	c0.7-0.1,1.2-0.2,1.7-0.2c0.5-0.1,0.8-0.2,1-0.3c0.3-0.1,0.6-0.3,1.1-0.3c1.3,0,2.9,0.6,2.9,1.4c0,0.3-0.3,0.7-1,0.7
	c-0.1,0-0.3,0-0.4,0c-1.5-0.3-3.1-0.3-4.9-0.1L122.9,101.6z M118.4,104.7c0,2.7-2.9,4.9-4.1,4.9c-0.6,0-1.1-0.4-1.1-0.9
	c0-0.4,0.3-0.9,0.9-1.1c1.9-0.9,3-1.9,3.5-3.2c0.1-0.2,0.2-0.4,0.4-0.4C118.4,103.9,118.4,104.4,118.4,104.7z M153.3,100.9
	c0,0.4-0.4,0.8-1,0.8c-0.1,0-0.2,0-0.4-0.1c-1.1-0.3-2.2-0.4-3.3-0.4c-0.2,0-0.6,0-2,0.1c0.3,0.2,0.5,0.5,0.5,1.1
	c0,0.2,0,0.4-0.1,0.7c-1.4,8-9.5,10.5-10.3,10.5c-0.1,0-0.2-0.1-0.2-0.2c0,0,0-0.2,0.7-0.5c4-1.9,7.9-6.8,7.9-10
	c0-0.6-0.1-0.9-0.4-0.9c0,0,0,0,0,0c0,0-0.1,0-0.1,0c-0.1,0-0.1,0-0.2,0c-0.2,0-0.4-0.1-0.4-0.4c-1,0.2-2,0.4-2.8,0.7l-0.2,0.1
	c-0.5,0.2-0.8,0.3-1.2,0.3c-1.1,0-3.3-0.7-3.3-1.9c0-0.4,0.3-0.4,0.4-0.4c0.2,0,0.3,0.1,0.6,0.2c0.5,0.2,1.5,0.4,2.3,0.4
	c0.2,0,0.4,0,0.6,0c0.5-0.1,1-0.2,1.5-0.2c2-0.3,4.2-0.7,6.6-1c0.4,0,0.7-0.1,0.9-0.3c0.3-0.1,0.6-0.2,1-0.2
	C151,99.3,153.3,99.9,153.3,100.9z M139.8,96.3c0-0.2,0.2-0.4,0.4-0.4c0.1,0,0.2,0,0.2,0.1l0.1,0c0.4,0.3,1,0.4,1.8,0.4
	c1.2,0,2.6-0.3,3.6-0.5l0.5-0.1c0.2,0,0.4-0.1,0.6-0.2c0.3-0.1,0.6-0.2,1.1-0.2c0.8,0,2,0.4,2,1c0,0.4-0.5,0.7-1.2,0.7
	c-1.2,0-2.8,0.3-4.1,0.5c-0.6,0.1-1.2,0.2-1.6,0.3c-0.3,0-0.6,0-0.8,0C140.2,97.9,139.8,96.7,139.8,96.3z M179.1,99.1
	c0,0.8-3.2,6.3-8.1,9.6c-0.1,0.1-0.2,0.2-0.3,0.3c-0.3,0.3-0.7,0.7-1.1,0.7c-0.9,0-1.8-1.6-1.8-2c0-0.1,0-0.3,0.1-0.5
	c0.1-0.2,0.1-0.4,0.2-0.8c0.3-1.9,0.4-3.5,0.4-4.7c0-1.7-0.3-2.7-1-2.9c-0.5-0.2-0.7-0.3-0.7-0.5c0-0.3,0.6-0.5,1.2-0.5
	c1.2,0,2.3,1.4,2.3,2.5c0,0.2,0,0.5-0.1,0.7c-0.3,1-0.6,5.5-0.6,6c0,0.1,0,0.2,0.1,0.2c0.5,0,5.4-3.1,8.6-7.6
	c0.4-0.6,0.5-0.7,0.6-0.7C178.9,98.9,179.1,98.9,179.1,99.1z M166.5,101.5c0,0.4-0.1,0.8-0.2,1.2c-2,6-7.7,9-8.8,9
	c-0.2,0-0.2-0.1-0.2-0.2c0-0.2,0.3-0.4,0.5-0.5c3.2-1.7,6.8-7.1,6.8-9.4c0-1.2-0.9-1.3-1.3-1.3c-0.5,0-0.5-0.3-0.5-0.4
	c0-0.2,0.3-0.8,1.1-0.8C164.9,99.1,166.5,100.1,166.5,101.5z M187.1,93.4c-0.1,2.4-0.2,6.8-0.2,11.4c0,4.3,0.1,7.2,0.2,8.6l0,0.1
	c0,0.4-0.3,0.7-0.7,0.7l-0.7,0c-0.9,0-1.6,0-2.3,0c-0.8,0-1.6,0-2.7,0.1c0,0,0,0,0,0c-0.1,0-0.3-0.1-0.3-0.2c0-0.1-0.1-0.2-0.1-0.4
	c0-0.6,0.2-0.7,0.4-0.7c0.9,0,2.1,0.1,3.3,0.1c0.5,0,1.1,0,1.5,0c0.1,0,0.1,0,0.1-0.2c0-1.3,0-3.8,0-6.8c0-4.5,0-9.4-0.1-12.4
	c0-0.4,0.2-0.5,0.8-0.5C186.7,92.9,187.1,92.9,187.1,93.4z M194.8,108.4c-1.6,0-2.9,1.3-2.9,2.9c0,1.6,1.3,2.9,2.9,2.9
	c1.6,0,2.9-1.3,2.9-2.9C197.7,109.7,196.4,108.4,194.8,108.4z M194.8,109.5c1,0,1.9,0.8,1.9,1.9c0,1-0.8,1.8-1.9,1.8
	c-1,0-1.8-0.8-1.8-1.8C193,110.4,193.8,109.5,194.8,109.5z"/>
</svg>
