<svg xmlns="http://www.w3.org/2000/svg" viewBox="0 0 692.9 17" style="enable-background:new 0 0 692.9 17" xml:space="preserve"><path d="M1.7 6.8c-.3-.4-1-1-1.5-1.3-.1-.1-.2-.1-.2-.2s.7-.1.8-.1c1.3 0 2.2.5 2.2 1.2 0 .4-.3.7-.6.7-.2 0-.4-.1-.7-.3zm.2 8.4V15c0-.5.2-1.1.2-1.6 0-.8-.3-1.4-1.5-1.7-.3-.1-.4-.1-.4-.2s.2-.1.4-.1c.7 0 1.1-.1 1.5-.8.7-1.3 3.7-7.2 4-7.2v.1c0 .1 0 .2-.1.4-2.7 5.9-3.2 7.5-3.2 9 0 .7.1 1.3.3 1.8.4 1.2-.1 1.9-.6 1.9-.3-.1-.6-.5-.6-1.4zM3.1 3c-.2-.4-.8-1-1.3-1.4-.2-.1-.3-.2-.3-.2h.3c1.1 0 2.7.5 2.7 1.5 0 .4-.3.7-.7.7-.2 0-.4-.2-.7-.6zm1.3 6.5c0-.1 0-.1.1-.3.8-.9 1.9-3 2.6-5.1.1-.3.1-.7.1-1 0-.1 0-.1.1-.1s1.8.5 1.8.9c0 .1-.1.2-.4.2-.3 0-.3.1-.4.3-2.1 4.4-3.8 5.2-3.9 5.1 0 .1 0 .1 0 0zm7.8 6.4v-.7H7.7v.9c0 .5-.4.6-.7.6s-.5-.1-.5-.5v-.1c.1-1.6.1-2.8.1-3.7 0-1 0-2.3-.2-3.3v-.2c.1 0 1.3.5 1.7.8h3.7c.1 0 .2-.1.3-.1.3-.6.5-.6.5-.6.2 0 1.5.7 1.5 1.1 0 .2-.2.3-.4.4-.4.2-.4.2-.4 1.5 0 1 .1 2.5.1 3.8 0 .5-.4.7-.7.7s-.5-.2-.5-.6zM10 2.4c-.3 0-1.1.1-1.9.1-.3 0-.8-.6-.8-.8 1.2.2 2.5.2 2.7.2h1c.1 0 .2-.1.3-.1.4-.5.5-.5.5-.5.2 0 1.2.6 1.2 1 0 .2-.2.3-.5.4-.5.1-.7.1-.7.3 0 0 .9 3.7 4.5 5 .1 0 .1.1.1.1 0 .1-1.4.2-1.9.6-.1.1-.1.1-.2.1-.3 0-2.6-2.3-3.2-6 0-.2-.2-.3-.3-.3H10zm2.2 12.3v-4.4c0-.1 0-.2-.3-.2H8.1l-.1.1c-.3.2-.3.1-.3.7v3.7h4.5zm5.3 1.2c0-.1 0-.1.1-.2.3-.7 1.2-3.2 1.2-5v-.2c.2 0 1.8.5 1.8.8 0 .1-.1.2-.4.3-.3.1-.3.2-.4.4-.9 2.6-2 4-2.3 3.9.1.1 0 .1 0 0zm2.4-7.5c1-1.4 2.9-4.5 3-5.6 0-.1 0-.2.1-.2.2 0 1.6.7 1.6 1 0 .1-.1.3-.5.3-.2 0-.3.1-.4.3-.9 1.2-2.3 3.1-3.4 4.2 1-.1 2.1-.1 2.9-.3-.2-.4-.4-.8-.6-1.1-.1-.1-.1-.2-.1-.2.3 0 2.1 1.1 2.1 2.1 0 .5-.3.7-.6.7-.4 0-.5-.2-.7-1.2-.3.1-.7.2-1.2.3.1.1.2.1.2.2s-.1.1-.2.2c-.2.1-.2.1-.2 1.7 0 1.5 0 3.7.1 5.1 0 .4-.4.7-.7.7-.3 0-.5-.2-.5-.5V16c.1-1.9.2-3.9.2-5.8V8.9c-.7.2-1.4.4-1.8.5-.2.1-.3.2-.4.2-.3 0-.9-1.2-.9-1.3s.1 0 .1 0c.4 0 .9.1 1.2.1h.7zM21 5.7c0 .4-.3.7-.6.7-.2 0-.5-.1-.6-.5-.4-.7-.9-1.2-1.4-1.5l-.2-.2h.1c.3 0 .9.1 1.3.3.6-1.5 1-2.7 1-3.6 0-.1 0-.2.1-.2s1.7.6 1.7 1c0 .1-.1.3-.5.3-.2 0-.3.1-.4.3-.4.7-1.1 1.7-1.6 2.4 1.1.3 1.1.9 1.1 1zm2.3 7.1c-.2-.8-.6-1.7-1-2.2-.1-.1-.1-.2-.1-.2.4 0 2.2 1.3 2.2 2.4 0 .4-.3.7-.6.7-.1-.1-.4-.3-.5-.7zm2.6-2.3c-.2 0-.8.1-1.4.2-.2 0-.7-.6-.7-.8.8.2 1.6.2 2 .2h.4c.1 0 .1-.1.2-.1.1-.1.3-.3.4-.3.2 0 1.1.6 1.1.9 0 .2-.2.3-.3.3-.1.1-.3.1-.4.4-1.3 3.5-4.1 5-4.6 5h-.1c0-.1.1-.1.2-.3 2.5-1.6 3.6-5.1 3.6-5.3 0-.1 0-.1-.1-.1h-.3zm5-2.2V8h-1.6.1c.2.1.3.1.3.2s-.1.2-.3.3c.2.9.5 1.8.9 2.7.2-.1 1.7-1.3 2-2.1 0-.1 0-.1.1-.1.2 0 1.4 1 1.4 1.3 0 .1-.1.2-.4.2h-.6c-.1 0-.2 0-.3.1-.6.2-1.5.6-2.2.9.9 1.7 2.3 3 4.1 3.6.1 0 .2.1.2.1 0 .1-1.3.2-1.9.6-.1.1-.1.1-.2.1s-2.6-1.8-3.5-7.1c-.1.1-.1.6-.1 1.1 0 1.1.1 3.3.1 3.9 0 .3.1.8.1 1.2 0 1.3-1.4 1.8-1.9 1.8-.1 0-.2-.1-.3-.2-.3-.4-1.9-1.1-1.9-1.2h.4c.7.1 1.2.2 1.7.2 1 0 1.1-.5 1.1-1.3 0-1.3-.1-5.8-.2-6.2h-1.6v.3c0 .3-.3.5-.6.5s-.5-.1-.5-.4v-.1c.1-1.1.1-3 .1-3.7 0-.2 0-1.7-.2-2.4v-.1c.1 0 1.1.5 1.6.8h.6c.1-.4.3-1.3.3-2V.6c0-.1 0-.1.1-.1.2 0 1.8.6 1.8.9 0 .2-.2.3-.6.3-.2 0-.3.1-.3.3-.3.4-.5.7-.8 1h2.5c.1 0 .2 0 .2-.1.3-.4.4-.5.6-.5.2 0 1.4.7 1.4 1 0 .2-.2.3-.4.4-.3.1-.3.2-.3 1.1 0 1 .1 2.7.1 3.4 0 .3-.3.6-.7.6-.1-.1-.4-.3-.4-.6zm-4.5-2.7v1.9H31V5.6h-4.6zm.6-2.3c-.1.1-.2.1-.3.2-.2.1-.2.8-.2 1.6H31c0-1.6 0-1.8-.3-1.8H27zM45.1 5c.3-.2.6-.4 1-.4.2 0 .5.1.5.4 0 .6-1.4 1-1.8 1.1-.1.6-.1 1.3-.1 1.9v.6c1-.3 1.5-.7 1.5-.9 0-.2-.4-.6-.8-.8l-.1-.1h.2c.4.2 1.1.5 1.5.5.4 0 .6.2.6.5 0 .8-2.3 1.7-3 1.9 0 .6.1 1.3.2 1.9.1.5.2 1.1.2 1.7 1.8.6 2.7 1.8 2.7 2.3 0 .4-.2.6-.5.6-.2 0-.5-.1-.7-.5-.4-.5-.9-1-1.5-1.4-.4 1.3-1.9 2.3-3.2 2.3-1.4 0-2.3-1-2.3-1.8 0-1.4 2.2-1.8 3.6-1.8.3 0 .6 0 .9.1 0-.5 0-.9-.1-1.4 0-.5-.1-1.1-.1-1.7-1 .3-2 .3-2.1.3-2.3 0-2.9-1.2-2.9-1.3 0-.1.1-.1.1-.1.1 0 .3.1.4.1.7.3 1.4.4 2.1.4 1 0 1.9-.2 2.3-.3 0-.9 0-1.8.1-2.6h-.4c-2.2 0-2.7-1.4-2.7-1.8 0-.1 0-.1.1-.1s.2.1.3.2c.6.3 1.4.8 2.3.8h.6c0-.3.1-.6.1-.8.1-.4.2-1.4.2-1.9 0-.7-.2-.7-.5-.8-.3-.1-.4-.2-.4-.3 0-.1.4-.5.8-.5.5 0 1.2.8 1.2 1.3 0 .3-.1.5-.2.9 0 0-.1.2-.4 1.8l.3-.3zm-2.6 8.6c-.5 0-2.4.1-2.4 1 0 .4.5.9 1.5.9s2.1-.6 2.4-1.7c-.5-.1-1-.2-1.5-.2zm19.9 1.3c2.2-.5 3.1-1.9 3.1-3.2 0-1.4-1.1-2.8-2.9-2.8-1.3 0-2.8.5-4 2.6-.2.3-.5.9-.6 1.1-.3.4-.5.5-.8.5-.3 0-.5-.2-.5-.5s.2-.7 1.5-2.2c.7-.8 4-5.4 4.3-5.9.1-.2.2-.3.2-.5 0-.1 0-.3-.5-.3-.9 0-1.3 1.7-2.5 1.7-.6 0-1.1-.4-1.1-1 0-.1 0-.3.1-.3s.2.1.3.1c.2.1.3.1.5.1.3 0 .5-.1.7-.3.5-.4 1.5-1.1 2.5-1.1.8 0 1.6.7 1.6 1.1 0 .3-.3.6-.7.9-1.5 1.1-3.7 4.3-3.7 4.3h.1c.8-.5 1.9-.8 2.9-.8 2.6 0 3.7 1.9 3.7 3.3 0 2-1.9 4.1-5 4.1-1.3 0-2.8-.7-2.8-1.8 0-.8.8-1.3 1.7-1.3 1.1 0 1.9.9 1.9 1.8v.4zm-1-.5c0-.7-.5-1.2-1.2-1.2-.8 0-.8.5-.8.7 0 .7 1 1.1 1.9 1.1.1-.2.1-.4.1-.6zM80 15.5c-2.8 0-5.2-1.3-5.2-2.9 0-1 .8-1.7.9-1.7.1 0 .1.1.1.1 0 .1-.1.3-.1.4-.2.3-.3.6-.3.8 0 1.2 2 2.1 4.1 2.1.5 0 1-.1 1.5-.2.8-.2 1.2-.4 1.7-.5h.4c.6 0 .9.2.9.6.1.6-1.7 1.3-4 1.3zm2-10.4c-.4 0-1.8.3-3.2 1.4-.2.2-.4.2-.4.2-.1 0-.1 0-.1-.1s.1-.2.2-.3c.3-.3 1-1.2 1-1.3h-1.1c-1.8-.2-2.5-1.3-2.5-1.4 0 0 0-.1.1-.1s.3.1.6.2c.7.2 1.5.3 2.3.3h1.7c.3 0 .5-.1.8-.1.8 0 1.4.5 1.4.8 0 .2-.2.4-.8.4zm2-.9c-.5-.6-1.1-1-1.5-1.3-.1-.1-.3-.1-.3-.2s.7-.1.7-.1c1.4 0 2.1.6 2.1 1.2 0 .3-.2.6-.5.6-.2.1-.4 0-.5-.2zm1.8-.8c-.5-.5-1.1-1-1.6-1.2L84 2c0-.1.5-.1.8-.1.8 0 2 .3 2 1.2 0 .3-.2.6-.5.6-.1-.1-.3-.2-.5-.3zm10.1 3.4c0-.9.2-1.9.3-2.6.1-.5.1-.8.1-1.2 0-.7-.2-.9-.9-1.1-.2 0-.3-.1-.3-.2 0-.2.3-.5.7-.5.5 0 1.7.6 1.7 1.7 0 .4-.2.8-.2 1.1-.2.8-.5 2-.5 2.9 0 .9.3 1.7 1.2 1.9.9-.4 1.3-.4 1.6-.4.7 0 .8.4.8.6 0 .7-.9.9-1.4.9h-.4c-1.5 0-3.9 1.4-3.9 3.1 0 1.1.9 2.1 2.8 2.1.8 0 1.7-.2 2.4-.5.2-.1.4-.1.6-.1.4 0 .7.3.7.6 0 .9-1.9 1.3-3.2 1.3-3.1 0-4.1-1.9-4.1-3.1 0-1.5 1.3-3.1 3.2-3.9-.9-.5-1.2-1.5-1.2-2.6zm12.6 6c0-.3.2-.5.6-.8 1.5-.7 2.3-1.4 2.7-2.5.1-.2.1-.3.2-.3 0 0 .1 0 .1.5 0 1.9-2.1 3.5-2.9 3.5-.4.1-.7-.1-.7-.4zm7-5.5V11c0 .9.2 1.4.2 2 0 1.1-.4 1.8-.8 1.8-.3 0-.5-.3-.6-.8-.1-.7-.7-1.7-1.4-2.6-.1-.1-.1-.1-.1-.2s0-.1.1-.1.1 0 .2.1c.4.2 1 .8 1.4 1 .1 0 .1.1.2.1s.1-.1.1-.2V7.4l-1.5.3c-.8.2-1.1.3-1.5.3-.8 0-2.3-.5-2.3-1.2 0-.3.1-.3.2-.3s.2.1.4.1c.7.3 1.3.4 2.1.4.3 0 .4 0 2.7-.3V5.5c0-1-.3-1.5-1.1-1.5h-.2c-.1 0-.3-.1-.3-.2s.1-.5.7-.5c.5 0 2 .5 2 1.2 0 .3-.2.6-.2 1.1 0 .3-.1.7-.1 1.1.5-.1 1-.1 1.4-.2.9-.1.9-.5 1.6-.5 1 0 2.1.5 2.1.9 0 .2-.2.4-.7.4h-.3c-.6-.1-1.3-.2-2-.2-.6 0-1.1 0-1.7.1l-.6.1zm4.5 5c-.6-1-1.7-2.2-2.8-2.8-.2-.1-.3-.2-.3-.3h.1c.7 0 4.4 1.4 4.4 2.8 0 .4-.3.8-.7.8-.3 0-.6-.2-.7-.5zm13.8-5.1c.3.1.6.3.6.9v.5c-1.1 6-7.1 7.8-7.7 7.8h-.1s.2-.2.4-.3c3.1-1.5 6-5.1 6-7.6 0-.5-.1-.8-.4-.8h-.2c-.1 0-.2-.1-.2-.2v-.1c-.9.1-1.7.4-2.2.6-.4.2-.7.3-1 .3-.8 0-2.3-.5-2.3-1.3 0-.2.1-.2.2-.2s.2.1.4.1c.4.2 1.2.3 1.8.3h.5c1.7-.3 3.8-.7 6-.9.6-.1.9-.4 1.4-.4.4 0 2.1.5 2.1 1.1 0 .3-.3.5-.6.5h-.3c-.8-.2-1.6-.3-2.5-.3-.2 0-.5 0-2 .1l.1-.1zm1.3-4.4c.6 0 1.4.3 1.4.7 0 .2-.3.4-.8.4-1.4 0-3.2.4-4.3.6h-.6c-1.5 0-1.7-1-1.7-1.1 0-.1.1-.2.2-.2s.1 0 .2.1c.3.2.8.3 1.4.3 1 0 2.3-.3 3.1-.5.3 0 .5-.3 1.1-.3zm7.7 12.1c0-.1.1-.2.3-.3 2.3-1.2 5.2-5.3 5.2-7.1 0-1-.8-1.1-1.1-1.1-.2 0-.3-.1-.3-.2s.2-.5.8-.5c.7 0 1.9.8 1.9 1.7 0 .3-.1.6-.2.8-1.5 4.5-5.7 6.7-6.6 6.7.1 0 0 0 0 0zm9.2-1.5c-.6 0-1.2-1.2-1.2-1.4 0-.2.1-.4.2-.9.2-1.5.3-2.7.3-3.5 0-1.5-.3-2.1-.8-2.2-.3-.2-.5-.3-.5-.4 0-.1.4-.3.8-.3.8 0 1.6 1 1.6 1.8 0 .1 0 .3-.1.5-.3.8-.5 4.2-.5 4.5 0 .2.2.2.2.2.3 0 4.1-2.3 6.5-5.7.2-.3.3-.5.4-.5v.1c0 .5-2.3 4.6-6 7.1-.1.1-.5.7-.9.7zm11.4 1.9c-.2.1-.4.1-.5.1h-.1c0-.1.2-.2.5-.3 5-2.2 8.4-8.9 8.4-9.3 0-.3-.2-.4-.5-.4-.9 0-3.3.7-4 .9-.8.2-1.2.4-1.6.4-.7 0-2.4-.9-2.4-1.4 0-.3.1-.4.3-.4.1 0 .3.1.3.2.2.3.8.4 1.5.4.4 0 .8 0 1.2-.1.7-.1 3.4-.5 4.2-.6.5-.1.7-.5 1.1-.5.5 0 2.1.6 2.1 1.1 0 .2-.1.3-.4.5-.3.2-.5.3-.8.8-2.2 4.1-5.1 7.3-9.3 8.6zm10.9-11c-.9 0-1.6-.7-1.6-1.6 0-.9.7-1.6 1.6-1.6s1.6.7 1.6 1.6c.1.9-.7 1.6-1.6 1.6zm1.1-1.6c0-.6-.5-1.1-1.1-1.1-.6 0-1.1.5-1.1 1.1s.5 1.1 1.1 1.1c.7 0 1.1-.5 1.1-1.1zm15.3 5.1c-2.6 4.7-5.7 6.9-9.2 7.8-.2.1-.4.1-.5.1h-.1c0-.1.2-.2.5-.3 4.9-2.1 8.2-8.1 8.2-8.4 0-.2-.2-.4-.5-.4-.1 0-2 .2-3.9.8-.7.2-1.1.4-1.6.4-1 0-2.3-.9-2.3-1.3 0-.3.1-.4.3-.4.1 0 .2.1.3.2.1.2.7.3 1.4.3.4 0 .9 0 1.3-.1.7-.1 3.2-.4 4.1-.5.5 0 .7-.5 1-.5.5 0 2.1.5 2.1 1 0 .1-.1.3-.4.5-.2.3-.5.3-.7.8zm-1.9-5.2c.2 0 1.3.1 1.3.7 0 .3-.3.5-.8.5-1.3.1-2.8.4-4.2.6-.2 0-.4.1-.5.1-1 0-1.7-.5-1.7-1 0 0 0-.3.2-.3.1 0 .2.1.3.1.3.2.8.3 1.3.3.8 0 1.8-.2 2.5-.4.6-.1.8-.6 1.6-.6zm12.7 4.9c-.9-.9-1.9-1.3-3-1.7l-.2-.1c0-.1.5-.1 1.2-.1 2.4 0 3.4.8 3.4 1.6 0 .2-.1.8-.6.8-.3-.2-.5-.3-.8-.5zm10-2.9c0 .4-2.8 5.4-9 9.4-.5.3-.6.8-1.1.8-.5 0-2.1-.8-2.1-1.7 0-.1 0-.6.2-.6.1 0 .1.1.3.2.2.3.5.4.9.4 2.2 0 8.5-5.9 10.5-8.3.2-.1.3-.2.3-.2zm13.8 2.9c0-2.8 0-5.3-.1-6.4 0-.2.2-.4.5-.4h2.2c.6 0 1.3 0 2-.1 0 0 .1 0 .1.1V1c0 .1 0 .4-.2.4-.5 0-1.5-.1-2.5-.1h-1.1c-.2 0-.2.1-.2.2v5.1c0 3.1 0 6.9.1 9.3 0 .2 0 .3-.4.3-.3 0-.5 0-.5-.3 0-1.9.1-5.3.1-8.4zm15 4.8c1.2 1.7 4.1 3.2 7.7 3.2h.1c.1 0 .2 0 .2.1s-1.5.7-2 1c-.1.1-.2.1-.3.1-.9 0-4.8-1.2-6.1-4.4h-.1c-1.2 3.5-6.3 4.6-8.1 4.6-.3 0-.4 0-.4-.1s.2-.1.4-.2c3.5-.4 6.2-2.3 6.9-4.3h-1.1c-1 0-3.5 0-5.1.2-.3 0-.9-.7-.9-.9 1.8.2 5 .3 6 .3h1.1l.1-.3c0-.3.1-.6.1-.9v-.6c0-.1 0 0 0 0 .6 0 1.9.2 1.9.5 0 .1-.1.2-.4.3-.3.1-.3 0-.5.8v.2h5.3c.1 0 .2-.1.3-.2.7-.9.8-1 .9-1 .4 0 1.5 1.2 1.5 1.4 0 .1-.1.2-.3.2h-7.2zm-.3-5.5v.8h.1c1 .1 2.9.3 2.9 1.4 0 .3-.2.6-.5.6-.2 0-.4-.1-.7-.4-.4-.6-1.2-1.1-1.8-1.4 0 0-.1 0-.1-.1 0 .5 0 1.1.1 1.6 0 .4-.3.5-.6.5-.2 0-.4-.1-.4-.5 0-.5.1-1 .1-1.5-1.2 1.3-2.8 2.1-3.8 2.3v.5c0 .3-.4.5-.7.5-.2 0-.5-.1-.5-.4.1-1.8.1-5.6.1-6.7 0-.4 0-1.4-.1-2v-.2s.9.3 1.5.7h2.2c.1-.3.3-1.2.3-1.8V0c0-.1 0-.1.1-.1s2.1.5 2.1 1c0 .1-.2.3-.6.3-.2 0-.3.1-.4.3-.3.4-.6.8-.9 1.1h5.1c.1 0 .2 0 .2-.1.1-.1.3-.3.3-.4.1 0 .1-.1.2-.1.2 0 1.3.6 1.3 1 0 .2-.2.3-.3.4-.3.2-.3.2-.4.5v.7c0 1.4 0 4.3.1 6 0 .3-.3.5-.6.5s-.5-.1-.5-.4V3.2c0-.1-.1-.2-.2-.2h-8.1l-.1.1c-.2.1-.3.1-.3.4v6.3c1.1-.6 2.9-2.1 3.6-3.1-.7 0-1.5.1-2.5.1-.3 0-.8-.6-.8-.8 1.2.1 2.6.2 3.5.2 0-1.9-.1-2.6-.2-2.7v-.1h.1c.2 0 1.6.3 1.6.6 0 .1-.1.2-.2.3-.3.2-.4.1-.4.6v1.4h.2s.1-.1.1-.2c.9-1.2 1.2-2 1.3-2.4 0-.1 0-.1.1-.1 0 0 1.2.7 1.2 1 0 .1-.1.2-.3.2h-.2c-.1 0-.2.1-.3.1-.4.4-1.1 1-1.6 1.3l-.1.1h1.4s.1-.1.2-.1c.1-.2.5-.6.6-.6h.1c.4.2 1.1.7 1.1 1 0 .1-.1.2-.3.2H240zm-2.6-1.3c-.2-.3-.6-.8-.9-1.1l-.1-.1c0-.1.1-.1.2-.1.8 0 1.9.4 1.9 1.1 0 .3-.3.6-.5.6s-.4-.1-.6-.4zm18.9-2.8c-.6.7-1.3 1.3-2 1.9.3 0 .5-.1.8-.1 1 0 1.6.4 1.6.9 0 .3-.2.5-.5.5-.2 0-.4-.1-.6-.3-.4-.4-1-.7-1.5-.9-2.1 1.8-3.6 2.5-3.7 2.5 0-.1.1-.2.4-.4 2.3-1.8 5.1-5.2 5.5-6.1 0-.1 0-.2.1-.2.3 0 1.7.7 1.7 1 0 .1-.2.2-.4.2h-.2c-.3 0-.3.1-.5.3l-.1.1h2.8c.2 0 .2-.1.3-.1.2-.2.3-.2.4-.3h.1c.2 0 1.5.7 1.5 1.1 0 .1-.1.2-.4.3-.4.1-.6.2-.8.5-3 3.7-6.2 6-9.9 7-.4.1-.6.1-.7.1h-.1s.2-.2.7-.3c5.2-1.9 9-7.4 9-7.6 0 0 0-.1-.2-.1h-3.3zm2.3 6.1c-.7.7-1.5 1.3-2.4 2 .3-.1.6-.1 1-.1 1.1 0 1.9.4 1.9 1.1 0 .3-.3.6-.6.6-.2 0-.4-.1-.7-.3-.4-.4-1.1-.9-1.7-1.1h-.1c-2.6 1.8-4.3 2.4-4.4 2.4 0-.1.1-.2.5-.3 3-1.8 6.4-5.2 7-6.4.1-.1.1-.2.1-.2.2 0 1.7.8 1.7 1 0 .1-.2.2-.6.2-.3 0-.4.1-.6.3-.2.1-.3.3-.5.4h3.6c.2 0 .2-.1.3-.2.3-.3.4-.4.5-.4.3 0 1.5.8 1.5 1.1 0 .1-.1.3-.4.3-.4.1-.6.1-.8.5-4.2 5.5-9.2 6.6-12.7 6.9h-.5c-.2 0-.3 0-.3-.1s.3-.1.8-.2c3-.5 7.7-2 11.6-7.3.1-.1.1-.1.1-.2 0 0-.1-.1-.2-.1h-4.1zm11.9-5.6c-.4.3-.4.3-.4.7V6c0 .9 0 2-.1 3 1.2-.8 2.7-2.5 2.9-3.3-.6 0-1.1.1-1.7.1-.2 0-.6-.5-.6-.7 1.1.2 1.9.2 2.4.2v-.2c0-.4 0-1-.1-1.4v-.1c.2 0 1.5.3 1.5.5 0 .1-.1.2-.2.3-.3.2-.4.1-.4.6v.3h.5s.1-.1.2-.1c.3-.4.4-.6.5-.6h.1c.5.3.9.6.9.9 0 .1-.1.2-.3.2h-2v.6c.6 0 2.1.1 2.1.9 0 .3-.2.5-.5.5-.1 0-.3-.1-.5-.3-.3-.4-.7-.8-1.2-1 0 .8 0 1.6.1 2.6 0 .4-.3.5-.5.5s-.4-.1-.4-.4V9c.1-.9.1-1.6.1-2.2-.8 1.2-2.1 2-3 2.4-.6 6-3.4 7-3.4 7h-.1c0-.1.1-.2.4-.5 1.7-1.8 2.1-5.3 2.1-8.5 0-3.4-.3-4.9-.4-5.2v-.2c.3 0 1.5.6 1.8.8 0 0 .1 0 .1.1h4.3v-.2c0-.7-.1-1.4-.2-1.9V.5s2.1.3 2.1.7c0 .1-.1.2-.3.3-.4.3-.5.1-.5.7v.5h3.7c.1 0 .3-.1.3-.2.6-.9.7-1 1-1h.1c.4.1 1.6 1.1 1.6 1.4 0 .1-.1.2-.4.2h-11.6zm6.1 10.8c0 .3.1.7.1 1 0 1.4-1.5 1.7-2 1.7-.1 0-.2-.1-.3-.2-.2-.4-2-1.1-2-1.2H272.7c.7.1 1.3.2 1.8.2.7 0 1.1-.2 1.1-.7v-.9h-.6c-.9 0-3.1 0-4.8.2-.3 0-.8-.6-.8-.8 2 .2 4.7.3 5.7.3h.5v-1.4h-.4c-.8 0-2.4 0-3.9.2-.3 0-.8-.6-.8-.8 2 .2 3.9.2 4.8.2h.3v-.4c0-.3 0-.6-.1-.9-1.1.1-2.3.1-3.4.1-1.7 0-1.9-.1-1.9-.2 0 0 .1-.1.3-.1 2.3-.1 6.1-.5 8-1 .4-.1.8-.3.9-.4.1 0 .1-.1.1-.1s1 .8 1 1.2c0 .1-.1.2-.2.2s-.2 0-.3-.1-.2-.1-.3-.1h-.1c-.6.1-1.6.2-2.6.3.1 0 .1.1.1.1 0 .1-.1.1-.2.2-.3.1-.3.2-.3 1.1h2.1c.1 0 .2-.1.3-.1.3-.3.6-.8.8-.8.2 0 1.5.7 1.5 1.1 0 .1-.1.2-.3.2h-4.3v1.4h3.4c.1 0 .2-.1.3-.2.2-.3.8-.9.9-.9.6 0 1.6 1 1.6 1.3 0 .1-.1.2-.4.2h-5.9zm2.3-8.3c.8 1.2 2.4 2.1 4.3 2.5.1 0 .1 0 .1.1s-1.2.3-1.6.6c-.1 0-.1.1-.1.1s-1.6-.6-2.8-3v.3c0 .6 0 1.3.1 2.3 0 .4-.4.5-.5.5-.2 0-.4-.1-.4-.4v-.1c.1-.8.1-1.3.1-1.8-1.3 1.8-3.5 2.4-3.7 2.4h-.1s.1-.1.3-.2c1.2-.6 2.9-2.2 3.4-3.2-.4 0-.8.1-1.2.1-.2 0-.7-.6-.7-.7.7.1 1.4.2 2.1.2v-.2c0-.4 0-1-.1-1.4v-.1c.2 0 1.5.2 1.5.5 0 .1-.1.2-.2.3-.3.2-.3.1-.4.6v.4h.9c.1 0 .2-.1.2-.1.5-.8.7-.8.8-.8h.1c.5.2 1.2.8 1.2 1 0 .1-.1.2-.4.2h-2.9zm15.9 5.5V14c0 .8.1 1.3 1.9 1.3.3 0 .7 0 1.1-.1 1-.2 1-.7 1.4-2.5 0-.2.1-.2.1-.2.1 0 .2 1.7.5 1.9.3.2.4.4.4.6 0 .1 0 1.2-3.7 1.2-2.1 0-2.8-.5-2.8-2v-.1c0-1 .1-2.1.1-3h-2c-.5 3.3-2.5 4.9-5.7 5.7-.3.1-.5.1-.6.1h-.1c0-.1.2-.2.6-.3 2.5-.8 4.4-2.3 4.8-5.4-1 0-2.2.1-3.3.2-.3 0-.9-.7-.9-.9 1.3.2 3 .2 4.2.3V10c0-.1 0-1.2-.1-1.8-.3 0-.5.1-.7.1-.3 0-.6-.5-.8-.7-2.2 1.8-4.2 2.4-4.4 2.4h-.1c0-.1.2-.2.5-.4 3.9-2.2 6.5-6.8 6.5-7.1 0-.1-.1-.1-.2-.1h-.4c-.5 0-1.7.1-2.7.2-.3 0-.8-.7-.8-.9 1.3.2 3 .3 3.5.3h.6c.1 0 .2-.1.3-.1.2-.1.4-.3.5-.3.1 0 1.2.7 1.2 1 0 .1-.1.2-.2.2.4.5.8 1 1.4 1.5.2-.2 1-1.1 1.6-2.3 0-.1.1-.2.1-.2.1 0 1.5.9 1.5 1.2 0 .1-.1.2-.3.2h-.4c-.1 0-.2.1-.3.2-.5.4-1.1.7-1.9 1.2.4.4 1 .9 1.5 1.3 1-1 1.4-1.4 1.8-2.2.1-.1.1-.2.1-.2.1 0 1.5 1 1.5 1.3 0 .1-.1.2-.3.2-.1 0-.2 0-.3-.1h-.2c-.1 0-.1.1-.3.1-.4.3-1.1.7-1.9 1.1 1.4 1 3.1 1.9 4.7 2.1.1 0 .2 0 .2.1 0 .2-1.5.5-1.9.9-.1.1-.1.1-.2.1-.5 0-4.2-2.3-6.5-6.4-.2.1-.2.1-.3.4-1.1 1.9-2.3 3.3-3.5 4.3 1.3.2 3.1.2 3.9.2h1.1c.1 0 .2-.1.2-.1.2-.3.4-.6.6-.8l.1-.1h.1c.6.3 1.2 1 1.2 1.3 0 .1-.1.2-.3.2h-1.2c.2.1.3.1.3.2s-.1.2-.3.3c-.3.1-.4.2-.4 2.3h1.6c.1 0 .2-.1.3-.2.2-.4.7-.9.9-.9h.1c.6.2 1.5.9 1.5 1.3 0 .1-.1.2-.4.2h-4.1zm-6.4-6c-.3-.5-.8-1-1.4-1.4l-.2-.2h.3c1 0 2.6.5 2.6 1.4 0 .4-.3.7-.6.7s-.5-.2-.7-.5zm5.5 4.5c0-.5 0-.9-.1-1.6h-1.5c.1 0 .2.1.2.2s-.1.2-.3.3c-.2.1-.3.1-.3.6v.6c0 .4 0 .8-.1 1.2h2V9.7zm32.9 5.9c-1 0-3.6 0-5.2.2-.4 0-.9-.7-.9-.9 1.4.2 3.5.2 4.9.3.4-1.5 1-4.4 1.4-6.8-1 0-2.8.1-3.9.2-.3 0-.8-.7-.8-.9 1.3.2 3.6.2 4.8.3.6-3.2.6-4 .6-4.4v-.1c-1.2 0-3.7.1-5.2.2-.3 0-.9-.7-.9-.9 1.8.2 5.4.3 6.4.3h4.4c.1 0 .2-.1.3-.2.5-.7.8-1.2 1-1.2h.1c.6.2 1.6 1.3 1.6 1.6 0 .1-.1.2-.4.2h-5.7c.1.1.2.1.2.2s-.1.2-.3.3c-.1.1-.2.1-.3.1-.1.1-.1.1-.8 4h3.2c.1 0 .2-.1.2-.1.1-.1.4-.5.5-.5s1.6.6 1.6 1c0 .2-.2.3-.4.4-.4.2-.4.3-.4.7-.1 1.1-.1 4.7-.1 5.7h.8c.1 0 .3-.1.3-.2.2-.3.8-1.2 1.1-1.2.3 0 1.7 1.2 1.7 1.6 0 .1-.1.2-.4.2h-9.4zm4.9-.5c.1-1.3.1-4.8.1-6.1v-.5c0-.1 0-.2-.2-.2h-3.4c-.4 2.4-1 5.3-1.3 6.8h4.8zm17-11.4c.1 1.3.4 2.7 1 4 .9-1.2 1.5-2.3 1.6-2.7 0-.1 0-.1.1-.1s1.5.9 1.5 1.3c0 .1-.1.2-.4.2h-.2c-.2 0-.3.1-.4.2-.5.8-1 1.4-1.6 2.1 1 1.4 2.2 1.8 2.3 1.8.5 0 1.1-.8 1.7-2.1.2-.3.2-.2.2-.1 0 .3-.3 1.5-.3 2.2 0 .2 0 .4.1.5.2.2.2.4.2.5 0 .3-.2.6-.7.6-.4 0-2.5-.3-4.1-2.7-2.8 2.6-6.4 2.9-6.8 2.9h-.2c0-.1.3-.1.6-.2 2.5-.5 4.4-1.8 5.8-3.5-.8-1.6-1.2-3.3-1.4-4.6h-5.5l-.1.1c-.2.1-.3.1-.3.5v1c0 2.9-.4 6.2-3.4 8-.3.2-.5.3-.6.3 0-.1.1-.2.4-.4 2.1-1.7 2.5-4.3 2.5-6.9 0-1.7-.2-3.2-.3-3.7v-.2c.2 0 1.5.5 1.9.8 0 0 .1 0 .1.1h5.3c-.1-.5-.3-2.2-.5-2.5 0-.1-.1-.1-.1-.1h.1c.4 0 1.9.2 1.9.6 0 .1-.1.2-.3.3-.3.1-.3.1-.3.5v1.3h2.5c.1 0 .3-.1.3-.2.4-.5.8-1 1-1h.1c.8.3 1.5 1.2 1.5 1.4 0 .1-.1.2-.4.2h-4.8zm-9.6 11.9c0-.3.3-.7.9-.9 1-.3 1.6-1.1 2.1-1.9l.1-.1v.2c0 1.7-1.2 3.3-2.4 3.3-.5 0-.7-.3-.7-.6zm5.9-10c-.5 0-1 0-1.9.2-.2 0-.7-.6-.7-.8 1 .2 2 .3 2.6.3h.3l.2-.1c.2-.3.5-.7.7-.7h.1c1 .5 1.1.9 1.1 1s-.1.3-.3.3H345zm-1 3.9v.7c0 .3-.3.5-.6.5-.2 0-.4-.1-.4-.4v-.1c0-.6.1-1.2.1-2 0-.2 0-.8-.1-1.5v-.1s0-.1.1-.1 1 .3 1.4.5h1.2c.1 0 .2 0 .2-.1.1-.1.2-.3.3-.4.1 0 .1-.1.1-.1.1 0 1.2.5 1.2.9 0 .2-.2.3-.3.4-.3.2-.3.2-.3.6 0 .3.1.5.1.9 0 .3-.3.5-.6.5-.2 0-.4-.1-.4-.4h-2zm4.5 7c-.6 0-1.3.1-1.8.1-2.7 0-3-.7-3-1.3v-.1c0-.5.1-.9.1-1.3 0-.3 0-.8-.1-1.2v-.1h.1c.1 0 1.8.1 1.8.5 0 .1-.1.2-.3.3-.3.2-.3.2-.4.6-.1.5-.1.4-.1.9s.1.7 2.3.7c2.1 0 2.5-.3 2.9-2.2 0-.1.1-.2.1-.2.1 0 .2 1.4.6 1.6.3.2.4.4.4.6-.1.4-1 1-2.6 1.1zm-4.2-8.9c-.1 0-.1 0 0 0-.3.2-.3.2-.3.5v1h1.9V7.7c0-.1-.1-.2-.2-.2h-1.4zm2.9 6.1c-.2-.5-.8-1.1-1.3-1.5l-.2-.2h.1c.3 0 2.7.2 2.7 1.5 0 .4-.3.7-.6.7-.2 0-.5-.1-.7-.5zm3.3-11.6c-.2-.4-.8-1-1.2-1.3-.1-.1-.2-.1-.2-.2 0 0 .1-.1.3-.1.4 0 2.3.2 2.3 1.2 0 .4-.3.7-.6.7-.2.2-.5 0-.6-.3zm2.4 13.1c-.5-1-1.3-1.7-2.1-2.3l-.1-.1h.1c.3 0 3.5.8 3.5 2.3 0 .4-.3.8-.6.8-.3-.1-.6-.3-.8-.7zm11.2-4.1c-1.5.9-2.2 1.9-2.2 2.6 0 .6.6 1.6 2.3 1.6.7 0 1.5-.2 2.1-.5.2-.1.4-.1.5-.1.4 0 .6.2.6.5 0 .7-1.4 1.2-2.8 1.2-2.1 0-3.5-1.3-3.5-2.5s1.2-2.4 2.8-3.4c0-.9-.1-2.7-1.2-2.7-.5 0-1.1.4-1.8 1.4-.1.2-.3.5-.4.8-.3.5-.8 1.4-1.3 1.4-.1 0-.5-.1-.5-.6 0-.3.2-.8.7-1.3 1.6-1.5 2.2-2.5 3-4.3 0-.1.1-.1.1-.2h-.1c-.4.1-.7.1-1 .1-1.8 0-2.2-1.3-2.2-1.6 0 0 0-.1.1-.1s.2.1.4.2c.6.4 1.1.5 1.6.5.1 0 .8 0 1.6-.3.1-.2.1-.4.1-.6 0-.6-.2-1-.7-1.1-.1 0-.3-.1-.3-.2 0-.2.5-.4.8-.4.1 0 .9 0 1 .9H364.4c.3 0 .5 0 .5-.1.1 0 .2-.1.2-.1.2 0 .4.2.4.5 0 .7-1 1.3-2.2 1.7l-.1.1c-.6 1.4-1 2.1-1.5 2.8.4-.2.7-.3 1.1-.3.9 0 1.6.8 1.8 1.9.8-1.9 2.2-3.8 4-3.8 1 0 2.2.7 2.2 1.6 0 .7-.8 1.4-2 1.9s-2.8 1.1-4 1.7c0 .4.1.7.1 1.1v.8c-.1.6-.5 1.1-.8 1.1-.2 0-.4-.2-.4-.7v-.2c0-.5.2-.6.3-1.2l.1-.1zm-.2-8.3v.1c0 .3 0 .5-.1.7.4-.2.7-.4.7-.6 0-.1-.4-.3-.4-.3-.1.1-.2.1-.2.1zm1 7.2c1.1-.6 2.5-1.3 3.6-1.8.8-.4 1.3-.8 1.3-1.3 0-.1-.1-1-1.1-1-1.8 0-3.3 2.7-3.8 4.1zm20.9-4.3c0-.1 0-.1-.1-.1 0 0-.1.1-.1.2v.7c0 3.6-.3 5.8-1.6 7.3-1 1.2-2.5 2-3.9 2-2.3 0-3.4-2.3-3.4-4.4 0-1.4.5-2.7 1-4 .5-1.3 1.2-2.3 1.5-2.8v-.1h-.1c-.4.2-.7.3-1 .3-.6 0-1-.5-1-1 0-.2 0-.5.1-.5s.2.1.3.2c.1.1.4.2.8.2.3 0 1-.1 1.7-.5.4-.3.8-.4 1.2-.4.6 0 1 .3 1 .6 0 .2-.2.4-.5.4-.2 0-.5.1-.7.2-1.3.5-3.4 4.2-3.4 7.1 0 1.7.8 3.4 2.6 3.4 1.1 0 2.4-.7 3.2-1.5.8-.8 1.2-1.8 1.4-2.9.2-1.2.4-4.1.4-4.6 0-.9-.4-1.9-.4-2.7 0-.3 0-1.1.6-1.1.2 0 .5.4.5.8v1.2c0 1.4.7 3.8 2.9 5 .4.2.6.6.6.8 0 .3-.2.6-.6.6-.9.1-2.6-2.6-3-4.4zm11.2.9v-.7c0-1.4 1.2-2 2.3-2.6.1-.1.4-.3.4-.5v-.1c-.1-.4-.4-.6-.4-.8 0-.1-.1-.3-.1-.3h.1c.2 0 2.4 1 2.4 2.2 0 .5-.3.8-.7.8-.2 0-.4-.1-.7-.2-.3-.1-.9-.2-1.2-.2-1 0-1.4.7-1.4 1.2 0 .2 0 .4.1.5.1.3.1.6.1.8 0 .4-.1.8-.3 1.6-.1.7-.3 1.5-.3 2.2 0 1.3.4 1.5.6 1.5.2 0 .4-.1.6-.3.4-.3.9-.8 1.8-1.4.6-.4 1.3-.6 1.9-.6 1.5 0 2.9 1.1 2.9 2.6 0 2.8-3.7 4.5-6.7 4.5h-.2s.2-.1.8-.3c3.4-.8 4.9-2.8 4.9-4.2 0-1.2-1-1.9-2.1-1.9-.4 0-.9.1-1.3.4-.8.6-1.2 1.2-1.9 2.2-.3.4-.5.5-.8.5-.5 0-1.5-.7-1.5-2.7 0-1 .2-2.2.3-3.2.4-.1.4-.6.4-1zm21.7 9c-.2-2.4-2.1-5.1-2.9-6.1-.4-.4-.5-.8-.5-1.2s.1-.8.4-1.3c.5-.9 1.9-2.7 2.5-3.5.2-.3.5-.8.5-1.2 0-.2-.1-.3-.2-.5-.1-.1-.2-.3-.2-.3 0-.1.1-.2.2-.2.5 0 1.4.7 1.4 1.4 0 .4-.3.8-.5 1.1-.8 1-2.6 2.3-3.2 3.5-.1.2-.2.5-.2.8 0 .3.1.6.4.8.5.6 3.6 3.9 3.6 6.3 0 .6-.4 1.1-.8 1.1-.2.1-.4-.1-.5-.7zm11.5.6c-.5-1-1.4-1.7-2.2-2.3-.2-.1-.4-.3-.4-.3h.1c.7 0 3.9.7 3.9 2.3 0 .5-.4.9-.8.9-.1-.1-.4-.2-.6-.6zm16.9-9.4c-.3-.4-1-1-1.5-1.3-.1-.1-.2-.1-.2-.2s.7-.1.8-.1c1 0 2.2.3 2.2 1.2 0 .4-.3.7-.6.7s-.5-.1-.7-.3zm0 7.9v-.2c0-.5.2-1 .2-1.5 0-.7-.3-1.3-1.5-1.6-.3-.1-.4-.1-.4-.2s.2-.1.4-.1c.7 0 1.2-.1 1.5-.8.8-1.7 3-6.2 3.2-6.2v.1c0 .1 0 .2-.1.3-1.1 2.7-2.3 6.1-2.3 8 0 .6.1 1.1.3 1.6.4 1-.1 1.7-.6 1.7-.4 0-.7-.4-.7-1.1zm1.4-11.6c-.3-.5-.8-1.1-1.4-1.5l-.2-.2h.3c1.1 0 2.7.5 2.7 1.5 0 .4-.3.7-.7.7-.3 0-.5-.2-.7-.5zm10.1 7.3h-1c.1 0 .1.1.1.1l-.2.2c-.3.1-.3.1-.3.6v2.2c0 .3.1.8.1 1.2 0 1.4-1.3 1.8-1.8 1.8-.1 0-.2-.1-.3-.2-.2-.3-1.7-1-1.7-1.2H453.8c.6.1 1.2.2 1.5.2.7 0 1-.2 1-.7v-1.7c0-1.2 0-2.1-.1-2.5h-1.4v.3c0 .3-.3.5-.7.5-.2 0-.5-.1-.5-.4v-.1c.1-1.3.1-2.4.1-3.2 0-.3 0-1.9-.2-2.9v-.2s1 .4 1.6.8h.6c.1-.5.2-1.3.2-1.6v-.8H453s-.1.1-.2.1c-.3.2-.3.1-.3.8v.6c-.1 2.6.3 9.2-4.2 11.8-.3.2-.5.3-.6.3 0-.1.1-.2.4-.4 3.1-2.3 3.4-7.1 3.4-10.6v-1c0-.5-.1-2-.2-2.7v-.1c.1 0 1.4.5 1.7.8H458.7c.1 0 .2-.1.3-.1.5-.7.7-1 .9-1 .4 0 1.6 1 1.6 1.3 0 .1-.1.2-.4.2h-4c.6.2.9.3.9.4 0 .1-.1.2-.4.3-.2.1-.3.2-.3.3-.2.4-.5 1-.8 1.4h1.9c.1 0 .2-.1.3-.1.3-.5.4-.5.5-.5s1.3.6 1.3 1c0 .2-.2.3-.4.4-.3.2-.3.3-.3 1.1s.1 2.2.1 3.3c0 .4-.3.6-.6.6s-.5-.1-.5-.5v-.1zm-4.7 1.5c.1 0 1.5.7 1.5 1 0 .1-.1.2-.4.2h-.2c-.1 0-.2 0-.3.2-1.2 1.6-3.7 3-4.1 3h-.1c0-.1.1-.1.3-.2 1.1-.7 3.2-3 3.2-4 0-.2 0-.2.1-.2zm1.3-6s-.1 0 0 0c-.4.3-.3.2-.4.8v.9h3.8V6.1c0-.1 0-.2-.2-.2h-3.2zm-.4 2.1v1.9h3.7V8h-3.7zm5.3 7c-.4-.9-1.2-1.9-2.1-2.7l-.1-.1h.1s3.3 1.1 3.3 2.6c0 .5-.3.8-.6.8-.2-.1-.5-.2-.6-.6zm4.8-8.1c-.3-.4-1-1-1.5-1.3-.1-.1-.2-.1-.2-.2s.7-.1.8-.1c1 0 2.2.3 2.2 1.2 0 .4-.3.7-.6.7-.3.1-.5 0-.7-.3zm.1 8v-.2c0-.5.2-1 .2-1.5 0-.7-.3-1.3-1.5-1.6-.3-.1-.4-.1-.4-.2s.2-.1.4-.1c.7 0 1.1-.1 1.5-.8 1-1.9 2.8-5.7 3.1-5.7v.1c0 .1-.1.3-.1.5-1.5 3.9-2.1 5.7-2.1 7.3 0 .6.1 1.1.3 1.7.4 1.2-.1 1.9-.6 1.9-.4-.1-.8-.5-.8-1.4zm1.3-11.7c-.3-.5-.8-1.1-1.4-1.5l-.2-.2h.3c1.1 0 2.7.5 2.7 1.5 0 .4-.3.7-.7.7-.2 0-.5-.1-.7-.5zm-.3 13.4.3-.3c2-1 3.4-3.1 3.4-6.2 0-.5 0-.7-.1-1.6v-.2c.1 0 1.4.2 1.6.3.2.1.2.1.2.2s-.1.2-.3.3c-.2.1-.3 0-.3.3v.5c0 5.8-4.7 6.7-4.8 6.7 0 .1 0 .1 0 0zM473.3 4s.1.1 0 0c0 .1-.1.2-.4.3-.2 0-.2.2-.3.3-.2.4-.8 1.6-1.1 2.1 1.8-.1 3.3-.2 4.4-.4-.5-.5-1-.9-1.5-1.3l-.1-.1h.1c.8 0 3.8 1.1 3.8 2.4 0 .4-.3.7-.6.7-.2 0-.5-.1-.7-.5-.2-.3-.4-.6-.7-.9-1.8.5-4 .8-6.6 1.2-.2 0-.3.2-.5.2-.3 0-.9-1.3-.9-1.4h.1c.5.1 1.2.2 1.4.2h1.1c.2-.5.4-1.7.5-2.7-.8 0-1.8.1-2.9.2-.3 0-.8-.7-.8-.9 1.7.2 3.6.3 4.5.3v-1c0-.6 0-1.2-.1-1.7V.9c.2 0 1.9.3 1.9.6 0 .1-.1.2-.4.4-.3.1-.3.2-.3.7v1.1h2.7c.1 0 .2-.1.3-.2.6-.9.7-.9.8-.9h.1c.5.2 1.4.9 1.4 1.3 0 .1-.1.2-.4.2h-4.8zm-.7 11.9c-.3 0-.5-.1-.5-.5v-.1c.1-1 .1-3.3.1-4.7 0-1 0-1.7-.1-2.2v-.1s0-.1.1-.1c.8 0 1.7.3 1.7.4 0 .1-.1.2-.2.2-.3.2-.4.2-.5.6v1.7c0 1.4 0 3 .1 3.9 0 .7-.4.9-.7.9zm4.4.3c-2.1 0-2.1-.8-2.1-2.2V9.9c0-.3 0-1-.1-1.5v-.1s0-.1.1-.1 1.1.1 1.5.3c.2.1.2.1.2.2s-.1.3-.3.3c-.4.1-.4.2-.4 2.7v2.6c0 .3.1.8.8.8 1.3 0 1.4-.3 1.8-3.2 0-.2.1-.3.1-.3.1 0 .1 2.9.5 3.1.3.2.4.4.4.6 0 .8-1.8.9-2.5.9zm20-3c-.2 0-.4 0-.6-.1-3.4-.8-5.1-3.9-8.1-5.8-.2-.1-.4-.2-.7-.2-.4 0-.7.2-1 .4-.6.5-1.4 2.1-1.7 2.5-.3.5-.8.7-1.2.7-.6 0-1.6-.6-1.6-1.4 0-.2.1-.3.2-.3s.1.1.2.1c.1.1.3.2.6.2.2 0 .5-.1.7-.2.4-.2 1.4-1.3 2.3-2 .4-.3.9-.5 1.5-.5.4 0 .8.1 1.2.3 3.3 1.9 5.4 4.5 8 4.8.7.1 1.1.5 1.1.9-.1.3-.3.6-.9.6zm10.5-7c0 3.9-3.1 8-4.7 8-.9 0-1.2-1.2-1.9-2.3-.3-.4-.4-1-.4-1.6 0-2.7 2.4-7.1 7.3-7.1 4.1 0 6.2 2.8 6.2 5.8 0 5.5-6.3 7-7.7 7-.2 0-.3 0-.3-.1s.3-.2.8-.4c4.7-1.3 6-4.4 6-6.6 0-2.7-1.8-5.1-5.3-5.1h-.6c.4.3.6 1.2.6 2.4zm-.6-.7c0-1.3-.3-1.6-.7-1.6H505.9c-2.8.8-4.5 3.5-4.5 5.8 0 1.6.8 2.8 1.7 2.8 1.1.1 3.8-3.6 3.8-7zm12.3 3.3c-.3 0-1.1.2-1.4.2-.3 0-.8-.7-.8-1 .6.1 1.8.3 2.2.3h.4c.1 0 .2-.1.3-.2.4-.4.5-.4.5-.4.2 0 1.5.6 1.5 1 0 .2-.3.3-.5.4-.3.1-.4.1-.5.5-.1.6-.1 1.5-.1 2.4v1c0 .1 0 .4.1.5.6 1.4 2.4 1.8 4.9 1.8 2.3 0 5.3-.3 7.4-.9.1 0 .2-.1.2-.1h.1c0 .2-1.2 1-1.5 1.5-.1.1-.2.3-.3.3-.1 0-2.4.3-4.7.3-1.9 0-5.6 0-6.5-3-.4.6-1.5 1.8-2.3 2.6-.1.1-.1.4-.3.4-.3 0-1.4-1.2-1.4-1.3 0 0 0-.1.1-.1.8-.2 2.1-1 2.9-1.7.3-.3.3-.7.3-3.4V8.8c0-.1-.1-.2-.2-.2l-.4.2zm.7-5c-.5-.7-1.4-1.5-2-1.8l-.1-.1.1-.1c.6 0 3.3.4 3.3 1.8 0 .4-.3.7-.6.7-.2.1-.5-.1-.7-.5zm9.3 9.2h-4.5v.5c0 .3-.4.6-.7.6-.3 0-.5-.1-.5-.5v-.1c.1-1.7.1-3.9.1-5.2 0-1.5-.1-2.6-.2-3v-.1s0-.1.1-.1c.2 0 1.2.5 1.6.8h.8c.1-.4.2-1.2.2-1.6V4c-1 0-2.1.1-3.5.2-.3 0-.8-.7-.8-.9 1.8.2 3.2.2 4.4.2h.9c.1-.3 1.1-2.1 1.2-3.1 0-.1 0-.2.1-.2s1.7.8 1.7 1.1c0 .1-.1.2-.5.2-.3 0-.3.1-.4.3-.3.4-1 1.1-1.6 1.7h2.3c.1 0 .2-.1.2-.1.6-.9.8-.9.9-.9h.1c.6.2 1.4 1 1.4 1.3 0 .1-.1.2-.4.2h-4.2l.1.1c0 .1-.1.2-.4.3-.2.1-.3.2-.3.3-.2.4-.5.9-.8 1.3h2.3c.1 0 .2 0 .2-.1.2-.3.4-.5.5-.5.3 0 1.4.6 1.4.9 0 .2-.2.3-.4.4-.3.2-.4.2-.4 1.4 0 1.4.1 3.8.1 5.1 0 .4-.3.6-.7.6-.3 0-.5-.2-.5-.5V13zm-4.1-10.4c-.3-.6-.8-1.2-1.2-1.5l-.2-.2s0-.1.1-.1c.4 0 2.4.5 2.4 1.7 0 .4-.3.7-.6.7-.1 0-.3-.2-.5-.6zm0 3.9-.1.1c-.1.1-.2.1-.2.5v1.1h4.6V6.7c0-.1-.1-.2-.2-.2h-4.1zm4.2 2.1h-4.6v1.7h4.6V8.6zm-.1 2.1h-4.5v1.9h4.5v-1.9zm10.1-.9c0 2.8 0 5.3.1 6.4 0 .2-.2.4-.5.4h-2.2c-.6 0-1.3 0-2 .1 0 0-.1 0-.1-.1v-.3c0-.1 0-.4.2-.4.5 0 1.5.1 2.5.1h1.1c.2 0 .2-.1.2-.2v-5.1c0-3.1 0-6.9-.1-9.3 0-.2 0-.3.5-.3.3 0 .4 0 .4.3-.1 1.8-.1 5.3-.1 8.4zm20.8 1.3c-1.5.9-2.2 1.9-2.2 2.6 0 .6.6 1.6 2.3 1.6.7 0 1.5-.2 2.1-.5.2-.1.4-.1.5-.1.4 0 .6.2.6.5 0 .7-1.4 1.2-2.8 1.2-2.1 0-3.5-1.3-3.5-2.5s1.2-2.4 2.8-3.4c0-.9-.1-2.7-1.2-2.7-.5 0-1.1.4-1.8 1.4-.1.2-.3.5-.4.8-.3.5-.8 1.4-1.3 1.4-.1 0-.5-.1-.5-.6 0-.3.2-.8.7-1.3 1.6-1.5 2.2-2.5 3-4.3 0-.1.1-.1.1-.2h-.1c-.4.1-.7.1-1 .1-1.8 0-2.2-1.3-2.2-1.6 0 0 0-.1.1-.1s.2.1.4.2c.6.4 1.1.5 1.6.5.1 0 .8 0 1.6-.3.1-.2.1-.4.1-.6 0-.6-.2-1-.7-1.1-.1 0-.3-.1-.3-.2 0-.2.5-.4.8-.4.1 0 .9 0 1 .9H560.4c.3 0 .5 0 .5-.1.1 0 .2-.1.2-.1.2 0 .4.2.4.5 0 .7-1 1.3-2.2 1.7l-.1.1c-.6 1.4-1 2.1-1.5 2.8.4-.2.7-.3 1.1-.3.9 0 1.6.8 1.8 1.9.8-1.9 2.2-3.8 4-3.8 1 0 2.2.7 2.2 1.6 0 .7-.8 1.4-2 1.9s-2.8 1.1-4 1.7c0 .4.1.7.1 1.1v.8c-.1.6-.5 1.1-.8 1.1-.2 0-.4-.2-.4-.7v-.2c0-.5.2-.6.3-1.2l.1-.1zm-.2-8.3v.1c0 .3 0 .5-.1.7.4-.2.7-.4.7-.6 0-.1-.4-.3-.4-.3-.1.1-.1.1-.2.1zM561 10c1.1-.6 2.5-1.3 3.6-1.8.8-.4 1.3-.8 1.3-1.3 0-.1-.1-1-1.1-1-1.8 0-3.4 2.7-3.8 4.1zm13.2 3.6c-.1 0-.1 0 0 0h-.1c-.1 0-.2 0-.3.2-1.6 1.9-3.6 2.8-3.9 2.8h-.1l.3-.3c.7-.5 2.5-2.2 2.9-3.8 0-.1 0-.1.1-.1s1.5.6 1.5 1c0 .1-.1.2-.4.2zm-.2-1.9c-.9 0-1.7 0-3.2.2-.3 0-.7-.6-.7-.8.9.1 1.7.2 2.5.2V4.5c-.4 0-.8.1-1.4.1-.3 0-.7-.6-.7-.8.9.1 1.6.2 2.2.2v-.9c0-.8-.1-1.6-.2-2.1V.9s0-.1.1-.1 1.8.2 1.8.6c0 .1-.1.2-.2.3-.3.2-.4 0-.4.8v1.4h2.4v-.8c0-.8-.1-1.6-.2-2.1V.9s0-.1.1-.1 1.8.2 1.8.6c0 .1-.1.2-.2.3-.7.3-.7.1-.7.8v1.4h.1s.1-.1.2-.1c.1-.3.5-.9.7-.9h.1c.6.3 1.2 1 1.2 1.3 0 .1-.1.2-.3.2h-1.9v6.9h.2s.1-.1.2-.1c.1-.2.6-.8.7-.8h.1c.5.2 1.2.9 1.2 1.2 0 .1-.1.2-.3.2H574zm-.4-7.4v1.9h2.4V4.3h-2.4zm2.3 2.4h-2.4v1.9h2.4V6.7zm-2.4 2.4v2.2h2.4V9.1h-2.4zm2.9 5.1c-.3-.6-.6-1.2-1.4-1.8l-.1-.1s0-.1.1-.1c.2 0 2.6.6 2.6 1.7 0 .4-.3.7-.6.7-.2.1-.4 0-.6-.4zm4.4-4.3c-.4 3.4-1.8 5.5-5.1 6.8-.2.1-.4.1-.5.1h-.1c0-.1.1-.2.4-.3 3.9-1.9 4.4-5.2 4.4-9.3 0-1.2 0-2-.1-3.4 0-.2-.1-1.7-.3-2.3v-.1c.1 0 1.3.5 1.7.8h2.3c.1 0 .2-.1.2-.1.3-.5.5-.5.5-.5.1 0 1.3.6 1.3 1 0 .2-.2.3-.4.4-.3.2-.3.3-.3 3.1 0 2.4.1 5.6.1 7.3v1.2c0 1.7-1.7 2.1-2.2 2.1-.2 0-.2-.1-.3-.3-.2-.4-2.4-1.3-2.4-1.5H580.3c1 .2 1.7.3 2.3.3 1.1 0 1.2-.4 1.3-.9 0-1.1.1-2.7.1-4.4h-3.2zm3.1-.4V6.2h-3v1.5c0 .6 0 1.2-.1 1.7h3.1zm0-3.8v-3c0-.1 0-.2-.2-.2h-2.4l-.1.1c-.2.1-.2.3-.2.6v2.5h2.9zm9.9 1.2h-3.2v1.8c0 2.9 0 5.9.1 7.3 0 0-.1.7-.8.7-.3 0-.5-.2-.5-.6V16c.2-2.7.2-6.8.2-10.1V3.4c0-.2-.1-1.6-.2-2.3V1c0-.1 0-.1.1-.1s1.3.5 1.7.7c0 0 .1 0 .1.1h2.3c.1 0 .2-.1.3-.1.1-.1.4-.4.5-.4.2 0 1.4.7 1.4 1 0 .2-.2.3-.4.4-.3.2-.3.3-.3.7v.2c0 .9.1 2.7.1 3.4 0 .4-.3.7-.7.7-.3 0-.5-.1-.5-.5v-.2zm-3.2-2.3v1.9h3.3V4.6h-3.3zm.3-2.3c-.3.1-.3.2-.3.6V4h3.2V2.4c0-.1 0-.2-.2-.2h-2.7zm6.8 11.7v-.2h-3.5v.6c0 .4-.3.6-.6.6-.2 0-.4-.1-.4-.4v-.1c.1-1 .1-3.2.1-4.1 0-.2 0-1.3-.2-2v-.1c.1 0 1.1.3 1.5.6h2.8c.1 0 .2-.1.3-.1 0 0 .3-.4.5-.4s1.3.6 1.3.9c0 .2-.2.3-.4.4-.3.2-.3.3-.3 1 0 .9.1 2.6.1 3.3 0 .4-.4.7-.6.7-.4-.1-.6-.3-.6-.7zm-3.1-4.6-.1.1c-.3.2-.3.1-.3.6v1.1h3.6V9.7c0-.1-.1-.2-.2-.2h-3zm-.4 2.1v1.8h3.6v-1.8h-3.6zm4-4.6v.2c0 .3-.3.6-.7.6-.3 0-.5-.2-.5-.5v-.1c.1-1.2.1-2.1.1-2.8 0-.9 0-2.2-.2-3v-.2c.1 0 1.2.4 1.6.7 0 0 .1 0 .1.1h2.5c.1 0 .2-.1.3-.1.1-.1.4-.4.5-.4.2 0 1.5.6 1.5 1 0 .2-.2.3-.4.4-.4.2-.4.2-.4 2.4 0 2.5.1 6.4.1 7.9 0 .3.1 1.4.1 1.7 0 1.8-1.9 2.1-2.2 2.1-.2 0-.2-.1-.3-.3-.2-.5-2.2-1.2-2.2-1.3H598.4c.9.1 1.5.2 2.1.2.8 0 1.2-.2 1.2-1V7.1h-3.5zm.4-4.6c-.3.1-.3.1-.3.6V4h3.5c0-.8 0-1.3-.1-1.6 0-.1 0-.2-.2-.2h-2.9zm-.4 2.3v1.9h3.5V4.6h-3.5zm10.6-2.3-.1.1c-.2.2-.3.2-.3.9v12.8c0 .4-.4.7-.7.7-.3 0-.5-.2-.5-.6v-.1c.1-2.1.2-5.3.2-8.1V4c0-.5-.1-2.1-.3-2.8v-.1c.2 0 1.6.7 1.8.8 0 0 .1 0 .1.1h1.4c.1 0 .1 0 .2-.1s.3-.4.3-.4c.1 0 .1-.1.2-.1s1.4.8 1.4 1.1c0 .1-.2.3-.4.3-.1 0-.3.1-.5.3-.4.6-1.2 1.6-1.4 2-.1.2-.2.4-.2.6 0 .3.2.5.5.8.6.7 1.6 1.6 1.6 3 0 1.6-1.2 2.5-2.1 2.5-.1 0-.2 0-.3-.1-.2-.3-1.1-1.1-1.1-1.3h.1c.3.1.7.2 1 .2.8 0 1.2-.5 1.2-1.7 0-1-.4-1.7-.9-2.4-.3-.4-.4-.6-.4-1 0-.2 0-.4.1-.6.1-.5.6-1.8.8-2.5 0-.1 0-.1-.1-.1h-1.6zm9.7 6.1v-.3h-2.3c.3 1.1.6 2.1 1.2 3 1.8-1.1 2.3-1.7 2.6-2.4 0-.1 0-.1.1-.1s1.4 1.1 1.4 1.4c0 .1-.1.2-.4.2h-.5c-.1 0-.2 0-.4.1-.6.2-1.9.8-2.7 1 1.1 1.8 2.7 3.3 5 3.9.1 0 .2.1.2.1 0 .2-1.5.3-1.9.7-.1.1-.1.1-.2.1-.2 0-1.6-.9-2.9-2.9-.2.2-2.2 1.3-5.8 2.7-.2.1-.2.3-.4.3s-1.1-1.2-1.1-1.3h.1c1 0 1.6-.1 2.8-.5V3.8c0-.2-.1-1.7-.2-2.4v-.2c.2 0 1.3.5 1.6.7h3.3c.1 0 .2 0 .2-.1l.5-.5c.1 0 1.3.7 1.3 1 0 .2-.2.3-.4.4-.3.1-.3.2-.3 1 0 1.2.1 3.7.1 4.4 0 .3-.3.6-.6.6-.1.2-.3.1-.3-.3zm-4.1-3.1v2.4h4.1V5.3h-4.1zm3.2 7.8c-.8-1.5-1.4-3.2-1.7-4.9h-1.5v6c1.1-.4 2.3-.8 3.2-1.1zm-2.7-10.7c-.1.1-.2.1-.3.2s-.2.2-.2.5v1.6h4.1c0-2.4 0-2.4-.3-2.4h-3.3zm17.5 8.8v3.7c.8.2 1.7.2 2.6.2 1.6 0 3.3-.2 4.8-.6H640.1c0 .2-1.4 1.1-1.7 1.6-.1.2-.3.3-2.2.3-1.3 0-2.9-.1-4.4-.6-1.8-.6-2.9-2.2-3.4-3.6-1.5 3.5-4.4 4.6-4.6 4.6-.1 0-.1 0-.1-.1s.1-.1.3-.3c2.9-1.9 3.9-5.7 3.9-7.2v-.1s0-.1.1-.1c0 0 1.7.2 1.7.6 0 .1-.1.2-.4.3-.2.1-.2.1-.4.6-.1.5-.3.9-.4 1.3.5 1.3 1.5 2.2 2.8 2.8V9.5c0-.4 0-1.5-.1-2.1h-.6c-1 0-2.8 0-4.3.2-.3 0-.8-.6-.8-.8 1.7.2 4.1.3 5.1.3h4.5c.1 0 .2-.1.3-.1.2-.3.7-.9.9-.9h.1c.6.2 1.5 1 1.5 1.3 0 .1-.1.2-.4.2h-4.8c.2.1.3.1.3.2s-.1.2-.3.3c-.3.2-.3.2-.3 2.8h2.5c.1 0 .2-.1.3-.2.8-1 .9-1 1-1h.1c.5.2 1.5 1 1.5 1.4 0 .1-.1.2-.4.2h-5zm-5.5-7.1c-.2 1.7-1.2 2.3-1.8 2.3-.4 0-.7-.3-.7-.6s.1-.5.5-.8c1.1-.9 1.5-1.5 1.7-2.6 0-.1.1-.2.1-.2.1 0 .3.9.3 1.4h4.2v-.4c0-.7-.1-1.8-.2-2.4V.7c.4 0 2.1.3 2.1.7 0 .1-.1.3-.3.4-.4.2-.4.2-.4.8 0 .3 0 .8-.1 1.2h4.4c.1 0 .2-.1.3-.1.1-.1.4-.4.6-.4h.1c.5.2 1.5.9 1.5 1.4 0 .2-.2.4-.7.4-1 .1-1.7.4-2.4.7h-.1s0-.1.1-.1c.3-.3.9-1.2.9-1.3 0-.1-.1-.1-.1-.1h-10zm25 11.8c-.8 0-3.8-.3-3.8-4.6 0-2.2.8-4.8 1.7-5.8.1-.1.2-.2.2-.3-.2 0-2.2.9-4 1.8-.4.2-.8.3-1.2.3-.8 0-1.5-.3-1.5-1 0-.1 0-.2.1-.2s.3.1.4.1c.3 0 .6.1.9.1.3 0 .7-.1 1-.2.8-.3 4-2 6.7-2.7.4-.1.7-.3 1.5-.4h.1c1.7 0 1.9.6 1.9.9s-.3.6-.9.6h-.4c-.3-.1-.6-.1-1-.1-1 0-2.1.2-2.6.5-1.3.7-2.2 3.5-2.2 5.8 0 3.7 2.3 3.8 2.9 3.8.3 0 .7-.1 1.1-.2.2-.1.3-.1.5-.1.5 0 .8.3.8.6-.1.8-1.5 1.1-2.2 1.1zm2.4-7.9c-.5-.6-1.1-1-1.5-1.3-.1-.1-.3-.1-.3-.2 0 0 .3-.1.7-.1 1.4 0 2.1.6 2.1 1.2 0 .3-.2.6-.5.6-.2 0-.4-.1-.5-.2zm1.9-.9c-.5-.5-1.1-1-1.6-1.2-.1-.1-.3-.1-.3-.2 0 0 .3-.1.8-.1.9 0 2.1.3 2.1 1.2 0 .3-.2.6-.5.6-.2-.1-.3-.2-.5-.3zm6.7 6.8h-.2c-.1 0-.2.1-.4.2-1.2 1.4-2.8 2.5-3.2 2.5 0 0 .1-.1.2-.3 1-.9 2.2-2.6 2.4-3.6 0-.1 0-.1.1-.1.2 0 1.5.8 1.5 1.1-.1.1-.2.2-.4.2zm1.4-2.4h-2.4v.3c0 .4-.4.7-.7.7-.3 0-.5-.1-.5-.5v-.1c.1-1.7.1-3.7.1-5.5 0-3.6 0-4.4-.2-5.2V1c.1 0 1.3.5 1.6.8h1.5c.1 0 .2-.1.3-.2.1-.1.2-.3.3-.4.1 0 .1-.1.2-.1.2 0 1.4.6 1.4 1 0 .2-.2.3-.4.4-.3.2-.3.2-.3.6V5c0 2.1.1 5.1.1 6.6 0 .4-.4.7-.7.7-.2 0-.5-.2-.5-.6v-.2zm0-6.7V2.5c0-.1 0-.2-.1-.2h-1.9l-.1.1c-.3.2-.3.3-.3 2.5h2.4zm-2.4.5v2.3h2.4V5.3h-2.4zm2.4 2.8h-2.4V11h2.4V8.1zm.2 6.3c-.2-.5-.6-1.1-1.3-1.6l-.1-.1s0-.1.1-.1c.2 0 2.3.5 2.3 1.6 0 .4-.3.6-.6.6-.1 0-.3-.1-.4-.4zm4.2-11.6-.1.1c-.3.2-.3.2-.3 1V6h3.9c.1 0 .2 0 .3-.1.1-.1.2-.3.3-.3h.1c.3 0 1.5.7 1.5 1.1 0 .1-.1.3-.3.4-.2.1-.3.1-.4.4-.4 1.8-1.1 3.5-2 5 1 1.3 2.4 2.4 4.4 2.9.1 0 .2.1.2.1 0 .1-1.4.2-1.9.8l-.1.1c-.2 0-1.8-.9-3.1-3-2.2 2.9-5 3.4-5.2 3.4h-.1c0-.1.2-.2.5-.3 1.7-.8 3.2-2.1 4.3-3.9-.9-1.8-1.4-3.8-1.5-5.8h-.8c-.1 3.7-.5 7.8-3.4 9.7-.3.2-.5.3-.6.3h-.1c0-.1.1-.2.4-.4 2.3-1.9 2.6-5.9 2.6-9.6 0-.6 0-3.7-.3-4.9v-.1c0-.1 0-.1.1-.1s1 .4 1.7.9l.1.1h3.8c.1 0 .2-.1.2-.1.6-.9.7-1 .9-1 .6 0 1.5 1.1 1.5 1.3 0 .1-.1.2-.4.2h-6.2zm.7 3.7c.2 1.6.7 3.4 1.7 5 1-2 1.4-4.5 1.4-4.8 0-.1 0-.2-.2-.2h-2.9zm7.8 10.4c-.1 0-.2 0-.2-.1s.2-.1.5-.2c2.9-.8 5.2-2.7 5.2-6.2 0-.6-.1-1-.1-1.3V9h.1c.1 0 1.7.1 1.7.5 0 .1-.1.2-.2.3-.3.1-.3.1-.4.8-.1 3.7-2.4 5.7-6.2 6.3h-.4zm2.9-8.9c-.1 1-.8 2.5-1.9 2.5-.4 0-.7-.3-.7-.6s.2-.5.5-.8c1-.8 1.5-1.5 1.7-2.6 0-.1.1-.2.1-.2.2 0 .3 1 .3 1.2h10.1c.1 0 .2-.1.3-.1 0 0 .3-.4.6-.4 0 0 1.6.7 1.6 1.3 0 .2-.2.4-.7.4-.7 0-2.1 1.1-2.9 1.6-.1 0-.1.1-.1.1s0-.1.1-.1c.3-.4 1.3-1.8 1.3-2.1 0-.1 0-.1-.1-.1h-10.2zm4.3-2.2c-.9 0-2.9.2-4.4.2-.3 0-.8-.7-.8-.9 1.7.2 4.4.3 5.3.3h.2v-2h-1.3c-.9 0-3 0-4.5.2-.3 0-.8-.7-.8-.9 1.7.2 4.5.3 5.4.3h1.2v-.2c0-.8-.1-1.5-.2-2.2V.5s2.1.2 2.1.6c0 .1-.1.2-.3.3-.4.3-.5.1-.5.7v.8h3.7c.1 0 .2-.1.3-.2.2-.3.5-.8.8-1 .1-.1.1-.1.2-.1.5 0 1.6 1.2 1.6 1.5 0 .1-.1.2-.4.2h-6.2v2h2.6c.1 0 .2-.1.3-.2.2-.3.5-.7.7-.9.1 0 .1-.1.2-.1.4 0 1.5 1 1.5 1.3 0 .1-.1.2-.4.2h-6.3zm6.4 10.5c-.6.1-1.3.1-1.9.1-1.5 0-3.2-.1-3.2-1.9v-.1c0-2.1.1-3.3.1-3.6 0-.9 0-1.2-.1-1.7V9h.1c.2 0 1.7.2 1.7.5 0 .1-.1.3-.3.3-.3.1-.3.2-.3.6 0 .5-.1 2.1-.1 3.3 0 1.3 0 1.6 2.1 1.6.5 0 1 0 1.6-.1.9-.1 1.1-1.6 1.3-3v-.1c.1 0 .2 2.2.6 2.5.2.1.3.3.3.5.2.5-.5 1-1.9 1.2z"/></svg>