<svg xmlns="http://www.w3.org/2000/svg" viewBox="0 0 120.2 28.1" style="enable-background:new 0 0 120.2 28.1" xml:space="preserve"><path d="M10.3 7.2c.2 0 .4 0 .6-.1.3.5.9 1.2 1.5 1.2 2-.2 3.2-.3 4.3-.3v1.9h-2.5c-.7-.5-2.4-1-2.6-1-.2 0-.4.1-.4.4v.1c.2 1.1.3 3.1.3 3.5 0 1.1-.1 3.1-.2 5v.1c0 .6.4 1 1 1 .8 0 1.3-.7 1.3-1.2v-.4h2.9v2.2c-1.8 0-4.6-.1-7.9-.4h-.3v.3c0 .4.8 1.7 1.6 1.7 2.9-.2 5.5-.3 6.5-.3 0 .4 0 .7-.1 1.1 0 .4 0 .8-.1 1.2v.1c0 .9.6 1.3 1.1 1.3.3 0 .7-.1 1.1-.5.3-.3.4-.6.4-1 0-.7-.1-1.4-.1-2.2h7.8c.9 0 1-.5 1-.7 0-.8-2.1-2.5-2.8-2.5-.1 0-.3 0-.5.2-.3.2-.6.7-.9 1.2-.1.2-.2.3-.3.5 0 0-.1.1-.2.1h-4.2v-2.3h3v.1c0 .7.5 1.1 1 1.1.3 0 .7-.1 1-.4.2-.2.3-.5.3-.9 0-.3 0-.7-.1-1.1.3-1.2.2-2.4.2-3.3v-.3c0-.6 0-.7.5-.9.3-.2.7-.4.7-.9 0-.8-2.1-1.9-2.4-1.9-.2 0-.5.1-1.1.8l-.1.1H19V8h5.6c.6 0 .9-.4.9-.7 0-.3-.3-.8-1-1.3.7-.5 1.3-.7 1.7-.7 1.3 0 1.4-.8 1.4-1 0-1-2.2-2.4-2.7-2.4-.3 0-.7.2-1.1.7-.1.1-.3.2-.3.2H12.8C12.7 2 12.4.9 12 .9c-.1 0-.4.1-.4.5-.3 1.4-.5 2.1-2 3.4-.4.3-.6.7-.6 1.1 0 .7.6 1.3 1.3 1.3zm9-1.2c.1 0 .1-.1.2-.1.3-.2.7-.4.7-.8 0-.6-1.2-.9-2.2-1.1h5.3c0 .2-.1.6-.3 1.2h-.1s-.1-.1-.2-.1c-.6 0-1.4 1.2-1.5 1.4 0 .1-.1.1-.2.1h-2c0-.5.1-.5.3-.6zm-2.8-1.6c.1.5.2 1.2.2 2.2-1.7 0-3.2-.2-4.7-.3.4-.6.8-1.4.9-2.3h3.7v.2c-.2 0-.2.1-.1.2zm2.3 8.4v-1.6h3v.1c0 .5.1 1 .1 1.6h-3.1zm3.1 1.3V16h-3v-1.9h3zm-8.1-1.9c0-.8 0-.8.3-.9l.1-.1h2.6v1.6h-3v-.6zm3 1.9V16h-2.9v-1.9h2.9zm12.6 9.5c0 .2-.2.4-.9 1-.6.5-1.4 1.2-1.6 1.7-.1.3-.3.6-.8.6-.1 0-4.1.5-8.3.5-3.1 0-9.3 0-11.1-4.8-.8 1.1-2.3 2.7-3.5 4v.1c0 .3-.2.7-.6.7-.5 0-2.6-2-2.6-2.4 0-.1 0-.3.4-.4 1.2-.3 3.2-1.6 4.6-2.7.3-.3.4-.5.4-5.3v-2s0-.1-.1-.1h-.5c-.4 0-1.2.1-1.8.2l-.6.1c-.7 0-1.6-1.4-1.6-1.9v-.3l.3.1c1.1.2 3 .4 3.6.4h.5c.1 0 .2-.1.3-.2.6-.7.8-.9 1.1-.9.4 0 2.8 1.2 2.8 2 0 .5-.5.8-.9 1-.1 0-.2.1-.3.1-.3.1-.4.1-.4.5-.1.8-.1 2-.1 3.3v2.3c0 2.4 2.8 3.7 8.2 3.7 3.7 0 9-.5 12.6-1.6.3-.1.4-.1.4-.1.3 0 .5.2.5.4zM2.3 2.6c0-.1 0-.4.5-.4.8 0 5.9.6 5.9 3.3.1.9-.5 1.5-1.3 1.5-.5 0-1.1-.3-1.5-1-.8-1.2-2.2-2.4-3.2-3-.2-.2-.4-.3-.4-.4zm40-1.4c-.2-.3-.2-.5-.2-.5 0-.2.1-.3.4-.3 1 0 4.2 1.5 4.2 3.4 0 .8-.6 1.6-1.4 1.6-.5 0-1.1-.4-1.4-1.4-.2-.7-1-2-1.6-2.8zm9.9 16.9c-.3 0-.5.2-1.3 1 0 .1-.1.1-.2.1h-6.1c.2-.4.5-.8.7-1.2.1-.2.2-.4.4-.6.1-.2.1-.2.3-.3.2-.1.8-.2.8-.7H49v.1c0 .6.4 1.1 1.1 1.1.2 0 .7-.1 1.1-.5.2-.2.3-.6.3-.9 0-.7-.1-1.1-.1-1.5-.1-.5-.1-.9-.1-1.2 0-1.1 0-1.1.4-1.3.3-.2.7-.4.7-.9 0-.7-2-2.1-2.5-2.1-.3 0-.5.2-1.2 1 0 .1-.1.1-.2.1h-7.2c-.5-.4-2.4-1.3-2.8-1.3-.2 0-.3.1-.3.4v.1l.3-.1-.3.2c.2 1.1.3 2.9.3 3.3 0 1.2-.1 1.7-.2 2.7 0 .3-.1.7-.1 1.1v.1c0 .6.4 1 1.1 1 .9 0 1.4-.7 1.4-1.2v-.2h2.5v.5c0 .6-.1 1.7-.2 2.3h-3.7c-.5-.3-2.6-1.4-3-1.4h-.1l-.1.2v.4c.3 1.2.3 2.1.3 4.1 0 1.3 0 2.5-.2 4.4v.1c0 .6.4 1 1.1 1 .3 0 .9-.1 1.2-.5.2-.2.3-.5.3-.7V26h12.5v.6c0 .7.5 1.1 1.2 1.1.3 0 .8-.1 1.1-.5.2-.2.3-.6.3-.9l-.1-.7c-.1-1.4-.2-2.2-.2-3.2 0-1.3 0-1.3.5-1.5.3-.2.7-.4.7-.8 0-.5-2.1-2-2.6-2zm-3.1-4.3V15.1h-8.3v-2.7c0-.5 0-.5.3-.7l.2-.1H49l.1.1v2.1zm-10.3 8.7v-1.2c0-.4 0-.4.3-.6l.2-.1h11.9c.1 0 .1 0 .1.1.1.7.1 1.4.1 2.1v2H38.8v-2.3zm-2-20.4c-.2-.2-.3-.3-.3-.5 0-.3.4-.3.5-.3 1.8 0 4.6 1.3 4.6 3 0 .8-.6 1.5-1.3 1.5-.6 0-1.1-.4-1.4-1.2-.4-.6-1.4-1.8-2.1-2.5zm21.8 6.3c0 .3-.2.9-1.4 1-.9.1-2 .7-2.9 1.2-.4.2-.8.4-1.1.6-.2.1-.3.1-.4.1-.2 0-.3-.2-.3-.3 0-.1.1-.2.2-.4.5-.8 1.3-2.1 1.5-2.5H36.6c-.4 2.2-1.9 3.9-3.3 3.9-.8 0-1.4-.6-1.4-1.3 0-.5.3-1.1.9-1.6 1.9-1.5 2.4-2.6 2.8-4.2.1-.2.2-.6.5-.6.5 0 .7 1.4.7 2.4h11c1.5-2.5 2.4-4.6 2.5-5.8V.8c0-.2.1-.4.4-.4.3 0 3.4 1.3 3.4 2.3 0 .3-.2.7-1.2.7-.4 0-.4 0-.6.3-.5.6-2 2.1-3.1 3.1h5.2s.2-.1.3-.2c.2-.2.8-.8 1.2-.8 0 0 .2 0 .3.1.9.3 2.4 1.7 2.4 2.5zm28.3 8.7c0 .2-.1.6-.9.6H75.8c0 .4-.4.6-.8.7-.2.1-.4.3-.5.5-.6 1.2-1.8 3.6-2.7 5.1 2.7-.3 5.6-.6 8.8-1.2-1-1-2-1.9-2.8-2.6-.2-.2-.3-.3-.3-.5v-.3h.3c.4 0 8.1 2.9 8.1 6.2 0 .9-.6 1.6-1.3 1.6-.3 0-1-.2-1.6-1.2-.3-.6-.8-1.3-1.5-2.1-4.2 1.3-11.9 2.8-14.2 3.2-.2 0-.3.1-.4.2-.2.1-.3.2-.6.2-.7 0-2.3-2.9-2.3-3.2 0-.2.2-.3.3-.3h.2c1 .1 1.8.2 2.4.2.5 0 1.8 0 3.2-.2.4-1.1 1.3-4.1 1.6-6.4-1.4 0-4.2.1-6.5.3-.8 0-1.8-1.3-1.8-1.9v-.3h.3c3.1.4 7.6.5 9.4.5h8.4c.1 0 .2-.1.2-.1s1.3-2 1.9-2c.1 0 .2 0 .3.1.9.4 3 2 3 2.9zm3.7-4.7c0 .3-.3.4-1.2.7-.7.2-1.8.6-2.2 1-.1.1-.3.2-.5.2-1.2 0-7.3-4.4-11-10.6-2 3.1-4.3 5.5-6.4 7.3 1.9.3 5.1.4 6.1.4h1.3l.1-.1c.2-.5 1.1-2 1.6-2 .1 0 .2 0 .3.1.8.4 2.6 1.9 2.6 2.6 0 .3-.2.7-.9.7h-5.2c-.9 0-3.4.1-4.9.3-.6 0-1.5-1-1.6-1.6-3.7 3.1-6.9 4.4-7.6 4.4-.4 0-.4-.3-.4-.3 0-.3.2-.4.6-.7 4.4-2.7 8.7-7.3 11.6-12.5.3-.5.5-1.3.6-1.8V.2c.2-.2.4-.2.5-.2.2 0 3.7 1.4 3.7 2.2 0 .4-.4.7-1 .8 2.5 3 8.1 7.8 13.5 9 .3 0 .4.3.4.4zM120.2 25c0 .2-.1.6-.9.6h-8.9c-2 0-5.3.1-7.7.3-.8 0-1.7-1.3-1.7-1.8v-.3h.3c2.3.3 5.6.4 8.1.4.1-2.4.1-6.7.1-10.8v-.9c-1.2 0-2.8.1-4.4.3-.8 0-1.6-1.3-1.6-1.8v-.3h.3c1.9.2 3.9.3 5.8.4V5.3c0-.9-.1-3.1-.3-4.3V.7l.3-.1s4 .4 4 1.5c0 .3-.3.7-.9 1-.4.2-.4.2-.5 1.1 0 1.4-.1 4.4-.1 7.2h1.6c.1 0 .2-.1.2-.1 1.1-1.5 1.4-1.9 1.8-1.9H116c.5.2 2.8 1.7 2.8 2.6 0 .1 0 .6-.9.6H112v11.7h2.9c.1 0 .2-.1.2-.1 1.1-1.5 1.6-1.9 1.9-1.9H117.3c1 .4 2.9 2 2.9 2.7zm-19.7-10.7-.2-.1c-.1-.1-.2-.1-.2-.2v.6c0 2-.1 3.9-.1 5.6 0 2.4 0 4.5.1 6.2 0 .3-.1.6-.3.8-.3.3-.7.5-1.2.5-.7 0-1.1-.4-1.1-1.1v-.1c.2-4 .3-7.9.3-10.2v-1c-3.7 3.4-6.3 3.7-6.3 3.7-.2 0-.4-.2-.4-.3 0-.2.1-.4 1-.9 5.2-3.1 8.4-9.4 8.7-10.5h-1.4c-1.1 0-3.4.1-4.8.3-.6 0-1.5-1.2-1.5-1.7v-.3h.3c1.1.1 2.7.3 4.4.3v-.8c0-1.8-.1-3.3-.3-4.2V.4h.3s3.7.3 3.7 1.4c0 .4-.3.6-.6.8-.2.1-.3.2-.4.2-.3.2-.3.2-.3 1.2 0 .4-.1 1.2-.1 1.9h1s.1 0 .2-.2c.5-.6.7-.7 1-.7.4 0 2.4 1.2 2.4 2 0 .5-.5.7-.9.9-.3.1-.4.1-.8.8-.6.9-1.4 2.3-2.5 3.7.3.1.7.3.7.6 0 .2-.2.4-.4.5 1.1.1 4.7.8 4.7 3.1 0 .8-.6 1.5-1.3 1.5-.3 0-.9-.1-1.4-1.1-.4-.8-1.5-2.1-2.3-2.7z"/></svg>