<svg xmlns="http://www.w3.org/2000/svg" viewBox="0 0 604.3 16.5" style="enable-background:new 0 0 604.3 16.5" xml:space="preserve"><path d="M1.7 6.4c-.3-.4-1-1-1.5-1.3C.1 5.1 0 5 0 5c0-.1.7-.1.8-.1 1.3 0 2.2.5 2.2 1.2 0 .4-.3.7-.6.7-.2 0-.4-.1-.7-.4zm.2 8.5v-.2c0-.5.2-1.1.2-1.6 0-.8-.3-1.4-1.5-1.7-.3-.1-.4-.1-.4-.2s.2-.1.4-.1c.7 0 1.1-.1 1.5-.8.6-1.4 3.7-7.3 4-7.3v.1c0 .1 0 .2-.1.4-2.7 5.9-3.2 7.5-3.2 9 0 .7.1 1.3.3 1.8.4 1.2-.1 1.9-.6 1.9-.3 0-.6-.4-.6-1.3zM3.1 2.7c-.2-.4-.8-1.1-1.3-1.5-.2-.1-.3-.1-.3-.2s.1 0 .3 0c1.1 0 2.7.5 2.7 1.5 0 .4-.3.7-.7.7-.2 0-.4-.1-.7-.5zm1.3 6.5c0-.1 0-.1.1-.3.8-.9 2-2.9 2.7-5.1.1-.3.1-.7.1-1 0-.1 0-.1.1-.1s1.8.5 1.8.9c0 .1-.1.2-.4.2-.3 0-.3.1-.4.3-2.2 4.4-3.9 5.2-4 5.1 0 .1 0 0 0 0zm7.8 6.4v-.7H7.7v.9c0 .5-.4.6-.7.6s-.5-.1-.5-.5v-.1c.1-1.6.1-2.8.1-3.7 0-1 0-2.3-.2-3.3v-.2c.1 0 1.3.5 1.7.8h3.7c.1 0 .2-.1.3-.1.3-.5.5-.5.6-.5.2 0 1.5.7 1.5 1.1 0 .2-.2.3-.4.4-.4.2-.4.2-.4 1.5 0 1 .1 2.5.1 3.8 0 .5-.4.7-.7.7s-.6-.4-.6-.7zM10 2.1c-.3 0-1.1.1-1.9.1-.3 0-.8-.6-.8-.8 1.2.2 2.5.2 2.7.2h1c.1 0 .2-.1.3-.1.4-.5.4-.5.5-.5.2 0 1.2.6 1.2 1 0 .2-.2.3-.5.4-.5.1-.7.1-.7.3 0 0 .9 3.7 4.5 5 .1 0 .1.1.1.1 0 .1-1.4.2-1.9.6-.1.1-.1.1-.2.1-.3 0-2.6-2.3-3.2-6 0-.2-.2-.3-.3-.3H10zm2.2 12.3V10c0-.1 0-.2-.3-.2H8.1l-.1.1c-.3.2-.3.1-.3.7v3.7h4.5zm5.3 1.2c0-.1 0-.1.1-.2.3-.7 1.2-3.2 1.2-5v-.2c.2 0 1.8.5 1.8.8 0 .1-.1.2-.4.3-.3.1-.3.2-.4.4-.9 2.6-2 4-2.3 3.9.1.1 0 0 0 0zm2.4-7.5c1-1.4 2.9-4.5 3-5.6 0-.1 0-.2.1-.2.2 0 1.6.7 1.6 1 0 .1-.1.3-.5.3-.2 0-.3.1-.4.3-.9 1.2-2.3 3.1-3.4 4.2 1-.1 2.1-.1 2.9-.3-.2-.5-.4-.9-.6-1.2-.1-.1-.1-.2-.1-.2.3 0 2.1 1.1 2.1 2.1 0 .5-.3.7-.6.7-.4 0-.5-.2-.7-1.2-.3.1-.7.2-1.2.3.1.1.2.1.2.2s-.1.1-.2.2c-.2.3-.2.3-.2 1.9 0 1.5 0 3.7.1 5.1 0 .4-.4.7-.7.7-.3 0-.5-.2-.5-.5v-.1c.2-1.9.2-3.8.2-5.7V8.8c-.7.2-1.4.4-1.8.5-.2.1-.3.2-.4.2-.3 0-.9-1.2-.9-1.3s.1 0 .1 0c.4 0 .9.1 1.2.1h.3l.4-.2zM21 5.4c0 .4-.3.7-.6.7-.2 0-.5-.1-.6-.5-.4-.7-.9-1.2-1.4-1.5l-.2-.2h.1c.3 0 .9.1 1.3.3.6-1.5 1-2.7 1-3.6 0-.1 0-.2.1-.2s1.7.6 1.7 1c0 .1-.1.3-.5.3-.2 0-.3.1-.4.3-.4.7-1.1 1.7-1.6 2.4 1.1.3 1.1.8 1.1 1zm2.3 7c-.2-.8-.6-1.7-1-2.2-.1-.1-.1-.2-.1-.2.4 0 2.2 1.3 2.2 2.4 0 .4-.3.7-.6.7-.1-.1-.4-.2-.5-.7zm2.6-2.2c-.2 0-.8.1-1.4.2-.2 0-.7-.6-.7-.8.8.2 1.6.2 2 .2h.4c.1 0 .1-.1.2-.1.1-.1.3-.3.4-.3.2 0 1.1.6 1.1.9 0 .2-.2.3-.3.3-.1.1-.3.1-.4.4-1.3 3.5-4.1 5-4.6 5h-.1c0-.1.1-.1.2-.3 2.5-1.6 3.6-5.1 3.6-5.3 0-.1 0-.1-.1-.1h-.3zm5-2.2v-.3h-1.6.1c.2.1.3.1.3.2s-.1.2-.3.3c.2.9.5 1.8.9 2.7.2-.1 1.7-1.3 2-2.1 0-.1 0-.1.1-.1.2 0 1.4 1 1.4 1.3 0 .1-.1.2-.4.2h-.6c-.1 0-.2 0-.3.1-.6.2-1.5.6-2.2.9.9 1.7 2.3 3 4.1 3.6.1 0 .2.1.2.1 0 .1-1.3.2-1.9.6-.1.1-.1.1-.2.1s-2.6-1.8-3.5-7.1c-.1.1-.1.6-.1 1.1 0 1.1.1 3.3.1 3.9 0 .3.1.8.1 1.2 0 1.3-1.4 1.8-1.9 1.8-.1 0-.2-.1-.3-.2-.3-.4-1.9-1.1-1.9-1.2h.4c.7.1 1.2.2 1.7.2 1 0 1.1-.5 1.1-1.3 0-1.3-.1-5.8-.2-6.2h-1.6V8c0 .3-.3.5-.6.5s-.5-.1-.5-.4V8c.1-1.1.1-3 .1-3.7 0-.2 0-1.7-.2-2.4v-.1c.1 0 1.1.5 1.6.8h.6c.1-.4.3-1.3.3-2V.2c0-.1 0-.1.1-.1.2 0 1.8.6 1.8.9 0 .2-.2.3-.6.3-.2 0-.3.1-.3.3-.3.4-.5.7-.8 1h2.5c.1 0 .2 0 .2-.1.5-.5.6-.5.7-.5.2 0 1.4.7 1.4 1 0 .2-.2.3-.4.4-.3.1-.3.2-.3 1.1 0 1 .1 2.7.1 3.4 0 .3-.3.6-.7.6-.2 0-.5-.2-.5-.5zm-4.5-2.7v1.9H31V5.3h-4.6zM27 3c-.1.1-.2.1-.3.2-.2.1-.2.8-.2 1.6H31c0-1.6 0-1.8-.3-1.8H27zm18.1 1.7c.3-.2.6-.4 1-.4.2 0 .5.1.5.4 0 .6-1.4 1-1.8 1.1-.1.6-.1 1.3-.1 1.9v.6c1-.3 1.5-.7 1.5-.9 0-.2-.4-.6-.8-.8l-.1-.1h.2c.4.2 1.2.5 1.6.5.4 0 .6.2.6.5 0 .8-2.3 1.7-3 1.9 0 .6.1 1.3.2 1.9.1.5.2 1.1.2 1.7 1.8.6 2.7 1.8 2.7 2.3 0 .4-.2.6-.5.6-.2 0-.5-.1-.7-.5-.4-.5-.9-1-1.5-1.4-.4 1.3-1.9 2.3-3.2 2.3-1.4 0-2.3-1-2.3-1.8 0-1.4 2.2-1.8 3.6-1.8.3 0 .6 0 .9.1 0-.5 0-.9-.1-1.4 0-.5-.1-1.1-.1-1.7-1 .3-2 .3-2.1.3-2.3 0-2.9-1.2-2.9-1.3 0-.1.1-.1.1-.1.1 0 .3.1.4.1.7.3 1.4.4 2.1.4 1 0 1.9-.2 2.3-.3 0-.9 0-1.8.1-2.6h-.4c-2.2 0-2.7-1.4-2.7-1.8 0-.1 0-.1.1-.1s.2.1.3.2c.6.3 1.4.8 2.3.8h.6c0-.3.1-.6.1-.8.1-.4.2-1.4.2-1.9 0-.7-.2-.7-.5-.8-.3-.1-.4-.2-.4-.3 0-.1.4-.5.8-.5.5 0 1.2.8 1.2 1.3 0 .3-.1.5-.2.9 0 0-.1.2-.4 1.8l.2-.3zm-2.6 8.6c-.5 0-2.4.1-2.4 1 0 .4.5.9 1.5.9s2.1-.6 2.4-1.7c-.5-.1-1-.2-1.5-.2zm19.9 1.3c2.2-.5 3.1-1.9 3.1-3.2 0-1.4-1.1-2.8-2.9-2.8-1.3 0-2.8.5-4 2.6-.2.3-.5.9-.6 1.1-.3.4-.5.5-.8.5-.3 0-.5-.2-.5-.5s.2-.7 1.5-2.2c.7-.8 4-5.4 4.3-5.9.1-.2.2-.3.2-.5 0-.1 0-.3-.5-.3-.9 0-1.3 1.7-2.5 1.7-.6 0-1.1-.4-1.1-1 0-.1 0-.3.1-.3s.2.1.3.1c.2.1.3.1.5.1.3 0 .5-.1.7-.3.5-.4 1.5-1.1 2.5-1.1.8 0 1.6.7 1.6 1.1 0 .3-.3.6-.7.9-1.5 1.1-3.7 4.3-3.7 4.3h.1c.8-.6 1.8-.9 2.9-.9 2.6 0 3.7 1.9 3.7 3.3 0 2-1.9 4.1-5 4.1-1.3 0-2.8-.7-2.8-1.8 0-.8.8-1.3 1.7-1.3 1.1 0 1.9.9 1.9 1.8v.5zm-1-.5c0-.7-.5-1.2-1.2-1.2-.8 0-.8.5-.8.7 0 .7 1 1.1 1.9 1.1.1-.2.1-.4.1-.6zM80 15.2c-2.8 0-5.2-1.3-5.2-2.9 0-1 .8-1.7.9-1.7.1 0 .1.1.1.1 0 .1-.1.3-.1.4-.2.3-.3.6-.3.8 0 1.2 2 2.1 4.1 2.1.5 0 1-.1 1.5-.2.8-.2 1.2-.4 1.7-.5h.4c.6 0 .9.2.9.6.1.6-1.7 1.3-4 1.3zm2-10.4c-.4 0-1.8.3-3.2 1.4-.2.2-.4.2-.4.2-.1 0-.1 0-.1-.1s.1-.2.2-.3c.3-.3 1-1.2 1-1.3 0-.1-.1-.1-.3-.1h-.8c-1.8-.2-2.5-1.3-2.5-1.4 0 0 0-.1.1-.1s.3.1.6.2c.7.3 1.5.3 2.4.3h1.7c.3 0 .5-.1.8-.1.8 0 1.4.5 1.4.8-.1.3-.3.5-.9.5zm2-.9c-.5-.6-1.1-1-1.5-1.3-.1-.1-.3-.1-.3-.2s.7-.1.7-.1c1.4.1 2.1.7 2.1 1.3 0 .3-.2.6-.5.6-.2 0-.4-.1-.5-.3zm1.8-.9c-.5-.5-1.1-1-1.6-1.2-.1 0-.2-.1-.2-.1 0-.1.5-.1.8-.1.8 0 2 .3 2 1.2 0 .3-.2.6-.5.6-.1-.1-.3-.2-.5-.4zm10.1 3.5c0-.9.2-1.9.3-2.6.1-.5.1-.8.1-1.2 0-.7-.2-.9-.9-1.1-.2 0-.3-.1-.3-.2 0-.2.3-.5.7-.5.5 0 1.7.6 1.7 1.7 0 .4-.2.8-.2 1.1-.2.8-.5 2-.5 2.9 0 .9.3 1.7 1.2 1.9.9-.4 1.3-.4 1.6-.4.7 0 .8.4.8.6 0 .7-.9.9-1.4.9h-.4c-1.5 0-3.9 1.4-3.9 3.1 0 1.1.9 2.1 2.8 2.1.8 0 1.7-.2 2.4-.5.2-.1.4-.1.6-.1.4 0 .7.3.7.6 0 .9-1.9 1.3-3.2 1.3-3.1 0-4.1-1.9-4.1-3.1 0-1.5 1.3-3.1 3.2-3.9-.9-.5-1.2-1.5-1.2-2.6zm12.6 5.9c0-.3.2-.5.6-.8 1.5-.7 2.3-1.4 2.7-2.5.1-.2.1-.3.2-.3 0 0 .1 0 .1.5 0 1.9-2.1 3.5-2.9 3.5-.4.2-.7-.1-.7-.4zm7-5.4v3.7c0 .9.2 1.4.2 2 0 1.1-.4 1.8-.8 1.8-.3 0-.5-.3-.6-.8-.1-.7-.7-1.7-1.4-2.6-.1-.1-.1-.1-.1-.2s0-.1.1-.1.1 0 .2.1c.4.2 1 .8 1.4 1 .1 0 .1.1.2.1s.1-.1.1-.2V7.1l-1.5.3c-.8.2-1.1.3-1.5.3-.8 0-2.3-.5-2.3-1.2 0-.3.1-.3.2-.3s.2.1.4.1c.7.3 1.3.4 2.1.4.3 0 .4 0 2.7-.3V5.2c0-1-.3-1.5-1.1-1.5h-.2c-.1 0-.3-.1-.3-.2s.1-.5.7-.5c.5 0 2 .5 2 1.2 0 .3-.2.6-.2 1.1 0 .3-.1.7-.1 1.1.5-.1 1-.1 1.4-.2.9-.1.9-.5 1.6-.5 1 0 2.1.5 2.1.9 0 .2-.2.4-.7.4h-.3c-.6-.1-1.3-.2-2-.2-.6 0-1.1 0-1.7.1l-.6.1zm4.5 5c-.6-1-1.7-2.2-2.8-2.8-.2-.1-.3-.2-.3-.3h.1c.7 0 4.4 1.4 4.4 2.8 0 .4-.3.8-.7.8-.3-.1-.6-.2-.7-.5zm13.8-5.1c.3.1.6.3.6.9v.5c-1.1 6-7.1 7.8-7.7 7.8h-.1s.2-.2.4-.3c3.1-1.5 6-5.1 6-7.6 0-.5-.1-.8-.4-.8h-.2c-.1 0-.2-.1-.2-.2v-.1c-.9.1-1.7.4-2.2.6-.4.2-.7.3-1 .3-.8 0-2.3-.5-2.3-1.3 0-.2.1-.2.2-.2s.2.1.4.1c.4.2 1.2.3 1.8.3h.5c1.7-.3 3.8-.7 6-.9.6-.1.9-.4 1.4-.4.4 0 2.1.5 2.1 1.1 0 .3-.3.5-.6.5h-.3c-.8-.2-1.6-.3-2.5-.3-.2 0-.5 0-2 .1l.1-.1zm1.3-4.4c.6 0 1.4.3 1.4.7 0 .2-.3.4-.8.4-1.4 0-3.2.4-4.3.6h-.6c-1.5 0-1.7-1-1.7-1.1 0-.1.1-.2.2-.2s.1 0 .2.1c.3.2.8.3 1.4.3 1 0 2.3-.3 3.1-.5.3 0 .5-.3 1.1-.3zm7.7 12c0-.1.1-.2.3-.3 2.3-1.2 5.2-5.3 5.2-7.1 0-1-.8-1.1-1.1-1.1-.1 0-.2 0-.2-.1s.2-.5.8-.5c.7 0 1.9.8 1.9 1.7 0 .3-.1.6-.2.8-1.6 4.4-5.8 6.7-6.7 6.6.1.1 0 0 0 0zm9.2-1.4c-.6 0-1.2-1.2-1.2-1.4 0-.2.1-.4.2-.9.2-1.5.3-2.7.3-3.5 0-1.5-.3-2.1-.8-2.2-.3-.1-.4-.2-.4-.3 0-.1.4-.3.8-.3.8 0 1.6 1 1.6 1.8 0 .1 0 .3-.1.5-.3.8-.5 4.2-.5 4.5 0 .2.2.2.2.2.3 0 4.1-2.3 6.5-5.7.2-.3.3-.5.4-.5v.1c0 .5-2.3 4.6-6 7.1-.2 0-.6.6-1 .6zm16.9-7.2c0 3.9-3.1 8-4.7 8-.9 0-1.2-1.2-1.9-2.3-.3-.4-.4-1-.4-1.6 0-2.7 2.4-7.1 7.3-7.1 4.1 0 6.2 2.8 6.2 5.8 0 5.5-6.3 7-7.7 7-.2 0-.3 0-.3-.1s.3-.2.8-.4c4.7-1.3 6-4.4 6-6.6 0-2.7-1.8-5.1-5.3-5.1h-.6c.4.3.6 1.2.6 2.4zm-.6-.7c0-1.3-.3-1.6-.7-1.6H167.3c-2.8.8-4.5 3.5-4.5 5.8 0 1.6.8 2.8 1.7 2.8 1.1.1 3.8-3.7 3.8-7zm18.7 6.4c1.3 2 3.9 3.4 7.4 3.4H194.7c0 .1-1.6.6-2 1.2-.1.1-.1.1-.3.1-.9 0-4.7-1.5-5.8-4.7h-.2c-1.4 4.8-7.9 4.8-8.1 4.8-.2 0-.3 0-.3-.1s.3-.2.5-.2c3.4-.6 5.8-2.1 6.7-4.5h-.8c-1 0-3.3 0-4.9.2-.3 0-.8-.6-.8-.9 1.8.2 4.8.3 5.9.3h.9c.2-.8.2-1.4.2-2.1h-.7c-.9 0-1.6 0-3.1.2-.3 0-.8-.6-.8-.8 1.7.2 3.1.3 4 .3h.6v-2h-1c-1 0-1.8 0-3.3.2-.3 0-.8-.6-.8-.8 1.7.2 3.2.3 4.2.3h1c0-1-.1-1.7-.2-2.2v-.1c.1 0 2.1.3 2.1.7 0 .1-.1.3-.4.4-.3.2-.4.1-.4.8v.5h2.4c.1 0 .2-.1.3-.1.1-.2.7-.9.9-.9h.1c.6.2 1.5 1 1.5 1.3 0 .1-.1.2-.4.2h-4.8v2h1.8c.1 0 .2-.1.2-.1.2-.3.6-.9.8-.9h.1c.6.2 1.4.9 1.4 1.2 0 .1-.1.2-.4.2h-4c0 1.2-.2 2-.2 2.1h4.1c.1 0 .2-.1.3-.1.1-.1.7-1.1 1-1.1h.1c.6.2 1.6 1.2 1.6 1.5 0 .1-.1.2-.4.2H187zm-5.8-8.1c-.2 1.7-1.2 2.3-1.8 2.3-.4 0-.7-.3-.7-.6s.1-.5.5-.8c1.1-.9 1.5-1.5 1.7-2.6 0-.1.1-.2.1-.2.1 0 .3.9.3 1.4h4.4v-.2c0-.7-.1-1.8-.2-2.4V.3c.4 0 2.1.3 2.1.7 0 .1-.1.3-.3.4-.4.2-.4.2-.4.8 0 .3 0 .6-.1.9h4.5c.1 0 .2-.1.3-.1.1-.1.4-.4.6-.4h.1c.5.2 1.5.9 1.5 1.4 0 .2-.2.4-.7.4-1 .1-1.7.4-2.4.7h-.1s0-.1.1-.1c.3-.3.9-1.2.9-1.3 0-.1-.1-.1-.1-.1h-10.3zm18.2.8c-.7 0-1.6 0-2.8.2-.2 0-.7-.7-.7-.9 1.4.2 2.8.3 3.5.3h1.2c.1 0 .2-.1.2-.1.2-.3.5-.7.6-.9l.1-.1c.3 0 1.4 1 1.4 1.4 0 .1-.1.2-.3.2h-3.2zm1 11.2v-.4h-2.3v.7c0 .3-.4.5-.7.5-.2 0-.5-.1-.5-.4v-.1c.1-1.3.1-2.1.1-2.8 0-.4 0-1.9-.2-2.8v-.1c.2 0 1.2.4 1.6.7h1.5c.1 0 .2-.1.2-.1.1-.1.3-.5.5-.5.3 0 1.4.6 1.4 1 0 .2-.2.3-.4.4-.3.2-.3.3-.3 1s.1 1.7.1 2.8c0 .4-.4.6-.7.6 0 0-.3-.1-.3-.5zm-1-13.7c-.5 0-.9 0-1.8.2-.3 0-.7-.6-.7-.9 1 .2 2 .3 2.5.3h.2s.1-.1.2-.1c.1-.2.5-.9.7-.9h.1c.6.3 1.2.9 1.2 1.2 0 .1-.1.2-.3.2h-2.1zm0 4.8c-.5 0-1 0-1.8.2-.2 0-.7-.6-.7-.9 1 .2 2 .3 2.5.3h.3s.1-.1.2-.1c0 0 .4-.8.7-.8h.1c.4.2 1.1.8 1.1 1.2 0 .1-.1.2-.3.2h-2.1zm0 2.3c-.5 0-1 0-1.8.2-.2 0-.7-.6-.7-.9 1 .2 2 .3 2.5.3h.3s.1-.1.2-.1c.1-.1.5-.8.7-.8h.1c.5.2 1.1.8 1.1 1.2 0 .1-.1.2-.3.2h-2.1zm1 5.8V11.6c0-.1 0-.2-.1-.2h-1.8l-.1.1c-.2.1-.2.2-.2.6v2.6h2.2zm5.9.6c-1 0-2.1 0-3.6.2-.3 0-.8-.7-.8-.9.6.1 1.3.1 1.9.2V8.9c0-2.2-.1-2.8-.2-3v-.1c.1 0 2 .2 2 .7 0 .1-.2.3-.4.4-.4.2-.3.4-.3.9 0 .7-.1 2.4-.1 4.2v2.8h1.8c0-1.7.1-4.9.1-7.4V4.8c0-.5 0-1.9-.1-2.4-.9 0-1.8 0-3.2.2-.3 0-.8-.7-.8-.9 1.8.3 3.4.3 4.4.3h2.1c.1 0 .2-.1.3-.2 0 0 .7-1 1-1h.1c.7.3 1.5 1.2 1.5 1.4 0 .1-.1.2-.4.2h-3.9c.6.1.8.2.8.4 0 .1-.1.2-.3.3-.3.1-.3.2-.3.7v4h1c.1 0 .2-.1.3-.2.2-.3.7-.9.9-.9h.1c.6.2 1.4 1 1.4 1.3 0 .1-.1.2-.4.2h-3.4v6.6h1.6c.1 0 .2-.1.3-.2.1-.1.8-1.1 1-1.1h.1c.6.2 1.6 1.2 1.6 1.5 0 .1-.1.2-.4.2h-5.7zm16.4-3.7c1.3 2 3.9 3.4 7.4 3.4H230.4c0 .1-1.6.6-2 1.2-.1.1-.1.1-.3.1-.9 0-4.7-1.5-5.8-4.7h-.2c-1.4 4.8-7.9 4.8-8.1 4.8-.2 0-.3 0-.3-.1s.3-.2.5-.2c3.4-.6 5.8-2.1 6.7-4.5h-.8c-1 0-3.3 0-4.9.2-.3 0-.8-.6-.8-.9 1.8.2 4.8.3 5.9.3h.9c.2-.8.2-1.4.2-2.1h-.7c-.9 0-1.6 0-3.1.2-.3 0-.8-.6-.8-.8 1.7.2 3.1.3 4 .3h.6v-2h-1c-1 0-1.8 0-3.3.2-.3 0-.8-.6-.8-.8 1.7.2 3.2.3 4.2.3h1c0-1-.1-1.7-.2-2.2v-.1c.1 0 2.1.3 2.1.7 0 .1-.1.3-.4.4-.3.2-.4.1-.4.8v.5h2.4c.1 0 .2-.1.3-.1.1-.2.7-.9.9-.9h.1c.6.2 1.5 1 1.5 1.3 0 .1-.1.2-.4.2h-4.8v2h1.8c.1 0 .2-.1.2-.1.2-.3.6-.9.8-.9h.1c.6.2 1.4.9 1.4 1.2 0 .1-.1.2-.4.2h-4c0 1.2-.2 2-.2 2.1h4.1c.1 0 .2-.1.3-.1.1-.1.7-1.1 1-1.1h.1c.6.2 1.6 1.2 1.6 1.5 0 .1-.1.2-.4.2h-6.3zm-5.8-8.1c-.2 1.7-1.2 2.3-1.8 2.3-.4 0-.7-.3-.7-.6s.1-.5.5-.8c1.1-.9 1.5-1.5 1.7-2.6 0-.1.1-.2.1-.2.1 0 .3.9.3 1.4h4.4v-.2c0-.7-.1-1.8-.2-2.4V.3c.4 0 2.1.3 2.1.7 0 .1-.1.3-.3.4-.4.2-.4.2-.4.8 0 .3 0 .6-.1.9h4.5c.1 0 .2-.1.3-.1.1-.1.4-.4.6-.4h.1c.5.2 1.5.9 1.5 1.4 0 .2-.2.4-.7.4-1 .1-1.7.4-2.4.7h-.1s0-.1.1-.1c.3-.3.9-1.2.9-1.3 0-.1-.1-.1-.1-.1h-10.3zM231.3 14c0-.2.1-.5.4-.8.7-.6 1-1.4 1.1-2.1 0-.1 0-.1.1-.1 0 0 .3.5.3 1.3 0 1.4-.8 2.3-1.3 2.3-.4-.1-.6-.3-.6-.6zm14.1-3v-.4h-1.9c.8 2.3 2.7 4.1 4.8 4.6.1 0 .1 0 .1.1s-1.4.3-1.8.7c-.1.1-.1.1-.2.1-.3 0-2.5-1.9-3.2-5.1-.9 4.8-5.6 5.5-6.1 5.5-.1 0-.2 0-.2-.1s.2-.2.5-.3c3-.9 4.5-3.2 4.9-5.5h-1.7v.5c0 .3-.3.6-.6.6-.2 0-.4-.1-.4-.4v-.1c.1-.7.1-2 .1-2.6 0-.2 0-1.1-.2-1.6v-.1c.1 0 .6.2 1.4.6h1.5V7c0-.5 0-.8-.1-1.3-.4 0-.8.1-1.5.1-.2 0-.4-.2-.6-.5-.8.8-1.5 1.2-1.8 1.4 0 .1-.1.3-.3.3h-2v2.2h1.3c.2 0 .2-.1.3-.1l.4-.4c.3 0 1.2.7 1.2.9 0 .1-.1.3-.5.4-.2.1-.2.1-.3.3-.1.9-.3 2.5-.6 3.3-.6 1.5-1.6 2.2-2.5 2.2-.1 0-.2 0-.2-.1-.3-.5-1.6-1.2-1.6-1.3h.2c.4.1 1 .3 1.5.3 2 0 2.2-2.3 2.3-4.8 0-.1-.1-.2-.2-.2h-3.7v.2c0 .3-.4.6-.7.6-.2 0-.4-.1-.4-.5v-.1c.1-1.7.1-4.3.1-5.7 0-1.7-.1-2.7-.2-3.1V1c.2 0 1.1.4 1.5.7h2.9l.2-.1c0-.1.4-.8.6-.8h.1c.7.3 1.1 1 1.1 1.1 0 .1-.1.2-.3.2h-2.2c.1 0 .1.1.1.1 0 .1-.1.1-.2.2-.3.1-.3.1-.3.4v1.4h.5l.2-.1c.1-.1.4-.6.6-.6h.1c.7.3 1 .8 1 1 0 .1-.1.3-.3.3h-2v1.9h.5l.2-.1s.4-.7.6-.7h.1c.4.2.8.5 1 .8l.1-.1c1.5-1.3 3.3-4.4 3.5-6.1V.3c.1 0 1.9.6 1.9.8 0 .1-.2.2-.6.3h-.1c1.1 1.7 3 3.5 5 4 .1 0 .2.1.2.1 0 .2-1.3.3-1.6.6-.1.1-.1.1-.2.1-.2 0-2.4-2.1-3.6-4.6-.6 1.2-1.5 2.4-2.4 3.4 1 .1 1.7.2 2.6.2h.2s.1-.1.2-.1c0-.1.5-.7.6-.7h.1c.7.3 1 .9 1 1.1 0 .1-.1.2-.3.2h-1.3.1c.2.1.3.1.3.2s-.1.2-.2.2c-.3.1-.4.2-.4 1.3h1.6c.1 0 .2 0 .2-.1.2-.4.3-.4.4-.4.2 0 1.3.7 1.3 1 0 .1-.2.3-.3.3-.3.2-.3.3-.3.6 0 .4.1 1.5.1 2 0 .3-.3.6-.6.6-.4.1-.6 0-.6-.4zm-11.6 1.9v-.4c0-.4-.1-1-.1-1.3v-.1c.2 0 1 1 1 1.6 0 .4-.2.8-.6.8-.1-.1-.3-.2-.3-.6zm1.5-9.4V2.1h-.9l-.1.1c-.3.2-.3.2-.3.7v1.3h1.4v-.7zm0 1.1h-1.4v1.9h1.4V4.6zm0 4.6V7h-1.4v2.2h1.4zm.1 3c-.1-.4-.4-1.1-.6-1.4l-.1-.1c.4 0 1.5.7 1.5 1.4 0 .3-.2.6-.5.6-.1 0-.3-.2-.3-.5zm1.2-.8c-.1-.3-.4-.7-.7-1l-.1-.1h.1c.5 0 1.4.4 1.4 1 0 .3-.2.5-.4.5-.1-.1-.2-.2-.3-.4zm5.8-1.2v-.3c0-.5.1-1.3.1-1.9h-1.4s-.1 0-.1.1c-.3.2-.3.2-.3.5v1.7h1.7zm3 0V8.1c0-.1-.1-.2-.2-.2h-1.7c0 .7 0 1.6-.1 2.2v.1h2zm15.5-3c0-2.8 0-5.3-.1-6.4 0-.2.2-.4.5-.4h2.2c.6 0 1.3 0 2-.1 0 0 .1 0 .1.1v.3c0 .1 0 .4-.2.4-.5 0-1.5-.1-2.5-.1h-1.1c-.2 0-.2.1-.2.2v5.1c0 3.1 0 6.9.1 9.3 0 .2 0 .3-.5.3-.3 0-.4 0-.4-.3 0-1.9.1-5.3.1-8.4zm12.8 4.5c-.7 0-3.7 0-5.1.2-.2 0-.7-.7-.7-.9.8.1 1.9.1 2.9.2V7.5c-1 0-2.1.1-2.9.1-.2 0-.7-.7-.7-.9 1.2.1 2.6.2 3.7.2V4.5c0-.4 0-.7-.1-1-1.5 1.7-2.9 2.5-3.1 2.5h-.1c0-.1.1-.1.2-.2 1.4-1.2 3.5-4.2 3.7-5.5 0-.1 0-.2.1-.2.2 0 1.8.7 1.8 1.1 0 .2-.2.3-.6.3-.3 0-.4 0-.5.3-.3.4-.7.9-1 1.3h8.1c.1 0 .2-.1.2-.1.8-1 .8-1 .9-1 .3 0 1.5 1 1.5 1.4 0 .1-.1.2-.3.2h-1.6c.1 0 .1.1.1.1 0 .1-.1.2-.2.2-.3.1-.3.1-.3 3.1h1.4c.1 0 .2-.1.2-.1.2-.3.6-.8.7-1 .1 0 .1-.1.1-.1.3 0 1.5 1 1.5 1.4 0 .1-.1.2-.3.2h-3.7v3.8h1c.1 0 .2-.1.2-.1.2-.3.5-.8.7-.9.1 0 .1-.1.1-.1.4 0 1.5 1.1 1.5 1.4 0 .1-.1.2-.3.2h-9.1zm-5.7 4.1c0-.3.3-.7.8-.9 1.2-.4 1.7-1.3 2.1-2.1l.1-.1c.1 0 .1.1.1.4 0 1.8-1.2 3.3-2.4 3.3-.4-.1-.7-.3-.7-.6zm5.4-8.8V4.6c0-.4 0-.7-.1-1h-1.2c.1 0 .1.1.1.1 0 .1-.1.2-.2.2-.3.1-.3.1-.3 3h1.7zm-.6.5h-1v3.8h1.6V7.5h-.6zm.2 8v-.2c0-.3.1-.7.1-1.2 0-.4 0-.8-.1-1.1V12.7c.1 0 1.3 1.3 1.3 2.3 0 .8-.4 1.2-.8 1.2-.2.1-.5-.2-.5-.7zm2.9-8.5V4.6c0-.4 0-.7-.1-1h-1.1c.1 0 .1.1.1.1 0 .1-.1.2-.2.2-.3.1-.3.1-.3 3h1.6zm0 4.3V7.5h-1.6v3.8h1.6zm1.1 4.1c-.2-.8-.6-1.8-.9-2.4-.1-.1-.1-.2-.1-.2.3 0 2.3 1.2 2.3 2.5 0 .5-.3.9-.6.9-.3-.1-.6-.3-.7-.8zm1.5-8.4V4.6c0-.4 0-.7-.1-1h-1.2c.1 0 .1.1.1.1 0 .1-.1.2-.2.2-.3.1-.3.1-.3 3.1h1.7zm0 4.3V7.5h-1.7v3.8h1.7zm2.8 4c-.5-1-1.5-2-2-2.4l-.2-.2h.1c.6 0 3.4 1.2 3.4 2.6 0 .4-.3.7-.6.7-.2 0-.5-.2-.7-.7zm11.9-11.9c-.1 10.2-7.4 12.7-7.8 12.7h-.1c0-.1.2-.2.4-.4 4.2-2.3 6.1-7.9 6.1-12.4v-.1c0-.9-.1-1.7-.2-2.1V1c.2 0 2.3.3 2.3.8 0 .1-.1.2-.3.3v.4c0 4.7 2.7 10.8 7.7 12.4.1 0 .1.1.1.1 0 .1-1.7.2-2.2.7-.1.1-.1.1-.2.1-.4 0-5.7-3.9-5.7-12.3V2.4c0 .1-.1.2-.1 1zm9.4 10.2c0-.2.1-.5.4-.8.7-.6 1-1.4 1.1-2.1 0-.1 0-.1.1-.1 0 0 .3.4.3 1.3 0 1.2-.6 2.2-1.3 2.2-.4 0-.6-.2-.6-.5zm2.6-4.4v.2c0 .3-.4.6-.7.6-.2 0-.4-.1-.4-.5v-.1c.1-1.7.1-4.2.1-5.5 0-1.1 0-2.1-.2-3V.8c.2 0 1.1.4 1.5.7h3l.2-.1c.1-.3.5-.8.6-.8h.1c.5.2 1.1.8 1.1 1.1 0 .1-.1.3-.3.3H308c.1 0 .1.1.1.1 0 .1-.1.1-.2.2-.3.1-.3.1-.3.4V4h.5l.2-.1s.4-.7.6-.7h.1c.9.4 1 1 1 1 0 .1-.1.3-.3.3h-2.1v1.9h.5l.2-.1s.4-.7.6-.7h.1c.9.4 1 1 1 1 0 .1-.1.3-.3.3h-2.1V9h1.2c.2 0 .2-.1.3-.1.2-.2.2-.3.3-.4l.1-.1c.3 0 1.2.7 1.2.9 0 .1-.1.3-.5.4-.2.1-.2.2-.3.4-.1 2.2-.6 5.6-3.1 5.6h-.1c-.1 0-.2 0-.2-.1-.1-.5-1.3-1.2-1.3-1.4h.2c.4.1 1 .4 1.5.4 1.7 0 1.9-3 2-5 0-.1-.1-.2-.2-.2h-3.5zm.3 3.8c-.2 0-.4-.2-.4-.6V12c0-.4-.1-1-.1-1.3v-.1c.1 0 1 .9 1 1.6.1.6-.2.8-.5.8zm1.2-9.1c0-.6 0-1.5-.1-2h-1l-.1.1c-.3.2-.3.2-.3.7v1.2h1.5zm0 .4h-1.5v1.9h1.5V4.3zm0 4.5V6.7h-1.5v2.1h1.5zm0 3.1c-.1-.4-.4-1-.6-1.4l-.1-.1c.4 0 1.5.7 1.5 1.3 0 .3-.2.6-.5.6 0 0-.2-.1-.3-.4zm1.2-.9c-.1-.3-.4-.7-.7-1l-.1-.1h.1c.6 0 1.4.4 1.4 1 0 .3-.2.5-.4.5 0-.1-.2-.2-.3-.4zm6.8-4.2c.5 3.2 1.4 6.8 4.9 8.3.1.1.2.1.2.1 0 .2-1.4.3-1.8.7-.1.1-.1.1-.2.1-.3 0-2.8-3.2-3.2-9.3h-1.3c-.1 3.1-.8 7.1-3.8 9.4-.3.2-.5.3-.6.3 0-.1.1-.2.4-.5 2.6-2.6 3-6.9 3-10.4 0-2.3-.2-4-.3-4.6V.7c.1 0 1.3.5 1.8.8 0 0 .1 0 .1.1h2.8c.1 0 .2-.1.3-.2.2-.3.4-.6.6-.6.4 0 1.4 1 1.4 1.2 0 .2-.1.3-.4.4-.4.2-.4.3-.4.9 0 .7 0 2.3.1 3.6 0 .4-.4.6-.7.6-.3 0-.5-.1-.5-.5v-.4h-2.4zm2.2-.5V2.5c0-.1-.1-.2-.3-.2h-3l-.1.1c-.3.2-.3.1-.3.9V6.4h3.7zm10.6 0c.6-.2.9-.2 1.1-.2 1 0 1.8.6 1.8 3 0 3.7-2 5.7-3.8 5.7-.3 0-.5 0-.7-.1-.8-.3-.4-.9-.7-1.6-.1-.3-.1-.5-.1-.6v-.1c.1 0 .2.2.5.5.3.5.8.7 1.3.7 1.5 0 2.6-2.5 2.6-4.9 0-1.2-.3-2.1-1-2.1-.1 0-.5 0-1.4.6-.9 2.1-2.3 4.9-3.3 6.8-.4.7-.9 1-1.2 1-.2 0-.4-.1-.4-.4 0-.3.2-.7.6-1.2.9-1.2 2.6-3.8 3.6-5.9-.5.3-1.7.8-2.2.8-.8 0-1.4-.6-1.4-1.3 0-.6.1-.6.1-.6.1 0 .2.2.3.3.3.3.7.4 1.1.4.9 0 1.7-.2 2.4-.5.1-.2.3-1.2.3-2 0-.6-.1-1-.6-1.1-.2 0-.4-.1-.4-.3 0-.3.8-.6 1.1-.6.3 0 .9.1.9 1.1 0 .5-.3 1.6-.6 2.3l.1.3zm7.4 4.7c-.1-.1-.3-.1-.6-.1h-1c-.4 0-.6 0-.6-.1s.2-.1.5-.2c1.3-.3 2-.6 2-1.5 0-1.4-1.4-1.8-2.4-2.2-.4-.1-.6-.2-.6-.3h.2c2.4 0 4 1.3 4 2.8 0 .9-.6 1.7-1.2 1.7-.1 0-.2-.1-.3-.1zm8.6-4.8v-.7c0-1.4 1.2-2 2.3-2.6.1-.1.4-.3.4-.5v-.1c-.1-.4-.4-.6-.4-.8 0-.1-.1-.3-.1-.3h.1c.2 0 2.4 1 2.4 2.2 0 .5-.3.8-.7.8-.2 0-.4-.1-.7-.2-.3-.1-.9-.2-1.2-.2-1 0-1.4.7-1.4 1.2 0 .2 0 .4.1.5.1.3.1.6.1.8 0 .4-.1.8-.3 1.6-.1.7-.3 1.5-.3 2.2 0 1.3.4 1.5.6 1.5.2 0 .4-.1.6-.3.4-.3.9-.8 1.8-1.4.6-.4 1.3-.6 1.9-.6 1.5 0 2.9 1.1 2.9 2.6 0 2.8-3.7 4.5-6.7 4.5h-.2s.2-.1.8-.3c3.4-.8 4.9-2.8 4.9-4.2 0-1.2-1-1.9-2.1-1.9-.4 0-.9.1-1.3.4-.8.6-1.2 1.2-1.9 2.2-.3.4-.5.5-.8.5-.5 0-1.5-.7-1.5-2.7 0-1 .2-2.2.3-3.2.4 0 .4-.5.4-1zm15.1 5.8c0-1.9.6-3.5.9-5 .1-.6.3-1.2.3-1.9s-.2-1.5-.9-2.4c-.1-.1-.2-.2-.2-.3 0-.1.2-.1.2-.1.6 0 2 1.6 2 2.9 0 .7-.3 1.2-.7 2.1-.5 1.2-1 2.5-1 3.7 0 .6.1 1.1.3 1.1.1 0 .1-.1.2-.3.2-.5 1.6-3.5 1.9-3.5 0 0 .1 0 .1.1s0 .2-.1.3c-1.1 2.3-1.5 4.4-1.5 5.2 0 .3 0 .6.1.8.1.2.1.3.1.5 0 .4-.2.6-.5.6-.6 0-1.2-2-1.2-3.8zm9.4-7.2c0-1.8-.1-1.8-.6-1.9-.3-.1-.4-.1-.4-.3s.4-.6.8-.6 1.3.7 1.3 1.3v.3c.3.1 1 .4 1.2.5.7.2.9.3.9.7 0 1-1.9 1.5-2.4 1.7v.8c0 1.4.1 2.6.1 3.4 0 .4.1.9.1 1.3 1.3.4 2.8 1.5 2.8 2.2 0 .4-.2.7-.5.7-.2 0-.4-.1-.6-.5-.4-.7-1.1-1.3-1.7-1.6-.3 1.5-1.5 2.6-2.8 2.6-1.3 0-2.4-.9-2.4-1.9 0-1.1 1.5-1.8 3.3-1.8.4 0 .8 0 1.2.1v-.9c0-.8 0-2.5-.1-4.2-.4.1-.7.1-.9.1-2.1 0-2.9-1.5-2.9-1.7 0 0 0-.1.1-.1s.2 0 .4.1c.3.1 1 .4 1.3.5.4.1.8.2 1.2.2 0 0 .2 0 .8-.1v-.9zm-1.6 7.6c-1.3 0-2.2.6-2.2 1.2 0 .7.9.9 1.5.9 1.1 0 2-.7 2.2-1.9-.5-.1-1-.2-1.5-.2zm2.4-6.7c1.3-.3 1.3-.7 1.3-.9 0-.3-.3-.5-1.1-.9-.2 1.2-.2 1.7-.2 1.8zm14.1 10c-1.6 0-3.9-.8-3.9-5.3 0-2 .4-4 .4-6 0-.9-.1-1.7-.5-2.1-.2-.2-.2-.3-.2-.4s.1-.1.2-.1c0 0 1.9 0 1.9 1.9 0 .2 0 .4-.1.6-.2 1.4-.9 4.1-.9 6.4 0 1 .1 3.8 3.3 3.8 1.6 0 3.6-.8 5.3-2.3.1-.1.3-.2.3-.2.1.4-2.6 3.7-5.8 3.7zm.4-11.3c1.1 0 2.3.4 2.3 1.3 0 .4-.2.6-.5.6-.2 0-.4-.1-.5-.3-.5-.6-1.1-1.1-1.6-1.4-.1-.1-.3-.1-.3-.2 0 .1.1 0 .6 0zm3.4.8c-.5-.6-1.1-1.1-1.6-1.4-.1-.1-.3-.1-.3-.2s.4-.1.6-.1c1.4 0 2.3.6 2.3 1.3 0 .4-.2.6-.5.6-.1.1-.3 0-.5-.2zm14.8-.5c.3-.2.6-.4 1-.4.2 0 .5.1.5.4 0 .6-1.4 1-1.8 1.1-.1.6-.1 1.3-.1 1.9v.6c1-.3 1.5-.7 1.5-.9 0-.2-.4-.6-.8-.8l-.1-.1h.2c.4.2 1.1.5 1.5.5.4 0 .6.2.6.5 0 .8-2.3 1.7-3 1.9 0 .6.1 1.3.2 1.9.1.5.2 1.1.2 1.7 1.8.6 2.7 1.8 2.7 2.3 0 .4-.2.6-.5.6-.2 0-.5-.1-.7-.5-.4-.5-.9-1-1.5-1.4-.4 1.3-1.9 2.3-3.2 2.3-1.4 0-2.3-1-2.3-1.8 0-1.4 2.2-1.8 3.6-1.8.3 0 .6 0 .9.1 0-.5 0-.9-.1-1.4 0-.5-.1-1.1-.1-1.7-1 .3-2 .3-2.1.3-2.3 0-2.9-1.2-2.9-1.3 0-.1.1-.1.1-.1.1 0 .3.1.4.1.7.3 1.4.4 2.1.4 1 0 1.9-.2 2.3-.3 0-.9 0-1.8.1-2.6h-.4c-2.2 0-2.7-1.4-2.7-1.8 0-.1 0-.1.1-.1s.2.1.3.2c.6.3 1.4.8 2.3.8h.6c0-.3.1-.6.1-.8.1-.4.2-1.4.2-1.9 0-.7-.2-.7-.5-.8-.3-.1-.4-.2-.4-.3 0-.1.4-.5.8-.5.5 0 1.2.8 1.2 1.3 0 .3-.1.5-.2.9 0 0-.1.2-.4 1.8l.3-.3zm-2.6 8.6c-.5 0-2.4.1-2.4 1 0 .4.5.9 1.5.9.9 0 2.1-.6 2.4-1.7-.5-.1-1-.2-1.5-.2zm19.9 1.3c2.2-.5 3.1-1.9 3.1-3.2 0-1.4-1.1-2.8-2.9-2.8-1.3 0-2.8.5-4 2.6-.2.3-.5.9-.6 1.1-.3.4-.5.5-.8.5-.3 0-.5-.2-.5-.5s.2-.7 1.5-2.2c.7-.8 4-5.4 4.3-5.9.1-.2.2-.3.2-.5 0-.1 0-.3-.5-.3-.9 0-1.3 1.7-2.5 1.7-.6 0-1.1-.4-1.1-1 0-.1 0-.3.1-.3s.2.1.3.1c.2.1.3.1.5.1.3 0 .5-.1.7-.3.5-.4 1.5-1.1 2.5-1.1.8 0 1.6.7 1.6 1.1 0 .3-.3.6-.7.9-1.5 1.1-3.7 4.3-3.7 4.3h.1c.8-.5 1.9-.8 2.9-.8 2.6 0 3.7 1.9 3.7 3.3 0 2-1.9 4.1-5 4.1-1.3 0-2.8-.7-2.8-1.8 0-.8.8-1.3 1.7-1.3 1.1 0 1.9.9 1.9 1.8v.4zm-1-.5c0-.7-.5-1.2-1.2-1.2-.8 0-.8.5-.8.7 0 .7 1 1.1 1.9 1.1.1-.2.1-.4.1-.6zm12.4 1.8c-.5-1-1.4-1.7-2.2-2.3-.2-.1-.4-.3-.4-.3h.1c.7 0 3.9.7 3.9 2.3 0 .5-.4.9-.8.9-.1-.1-.4-.3-.6-.6zm16.9-9.5c-.3-.4-1-1-1.5-1.3-.1-.1-.2-.1-.2-.2s.7-.1.8-.1c1 0 2.2.3 2.2 1.2 0 .4-.3.7-.6.7-.3.1-.5 0-.7-.3zm0 8v-.2c0-.5.2-1 .2-1.5 0-.7-.3-1.3-1.5-1.6-.3-.1-.4-.1-.4-.2s.2-.1.4-.1c.7 0 1.2-.1 1.5-.8.8-1.7 3-6.2 3.2-6.2v.1c0 .1 0 .2-.1.3-1.1 2.7-2.3 6.1-2.3 8 0 .6.1 1.1.3 1.6.4 1-.1 1.7-.6 1.7-.4-.1-.7-.4-.7-1.1zm1.4-11.7c-.3-.5-.8-1.1-1.4-1.5l-.2-.2h.3c1.1 0 2.7.5 2.7 1.5 0 .4-.3.7-.7.7-.3.1-.5-.1-.7-.5zm10.1 7.4h-1c.1 0 .1.1.1.1l-.2.2c-.3.1-.3.1-.3.6v2.2c0 .3.1.8.1 1.2 0 1.4-1.3 1.8-1.8 1.8-.1 0-.2-.1-.3-.2-.2-.3-1.7-1-1.7-1.2H453.8c.6.1 1.2.2 1.5.2.7 0 1-.2 1-.7v-1.7c0-1.2 0-2.1-.1-2.5h-1.4v.3c0 .3-.3.5-.7.5-.2 0-.5-.1-.5-.4v-.1c.1-1.3.1-2.4.1-3.2 0-.3 0-1.9-.2-2.9v-.2s1 .4 1.6.8h.6c.1-.5.2-1.3.2-1.6v-.8H453s-.1.1-.2.1c-.3.2-.3.1-.3.8V4c-.1 2.6.3 9.2-4.2 11.8-.3.2-.5.3-.6.3 0-.1.1-.2.4-.4 3.1-2.3 3.4-7.1 3.4-10.6v-1c0-.5-.1-2-.2-2.7v-.1c.1 0 1.4.5 1.7.8H458.7c.1 0 .2-.1.3-.1.5-.7.7-1 .9-1 .4 0 1.6 1 1.6 1.3 0 .1-.1.2-.4.2h-4c.6.2.9.3.9.4 0 .1-.1.2-.4.3-.2.1-.3.2-.3.3-.2.4-.5 1-.8 1.4h1.9c.1 0 .2-.1.3-.1.3-.5.4-.5.5-.5s1.3.6 1.3 1c0 .2-.2.3-.4.4-.3.2-.3.3-.3 1.1s.1 2.2.1 3.3c0 .4-.3.6-.6.6s-.5-.1-.5-.5v-.1zm-4.7 1.4c.1 0 1.5.7 1.5 1 0 .1-.1.2-.4.2h-.2c-.1 0-.2 0-.3.2-1.2 1.6-3.7 3-4.1 3h-.1c0-.1.1-.1.3-.2 1.1-.7 3.2-3 3.2-4 0-.1 0-.2.1-.2zm1.3-6c0 .1-.1.1 0 0-.4.3-.3.2-.4.8v.9h3.8V5.7c0-.1 0-.2-.2-.2h-3.2zm-.4 2.2v1.9h3.7V7.7h-3.7zm5.3 7c-.4-.9-1.2-1.9-2.1-2.7l-.1-.1h.1s3.3 1.1 3.3 2.6c0 .5-.3.8-.6.8-.2-.1-.5-.3-.6-.6zm4.8-8.1c-.3-.4-1-1-1.5-1.3-.1-.1-.2-.1-.2-.2s.7-.1.8-.1c1 0 2.2.3 2.2 1.2 0 .4-.3.7-.6.7-.3.1-.5 0-.7-.3zm.1 8v-.2c0-.5.2-1 .2-1.5 0-.7-.3-1.3-1.5-1.6-.3-.1-.4-.1-.4-.2s.2-.1.4-.1c.7 0 1.1-.1 1.5-.8 1-1.9 2.8-5.7 3.1-5.7v.1c0 .1-.1.3-.1.5-1.5 3.9-2.1 5.7-2.1 7.3 0 .6.1 1.1.3 1.7.4 1.2-.1 1.9-.6 1.9-.4-.2-.8-.6-.8-1.4zm1.3-11.7c-.3-.5-.8-1.1-1.4-1.5l-.2-.2h.3c1.1 0 2.7.5 2.7 1.5 0 .4-.3.7-.7.7-.2 0-.5-.1-.7-.5zm-.3 13.4.3-.3c2-1 3.4-3.1 3.4-6.2 0-.5 0-.7-.1-1.6V8c.1 0 1.4.2 1.6.3.2.1.2.1.2.2s-.1.2-.3.3c-.2.1-.3 0-.3.3v.5c0 5.8-4.7 6.7-4.8 6.7zm7.3-12.6s.1 0 0 0c0 .1-.1.2-.4.3-.2 0-.2.2-.3.3-.2.4-.8 1.6-1.1 2.1 1.8-.1 3.3-.2 4.4-.4-.5-.5-1-.9-1.5-1.3l-.1-.1h.1c.8 0 3.8 1.1 3.8 2.4 0 .4-.3.7-.6.7-.2 0-.5-.1-.7-.5-.2-.3-.4-.6-.7-.9-1.8.5-4 .8-6.6 1.2-.2 0-.3.2-.5.2-.3 0-.9-1.3-.9-1.4h.1c.5.1 1.2.2 1.4.2h1.1c.2-.5.4-1.7.5-2.7-.8 0-1.8.1-2.9.2-.3 0-.8-.7-.8-.9 1.7.2 3.6.3 4.5.3V2.3c0-.6 0-1.2-.1-1.7V.5c.2 0 1.9.3 1.9.6 0 .1-.1.2-.4.4-.3.1-.3.2-.3.7v1.1h2.7c.1 0 .2-.1.3-.2.6-.9.7-.9.8-.9h.1c.5.2 1.4.9 1.4 1.3 0 .1-.1.2-.4.2h-4.8zm-.7 11.9c-.3 0-.5-.1-.5-.5V15c.1-1 .1-3.3.1-4.7 0-1 0-1.7-.1-2.2V8s0-.1.1-.1c.8 0 1.7.3 1.7.4 0 .1-.1.2-.2.2-.3.2-.4.2-.5.6v1.7c0 1.4 0 3 .1 3.9 0 .7-.4.9-.7.9zm4.4.3c-2.1 0-2.1-.8-2.1-2.2V9.6c0-.3 0-1-.1-1.5V8s0-.1.1-.1 1.1.1 1.5.3c.2.1.2.1.2.2s-.1.3-.3.3c-.4.1-.4.2-.4 2.7V14c0 .3.1.8.8.8 1.3 0 1.4-.3 1.8-3.2 0-.2.1-.3.1-.3.1 0 .1 2.9.5 3.1.3.2.4.4.4.6 0 .8-1.8.9-2.5.9zm20-3c-.2 0-.4 0-.6-.1-3.4-.8-5.1-3.9-8.1-5.8-.2-.1-.4-.2-.7-.2-.4 0-.7.2-1 .4-.6.5-1.4 2.1-1.7 2.5-.3.5-.8.7-1.2.7-.6 0-1.6-.6-1.6-1.4 0-.2.1-.3.2-.3s.1.1.2.1c.1.1.3.2.6.2.2 0 .5-.1.7-.2.4-.2 1.4-1.3 2.3-2 .4-.3.9-.5 1.5-.5.4 0 .8.1 1.2.3 3.3 1.9 5.4 4.5 8 4.8.7.1 1.1.5 1.1.9-.1.3-.3.6-.9.6zm10.5-7c0 3.9-3.1 8-4.7 8-.9 0-1.2-1.2-1.9-2.3-.3-.4-.4-1-.4-1.6 0-2.7 2.4-7.1 7.3-7.1 4.1 0 6.2 2.8 6.2 5.8 0 5.5-6.3 7-7.7 7-.2 0-.3 0-.3-.1s.3-.2.8-.4c4.7-1.3 6-4.4 6-6.6 0-2.7-1.8-5.1-5.3-5.1h-.6c.4.3.6 1.2.6 2.4zm-.6-.7c0-1.3-.3-1.6-.7-1.6H505.9c-2.8.8-4.5 3.5-4.5 5.8 0 1.6.8 2.8 1.7 2.8 1.1.1 3.8-3.7 3.8-7zm13.8-.9c.4.1.5.2.5.3 0 .1-.1.2-.3.3-.3.1-.3.1-.3.6s-.1 1-.1 1.5h1.3c.2 0 .2-.1.3-.1.2-.2.2-.3.3-.4l.1-.1c.3 0 1.2.7 1.2.9 0 .1-.1.3-.4.4-.2.1-.2.2-.3.5-.1 1.4-.2 2.7-.4 4.2-.3 2.3-1.4 3.3-2.7 3.3-.1 0-.2 0-.2-.1-.1-.5-1.1-1.2-1.3-1.4-.9 1.5-2 2.2-2.2 2.2 0-.1.1-.3.3-.4 2.9-2.9 3.1-10.7 3.1-10.7 0-.4 0-.7-.1-1-.5 0-1.1.1-1.9.1-.3 0-.7-.6-.7-.8 1.2.1 2.2.2 3 .2v-.5c0-.9 0-2.2-.2-2.7V.5h.1c.1 0 1.9.2 1.9.6 0 .1-.1.3-.3.4-.3.2-.4.2-.4.8 0 .5 0 1.2-.1 1.6h1.2c.1 0 .2 0 .2-.1.5-.8.6-.9.7-.9h.1c.6.3 1.3 1.1 1.3 1.3 0 .1-.1.2-.3.2h-3.4zm-.3 3.2c-.3 2.3-.8 4.8-2 6.7h.1c.4.1.9.3 1.4.3 1.7 0 1.8-2.9 2-6.9 0-.2-.1-.2-.2-.2h-1.3zm5.3-3.3c-1.5 2.1-2.5 2.6-2.6 2.6 0 0 .1-.2.3-.4.8-.9 2.7-4.1 2.8-5.8 0-.1 0-.2.1-.2.2 0 1.8.7 1.8.9 0 .1-.2.2-.5.3-.3 0-.3.1-.4.3-.3.4-.7 1.1-1.2 1.8h3.6c.1 0 .2-.1.3-.1.5-.7.7-1 .9-1 .5 0 1.6 1 1.6 1.3 0 .1-.1.2-.4.2h-6.3zm.4 3.4c.3 0 .7.1.7.3 0 .1-.2.2-.3.3-.3.2-.3.2-.3 3.3 0 1.5 0 3.3.1 4.3 0 .4-.4.7-.7.7-.3 0-.5-.2-.5-.5v-.1c.2-2.3.2-5.1.2-6.1 0-.6 0-1.3-.1-1.9-.7.2-1.5.4-1.9.4-.1 0-.2 0-.2-.1s.1-.1.4-.2c1-.3 5.1-1.9 5.9-2.9l.1-.1c.2 0 1.4.8 1.4 1.1 0 .1-.1.2-.4.2H530.2c-.2 0-.3.1-.4.1-.6.3-1.4.5-2.1.8.1 1 .3 2 .7 3 .4-.2 2.2-1.4 2.5-2.2 0-.1 0-.1.1-.1.2 0 1.5 1.1 1.5 1.5 0 .1-.1.2-.3.2-.1 0-.2 0-.3-.1-.1 0-.2-.1-.3-.1h-.2c-.3.1-1.6.6-2.7.9.8 2.2 2.4 4.1 4.7 4.9.1 0 .1.1.1.1 0 .1-1.5.1-2 .5-.1 0-.1.1-.2.1-.5 0-3.5-3.2-3.6-8.7-.7.1-1.2.2-1.6.4zm13.2 1.9c0 2.8 0 5.3.1 6.4 0 .2-.2.4-.5.4h-2.2c-.6 0-1.3 0-2 .1 0 0-.1 0-.1-.1V16c0-.1 0-.4.2-.4.5 0 1.5.1 2.5.1h1.1c.2 0 .2-.1.2-.2v-5.1c0-3.1 0-6.9-.1-9.3 0-.2 0-.3.5-.3.3 0 .4 0 .4.3-.1 1.8-.1 5.2-.1 8.4zM561 5.9c0 3.9-3.1 8-4.7 8-.9 0-1.2-1.2-1.9-2.3-.3-.4-.4-1-.4-1.6 0-2.7 2.4-7.1 7.3-7.1 4.1 0 6.2 2.8 6.2 5.8 0 5.5-6.3 7-7.7 7-.2 0-.3 0-.3-.1s.3-.2.8-.4c4.7-1.3 6-4.4 6-6.6 0-2.7-1.8-5.1-5.3-5.1h-.6c.3.3.6 1.2.6 2.4zm-.7-.7c0-1.3-.3-1.6-.7-1.6H559.3c-2.8.8-4.5 3.5-4.5 5.8 0 1.6.8 2.8 1.7 2.8 1.2.1 3.8-3.7 3.8-7zm18.8 6.4c1.3 2 3.9 3.4 7.4 3.4H586.8c0 .1-1.6.6-2 1.2-.1.1-.1.1-.3.1-.9 0-4.7-1.5-5.8-4.7h-.2c-1.4 4.8-7.9 4.8-8.1 4.8-.2 0-.3 0-.3-.1s.3-.2.5-.2c3.4-.6 5.8-2.1 6.7-4.5h-.8c-1 0-3.3 0-4.9.2-.3 0-.8-.6-.8-.9 1.8.2 4.8.3 5.9.3h.9c.2-.8.2-1.4.2-2.1h-.8c-.9 0-1.6 0-3.1.2-.3 0-.8-.6-.8-.8 1.7.2 3.1.3 4 .3h.6v-2h-1c-1 0-1.8 0-3.3.2-.3 0-.8-.6-.8-.8 1.7.2 3.2.3 4.2.3h1c0-1-.1-1.7-.2-2.2v-.1c.1 0 2.1.3 2.1.7 0 .1-.1.3-.4.4-.3.2-.4.1-.4.8v.5h2.4c.1 0 .2-.1.3-.1.1-.2.7-.9.9-.9h.1c.6.2 1.5 1 1.5 1.3 0 .1-.1.2-.4.2h-4.8v2h1.8c.1 0 .2-.1.2-.1.2-.3.6-.9.8-.9h.1c.6.2 1.4.9 1.4 1.2 0 .1-.1.2-.4.2h-4c0 1.2-.2 2-.2 2.1h4.1c.1 0 .2-.1.3-.1.1-.1.7-1.1 1-1.1h.1c.6.2 1.6 1.2 1.6 1.5 0 .1-.1.2-.4.2h-6.2zm-5.8-8.1c-.2 1.7-1.2 2.3-1.8 2.3-.4 0-.7-.3-.7-.6s.1-.5.5-.8c1.1-.9 1.5-1.5 1.7-2.6 0-.1.1-.2.1-.2.1 0 .3.9.3 1.4h4.4v-.2c0-.7-.1-1.8-.2-2.4V.3c.4 0 2.1.3 2.1.7 0 .1-.1.3-.3.4-.4.2-.4.2-.4.8 0 .3 0 .6-.1.9h4.5c.1 0 .2-.1.3-.1.1-.1.4-.4.6-.4h.1c.5.2 1.5.9 1.5 1.4 0 .2-.2.4-.7.4-1 .1-1.7.4-2.4.7h-.1s0-.1.1-.1c.3-.3.9-1.2.9-1.3 0-.1-.1-.1-.1-.1h-10.3zm18.6.7c.5.1.5.2.5.3 0 .1-.1.2-.3.3-.3.1-.3.1-.4.6 0 .5-.1 1-.1 1.5h1.2c.2 0 .2-.1.3-.1.2-.2.2-.3.3-.4l.1-.1c.2 0 1.2.6 1.2.9 0 .1-.1.3-.4.5-.2.1-.2.2-.3.5-.1 1.4-.2 2.7-.4 4.2-.3 2.3-1.4 3.3-2.7 3.3-.1 0-.2 0-.2-.1-.1-.5-1.1-1.1-1.3-1.4-.7 1.2-2 2.2-2.3 2.2 0-.1.1-.3.3-.4 2.9-2.9 3.2-10.4 3.2-10.8 0-.4 0-.7-.1-1-.5 0-1.1.1-1.9.1-.3 0-.7-.6-.7-.8 1.2.1 2.2.2 3 .2v-.5c0-.9 0-2.2-.2-2.7V.4h.1c.2 0 1.9.2 1.9.6 0 .1-.1.3-.3.4-.3.2-.4.2-.4.8 0 .5-.1 1.2-.1 1.6h1.2c.1 0 .2-.1.2-.1.5-.9.7-.9.8-.9.3 0 1.4.9 1.4 1.3 0 .1-.1.2-.3.2h-3.3zm-.3 3.2c-.3 2.3-.8 4.8-2 6.8h.1c.4.1.9.3 1.5.3 1.4 0 1.8-2.2 2-6.9 0-.2-.1-.2-.2-.2h-1.4zm8.3 5.7c0 .4-.3.7-.6.7-.2 0-.5-.2-.5-.6.1-1.6.1-3 .1-4.2l-1.4.7-.4.2V13c0 1.9 0 1.9 2.3 1.9.9 0 1.9 0 2.6-.1.9-.1 1.1-1.5 1.4-2.8v-.1c.1 0 .2 2.2.5 2.4.2.1.3.3.3.5 0 .5-.7 1-2.1 1.1-.6.1-1.7.1-2.6.1-1.6 0-3.4 0-3.4-1.8v-.1c0-1.3.1-2.5.1-3.6l-.9.6c-.1 0-.1.1-.2.1-.3 0-.8-.2-.9-.4.7-.3 1.4-.5 2-.8V8.8c0-.6 0-1.5-.1-2.2v-.1s0-.1.1-.1c.2 0 1.7.3 1.7.7 0 .1-.1.2-.3.3s-.3.1-.4.6c0 .2 0 .8-.1 1.5.1-.1.2-.1.3-.2l1.5-.8c0-2.4-.1-3-.2-3.4V5c.3 0 1.9.3 1.9.6 0 .1-.1.2-.3.3-.4.2-.4.1-.5.6 0 .4-.1.9-.1 1.4l1.4-.7c.1-.1.2-.1.2-.2.2-.5.3-.5.3-.5s1.6.2 1.6.7c0 .1-.1.3-.2.4-.2.2-.4.2-.4.4 0 .7 0 2.1-.1 3-.1 1.3-.6 2.1-1.8 2.2h-.1c-.1 0-.1 0-.2-.1-.1-.2-.4-.5-.7-.8l.2.8zm-3-9c-1.4 2.2-2.2 2.6-2.2 2.6 0-.1.1-.2.3-.4.8-1.1 2.3-4.5 2.3-5.8V.3s1.8.5 1.8.9c0 .1-.1.3-.5.3-.3.1-.3.1-.4.3-.3.5-.6 1.2-1.1 1.9h3.9c.1 0 .2-.1.3-.1.5-.7.7-1 .9-1 .4 0 1.6 1 1.6 1.3 0 .1-.1.2-.4.2h-6.5zm2.9 4.4V12c.3.1.6.2.9.2.5 0 .9-.1.9-3V7.9c0-.1-.1-.2-.2-.2h-.1l-1.5.8z"/></svg>