<svg xmlns="http://www.w3.org/2000/svg" viewBox="0 0 490.8 167.1" style="enable-background:new 0 0 490.8 167.1" xml:space="preserve"><path d="M13.9 27.6c.2-.2.3-.5.3-.8v-1.2h7.1v1c0 .7.5 1.2 1.2 1.2.3 0 .8-.1 1.2-.5.2-.3.3-.6.3-1-.1-2.2-.2-4.7-.2-6.4 0-1.9 0-1.9.5-2.2l-.3-.2.2.2c.3-.2.8-.5.8-.9 0-.9-2.3-2.1-2.7-2.1-.4 0-.8.3-1.2 1-.1.1-.2.1-.2.1h-6.1c-.7-.5-2.7-1.3-3-1.3-.1 0-.3 0-.3.4v.2c.3 1.7.4 3.8.4 5.6 0 1.3 0 3.4-.2 6.2v.1c0 .6.5 1.1 1.1 1.1.1-.1.7-.1 1.1-.5zm.6-10.3.2-.1s.1 0 .1-.1h6.4c.1 0 .1 0 .1.1.1.8.1 2 .1 3.4v3.5h-7.1V18c-.1-.5-.1-.5.2-.7zm.7-9.9c-3.5 7.2-6.4 8.8-6.8 8.8-.2 0-.3-.2-.3-.3 0-.2.1-.4.3-.6 1.3-1.5 3.2-5 4.3-8.6.1-.3.2-.8.2-1.2V5h.4-.3c0-.3.3-.4.4-.4.1 0 3.3.9 3.3 1.8 0 .1-.1.6-.9.7-.4-.1-.4-.1-.6.3zM4.1 22.3c0-1-.3-2.2-2.2-2.7-.6-.1-.9-.3-.9-.6 0-.5.7-.5 1-.5 1.2 0 1.7-.1 2.3-1.2.2-.5 6.1-12.2 7.1-12.2.1 0 .3 0 .3.4 0 .2-.1.5-.2.7-4.5 10-5.3 12.6-5.3 15 0 1.1.2 2.1.5 3 .4 1.2.3 2.3-.2 3-.3.4-.7.6-1.1.6-.7 0-1.5-.8-1.5-2.4V25c0-.4.1-.8.1-1.2 0-.4.1-1 .1-1.5zM3.3 2c0-.3.3-.3.8-.3 1.9 0 4.8.9 4.8 2.8 0 .8-.7 1.5-1.4 1.5-.4 0-1-.1-1.5-1-.4-.7-1.3-1.7-2.2-2.4-.4-.2-.5-.4-.5-.6zm9.7.6v-.4l.3.1c2.1.4 4.4.4 4.5.4h1.7s.1 0 .2-.1c.7-.8.9-1 1.1-1 .5 0 2.4 1.1 2.4 2 0 .3-.2.7-1 .9-.2.1-.4.1-.6.1-.1 0-.3.1-.3.1.2.5 1.8 6 7.5 8 .2.1.4.2.4.4 0 .3-.3.4-1.2.5-.7.1-1.7.3-2.1.6-.1.1-.3.2-.5.2-.8 0-4.7-4.1-5.7-10.3 0-.2-.1-.2-.3-.2h-1.6c-.5 0-1.9.1-3.2.2-.6.2-1.6-1-1.6-1.5zM1.1 9.2C.8 9 .7 8.9.7 8.7c0-.3.2-.4 1.6-.4 2.5 0 4.1.9 4.1 2.3 0 .8-.6 1.5-1.3 1.5-.3 0-.9-.1-1.3-.8-.5-.6-1.6-1.5-2.5-2l-.2-.1zM32 6.8c0-.2.1-.3.4-.3.5 0 1.4.2 2 .4 1-2.6 1.6-4.3 1.6-5.7 0-.2 0-.6.4-.6.2 0 3.2 1 3.2 1.9 0 .2-.1.6-1.1.8-.3 0-.3.1-.5.3-.6 1.1-1.7 2.7-2.6 3.8C36.8 8.2 37 9 37 9.5c0 .8-.6 1.4-1.2 1.4-.5 0-1-.4-1.3-1-.6-1.1-1.4-1.9-2.2-2.5-.2-.3-.3-.5-.3-.6zm27.7 17.9c-2.7-.8-5-2.7-6.6-5.6.9-.3 2.1-.8 2.9-1.2l.5-.2c.2-.1.4-.1.7 0h.5c.8 0 .9-.5.9-.6 0-.7-2.2-2.5-2.7-2.5-.2 0-.3.3-.4.4-.3.8-1.7 2.2-2.9 3.2-.5-1.1-1-2.4-1.3-3.9.3-.2.4-.4.4-.6v-.1h1.6v.3c0 .7.5 1 1.1 1 .4 0 .8-.2 1.1-.5.2-.2.3-.5.3-.9-.1-1.1-.2-3.9-.2-5.7 0-1.3 0-1.4.4-1.5.4-.2.9-.5.9-.9 0-.8-2.1-2-2.6-2-.4 0-.6.2-1.2.9-.1.1-.1.1-.2.1h-3.7c.4-.5.7-.9 1-1.3V3c.1-.2.2-.2.3-.2 1.1-.1 1.2-.6 1.2-.8 0-.9-3.1-1.8-3.4-1.8-.1 0-.4 0-.4.5v.7c0 1.1-.3 2.4-.5 3.1h-.7c-.4-.6-2.3-1.5-2.6-1.5h-.3v.5c.3 1.2.3 3.7.3 4 0 1.2-.1 4.5-.2 6.3v.2c0 .6.4 1 1.1 1 .4 0 .8-.2 1.1-.4.2-.2.3-.5.3-.7v-.3h2.1c0 .6.1 2 .1 3.6-.4-.6-1.6-1.5-2-1.5-.3 0-.8.5-.9.7l-.1.1h-.8c-.3 0-1.4 0-2.8-.3.6-.1 1.1-.7 1.1-1.5 0-1.8-3.2-3.9-3.8-3.9-.2 0-.3.2-.3.3 0 .1.1.3.2.5.2.4.6.9.9 1.6-1 .1-2.4.2-3.8.3C38 11.6 40 9 41.5 6.9c.2-.3.3-.3.5-.3.9-.1 1.1-.5 1.1-.8 0-.8-2.6-2-2.9-2-.3 0-.4.4-.4.5-.3 1.7-3.3 6.8-5 9.1H34c-.6 0-1.4 0-2.1-.1h-.1c-.1 0-.5 0-.5.3 0 .4 1 2.6 1.7 2.6.2 0 .4-.1.5-.2.1-.1.2-.1.3-.2.5-.1 1.5-.4 2.6-.7V17c0 3.4-.1 6.7-.3 9.7v.1c0 .8.5 1.2 1.1 1.2.4 0 .8-.2 1.1-.5.3-.3.4-.6.4-.9-.1-2.4-.1-6.1-.1-8.6v-.8c0 .1.1.2.2.3.6.8 1.2 2.2 1.6 3.6.2.9.8 1.2 1.3 1.2.7 0 1.3-.7 1.3-1.5 0-1.9-3.3-4.3-4.1-4.3h-.2c0-1.2.1-1.3.3-1.4.2-.2.5-.3.5-.6v-.2h.1c.4-.1.7-.2 1-.3.2.9.4 1.5.8 1.7h-.1v.3c0 .4.6 1.1.9 1.4.2.2.4.3.5.2 1.1-.2 2-.3 2.4-.3h.5c-.2.9-2 6.2-5.9 8.7-.4.2-.5.4-.5.7 0 .2.1.3.4.3 1.1 0 5.9-2.7 8-8.7.1-.4.2-.4.4-.5l.2-.1c.1-.1.4-.2.5-.4.1 2.3.1 4.8.1 6 0 1.3 0 1.8-1.5 1.8-.6 0-1.5-.1-2.8-.4H44c-.4 0-.4.3-.4.3 0 .2.2.4 1.2.9.7.4 1.8 1 2.1 1.4.2.3.4.5.7.5.9 0 3.5-.8 3.5-3.4 0-.4-.1-.9-.1-1.4 0-.3 0-.5-.1-.7-.1-1-.1-4.3-.2-6.3 1.8 7.5 5.4 10.1 5.7 10.1.2 0 .3-.1.5-.2.5-.4 1.5-.6 2.2-.7.8-.2 1.1-.2 1.1-.6 0 .3-.2.2-.5.1zM53.4 9.5v2.7h-7c0-.9 0-1.8-.1-2.7h7.1zm-7.1-1.4c0-.9 0-2 .2-2.2.2-.1.3-.2.5-.3h6.3c.1.1.1 1 .1 2.5h-7.1zM35.6 19.6c-.3.1-.3.1-.5.5-1.5 4-3.5 6.9-4.1 6.9-.2 0-.3-.2-.3-.4 0-.1 0-.3.2-.5.5-1.2 2.1-5.3 2.1-8.3 0-.4.1-.6.3-.6.4 0 3.3.8 3.3 1.7 0 .3-.3.6-1 .7zm42.5 2.3c0-.6-.1-1.1-.2-1.7 0-.3-.1-.7-.1-1 0-.3-.1-.7-.1-1-.1-.6-.1-1.3-.2-2 1-.3 5.1-1.7 5.1-3.4 0-.5-.4-1-1.3-1.1-.7 0-1.9-.5-2.5-.8-.1.1-.2.1-.3.1-.3 0-.4.2-.4.3 0 .2.1.3.2.4 1 .8 1.2 1.1 1.2 1.2 0 0 0 .5-2 1.2v-.6c0-1.1 0-2.1.1-3 .7-.2 3-.9 3-2.1 0-.6-.4-1-1.1-1-.6 0-1.1.3-1.6.6.3-2 .5-2.4.5-2.4v-.1c0-.2.1-.4.1-.6.1-.4.2-.7.2-1.1 0-1-1.3-2.5-2.3-2.5-.7 0-1.6.8-1.6 1.1 0 .4.5.6.9.7.5.2.6.2.6 1.1 0 1-.2 2.9-.3 3.2 0 .4 0 .8-.1 1.2h-.6c-1.4 0-2.6-.6-3.7-1.3l-.1-.1c-.3-.1-.4-.2-.6-.2-.2 0-.4.1-.4.4 0 .6.9 3.3 4.9 3.3h.4c-.1 1.4-.1 2.7-.1 3.9-.7.2-2.1.4-3.6.4-1.2 0-2.3-.2-3.5-.6-.2-.1-.6-.2-.8-.2-.4 0-.5.2-.5.4 0 .3 1 2.5 5.1 2.5.4 0 1.8 0 3.3-.4 0 .9 0 1.7.1 2.5v2.1c-.4 0-.8-.1-1.2-.1-2.6 0-6.4.9-6.4 3.4 0 1.6 1.6 3.4 4.1 3.4 2.1 0 4.7-1.4 5.6-3.7.9.6 1.6 1.3 2.2 2.1.5.8 1.1.9 1.4.9.7 0 1.2-.6 1.2-1.3 0-1-1.6-3-4.6-4.1zm-.2-13.7zM73.6 23c.7 0 1.4.1 2.1.3-.6 1.6-2.2 2.4-3.7 2.4-1.4 0-2.2-.7-2.2-1.3.1-1.1 2.5-1.4 3.8-1.4zm34.8-9.5c-1.4 0-2.8.3-4.1 1 1.2-1.6 3.8-4.9 5.6-6.3.7-.5 1.3-1 1.3-1.8 0-.9-1.4-2.1-2.9-2.1-1.6 0-3.3 1-4.3 1.9-.3.2-.7.4-1.1.4-.3 0-.5 0-.7-.1l-.2-.1c-.2-.1-.3-.1-.5-.1s-.5.1-.5.8c0 1.2.9 2 2.2 2 1.2 0 2-.9 2.7-1.6.5-.6 1-1.1 1.6-1.1.3 0 .5.1.5.3 0 0 0 .2-.3.6-.5.8-6.1 8.5-7.3 9.9-2.2 2.6-2.6 3.3-2.6 3.9 0 .7.5 1.2 1.1 1.2.5 0 1.1-.4 1.5-1 .1-.2.3-.6.6-1.1.2-.3.3-.6.4-.8 2-3.4 4.6-4.2 6.4-4.2 3 0 4.7 2.2 4.7 4.4 0 2-1.2 4.3-4.6 5.1 0-.2.1-.4.1-.6 0-1.8-1.6-3.4-3.5-3.4-1.5 0-3.1.9-3.1 2.5 0 2.1 2.6 3.4 5.1 3.4 5.4 0 8.7-3.6 8.7-7.1-.3-2.4-2.1-6-6.8-6zm-4.4 8.7c.9 0 1.7.8 1.7 1.8 0 .3 0 .5-.1.8-1.3-.2-2.7-.7-2.7-1.6-.1-.3 0-1 1.1-1zm37-17.7c0-.1 0-.5 1.5-.5 2.5 0 3.9 1.2 3.9 2.3 0 .7-.5 1.3-1.2 1.3-.4 0-.7-.2-1-.5-.9-1.1-2-1.7-2.5-2.1-.5-.2-.7-.3-.7-.5zm3.1-1.4c0-.1 0-.5 1.7-.5 1.8 0 3.7.7 3.7 2.3 0 .7-.5 1.3-1.2 1.3-.3 0-.7-.2-1-.5-.7-.8-1.7-1.5-2.6-2l-.2-.1c-.2-.2-.4-.3-.4-.5zm-13.6 2.6c0-.2.1-.4.4-.4.2 0 .5.1.8.2l.3.1c1.3.5 2.7.5 3.9.5.9 0 1.8 0 2.8-.1h1.5c1.6 0 2.7.9 2.7 1.6 0 .5-.4 1-1.6 1.1-.6 0-2.9.5-5.3 2.4-.4.3-.7.5-.9.5-.2 0-.4-.2-.4-.4s.1-.5.4-.7c.5-.6 1.3-1.6 1.6-2h-1.5c-3.4-.4-4.7-2.5-4.7-2.8zM128.8 21c0-1.6 1.4-3.2 1.9-3.2.2 0 .4.1.4.5 0 .2-.1.5-.3.8-.3.4-.4.8-.4 1.2 0 1.7 3 3.2 6.6 3.2.9 0 1.7-.1 2.5-.3.7-.2 1.2-.4 1.7-.5.4-.1.7-.3 1.1-.4.3 0 .5-.1.8-.1 1.1 0 1.8.5 1.8 1.2 0 1.4-3.3 2.7-7.1 2.7-5 0-9-2.2-9-5.1zm37.7-5.6c-1.2-.8-1.8-2.2-1.8-4.3 0-1.2.2-2.4.3-3.4 0-.4.1-.7.1-1v-.4c.1-.6.1-1.1.1-1.6 0-1-.3-1.3-1.4-1.5-.6-.1-.7-.5-.7-.6 0-.5.7-1.1 1.5-1.1.9 0 3.1 1.1 3.1 3.2 0 .5-.1 1-.2 1.4-.1.2-.1.4-.1.5-.1.3-.1.6-.2.9-.3 1.3-.6 2.7-.6 4 0 1.6.6 2.6 1.8 3 1.4-.6 2.1-.7 2.7-.7 1.5 0 1.6 1 1.6 1.2 0 1.3-1.6 1.8-2.7 1.8h-.7c-2.4 0-6.2 2.2-6.2 4.9 0 1.9 1.8 3.2 4.5 3.2 1.4 0 2.8-.3 4-.9.3-.1.7-.3 1.1-.3.9 0 1.5.6 1.5 1.3 0 1.8-3.9 2.4-5.7 2.4-5.3 0-7.2-3.3-7.2-5.5.1-2.3 2.1-4.9 5.2-6.5zm19.9 5.9c0-.6.4-1.2 1.2-1.5 2.4-1.1 3.7-2.3 4.4-4 .1-.3.3-.6.6-.6.5 0 .5.8.5 1.1 0 3.4-3.8 6.3-5.2 6.3-.9-.1-1.5-.6-1.5-1.3zm1.3-10c0-.7.4-.8.6-.8.2 0 .4.1.8.2 1.2.5 2.2.7 3.4.7.5 0 .7 0 4.3-.4V9c0-2.1-.8-2.3-1.5-2.3H195c-.3 0-.7-.2-.7-.6 0-.4.4-1.1 1.5-1.1.9 0 3.6.8 3.6 2.3 0 .3-.1.5-.2.8-.1.3-.2.7-.2 1.1 0 .4-.1.9-.1 1.5.8-.1 1.5-.2 2-.3.6-.1 1-.3 1.3-.4.4-.2.7-.4 1.5-.4 1.5 0 3.8.8 3.8 1.8 0 .5-.5 1.2-2 .9-1.8-.4-3.9-.4-6.2-.1l-.5.1v6c0 .7.1 1.3.2 1.8.1.6.1 1.1.1 1.6 0 1.9-.7 3.3-1.7 3.3-.5 0-1.2-.5-1.3-1.6-.2-1-1-2.6-2.3-4.2-.1-.2-.2-.3-.2-.5s.2-.4.4-.4.3.1.5.2c.2.2.6.4.9.7.5.4 1.1.8 1.4 1h.1v-.1c0-.6.1-1.8.1-7.6-.8.1-1.5.3-2.2.4-.5.1-.9.2-1.2.3-.5.1-.9.2-1.4.2-1.5.1-4.5-.7-4.5-2.1zm20.8 8.6c0 .9-.6 1.6-1.4 1.6-.5 0-.9-.3-1.3-.9-1.2-1.9-3-3.7-4.7-4.7-.5-.3-.7-.5-.7-.7 0-.2.1-.3.4-.3 1.4 0 7.7 2.4 7.7 5zm30.4-8.5c0 .6-.6 1.1-1.4 1.1-.1 0-.3 0-.5-.1-1.4-.3-2.7-.5-4.1-.5-.3 0-.7 0-2.3.1.3.3.5.7.5 1.3 0 .3 0 .5-.1.8-1.8 10.2-12.1 13.3-13.2 13.3-.2 0-.4-.2-.4-.3 0-.1 0-.3.9-.7 5.1-2.4 9.9-8.5 9.9-12.6 0-.5-.1-1-.4-1h-.4c-.3 0-.5-.2-.6-.4-1.2.2-2.4.5-3.4.9l-.3.1c-.6.2-1 .4-1.5.4-1.5 0-4.2-1-4.2-2.5 0-.5.3-.6.6-.6.2 0 .5.1.8.2.6.3 1.8.5 2.8.5.3 0 .5 0 .7-.1l1.8-.3c2.5-.4 5.3-.9 8.3-1.2.5 0 .8-.2 1.2-.3.4-.2.8-.3 1.3-.3.8.1 4 .8 4 2.2zm-17.4-5.9c0-.4.2-.6.6-.6.1 0 .3.1.4.1h.1c.5.3 1.3.5 2.2.5 1.5 0 3.2-.4 4.5-.7l.6-.1c.3 0 .5-.1.8-.2.4-.1.8-.3 1.4-.3.9 0 2.7.4 2.7 1.4 0 .4-.4.9-1.6 1-1.6 0-3.5.4-5.2.6-.8.1-1.5.2-2 .3-.4.1-.7.1-1.1.1-2.8.1-3.4-1.5-3.4-2.1zm35.5 8.2c-2.6 7.6-9.9 11.4-11.3 11.4-.3 0-.4-.2-.4-.3 0-.3.4-.5.7-.7 3.9-2.1 8.6-9 8.6-11.7 0-1.2-.8-1.5-1.6-1.6-.7-.1-.7-.5-.7-.6 0-.3.5-1.2 1.6-1.2 1.4 0 3.4 1.4 3.4 3.2-.1.6-.2 1.1-.3 1.5zm.4-5.6c0-.5 1-.8 1.6-.8 1.5 0 3 1.9 3 3.3 0 .3 0 .6-.1.9-.4 1.2-.8 6.9-.8 7.6v.1c.5-.1 6.7-3.8 10.8-9.6.5-.8.7-.9.9-.9.1 0 .3 0 .3.4 0 1-4.1 8.1-10.2 12.3-.1.1-.3.2-.4.4-.4.4-.9.9-1.5.9-1.2 0-2.3-2.1-2.3-2.7 0-.2.1-.4.1-.6.1-.2.2-.5.2-1 .3-2.4.5-4.4.5-5.9 0-2.8-.7-3.4-1.2-3.5-.3-.2-.9-.5-.9-.9zM10.2 53.6c.1.1.1.3.1.4 0 .6-.2.7-.4.7-.7 0-2.1-.1-3.3-.1H5.1c-.1 0-.1 0-.1.2v6.8c0 4.5 0 9.4.1 12.4 0 .4-.2.5-.7.5-.3 0-.7 0-.7-.5.1-2.4.2-6.8.2-11.4 0-4.3-.1-7.2-.2-8.6v-.1c0-.4.3-.7.7-.7h.7c1.9 0 3 .1 4.9 0 0 .2.2.3.2.4zm19.4 11c-.3 0-.6.2-.9.7-.1.1-.2.1-.2.1h-4.9c-.6-.4-2.1-1.1-2.4-1.1-.1 0-.2 0-.2.2v.2c.3 1.3.3 3 .3 4.4 0 1.1 0 2.7-.2 4.9v.1c0 .5.3.8.8.8.3 0 .6-.1.9-.3.2-.2.2-.4.2-.6v-1h5.8v.8c0 .6.4.8.8.8.3 0 .6-.1.8-.3.2-.2.2-.4.2-.7-.1-1.7-.2-3.7-.2-5.1 0-1.6 0-1.6.4-1.8.3-.2.6-.3.6-.7.3-.4-1.5-1.4-1.8-1.4zm-6.2 2 .2-.1s.1 0 .1-.1h5.1c.2 0 .2.1.2.2v5.6h-5.8v-4.9c0-.6 0-.6.2-.7zm11.5-3.2c0 .2-.2.2-.8.3-.6.1-1.4.2-1.7.5-.1.1-.2.1-.3.1-.6 0-3.6-3.2-4.4-8.1 0-.2-.1-.2-.3-.2h-1.3c-.4 0-1.5.1-2.6.2-.4 0-1.2-.9-1.2-1.3v-.2h.2c1.7.3 3.5.3 3.5.3h1.3c.1 0 .2-.1.2-.1.6-.6.7-.7.8-.7.4 0 1.8.9 1.8 1.5 0 .2-.1.5-.8.7-.2.1-.3.1-.5.1-.1 0-.3.1-.3.1s1.2 4.8 6 6.5c.3.1.4.2.4.3zm-19.7-9c1.5 0 3.7.7 3.7 2.1 0 .6-.5 1.1-1 1.1-.3 0-.7-.1-1.1-.8-.3-.6-1.1-1.4-1.8-1.9-.3-.2-.3-.3-.3-.4 0-.1.1-.1.5-.1zm1.9 17.7c.3.9.3 1.7-.1 2.3-.2.3-.5.5-.8.5-.5 0-1.1-.6-1.1-1.8v-.3c0-.3.1-.6.1-.9.1-.4.1-.8.1-1.2 0-.8-.2-1.8-1.8-2.2-.5-.1-.7-.2-.7-.4 0-.3.4-.3.7-.3 1 0 1.4-.1 1.9-1 0-.1 4.8-9.6 5.5-9.6.1 0 .2.1.2.2 0 .2-.1.4-.2.5-3.6 7.9-4.2 10-4.2 11.9 0 .8.1 1.6.4 2.3zm-4.2-12c-.2-.1-.3-.2-.3-.3 0-.1 0-.3 1.1-.3 1.9 0 3.2.7 3.2 1.7 0 .6-.4 1.1-1 1.1-.3 0-.6-.1-1-.6s-1.3-1.2-2-1.6zM24 58.8c-2.7 5.6-5 6.9-5.3 6.9-.1 0-.2-.1-.2-.2s.1-.2.2-.4c1-1.2 2.5-3.9 3.5-6.8.1-.3.1-.6.2-.9v-.5c0-.1.1-.2.2-.2s2.5.7 2.5 1.3c0 .1 0 .4-.7.5-.3-.1-.3 0-.4.3zm16.8 9c0 .3-.2.4-.7.5-.3.1-.3.1-.4.5-1.2 3.3-2.8 5.4-3.2 5.4-.1 0-.2-.1-.2-.2s0-.2.1-.4c.4-.9 1.6-4.2 1.6-6.6 0-.1 0-.4.2-.4.4 0 2.6.6 2.6 1.2zM42 55.6c-.5.9-1.4 2.2-2.1 3.1 1.2.6 1.3 1.3 1.3 1.6 0 .6-.4 1-.9 1-.4 0-.8-.3-1-.8-.5-.9-1.2-1.5-1.8-2-.2-.2-.3-.3-.3-.4 0-.1.1-.2.3-.2.4 0 1.1.2 1.6.3.8-2.1 1.3-3.5 1.3-4.6 0-.2 0-.4.2-.4 0 0 2.5.8 2.5 1.4 0 .1-.1.4-.8.5-.1.3-.1.3-.3.5zm17.2 17c-2.2-.6-4-2.2-5.3-4.5.7-.3 1.7-.7 2.4-.9l.4-.2c.1 0 .2-.1.3-.1h.7c.6 0 .6-.3.6-.4 0-.5-1.7-1.9-2.1-1.9-.1 0-.2.1-.2.2-.3.8-1.9 2.2-2.4 2.6-.5-.9-.8-2-1.1-3.2.2-.1.3-.3.3-.4 0 0 0-.1-.1-.2h1.5v.3c0 .5.4.7.8.7.3 0 .6-.1.8-.3.2-.2.2-.4.2-.6-.1-.8-.2-3.1-.2-4.5 0-1.1 0-1.1.4-1.3.3-.2.6-.4.6-.7 0-.6-1.6-1.5-2-1.5-.3 0-.4.1-.9.7-.1.1-.1.1-.2.1h-3.1l.9-1.2v-.1c.1-.1.1-.2.3-.2.8-.1.9-.4.9-.6 0-.6-2.3-1.4-2.6-1.4-.1 0-.2 0-.2.3v.5c0 .9-.3 2-.4 2.6h-.6c-.5-.3-2-1-2.2-1 0 0-.2 0-.2.2v.2c.2.9.3 2.9.3 3.2 0 1 0 3.6-.2 5 0 .4.3.7.8.7.3 0 .6-.1.8-.3.1-.1.2-.3.2-.5v-.3h1.8c.1 1 .2 6.4.2 8.2 0 1 0 1.5-1.3 1.5-.5 0-1.2-.1-2.2-.3h-.4c-.2 0-.2.1-.2.2s.1.2.9.6c.6.3 1.5.8 1.7 1.1.1.2.3.3.5.3.8 0 2.7-.7 2.7-2.5 0-.3 0-.7-.1-1.1v-.5c0-.8-.1-3.7-.1-5.2v-.5c1.3 6.3 4.4 8.7 4.6 8.7.1 0 .2 0 .3-.1.4-.3 1.2-.5 1.7-.6.6-.1.8-.2.8-.4.2-.3.1-.4-.1-.4zm-4.9-12.2v2.3h-5.7v-2.3h5.7zm-5.8-1c0-.8 0-1.8.2-1.9.1-.1.3-.2.4-.2H54c.2 0 .2.2.2 2.1h-5.7zm1 8.4c-.9 2.6-2.4 4.2-3.5 5.2-1.3 1.1-2.4 1.6-2.8 1.6-.2 0-.2-.1-.2-.2s.1-.3.4-.5c3.3-2.2 4.7-6.7 4.7-7h-.5c-.3 0-1 .1-1.9.2-.1 0-.2 0-.3-.2-.3-.2-.7-.8-.7-1.1v-.2h.2c1.4.3 2.4.3 2.7.3h.6s.1 0 .2-.1c0-.1.4-.5.6-.5.3 0 1.6.9 1.6 1.3 0 .3-.2.4-.4.5l-.1.1c-.3.2-.4.3-.6.6zm-5.5 2c-.3-1.1-.8-2.2-1.3-2.9-.1-.2-.2-.3-.2-.4v-.1h.2c.6 0 3.1 1.8 3.1 3.3 0 .6-.4 1.1-.9 1.1-.3-.1-.7-.3-.9-1zm-1.5-2.5c0 2 0 4.9.1 6.8 0 .2-.1.5-.3.7-.2.2-.5.4-.8.4-.4 0-.8-.2-.8-.8v-.1c.2-2.4.2-5 .2-7.7V65c-.9.2-1.7.4-2.2.6-.1 0-.2.1-.2.1-.1.1-.2.2-.4.2-.5 0-1.3-1.7-1.3-1.9 0-.2.2-.2.3-.2h.1c.5 0 1.2.1 1.7.1h.7c1.3-1.8 3.8-5.9 4-7.3 0-.1 0-.4.2-.4s2.2.9 2.2 1.5c0 .3-.3.5-.8.5-.2 0-.3.1-.5.3-1.2 1.6-2.9 3.9-4.3 5.3 1.2-.1 2.4-.2 3.3-.3-.2-.6-.5-1-.7-1.4v-.4c0-.1.1-.2.2-.2.5 0 2.9 1.6 2.9 3 0 .7-.5 1.1-.9 1.1-.6 0-.8-.4-1-1.5l-.9.3c-.1 0-.1 0-.2.1.1.1.1.2.1.2 0 .2-.2.3-.4.4-.3.2-.3.2-.3 2.2zm25.1-12.9c-.1 2.4-.2 6.8-.2 11.4 0 4.3.1 7.2.2 8.6v.1c0 .4-.3.7-.7.7h-3c-.8 0-1.6 0-2.7.1-.1 0-.3-.1-.3-.2s-.1-.2-.1-.4c0-.6.2-.7.4-.7.9 0 2.1.1 3.3.1H66c.1 0 .1 0 .1-.2v-6.8c0-4.5 0-9.4-.1-12.4 0-.4.2-.5.8-.5.4-.2.8-.2.8.2zm34.1 5.5c-2.4 0-4.3 2.4-5.3 4.8-.4-1.3-1.4-2.2-2.5-2.2-.4 0-.7.1-1.1.2.5-.8.9-1.7 1.7-3.4l.1-.1c1.9-.7 2.9-1.5 2.9-2.4 0-.4-.3-.7-.6-.7-.1 0-.2 0-.3.1-.1 0-.6.1-1.2 0h-.2c-.2-1.2-1.2-1.3-1.5-1.3-.3 0-1.1.3-1.1.6 0 .2.2.3.4.3h.1c.6.1.9.5.9 1.4 0 .2 0 .4-.1.7-1 .3-1.8.3-2 .3-.7 0-1.4-.2-2-.6-.4-.3-.5-.3-.6-.3-.1 0-.2.1-.2.2 0 .4.6 2.3 3.1 2.3.4 0 .8-.1 1.2-.2-1 2.3-1.8 3.6-4 5.7-.6.6-1 1.2-1 1.8 0 .7.5.9.8.9.7 0 1.4-1.1 1.8-1.9.1-.1.1-.3.2-.4l.3-.6c.8-1.2 1.7-1.8 2.3-1.8 1.2 0 1.5 1.8 1.5 3.4-2.4 1.4-3.8 3.1-3.8 4.6 0 1.7 1.9 3.5 4.8 3.5 1.9 0 3.9-.7 3.9-1.7 0-.5-.4-.8-1-.8-.3 0-.5.1-.8.2-.8.4-1.8.7-2.8.7-2.2 0-3-1.2-3-2 0-1 .9-2.2 2.6-3.2v.2c0 .5-.1.7-.2 1-.1.2-.1.4-.2.7v.4c0 1 .5 1.1.7 1.1.5 0 1.1-.7 1.2-1.6v-1.1c0-.5 0-.9-.1-1.4 1.5-.8 3.5-1.5 5.1-2.2l.2-.1c1.7-.7 2.7-1.7 2.7-2.6.2-1.5-1.5-2.5-2.9-2.5zm-2.9 4.9c-.7.4-1.5.7-2.1 1.1.7-1.9 2.7-5 4.7-5 1.2 0 1.4 1.1 1.4 1.1 0 .5-.5 1-1.6 1.6-.7.3-1.5.8-2.4 1.2zm-3.5-8.1c.1 0 .4.2.5.2 0 .1-.2.3-.6.5 0-.3.1-.5.1-.7 0-.1 0-.1 0 0zm35.5-3.1c.1.1.1.3.1.4 0 .6-.2.7-.4.7-.7 0-2.1-.1-3.3-.1h-1.5c-.1 0-.1 0-.1.2v6.8c0 4.5 0 9.4.1 12.4 0 .4-.2.5-.7.5-.3 0-.7 0-.7-.5.1-2.4.2-6.8.2-11.4 0-4.3-.1-7.2-.2-8.6v-.1c0-.4.3-.7.7-.7h.7c1.9 0 3 .1 4.9 0 0 .2.2.3.2.4zM146 70.3c0-.5-.1-.9-.1-1.4 0-.3-.1-.5-.1-.8 0-.3 0-.5-.1-.8-.1-.5-.1-1.1-.1-1.6.7-.2 4-1.3 4-2.6 0-.4-.4-.7-1-.8-.5 0-1.5-.4-2-.6-.1 0-.2-.1-.2-.1-.2 0-.2.1-.2.2s.1.2.1.2c.6.5 1 .9 1 1 0 .1-.1.5-1.7 1v-.6c0-.9 0-1.7.1-2.4.5-.1 2.4-.7 2.4-1.6 0-.3-.1-.7-.8-.7-.5 0-.9.2-1.3.5l.1.1-.1-.1c.3-1.8.4-2.1.4-2.1 0-.2.1-.3.1-.5.1-.3.1-.6.1-.8 0-.7-1-1.9-1.8-1.9-.6 0-1.1.6-1.1.8 0 .3.3.4.7.5.4.1.5.2.5 1s-.2 2.3-.2 2.5c0 .3-.1.6-.1 1h-.6c-1.1 0-2.1-.5-3-1h-.1c-.2-.1-.3-.2-.5-.2-.1 0-.2.1-.2.3 0 .5.7 2.5 3.8 2.5h.4c-.1 1.2-.1 2.2-.1 3.2-.5.1-1.7.4-2.9.4-1 0-1.9-.1-2.8-.5-.2-.1-.4-.2-.6-.2-.3 0-.3.2-.3.3 0 .2.8 1.9 4 1.9.3 0 1.5 0 2.7-.3 0 .7 0 1.4.1 2.1v1.7c-.3 0-.6-.1-1-.1-2 0-5 .7-5 2.6 0 1.2 1.2 2.6 3.2 2.6 1.7 0 3.7-1.1 4.4-2.9.8.5 1.4 1.1 1.8 1.7.4.6.8.7 1 .7.5 0 .9-.4.9-1-.2-.8-1.4-2.4-3.8-3.2zm-3.5.8c.6 0 1.1.1 1.8.3-.4 1.4-1.8 2.1-3 2.1s-1.8-.6-1.8-1.1c0-1.3 2.9-1.3 3-1.3zm27.5-7.4c-1.2 0-2.5.3-3.5.9.8-1.1 3.1-4.1 4.6-5.3.5-.4 1-.8 1-1.3 0-.6-1-1.6-2.2-1.6-1.3 0-2.5.8-3.4 1.5-.2.2-.6.3-.9.3-.2 0-.4 0-.6-.1h-.1c-.1-.1-.3-.1-.4-.1-.3 0-.3.4-.3.5 0 .9.7 1.5 1.7 1.5.9 0 1.5-.7 2-1.3.4-.5.8-.9 1.3-.9.2 0 .5.1.5.3 0 .1 0 .2-.2.5-.4.6-4.8 6.7-5.8 7.8-1.7 2-2 2.6-2 3 0 .5.3.9.8.9.4 0 .8-.3 1.1-.7.1-.1.3-.5.4-.8.1-.3.2-.5.3-.7 1.6-2.8 3.7-3.3 5.2-3.3 2.4 0 3.8 1.8 3.8 3.5 0 1.6-1 3.5-3.8 4.2.1-.2.1-.4.1-.6 0-1.4-1.2-2.6-2.7-2.6-1.2 0-2.4.7-2.4 1.9 0 1.6 2 2.6 3.9 2.6 4.2 0 6.8-2.8 6.8-5.5-.1-1.8-1.5-4.6-5.2-4.6zm-3.5 6.7c.8 0 1.4.7 1.4 1.5 0 .3 0 .5-.1.7-1.1-.1-2.3-.6-2.3-1.4 0-.1.1-.8 1-.8zm32.3 1.1c0 1.1-2.5 2-5.6 2-3.9 0-7-1.7-7-4 0-1.3 1.1-2.4 1.4-2.4 0 0 .2 0 .2.3 0 .2-.1.4-.2.6-.2.3-.4.7-.4 1 0 1.6 2.8 2.6 5.3 2.6.7 0 1.4-.1 2-.2.6-.1 1-.3 1.4-.4l.9-.3c.2 0 .4-.1.6-.1.9 0 1.4.4 1.4.9zm3.7-14.7c0 .5-.4.9-.8.9-.2 0-.5-.1-.7-.4-.6-.6-1.3-1.2-2.1-1.6 0 0-.1 0-.1-.1-.2-.1-.3-.1-.3-.3 0-.3.7-.3 1.2-.3 1.3.1 2.8.6 2.8 1.8zm-11.4 4.4c.4-.5 1.2-1.5 1.3-1.7h-1.2c-2.5-.2-3.5-1.8-3.5-2 0-.1.1-.2.3-.2.2 0 .4.1.6.2l.2.1c1 .4 2.1.4 3.1.4H195.3c1.2 0 2 .6 2 1.2 0 .4-.3.7-1.2.8-.5 0-2.3.4-4.2 1.9-.3.2-.5.3-.7.3-.2 0-.2-.1-.2-.2-.2-.4-.1-.6.1-.8zM200 58c0 .5-.4 1-.8 1-.3 0-.5-.1-.8-.4-.7-.9-1.6-1.4-2-1.6-.3-.2-.4-.2-.4-.4 0-.3.6-.3 1.1-.3 1.8-.1 2.9.8 2.9 1.7zm22 14.8c0 1.3-2.6 1.8-4.4 1.8-4.1 0-5.6-2.5-5.6-4.2 0-2 1.6-4 4.1-5.2-1-.6-1.5-1.7-1.5-3.4 0-.9.1-1.9.3-2.7 0-.3.1-.5.1-.8V58c.1-.5.1-.9.1-1.2 0-.8-.2-1.1-1.1-1.3-.4-.1-.4-.3-.4-.4 0-.3.4-.8 1.1-.8.7 0 2.4.9 2.4 2.5 0 .4-.1.7-.2 1.1 0 .2-.1.3-.1.4 0 .2-.1.5-.2.7-.2 1-.5 2.2-.5 3.2 0 1.4.5 2.2 1.5 2.4 1.1-.5 1.7-.6 2.1-.6 1.1 0 1.2.7 1.2.9 0 1-1.2 1.3-2 1.3h-.5c-1.9 0-5 1.8-5 3.9 0 1.6 1.4 2.6 3.6 2.6 1.1 0 2.3-.3 3.2-.7.3-.1.6-.2.8-.2.5 0 1 .4 1 1zm14.4-18.4c-.1 2.4-.2 6.8-.2 11.4 0 4.3.1 7.2.2 8.6v.1c0 .4-.3.7-.7.7h-3c-.8 0-1.6 0-2.7.1-.1 0-.3-.1-.3-.2s-.1-.2-.1-.4c0-.6.2-.7.4-.7.9 0 2.1.1 3.3.1h1.5c.1 0 .1 0 .1-.2v-6.8c0-4.5 0-9.4-.1-12.4 0-.4.2-.5.8-.5.4-.2.8-.2.8.2zm31 10.7c.5 0 1-.4 1-.9v-.3c-.1-1.4-.2-3.1-.2-4.1 0-1.1.1-1.2.3-1.3h.1c.2-.1.5-.3.5-.6 0-.7-1.7-1.5-1.9-1.5-.3 0-.4.2-.8.7 0 .1-.1.1-.2.1h-1.9c.3-.4.7-.8 1-1.3l.1-.1c.1-.1.1-.2.3-.2.8-.1.9-.4.9-.6 0-.6-2.3-1.4-2.6-1.4-.1 0-.2 0-.2.3v.5c0 1-.1 1.5-.5 2.8h-.2c-.4-.3-1.8-1.1-2.1-1.1-.1 0-.2.1-.2.2v.2c.2.9.3 2.8.3 3.1v.7c-.1 0-.1.1-.1.1-.7.4-4.8 2.6-6.4 2.7h-.1c-.1 0-.3 0-.3.2 0 .4 1.4 1.7 1.8 1.7.2 0 .3-.1.4-.3.1-.1.1-.2.2-.2 1.2-.8 3.3-2.4 4.5-3.5 0 1.1-.1 2.3-.2 3.6v.1c0 .4.3.7.7.7.1 0 .5-.1.8-.3.1-.1.2-.3.2-.5V64h3.8v.4c.2.4.5.7 1 .7zm-.8-4.3V63h-3.9v-2.2h3.9zm-3.7-2.7.1-.1.1-.1h3.3c.2 0 .2.1.2.2v1.8h-3.9v-1c.1-.6.1-.6.2-.8zm-7.6-1.8c-.1-.1-.2-.1-.2-.2s0-.2.2-.2c1.2 0 4.2.7 4.2 2.4 0 .6-.4 1-.9 1-.4 0-.8-.3-1.1-.7-.5-.8-1.5-1.7-2.1-2.1.1-.1 0-.2-.1-.2zm17.1-.7c.3 0 2 1.3 2 1.9 0 .2-.2.4-.6.4h-.4c-.1 0-.2 0-.3.1-.9.4-4.2 2-4.5 2-.2 0-.3-.1-.3-.2s.1-.2.2-.3c2.4-1.7 3.5-3 3.8-3.6-.1-.2-.1-.3.1-.3zm-4.1 5.7c0-.1 0-.2.3-.2.1 0 5.9.4 5.9 2.6 0 .6-.4 1-.9 1-.4 0-.8-.2-1.2-.6-1-1.1-2.6-1.9-3.9-2.5 0-.1-.2-.1-.2-.3zm7.8 11.2c0 .2-.2.3-1 .6-.6.3-1.4.6-1.7.9-.1.1-.2.2-.4.2-.8 0-5.2-2.2-7.7-5.6v5.5c0 .3-.1.5-.2.7-.2.2-.6.3-.8.3-.4 0-.8-.3-.8-.9v-.1c.1-.9.1-2.8.2-4.5-5.2 4.6-9.9 5.1-10 5.1-.3 0-.3-.1-.3-.2 0-.2.3-.4.6-.4 3.1-1 6.2-3.2 9.1-6.3h-.9c-1.4 0-4.7.1-6.8.3-.5 0-1.2-1-1.2-1.4v-.2h.2c2.5.3 6.7.4 8 .4h1.5v-.4c0-.5-.1-1.4-.2-1.8v-.1c0-.1 0-.2.3-.2 0 0 2.6.2 2.6.8 0 .2-.2.4-.4.5-.1 0-.2.1-.2.1-.2.1-.3.1-.3.5v.7h5.5c.1 0 .2-.1.3-.1 0 0 .9-1.5 1.4-1.5h.2c1 .4 2.1 1.6 2.1 2 0 .3-.2.4-.6.4h-8.5c2 2 5.7 4.2 10 4.5-.1 0 0 .1 0 .2zm21.5-3.2c0 .5-3.7 5-8 5-4.7 0-5.4-4.5-5.4-7.2 0-1.3.1-2.7.3-4 .1-1.3.3-2.6.3-3.9 0-1-.1-2.2-.6-2.8-.3-.3-.3-.4-.3-.6 0-.1 0-.3.4-.3.1 0 2.7 0 2.7 2.7 0 .2 0 .5-.1.8-.1.5-.2 1.1-.3 1.8-.4 1.9-.8 4.5-.8 6.7 0 1.2 0 5 4.2 5 2.2 0 4.8-1.1 7-3.1.1-.1.4-.3.5-.3 0 0 .1 0 .1.2zm18.3-9.7c.1-.5.1-.8.1-1.1 0-2-1.2-2.5-1.9-2.5-.8 0-1.1.5-1.1.6 0 .2.2.3.4.3.1 0 .3.1.4.1.3.3.5 1 .5 1.9v.7c-1.7.1-3.5.8-5 2-.2-.4-.3-.8-.4-1.1-.2-.5-.4-1-.5-1.4-.5-1-1.5-1.5-1.8-1.5-.2 0-.3.1-.3.3 0 .2.1.3.2.5.3.6.7 1.7 1.1 2.8l.6 1.5c-1.6 1.7-2.5 3.7-2.5 5.4 0 1.8 1.1 2.9 2.1 2.9 2 0 4.2-2.9 4.6-3.5.6.2 1 .3 1.3.3.5 0 .9-.3.9-.7 0-.2-.1-.7-1.2-1.1 1-1.7 1.9-3.6 2.4-5.3 2.4.5 4 2.4 4 4.8 0 4.3-4.9 6.7-7.9 7.5-1.1.3-1.1.5-1.1.6 0 .2.3.2.5.2 2.9 0 10.3-2.4 10.3-8.1-.1-3-2.5-5.7-5.7-6.1zm-4.7 7.4c-1.4 1.9-2.9 2.4-3.2 2.4-.7 0-1.2-.9-1.2-2s.6-2.5 1.7-3.7c.7 1.5 1.6 2.6 2.7 3.3zm2.9-6.3c-.3 1.6-1 3.3-2 4.9-.9-.5-1.8-1.6-2.5-3.2 1.3-1 2.9-1.6 4.5-1.7zm24.7 3c-1.2 0-2.5.3-3.5.9.8-1.1 3.1-4.1 4.6-5.3.5-.4 1-.8 1-1.3 0-.6-1-1.6-2.2-1.6-1.3 0-2.5.8-3.4 1.5-.2.2-.6.3-.9.3-.2 0-.4 0-.6-.1h-.1c-.1-.1-.3-.1-.4-.1-.3 0-.3.4-.3.5 0 .9.7 1.5 1.7 1.5.9 0 1.5-.7 2-1.3.4-.5.8-.9 1.3-.9.2 0 .5.1.5.3 0 .1 0 .2-.2.5-.4.6-4.8 6.7-5.8 7.8-1.7 2-2 2.6-2 3 0 .5.3.9.8.9.4 0 .8-.3 1.1-.7.1-.1.3-.5.4-.8.1-.3.2-.5.3-.7 1.6-2.8 3.7-3.3 5.2-3.3 2.4 0 3.8 1.8 3.8 3.5 0 1.6-1 3.5-3.8 4.2.1-.2.1-.4.1-.6 0-1.4-1.2-2.6-2.7-2.6-1.2 0-2.4.7-2.4 1.9 0 1.6 2 2.6 3.9 2.6 4.2 0 6.8-2.8 6.8-5.5-.1-1.8-1.4-4.6-5.2-4.6zm-3.4 6.7c.8 0 1.4.7 1.4 1.5 0 .3 0 .5-.1.7-1.1-.1-2.3-.6-2.3-1.4 0-.1.1-.8 1-.8zM372 53.6c.1.1.1.3.1.4 0 .6-.2.7-.4.7-.7 0-2.1-.1-3.3-.1h-1.5c-.1 0-.1 0-.1.2v6.8c0 4.6 0 9.4.1 12.4 0 .4-.2.5-.7.5-.3 0-.7 0-.7-.5.1-2.4.2-6.8.2-11.4 0-4.3-.1-7.2-.2-8.6v-.1c0-.4.3-.7.7-.7h.7c1.9 0 3 .1 4.9 0 0 .2.2.3.2.4zm14.1 9v4.8c0 .6.1 1 .1 1.4.1.5.1.9.1 1.3 0 1.4-.5 2.5-1.2 2.5-.4 0-.8-.4-1-1.2-.1-.8-.8-2.1-1.8-3.3-.1-.1-.2-.2-.2-.3 0-.1.1-.2.2-.2s.3.1.3.1c.2.1.5.3.7.5.4.3.8.6 1.1.8l.1.1V62.9l-1.8.3c-.4.1-.7.2-1 .2-.4.1-.7.2-1.1.2-1 0-3.3-.6-3.3-1.7 0-.5.2-.5.4-.5.1 0 .3.1.6.2 1 .4 1.8.5 2.8.5.4 0 .6 0 3.5-.3v-1.6c0-1.3-.4-1.9-1.3-1.9H383c-.2 0-.5-.2-.5-.4s.2-.8 1.1-.8c.7 0 2.8.7 2.8 1.7 0 .2-.1.4-.1.6-.1.3-.2.5-.2.9 0 .3-.1.8-.1 1.3.7-.1 1.2-.2 1.7-.2.5-.1.8-.2 1-.3.3-.1.6-.3 1.1-.3 1.3 0 2.9.6 2.9 1.4 0 .3-.3.7-1 .7h-.4c-1.5-.3-3.1-.3-4.9-.1l-.3-.2zm7.7 6.1c0 .6-.5 1.2-1 1.2-.3 0-.7-.2-1-.7-.9-1.5-2.4-2.9-3.7-3.7-.4-.2-.5-.4-.5-.5 0-.1 0-.2.2-.2 1 0 6 1.9 6 3.9zm-12.2-2.9c0 2.7-2.9 4.9-4.1 4.9-.6 0-1.1-.4-1.1-.9 0-.4.3-.9.9-1.1 1.9-.9 3-1.9 3.5-3.2.1-.2.2-.4.4-.4.3-.1.4.3.4.7zm36.2-3.9c0 .4-.4.8-1 .8-.1 0-.2 0-.4-.1-1.1-.3-2.2-.4-3.3-.4-.2 0-.6 0-2 .1.3.2.5.5.5 1.1 0 .2 0 .4-.1.7-1.4 8-9.5 10.5-10.3 10.5-.1 0-.2-.1-.2-.2 0 0 0-.2.7-.5 4-1.9 7.9-6.8 7.9-10 0-.6-.1-.9-.4-.9H408.9c-.2 0-.4-.1-.4-.4-1 .2-2 .4-2.8.7l-.2.1c-.5.2-.8.3-1.2.3-1.1 0-3.3-.7-3.3-1.9 0-.4.3-.4.4-.4.2 0 .3.1.6.2.5.2 1.5.4 2.3.4h.6c.5-.1 1-.2 1.5-.2 2-.3 4.2-.7 6.6-1 .4 0 .7-.1.9-.3.3-.1.6-.2 1-.2.6.1 2.9.7 2.9 1.6zm-13.5-4.6c0-.2.2-.4.4-.4.1 0 .2 0 .2.1h.1c.4.3 1 .4 1.8.4 1.2 0 2.6-.3 3.6-.5.2 0 .3-.1.5-.1s.4-.1.6-.2c.3-.1.6-.2 1.1-.2.8 0 2 .4 2 1 0 .4-.5.7-1.2.7-1.2 0-2.8.3-4.1.5-.6.1-1.2.2-1.6.3h-.8c-2.2 0-2.6-1.2-2.6-1.6zm28 5.3c0 .4-.1.8-.2 1.2-2 6-7.7 9-8.8 9-.2 0-.2-.1-.2-.2 0-.2.3-.4.5-.5 3.2-1.7 6.8-7.1 6.8-9.4 0-1.2-.9-1.3-1.3-1.3-.5 0-.5-.3-.5-.4 0-.2.3-.8 1.1-.8 1-.1 2.6 1 2.6 2.4zm12.6-2.5c0 .8-3.2 6.3-8.1 9.6l-.3.3c-.3.3-.7.7-1.1.7-.9 0-1.8-1.6-1.8-2 0-.1 0-.3.1-.5s.1-.4.2-.8c.3-1.9.4-3.5.4-4.7 0-1.7-.3-2.7-1-2.9-.5-.2-.7-.3-.7-.5 0-.3.6-.5 1.2-.5 1.2 0 2.3 1.4 2.3 2.5 0 .2 0 .5-.1.7-.3 1-.6 5.5-.6 6 0 .1 0 .2.1.2.5 0 5.5-3.1 8.6-7.6.4-.6.5-.7.6-.7 0 0 .2 0 .2.2zm8.6-5.7c-.1 2.4-.2 6.8-.2 11.4 0 4.3.1 7.2.2 8.6v.1c0 .4-.3.7-.7.7h-3c-.8 0-1.6 0-2.7.1-.1 0-.3-.1-.3-.2s-.1-.2-.1-.4c0-.6.2-.7.4-.7.9 0 2.1.1 3.3.1h1.5c.1 0 .1 0 .1-.2v-6.8c0-4.5 0-9.4-.1-12.4 0-.4.2-.5.8-.5.4-.2.8-.2.8.2zm8.3 15.1c-1.6 0-2.9 1.3-2.9 2.9 0 1.6 1.3 2.9 2.9 2.9 1.6 0 2.9-1.3 2.9-2.9 0-1.6-1.3-2.9-2.9-2.9zm0 1.1c1 0 1.9.8 1.9 1.9 0 1-.8 1.8-1.9 1.8-1 0-1.8-.8-1.8-1.8 0-1.1.8-1.9 1.8-1.9zM0 132.6c0-.2.1-.5.4-.8.7-.6 1-1.3 1.1-2.1 0-.1 0-.1.1-.1 0 0 .3.4.3 1.3 0 1.2-.6 2.2-1.3 2.2-.4 0-.6-.2-.6-.5zm2.6-4.4v.2c0 .3-.4.6-.7.6-.2 0-.4-.1-.4-.5v-.1c.1-1.7.1-4.2.1-5.5 0-1.1 0-2.1-.2-3v-.1c.2 0 1.1.4 1.5.7h3l.2-.1c.1-.3.5-.8.6-.8h.1c.5.2 1.1.8 1.1 1.1 0 .1-.1.3-.3.3H5.3c.1 0 .1.1.1.1 0 .1-.1.1-.2.2-.2 0-.2 0-.2.3v1.3h.5l.2-.1s.4-.7.6-.7h.1c.9.4 1 1 1 1 0 .1-.1.3-.3.3H5v1.9h.5l.2-.1s.4-.7.6-.7h.1c.9.4 1 1 1 1 0 .1-.1.3-.3.3H5v2.1h1.2c.2 0 .2-.1.3-.1.2-.2.2-.3.3-.4l.1-.1c.3 0 1.2.7 1.2.9 0 .1-.1.3-.4.4-.2.1-.2.2-.3.4-.1 2.2-.6 5.6-3.1 5.6h-.1c-.1 0-.2 0-.2-.1-.1-.5-1.3-1.2-1.3-1.4h.2c.5.1 1 .4 1.5.4 1.7 0 1.9-3 2-5 0-.1-.1-.2-.2-.2H2.6zm.3 3.8c-.2 0-.4-.2-.4-.6v-.4c0-.4-.1-1-.1-1.3v-.1c.1 0 1 .9 1 1.6.1.5-.3.8-.5.8zm1.2-9.2c0-.6 0-1.5-.1-2H3l-.1.1c-.3.2-.3.2-.3.7v1.2h1.5zm0 .5H2.6v1.9h1.5v-1.9zm0 4.5v-2.1H2.6v2.1h1.5zm0 3c-.1-.4-.4-1-.6-1.4l-.1-.1c.4 0 1.5.7 1.5 1.4 0 .3-.2.6-.5.6-.1-.1-.2-.2-.3-.5zm1.2-.9c-.1-.3-.4-.7-.7-1l-.1-.1h.1c.6 0 1.4.4 1.4 1 0 .3-.2.5-.4.5-.1 0-.2-.1-.3-.4zm6.8-4.2c.5 3.2 1.4 6.8 4.9 8.3.1.1.2.1.2.1 0 .2-1.4.3-1.8.7-.1.1-.1.1-.2.1-.3 0-2.8-3.2-3.2-9.3h-1.3c-.1 3.1-.8 7.1-3.8 9.4-.3.2-.5.3-.6.3 0-.1.1-.2.4-.4 2.6-2.6 3-6.9 3-10.4 0-2.3-.2-4-.3-4.6v-.2c.1 0 1.3.5 1.8.8 0 0 .1 0 .1.1h2.8c.1 0 .2-.1.3-.2.2-.3.5-.6.6-.6.4 0 1.4 1 1.4 1.2 0 .2-.1.3-.4.4-.4.2-.4.3-.4.9 0 .7 0 2.3.1 3.6 0 .4-.4.6-.7.6-.3 0-.5-.1-.5-.5v-.4h-2.4zm2.1-.5v-3.8c0-.1-.1-.2-.3-.2h-3l-.1.1c-.3.2-.3.1-.3.9V125.3h3.7zm11 .2c0-.9.2-1.9.3-2.6.1-.4.1-.8.1-1.2 0-.7-.2-.9-.9-1.1-.2 0-.3-.1-.3-.2 0-.2.3-.5.7-.5.5 0 1.7.6 1.7 1.7 0 .4-.2.8-.2 1.1-.2.8-.5 2-.5 2.9 0 .9.3 1.7 1.2 1.9.9-.4 1.3-.4 1.6-.4.7 0 .8.4.8.6 0 .7-.9.9-1.4.9h-.4c-1.5 0-3.9 1.4-3.9 3.1 0 1.1.9 2.1 2.8 2.1.8 0 1.7-.2 2.4-.5.2-.1.4-.1.6-.1.4 0 .7.3.7.6 0 .9-1.9 1.3-3.2 1.3-3.1 0-4.1-1.9-4.1-3.1 0-1.5 1.3-3.1 3.2-3.9-.9-.5-1.2-1.5-1.2-2.6zm21.8 9.3c-2.4 0-4.4-1.9-4.4-3.9 0-.8.3-1.5 1-2.2.2-.2.3-.4.3-.5h-.1c-.3 0-1.7.9-1.9 1-.3.2-.6.3-.8.3-.6 0-1-.3-1-.8 0-.1 0-.2.1-.4.2-.5.3-.3.9-1 4.6-5.3 4.6-5.7 4.6-6 0-.2-.1-.4-.3-.4-.2 0-.5.1-.7.4-.2.2-.4.5-.6.7-.2.1-.4.2-.6.2-.7 0-1.6-.8-1.6-1.5 0-.1 0-.1.1-.1h.2c.5.1.8.3 1.2.3.7 0 1.2-.4 1.4-.5.3-.2.6-.3 1-.3.7 0 1.4.4 1.4 1.1 0 .4-.3.9-.9 1.5-1.2 1.1-4.9 4.5-4.9 5.3 0 .1.1.1.1.1h.1c1-.2 2.4-1 4.2-1.7 3.5-1.5 4.1-.4 4.1.1 0 .3-.3.6-.8.6h-.3c-.4-.1-.8-.1-1.2-.1-1.5 0-3 1.1-3.1 1.2-.9.8-1.3 1.7-1.3 2.5 0 1.6 1.5 2.8 3.3 2.8.2 0 .4 0 .7-.1h.2c.5 0 .8.4.8.7 0 .7-.7.7-1.2.7zm16.1-9.9c0 3.9-3.1 8-4.7 8-.9 0-1.2-1.2-1.9-2.3-.3-.4-.4-1-.4-1.6 0-2.7 2.4-7.1 7.3-7.1 4.1 0 6.2 2.8 6.2 5.8 0 5.5-6.3 7-7.7 7-.2 0-.3 0-.3-.1s.3-.2.8-.4c4.7-1.3 6-4.4 6-6.6 0-2.7-1.8-5.1-5.3-5.1h-.6c.4.3.6 1.3.6 2.4zm-.6-.6c0-1.3-.3-1.6-.7-1.6H61.5c-2.8.8-4.5 3.5-4.5 5.9 0 1.6.8 2.8 1.7 2.8 1.1-.1 3.8-3.8 3.8-7.1zm13.9-3.2-.1.1c-.2.1-.3.2-.3.7v.3c0 .8.1 1.7.1 2.7 0 3.7-.4 8.1-3.1 10.4-.3.2-.5.4-.6.4h-.1c0-.1.1-.2.3-.5 1.8-2 2.3-6.1 2.3-9.7 0-2.2-.2-4.4-.4-5.5v-.2c.1 0 1.4.5 1.9.8l.1.1h8.7c.1 0 .2-.1.3-.2.4-.6.6-.6.6-.6.4 0 1.5.8 1.5 1.2 0 .2-.2.3-.5.5s-.3.2-.3 2.9c0 2 0 4.7.1 6.4 0 1 .1 1.4.1 2.1 0 1.5-1.5 2.3-2.4 2.3-.1 0-.2 0-.3-.2-.3-.4-2.2-1.3-2.2-1.4H82.4c.9.2 1.6.3 2.1.3 1 0 1.3-.4 1.3-1.1v-5.6c0-2.4 0-4.6-.1-5.9 0-.1-.1-.3-.2-.3h-9.1zm3.5 5.7c-.9 0-1.3 0-2.7.2-.3 0-.7-.7-.7-.9 1.6.2 2.6.3 3.5.3h.3v-1.9c-.7 0-1.2 0-2.4.2-.3 0-.7-.7-.7-.9 1.4.2 2.3.2 3.1.3v-.6c0-.5-.1-1.2-.1-1.6v-.1c.1 0 1.9.2 1.9.5 0 .1-.1.2-.4.3-.3.1-.3.2-.3.7v.8h1c.1 0 .2-.1.3-.1 0-.1.5-.8.7-.8h.1c.6.3 1.2.8 1.2 1.2 0 .1-.1.2-.3.2h-3v1.9H83c.1 0 .2-.1.3-.1.2-.4.6-.8.7-.8h.1c.4.2 1.3.8 1.3 1.2 0 .1-.1.2-.3.2h-5.2zm2.5 5.5v-.3H79v1.1c0 .4-.4.6-.7.6-.3 0-.5-.1-.5-.5v-.1c.1-1 .1-2.3.1-3.1 0-.2 0-1.4-.2-2v-.1c.1 0 1 .3 1.6.7H82c.1 0 .2-.1.2-.1.2-.3.4-.5.5-.5 0 0 1.3.5 1.3 1 0 .2-.2.3-.3.4-.3.2-.3.3-.3.9 0 .6.1 1.2.1 1.9 0 .3-.2.7-.6.7-.3-.1-.5-.2-.5-.6zm-3-3.3c0 .1 0 .1 0 0-.4.3-.4.2-.4.6v1.8h3.5v-2.2c0-.1-.1-.2-.2-.2h-2.9zm22.2-7.4c.1 0 .1.1.1.1 0 .1-.1.2-.3.2-.3.1-.3.2-.3.6-.2 3.9-1.3 7.9-6 9.8.7 1.3 2.4 1.6 4.8 1.6 2.3 0 5.3-.3 7.4-.9.1 0 .2-.1.2-.1h.1c0 .2-1.2 1-1.5 1.5-.1.1-.2.3-.3.3-.1 0-2.4.3-4.7.3-1.9 0-5.6 0-6.5-3-.4.6-1.5 1.8-2.3 2.6-.1.1-.1.4-.3.4-.3 0-1.4-1.2-1.4-1.3 0 0 0-.1.1-.1.8-.2 2.1-1 2.9-1.7.3-.3.3-.7.3-3.8v-.7c0-.1-.1-.2-.2-.2h-.3c-.3 0-1.1.2-1.5.2-.3 0-.8-.7-.8-1 .6.1 1.8.3 2.2.3h.4c.1 0 .2-.1.3-.2.4-.5.5-.5.5-.5.2 0 1.5.6 1.5 1 0 .2-.3.3-.5.4-.3.1-.4.1-.5.5-.1.6-.1 1.8-.1 2.7v.7c0 .1 0 .3.1.4 4.6-2.4 4.9-7.8 4.9-9.7v-.7c-.9 0-1.9.1-2.8.1-.3 0-.8-.7-.8-.9 1.6.2 4 .3 5 .3h2.7c.2 0 .3-.1.3-.1l.5-.5c.2 0 1.4.7 1.4 1.1 0 .2-.1.3-.4.5-.4.2-.5.3-.5.8 0 2.1 0 3.4-.3 4.9-.4 3.2-1.9 4.4-3.6 4.5-.1 0-.2 0-.2-.1-.2-.4-2.2-1.5-2.2-1.6h.2c.8.2 1.5.4 2.1.4 1.3 0 2.2-.7 2.6-3.2.3-1.6.2-4.2.3-5.7 0-.3-.1-.3-.3-.3h-2.3zm-7.7.9c-.5-.7-1.4-1.5-2-1.8l-.1-.1.1-.1c.6 0 3.3.4 3.3 1.8 0 .4-.3.7-.6.7-.2 0-.4-.2-.7-.5zm23.5 2.4c0 3.9-3.1 8-4.7 8-.9 0-1.2-1.2-1.9-2.3-.3-.4-.4-1-.4-1.6 0-2.7 2.4-7.1 7.3-7.1 4.1 0 6.2 2.8 6.2 5.8 0 5.5-6.3 7-7.7 7-.2 0-.3 0-.3-.1s.3-.2.8-.4c4.7-1.3 6-4.4 6-6.6 0-2.7-1.8-5.1-5.3-5.1h-.6c.3.3.6 1.3.6 2.4zm-.6-.6c0-1.3-.3-1.6-.7-1.6H115.8c-2.8.8-4.5 3.5-4.5 5.9 0 1.6.8 2.8 1.7 2.8 1.1-.1 3.8-3.8 3.8-7.1zm19 6.3c1.5 1.5 4.4 3 7.6 3.3.1 0 .2 0 .2.1 0 .2-1.5.6-2 1-.1.1-.1.1-.2.1-.6 0-4.3-1.8-5.9-4.2v1.3c0 1.1 0 2.2.1 2.9 0 .5-.4.6-.7.6-.3 0-.5-.2-.5-.5v-.1c.1-.9.1-2.6.1-3.7-3.3 3.4-7.6 4.1-7.9 4.1h-.1c0-.1.1-.1.4-.2 2-.7 4.9-2.5 6.9-4.6h-.6c-1 0-3.4 0-5 .2-.3 0-.8-.7-.8-.9 1.8.2 4.9.3 5.9.3h1.3c0-.5-.1-1.2-.2-1.5v-.1s0-.1.1-.1c.3 0 1.9.2 1.9.5 0 .1-.1.2-.3.3-.3.2-.5.1-.5.6v.3h4.2c.1 0 .2-.1.3-.2.2-.3.7-1 1-1h.1c.8.3 1.5 1.2 1.5 1.4 0 .1-.1.2-.4.2h-6.5zm-4.6-2.3v.2c0 .4-.4.7-.7.7-.3 0-.5-.2-.5-.5v-.1c.1-1 .2-3.5.2-4.3v-1c-1.5 1.9-3 3-3.3 3 0-.1.1-.2.3-.4 1.4-1.3 3.5-4.4 3.9-6.3 0-.1 0-.2.1-.2.3 0 1.9.7 1.9 1 0 .1-.2.3-.6.3-.3 0-.4.1-.5.3-.2.3-.5.7-.7 1.1.1 0 .2.1.3.1.1 0 .2.1.2.1h2.9c.4-1.2.4-1.6.4-2V119.4c.2 0 2.1.6 2.1.9 0 .1-.2.3-.6.3-.2 0-.3.1-.4.2-.3.4-.7 1-1 1.4h3.5c.1 0 .2-.1.3-.1.1-.1.6-.9.9-.9h.1c.7.3 1.4 1 1.4 1.3 0 .1-.1.2-.4.2h-5c.1.1.2.1.2.2s-.2.2-.4.3c-.1 0-.2.2-.2.3v.6h1.9c.1 0 .2-.1.3-.1 0 0 .6-.7.8-.7.2 0 1.4.6 1.4 1.1 0 .1-.1.2-.3.2h-4v1.3h1.9c.1 0 .2-.1.3-.1.1-.1.6-.7.8-.7.2 0 1.4.7 1.4 1.2 0 .1-.1.2-.3.2h-4.1v1.5h3.3c.1 0 .2-.1.3-.1.2-.3.7-.9.9-.9h.1c.6.2 1.4.9 1.4 1.3 0 .1-.1.2-.4.2h-10.1zm-.1-3.7v1.3h3.6v-1.3h-3.6zm0 1.8v1.5h3.5v-1.5h-3.5zm.5-3.7c-.4.2-.4.2-.4 1.4h3.5c0-1.1-.1-1.3-.1-1.4h-3zm24-.7v.7c0 .4-.4.5-.6.5-.2 0-.5-.1-.5-.5v-.7h-3.2v1.3c0 .3-.3.5-.6.5s-.5-.1-.5-.4v-1.5c-1.3 0-3.3.1-4.5.2-.3 0-.8-.7-.8-.9 1.4.2 3.9.3 5.4.3v-.8c0-.2 0-.9-.1-1.4v-.1c0-.1 0-.1.1-.1.5 0 1.8.3 1.8.6 0 .1-.1.2-.4.3-.2.1-.3.2-.3.6v.8h3.2v-.8c0-.2 0-.9-.1-1.5v-.1c0-.1 0-.1.1-.1.5 0 1.8.3 1.8.6 0 .1-.1.2-.4.3-.2.1-.3.2-.3.8v.6h2.5c.1 0 .2-.1.3-.2.2-.3.7-1.1 1-1.1h.1c.6.2 1.5 1.2 1.5 1.5 0 .1-.1.2-.4.2h-5.1zm-8.2 5.9c-.3-.4-1-.9-1.5-1.2-.1-.1-.2-.1-.2-.2s.7-.1.7-.1c1.2 0 2.1.4 2.1 1.1 0 .4-.3.7-.6.7-.1.1-.3 0-.5-.3zm.1 6.5v-.2c0-.4.1-.9.1-1.3 0-.6-.3-1.1-1.4-1.4-.3-.1-.4-.1-.4-.2s.1-.1.4-.1c.7 0 1.1-.1 1.5-.7 3.5-5.7 3.8-5.9 3.9-5.9v.1c0 .1-.1.3-.1.4-.6 1.2-2.4 4.5-2.8 5.8-.2.6-.3 1.1-.3 1.6s.1.9.3 1.3c.4 1-.1 1.7-.6 1.7-.3 0-.6-.4-.6-1.1zm1.2-9.1c-.3-.4-.8-1-1.3-1.4-.1-.1-.2-.1-.2-.2 0 0 .1-.1.2-.1.6 0 2.6.2 2.6 1.4 0 .4-.3.7-.6.7-.2 0-.5-.1-.7-.4zm4.9 8.8v.8c0 .3-.4.5-.7.5-.2 0-.4-.1-.4-.4v-.1c.1-.7.1-1.7.1-2.6 0-1.1 0-1.5-.1-2-1.8.8-3.2.9-3.2.9h-.1c0-.1.2-.1.5-.3 1.9-.6 3.9-1.7 5.4-3.3-.5-.6-1-1.4-1.3-2.2-2.1 3-3.9 3.8-4 3.8h-.1c0-.1.1-.1.2-.3 1.4-1.2 3.6-4.2 3.8-5.8 0-.2.1-.2.1-.2.1 0 1.6.5 1.6.8 0 .1-.2.3-.5.3-.2 0-.2 0-.4.3l-.1.1h2.6c.1 0 .2 0 .3-.1.3-.3.4-.3.5-.3.2 0 1.2.6 1.2.9 0 .1-.1.3-.4.3-.3.1-.3.1-.5.3-.5.8-1.1 1.5-1.7 2.1 1.4 1 3.1 1.6 5.2 1.7.1 0 .2 0 .2.1s-1.4.5-1.7.9c-.1.1-.2.1-.3.1-.4 0-2.4-.8-4-2.2-.8.7-1.8 1.3-2.8 1.8.3.1.8.4 1.1.6h3c.1 0 .2-.1.2-.1.2-.3.4-.4.5-.4.1 0 1.4.6 1.4 1 0 .2-.2.3-.4.4-.3.1-.3.2-.3.9 0 .5.1 1.1.1 2.2 0 .4-.3.6-.6.6s-.5-.1-.5-.5v-.7h-3.9zm.3-2.9-.1.1c-.2.1-.3.2-.3 1.3v1.1h3.8v-2.3c0-.1-.1-.2-.2-.2h-3.2zm.2-6.2-.2.2c.4.7.9 1.4 1.6 2 1.1-1.2 1.5-2.1 1.5-2.1 0-.1 0-.1-.1-.1h-2.8zm11.3 5.6c0-2 .7-3.7 1-5.2.1-.5.1-.9.1-1.2 0-1-.2-1.6-.4-1.9-.1-.1-.2-.3-.2-.3 0-.1.1-.1.4-.1.6 0 1.4.9 1.4 2.1 0 .6-.2 1.1-.5 1.9-.5 1.2-1 2.6-1 3.8 0 .7.2 1.2.3 1.2.1 0 .1-.1.2-.3.5-1.1 1.5-3.3 1.8-3.3 0 0 .1 0 .1.1s0 .2-.1.3c-.5 1.3-1.3 3.5-1.3 4.8 0 .4.1.7.1 1v.3c0 .4-.2.6-.5.6-1 0-1.4-2.8-1.4-3.8zm9.2 3c-3.4 0-4-1.9-4-2.3 0-.1 0-.2.1-.2s.2.1.4.3c.4.5 1.6.9 3 .9.3 0 .7 0 1-.1.4-.1.7-.3 1.3-.3h.1c.6 0 .9.3.9.6 0 .9-1.8 1.1-2.8 1.1zm-1.1-8.2c-2.5 0-2.7-1.5-2.7-1.6 0-.1 0-.1.1-.1s.2.1.3.1c.5.3 1.2.4 1.8.4.5 0 1-.1 1.5-.2.3-.1.5-.2.7-.2h.4c.5 0 .8.3.8.5 0 1-2.3 1.1-2.9 1.1zm8.1 9.3c0-.3.3-.7.8-.9 1.2-.4 1.7-1.4 2.1-2.2.1-.1.1-.2.1-.2s.1.2.1.5c0 2-1.4 3.3-2.4 3.3-.4.1-.7-.2-.7-.5zm11.1-4.4h-7v.4c0 .3-.4.6-.7.6-.3 0-.5-.1-.5-.5v-.1c.1-1.6.1-2.3.1-3.6 0-.2-.1-1.6-.2-2.2v-.1c.1 0 1.1.3 1.8.8h2.4v-2.3c0-2.6-.2-3.4-.2-3.5v-.1c.1 0 2.1.3 2.1.7 0 .1-.1.3-.3.4-.4.3-.5.1-.5.9v1.1h3.5c.1 0 .2-.1.3-.2.8-1.1.9-1.2 1-1.2.4 0 1.7 1.2 1.7 1.6 0 .1-.1.2-.4.2h-6.1v2.4h2.7c.1 0 .2 0 .2-.1l.4-.4c.1 0 .1-.1.2-.1s1.5.7 1.5 1.1c0 .2-.2.3-.4.4-.3.2-.3.3-.3.7v.7c0 1.1.1 1.7.1 2.8 0 .4-.4.7-.7.7-.3 0-.5-.2-.5-.5v-.6zm-6.5-4.3-.1.1c-.3.2-.3.4-.3 1.5v2.2h7V126c0-.1-.1-.2-.2-.2h-6.4zm.6 8.4v-.3c0-.3.1-.8.1-1.2 0-.5 0-.9-.1-1.1V131.4c.1 0 1.3 1.3 1.3 2.3 0 .7-.4 1.2-.8 1.2-.2.1-.5-.1-.5-.6zm4.2-.1c-.2-.7-.6-1.8-.9-2.4-.1-.1-.1-.2-.1-.2.4 0 2.3 1.3 2.3 2.6 0 .5-.3.9-.6.9-.3-.2-.5-.4-.7-.9zm4.5.1c-.5-1-1.5-2.1-2-2.5l-.2-.2h.1c.5 0 3.4 1.2 3.4 2.7 0 .4-.2.7-.5.7-.2-.1-.5-.3-.8-.7zm9.9-10.8c-.5.9-1 1.8-1.6 2.6.8.1.9.3.9.4 0 .1-.1.3-.3.3-.4.2-.4.1-.4.8 0 1.1-.1 2.6-.1 4 0 1 0 2.1.1 3.1 0 .4-.4.7-.8.7-.3 0-.5-.2-.5-.6v-.1c.2-2 .3-4.5.3-6.3v-1.1c-2 2.5-3.9 3.6-4.2 3.6 0-.1.1-.2.3-.3 1.7-1.4 3.8-4.1 5.2-7-1.1 0-2.6.1-3.8.2-.3 0-.9-.7-.9-.9 1.4.2 3.5.3 4.9.3.9-1.9 1.1-2.8 1.1-3.6 0-.1 0-.2.1-.2.2 0 1.9.7 1.9 1 0 .1-.1.3-.5.4-.3.1-.3.1-.4.3-.3.7-.6 1.4-1 2.1h6.4c.1 0 .3-.1.3-.2.1-.1.8-1.1 1-1.1h.1c.6.2 1.6 1.2 1.6 1.5 0 .1-.1.2-.4.2h-9.3zm3.1 10.7c-1 0-2 0-3.5.2-.3 0-.8-.7-.8-.9 1.8.2 3.5.3 4.5.3h.1v-4.7c-.8 0-1.5 0-2.9.2-.3 0-.8-.6-.8-.8 1.5.2 2.8.2 3.7.2 0-2.9-.1-3.7-.2-3.9v-.1h.1c.1 0 2 .2 2 .6 0 .1-.1.2-.3.3-.4.2-.4.1-.4.6 0 .4-.1 1.3-.1 2.5h1.7c.1 0 .2-.1.3-.1.6-.8.8-1 .9-1 .3 0 1.6.9 1.6 1.3 0 .1-.1.2-.4.2h-4.2v4.7h2.4c.1 0 .3-.1.3-.2.4-.6.8-1.1 1-1.1h.2c.4.2 1.5 1 1.5 1.4 0 .1-.1.2-.4.2h-6.3zm16.9-2.9h-.2c-.4 0-.7-.2-.9-.5-.4-.6-.7-1.2-.7-2.1 0-1.2.8-1.7 1.6-1.7.3 0 .6.1.9.2v-2.8c-1.7.2-3.3.6-4.6 1.1-.3.1-.8.3-1.2.3-1 0-2-.6-2-1.4 0-.2.1-.3.2-.3s.2.1.4.2c.1.1.6.2 1.1.2.3 0 .6 0 .9-.1 1.8-.2 3.5-.5 5.3-.7v-1.8c0-.8-.3-1-.7-1.3-.1-.1-.1-.1-.1-.2s.2-.4.7-.4c.3 0 1.3.1 1.3 1.3 0 .2 0 .4-.1.6-.1.6-.2 1.1-.2 1.6.7-.1 1.5-.1 2.2-.1.2 0 .3-.1.3-.1s0-.1-.1-.1c0 0-1.5-1-1.5-1.2h.1c.1 0 .4.1.5.2.8.4 1.7.8 2.4.9 1.9.3 2 .9 2 1.2 0 .3-.2.5-.6.5-.1 0-.3 0-.5-.1-1.2-.4-2.6-.6-4.1-.6h-.9c0 .6-.1 1.1-.1 1.6 0 .7 0 1.4.1 1.8.6.6.7 1.3.7 1.9 0 3.4-3.7 5.7-4.9 5.7-.1 0-.1 0-.1-.1s.1-.2.5-.3c.9-.4 2.8-2 3.4-4.2-.5.5-.8.7-1.1.8zm-.5-3.9c-.4 0-.8.3-.8 1 0 .3.2 1.7 1.3 1.7.7 0 .8-.8.8-1.3 0-.2 0-.4-.1-.5-.4-.9-1-.9-1.2-.9zm19.5 6.2c2.2-.5 3.1-1.9 3.1-3.2 0-1.4-1.1-2.8-2.9-2.8-1.3 0-2.8.5-4 2.6-.2.3-.5.9-.6 1.1-.3.4-.5.5-.8.5-.3 0-.5-.2-.5-.5s.2-.7 1.5-2.2c.7-.8 4-5.4 4.3-5.9.1-.2.2-.3.2-.5 0-.1 0-.3-.5-.3-.9 0-1.3 1.7-2.5 1.7-.6 0-1.1-.4-1.1-1 0-.1 0-.3.1-.3s.2.1.3.1c.2.1.3.1.5.1.3 0 .5-.1.7-.3.5-.4 1.5-1.1 2.5-1.1.8 0 1.6.7 1.6 1.1 0 .3-.3.6-.7.9-1.5 1.1-3.7 4.3-3.7 4.3h.1c.8-.5 1.9-.8 2.9-.8 2.6 0 3.7 1.9 3.7 3.3 0 2-1.9 4-5 4-1.3 0-2.8-.7-2.8-1.8 0-.8.8-1.3 1.7-1.3 1.1 0 1.9.9 1.9 1.8v.5zm-.9-.6c0-.7-.5-1.2-1.2-1.2-.8 0-.8.5-.8.7 0 .7 1 1.1 1.9 1.1 0-.2.1-.4.1-.6zm13.8-7.2v5.1c1-.4 1.9-.8 2.6-1.2.1-.1.2-.1.2-.1h.1c0 .3-3.6 2.5-5.4 3.4-.1.1-.2.3-.3.3-.2 0-1.1-1.1-1.1-1.3 0-.1 0-.1.1-.1.9 0 1.4-.2 2.7-.7v-5.5c-.6 0-1.2.1-1.9.2-.3 0-.8-.6-.8-.9 1.3.2 2 .3 2.7.3v-2.4c0-.8 0-1.8-.2-2.7v-.1s0-.1.1-.1c0 0 2.1.3 2.1.8 0 .2-.2.3-.5.4-.3.1-.4.2-.4 4.1h.5c.1 0 .1-.1.2-.2s.5-.9.8-.9c.4 0 1.3 1 1.3 1.3 0 .1-.1.2-.3.2h-2.5zm6.1 0-1.8.9c0 1.9-.1 4-.1 5.1v.6c0 1 .2 1.3 3.3 1.3.8 0 1.7-.1 2.4-.2 1.3-.2 1.4-1.5 1.7-3 0-.1.1-.2.1-.2.1 0 .1 2.3.4 2.5.2.2.4.4.4.6 0 1.2-3.3 1.2-5.1 1.2-2.4 0-4.2-.1-4.2-2v-.1c0-1.3.1-3.5.1-5.5-1 .6-1.5.8-1.6.8-.3 0-.9-.3-.9-.5.9-.4 1.8-.7 2.5-1V124c0-.6 0-1.7-.1-2.4v-.1s0-.1.1-.1c.2 0 1.9.3 1.9.7 0 .1-.1.3-.4.4-.3.1-.4.1-.4.7 0 .3-.1 1.4-.1 2.7l1.6-.8.5-.3c0-2.5 0-4.3-.2-5.2v-.1c.2 0 2 .3 2 .7 0 .1-.1.2-.3.3-.4.2-.4.1-.5.8-.1.7-.1 1.8-.1 3l2-1c.1-.1.2-.2.2-.3.2-.4.3-.5.4-.5.2 0 1.5.4 1.5.8 0 .1-.1.3-.4.5-.2.2-.3.2-.3.5-.1 4-.1 5.9-2.2 6.2h-.1c-.1 0-.2 0-.2-.1-.1-.3-.6-.7-1-1 0 .6 0 1.2.1 1.7 0 .5-.5.7-.7.7s-.5-.2-.5-.6c.1-1.5.1-3.8.1-5.8l-.1.4zm1.3-.7v4.2c.4.1.8.2 1.1.2.7 0 1.3-.2 1.3-3.9v-1.4c0-.1-.1-.2-.2-.2h-.1l-2.1 1.1zm10.2.1v5.2c.8-.3 1.7-.6 2.4-.9.1 0 .2-.1.2-.1h.1c0 .3-3 1.9-4.9 2.8-.1.1-.2.2-.3.2-.2 0-1-1.1-1-1.2 0 0 0-.1.1-.1.6 0 1.7-.3 2.4-.5v-5.5c-.5 0-1 .1-1.6.2-.3 0-.8-.6-.8-.9 1.1.1 1.8.2 2.4.3v-2c0-.8 0-1.8-.2-2.7v-.1s0-.1.1-.1c0 0 2.1.3 2.1.8 0 .2-.2.3-.4.4-.3.1-.4.3-.4 3.7h.3c.1 0 .1-.1.2-.2.1-.2.5-.9.7-.9h.1c.6.3 1.2 1 1.2 1.3 0 .1-.1.2-.3.2h-2.4zm2.6 7.7c-.1.1-.2.2-.4.2s-1-1-1-1.3h.1c2.2 0 6.2-1.3 6.6-1.4h.2c.1 0 .1 0 .1.1-.1.2-4.3 1.9-5.6 2.4zm5.5-9.3c.1 2.1.3 4.4 1 6.3.5-1 1-2.1 1.3-3.5.1-.4.1-1 .1-1.3v-.1s1.7.5 1.7.9c0 .1-.1.2-.5.4-.3.1-.3.1-.4.4-.5 1.7-1.1 3.2-1.9 4.4 1 2.1 2 2.5 2.1 2.5.3 0 .6-.5 1.2-2.1.2-.6.2-.2.2-.1 0 .5-.2 2-.2 2.6v.3c.1.2.2.4.2.5 0 .3-.3.5-.6.5-.4 0-2.2-.6-3.5-3.3-2.6 3.1-6.2 3.5-6.5 3.5-.1 0-.2 0-.2-.1 0 0 .1-.1.4-.2 2.1-.6 4.3-1.8 5.9-4.2-.9-2.5-1.1-5.4-1.3-7.3h-.4c-.9 0-2.7 0-4.1.2-.3 0-.8-.7-.8-.9 1.7.2 4.1.3 5 .3h.3c-.2-2.6-.2-2.9-.4-3.5v-.1h.2c.2 0 1.8.2 1.8.6 0 .1-.1.3-.3.4-.3.2-.3.1-.3.8v1.9h1.9c.1 0 .2-.1.3-.2.3-.4.7-.9.8-.9.2 0 1.4.8 1.4 1.3 0 .1-.1.2-.4.2h-4zm-2.8 5.6h-1.5v.8c0 .2-.3.4-.6.4-.2 0-.4-.1-.4-.3.1-1 .1-2.5.1-3.2 0-.2-.1-1.2-.2-1.7v-.1c.2 0 1.1.5 1.4.6h.9c.1 0 .2-.1.2-.1 0-.1.3-.4.4-.4.3 0 1.1.6 1.1.8 0 .1-.2.3-.3.3-.3.2-.3.3-.3.7 0 .6.1 1.7.1 2.5 0 .3-.3.4-.6.4-.2 0-.4-.1-.4-.3l.1-.4zm0-.5v-2.4c0-.1-.1-.2-.2-.2h-1.1c-.2.1-.2.1-.2.5v2.2h1.5zm4.5-7.1c-.2-.4-.6-.8-1-1.1l-.1-.1s.3-.1.5-.1c1.4 0 1.7.6 1.7 1 0 .3-.3.6-.6.6-.1.1-.3 0-.5-.3zm12.1 12.4h-.4c-.1 0-.3 0-.4.1-2.4 1.1-5 1.4-6.3 1.4-.3 0-.4 0-.4-.1 0 0 .1-.1.4-.1 1.4-.3 3.5-.9 5.5-2 .2-.1.5-.4.6-.6 0-.1 0-.1.1-.1s1.3.9 1.3 1.2c-.1.1-.2.2-.4.2zm-5.1-8c-.2.1-.3.3-.5.3-.4 0-1.1-1.2-1.1-1.3h.5c1.5 0 5.1-1.1 5.4-1.2.2-.1.3-.1.4-.1h.1c-.1.2-1.6.9-4.8 2.3zm1.5-3.7c-.5-.4-1.4-.9-2.1-1.2-.2-.1-.3-.1-.3-.1 0-.1.6-.1 1.2-.1 2.2 0 2.4 1 2.4 1.2 0 .3-.2.6-.5.6-.1-.1-.4-.2-.7-.4zm7.5 9.7h-5.9v.3c0 .3-.4.6-.7.6-.3 0-.5-.1-.5-.5v-.1c.1-1.1.1-3.4.1-4.3v-1c-.3.1-2 .3-2.3.3-.1 0-.2 0-.2-.1s.2-.1.3-.1c.8-.1 1.5-.3 2.2-.5 0-.2-.1-.5-.1-.6v-.1c.1 0 .9.3 1.2.4 2.3-.9 3.7-2.2 3.7-3.9v-.2s0-.1.2-.1 1.1.2 1.3.3c.2 0 .3.1.3.2s-.1.2-.2.2c.5 1.6 2.4 2.9 5.9 3.2h.1c0 .1-1.4.5-1.7.8-.1.1-.1.1-.2.1-.2 0-4-.9-4.3-4-.1.1-.2.1-.3.4-.5 1.6-1.8 2.6-3.7 3.3h4.6c.1 0 .2 0 .3-.1.3-.5.5-.5.5-.5.1 0 1.4.6 1.4 1 0 .2-.2.3-.4.4-.3.2-.4.3-.4 1 0 1.1.1 2.9.1 3.6 0 .4-.4.6-.7.6-.3 0-.5-.1-.5-.5v-.1zm-5.6-4.9c-.3.2-.3.2-.4.8v.4h6v-1c0-.1-.1-.2-.2-.2h-5.4zm5.6 1.6h-6v1.1h6v-1.1zm-6 1.6v1.3h6v-1.3h-6zm2.8-8.7c-1.4 1.7-2.3 2.2-2.5 2.2h-.1s.1-.1.1-.2c.8-.8 2.3-3.5 2.4-4.4v-.2c.1 0 1.8.5 1.8.9 0 .1-.2.2-.5.2s-.3 0-.4.2c-.2.2-.3.5-.5.7h4.6c.1 0 .3-.1.3-.1.1-.1.3-.4.6-.4.1 0 1.5.7 1.5 1.2 0 .2-.2.4-.7.4-.7 0-1.9 1.3-2.5 1.7-.1 0-.1.1-.1.1s0-.1.1-.1c.8-1.4 1.2-2 1.2-2.1 0-.1-.1-.1-.1-.1h-5.2zm5.1 13.3c-.8-.9-2.9-1.7-4.1-2.1-.1 0-.1-.1-.1-.1h.2c1.7 0 4.3.9 5 1.3.4.3.6.6.6.9 0 .3-.3.6-.6.6-.3-.1-.6-.3-1-.6zm6.8-9.5c-.3-.4-1-1-1.5-1.3-.1-.1-.2-.1-.2-.2s.7-.1.8-.1c1 0 2.2.3 2.2 1.2 0 .4-.3.7-.6.7-.2.1-.5 0-.7-.3zm0 7.9v-.2c0-.5.2-1 .2-1.5 0-.7-.3-1.4-1.5-1.6-.3-.1-.4-.1-.4-.2s.2-.1.4-.1c.7 0 1.2-.1 1.5-.8.8-1.7 3-6.2 3.2-6.2v.1c0 .1 0 .2-.1.3-1.1 2.7-2.3 6.1-2.3 8 0 .6.1 1.1.3 1.6.4 1-.1 1.7-.6 1.7-.4 0-.7-.3-.7-1.1zm1.4-11.6c-.3-.5-.8-1.1-1.4-1.5l-.2-.2h.3c1.1 0 2.7.5 2.7 1.5 0 .4-.3.7-.7.7-.2 0-.5-.1-.7-.5zm10.1 7.3h-1c.1 0 .1.1.1.1 0 .1-.1.1-.2.2-.3.1-.3.1-.3.6v2.2c0 .3.1.8.1 1.2 0 1.4-1.3 1.8-1.8 1.8-.1 0-.2-.1-.3-.2-.2-.3-1.7-1-1.7-1.2H316.1c.6.1 1.2.2 1.5.2.7 0 1-.2 1-.7v-1.7c0-1.2 0-2.1-.1-2.5h-1.4v.3c0 .3-.3.5-.7.5-.2 0-.5-.1-.5-.4v-.1c.1-1.4.1-2.4.1-3.2 0-.3 0-1.9-.2-2.9v-.2s1 .4 1.6.8h.6c.1-.5.2-1.3.2-1.6v-.8h-3.1s-.1.1-.2.1c-.3.2-.3.1-.3.8v.6c-.1 2.6.3 9.2-4.2 11.8-.3.2-.5.3-.6.3 0-.1.1-.2.4-.4 3.1-2.3 3.4-7.1 3.4-10.6v-1c0-.5-.1-2-.2-2.7v-.1c.1 0 1.4.5 1.7.8H320.8c.1 0 .2-.1.3-.1.5-.7.7-1 .9-1 .4 0 1.6 1 1.6 1.3 0 .1-.1.2-.4.2h-4c.6.2.9.3.9.4 0 .1-.1.2-.4.3-.2.1-.3.2-.3.3-.2.4-.5 1-.8 1.4h1.9c.1 0 .2-.1.3-.1.3-.4.4-.5.5-.5s1.3.6 1.3 1c0 .2-.2.3-.4.4-.3.2-.3.3-.3 1.1s.1 2.2.1 3.3c0 .4-.3.6-.6.6s-.5-.1-.5-.5v-.1zm-4.7 1.5c.1 0 1.5.7 1.5 1 0 .1-.1.2-.4.2h-.2c-.1 0-.2 0-.3.2-1.2 1.6-3.7 3-4.1 3h-.1c0-.1.1-.1.3-.2 1.1-.7 3.2-3 3.2-4 .1-.1 0-.2.1-.2zm1.3-6c-.4.3-.3.2-.4.8v.9h3.8v-1.5c0-.1 0-.2-.2-.2h-3.2zm-.4 2.1v1.9h3.7v-1.9h-3.7zm5.3 7c-.4-.9-1.2-1.9-2.1-2.7l-.1-.1h.1s3.3 1.1 3.3 2.6c0 .4-.3.8-.6.8-.2 0-.4-.2-.6-.6zm11.2-3.9c-1.5.9-2.2 1.9-2.2 2.6 0 .6.6 1.6 2.3 1.6.7 0 1.5-.2 2.1-.5.2-.1.4-.1.5-.1.4 0 .6.2.6.5 0 .7-1.4 1.2-2.8 1.2-2.1 0-3.5-1.3-3.5-2.5s1.2-2.4 2.8-3.4c0-.9-.1-2.7-1.2-2.7-.5 0-1.1.4-1.8 1.4-.1.2-.3.5-.4.8-.3.5-.8 1.4-1.3 1.4-.1 0-.5-.1-.5-.6 0-.3.2-.8.7-1.3 1.6-1.5 2.2-2.5 3-4.3 0-.1.1-.1.1-.2h-.1c-.4.1-.7.1-1 .1-1.8 0-2.2-1.3-2.2-1.6 0 0 0-.1.1-.1s.2.1.4.2c.6.4 1.1.5 1.6.5.1 0 .8 0 1.6-.3.1-.2.1-.4.1-.6 0-.6-.2-1-.7-1.1-.1 0-.3-.1-.3-.2 0-.2.5-.4.8-.4.1 0 .9 0 1 .9H333.9c.3 0 .5 0 .5-.1.1 0 .2-.1.2-.1.2 0 .4.2.4.4 0 .7-1 1.3-2.2 1.7l-.1.1c-.6 1.4-1 2.1-1.5 2.8.4-.2.7-.3 1.1-.3.9 0 1.6.8 1.8 1.9.8-1.9 2.2-3.8 4-3.8 1 0 2.2.7 2.2 1.6 0 .7-.8 1.4-2 1.9s-2.8 1.1-4 1.7c0 .4.1.7.1 1.1v.8c-.1.6-.5 1.1-.8 1.1-.2 0-.4-.2-.4-.7v-.2c0-.4.2-.6.3-1.2h.1zm-.2-8.3v.1c0 .3 0 .5-.1.7.4-.2.7-.4.7-.6 0-.1-.4-.3-.4-.3-.1.1-.1.1-.2.1zm1.1 7.3c1.1-.6 2.5-1.3 3.6-1.8.8-.4 1.3-.8 1.3-1.3 0-.1-.1-1-1.1-1-1.8 0-3.4 2.6-3.8 4.1zm20.1-3.8c-.9 0-1.4-.8-1.4-1.7 0-2 2.2-2.9 2.6-2.9.1 0 .3.2.3.4 0 .1 0 .1-.1.1-1.2.3-1.6 1-1.6 1.4 0 .5.1.5.7.8.4.2.6.5.6.8 0 .6-.5 1.1-1.1 1.1zm3.3 0c-.8 0-1.4-.7-1.4-1.7 0-2.1 2.3-2.9 2.6-2.9.2 0 .3.2.3.4 0 .1 0 .1-.1.1-1.2.3-1.6 1-1.6 1.4 0 .5.1.5.7.8.4.2.6.5.6.8 0 .7-.6 1.1-1.1 1.1zm2.9 9.2s0-.1.1-.2c.6-1.3 1.1-3.5 1.1-4.9 0-.1 0-.2.1-.2s1.7.5 1.7.8c0 .1-.1.2-.4.3-.3.1-.3.1-.3.4-1.1 2.5-2.1 3.9-2.3 3.8 0 .1 0 .1 0 0zm2.1-7.2c2.4-3.6 2.6-4.9 2.7-5.3 0-.1 0-.2.1-.2h.1c.2.1 1.4.6 1.4.9 0 .1-.1.3-.5.3-.2 0-.3.1-.4.3-.9 1.3-2.2 3-3 3.9.9-.1 1.9-.1 2.6-.2-.2-.5-.4-1-.6-1.3-.1-.1-.1-.2-.1-.2.2 0 2 1 2 2.1 0 .5-.3.8-.6.8s-.5-.2-.6-.7v-.3c-.3.1-.6.2-1 .3.1.1.1.1.1.2s-.1.2-.2.2c-.2.1-.2.1-.2 1.7 0 1.5 0 3.7.1 5.2 0 .3-.2.6-.7.6-.2 0-.5-.1-.5-.5v-.1c.1-1.9.2-3.9.2-5.8v-1.2c-.7.2-1.2.3-1.5.4-.2 0-.3.2-.4.2-.2 0-.8-1.2-.8-1.3v-.1h.1c.4.1.8.1 1.2.1h.5zm1-2.6c0 .4-.2.6-.5.6-.2 0-.4-.1-.6-.5-.4-.7-.9-1.1-1.3-1.5-.1-.1-.2-.1-.2-.2 0 0 0-.1.1-.1.3 0 1 .2 1.3.3.2-.5.9-2.5.9-3.4V119.2c.1 0 1.6.6 1.6.9 0 .1-.1.3-.5.3-.2 0-.3.1-.4.3-.4.7-1 1.7-1.5 2.3 1.1.7 1.1 1.2 1.1 1.3zm1.9 6.4c-.1-.8-.4-1.6-.7-2.1-.1-.1-.1-.2-.1-.2.2 0 1.9 1.1 1.9 2.2 0 .4-.3.7-.6.7-.2 0-.4-.1-.5-.6zm5.8.3c0 1.2 0 2.4.1 2.9 0 .4-.3.6-.6.6-.2 0-.3-.1-.3-.4v-.1c.1-.7.1-2 .1-3h-1.3v3.8c0 .3-.3.6-.6.6-.2 0-.4-.1-.4-.5v-.1c.1-1.1.2-5.3.2-5.9v-.6c-.8 4.7-3 5.9-3.3 5.9h-.1c0-.1.1-.1.2-.2 2.4-2.1 2.4-6.9 2.4-9.1v-.4c0-.2 0-1.4-.1-1.9v-.1c.2 0 1.4.6 1.5.6h4.8c.1 0 .2-.1.3-.1.3-.4.4-.4.5-.4.1 0 1.3.5 1.3 1 0 .1-.1.3-.3.3-.3.1-.3.1-.3.8 0 .4 0 1.1.1 1.5 0 .1-.1.6-.7.6-.2 0-.5-.1-.5-.4V126.1h-5.5c0 .4-.1.9-.1 1.2.3.1.8.4 1 .5 0 0 .1 0 .1.1h5c.1 0 .1-.1.2-.1 0 0 .2-.4.4-.4s1.1.6 1.1.9c0 .1-.2.3-.3.4-.2.1-.2.2-.2 1.5v3.8c0 .9-.8 1.4-1.4 1.4-.1 0-.1-.1-.2-.2-.1-.2-.5-.6-.8-.8-.1.3-.3.4-.6.4-.2 0-.3-.1-.3-.4v-.1c.1-.7.1-2 .1-3h-1.5zm0-9.7c-.9 0-2.5.1-4 .2-.3 0-.9-.7-.9-.9 2 .3 4.1.3 5 .3h2.9c.1 0 .2-.1.3-.2.1-.1.6-.9.9-.9.3 0 1.4.9 1.4 1.3 0 .1-.1.2-.4.2h-5.2zm-2.3 2.1-.1.1c-.2.1-.2.3-.2.5v1.4h5.5V123.6c0-.1-.1-.2-.3-.2h-4.9zm1.5 6.3v-1.6h-1c-.2.1-.2.2-.3.5v1.9h1.3v-.8zm2.1.8V128.1h-.9v.1c0 .1-.1.2-.2.2-.1.1-.2.1-.2.3v1.8h1.3zm2.3 0v-2.2c0-.2-.1-.2-.2-.2h-1v.1c0 .1-.1.1-.2.2-.2.1-.2.1-.2.3v1.8h1.6zm-1.5.5c0 1.1 0 2.3.1 2.8.3.1.6.1.9.1.3 0 .6-.1.6-.5v-2.5h-1.6zm14.3-.5c1.5 1.5 4.4 3 7.6 3.3.1 0 .2 0 .2.1 0 .2-1.5.6-2 1-.1.1-.1.1-.2.1-.6 0-4.3-1.8-5.9-4.2v1.3c0 1.1 0 2.2.1 2.9 0 .5-.4.6-.7.6-.3 0-.5-.2-.5-.5v-.1c.1-.9.1-2.6.1-3.7-3.3 3.4-7.6 4.1-7.9 4.1h-.1c0-.1.1-.1.4-.2 2-.7 4.9-2.5 6.9-4.6h-.6c-1 0-3.4 0-5 .2-.3 0-.8-.7-.8-.9 1.8.2 4.9.3 5.9.3h1.3c0-.5-.1-1.2-.2-1.5v-.1s0-.1.1-.1c.3 0 1.9.2 1.9.5 0 .1-.1.2-.3.3-.3.2-.5.1-.5.6v.3h4.2c.1 0 .2-.1.3-.2.2-.3.7-1 1-1h.1c.8.3 1.5 1.2 1.5 1.4 0 .1-.1.2-.4.2H388zm-4.6-2.3v.2c0 .4-.4.7-.7.7-.3 0-.5-.2-.5-.5v-.1c.1-1 .2-3.5.2-4.3v-1c-1.5 1.9-3 3-3.3 3 0-.1.1-.2.3-.4 1.4-1.3 3.5-4.4 3.9-6.3 0-.1 0-.2.1-.2.3 0 1.9.7 1.9 1 0 .1-.2.3-.6.3-.3 0-.4.1-.5.3-.2.3-.5.7-.7 1.1.1 0 .2.1.3.1.1 0 .2.1.2.1h2.9c.4-1.2.4-1.6.4-2V119.4c.2 0 2.1.6 2.1.9 0 .1-.2.3-.6.3-.2 0-.3.1-.4.2-.3.4-.7 1-1 1.4h3.5c.1 0 .2-.1.3-.1.1-.1.6-.9.9-.9h.1c.7.3 1.4 1 1.4 1.3 0 .1-.1.2-.4.2h-4.9c.1.1.2.1.2.2s-.2.2-.4.3c-.1 0-.2.2-.2.3v.6h1.9c.1 0 .2-.1.3-.1 0 0 .6-.7.8-.7.2 0 1.4.6 1.4 1.1 0 .1-.1.2-.3.2h-4v1.3h1.9c.1 0 .2-.1.3-.1.1-.1.6-.7.8-.7.2 0 1.4.7 1.4 1.2 0 .1-.1.2-.3.2H388v1.5h3.3c.1 0 .2-.1.3-.1.2-.3.7-.9.9-.9h.1c.6.2 1.4.9 1.4 1.3 0 .1-.1.2-.4.2h-10.2zm0-3.7v1.3h3.6v-1.3h-3.6zm-.1 1.8v1.5h3.5v-1.5h-3.5zm.5-3.7c-.4.2-.4.2-.4 1.4h3.5c0-1.1-.1-1.3-.1-1.4h-3zm13.1 2c0-.1 0-.1.1-.1 1.2-.3 1.6-1 1.6-1.4 0-.5-.1-.5-.7-.8-.4-.2-.6-.5-.6-.8 0-.5.4-1 1.1-1 .8 0 1.4.8 1.4 1.7 0 2.1-2.3 2.9-2.6 2.9-.1-.1-.3-.4-.3-.5zm3.3 0c0-.1 0-.1.1-.1 1.2-.3 1.6-1 1.6-1.4 0-.5-.1-.5-.7-.8-.4-.2-.6-.5-.6-.8 0-.5.5-1 1.1-1 .9 0 1.4.8 1.4 1.7 0 2-2.2 2.9-2.6 2.9-.1-.1-.3-.4-.3-.5zm22.8 10.1c-1.6 0-3.9-.8-3.9-5.3 0-2 .4-4 .4-6 0-.9-.1-1.7-.5-2.1-.2-.2-.2-.3-.2-.4 0-.1.1-.1.2-.1 0 0 1.9 0 1.9 1.9 0 .2 0 .4-.1.6-.2 1.4-.9 4.1-.9 6.4 0 1 .1 3.8 3.3 3.8 1.6 0 3.6-.8 5.3-2.3.1-.1.3-.2.3-.2.1.3-2.6 3.7-5.8 3.7zm11.9.1c-.5-1-1.4-1.7-2.2-2.3-.2-.1-.4-.3-.4-.3h.1c.7 0 3.9.7 3.9 2.3 0 .5-.4.9-.8.9-.1-.1-.4-.2-.6-.6zM4.1 157.3v5.1c1-.4 1.9-.8 2.6-1.2.1-.1.2-.1.2-.1H7c0 .3-3.6 2.5-5.4 3.4-.1.1-.2.3-.3.3-.2 0-1.1-1.1-1.1-1.3 0-.1 0-.1.1-.1.9 0 1.4-.2 2.7-.7v-5.5c-.6 0-1.2.1-1.9.2-.3 0-.8-.6-.8-.9 1.3.2 2 .3 2.7.3v-2.4c0-.8 0-1.8-.2-2.7v-.1s0-.1.1-.1c0 0 2.1.3 2.1.8 0 .2-.2.3-.4.4-.3.1-.4.2-.4 4.1h.5c.1 0 .1-.1.2-.2s.5-.9.8-.9c.4 0 1.3 1 1.3 1.3 0 .1-.1.2-.3.2H4.1zm6.1 0-1.8.9c0 1.9-.1 4-.1 5.1v.6c0 1 .2 1.3 3.3 1.3.8 0 1.7-.1 2.4-.2 1.3-.2 1.4-1.5 1.7-3 0-.1.1-.2.1-.2.1 0 .1 2.3.4 2.5.2.2.4.4.4.6 0 1.2-3.3 1.2-5.1 1.2-2.4 0-4.2-.1-4.2-2v-.1c0-1.3.1-3.5.1-5.5-1 .6-1.5.8-1.6.8-.3 0-.9-.3-.9-.5.9-.4 1.8-.7 2.5-1v-2.3c0-.6 0-1.7-.1-2.4v-.1s0-.1.1-.1c.2 0 1.9.3 1.9.7 0 .1-.1.3-.4.4-.3.1-.4.1-.4.7 0 .3-.1 1.4-.1 2.7l1.6-.8.5-.3c0-2.5 0-4.3-.2-5.2v-.1c.2 0 2 .3 2 .7 0 .1-.1.2-.3.3-.4.2-.4.1-.5.8-.1.7-.1 1.8-.1 3l2-1c.1-.1.2-.2.2-.3.2-.4.3-.5.4-.5.2 0 1.5.4 1.5.8 0 .1-.1.3-.4.5-.2.2-.3.2-.3.5-.1 4-.1 5.9-2.2 6.2h-.1c-.1 0-.2 0-.2-.1-.1-.3-.6-.7-1-1 0 .6 0 1.2.1 1.7 0 .5-.5.7-.7.7s-.5-.2-.5-.6c.1-1.5.1-3.8.1-5.8l-.1.4zm1.3-.7v4.2c.4.1.8.2 1.1.2.7 0 1.3-.2 1.3-3.9v-1.4c0-.1-.1-.2-.2-.2h-.1l-2.1 1.1zm10.1.1v5.2c.8-.3 1.7-.6 2.4-.9.1 0 .2-.1.2-.1h.1c0 .3-3 1.9-4.9 2.8-.1.1-.2.2-.3.2-.2 0-1-1.1-1-1.2 0 0 0-.1.1-.1.6 0 1.7-.3 2.4-.5v-5.5c-.5 0-1 .1-1.6.2-.3 0-.8-.6-.8-.9 1.1.1 1.8.2 2.4.3v-2c0-.8 0-1.8-.2-2.7v-.1s0-.1.1-.1c0 0 2.1.3 2.1.8 0 .2-.2.3-.5.4-.3.1-.4.3-.4 3.7h.3c.1 0 .1-.1.2-.2.1-.2.5-.9.7-.9h.1c.6.3 1.2 1 1.2 1.3 0 .1-.1.2-.3.2h-2.3zm2.6 7.7c-.1.1-.2.2-.4.2s-1-1-1-1.3h.1c2.2 0 6.2-1.3 6.6-1.4h.2c.1 0 .1 0 .1.1 0 .2-4.3 1.9-5.6 2.4zm5.5-9.3c.1 2.1.3 4.4 1 6.3.5-1 1-2.1 1.3-3.5.1-.4.1-1 .1-1.3v-.1s1.7.5 1.7.9c0 .1-.1.2-.5.4-.3.1-.3.1-.4.4-.4 1.7-1.1 3.2-1.9 4.4 1 2.1 2 2.5 2.1 2.5.3 0 .6-.5 1.2-2.1.2-.6.2-.2.2-.1 0 .5-.2 2-.2 2.6v.3c.1.2.2.4.2.5 0 .3-.3.5-.6.5-.4 0-2.2-.6-3.5-3.3-2.6 3.1-6.2 3.5-6.5 3.5-.1 0-.2 0-.2-.1 0 0 .1-.1.4-.2 2.1-.6 4.3-1.8 5.9-4.2-.9-2.5-1.1-5.4-1.3-7.3h-.4c-.9 0-2.7 0-4.1.2-.3 0-.8-.7-.8-.9 1.7.2 4.1.3 5 .3h.3c-.2-2.6-.2-2.9-.4-3.5v-.1h.2c.2 0 1.8.2 1.8.6 0 .1-.1.3-.3.4-.3.2-.3.1-.3.8v1.9h1.9c.1 0 .2-.1.3-.2.3-.4.7-.9.8-.9.2 0 1.4.8 1.4 1.3 0 .1-.1.2-.4.2h-4zm-2.8 5.6h-1.5v.8c0 .2-.3.4-.6.4-.2 0-.4-.1-.4-.3.1-1 .1-2.5.1-3.2 0-.2-.1-1.2-.2-1.7v-.1c.2 0 1.1.5 1.4.6h.9c.1 0 .2-.1.2-.1 0-.1.3-.4.4-.4.3 0 1.1.6 1.1.8 0 .1-.2.3-.3.3-.3.2-.3.3-.3.7 0 .6.1 1.7.1 2.5 0 .3-.3.4-.6.4-.2 0-.4-.1-.4-.3l.1-.4zm0-.5v-2.4c0-.1-.1-.2-.2-.2h-1.1c-.2.1-.2.1-.2.5v2.2h1.5zm4.6-7.1c-.2-.4-.6-.8-1-1.1l-.1-.1s.3-.1.5-.1c1.4 0 1.7.6 1.7 1 0 .3-.3.6-.6.6-.2.1-.4 0-.5-.3zm13.1-.6c-3.4 5.2-8 7.3-8.5 7.3H36c0-.1.1-.1.3-.3 2.4-1.5 5.1-4.2 7-7.5.2-.4.3-.9.4-1.2v-.1c.1 0 2 .8 2 1.1 0 .1-.2.3-.6.3h-.2c1.4 1.9 4.9 5 8.2 5.5.1 0 .2 0 .2.1s-1.5.5-2 1c-.1.1-.1.1-.2.1-.5 0-4.1-2.3-6.5-6.4v.1zm-1.8 13.4c-1 0-3.5 0-5.1.2-.3 0-.8-.7-.8-.9 1.9.2 5 .3 6.1.3h1v-3.4h-.4c-.9 0-2.2 0-3.7.2-.3 0-.8-.7-.8-.9 1.7.2 3.7.3 4.6.3h.3v-.8c0-.8 0-1.5-.1-2.1-1 0-2.2.1-3.2.2-.3 0-.9-.7-.9-.9 1.8.2 4.3.3 5.4.3h1.5c.1 0 .2-.1.3-.1.1-.2.7-1 .9-1h.1c.6.2 1.5 1.1 1.5 1.4 0 .1-.1.2-.3.2h-3.5.1c.2.1.2.1.2.2s-.1.2-.3.3c-.4.2-.4.2-.4 2.4h2.3c.1 0 .2-.1.3-.2.2-.3.6-.9.8-1 .1-.1.1-.1.2-.1.4 0 1.6 1.2 1.6 1.5 0 .1-.1.2-.4.2H45v3.4h4.2c.1 0 .3-.1.3-.2.2-.3.8-1.2 1.1-1.2.3 0 1.7 1.2 1.7 1.6 0 .1-.1.2-.4.2h-9.1zm22.2-3.1c0 1.5.1 2.7.1 3.4 0 .5-.4.7-.7.7-.3 0-.5-.2-.5-.6 0-.8.1-2 .1-3.4-.6 0-1.4 0-2.3.2-.2 0-.7-.7-.7-.9 1.1.2 2.3.2 3.1.3 0-1.7.1-3.6.1-5.3-1.2 2.8-3.3 5.3-5.6 6.6v2.3c0 .4-.4.8-.8.8-.3 0-.5-.2-.5-.6v-.1c.2-2.5.3-6.1.3-8.4v-1.3c-1.9 2.4-3.5 3.3-3.6 3.3 0-.1.1-.1.2-.3 1.4-1.4 3.4-4 4.6-6.5.2-.4.3-1 .4-1.3 0-.1 0-.1.1-.1 0 0 1.7.8 1.7 1.2 0 .1-.2.3-.6.3-.3.1-.3.1-.5.4-.4.6-.8 1.2-1.2 1.7.2 0 .4.1.4.1.3.1.3.2.3.3 0 .1-.1.2-.4.3-.4.2-.4.2-.4.8 0 1.5-.1 3.5-.1 5.6v1.3c1.7-1.5 3.7-4.3 5-7.4-.9 0-2 .1-3.1.2-.3 0-.8-.7-.8-.9 1.6.2 3.4.3 4.6.3 0-1.4 0-3.5-.2-4.3v-.1c.2 0 2 .3 2 .7 0 .1-.1.2-.3.3-.4.2-.4.1-.5.8 0 .5-.1 1.5-.1 2.6h2.5c.1 0 .2-.1.3-.2.1-.2.7-1.1 1-1.1h.1c.6.2 1.6 1.2 1.6 1.5 0 .1-.1.2-.4.2h-4.9c1.1 2.4 3.3 5.3 6.1 6.4.1 0 .1.1.1.1 0 .2-1.5.2-2 .6-.1.1-.1.1-.2.1-.3 0-3-3.2-4.2-7v6h.3c.1 0 .2-.1.2-.1.5-.7.6-.9.8-.9.5 0 1.3 1 1.3 1.3 0 .1-.1.2-.4.2H65zm15.4-1.6c-1.5.9-2.2 1.9-2.2 2.6 0 .6.6 1.6 2.3 1.6.7 0 1.5-.2 2.1-.5.2-.1.4-.1.5-.1.4 0 .6.2.6.5 0 .7-1.4 1.2-2.8 1.2-2.1 0-3.5-1.3-3.5-2.5s1.2-2.4 2.8-3.4c0-.9-.1-2.7-1.2-2.7-.5 0-1.1.4-1.8 1.4-.1.2-.3.5-.4.8-.3.5-.8 1.4-1.3 1.4-.1 0-.5-.1-.5-.6 0-.3.2-.8.7-1.3 1.6-1.5 2.2-2.5 3-4.3 0-.1.1-.1.1-.2h-.1c-.4.1-.7.1-1 .1-1.8 0-2.2-1.3-2.2-1.6 0 0 0-.1.1-.1s.2.1.4.2c.6.4 1.1.5 1.6.5.1 0 .8 0 1.6-.3.1-.2.1-.4.1-.6 0-.6-.2-1-.7-1.1-.1 0-.3-.1-.3-.2 0-.2.5-.4.8-.4.1 0 .9 0 1 .9H80.7c.3 0 .5 0 .5-.1.1 0 .2-.1.2-.1.2 0 .4.2.4.4 0 .7-1 1.3-2.2 1.7l-.1.1c-.6 1.4-1 2.1-1.5 2.8.4-.2.7-.3 1.1-.3.9 0 1.6.8 1.8 1.9.8-1.9 2.2-3.8 4-3.8 1 0 2.2.7 2.2 1.6 0 .7-.8 1.4-2 1.9s-2.8 1.1-4 1.7c0 .4.1.7.1 1.1v.8c-.1.6-.5 1.1-.8 1.1-.2 0-.4-.2-.4-.7v-.2c0-.4.2-.6.3-1.2h.1zm-.2-8.3v.1c0 .3 0 .5-.1.7.4-.2.7-.4.7-.6 0-.1-.4-.3-.4-.3-.1.1-.2.1-.2.1zm1 7.3c1.1-.6 2.5-1.3 3.6-1.8.8-.4 1.3-.8 1.3-1.3 0-.1-.1-1-1.1-1-1.8 0-3.4 2.6-3.8 4.1zm20.2-3.8c-.9 0-1.4-.8-1.4-1.7 0-2 2.2-2.9 2.6-2.9.1 0 .3.2.3.4 0 .1 0 .1-.1.1-1.2.3-1.6 1-1.6 1.4 0 .5.1.5.7.8.4.2.6.5.6.8 0 .6-.5 1.1-1.1 1.1zm3.2 0c-.8 0-1.4-.7-1.4-1.7 0-2.1 2.3-2.9 2.6-2.9.2 0 .3.2.3.4 0 .1 0 .1-.1.1-1.2.3-1.6 1-1.6 1.4 0 .5.1.5.7.8.4.2.6.5.6.8 0 .7-.5 1.1-1.1 1.1zm10.4 2.9c-1 0-4.5 0-6.2.2-.3 0-.9-.8-.9-1.1 1.9.2 6.1.3 7.2.3h5.4c.1 0 .2-.1.3-.2.9-1.3 1.1-1.3 1.2-1.3h.1c.6.2 1.8 1.4 1.8 1.7 0 .1-.1.3-.4.3H115zm16.1 5.4c-.6 0-.9 0-.9-.1s.4-.2.8-.2c6.3-1 8.6-3.7 8.6-5.7 0-1.3-1.1-2.8-3.3-2.8-1.7 0-3.7.9-5.5 2.6-.8.7-1.5 1.1-2.2 1.1-1.1 0-1.5-.9-1.5-.9 0-.1.1-.1.4-.2 1-.1 2.3-.8 3.5-1.6 1.6-1 3.4-1.8 5.2-1.8 2.6 0 4.6 1.9 4.6 3.8 0 2.6-3.1 5.8-9.7 5.8zm21.4-8.4c0 3.9-3.1 8-4.7 8-.9 0-1.2-1.2-1.9-2.3-.3-.4-.4-1-.4-1.6 0-2.7 2.4-7.1 7.3-7.1 4.1 0 6.2 2.8 6.2 5.8 0 5.5-6.3 7-7.7 7-.2 0-.3 0-.3-.1s.3-.2.8-.4c4.7-1.3 6-4.4 6-6.6 0-2.7-1.8-5.1-5.3-5.1h-.6c.4.3.6 1.3.6 2.4zm-.6-.6c0-1.3-.3-1.6-.7-1.6H150.9c-2.8.8-4.5 3.5-4.5 5.9 0 1.6.8 2.8 1.7 2.8 1.1-.1 3.8-3.8 3.8-7.1zm11.7 7.2c0-.3.2-.5.6-.8 1.5-.7 2.3-1.4 2.7-2.5.1-.2.1-.3.2-.3 0 0 .1 0 .1.5 0 1.9-2.1 3.5-2.9 3.5-.4.1-.7-.1-.7-.4zm7-5.4v3.7c0 .9.2 1.4.2 2 0 1.1-.4 1.8-.8 1.8-.3 0-.5-.3-.6-.8-.1-.7-.7-1.7-1.4-2.6-.1-.1-.1-.1-.1-.2 0 0 0-.1.1-.1s.1 0 .2.1c.4.2 1 .8 1.4 1 .1 0 .1.1.2.1s.1-.1.1-.2v-4.7l-1.5.3c-.8.2-1.1.3-1.5.3-.8 0-2.3-.5-2.3-1.2 0-.3.1-.3.2-.3s.2.1.4.1c.7.3 1.3.4 2.1.4.3 0 .4 0 2.7-.3v-1.3c0-1-.3-1.5-1.1-1.5h-.2c-.1 0-.3-.1-.3-.2s.1-.5.7-.5c.5 0 2 .5 2 1.2 0 .3-.2.6-.2 1.1 0 .3-.1.7-.1 1.1.5-.1 1-.1 1.4-.2.9-.1.9-.5 1.6-.5 1 0 2.1.5 2.1.9 0 .2-.2.4-.7.4h-.3c-.6-.1-1.3-.2-2-.2-.6 0-1.1 0-1.7.1l-.6.2zm4.5 4.9c-.6-1-1.7-2.2-2.8-2.8-.2-.1-.3-.2-.3-.3h.1c.7 0 4.4 1.4 4.4 2.8 0 .4-.3.8-.7.8-.3 0-.5-.2-.7-.5zm14.1-5.1c.3.1.6.3.6.9v.5c-1.1 6-7.1 7.8-7.6 7.8h-.1s.2-.2.5-.3c3.1-1.5 6-5.1 6-7.6 0-.5-.1-.8-.4-.8h-.2c-.1 0-.2-.1-.2-.2v-.1c-.9.1-1.7.4-2.2.6-.4.2-.7.3-1 .3-.8 0-2.3-.5-2.3-1.3 0-.2.1-.2.2-.2s.2.1.4.1c.4.2 1.2.3 1.8.3h.5c1.7-.3 3.8-.7 6-.9.6-.1.9-.4 1.4-.4.4 0 2.1.5 2.1 1.1 0 .3-.3.5-.6.5h-.3c-.8-.2-1.6-.3-2.5-.3-.2 0-.5 0-2 .1l-.1-.1zm1.3-4.3c.6 0 1.4.3 1.4.7 0 .2-.3.4-.8.4-1.4 0-3.2.4-4.3.6h-.6c-1.5 0-1.7-1-1.7-1.1 0-.1.1-.2.2-.2s.1 0 .2.1c.3.2.8.3 1.4.3 1 0 2.3-.3 3.1-.5.3-.1.5-.3 1.1-.3zm8 12c0-.1.1-.2.3-.3 2.3-1.2 5.2-5.3 5.2-7.1 0-1-.8-1.1-1.1-1.1-.2 0-.3-.1-.3-.2s.2-.5.8-.5c.7 0 1.9.8 1.9 1.7 0 .3-.1.6-.2.8-1.5 4.5-5.7 6.7-6.6 6.7.1 0 0 0 0 0zm9.2-1.5c-.6 0-1.2-1.2-1.2-1.4 0-.2.1-.4.2-.9.2-1.5.3-2.7.3-3.5 0-1.5-.3-2.1-.8-2.2-.3-.1-.4-.2-.4-.3 0-.1.4-.3.8-.3.8 0 1.6 1 1.6 1.8 0 .1 0 .3-.1.5-.3.8-.5 4.2-.5 4.5 0 .2.2.2.2.2.3 0 4.1-2.3 6.5-5.7.2-.3.3-.5.4-.5v.1c0 .5-2.3 4.6-6 7.1-.2.1-.6.6-1 .6zm8.3-7.4c0-.1 0-.1.1-.1 1.2-.3 1.6-1 1.6-1.4 0-.5-.1-.5-.7-.8-.4-.2-.6-.5-.6-.8 0-.5.4-1 1.1-1 .8 0 1.4.8 1.4 1.7 0 2.1-2.3 2.9-2.6 2.9-.1-.1-.3-.4-.3-.5zm3.3 0c0-.1 0-.1.1-.1 1.2-.3 1.6-1 1.6-1.4 0-.5-.1-.5-.7-.8-.4-.2-.6-.5-.6-.8 0-.5.5-1 1.1-1 .9 0 1.4.8 1.4 1.7 0 2-2.2 2.9-2.6 2.9-.1-.1-.3-.4-.3-.5zm16.4 5.9c0-2 .7-3.7 1-5.2.1-.5.1-.9.1-1.2 0-1-.2-1.6-.4-1.9-.1-.1-.2-.3-.2-.3 0-.1.1-.1.4-.1.6 0 1.4.9 1.4 2.1 0 .6-.2 1.1-.5 1.9-.5 1.2-1 2.6-1 3.8 0 .7.2 1.2.3 1.2.1 0 .1-.1.2-.3.5-1.1 1.5-3.3 1.8-3.3 0 0 .1 0 .1.1s0 .2-.1.3c-.5 1.3-1.3 3.5-1.3 4.8 0 .4.1.7.1 1v.3c0 .4-.2.6-.5.6-1 0-1.4-2.8-1.4-3.8zm9.2 3c-3.4 0-4-1.9-4-2.3 0-.1 0-.2.1-.2s.2.1.4.3c.4.5 1.6.9 3 .9.3 0 .7 0 1-.1.4-.1.7-.3 1.3-.3h.1c.6 0 .9.3.9.6-.1.9-1.8 1.1-2.8 1.1zm-1.1-8.2c-2.5 0-2.7-1.5-2.7-1.6 0-.1 0-.1.1-.1s.2.1.3.1c.5.3 1.2.4 1.8.4.5 0 1-.1 1.5-.2.3-.1.5-.2.7-.2h.4c.5 0 .8.3.8.5-.1 1-2.3 1.1-2.9 1.1zm7.7 10.2h-.5c-.1 0-.2 0-.2-.1 0 0 .2-.1.5-.2 5.3-1.2 5.9-4.6 6.1-6.2v-.1c.2 0 1.6.4 1.6.7 0 .1-.1.2-.3.3-.2.1-.3.1-.4.5-.9 3.7-3.8 4.8-6.8 5.1zm11.1-6.8h-1.4.1c.1.1.2.1.2.2s-.1.2-.3.3c-.1.1-.1.1-.2.8 0 .5-.1 1.3-.1 2.4 0 1.2.1 1.5 2.3 1.5.6 0 1.3 0 1.8-.1.9-.1 1.1-1.6 1.4-3v-.1c.1 0 .2 2.3.5 2.5.2.1.3.3.3.5 0 .5-.7 1.1-2.1 1.2-.6.1-1.4.1-2.1.1-1.4 0-3.3-.1-3.3-1.9v-.1c0-2.1.1-2.6.1-2.8v-1.5H256v.6c0 .5-.7.6-.7.6-.3 0-.5-.1-.5-.5v-.1c.1-1.5.2-3.7.2-5.6v-1.8c0-.2-.1-1.6-.2-2.2v-.1c.1 0 1.2.4 1.7.8h5.6c.1 0 .2 0 .2-.1l.4-.4c.1 0 .1-.1.2-.1s1.4.6 1.4 1c0 .2-.2.3-.4.4-.3.1-.3.3-.3.7v.7c0 1.9.1 5.5.1 6.6 0 .4-.4.7-.7.7-.3 0-.5-.2-.5-.5v-.7zm-6-7.9-.1.1c-.3.2-.3.4-.3 2h6.5v-2c0-.1-.1-.2-.2-.2h-5.9zm6.1 2.6h-6.5v2.1h6.5v-2.1zm-6.6 2.6v2.3h6.5v-2.3h-6.5zm19.7 7.8c-1 0-3.8 0-5.4.2-.3 0-.8-.7-.8-.9 1.9.2 5.3.3 6.3.3h1.9c.9-2.3 2.4-7.1 2.4-8.7v-.2c.1 0 2.1.5 2.1 1 0 .2-.2.3-.6.3-.3 0-.3.1-.4.3-.7 1.9-2.4 5.7-3.3 7.3h4.2c.1 0 .3-.1.3-.2.2-.3.8-1.2 1.1-1.2.3 0 1.7 1.2 1.7 1.6 0 .1-.1.2-.4.2h-9.1zm.8-10c-1 0-3.4 0-5 .2-.3 0-.8-.7-.8-.9 1.9.2 4.9.3 5.9.3h.4v-1.1c0-.9 0-1.9-.2-2.5v-.1s2.2.2 2.2.7c0 .1-.1.2-.3.3-.4.3-.5.1-.5.9 0 .3-.1 1.3-.1 1.8h3.1c.1 0 .3-.1.3-.2.2-.3.8-1.2 1-1.2h.1c.5.2 1.6 1.2 1.6 1.5 0 .1-.1.2-.4.2h-7.3zm-1.3 6.7c-.3-1.7-1.1-3.7-2.1-5.1 0-.1-.1-.1-.1-.1s0-.1.1-.1c.5 0 3.6 3.5 3.6 5.3 0 .6-.4 1.1-.8 1.1-.2.1-.6-.3-.7-1.1zm22.7 4c-.8 0-3.8-.3-3.8-4.6 0-2.2.8-4.8 1.7-5.8.1-.1.2-.2.2-.3-.2 0-2.2.9-4 1.8-.4.2-.8.3-1.2.3-.8 0-1.5-.3-1.5-1 0-.1 0-.2.1-.2s.3.1.4.1c.3 0 .6.1.9.1.3 0 .7-.1 1-.2.8-.3 4-2 6.7-2.7.4-.1.7-.3 1.5-.4h.1c1.7 0 1.9.6 1.9.9s-.3.6-.9.6h-.4c-.3-.1-.6-.1-1-.1-1 0-2.1.2-2.6.5-1.3.7-2.2 3.5-2.2 5.8 0 3.7 2.3 3.8 2.9 3.8.3 0 .7-.1 1.1-.2.2-.1.3-.1.5-.1.5 0 .8.3.8.6 0 .9-1.5 1.1-2.2 1.1zm12.2-9.8c-2.1 0-2.4-1.4-2.4-1.6 0-.1 0-.1.1-.1s.2.1.4.2c.4.2 1.1.6 2 .6.1 0 .6 0 1.4-.2.1-.4.1-.8.1-1.1 0-.6-.1-1.2-.5-1.2-.2 0-.4-.1-.4-.2s.4-.5.8-.5c.3 0 1.1.3 1.2 1.4.7.2.9.2 1.2.3.3 0 .5.2.5.5 0 .8-1.5 1.4-2.2 1.6 0 .1-.1.2-.1.3-1 2.7-1.9 5.5-2.5 8.2-.2.9-.7 1.5-1.1 1.5-.3 0-.5-.3-.5-.8 0-.3.1-.7.4-1.1.6-1.1 2.8-7 3-7.8-.4-.1-.9 0-1.4 0zm2.4-1.5c.5-.3.8-.5.8-.6s-.2-.3-.6-.5c0 .3-.1.7-.2 1.1zm5.7 11c-2.2 0-4.2-1.1-4.2-2.4 0-.5.4-1.1.6-1.1.1 0 .1.1.1.1 0 .1 0 .2-.1.3-.1.1-.1.2-.1.3 0 .8 1.3 1.5 3 1.5.3 0 .6-.1 1.2-.1.8 0 1.3.3 1.3.6-.1.2-.1.8-1.8.8zm1.8-8.7c-1 .2-1.5.4-2.6 1.3-.1.1-.2.1-.2.1-.1 0-.1 0-.1-.1s0-.1.1-.2c.4-.5.6-.6.9-1.1.1-.1.3-.3.3-.6 0-.5-1.1-.7-1.5-.7h-.2c-.2 0-.3.1-.4.1-.1 0-.1 0-.1-.1s.6-.6 1.5-.6c1.7 0 2.9.8 2.9 1.3-.1.4-.3.6-.6.6zm8.1 8.5v.6c0 .4-.4.7-.8.7-.3 0-.5-.2-.5-.6.1-2.8.2-6.3.2-9.1-1 0-2 .1-2.8.2-.3 0-.8-.7-.8-.9 1 .1 2.5.2 3.7.3 0-3.2-.1-4.1-.2-4.4v-.1c.1 0 2.1.2 2.1.7 0 .1-.1.2-.3.4-.4.3-.4.1-.5.9 0 .8-.1 1.7-.1 2.6h2.9c0-2.5 0-4.3-.2-5v-.1c.2 0 2.1.3 2.1.6 0 .1-.1.2-.3.3-.4.2-.4.1-.5.8-.1 1.1-.1 2.2-.1 3.3h2.9c0-1.9 0-4-.2-4.9v-.1c.2 0 2.1.3 2.1.6 0 .1-.1.2-.3.3-.4.2-.4.1-.5.8-.1 1.1-.1 2.1-.1 3.2h1.2c.1 0 .3-.1.3-.2.1-.1.7-1.1 1-1.1h.1c.6.2 1.6 1.3 1.6 1.5 0 .1-.1.2-.4.2H336c0 1.6 0 3.2.1 5.2 0 .1-.1.7-.7.7-.3 0-.5-.2-.5-.6v-.7h-2.8v.7c0 .4-.4.7-.7.7-.3 0-.5-.2-.5-.6.1-1.5.1-3.5.1-5.4h-3v1.9c0 1.9 0 4 .1 6.1h7.8c.1 0 .3-.1.3-.2.2-.3.8-1.2 1-1.2h.1c.5.2 1.6 1.2 1.6 1.5 0 .1-.1.2-.4.2h-10.3zm6.8-4.3c0-1.3.1-2.7.1-4.1h-2.9v4.1h2.8zm18.9-3.7h-3.6c.4.1.4.2.4.3 0 .1 0 .1-.1.2 1.5 1.5 4.4 3.1 7.8 3.4.1 0 .2 0 .2.1 0 .2-1.5.6-1.9 1.1-.1.1-.1.1-.2.1-.2 0-1.7-.4-3.8-1.9-.3.1-.4.1-.4.6v1.5c0 1 0 2.2.1 3.5 0 .4-.3.6-.7.6-.3 0-.5-.2-.5-.6 0-1.2.1-2.3.1-3.3 0-.6 0-2.2-.2-3v-.1c.2 0 1 .1 1 .1a9.7 9.7 0 0 1-1.7-1.9c-.1 0-.2.1-.3.1l-.3.3c-.4.5-.9 1-1.4 1.4.9.1.9.3.9.4s-.1.2-.3.3c-.3.2-.3.1-.3.8 0 5.4-6.7 5.7-6.9 5.7-.2 0-.3 0-.3-.1 0 0 .2-.1.5-.2 4.1-.9 5.5-3.3 5.5-5.3v-.3c0-.1 0-.4-.1-.7-3 2.2-5.5 2.7-5.7 2.7h-.1c0-.1.1-.1.3-.2 3.4-1.3 6.7-4.6 6.9-5.6h-3.1v.4c0 .3-.4.6-.7.6-.3 0-.5-.1-.5-.5v-.1c.1-1.6.1-3.2.1-4.5 0-.2-.1-1.6-.2-2.2v-.1c.2 0 1.4.6 1.7.8h7.3c.1 0 .2 0 .2-.1l.4-.4c.1 0 .1-.1.2-.1s1.4.6 1.4 1c0 .2-.2.3-.4.4-.3.1-.3.3-.3.7v.7c0 1.3.1 2.6.1 3.6 0 .4-.4.7-.7.7-.2 0-.4-.2-.4-.5v-.4zm-7.6-5.3-.1.1c-.3.2-.3.4-.3 1.9h3.5c0-1.2 0-1.7-.1-2h-3zm-.5 2.6v2.2h3.4v-2.3h-3.4zm4.4 0v2.2h3.7v-2.2h-3.7zm.4-2.6c.1 0 .1.1.1.1 0 .1-.1.2-.3.3-.1.1-.1.2-.1.3v1.3h3.7v-1.9c0-.1-.1-.2-.2-.2h-3.2zm12 12.6v.6c0 .5-.4.7-.7.7-.2 0-.4-.2-.4-.6v-.1c.1-1.4.3-4.4.3-5.1v-1.2c-1.2 1.3-2.3 1.9-2.5 1.9l.3-.3c1.1-.9 2.5-2.8 3.5-5-.6 0-1.5.1-2.4.2-.2 0-.7-.6-.7-.8 1.2.2 2.6.2 3.3.2.5-1.1.6-1.7.7-2h-1.7c-1.2 1.5-1.7 1.7-1.7 1.7 0-.1.1-.2.2-.3.6-.7 1.8-3.4 1.8-4.1 0-.1 0-.1.1-.1 0 0 1.5.6 1.5 1 0 .1-.2.3-.5.3-.1 0-.3 0-.4.2-.2.3-.4.6-.7 1h3.2s.1-.1.2-.1c0 0 .5-.8.7-.8h.1c.6.3 1.2 1 1.2 1.2 0 .1-.1.2-.3.2h-2.5c.1 0 .2.1.2.2s-.1.1-.2.2c-.2.1-.2 0-.4.4s-.4.9-.5 1.3h2s.1-.1.2-.1c.1-.2.5-.9.7-.9h.1c.4.2 1.3.9 1.3 1.3 0 .1-.1.2-.3.2h-4.2c-.5.9-1 1.7-1.5 2.4.1 0 .2.1.2.1.1 0 .1 0 .1.1h1.5c.3-1 .4-1.5.4-2 0-.2.1-.2.1-.2.2 0 1.4.6 1.4.8 0 .1-.1.2-.4.3-.2.1-.2.1-1.2 1.2h1.4s.1 0 .2-.1c.2-.3.4-.6.6-.8.1 0 .1-.1.1-.1h.1c.5.2 1.2.8 1.2 1.2 0 .1-.1.2-.3.2h-2.5c.1 0 .1.1.1.1 0 .1-.1.2-.3.3-.1 0-.1.1-.1.3v.8h.6s.1-.1.2-.1c.2-.3.4-.5.5-.6.1 0 .1-.1.1-.1h.1c.4.2 1.1.7 1.1 1 0 .1-.1.2-.3.2h-2.3v1.5h.6s.1-.1.2-.1c.2-.3.4-.5.5-.6.1 0 .1-.1.1-.1h.1c.5.3 1.1.8 1.1 1 0 .1-.1.2-.3.2h-2.3v1.8h1s.1-.1.2-.1c.2-.3.5-.6.6-.8.1 0 .1-.1.1-.1h.1c.7.3 1.2 1 1.2 1.2 0 .1-.1.2-.3.2h-5.5zm.4-6.1-.1.1c-.1.1-.2.1-.2 1.5h1.8c0-.5 0-1.1-.1-1.6H363zm-.4 2v1.5h1.7v-1.5h-1.7zm1.8 3.7v-1.8h-1.7v1.8h1.7zm.4 2.3H364.2s.2-.1.5-.2c1.3-.3 5.2-1.3 5.7-5.3 0-.1 0-.1.1-.1s1.4.4 1.4.6c0 .1-.1.2-.3.2-.2 0-.2.1-.4.6-1.2 2.9-3.5 3.9-6.4 4.2zm8.8-6.1h-.2v.1c0 .1-.1.2-.2.2-.2.1-.3.1-.3 2.7v1.1c0 .8.1.8.8.8 1.3 0 1.4-.1 1.8-2.6v-.1c.1 0 .2 2 .5 2.2.2.1.2.3.2.4 0 .4-.4.7-1.3.9-.2 0-1 .1-1.5.1-.4 0-1.6 0-1.6-1.3v-3.5c0-.1 0-.6-.1-1h-1.9v.4c0 .3-.4.6-.7.6-.2 0-.4-.1-.4-.5v-.1c.1-1.8.1-4.8.1-6.5 0-1 0-2.2-.2-3.2v-.1c.1 0 1.2.4 1.6.7h2.8c.1 0 .1 0 .2-.1.1-.2.3-.5.5-.5.3 0 1.4.6 1.4 1 0 .2-.2.3-.4.4-.3.2-.4.2-.4 1.6 0 1.7.1 4.9.1 6.4 0 .4-.3.6-.6.6s-.5-.2-.5-.5v-.2zm-3.1-8.1c-.1 0-.1.1-.2.1-.2.1-.2.1-.2.5v1.6h3.5v-2c0-.1-.1-.2-.2-.2h-2.9zm3.1 2.7h-3.5v2.1h3.5v-2.1zm-3.5 2.5v2.4h3.5v-2.4h-3.5zm15.7 3.5c-1.5.9-2.2 1.9-2.2 2.6 0 .6.6 1.6 2.3 1.6.7 0 1.5-.2 2.1-.5.2-.1.4-.1.5-.1.4 0 .6.2.6.5 0 .7-1.4 1.2-2.8 1.2-2.1 0-3.5-1.3-3.5-2.5s1.2-2.4 2.8-3.4c0-.9-.1-2.7-1.2-2.7-.5 0-1.1.4-1.8 1.4-.1.2-.3.5-.4.8-.3.5-.8 1.4-1.3 1.4-.1 0-.5-.1-.5-.6 0-.3.2-.8.7-1.3 1.6-1.5 2.2-2.5 3-4.3 0-.1.1-.1.1-.2h-.1c-.4.1-.7.1-1 .1-1.8 0-2.2-1.3-2.2-1.6 0 0 0-.1.1-.1s.2.1.4.2c.6.4 1.1.5 1.6.5.1 0 .8 0 1.6-.3.1-.2.1-.4.1-.6 0-.6-.2-1-.7-1.1-.1 0-.3-.1-.3-.2 0-.2.5-.4.8-.4.1 0 .9 0 1 .9H386.1c.3 0 .5 0 .5-.1.1 0 .2-.1.2-.1.2 0 .4.2.4.4 0 .7-1 1.3-2.2 1.7l-.1.1c-.6 1.4-1 2.1-1.5 2.8.4-.2.7-.3 1.1-.3.9 0 1.6.8 1.8 1.9.8-1.9 2.2-3.8 4-3.8 1 0 2.2.7 2.2 1.6 0 .7-.8 1.4-2 1.9s-2.8 1.1-4 1.7c0 .4.1.7.1 1.1v.8c-.1.6-.5 1.1-.8 1.1-.2 0-.4-.2-.4-.7v-.2c0-.4.2-.6.3-1.2h.1zm-.2-8.3v.1c0 .3 0 .5-.1.7.4-.2.7-.4.7-.6 0-.1-.4-.3-.4-.3-.1.1-.2.1-.2.1zm1 7.3c1.1-.6 2.5-1.3 3.6-1.8.8-.4 1.3-.8 1.3-1.3 0-.1-.1-1-1.1-1-1.7 0-3.3 2.6-3.8 4.1zm14.9 4.5c-.6 0-.9 0-.9-.1s.4-.2.8-.2c6.3-1 8.6-3.7 8.6-5.7 0-1.3-1.1-2.8-3.3-2.8-1.7 0-3.7.9-5.5 2.6-.8.7-1.5 1.1-2.2 1.1-1.1 0-1.5-.9-1.5-.9 0-.1.1-.1.4-.2 1-.1 2.3-.8 3.5-1.6 1.6-1 3.4-1.8 5.2-1.8 2.6 0 4.6 1.9 4.6 3.8-.1 2.6-3.2 5.8-9.7 5.8zm21.6 1c-.2-2.4-2.1-5.1-2.9-6.1-.4-.4-.5-.8-.5-1.2 0-.4.1-.8.4-1.3.5-.9 1.9-2.7 2.5-3.5.2-.3.5-.8.5-1.2 0-.2-.1-.3-.2-.5-.1-.1-.2-.3-.2-.3 0-.1.1-.2.2-.2.4 0 1.4.7 1.4 1.4 0 .4-.3.8-.5 1.1-.8 1-2.6 2.3-3.2 3.5-.1.2-.2.5-.2.8 0 .3.1.6.4.8.5.6 3.6 3.9 3.6 6.3 0 .6-.4 1.1-.8 1.1-.2.1-.4-.1-.5-.7zm15.7-9.8s.1-.1.1-.3c.5-1.5 1.4-2.3 2.3-2.3 1.9 0 2.8 2.8 2.8 5.1 0 5.8-5.1 8.7-5.8 8.7 0-.1.2-.2.6-.5 2.4-1.5 4-4.8 4-8 0-2.2-.8-4.4-2-4.4-1 0-2 1.5-2 3.4 0 1 .3 1.6.5 2.2.1.2.1.3.1.5 0 .5-.3.9-.6.9-.5 0-1.2-1.5-1.2-2.8 0-.8.2-1.6.4-2.5.1-.6.5-2.1.5-3.1 0-.5-.1-.9-.3-1-.1-.1-.3-.1-.3-.3 0-.2.3-.3.5-.3.3 0 1 .3 1 1.4 0 .5 0 .6-.6 3v.3zm16.1.3c-2.1 0-2.4-1.4-2.4-1.6 0-.1 0-.1.1-.1s.2.1.4.2c.4.2 1.1.6 2 .6.1 0 .6 0 1.4-.2.1-.4.1-.8.1-1.1 0-.6-.1-1.2-.5-1.2-.2 0-.5-.1-.5-.2s.4-.5.8-.5c.3 0 1.1.3 1.2 1.4.7.2.9.2 1.2.3.3 0 .5.2.5.5 0 .8-1.5 1.4-2.2 1.6 0 .1-.1.2-.1.3-1 2.7-1.9 5.5-2.5 8.2-.2.9-.7 1.5-1.1 1.5-.3 0-.5-.3-.5-.8 0-.3.1-.7.4-1.1.6-1.1 2.8-7 3-7.8-.4-.1-.8 0-1.3 0zm2.3-1.5c.5-.3.8-.5.8-.6s-.2-.3-.6-.5c0 .3-.1.7-.2 1.1zm5.7 11c-2.2 0-4.2-1.1-4.2-2.4 0-.5.4-1.1.6-1.1.1 0 .1.1.1.1 0 .1 0 .2-.1.3-.1.1-.1.2-.1.3 0 .8 1.3 1.5 3 1.5.3 0 .6-.1 1.2-.1.8 0 1.3.3 1.3.6-.1.2-.1.8-1.8.8zm1.8-8.7c-1 .2-1.5.4-2.6 1.3-.1.1-.2.1-.2.1s-.1 0-.1-.1 0-.1.1-.2c.4-.5.6-.6.9-1.1.1-.1.3-.3.3-.6 0-.5-1.1-.7-1.5-.7h-.2c-.2 0-.3.1-.4.1-.1 0-.1 0-.1-.1s.6-.6 1.5-.6c1.7 0 2.9.8 2.9 1.3-.1.4-.3.6-.6.6zm-1.1-3.3c-.5-.6-1.1-1-1.5-1.3-.1-.1-.3-.1-.3-.2 0 0 .3-.1.7-.1 1 0 2.1.4 2.1 1.2 0 .3-.2.6-.5.6-.1.1-.3 0-.5-.2zm2-.9c-.5-.5-1.1-1-1.6-1.2-.1-.1-.3-.1-.3-.2s.8-.1.8-.1c1 0 2.1.4 2.1 1.2 0 .3-.2.6-.5.6-.2 0-.4-.1-.5-.3zm10.9 10h-.2c-.4 0-.7-.2-.9-.5-.4-.6-.7-1.2-.7-2.1 0-1.2.8-1.7 1.6-1.7.3 0 .6.1.9.2v-2.8c-1.7.2-3.3.6-4.6 1.1-.3.1-.8.3-1.2.3-1 0-2-.6-2-1.4 0-.2.1-.3.2-.3s.2.1.4.2.6.2 1.1.2c.3 0 .6 0 .9-.1 1.8-.2 3.5-.5 5.3-.7v-1.8c0-.8-.3-1-.7-1.3-.1-.1-.1-.1-.1-.2s.2-.4.7-.4c.3 0 1.3.1 1.3 1.3 0 .2 0 .4-.1.6-.1.6-.2 1.1-.2 1.6.7-.1 1.5-.1 2.2-.1.2 0 .3-.1.3-.1s0-.1-.1-.1c0 0-1.5-1-1.5-1.2h.1c.1 0 .4.1.5.2.8.4 1.7.8 2.4.9 1.9.3 2 .9 2 1.2 0 .3-.2.5-.6.5-.1 0-.3 0-.5-.1-1.2-.4-2.6-.6-4.1-.6h-.9c0 .6-.1 1.1-.1 1.6 0 .7 0 1.4.1 1.8.6.6.7 1.3.7 1.9 0 3.4-3.7 5.7-5 5.7-.1 0-.1 0-.1-.1s.1-.2.5-.3c.9-.4 2.8-2 3.4-4.2-.3.5-.6.7-1 .8zm-.4-3.9c-.5 0-.8.3-.8 1 0 .3.2 1.7 1.3 1.7.7 0 .8-.8.8-1.3 0-.2 0-.4-.1-.5-.4-.9-1.1-.9-1.2-.9zm10.5 5.9c0-1.2 1-2.1 2.1-2.1 1.2 0 2.1.9 2.1 2.1 0 1.2-.9 2.1-2.1 2.1-1.1.1-2.1-.9-2.1-2.1zm2.1-1.4c-.8 0-1.5.7-1.5 1.5s.7 1.5 1.5 1.5 1.5-.7 1.5-1.5-.7-1.5-1.5-1.5z"/></svg>