<svg xmlns="http://www.w3.org/2000/svg" viewBox="0 0 177.2 27.8" style="enable-background:new 0 0 177.2 27.8" xml:space="preserve"><path d="M16.5 14.8c-2.8 0-5.2 1.2-7.3 2.5v-1.4c0-1.2-.1-2.4-.1-3.6 1.5-.8 2.9-1.6 2.9-2.9 0-.7-.5-1.1-1.2-1.2-.3 0-1-.1-1.7-.3v-.5C9.2 5.8 7.6 5 6.5 5c-1.2 0-1.6.9-1.6 1.2 0 .2.1.5.8.5 1.2 0 1.3.7 1.6 4.2-1 .5-1.8.9-3.1.9-1 0-1.8-.2-2.2-.3h-.1c-.1 0-.2-.1-.4-.1-.1 0-.4 0-.4.5-.1.6.5 2.1 2.8 2.1 1 0 2.2-.3 3.5-.9 0 1 .1 2.1.1 3.3v2c-4.4 2.8-5.3 3-5.4 3H2s-.1-.1-.2-.1-.2-.1-.3-.1C.8 21 0 22.4 0 23c0 .3.1 1 1.3 1 .4 0 .9-.1 1.4-.2.6-.2 1.1-.4 1.7-.8 1.2.4 1.9.8 2.2 1.4.3.5.7.8 1.2.8.8 0 1.5-.8 1.5-2.6v-3.4c2.1-1.6 4.3-3.1 6.8-3.1 1.6 0 3.5.6 3.5 2.2 0 1.9-2 3.5-4.3 3.5-1.6 0-2-1.2-2-2.1 0-.4.1-.9.2-1.5.1-.4.2-.7.2-.9 0-.5-.3-.5-.4-.5-.5 0-1.6 2.4-1.6 4.1 0 2 1.3 3.3 3.4 3.3 2.7 0 6.6-2.2 6.6-5.6 0-2.3-2.1-3.8-5.2-3.8zM9.1 9.9V9c.5.3.6.4.6.4l-.1.2c-.2.1-.3.2-.5.3zM7.4 20.8c0 .4 0 .7-.1 1.1 0 .4 0 .4-.6.4-.3 0-.6 0-1.1-.1.5-.4 1.1-.9 1.8-1.4zm16.9-10.3c0 .7-.6 1-.8 1.1-.3.1-.5.2-.7.2-.2 0-.5 0-1 .2s-.9.3-1.5.7c-.4.2-.5.2-.6.2-.2 0-.4-.2-.4-.3 0-.2.2-.4.3-.6.3-.3.9-1.1.9-1.6 0-.4-.4-.7-1.2-.7-.7 0-1.4.2-2 .7-.5.3-.7.4-.8.4-.2 0-.4-.2-.4-.3 0-.4 1.6-2.5 4.4-2.5 1.9-.1 3.8 1.1 3.8 2.5zm7.8.5h5v.2c0 .7.4 1.1 1.1 1.1.4 0 .8-.2 1.1-.5.3-.3.4-.6.4-1-.1-1.2-.2-4.2-.2-5.7v-.3c0-.7 0-.7.4-1l.1-.1c.3-.2.6-.4.6-.8 0-.8-2.2-2-2.6-2-.4 0-.9.6-1.1.8 0 .1-.1.1-.2.1h-3.8s-.1 0-.1-.1c-.6-.5-2.7-1.3-3-1.3-.2 0-.4.1-.4.4v.3c.2 1.1.3 3.4.3 3.8V9.1c0 5.1-.1 12.2-.4 17.1v.1c0 .9.6 1.3 1.2 1.3 1.3 0 1.6-1.2 1.6-1.5-.1-2.4-.1-7.5-.1-12.4V11zm5.1-4v2.7h-5c0-1 0-1.9.1-2.7h4.9zm-5-1.3V4.1c0-.6 0-.7.3-.8H37l.1.1c0 .4.1 1.2.1 2.3h-5zM51.4.9c-.4 0-1 .7-1.1.8 0 .1-.1.1-.2.1h-4.3s-.1 0-.1-.1C45 1.2 43.1.5 42.8.5c-.2 0-.3.1-.3.4v.3c.3 1.3.3 3.4.3 5.1 0 1 0 2.7-.2 4.8v.1c0 .7.6 1.1 1.1 1.1.4 0 .8-.2 1.1-.5.2-.2.3-.5.3-.8h5.4c0 3 .1 6.3.1 8.7v3.5c0 1-.5 1.3-1.7 1.3-.9 0-2-.2-3.4-.4-.8-.2-.8.2-.8.3 0 .3.2.4 1.2.8.8.4 2.3 1.1 2.5 1.5.1.3.3.6.8.6.8 0 4-.6 4-3.8v-2.8c-.1-2.4-.2-9-.2-13.3 0-3.5 0-3.5.5-3.8l.1-.1c.3-.2.6-.4.6-.8-.1-.6-2.5-1.8-2.8-1.8zm-.8 8.8h-5.5V7h5.4c.1.9.1 1.8.1 2.7zm-5.5-4V4c0-.5 0-.5.3-.6h.1s.1 0 .1-.1h4.8l.1.1c0 .3.1 1.1.1 2.3h-5.5zm.9 16.4v-.8c-.1-1.2-.1-2.6-.1-3.6s.1-1.1.4-1.3c.5-.3.8-.6.8-.9 0-.7-1.9-2-2.5-2-.4 0-.7.4-1.1.9 0 .1-.1.1-.2.1h-4.5c-.6-.4-2.2-1.1-2.6-1.1-.2 0-.4.2-.4.4v.1l.3-.1-.2.2c.2 1.1.3 2.9.3 3.2 0 1 0 4.2-.2 6.1v.2c0 .6.4 1 1.1 1 1.1 0 1.4-.9 1.4-1.3v-1.7h5.3v.9c0 .8.5 1.2 1 1.2.4 0 .7-.1 1-.4.1-.3.2-.7.2-1.1zM43.7 18v2.2h-5.3V16.6c0-.5 0-.5.5-.8h4.7v.1c.1.6.1 1.4.1 2.1zm40-2.3c0 1.3-.8 1.9-1.5 1.9-.6 0-1.2-.5-1.3-1.5-.2-2.7-2.1-5.1-4.6-5.7-1.5-.4-1.5-.7-1.5-.8 0-.4.5-.4.9-.4 4.5 0 8 3.5 8 6.5zm-12.2-.3c0 .2-.1.6-.2 1.1-.4 1.7-.6 3.2-.6 4.3 0 .5 0 .9.1 1.2v.2c0 1-.7 1.6-1.8 1.6-1 0-2.2-.5-3.1-1.2-2.6-2.1-3.7-4.9-3.7-9.3 0-.6 0-1.3.1-1.9v-.1c0-.5.1-1.1.1-1.5 0-.9-.1-1.6-.2-2.2v-.4c0-.4.3-.6.5-.6.1 0 2.4.6 2.4 3.3 0 .7-.1 1.3-.2 1.8 0 .1-.1.3-.1.4-.2.9-.3 1.7-.3 2.6 0 5.3 3.2 5.8 3.3 5.8.3 0 .6-.1.7-.4.4-.7.9-1.8 1.3-2.7.2-.5.4-.9.6-1.3.5-1 .7-1.1.8-1.1.1 0 .3.1.3.4zm45.9-3.2c0 .3-.3.5-1.4.9-.7.3-1.7.7-2 1-.1.1-.3.2-.5.2-1 0-6.9-3.9-10.9-10.7-2.2 3.3-4.6 5.8-6.8 7.8h.1c1.7.3 4.6.4 5.7.4h2.6l.1-.1s1.1-2 1.6-2c.1 0 .2 0 .3.1.7.3 2.6 1.8 2.6 2.6 0 .3-.2.7-.9.7h-6.4c-.7 0-3 0-4.5.3h-.1c-.5 0-1.4-1.3-1.4-1.7v-.1c-3.6 3.1-6.7 4.5-7.6 4.5-.4 0-.4-.3-.4-.3 0-.3.2-.4.6-.7C92.5 12.6 97 7.7 100 2.5c.3-.5.4-1.3.6-1.8V.4c0-.3.3-.4.3-.4.2 0 3.7 1.4 3.7 2.2 0 .4-.4.7-1.1.8 2.5 3.3 8.1 8 13.4 8.8.2 0 .5.1.5.4zm-9.1 3.9c-.4 0-.6.3-1.3 1 0 0-.1.1-.2.1h-9.1c-.4-.3-2.5-1.5-3-1.5-.1 0-.3 0-.3.4v.2c.2 1.1.4 3.3.4 3.7 0 1.6 0 3.7-.3 6.7v.1c0 .6.4 1 1.1 1 .5 0 1-.2 1.2-.5.2-.2.3-.5.3-.7v-1.1h10.3v1c0 .7.4 1.1 1.1 1.1.4 0 .9-.2 1.2-.5.2-.3.3-.6.3-.9-.1-2-.2-3.9-.2-5.3 0-1.7 0-1.7.5-1.9.3-.2.7-.4.7-.8-.1-.7-2.2-2.1-2.7-2.1zm-11.1 3.5v-.3c0-.4 0-.4.3-.6l.2-.1h9.6c.1 0 .1 0 .1.1.1.7.1 1.6.1 2.6v3H97.1v-2.8c0-.8 0-1.4.1-1.9zm40.7-9.1c-1.9 0-4.9.7-8.2 3.8.3-.5.6-.9.8-1.2.1-.2.3-.4.4-.6.5-.8 1-1.5 1-2.1 0-1-1.1-1.1-1.8-1.1.1-.9.4-3.2.4-3.8 0-3.4-2.7-3.4-2.8-3.4-.6 0-1.4.3-1.4.7 0 .3.2.4.5.6l.1.1c1.7 1 1.7 2.3 1.7 3.7V9.9c-1.3.9-2.6 1.9-3.5 2.9-.4.4-.8.8-1.5 1.1-.7.3-.8.8-.8 1.1 0 .4.2.9.7 1.5.4.4 1.1 1.5 1.6 2.5-1.3 1.8-3 4.8-3 5.9 0 .7.4 1 .8 1 .7 0 1.6-.8 2.1-2.2v-.1c.2-.6.5-1.5 1-2.6.6 1.2 1.2 2.9 1.3 3.7.1 1.6.9 2.4 1.6 2.4.5 0 1.1-.5 1.1-1.6 0-.3 0-.6-.1-.9-.4-1.8-.7-3.7-.7-5.3 0-.7.1-1.9.1-2.5v-.2l.2-.2c3.2-3.4 6.1-4.1 7.9-4.1 3.1 0 5.3 1.9 5.3 4.5 0 5.2-7.9 8.6-7.9 8.6-1.1.5-1.2.6-1.2.8 0 .2.1.3.4.3 1.9 0 11.3-3.3 11.3-9.9-.2-3.7-3.9-6.1-7.4-6.1zm-13.3 5.2c1.1-.2 1.5-.5 1.9-1.5.5-1 1.1-1.8 1.8-2.4-.1.5-.1 1.1-.2 1.7l-.1.8c-.8 1.3-1.6 2.6-2.3 3.6l-.2.2c-.9-1.6-1.1-2.1-1.1-2.3.1-.1.2-.1.2-.1zm3 2.8c-.1.9-.2 1.8-.2 2.6v.1c-.2-.2-.4-.6-.8-1.4.4-.4.7-.9 1-1.3zm49.6-6.5c0 .7-.8 1.4-2.6.8-1.6-.5-3.5-.6-5.9-.4-.2 2.1-.5 3.6-.9 4.6-.8 1.8-2.1 2.7-3.1 2.7-.6 0-1.1-.4-1.1-1 0-.9-.9-2.1-1.6-2.7-.3-.3-.5-.5-.5-.7 0-.2.1-.4.4-.4.2 0 .5.1.7.3.9.7 1.7 1.1 2.3 1.1.4 0 1.2 0 1.7-3.6-2.8.5-5.2 1.4-6.5 1.9.1 2.1.2 4 .4 5.3.3 1.7 1.6 2.6 4 2.6 1.5 0 3-.4 3.6-.6.4-.2.9-.3 1.2-.3.9 0 1.7.5 1.7 1.2 0 2-5.8 2-5.8 2-3.9 0-6.2-1.6-6.7-4.6-.2-1.1-.3-3-.5-4.8-1.6.7-2.8 1.4-3.1 1.6-.6.4-1.3.8-2.2.8-.6 0-3.8-.5-3.8-2.7 0-.6.3-.8.6-.8s.5.2.6.2c.9.7 1.1.7 1.8.7.9 0 1.6-.3 2.4-.5l3.6-1.2c-.1-1.4-.2-2.5-.4-3.3-.1-.6-.6-1.1-.9-1.5-.3-.3-.6-.6-.6-.9 0-.5.8-.8 1.5-.8.9 0 2.5.7 2.5 3.3v2.5c2.7-.8 4.5-1.4 6.7-1.8V9.9c0-2.8-.4-4.3-.7-4.4-.5-.2-.5-.5-.5-.6 0-.5.7-1 1.5-1 1 0 2 .7 2 1.7 0 .2 0 .5-.1.8-.1.6-.2 1.4-.2 2.6 0 .4-.1.9-.1 1.5l.4-.1c.8-.2 1.5-.3 2-.4.1 0 .1 0 .2-.1 0 0-1.4-1.4-1.4-1.8 0-.2.2-.4.4-.4s.4.1.6.3c1 .7 2.1 1.3 3.4 1.8 2.3 1 3 1.4 3 2.2z"/></svg>