<?xml version="1.0" encoding="utf-8"?>
<!-- Generator: Adobe Illustrator 26.3.1, SVG Export Plug-In . SVG Version: 6.00 Build 0)  -->
<svg version="1.1" id="Layer_1" xmlns="http://www.w3.org/2000/svg" xmlns:xlink="http://www.w3.org/1999/xlink" x="0px" y="0px"
	 viewBox="0 0 247.7 79.7" style="enable-background:new 0 0 247.7 79.7;" xml:space="preserve">
<path d="M0.2,5.1c0-0.1,0-0.2,0.8-0.2c1.4,0,2.3,0.5,2.3,1.3C3.3,6.6,3,7,2.6,7C2.5,7,2.2,6.9,1.9,6.5l0,0C1.6,6.2,1,5.6,0.4,5.3
	l-0.1,0C0.2,5.2,0.2,5.1,0.2,5.1z M8.3,2.4L8.3,2.4c0.8-0.1,1.7-0.1,1.9-0.1h1c0.2,0,0.2,0,0.3,0.2c0.6,3.8,2.9,6,3.3,6
	c0.1,0,0.1,0,0.2-0.1C15.2,8.1,15.8,8,16.2,8c0.4-0.1,0.6-0.1,0.6-0.2c0-0.1-0.1-0.1-0.2-0.1l0,0c-3.6-1.3-4.5-4.9-4.5-4.9
	c0-0.1,0.1-0.1,0.3-0.1c0.1,0,0.2,0,0.3-0.1c0.4-0.1,0.5-0.3,0.5-0.5C13.3,1.6,12.3,1,12,1c-0.1,0-0.2,0-0.6,0.5
	c-0.1,0.1-0.1,0.1-0.2,0.1h-1c-0.1,0-1.4,0-2.7-0.2l-0.1,0v0.1C7.5,1.7,8,2.4,8.3,2.4z M4.6,9.3c0,0.1,0,0.1,0.1,0.1
	c0,0,1.7-0.5,3.9-5.1C8.7,4,8.8,4,9,4c0.4-0.1,0.5-0.2,0.5-0.3c0-0.4-1.7-1-1.8-1c-0.1,0-0.1,0.1-0.1,0.1c0,0,0,0,0,0.1
	c0,0.1,0,0.2,0,0.3c0,0.2,0,0.5-0.1,0.7C6.6,6,5.5,8.1,4.7,9C4.6,9.1,4.6,9.2,4.6,9.3z M12.4,15H8l0,0.8c0,0.2,0,0.3-0.2,0.4
	c-0.2,0.2-0.4,0.2-0.6,0.2c-0.3,0-0.6-0.2-0.6-0.5v-0.1c0.1-1.7,0.1-2.9,0.1-3.7c0-1.1,0-2.3-0.2-3.3c0-0.1,0-0.1,0-0.1
	c0-0.1,0-0.1,0.1-0.1C6.8,8.6,8,9,8.4,9.3l0,0h3.7c0.1,0,0.1,0,0.2-0.1c0.3-0.5,0.5-0.5,0.6-0.5c0.2,0,1.5,0.7,1.5,1.1
	c0,0.2-0.2,0.4-0.4,0.5l0,0c-0.3,0.2-0.3,0.2-0.3,1.4c0,1,0.1,2.5,0.1,3.8c0,0.2,0,0.4-0.2,0.5c-0.2,0.2-0.4,0.2-0.6,0.2
	c-0.3,0-0.6-0.2-0.6-0.6v0L12.4,15z M8,12.3c0,0.7,0,1.4,0,2.1h4.4c0-0.8,0-1.5,0-2.2c0-0.8,0-1.5,0-2c0,0,0-0.1-0.2-0.1H8.4
	c0,0,0,0-0.1,0.1l-0.1,0.1C8,10.2,8,10.2,8,10.7C8,11.3,8,11.8,8,12.3z M2,1.4c0.5,0.4,1.1,1,1.4,1.5l0,0c0.3,0.5,0.6,0.6,0.8,0.6
	c0.4,0,0.7-0.4,0.7-0.8C4.8,1.5,3.2,1,2.1,1C1.8,1,1.7,1,1.7,1.1C1.7,1.2,1.8,1.2,2,1.4z M0.8,11c-0.3,0-0.5,0.1-0.5,0.2
	c0,0.1,0.1,0.2,0.5,0.3c1.2,0.3,1.4,1.1,1.4,1.7c0,0.3,0,0.6-0.1,0.9c0,0.2-0.1,0.4-0.1,0.7V15c0,0.9,0.4,1.4,0.8,1.4
	c0.2,0,0.4-0.1,0.6-0.3c0.3-0.4,0.3-1,0.1-1.7c-0.2-0.6-0.3-1.2-0.3-1.8c0-1.4,0.5-3,3.2-8.9c0.1-0.1,0.1-0.3,0.1-0.4
	c0,0,0-0.1-0.1-0.1c-0.5,0-4.1,7.1-4.1,7.2C1.9,10.9,1.5,11,0.8,11z M19,9.6c0.1,0,0.2-0.1,0.3-0.1c0.1,0,0.1-0.1,0.2-0.1
	c0.3-0.1,1-0.3,1.7-0.4c0,0.5,0,0.9,0,1.2c0,2-0.1,3.9-0.2,5.8V16c0,0.4,0.3,0.6,0.5,0.6c0.2,0,0.4-0.1,0.6-0.3
	c0.1-0.1,0.2-0.3,0.2-0.5c0-1.4-0.1-3.6-0.1-5.1c0-1.6,0-1.6,0.2-1.7c0.1-0.1,0.2-0.2,0.2-0.3c0-0.1,0-0.1-0.1-0.2
	c0.1,0,0.1,0,0.2-0.1c0.3-0.1,0.5-0.1,0.7-0.2c0.2,0.8,0.3,1.1,0.8,1.1c0.3,0,0.7-0.3,0.7-0.8c0-1-1.8-2.2-2.2-2.2
	c-0.1,0-0.1,0.1-0.1,0.1c0,0,0,0.1,0.1,0.3c0.2,0.2,0.4,0.6,0.6,1.1c-0.7,0.1-1.6,0.2-2.6,0.2C21.8,7,23.1,5.3,24,4
	c0.1-0.2,0.2-0.2,0.4-0.2c0.4,0,0.6-0.2,0.6-0.4c0-0.4-1.5-1.1-1.6-1.1c-0.1,0-0.1,0.1-0.1,0.2c-0.2,1.1-2,4.1-3,5.5l-0.2,0h-0.3
	c-0.4,0-0.9,0-1.2-0.1c0,0,0,0-0.1,0c0,0,0,0-0.1,0c0,0-0.1,0-0.1,0.1C18.1,8.3,18.7,9.6,19,9.6z M25.5,2c0-0.1,0-0.1,0-0.1
	c0-0.1,0.1-0.1,0.1-0.1c0.1,0,1.2,0.5,1.6,0.8l0,0h0.5c0.1-0.4,0.3-1.2,0.3-2c0-0.1,0-0.2,0-0.2c0-0.1,0-0.1,0-0.2
	c0,0,0-0.2,0.1-0.2C28.3,0,30,0.6,30,1c0,0.1-0.1,0.3-0.6,0.4c-0.1,0-0.2,0.1-0.3,0.2l0,0c-0.2,0.3-0.4,0.6-0.7,0.9h2.4
	c0.1,0,0.1,0,0.2-0.1C31.3,2.1,31.4,2,31.6,2C31.8,2,33,2.7,33,3.1c0,0.2-0.3,0.4-0.5,0.5c-0.3,0.1-0.3,0.1-0.3,1
	c0,1.1,0.1,2.8,0.1,3.4c0,0.2-0.1,0.3-0.2,0.4c-0.1,0.2-0.4,0.2-0.6,0.2c-0.3,0-0.5-0.2-0.5-0.5V7.8h-1.2C29.9,7.9,30,7.9,30,8
	c0,0.1-0.1,0.2-0.3,0.3c0.2,1,0.5,1.8,0.9,2.5c0.3-0.3,1.7-1.4,1.9-2c0,0,0-0.1,0.1-0.1c0.2,0,1.5,1,1.5,1.4c0,0.1,0,0.3-0.4,0.3
	c-0.1,0-0.2,0-0.3,0c-0.1,0-0.2,0-0.2,0c-0.1,0-0.2,0-0.2,0l-0.3,0.1c-0.5,0.2-1.3,0.5-1.8,0.7c1,1.8,2.4,3,4,3.5
	c0.2,0.1,0.2,0.1,0.2,0.2c0,0.1-0.2,0.2-0.6,0.2c-0.4,0.1-1,0.2-1.3,0.4c-0.1,0.1-0.1,0.1-0.2,0.1c-0.2,0-2.6-1.8-3.5-6.8
	c0,0.2,0,0.5,0,0.7c0,1.1,0.1,3.3,0.1,3.9c0,0.1,0,0.2,0,0.4c0,0.3,0.1,0.6,0.1,0.8v0c0,1.3-1.4,1.9-2,1.9c-0.2,0-0.3-0.1-0.4-0.2
	c-0.2-0.2-0.8-0.6-1.3-0.8c-0.5-0.3-0.6-0.4-0.6-0.4c0-0.1,0.1-0.1,0.1-0.1c0,0,0.1,0,0.1,0c0,0,0.1,0,0.1,0
	c0.8,0.2,1.3,0.2,1.7,0.2c1,0,1-0.4,1-1.2c0-1.4-0.1-5.5-0.2-6.2h-1.5v0.3c0,0.1,0,0.3-0.1,0.4c-0.1,0.1-0.4,0.2-0.6,0.2
	c-0.3,0-0.5-0.2-0.5-0.5V8.1c0.1-1.1,0.1-3,0.1-3.7C25.7,4.2,25.7,2.7,25.5,2z M26.7,5.4c0,0.6,0,1.2,0,1.8h4.3c0-0.6,0-1.2,0-1.8
	H26.7z M31.1,4.8c0-1.5,0-1.7-0.2-1.7h-3.7c-0.1,0-0.2,0.1-0.3,0.2c-0.2,0.1-0.2,0.8-0.2,1.5H31.1z M17.8,15.8c0.2,0,1.4-1.5,2.3-4
	c0.1-0.2,0.1-0.3,0.3-0.4c0.3-0.1,0.5-0.2,0.5-0.4c0-0.4-1.6-0.9-1.9-0.9c-0.1,0-0.1,0.2-0.1,0.3c0,1.8-0.9,4.3-1.2,5
	c-0.1,0.1-0.1,0.2-0.1,0.3C17.7,15.8,17.8,15.8,17.8,15.8z M27.5,11c0.1-0.2,0.2-0.3,0.3-0.4l0,0c0,0,0,0,0.1,0
	c0.1-0.1,0.3-0.2,0.3-0.3c0-0.3-0.9-1-1.1-1c-0.2,0-0.4,0.3-0.5,0.4c-0.1,0.1-0.1,0.1-0.1,0.1H26c-0.2,0-1,0-2-0.2l-0.1,0v0.1
	c0,0.2,0.3,0.6,0.5,0.8c0.1,0.1,0.2,0.1,0.2,0.1c0.7-0.1,1.2-0.2,1.4-0.2h0.4c0,0,0,0,0,0c0,0.2-1.1,3.7-3.6,5.3
	c-0.1,0.1-0.3,0.2-0.3,0.3c0,0,0,0.1,0.1,0.1C23.5,16.1,26.3,14.5,27.5,11z M24.1,13.2c0.4,0,0.7-0.3,0.7-0.8c0-1.1-1.9-2.4-2.3-2.4
	c-0.1,0-0.1,0-0.1,0.1c0,0,0,0.1,0.1,0.3c0.4,0.5,0.7,1.3,1,2.2C23.6,13,23.9,13.2,24.1,13.2z M18.7,4.2c0.5,0.4,1,0.8,1.3,1.5
	c0.2,0.3,0.4,0.5,0.7,0.5c0.3,0,0.6-0.3,0.6-0.7c0-0.3-0.1-0.8-1-1.2c0.5-0.6,1.2-1.7,1.6-2.4c0.1-0.2,0.2-0.2,0.3-0.2
	c0.5-0.1,0.5-0.3,0.5-0.4c0-0.4-1.8-1-1.8-1c-0.1,0-0.1,0.1-0.1,0.3c0,0.9-0.3,1.9-1,3.5c-0.3-0.1-0.9-0.3-1.2-0.3
	c-0.1,0-0.2,0-0.2,0.1C18.5,4,18.5,4.1,18.7,4.2z M39.1,8.6c0-0.1,0-0.2,0.2-0.2c0.1,0,0.4,0.1,0.5,0.1c0.7,0.2,1.4,0.4,2.1,0.4
	c1,0,1.8-0.2,2.2-0.3c0-0.8,0-1.6,0.1-2.5c-0.1,0-0.2,0-0.4,0c-2.1,0-2.8-1.3-2.8-1.8c0-0.1,0.1-0.2,0.1-0.2c0.1,0,0.2,0.1,0.3,0.1
	l0,0c0.7,0.4,1.4,0.8,2.2,0.8c0.1,0,0.2,0,0.4,0l0.1,0c0-0.3,0.1-0.5,0.1-0.8c0-0.1,0.2-1.3,0.2-1.9c0-0.6-0.1-0.7-0.4-0.8
	c-0.3-0.1-0.5-0.2-0.5-0.3c0-0.1,0.4-0.6,0.8-0.6c0.6,0,1.3,0.9,1.3,1.4c0,0.2-0.1,0.4-0.1,0.6c0,0.1-0.1,0.2-0.1,0.4l0,0
	c0,0-0.1,0.2-0.3,1.6l0.1,0l0,0.1l0-0.1c0.3-0.2,0.7-0.4,1-0.4c0.4,0,0.5,0.3,0.5,0.5c0,0.7-1.5,1.1-1.8,1.2C45,6.6,45,7.2,45,7.9
	v0.5c1.3-0.4,1.4-0.7,1.4-0.8c0-0.2-0.5-0.6-0.7-0.8c0,0-0.1-0.1-0.1-0.1c0,0,0-0.1,0.1-0.1c0.1,0,0.1,0,0.2,0
	C46.2,6.7,46.9,7,47.3,7C47.8,7,48,7.2,48,7.6c0,0.9-2.6,1.8-3,1.9c0,0.4,0.1,0.8,0.1,1.2c0,0.2,0,0.4,0.1,0.6c0,0.2,0,0.4,0.1,0.6
	c0,0.3,0.1,0.7,0.1,1c1.9,0.6,2.7,1.9,2.7,2.4c0,0.4-0.3,0.7-0.6,0.7c-0.2,0-0.5-0.1-0.7-0.5c-0.3-0.5-0.8-1-1.4-1.3
	c-0.4,1.4-2,2.2-3.3,2.2c-1.4,0-2.3-1-2.3-1.9c0-1.4,2.2-1.9,3.7-1.9c0.3,0,0.6,0,0.8,0.1c0-0.3,0-0.5,0-0.8c0-0.2,0-0.3,0-0.5
	c0-0.5-0.1-1-0.1-1.6C43.2,10,42.3,10,42,10C39.7,10,39.1,8.8,39.1,8.6z M40.4,14.4c0,0.3,0.4,0.8,1.4,0.8c0.9,0,2-0.6,2.3-1.6
	c-0.5-0.1-0.9-0.2-1.4-0.2C42.7,13.5,40.4,13.5,40.4,14.4z M56.9,12.3c0-0.3,0.1-0.6,1.5-2.3c0.7-0.9,4-5.4,4.3-5.9
	c0.1-0.2,0.2-0.4,0.2-0.4c0-0.2-0.1-0.3-0.4-0.3c-0.4,0-0.7,0.3-1,0.7c-0.4,0.4-0.8,0.9-1.5,0.9c-0.7,0-1.2-0.4-1.2-1.1
	c0-0.1,0-0.4,0.2-0.4c0.1,0,0.2,0,0.3,0.1c0,0,0.1,0,0.1,0c0.1,0,0.3,0.1,0.4,0.1c0.3,0,0.5-0.1,0.7-0.2C61.1,3.2,62,2.6,63,2.6
	c0.9,0,1.6,0.7,1.6,1.1c0,0.4-0.4,0.7-0.7,1c-1.2,0.9-3.1,3.4-3.6,4.1C61.2,8.3,62.1,8,63.1,8c2.8,0,3.8,2.1,3.8,3.4
	c0,2-1.9,4.1-5,4.1c-1.4,0-2.9-0.8-2.9-1.9c0-0.9,0.9-1.4,1.8-1.4c1.1,0,2,0.8,2,1.9c0,0.2,0,0.3-0.1,0.5c2.2-0.5,3-1.9,3-3.2
	c0-1.3-1-2.7-2.9-2.7c-1.1,0-2.7,0.4-3.9,2.5c-0.1,0.1-0.2,0.3-0.3,0.5c-0.1,0.3-0.3,0.5-0.3,0.6c-0.2,0.3-0.5,0.5-0.8,0.5
	C57.1,12.9,56.9,12.7,56.9,12.3z M59.7,13.6c0,0.6,0.9,1,1.8,1.1c0.1-0.2,0.1-0.3,0.1-0.6c0-0.6-0.5-1.2-1.1-1.2
	C59.8,13,59.7,13.5,59.7,13.6z M80.3,15.3c2.2,0,4.1-0.7,4.1-1.5c0-0.4-0.4-0.6-1-0.6c-0.1,0-0.3,0-0.4,0l0,0
	c-0.2,0-0.4,0.1-0.7,0.2c-0.3,0.1-0.6,0.2-1,0.3c-0.5,0.1-1,0.2-1.5,0.2c-1.9,0-4-0.8-4-2c0-0.3,0.1-0.5,0.3-0.8
	c0.1-0.1,0.1-0.3,0.1-0.4c0-0.2-0.1-0.2-0.1-0.2c-0.2,0-1,0.8-1,1.8C75,14,77.3,15.3,80.3,15.3z M82.6,2.8c0.3,0.2,1,0.6,1.5,1.2
	l0,0c0.2,0.2,0.4,0.3,0.5,0.3c0.3,0,0.6-0.3,0.6-0.7c0-0.6-0.8-1.3-2.2-1.3c-0.2,0-0.8,0-0.8,0.2C82.3,2.6,82.3,2.7,82.6,2.8z
	 M78.6,4.8c0.1,0,0.3,0,0.4,0c0.1,0,0.3,0,0.4,0c0.1,0,0.2,0,0.2,0c0,0.1-0.7,0.9-1,1.3c-0.1,0.1-0.2,0.3-0.2,0.4
	c0,0.1,0,0.1,0.1,0.1c0.1,0,0.3-0.1,0.5-0.2C80.5,5.3,81.9,5,82.3,5c0.6,0,0.8-0.3,0.8-0.5c0-0.4-0.6-0.9-1.5-0.9
	c-0.1,0-0.3,0-0.4,0c-0.1,0-0.3,0-0.4,0c-0.6,0-1.1,0-1.7,0c-0.7,0-1.6,0-2.3-0.3c-0.1,0-0.1,0-0.1-0.1c-0.2-0.1-0.3-0.1-0.4-0.1
	c-0.1,0-0.2,0.1-0.2,0.1C76.1,3.4,76.7,4.6,78.6,4.8z M84.4,1.9c0,0,0.1,0,0.1,0C85,2.3,85.6,2.7,86,3.2l0,0
	c0.2,0.2,0.3,0.3,0.5,0.3c0.3,0,0.6-0.3,0.6-0.6c0-0.9-1.1-1.2-2.1-1.2c-0.2,0-0.9,0-0.9,0.2C84.1,1.8,84.2,1.9,84.4,1.9z
	 M101.5,14.8c0-0.4-0.4-0.7-0.8-0.7c-0.2,0-0.4,0.1-0.6,0.2c-0.7,0.3-1.5,0.5-2.4,0.5c-1.7,0-2.8-0.8-2.8-2c0-1.6,2.3-3,3.8-3h0.2
	c0,0,0.1,0,0.1,0c0,0,0.1,0,0.1,0c0.6,0,1.5-0.3,1.5-1c0-0.1,0-0.6-0.8-0.6c-0.3,0-0.7,0.1-1.6,0.4c-0.8-0.2-1.1-0.8-1.1-1.9
	c0-0.8,0.2-1.6,0.4-2.4c0-0.2,0.1-0.4,0.1-0.5c0-0.1,0-0.2,0.1-0.3c0.1-0.2,0.1-0.5,0.1-0.8c0-1.2-1.2-1.8-1.7-1.8
	c-0.5,0-0.8,0.3-0.8,0.6c0,0.1,0,0.2,0.3,0.3c0.7,0.1,0.9,0.4,0.9,1c0,0.3,0,0.6-0.1,0.9l0,0.2c0,0.2-0.1,0.4-0.1,0.6
	c-0.1,0.6-0.2,1.3-0.2,2c0,1.3,0.4,2.1,1.1,2.5c-1.9,0.9-3.1,2.4-3.1,3.9c0,1.3,1.1,3.2,4.2,3.2C99.6,16.1,101.5,15.7,101.5,14.8z
	 M116.9,8.9c0,0.1,0.1,0.2,0.4,0.3c1,0.6,2.1,1.7,2.8,2.8l0,0c0.2,0.3,0.4,0.5,0.7,0.5c0.4,0,0.7-0.4,0.7-0.9c0-1.5-3.7-2.9-4.5-2.9
	C116.9,8.8,116.9,8.9,116.9,8.9z M109.4,13.1c0.8,0,3-1.6,3-3.6c0-0.2,0-0.6-0.2-0.6c-0.1,0-0.2,0.1-0.2,0.3c-0.4,1-1.2,1.7-2.6,2.4
	c-0.4,0.2-0.7,0.5-0.7,0.8C108.6,12.9,109,13.1,109.4,13.1z M111.9,7.8c0.3,0,0.5-0.1,0.8-0.1c0.2-0.1,0.4-0.1,0.7-0.2
	c0.4-0.1,0.9-0.2,1.4-0.2c0,3.5,0,4.2,0,4.6c0,0.1,0,0.1-0.1,0.1c0,0,0,0-0.1,0c-0.2-0.1-0.5-0.3-0.8-0.6c-0.2-0.2-0.4-0.3-0.6-0.4
	c0,0-0.1-0.1-0.2-0.1c-0.1,0-0.1,0-0.1,0.1c0,0.1,0,0.1,0.1,0.2c0.8,1,1.3,1.9,1.4,2.5c0.1,0.6,0.4,0.9,0.7,0.9
	c0.5,0,0.9-0.8,0.9-1.9c0-0.3,0-0.6-0.1-0.9c0-0.3-0.1-0.7-0.1-1.1c0-0.6,0-1.2,0-1.8c0-0.6,0-1.2,0-1.8l0.4,0
	c0.6-0.1,1.2-0.1,1.7-0.1c0.7,0,1.4,0.1,2,0.2c0.1,0,0.2,0,0.3,0c0.4,0,0.7-0.2,0.7-0.5c0-0.5-1.2-1-2.2-1c-0.4,0-0.6,0.1-0.8,0.2
	c-0.2,0.1-0.4,0.2-0.8,0.3c-0.3,0.1-0.8,0.1-1.3,0.2c0-0.4,0-0.7,0.1-1c0-0.3,0.1-0.5,0.1-0.7c0-0.2,0.1-0.3,0.1-0.5
	c0-0.8-1.5-1.3-2-1.3c-0.6,0-0.8,0.4-0.8,0.5c0,0.2,0.2,0.3,0.3,0.3h0c0,0,0.1,0,0.1,0c0,0,0,0,0.1,0c0.7,0,1,0.5,1,1.5v1.3
	c-2.2,0.3-2.3,0.3-2.6,0.3c-0.7,0-1.3-0.1-2.1-0.4c-0.2-0.1-0.3-0.1-0.4-0.1c-0.1,0-0.2,0.1-0.2,0.4C109.4,7.4,111.1,7.8,111.9,7.8z
	 M131,4.4c0.2,0,0.4,0,0.6,0c0.3,0,0.8-0.1,1.2-0.2c1-0.2,2.2-0.4,3.1-0.4c0.5,0,0.8-0.2,0.8-0.5c0-0.5-0.9-0.7-1.5-0.7
	c-0.3,0-0.6,0.1-0.8,0.2c-0.2,0.1-0.3,0.1-0.5,0.1c-0.1,0-0.2,0-0.4,0.1c-0.8,0.2-1.8,0.4-2.7,0.4c-0.6,0-1-0.1-1.3-0.3l0,0
	c-0.1,0-0.1-0.1-0.2-0.1c-0.1,0-0.2,0.1-0.2,0.3C129.2,3.5,129.5,4.4,131,4.4z M127.3,15.7c-0.2,0.1-0.5,0.2-0.5,0.4
	c0,0.1,0,0.1,0.1,0.1c0.6,0,6.7-1.8,7.7-7.8c0-0.2,0-0.3,0-0.5c0-0.5-0.2-0.7-0.5-0.9c1.2-0.1,1.5-0.1,1.7-0.1
	c0.9,0,1.6,0.1,2.5,0.3l0,0c0.1,0,0.2,0,0.2,0c0.4,0,0.7-0.2,0.7-0.5c0-0.7-1.8-1.2-2.2-1.2c-0.3,0-0.5,0.1-0.7,0.2
	c-0.2,0.1-0.4,0.2-0.7,0.2c-1.8,0.2-3.4,0.5-4.9,0.7c-0.4,0.1-0.8,0.1-1.1,0.2c-0.1,0-0.3,0-0.4,0c-0.6,0-1.4-0.1-1.7-0.3
	c-0.2-0.1-0.3-0.1-0.4-0.1c-0.1,0-0.3,0-0.3,0.3c0,0.9,1.7,1.4,2.4,1.4c0.3,0,0.5-0.1,0.9-0.2l0.2-0.1c0.6-0.2,1.4-0.4,2.1-0.6
	c0,0,0,0,0,0c0,0.2,0.1,0.3,0.3,0.3c0,0,0.1,0,0.1,0c0,0,0,0,0.1,0c0,0,0,0,0,0c0.2,0,0.3,0.2,0.3,0.7
	C133.2,10.6,130.3,14.2,127.3,15.7z M150.7,5.1c0.5,0.2,0.8,0.9,0.8,2.2c0,0.9-0.1,2.1-0.3,3.5c0,0.3-0.1,0.5-0.1,0.6
	c0,0.1-0.1,0.2-0.1,0.3c0,0.3,0.7,1.5,1.3,1.5c0.3,0,0.6-0.3,0.8-0.5c0.1-0.1,0.2-0.2,0.3-0.2c3.6-2.5,6-6.6,6-7.2
	c0-0.1,0-0.1-0.1-0.1c-0.1,0-0.1,0-0.5,0.5c-2.5,3.6-6.2,5.7-6.5,5.7c0,0-0.1,0-0.1-0.2c0-0.4,0.2-3.7,0.5-4.5
	c0.1-0.2,0.1-0.3,0.1-0.5c0-0.8-0.8-1.9-1.7-1.9c-0.4,0-0.9,0.2-0.9,0.4C150.2,4.9,150.4,5,150.7,5.1z M143.2,14.7
	c0.8,0,5.1-2.2,6.6-6.7c0.1-0.2,0.2-0.5,0.2-0.9c0-1-1.2-1.8-1.9-1.8c-0.6,0-0.8,0.5-0.8,0.6c0,0.1,0,0.2,0.3,0.3l0,0
	c0.3,0,1,0.1,1,1c0,0.8-0.6,2.2-1.7,3.7c-1.1,1.5-2.4,2.8-3.4,3.3c-0.1,0.1-0.4,0.2-0.4,0.3C143,14.6,143,14.7,143.2,14.7z
	 M172.9,2.4c0-0.9,0.8-1.7,1.7-1.7c0.9,0,1.7,0.8,1.7,1.7c0,0.9-0.8,1.7-1.7,1.7C173.6,4.1,172.9,3.4,172.9,2.4z M175.6,2.4
	c0-0.6-0.4-1-1-1c-0.6,0-1,0.4-1,1c0,0.6,0.5,1,1,1C175.2,3.5,175.6,3,175.6,2.4z M163.2,15.2c0.1,0,0.3,0,0.5-0.1
	c3.8-1.1,6.8-3.9,9.5-8.7c0.3-0.5,0.5-0.6,0.8-0.8c0.3-0.2,0.4-0.4,0.4-0.6c0-0.6-1.8-1.2-2.2-1.2c-0.2,0-0.4,0.1-0.6,0.2
	c-0.2,0.1-0.3,0.2-0.5,0.3c-0.3,0-0.8,0.1-1.4,0.2c-1,0.2-2.3,0.3-2.8,0.4C166.4,5,166,5,165.6,5c-0.8,0-1.3-0.1-1.5-0.3
	c-0.1-0.1-0.2-0.2-0.4-0.2c-0.2,0-0.4,0.1-0.4,0.5c0,0.6,1.7,1.5,2.4,1.5c0.3,0,0.7-0.1,1.1-0.3c0.2-0.1,0.3-0.1,0.6-0.2
	c0.8-0.2,3.1-0.9,4-0.9c0.3,0,0.5,0.1,0.5,0.4c0,0.4-3.5,7-8.4,9.2c-0.5,0.2-0.5,0.4-0.5,0.4C163,15.1,163,15.2,163.2,15.2z
	 M181.3,15.6c0.1,0,0.3,0,0.5-0.1c3.9-1.1,6.8-3.6,9.2-7.9c0.2-0.4,0.4-0.5,0.6-0.6c0,0,0.1-0.1,0.1-0.1c0.3-0.2,0.4-0.3,0.4-0.5
	c0-0.6-1.7-1.1-2.2-1.1c-0.2,0-0.4,0.1-0.5,0.2c-0.2,0.1-0.3,0.2-0.5,0.2c-0.5,0-1.5,0.2-2.4,0.3c-0.7,0.1-1.3,0.2-1.6,0.2
	c-0.4,0-0.8,0.1-1.3,0.1c-1,0-1.3-0.2-1.3-0.3c-0.1-0.1-0.2-0.2-0.4-0.2c-0.2,0-0.4,0.1-0.4,0.5c0,0.5,1.4,1.3,2.4,1.3
	c0.3,0,0.7-0.1,1.1-0.3c0.1,0,0.3-0.1,0.5-0.2c1.9-0.6,3.8-0.8,3.9-0.8c0.3,0,0.4,0.1,0.4,0.3c0,0.4-3.3,6.3-8.2,8.4
	c-0.2,0.1-0.5,0.2-0.5,0.4C181.1,15.5,181.1,15.6,181.3,15.6z M184.8,4.3c0.2,0,0.4,0,0.6-0.1c0.3,0,0.5-0.1,0.8-0.1
	c1.2-0.2,2.4-0.4,3.4-0.5c0.6,0,0.8-0.3,0.8-0.6c0-0.6-1.1-0.7-1.3-0.7c-0.4,0-0.7,0.1-1,0.3c-0.2,0.1-0.4,0.2-0.7,0.3
	c-1,0.3-1.9,0.4-2.5,0.4c-0.6,0-1-0.1-1.3-0.3c-0.1-0.1-0.2-0.2-0.3-0.2c-0.2,0-0.2,0.2-0.2,0.4C183,3.8,183.8,4.3,184.8,4.3z
	 M198.7,5.6c1,0.4,2,0.8,3,1.7h0c0.2,0.2,0.5,0.3,0.7,0.3c0.5,0,0.7-0.4,0.7-0.8c0-1.2-1.7-1.7-3.5-1.7c-0.1,0-1.3,0-1.3,0.2
	C198.4,5.4,198.5,5.5,198.7,5.6z M200,12.5L200,12.5c-0.2-0.2-0.2-0.3-0.3-0.3c-0.3,0-0.3,0.6-0.3,0.6c0,0.9,1.6,1.8,2.2,1.8
	c0.3,0,0.5-0.2,0.7-0.4c0.1-0.1,0.2-0.3,0.4-0.4c6.2-4,9.1-9.1,9.1-9.5v0l-0.1-0.1h0c0,0-0.1,0-0.4,0.4c-2.2,2.5-8.4,8.2-10.5,8.2
	C200.5,12.9,200.2,12.7,200,12.5z M7.2,32.7c0.1,0,0.3-0.1,0.3-0.5c0-0.1,0-0.3,0-0.3c0-0.1-0.1-0.1-0.2-0.1c0,0,0,0,0,0
	c-0.8,0-1.4,0.1-2,0.1c-0.5,0-1,0-1.7,0l-0.6,0c-0.3,0-0.5,0.2-0.5,0.5l0,0c0.1,1,0.1,3.2,0.1,6.4c0,3.4-0.1,6.7-0.2,8.5
	c0,0.3,0.3,0.3,0.5,0.3c0.4,0,0.5-0.1,0.5-0.3c0-2.2-0.1-5.9-0.1-9.3c0-2.2,0-4.1,0-5.1c0-0.1,0-0.2,0.1-0.2c0.3,0,0.7,0,1.1,0
	C5.7,32.7,6.8,32.7,7.2,32.7z M13.7,35.5c0,0.1,0.1,0.1,0.2,0.2c0.4,0.3,0.8,0.8,0.9,1.1c0.2,0.4,0.4,0.4,0.6,0.4
	c0.3,0,0.6-0.3,0.6-0.6c0-0.8-1.2-1.2-2-1.2C13.8,35.4,13.7,35.4,13.7,35.5z M22.8,34.8c0,0,0.1,0,0.1-0.1c0.1-0.1,0.4-0.2,0.4-0.5
	c0-0.4-1.2-1-1.4-1c-0.1,0-0.1,0-0.1,0c0,0,0,0,0,0l0,0c-0.1,0.1-0.3,0.3-0.4,0.4c0,0.1-0.1,0.1-0.2,0.1h-5c0.2-0.3,0.5-0.6,0.8-1
	l0,0c0.1-0.1,0.1-0.2,0.3-0.2c0.4,0,0.7-0.2,0.7-0.4c0-0.6-2.1-1-2.1-1c0,0-0.1,0-0.1,0.1l0,0c0,0.1,0,0.4,0,0.7
	c0,0.4-0.1,0.9-0.3,1.7h-2.1l0,0c-0.6-0.4-1.5-0.7-1.6-0.7c-0.1,0-0.1,0-0.1,0.1l0,0.1c0.1,0.7,0.1,1.6,0.1,2c0,0,0,4.6-0.1,6.7v0
	c0,0.3,0.3,0.5,0.5,0.5c0.4,0,0.8-0.2,0.8-0.6v-0.4c1-0.3,2.5-1.1,3.6-2.2c0,0.4,0,0.8-0.1,1.3v0c0,0.4,0.2,0.5,0.5,0.5
	c0.1,0,0.3-0.1,0.5-0.2c0.1-0.1,0.2-0.2,0.1-0.4c0-0.4,0-0.7,0-1.1c0-0.1,0-0.3,0-0.4c0.6,0.3,1.3,0.9,1.7,1.4
	c0.3,0.4,0.6,0.5,0.7,0.5c0.3,0,0.6-0.3,0.6-0.6c0-1.2-2-1.4-3-1.5c0,0,0,0-0.1,0c0-0.1,0-0.2,0-0.3c0-0.1,0-0.2,0-0.3h3.3
	c0.3,0,0.4-0.1,0.4-0.3c0-0.4-0.7-0.9-1.1-1.1l0,0c0,0,0,0,0,0c0,0,0,0-0.1,0c-0.1,0-0.6,0.5-0.7,0.7c0,0.1-0.1,0.1-0.1,0.1H18
	c0.5-0.3,1.1-0.9,1.5-1.2c0.1-0.1,0.1-0.1,0.3-0.1h0.1c0.4,0,0.4-0.2,0.4-0.3c0-0.3-1.2-1-1.3-1c-0.1,0-0.1,0.1-0.1,0.2l0,0
	c-0.2,0.7-0.7,1.5-1.3,2.3c0,0.1-0.1,0.1-0.1,0.1h-0.1c0-0.5,0-0.9,0-1.3c0-0.4,0-0.4,0.2-0.4c0,0,0.1,0,0.2-0.1
	c0.2-0.1,0.3-0.2,0.3-0.3c0-0.4-1.5-0.6-1.7-0.6c0,0-0.1,0-0.1,0.1c0,0,0,0.1,0,0.1c0,0,0.2,0.5,0.2,2.6c-1.1,0-2.4-0.1-3.4-0.2
	l-0.1,0v0.1c0,0.2,0.5,0.9,0.8,0.9l0,0c0.9-0.1,1.7-0.1,2.4-0.1c-0.7,1-2.4,2.4-3.4,2.9c0-1.4,0-3.6,0-5c0-0.6,0-1.1,0-1.2
	c0-0.2,0-0.3,0.2-0.3c0,0,0,0,0.1,0l0,0c0,0,0,0,0.1-0.1h8.1c0.1,0,0.1,0.1,0.1,0.1c0,0.2,0,1.3,0,2.5c0,1.7,0,3.9,0,5
	c0,0.3,0.2,0.5,0.5,0.5c0.3,0,0.7-0.2,0.7-0.6v0c-0.1-1.5-0.1-4.1-0.1-6v-0.7C22.6,34.9,22.6,34.9,22.8,34.8z M23.4,48
	c0.1,0,0.3,0,0.4-0.1c0.2-0.2,0.7-0.4,1.2-0.6c0.7-0.3,0.8-0.4,0.8-0.5c0-0.1-0.2-0.1-0.3-0.1h-0.1c-2.6,0-6-0.9-7.5-3H25
	c0.3,0,0.4-0.2,0.4-0.3c0-0.3-1.2-1.5-1.6-1.5c-0.2,0-0.2,0.1-0.9,1l-0.1,0.1c0,0.1-0.1,0.1-0.2,0.1h-5.2c0,0,0,0,0,0
	c0,0,0-0.1,0-0.1c0.1-0.7,0.1-0.7,0.3-0.7c0,0,0.1,0,0.1,0c0.1,0,0.4-0.1,0.4-0.3c0-0.4-1.5-0.6-2-0.6c0,0-0.1,0-0.1,0.1l0,0.1
	c0,0.2,0,0.3,0,0.5c0,0.3,0,0.5-0.1,0.9l0,0.3h-1.1c-1,0-4.2-0.1-6-0.3l-0.1,0v0.1c0,0.3,0.6,1,0.9,1l0,0c1.5-0.2,4-0.2,5.1-0.2h1
	c-0.8,2.1-3.6,3.8-6.8,4.2c-0.2,0-0.5,0.1-0.5,0.2c0,0.1,0.1,0.1,0.4,0.1c1.4,0,6.9-0.8,8.2-4.5C18.6,46.9,22.5,48,23.4,48z
	 M33.6,31.9C33.6,31.9,33.6,31.9,33.6,31.9c-0.4,1-3.2,4.4-5.5,6.2c-0.3,0.3-0.4,0.4-0.4,0.4c0,0,0,0.1,0.1,0.1
	c0.1,0,1.6-0.7,3.7-2.5c0.5,0.2,1.1,0.5,1.5,0.9c0.2,0.2,0.4,0.3,0.6,0.3c0.3,0,0.6-0.3,0.6-0.6c0-0.6-0.7-1-1.7-1
	c-0.2,0-0.4,0-0.6,0c0.6-0.5,1.2-1.1,1.8-1.7h3.1c0,0,0.1,0,0.1,0c-0.2,0.5-4,5.6-9,7.5c-0.7,0.3-0.7,0.4-0.7,0.4
	c0,0.1,0.1,0.1,0.1,0.1c0.1,0,0.3-0.1,0.7-0.1c3.6-0.9,6.9-3.2,10-7c0.2-0.3,0.4-0.3,0.7-0.4l0,0c0.2-0.1,0.4-0.2,0.4-0.4
	c0-0.5-1.3-1.1-1.5-1.1c0,0-0.1,0-0.2,0.1L37.5,33c-0.1,0.1-0.2,0.1-0.3,0.3l0,0c0,0-0.1,0.1-0.2,0.1h-2.6l0,0c0,0,0.1-0.1,0.1-0.1
	c0.1-0.1,0.2-0.2,0.3-0.2h0.2c0.4,0,0.5-0.1,0.5-0.3c0-0.3-1.5-1-1.7-1C33.6,31.8,33.6,31.8,33.6,31.9z M41.1,41
	c0.2-0.3,0.4-0.3,0.7-0.4l0.1,0c0.2-0.1,0.5-0.2,0.5-0.4c0-0.4-1.3-1.2-1.5-1.2c-0.1,0-0.2,0.1-0.5,0.4c0,0,0,0,0,0
	c0,0.1-0.1,0.1-0.2,0.1h-3.4c0,0,0.1-0.1,0.1-0.1c0.1-0.1,0.2-0.1,0.2-0.2l0,0c0.2-0.2,0.2-0.2,0.5-0.2c0.3,0,0.6-0.1,0.6-0.3
	c0-0.3-1.5-1.1-1.7-1.1c-0.1,0-0.1,0.1-0.1,0.1c0,0,0,0,0,0.1c-0.5,1.2-3.9,4.6-6.9,6.4c-0.4,0.2-0.5,0.3-0.5,0.4v0l0,0
	c0,0,0,0,0.1,0c0.2,0,2-0.6,4.5-2.4c0,0,0,0,0,0c0,0,0,0,0,0c0.6,0.2,1.3,0.7,1.7,1.1c0.2,0.2,0.5,0.3,0.7,0.3
	c0.4,0,0.7-0.3,0.7-0.7c0-0.7-0.8-1.1-2-1.1c-0.2,0-0.5,0-0.7,0c0.7-0.6,1.4-1.1,2.1-1.8h4c0,0,0.1,0,0.1,0c0,0-0.1,0.1-0.1,0.1
	c-2.9,4-6.7,6.4-11.6,7.2c-0.8,0.1-0.9,0.2-0.9,0.3c0,0.1,0.1,0.1,0.4,0.1c0.1,0,0.3,0,0.5,0C33.7,47.6,37.9,45.2,41.1,41z M59,40.1
	c0.1,0,0.1,0,0.2-0.1c0.2-0.1,0.7-0.3,1-0.4c0.5-0.1,0.6-0.2,0.6-0.3c0-0.1-0.1-0.1-0.2-0.1c-1.7-0.4-3.3-1.2-4.2-2.3H59
	c0.4,0,0.4-0.2,0.4-0.3c0-0.2-0.8-0.9-1.2-1.1l0,0c0,0,0,0-0.1,0c-0.1,0-0.3,0-0.8,0.8c0,0.1-0.1,0.1-0.2,0.1h-0.5
	c-0.1,0-0.1,0-0.2,0c-0.1,0-0.1,0-0.2,0c0,0,0-0.1,0-0.1c0-0.1,0-0.1,0-0.2c0-0.4,0-0.4,0.2-0.4c0,0,0.1,0,0.1-0.1
	c0.2-0.1,0.3-0.2,0.3-0.3c0-0.4-1.5-0.6-1.6-0.6c0,0-0.1,0-0.1,0.1c0,0,0,0.1,0,0.1c0.1,0.3,0.1,0.8,0.1,1.1c0,0.1,0,0.2,0,0.2
	l0,0.1c-0.6,0-1.3-0.1-2-0.2l-0.1,0v0.1c0,0.2,0.5,0.8,0.7,0.8l0,0c0.4,0,0.8-0.1,1.1-0.1c-0.5,1-2.1,2.5-3.3,3.1
	c-0.2,0.1-0.3,0.2-0.3,0.2c0,0.1,0.1,0.1,0.1,0.1c0.2,0,2.3-0.5,3.6-2.3c0,0.4,0,0.9-0.1,1.6v0.1c0,0.3,0.2,0.5,0.4,0.5
	c0.1,0,0.3-0.1,0.5-0.2c0.1-0.1,0.1-0.2,0.1-0.4l0-0.2c0-0.9-0.1-1.5-0.1-2.1C57.4,39.6,59,40.1,59,40.1z M54,45.4h5.8
	c0.3,0,0.4-0.1,0.4-0.3c0-0.3-1-1.3-1.7-1.3c-0.2,0-0.8,0.7-1,1c0,0.1-0.1,0.1-0.2,0.1H54c0-0.4,0-0.8,0-1.2h4.3
	c0.4,0,0.4-0.2,0.4-0.3c0-0.5-1.3-1.2-1.5-1.2c-0.1,0-0.3,0.1-0.9,0.8c0,0-0.1,0.1-0.2,0.1H54c0-0.8,0-0.8,0.3-0.9
	c0.2-0.1,0.3-0.2,0.3-0.3c0,0,0,0,0-0.1c1.1-0.1,1.9-0.2,2.4-0.3H57c0.1,0,0.2,0,0.3,0.1s0.2,0.1,0.3,0.1c0.2,0,0.3-0.1,0.3-0.2
	c0-0.4-0.9-1.3-1-1.3c0,0-0.1,0-0.1,0c0,0,0,0-0.1,0l0,0c-0.2,0.1-0.5,0.3-0.9,0.4c-1.9,0.4-5.6,0.9-8,1c-0.3,0-0.3,0.1-0.3,0.2
	c0,0.2,0.2,0.3,2,0.3c1.1,0,2.4-0.1,3.4-0.1c0,0.2,0,0.4,0,0.5c0,0.1,0,0.2,0,0.3V43h-0.2c-0.9,0-2.8,0-4.7-0.2l-0.1,0v0.1
	c0,0.2,0.5,0.9,0.8,0.9l0,0c1.4-0.1,2.9-0.2,3.9-0.2h0.3v1.2h-0.5c-0.9,0-3.6,0-5.6-0.3l-0.1,0v0.1c0,0.3,0.5,0.9,0.9,0.9l0,0
	c1.7-0.1,3.8-0.2,4.7-0.2h0.5c0,0.3,0,0.6,0,0.8c0,0.4-0.4,0.6-1,0.6c-0.4,0-0.9-0.1-1.8-0.2c0,0-0.1,0-0.1,0c-0.1,0-0.1,0-0.1,0
	c0,0-0.1,0-0.1,0l0,0v0c0,0.1,0.1,0.2,0.7,0.4c0.5,0.2,1.2,0.6,1.3,0.8l0,0c0.1,0.1,0.1,0.2,0.3,0.2c0.4,0,2.1-0.3,2.1-1.8
	c0-0.2,0-0.5,0-0.7C54,45.5,54,45.4,54,45.4z M52.2,33.8v0.1H48c0,0,0,0,0,0c0,0,0,0,0,0C47.6,33.6,46.4,33,46,33
	c-0.1,0-0.1,0-0.1,0.1c0,0,0,0.1,0,0.1c0.1,0.5,0.4,2.2,0.4,5.2c0,4.2-0.7,7-2.1,8.4c-0.1,0.1-0.4,0.4-0.4,0.5c0,0.1,0,0.1,0.1,0.1
	c0,0,2.9-1,3.5-7c0.7-0.3,2-1,2.9-2.2c0,0.6-0.1,1.2-0.1,2v0.1c0,0.4,0.2,0.5,0.4,0.5c0.1,0,0.3-0.1,0.5-0.2
	c0.1-0.1,0.1-0.2,0.1-0.4c-0.1-1-0.1-1.8-0.1-2.5c0.4,0.2,0.8,0.6,1,0.9c0.1,0.2,0.3,0.3,0.5,0.3c0.3,0,0.6-0.2,0.6-0.6
	c0-0.6-0.7-0.9-2.1-1c0-0.1,0-0.2,0-0.3c0-0.1,0-0.2,0-0.2h1.9c0.3,0,0.3-0.1,0.3-0.3c0-0.3-0.4-0.6-0.9-0.9c0,0-0.1,0-0.1,0
	c-0.2,0-0.3,0.2-0.6,0.6c0,0.1-0.1,0.1-0.1,0.1h-0.4c0,0,0-0.1,0-0.1c0-0.1,0-0.1,0-0.2c0-0.4,0-0.4,0.2-0.4c0,0,0.1,0,0.2-0.1
	c0.2-0.1,0.3-0.2,0.3-0.3c0-0.4-1.4-0.6-1.6-0.6c0,0-0.1,0-0.1,0.1c0,0,0,0.1,0,0.1c0.1,0.3,0.1,0.8,0.1,1.1c0,0.1,0,0.2,0,0.2v0.1
	c-0.6,0-1.3,0-2.3-0.2l-0.1,0v0.1c0,0.2,0.4,0.8,0.7,0.8l0,0c0.5,0,1-0.1,1.5-0.1c-0.3,0.7-1.6,2.2-2.7,3c0.1-1,0.1-2,0.1-2.8
	c0-0.6,0-1.2,0-1.7v-0.4c0-0.3,0-0.4,0.4-0.6h11.6c0.4,0,0.5-0.2,0.5-0.3c0-0.4-1.2-1.3-1.6-1.5c-0.1,0-0.1,0-0.1,0
	c-0.3,0-0.4,0.2-1,1.1l0,0c0,0.1-0.1,0.1-0.2,0.1h-3.6c0-0.1,0-0.2,0-0.3c0-0.1,0-0.1,0-0.2c0-0.4,0-0.4,0.3-0.6
	c0.1,0,0.1-0.1,0.2-0.1c0.2-0.1,0.3-0.3,0.3-0.4c0-0.5-2.2-0.7-2.2-0.7c0,0-0.1,0-0.1,0.1c0,0,0,0.1,0,0.1
	C52.1,32.4,52.2,33,52.2,33.8z M64.3,35L64.3,35c0.6,0.4,1.1,1,1.4,1.4c0.2,0.3,0.5,0.5,0.7,0.5c0.4,0,0.7-0.4,0.7-0.8
	c0-1-1.6-1.5-2.7-1.5c-0.2,0-0.3,0-0.3,0.1C64.1,34.9,64.2,34.9,64.3,35z M71.1,44.5c0-0.7,0-1.4,0-2h-1.9c-0.4,3-2.2,4.8-5.8,5.7
	c-0.2,0.1-0.4,0.1-0.6,0.1c-0.1,0-0.2,0-0.2-0.1c0-0.1,0.3-0.3,0.6-0.4c2.8-0.9,4.3-2.6,4.7-5.3c-1.1,0-2.3,0.1-3.2,0.2l0,0
	c-0.4,0-0.9-0.7-0.9-1v-0.1l0.1,0c1.3,0.2,3,0.2,4.1,0.2c0-0.2,0-0.5,0-0.7c0-0.1,0-1.1-0.1-1.7c-0.2,0-0.3,0-0.4,0
	c-0.1,0-0.2,0-0.2,0l0,0c-0.3,0-0.6-0.4-0.8-0.7c-2.2,1.8-4.2,2.4-4.3,2.4c-0.1,0-0.1,0-0.1-0.1c0,0,0-0.1,0.5-0.4
	c4-2.2,6.5-6.8,6.5-7.1c0,0,0,0-0.1,0h-0.4c-0.5,0-1.6,0-2.7,0.2l0,0c-0.3,0-0.9-0.8-0.9-1v-0.1l0.1,0c1.3,0.2,2.9,0.3,3.5,0.3h0.6
	c0.1,0,0.2,0,0.3-0.1c0.1,0,0.1-0.1,0.2-0.1c0.2-0.1,0.3-0.2,0.4-0.2c0.2,0,1.3,0.7,1.3,1c0,0.1-0.1,0.2-0.2,0.3
	c0.4,0.5,0.8,1,1.3,1.4c0.3-0.3,1-1.2,1.5-2.3c0-0.1,0.1-0.2,0.2-0.2c0.1,0,1.6,0.9,1.6,1.3c0,0.1,0,0.3-0.4,0.3c-0.1,0-0.2,0-0.3,0
	l0,0c-0.1,0-0.1,0-0.1,0c-0.1,0-0.1,0-0.2,0.1c0,0-0.1,0-0.1,0.1c-0.5,0.4-1.1,0.7-1.8,1.2c0.4,0.4,0.8,0.8,1.4,1.2
	c1-1,1.3-1.4,1.7-2.1c0,0,0-0.1,0-0.1c0,0,0-0.1,0.1-0.1c0.1,0,1.6,1,1.6,1.4c0,0.1-0.1,0.2-0.3,0.2c-0.1,0-0.2,0-0.4-0.1l-0.1,0
	c-0.1,0-0.2,0-0.3,0c0,0-0.1,0-0.1,0.1l-0.1,0c-0.4,0.3-1,0.6-1.7,1c1.6,1.1,3.2,1.8,4.5,2c0.1,0,0.2,0,0.2,0.1
	c0,0.1-0.2,0.2-0.7,0.4c-0.5,0.2-1,0.4-1.2,0.6c-0.1,0.1-0.2,0.1-0.2,0.1c-0.6,0-4.2-2.4-6.5-6.4c-0.1,0.1-0.1,0.1-0.3,0.3
	c-0.9,1.7-2.1,3.1-3.4,4.3c1.2,0.1,2.9,0.2,3.8,0.2h1.1c0.1,0,0.1,0,0.2-0.1c0.2-0.3,0.4-0.6,0.6-0.9c0.1-0.1,0.1-0.1,0.2-0.1
	c0,0,0.1,0,0.1,0c0,0,0,0,0,0l0,0c0.7,0.3,1.3,1,1.3,1.3c0,0.1-0.1,0.3-0.4,0.3h-0.9c0,0,0,0.1,0,0.1c0,0.1-0.1,0.2-0.3,0.3
	c-0.2,0.1-0.3,0.2-0.3,2.1h1.5c0.1,0,0.2-0.1,0.2-0.1c0.2-0.3,0.7-1,1-1c0,0,0.1,0,0.1,0c0,0,0,0,0,0l0,0c0.6,0.2,1.5,0.9,1.5,1.3
	c0,0.1-0.1,0.3-0.5,0.3h-3.9v2.8c0,0.7,0,1.3,1.8,1.3c0.4,0,0.7,0,1.1-0.1c0.9-0.1,1-0.6,1.3-2.2l0-0.2c0.1-0.3,0.1-0.3,0.2-0.3
	c0.1,0,0.1,0.2,0.2,0.7c0.1,0.5,0.2,1.1,0.3,1.2c0.3,0.2,0.4,0.4,0.4,0.7c0,0.2-0.2,1.3-3.7,1.3c-2.1,0-2.9-0.6-2.9-2.1v-0.1
	C71.1,45.2,71.1,44.8,71.1,44.5z M69.3,41.9h1.8v-1c0-0.5,0-0.9-0.1-1.6h-0.5c-0.2,0-0.5,0-0.8,0c0,0,0,0.1,0,0.1
	c0,0.1-0.1,0.2-0.3,0.3l0,0c-0.2,0.1-0.2,0.1-0.2,0.5v0.5C69.4,41.2,69.4,41.6,69.3,41.9z M113.9,46.9h-9.6c-1.1,0-3.6,0-5.2,0.2
	l0,0c-0.4,0-1-0.7-1-1V46l0.1,0c1,0.1,2.6,0.2,4.9,0.3c0.5-1.9,1.2-5.4,1.4-6.6c-0.9,0-2.7,0.1-3.8,0.2l0,0c-0.3,0-0.9-0.7-0.9-1
	v-0.1l0.1,0c1.3,0.2,3.5,0.2,4.7,0.2c0.6-3.1,0.6-3.9,0.6-4.4v-0.1c-1.3,0-3.8,0.1-5.1,0.2l0,0c-0.4,0-0.9-0.7-0.9-1v-0.1l0.1,0
	c1.8,0.2,5.4,0.3,6.4,0.3h4.4c0.1,0,0.2-0.1,0.2-0.1c0.5-0.8,0.8-1.2,1.1-1.2c0,0,0.1,0,0.1,0c0,0,0,0,0,0l0,0
	c0.6,0.2,1.6,1.4,1.6,1.7c0,0.1-0.1,0.3-0.4,0.3h-5.5c0,0,0,0.1,0,0.1c0,0.1-0.1,0.2-0.3,0.3c-0.1,0-0.1,0-0.1,0.1c0,0-0.1,0-0.1,0
	c-0.1,0-0.1,0.3-0.7,3.5l-0.1,0.4h3.1c0.1,0,0.1,0,0.2-0.1c0.1-0.1,0.4-0.5,0.6-0.5c0.1,0,1.6,0.7,1.6,1.1c0,0.2-0.1,0.3-0.5,0.5
	c-0.3,0.2-0.3,0.2-0.4,0.7c0,1-0.1,3.8-0.1,5.2l0,0.4h0.7c0.1,0,0.2-0.1,0.2-0.1c0,0,0.8-1.3,1.1-1.3s1.8,1.2,1.8,1.7
	C114.3,46.7,114.3,46.9,113.9,46.9z M109.1,46.3c0.1-1.4,0.1-4.7,0.1-6.1v-0.5c0-0.1,0-0.1-0.1-0.1h-3.4c-0.4,2.2-1,5.1-1.3,6.6
	H109.1z M124.3,39.6c0,0.1,0,0.3,0,0.4c0,0.1,0,0.3,0.1,0.5v0c0,0.4-0.3,0.6-0.7,0.6c-0.2,0-0.5-0.1-0.5-0.4h-1.8c0,0.1,0,0.2,0,0.3
	c0,0.1,0,0.2,0,0.3c0,0.1,0,0.3-0.1,0.4c-0.1,0.1-0.3,0.2-0.5,0.2c-0.2,0-0.5-0.1-0.5-0.5v-0.1l0-0.3c0-0.5,0.1-1,0.1-1.7
	c0-0.1,0-0.8-0.1-1.4c0,0,0,0,0-0.1c0,0,0,0,0-0.1c0-0.1,0-0.1,0.1-0.1c0.1,0,1.1,0.3,1.4,0.5l0,0h1.2c0.1,0,0.1,0,0.2-0.1
	c0.1-0.1,0.2-0.3,0.3-0.4l0,0c0,0,0,0,0,0c0,0,0.1,0,0.1,0c0.1,0,1.3,0.5,1.3,1c0,0.2-0.2,0.3-0.3,0.4l0,0
	C124.3,39.3,124.3,39.3,124.3,39.6z M121.4,40.2h1.8c0-0.3,0-0.5,0-0.7c0-0.2,0-0.4,0-0.5c0,0,0-0.1-0.1-0.1h-1.4c0,0,0,0,0,0
	c0,0,0,0-0.1,0c-0.2,0.1-0.2,0.1-0.2,0.4V40.2z M119.4,44c-0.5,0.7-1.1,1.5-2,1.9c-0.7,0.2-0.9,0.7-0.9,1c0,0.3,0.2,0.7,0.7,0.7
	c1.3,0,2.5-1.7,2.5-3.4c0-0.1,0-0.3-0.1-0.3C119.5,43.9,119.4,43.9,119.4,44z M123.8,35.5c0,0-0.1,0-0.1,0c-0.2,0-0.6,0.5-0.7,0.8
	c0,0.1-0.1,0.1-0.2,0.1h-0.3c-0.3,0-1.3,0-2.6-0.2l-0.1,0v0.1c0,0.2,0.5,0.9,0.8,0.9l0,0c0.9-0.1,1.3-0.2,1.8-0.2h2.1
	c0.4,0,0.4-0.2,0.4-0.3C124.9,36.4,124.7,35.9,123.8,35.5z M125.3,45.5c0.4,0,0.7-0.4,0.7-0.8c0-1.5-2.7-1.5-2.8-1.5
	c-0.1,0-0.1,0-0.1,0.1c0,0,0,0.1,0.1,0.2l0.1,0.1c0.5,0.4,1.1,1,1.3,1.5v0C124.7,45.3,125,45.5,125.3,45.5z M125.9,47.8
	c1.7-0.1,2.5-0.7,2.5-1.3c0-0.2-0.1-0.4-0.4-0.6c-0.2-0.1-0.3-0.7-0.4-1.1c-0.1-0.4-0.1-0.5-0.2-0.5c-0.1,0-0.1,0.1-0.1,0.3
	c-0.3,1.9-0.7,2.2-2.8,2.2c-2.3,0-2.3-0.3-2.3-0.6c0-0.4,0-0.4,0-0.7l0-0.2c0-0.4,0-0.4,0.3-0.5c0.2-0.1,0.4-0.3,0.4-0.4
	c0-0.5-1.8-0.6-1.9-0.6c0,0-0.1,0-0.1,0.1c0,0,0,0.1,0,0.1c0.1,0.5,0.1,1.1,0.1,1.2c0,0.2,0,0.4,0,0.7c0,0.2,0,0.4,0,0.6v0.1
	c0,0.6,0.4,1.4,3.1,1.4C124.6,47.9,125.3,47.8,125.9,47.8L125.9,47.8z M130.2,46.5c0.2,0.4,0.5,0.7,0.9,0.7c0.4,0,0.7-0.4,0.7-0.8
	c0-1.6-3.2-2.4-3.6-2.4c-0.1,0-0.2,0-0.2,0.1c0,0.1,0.1,0.1,0.1,0.2C129.1,44.9,129.7,45.6,130.2,46.5z M125,34.4h-5.2
	c0,0-0.1,0-0.1-0.1c-0.4-0.3-1.7-0.8-1.9-0.8c-0.1,0-0.1,0-0.1,0.1c0,0,0,0.1,0,0.1c0.1,0.5,0.3,2,0.3,3.7c0,2-0.3,5-2.5,6.8
	c-0.4,0.3-0.4,0.4-0.4,0.5c0,0.1,0,0.1,0.1,0.1c0.2,0,0.5-0.2,0.7-0.3c3-1.8,3.4-5.1,3.4-8.1v-1.1c0-0.3,0-0.3,0.2-0.4
	c0,0,0.1,0,0.1-0.1c0,0,0,0,0,0h5.4c0.3,1.8,0.7,3.3,1.4,4.6c-1.5,1.8-3.4,2.9-5.8,3.4c-0.7,0.2-0.7,0.2-0.7,0.3
	c0,0.1,0.2,0.1,0.2,0.1c0.8,0,4.2-0.5,6.8-2.8c1.8,2.6,4.1,2.6,4.1,2.6c0.6,0,0.8-0.3,0.8-0.6c0-0.2-0.1-0.4-0.3-0.6
	c0,0-0.1-0.2-0.1-0.4c0-0.4,0.1-1,0.2-1.5c0.1-0.3,0.1-0.6,0.1-0.7c0-0.1,0-0.1-0.1-0.1c-0.1,0-0.1,0-0.2,0.2
	c-0.4,0.9-1.1,2.1-1.6,2.1c-0.1,0-1.3-0.4-2.2-1.7c0.6-0.6,1.1-1.3,1.6-2c0.1-0.1,0.1-0.2,0.3-0.2h0.2c0.3,0,0.5-0.2,0.5-0.3
	c0-0.4-1.3-1.3-1.5-1.3c-0.1,0-0.1,0.1-0.1,0.1l0,0c-0.1,0.4-0.6,1.4-1.5,2.6c-0.5-1-0.8-2.2-0.9-3.8h4.9c0.4,0,0.5-0.2,0.5-0.3
	c0-0.2-0.8-1.2-1.6-1.5c-0.1,0-0.1,0-0.1,0c-0.3,0-0.6,0.5-1.1,1.1c0,0.1-0.1,0.1-0.2,0.1h-2.4c0-0.7,0-1.1,0-1.2
	c0-0.3,0-0.3,0.2-0.4l0,0c0.2-0.1,0.3-0.2,0.3-0.4c0-0.1,0-0.1-0.1-0.2c0.4,0.3,1,0.8,1.2,1.2c0.2,0.4,0.5,0.5,0.6,0.5
	c0.3,0,0.6-0.3,0.6-0.7c0-1.3-2.4-1.3-2.4-1.3c-0.2,0-0.3,0-0.3,0.1c0,0,0,0.1,0.1,0.2c-0.5-0.3-1.7-0.4-1.8-0.4
	c-0.1,0-0.2,0-0.2,0.1c0,0.1,0,0.1,0.1,0.2C124.7,32.3,124.9,33.8,125,34.4z M142.1,47.7c-2.1,0-3.5-1.3-3.5-2.6
	c0-1.1,1-2.4,2.8-3.5c0-1.2-0.2-2.6-1.1-2.6c-0.4,0-1,0.2-1.8,1.4c-0.1,0.1-0.1,0.3-0.2,0.4c-0.1,0.1-0.1,0.2-0.2,0.3
	c-0.3,0.6-0.8,1.4-1.3,1.4c-0.1,0-0.5-0.1-0.5-0.7c0-0.4,0.3-0.9,0.7-1.3c1.7-1.6,2.2-2.5,3-4.3c0,0,0-0.1,0-0.1
	c-0.3,0.1-0.7,0.1-1,0.1c-1.9,0-2.3-1.3-2.3-1.7c0-0.1,0.1-0.1,0.1-0.1c0.1,0,0.2,0.1,0.5,0.2c0.5,0.3,1,0.5,1.5,0.5
	c0.1,0,0.8,0,1.5-0.3c0-0.2,0-0.4,0-0.5c0-0.6-0.2-0.9-0.7-1l0,0c-0.1,0-0.3-0.1-0.3-0.2c0-0.2,0.6-0.4,0.8-0.4
	c0.2,0,0.9,0.1,1.1,0.9c0,0,0.1,0,0.2,0c0.1,0,0.3,0,0.4,0c0.3,0,0.5,0,0.5,0c0.1,0,0.2-0.1,0.2-0.1c0.3,0,0.4,0.2,0.4,0.5
	c0,0.6-0.7,1.2-2.2,1.8l-0.1,0.1c-0.6,1.2-0.9,1.9-1.3,2.6c0.3-0.1,0.6-0.2,0.9-0.2c0.8,0,1.6,0.7,1.9,1.7c1.1-2.7,2.8-3.7,4-3.7
	c1,0,2.3,0.8,2.3,1.6c0,0.7-0.8,1.4-2,1.9l-0.1,0.1c-1.2,0.5-2.7,1.1-3.9,1.6c0,0.4,0,0.7,0,1.1c0,0.3,0,0.5,0,0.8
	c-0.1,0.6-0.5,1.1-0.9,1.1c-0.1,0-0.5-0.1-0.5-0.8c0,0,0-0.1,0-0.1c0,0,0-0.1,0-0.1c0-0.2,0.1-0.3,0.1-0.5c0.1-0.2,0.1-0.4,0.1-0.8
	l0-0.2c-1.3,0.8-2,1.7-2,2.5c0,0.4,0.4,1.5,2.3,1.5c0.7,0,1.5-0.2,2.1-0.5c0.2-0.1,0.4-0.2,0.6-0.2c0.4,0,0.7,0.3,0.7,0.6
	C145,47.2,143.5,47.7,142.1,47.7z M144.1,40.3c0.6-0.3,1.3-0.6,1.8-0.9c0.8-0.4,1.2-0.8,1.2-1.3c0,0-0.1-0.9-1.1-0.9
	c-1.6,0-3.1,2.5-3.6,3.9C142.9,40.9,143.5,40.6,144.1,40.3z M141.5,34.1C141.4,34.1,141.4,34.1,141.5,34.1L141.5,34.1
	c-0.1,0.2-0.1,0.4-0.1,0.6c0.3-0.2,0.5-0.3,0.5-0.4C141.8,34.3,141.5,34.2,141.5,34.1z M163.2,37.3c0-0.1,0-0.2,0-0.2
	c0.4,1.9,2.1,4.4,3.2,4.4c0.4,0,0.6-0.3,0.6-0.7c0-0.3-0.2-0.7-0.6-0.9c-2.3-1.2-2.9-3.7-2.9-4.9v-0.2c0-0.3,0-0.7,0-1
	c0-0.4-0.4-0.9-0.6-0.9c-0.6,0-0.7,0.9-0.7,1.2c0,0.4,0.1,0.9,0.2,1.3c0.1,0.5,0.2,0.9,0.2,1.4c0,0.4-0.2,3.4-0.4,4.6
	c-0.3,1.3-0.7,2.2-1.4,2.9c-0.9,0.9-2.2,1.4-3.2,1.4c-1.7,0-2.5-1.7-2.5-3.3c0-2.8,2.2-6.5,3.4-7c0.2-0.1,0.5-0.1,0.7-0.2
	c0.4-0.1,0.6-0.3,0.6-0.5c0-0.3-0.4-0.6-1-0.6c-0.4,0-0.8,0.1-1.3,0.4c-0.7,0.4-1.3,0.5-1.6,0.5c-0.4,0-0.7-0.1-0.8-0.2
	c-0.1-0.2-0.2-0.2-0.3-0.2c-0.2,0-0.2,0.5-0.2,0.6c0,0.5,0.4,1,1,1c0.3,0,0.6-0.1,1-0.3c-0.1,0.2-0.2,0.4-0.3,0.6
	c-0.3,0.5-0.7,1.3-1.1,2.1c-0.5,1.2-1.1,2.6-1.1,4c0,2.2,1.2,4.4,3.4,4.4c1.4,0,2.9-0.8,4-2c1.4-1.6,1.6-3.9,1.6-7.3
	C163.2,37.6,163.2,37.5,163.2,37.3z M176.6,34.4c-0.1,0.1-0.2,0.1-0.3,0.2c-1,0.6-2,1.2-2,2.5c0,0.1,0,0.2,0,0.4c0,0.1,0,0.3,0,0.4
	c0,0.5-0.1,1-0.1,1.1c0,0.1,0,0.3-0.1,0.5c-0.1,0.9-0.3,1.9-0.3,2.7c0,2.1,1.1,2.8,1.6,2.8c0.3,0,0.5-0.2,0.8-0.6
	c0.1-0.2,0.3-0.4,0.4-0.6c0.5-0.7,0.8-1.1,1.5-1.6c0.4-0.3,0.8-0.4,1.2-0.4c1,0,2,0.7,2,1.9c0,1.4-1.7,3.3-4.9,4.1
	c-0.8,0.2-0.8,0.3-0.8,0.3c0,0.1,0.1,0.1,0.3,0.1c2.8,0,6.8-1.6,6.8-4.5c0-1.4-1.4-2.6-3-2.6c-0.7,0-1.4,0.2-2,0.6
	c-0.5,0.3-0.9,0.7-1.2,0.9c-0.2,0.2-0.4,0.3-0.6,0.5c-0.2,0.2-0.4,0.3-0.6,0.3c-0.4,0-0.6-0.5-0.6-1.5c0-0.7,0.1-1.6,0.3-2.2
	c0.1-0.3,0.1-0.5,0.1-0.6c0.1-0.4,0.2-0.7,0.2-1c0-0.3,0-0.5-0.1-0.9c0-0.1-0.1-0.3-0.1-0.5c0-0.4,0.1-1.2,1.3-1.2
	c0.3,0,0.9,0,1.2,0.2c0,0,0.1,0,0.1,0c0.2,0.1,0.4,0.1,0.5,0.1c0.3,0,0.7-0.4,0.7-0.9c0-1.2-2.3-2.2-2.5-2.2c-0.1,0-0.1,0.1-0.1,0.1
	c0,0.1,0,0.1,0.1,0.2c0,0.1,0.1,0.1,0.1,0.2c0,0.1,0.1,0.2,0.2,0.3c0.1,0.1,0.2,0.3,0.3,0.5c0,0,0,0,0,0c0,0,0,0,0,0
	C177.1,34.1,176.7,34.3,176.6,34.4z M193.5,39.5c0-0.3,0.1-0.5,0.2-0.7c0.4-0.7,1.2-1.5,1.9-2.2c0.5-0.5,0.9-0.9,1.2-1.3
	c0.3-0.3,0.5-0.7,0.5-1.2c0-0.7-0.9-1.5-1.5-1.5c-0.2,0-0.3,0.1-0.3,0.2c0,0.1,0.1,0.2,0.2,0.4c0.1,0.1,0.1,0.3,0.1,0.4
	c0,0.3-0.2,0.7-0.5,1.1c-0.2,0.3-0.6,0.8-0.9,1.2c-0.6,0.8-1.3,1.7-1.6,2.3c-0.3,0.5-0.4,0.9-0.4,1.3c0,0.5,0.2,0.9,0.5,1.3
	c0.7,0.9,2.7,3.6,2.9,6.1c0,0.5,0.3,0.8,0.6,0.8c0.4,0,0.8-0.5,0.8-1.2c0-2.1-2.3-4.9-3.7-6.3C193.6,40,193.5,39.7,193.5,39.5z
	 M208.3,48c0.4,0,0.8-0.4,0.8-0.9c0-1.6-3.1-2.4-4-2.4c-0.1,0-0.2,0-0.2,0.1c0,0.1,0.1,0.1,0.2,0.2c0.1,0,0.1,0.1,0.2,0.1
	c0.7,0.5,1.6,1.2,2.2,2.2v0C207.8,47.8,208,48,208.3,48z M1.5,64.1c0,0.1,0.1,0.1,0.2,0.3c0.6,0.4,1.1,1,1.4,1.5l0,0
	c0.3,0.5,0.6,0.6,0.8,0.6c0.4,0,0.7-0.4,0.7-0.8C4.6,64.5,3,64,1.9,64C1.6,64,1.5,64,1.5,64.1z M16.1,65.5c0,0.1-0.1,0.3-0.5,0.3
	h-3.5c0.3,0.1,0.4,0.2,0.4,0.3c0,0.1-0.2,0.3-0.5,0.3c-0.2,0-0.2,0.1-0.3,0.2l0,0c-0.2,0.4-0.5,0.9-0.7,1.3h1.8c0.1,0,0.1,0,0.2-0.1
	c0.3-0.5,0.4-0.5,0.6-0.5c0.1,0,1.4,0.7,1.4,1.1c0,0.2-0.2,0.3-0.4,0.5l-0.1,0c-0.3,0.2-0.3,0.2-0.3,1c0,0.8,0.1,1.9,0.1,3l0,0.3
	c0,0.4-0.4,0.6-0.7,0.6c-0.3,0-0.6-0.1-0.6-0.6v-0.2h-0.8c0,0,0,0.1,0,0.1c0,0.1-0.1,0.2-0.2,0.3l0,0C12,73.7,12,73.7,12,74.2
	c0,0.4,0,0.9,0,1.5v0.7c0,0.1,0,0.3,0,0.5c0,0.2,0,0.4,0,0.6c0,1.5-1.3,1.9-1.8,1.9c-0.2,0-0.3-0.1-0.4-0.3c-0.1-0.2-0.6-0.5-1-0.7
	c-0.6-0.3-0.7-0.4-0.7-0.5c0-0.1,0.1-0.1,0.1-0.1c0,0,0.1,0,0.2,0C9.2,78,9.6,78,10,78c0.6,0,0.9-0.2,0.9-0.6c0-0.4,0-1.1,0-1.7
	c0-1.2,0-2-0.1-2.4H9.6v0.3c0,0.1,0,0.3-0.1,0.4c-0.1,0.2-0.4,0.2-0.6,0.2c-0.3,0-0.5-0.2-0.5-0.5v-0.1c0.1-1.4,0.1-2.4,0.1-3.2
	c0-1.2-0.1-2.2-0.2-2.9c0,0,0-0.1,0-0.1c0,0,0,0,0,0c0-0.1,0.1-0.1,0.1-0.1c0.1,0,1.1,0.4,1.6,0.8l0,0h0.5c0.1-0.6,0.2-1.3,0.2-1.5
	c0-0.3,0-0.5,0-0.7h-3c0,0-0.1,0.1-0.2,0.1c0,0-0.1,0-0.1,0.1C7.3,66,7.3,66,7.3,66.6v0.6c0,0.2,0,0.4,0,0.7c0,2.8-0.1,8.7-4.3,11.1
	c-0.3,0.2-0.5,0.3-0.6,0.3c-0.1,0-0.1-0.1-0.1-0.1c0-0.1,0.1-0.2,0.4-0.4c3-2.2,3.4-7.1,3.4-10.5v-1c0-0.5-0.1-2-0.2-2.7
	c0-0.1,0-0.1,0-0.1c0-0.1,0-0.1,0.1-0.1c0.2,0,1.4,0.5,1.8,0.8l0,0h5.6c0,0,0.2,0,0.2-0.1c0.5-0.8,0.7-1,1-1
	C14.9,64.1,16.1,65.1,16.1,65.5z M9.6,70.2h3.7c0-0.5,0-1,0-1.4c0,0,0-0.1-0.2-0.1H10c0,0-0.1,0-0.1,0.1c0,0-0.1,0-0.1,0.1
	c-0.1,0.1-0.1,0.1-0.2,0.5l0,0.1C9.6,69.7,9.6,69.9,9.6,70.2z M9.6,70.8c0,0.6,0,1.2,0,1.8h3.6c0-0.6,0-1.2,0-1.8H9.6z M12.7,74.8
	c-0.1,0-0.1,0-0.1,0.1c0,0.1,0,0.1,0.1,0.2c1,0.8,1.7,1.8,2.1,2.7v0c0.2,0.4,0.4,0.6,0.7,0.6c0.4,0,0.7-0.4,0.7-0.9
	C16.1,75.9,12.7,74.8,12.7,74.8z M9.3,76.1c0.1-0.2,0.1-0.2,0.2-0.2h0.1c0.3,0,0.5-0.1,0.5-0.3c0-0.3-1.4-1.1-1.5-1.1
	c-0.1,0-0.1,0.1-0.1,0.2c0,0,0,0,0,0.1c-0.1,1-2.1,3.2-3.2,3.9C5.1,78.8,5,78.9,5,79c0,0.1,0.1,0.1,0.1,0.1
	C5.6,79.1,8.1,77.6,9.3,76.1z M3.1,78.2c0.2-0.4,0.3-0.9,0.1-1.4c-0.2-0.5-0.3-1-0.3-1.6c0-2.3,1.8-6.7,2.3-8
	c0.1-0.2,0.1-0.3,0.1-0.4c0,0,0-0.1-0.1-0.1C4.9,66.7,2,72.9,2,73c-0.3,0.7-0.7,0.8-1.4,0.8c-0.4,0-0.5,0.1-0.5,0.2
	c0,0.1,0.1,0.2,0.5,0.3c1.2,0.3,1.4,1,1.4,1.6c0,0.3,0,0.6-0.1,0.9c0,0.2-0.1,0.4-0.1,0.6v0.2c0,0.8,0.4,1.1,0.8,1.1
	C2.7,78.6,3,78.5,3.1,78.2z M0.2,68.3L0.2,68.3c0.6,0.3,1.3,0.9,1.6,1.3C2,69.9,2.3,70,2.4,70c0.4,0,0.7-0.4,0.7-0.8
	c0-0.9-1.2-1.2-2.3-1.2C0,67.9,0,68,0,68.1C0,68.2,0.1,68.2,0.2,68.3z M18.1,68.5c0.6,0.3,1.2,0.9,1.5,1.2c0.3,0.4,0.5,0.4,0.7,0.4
	c0.4,0,0.7-0.4,0.7-0.8c0-0.9-1.2-1.2-2.3-1.2c-0.8,0-0.8,0.1-0.8,0.2C17.8,68.3,17.9,68.4,18.1,68.5L18.1,68.5z M19.4,64.3
	c0,0.1,0.1,0.1,0.2,0.3c0.6,0.4,1.1,1,1.4,1.5l0,0c0.3,0.5,0.6,0.6,0.8,0.6c0.4,0,0.7-0.4,0.7-0.8c0-1.1-1.6-1.6-2.8-1.6
	C19.4,64.2,19.4,64.2,19.4,64.3z M27.5,67.3c0.1-0.1,0.1-0.2,0.2-0.2c0.1,0,0.5-0.1,0.5-0.3v0h5c0.4,0,0.5-0.2,0.5-0.3
	c0-0.4-0.9-1.2-1.4-1.4c-0.1,0-0.1,0-0.1,0c-0.1,0-0.3,0-0.9,1c0,0.1-0.2,0.1-0.2,0.1h-2.6c0-0.2,0-0.5,0-0.8c0-0.1,0-0.2,0-0.3
	c0-0.5,0-0.5,0.3-0.6c0.3-0.1,0.4-0.3,0.4-0.4c0-0.4-1.9-0.6-2-0.6c0,0-0.1,0-0.1,0.1c0,0,0,0.1,0,0.1c0.1,0.4,0.1,1.1,0.1,1.7v0.8
	c-1.1,0-2.9-0.1-4.5-0.3l-0.1,0v0.1c0,0.2,0.5,0.9,0.8,0.9l0,0c1.1-0.1,2-0.1,2.8-0.2c-0.1,1-0.4,2.1-0.5,2.6c-0.3,0-0.7,0-1.1,0
	c-0.3,0-0.9-0.1-1.4-0.2c-0.1,0-0.1,0-0.1,0c-0.1,0-0.1,0.1-0.1,0.1c0,0.1,0.6,1.5,1,1.5c0.1,0,0.2,0,0.2-0.1c0.1,0,0.2-0.1,0.3-0.1
	l0.1,0c2.5-0.4,4.7-0.7,6.5-1.2c0.3,0.3,0.5,0.6,0.6,0.8c0.2,0.4,0.5,0.6,0.8,0.6c0.4,0,0.7-0.4,0.7-0.8c0-1.4-3.1-2.4-3.9-2.4
	c-0.1,0-0.1,0.1-0.1,0.1c0,0.1,0.1,0.1,0.1,0.2c0.5,0.4,1,0.8,1.4,1.2c-1.2,0.2-2.7,0.3-4.2,0.4C26.7,68.8,27.2,67.8,27.5,67.3
	C27.5,67.4,27.5,67.4,27.5,67.3z M33.8,77.5c-0.2-0.1-0.3-1.3-0.3-2c-0.1-1-0.1-1-0.2-1c-0.1,0-0.1,0.1-0.1,0.4
	c-0.4,3-0.5,3.2-1.7,3.2c-0.7,0-0.7-0.4-0.8-0.7c0-0.5,0-1.6,0-2.6c0-2.5,0-2.5,0.4-2.6c0.2-0.1,0.3-0.2,0.3-0.4
	c0-0.1,0-0.2-0.3-0.3c-0.4-0.1-1.4-0.3-1.5-0.3c-0.1,0-0.2,0.1-0.2,0.1c0,0,0,0,0,0.1c0.1,0.5,0.1,1.2,0.1,1.4c0,0.2,0,0.7,0,1.3
	c0,0.9,0,2,0,2.9c0,1.3,0,2.2,2.2,2.2c0.8,0,2.5-0.1,2.5-0.9C34.3,77.9,34.1,77.7,33.8,77.5z M21.1,77c-0.2-0.5-0.3-1.1-0.3-1.6
	c0-1.7,0.7-3.6,2.1-7.3c0-0.1,0.1-0.4,0.1-0.5c0-0.1,0-0.1-0.1-0.1c-0.2,0-0.9,1.3-3,5.4l-0.1,0.2c-0.4,0.7-0.7,0.8-1.4,0.8
	c-0.3,0-0.5,0.1-0.5,0.2c0,0.1,0.1,0.2,0.5,0.3c1.2,0.3,1.4,1,1.4,1.6c0,0.3,0,0.6-0.1,0.9c0,0.2-0.1,0.4-0.1,0.7v0.2
	c0,0.9,0.4,1.3,0.8,1.3c0.2,0,0.4-0.1,0.6-0.3C21.3,78.3,21.3,77.7,21.1,77z M26.9,71.1c-0.1,0-0.2,0.1-0.2,0.1c0,0,0,0.1,0,0.1
	c0.1,0.4,0.1,1.1,0.1,2.2c0,1.3-0.1,3.6-0.1,4.7v0.1c0,0.4,0.3,0.5,0.6,0.5c0.2,0,0.4-0.1,0.6-0.2c0.1-0.1,0.2-0.2,0.1-0.4l0-0.3
	c0-1,0-2.4,0-3.6c0-0.8,0-1.4,0-1.7c0-0.4,0.1-0.4,0.4-0.5c0.1,0,0.2-0.2,0.2-0.3C28.7,71.4,27.7,71.1,26.9,71.1z M26,71.4
	c-0.1-0.1-1.4-0.3-1.6-0.3c-0.1,0-0.1,0.1-0.1,0.1l0,0.4c0.1,0.7,0.1,0.9,0.1,1.3c0,2.8-1.2,5.1-3.4,6.1c-0.2,0.1-0.4,0.2-0.4,0.3
	c0,0,0,0.1,0.2,0.1c0,0,4.8-0.9,4.8-6.8v-0.4c0-0.2,0-0.2,0.2-0.2c0,0,0.1,0,0.1,0c0.2-0.1,0.3-0.2,0.3-0.4
	C26.2,71.6,26.2,71.5,26,71.4z M51.5,74.4c-1.6-0.2-3.1-1.3-4.8-2.6c-1-0.8-2-1.5-3.2-2.2c-0.4-0.2-0.8-0.4-1.2-0.4
	c-0.5,0-1.1,0.2-1.5,0.6c-0.5,0.4-1.1,0.9-1.5,1.3c-0.3,0.3-0.6,0.6-0.8,0.7C38.2,72,37.9,72,37.8,72c-0.2,0-0.4-0.1-0.5-0.2
	c-0.1-0.1-0.2-0.2-0.3-0.2c-0.1,0-0.2,0.1-0.2,0.3c0,0.9,1,1.4,1.6,1.4c0.5,0,0.9-0.2,1.2-0.7c0.1-0.1,0.2-0.4,0.4-0.6
	c0.4-0.6,0.9-1.5,1.3-1.8c0.3-0.3,0.6-0.4,0.9-0.4c0.2,0,0.4,0.1,0.6,0.2c1.1,0.7,2.1,1.6,3,2.5c1.6,1.5,3,2.9,5.2,3.4
	c0.2,0,0.4,0.1,0.6,0.1c0.7,0,0.9-0.3,0.9-0.6C52.6,75,52.2,74.5,51.5,74.4z M68.7,71.7c0,5.4-6.1,7.1-7.8,7.1
	c-0.2,0-0.3-0.1-0.3-0.1c0-0.1,0-0.2,0.9-0.4c1.4-0.4,6-2,6-6.6c0-2.4-1.6-5-5.2-5c-0.2,0-0.3,0-0.5,0c0.4,0.4,0.6,1.3,0.6,2.3
	c0,3.9-3.1,8-4.8,8c-0.7,0-1-0.6-1.5-1.4c-0.2-0.3-0.3-0.6-0.6-0.9c-0.3-0.4-0.4-1-0.4-1.7c0-1.5,0.7-3.3,1.8-4.6
	c1-1.2,2.7-2.5,5.5-2.5C66.7,65.8,68.7,68.9,68.7,71.7z M61.5,68.3c0-1.4-0.3-1.5-0.6-1.5c-0.1,0-0.1,0-0.2,0c-0.1,0-0.1,0-0.2,0
	c-2.9,0.8-4.5,3.6-4.5,5.8c0,1.5,0.7,2.7,1.6,2.7C58.9,75.3,61.5,71.6,61.5,68.3z M86.8,66.9h-4.1c0,0,0,0,0,0.1
	c0,0.1,0,0.2-0.4,0.3c-0.2,0-0.2,0.1-0.3,0.2l0,0c-0.2,0.3-0.4,0.8-0.7,1.1h2.2c0.1,0,0.1,0,0.2-0.1c0.2-0.3,0.4-0.5,0.6-0.5
	c0.3,0,1.5,0.6,1.5,1c0,0.2-0.2,0.3-0.4,0.4c-0.3,0.2-0.3,0.2-0.3,1.3c0,1.4,0.1,3.9,0.1,5.1v0c0,0.4-0.4,0.7-0.7,0.7
	c-0.3,0-0.6-0.2-0.6-0.6v-0.3h-4.4v0.5c0,0.4-0.4,0.6-0.8,0.6c-0.3,0-0.5-0.2-0.5-0.5v-0.1c0.1-1.7,0.1-4,0.1-5.2
	c0-1.5-0.1-2.6-0.2-3c0,0,0,0,0-0.1c0,0,0,0,0-0.1c0-0.1,0.1-0.1,0.1-0.1c0.2,0,1.2,0.5,1.7,0.8l0,0h0.8c0.1-0.5,0.2-1.1,0.2-1.5
	c0-0.1,0-0.2,0-0.3c-1,0-2,0.1-3.3,0.2l-0.2,0c-0.3,0-0.8-0.7-0.8-1v-0.1l0.1,0c1.9,0.2,3.3,0.2,4.4,0.2h0.8
	c0.7-1.3,1.1-2.4,1.2-3.1l0-0.1c0-0.1,0-0.2,0.1-0.2c0.2,0,1.7,0.8,1.7,1.2c0,0.2-0.2,0.3-0.6,0.3c-0.2,0-0.2,0-0.3,0.1
	c0,0-0.1,0.1-0.1,0.1c-0.1,0.1-0.3,0.3-0.4,0.5c-0.3,0.3-0.7,0.8-1,1.1h2.1c0,0,0.1,0,0.2-0.1c0.7-1,0.9-1,1-1c0,0,0,0,0,0l0,0
	c0.6,0.2,1.4,1,1.4,1.3C87.2,66.7,87.2,66.9,86.8,66.9z M79.5,70.8h4.4c0-0.5,0-1,0-1.4c0,0,0-0.1-0.1-0.1h-4c0,0,0,0-0.1,0
	c0,0,0,0-0.1,0c-0.1,0.1-0.2,0.1-0.2,0.4c0,0.1,0,0.2,0,0.4C79.5,70.4,79.5,70.6,79.5,70.8z M79.5,71.4V73h4.4v-1.5H79.5z
	 M79.5,73.5v1.7h4.4l0-1.7H79.5z M79.8,65.4c0.2,0.5,0.5,0.6,0.7,0.6c0.4,0,0.6-0.3,0.6-0.7c0-1.3-2-1.7-2.5-1.7
	c-0.2,0-0.2,0.1-0.2,0.1c0,0.1,0.1,0.1,0.2,0.3C79,64.2,79.5,64.8,79.8,65.4L79.8,65.4z M88.1,77c0,0-0.1,0-0.2,0.1
	c-2.1,0.6-5.2,0.9-7.3,0.9c-2.9,0-4.3-0.5-4.9-1.7c-0.1-0.2-0.1-0.4-0.1-0.5c0-0.1,0-0.3,0-0.4c0-0.2,0-0.4,0-0.6
	c0-0.8,0-1.8,0.1-2.4c0-0.3,0.1-0.3,0.3-0.4c0,0,0.1,0,0.1-0.1c0.2-0.1,0.5-0.2,0.5-0.5c0-0.5-1.3-1.1-1.5-1.1c-0.1,0-0.2,0-0.6,0.5
	c-0.1,0.1-0.2,0.1-0.2,0.1l-0.3,0h-0.1c-0.4,0-1.5-0.1-2.2-0.3l-0.1,0v0.1c0,0.3,0.5,1,0.9,1l0,0c0.2,0,0.5-0.1,0.8-0.1
	c0.3,0,0.5-0.1,0.7-0.1l0.3,0c0,0,0.1,0,0.1,0.1c0,0.1,0,0.2,0,0.3c0,0.2,0,0.5,0,0.7c0,2.7,0,3.2-0.3,3.4c-0.9,0.7-2.1,1.5-2.9,1.6
	c-0.2,0-0.2,0.1-0.2,0.2c0,0.2,1.2,1.3,1.4,1.3c0.2,0,0.2-0.2,0.3-0.3c0,0,0-0.1,0-0.1c0.2-0.2,0.3-0.4,0.5-0.6
	c0.6-0.7,1.3-1.5,1.7-1.9c0.9,2.9,4.7,2.9,6.5,2.9c2.4,0,4.7-0.3,4.7-0.3c0.2,0,0.3-0.2,0.4-0.3c0.1-0.3,0.6-0.7,1-1
	c0.4-0.3,0.5-0.4,0.5-0.5C88.3,77,88.2,77,88.1,77z M72.5,64.6c0,0,0,0.1,0.1,0.2c0.6,0.4,1.5,1.1,1.9,1.8c0.2,0.4,0.5,0.6,0.9,0.6
	c0.4,0,0.7-0.4,0.7-0.8c0-1.4-2.7-1.9-3.4-1.9C72.5,64.5,72.5,64.6,72.5,64.6z M93.7,63.7c-0.5,0-0.5,0.1-0.5,0.3
	c0,2.2,0.1,5.9,0.1,9.3c0,2.2,0,4.1,0,5.1c0,0.1,0,0.2-0.1,0.2c-0.3,0-0.7,0-1.1,0c-0.7,0-1.5,0-2.5-0.1c-0.1,0-0.3,0.1-0.3,0.5
	c0,0.1,0,0.3,0,0.3c0,0.1,0.2,0.1,0.2,0.1c0,0,0,0,0,0c1.5-0.1,2.3-0.1,3.8,0l0.4,0c0.3,0,0.5-0.2,0.5-0.5l0,0
	c-0.1-1-0.1-3.2-0.1-6.4c0-3.4,0.1-6.7,0.2-8.5C94.2,63.7,94,63.7,93.7,63.7z M121.9,69.8c0,0.7-0.8,1.4-2,1.9l-0.2,0.1
	c-1.2,0.5-2.7,1.1-3.8,1.6c0,0.4,0,0.7,0,1.1c0,0.3,0,0.5,0,0.8c-0.1,0.6-0.5,1.1-0.9,1.1c-0.1,0-0.5-0.1-0.5-0.8c0,0,0-0.1,0-0.1
	c0,0,0-0.1,0-0.1c0-0.2,0.1-0.3,0.1-0.5c0.1-0.2,0.1-0.4,0.1-0.8l0-0.2c-1.3,0.8-2,1.7-2,2.5c0,0.4,0.4,1.5,2.3,1.5
	c0.7,0,1.5-0.2,2.1-0.5c0.2-0.1,0.4-0.2,0.6-0.2c0.4,0,0.7,0.3,0.7,0.6c0,0.8-1.5,1.3-2.9,1.3c-2.1,0-3.5-1.3-3.5-2.6
	c0-1.1,1-2.4,2.8-3.5c0-1.2-0.2-2.6-1.1-2.6c-0.4,0-1,0.2-1.8,1.4c-0.1,0.1-0.1,0.3-0.2,0.4c-0.1,0.1-0.1,0.2-0.2,0.3
	c-0.3,0.6-0.8,1.4-1.3,1.4c-0.1,0-0.5-0.1-0.5-0.7c0-0.4,0.3-0.9,0.7-1.3c1.7-1.6,2.2-2.5,3-4.3c0,0,0-0.1,0-0.1
	c-0.3,0.1-0.7,0.1-1,0.1c-1.9,0-2.3-1.3-2.3-1.7c0-0.1,0.1-0.1,0.1-0.1c0.1,0,0.2,0.1,0.5,0.2c0.5,0.3,1,0.5,1.5,0.5
	c0.1,0,0.8,0,1.5-0.3c0-0.2,0-0.4,0-0.5c0-0.6-0.2-0.9-0.7-1l0,0c-0.1,0-0.3-0.1-0.3-0.2c0-0.2,0.6-0.4,0.8-0.4
	c0.2,0,0.9,0.1,1.1,0.9c0,0,0.1,0,0.2,0c0.1,0,0.3,0,0.4,0c0.3,0,0.5,0,0.5,0c0.1,0,0.2-0.1,0.2-0.1c0.3,0,0.4,0.2,0.4,0.5
	c0,0.6-0.7,1.2-2.2,1.8l-0.1,0.1c-0.6,1.2-0.9,1.9-1.3,2.6c0.3-0.1,0.6-0.2,0.9-0.2c0.8,0,1.6,0.7,1.9,1.7c1.1-2.7,2.8-3.7,4-3.7
	C120.6,68.1,121.9,68.9,121.9,69.8z M119.4,68.8c-1.6,0-3.1,2.5-3.6,3.9c0.5-0.3,1.1-0.5,1.6-0.8c0.6-0.3,1.3-0.6,1.8-0.9
	c0.8-0.4,1.2-0.8,1.2-1.3C120.5,69.6,120.4,68.8,119.4,68.8z M114.8,65.6C114.8,65.6,114.8,65.6,114.8,65.6L114.8,65.6
	c-0.1,0.2-0.1,0.5-0.1,0.6c0.3-0.2,0.5-0.3,0.5-0.4C115.2,65.8,114.9,65.7,114.8,65.6z M140.4,65.2c0,0.2-0.2,0.4-0.4,0.5l0,0
	c-0.3,0.2-0.3,0.2-0.3,3.1c0,1.6,0,3.5,0.1,5.1c0,0.8,0,1.6,0,2.2c0,0.2,0,0.4,0,0.6c0,0.2,0,0.5,0,0.7c0,1.7-1.7,2.2-2.3,2.2
	c-0.2,0-0.3-0.1-0.4-0.3l0,0c-0.1-0.2-1-0.7-1.7-1c-0.7-0.3-0.8-0.4-0.8-0.5c0-0.1,0.1-0.1,0.1-0.1c0,0,0.1,0,0.2,0
	c0.9,0.2,1.7,0.3,2.3,0.3c1.1,0,1.2-0.4,1.2-0.8c0-1,0.1-2.6,0.1-4.3h-3c-0.4,3.5-2,5.6-5.1,6.8c-0.2,0.1-0.4,0.1-0.5,0.1
	c-0.1,0-0.2,0-0.2-0.1c0,0,0-0.1,0.5-0.4c4-2,4.3-5.5,4.4-9.2c0-1.1,0-1.8-0.1-3l0-0.5c0-0.2-0.1-1.6-0.3-2.3c0,0,0-0.1,0-0.1
	c0,0,0,0,0-0.1c0,0,0-0.1,0-0.1l0,0h0c0.2,0,1.4,0.5,1.7,0.8l0,0h2.3c0.1,0,0.1,0,0.2-0.1c0.2-0.4,0.4-0.5,0.6-0.5
	C139.2,64.1,140.4,64.7,140.4,65.2z M138.6,68.4c0-0.5,0-1,0-1.4c0-0.6,0-1.1,0-1.5c0,0,0-0.1-0.2-0.1H136c0,0-0.1,0.1-0.1,0.1
	c-0.1,0.1-0.2,0.2-0.2,0.5c0,0.9,0,1.6,0,2.4l0,0H138.6z M135.8,70.5c0,0.6,0,1.1-0.1,1.7h2.9c0-0.5,0-1.1,0-1.6c0-0.5,0-1,0-1.5
	h-2.8L135.8,70.5z M131.1,77L131.1,77c0.2,0.4,0.5,0.5,0.6,0.5c0.4,0,0.7-0.3,0.7-0.8c0-1.2-2.5-1.8-2.7-1.8s-0.2,0.1-0.2,0.1
	c0,0.1,0,0.1,0.1,0.2C130.5,75.9,130.8,76.5,131.1,77z M127.8,75c-0.1,0-0.1,0.1-0.2,0.2c-0.4,1.6-2.3,3.3-2.9,3.8
	c-0.2,0.2-0.3,0.2-0.3,0.3c0,0.1,0,0.1,0.1,0.1c0.3,0,2.3-0.9,3.9-2.8c0.1-0.2,0.2-0.2,0.3-0.2h0.1c0.4,0,0.5-0.1,0.5-0.3
	C129.4,75.7,127.9,75,127.8,75z M127.2,73.9c0-0.8,0-2,0-3.2c0-1.2,0-2.5,0-3.5c-0.2,0-0.5,0-0.8,0.1c-0.2,0-0.4,0-0.6,0.1l0,0
	c-0.3,0-0.8-0.7-0.8-0.9v-0.1l0.1,0c0.9,0.1,1.6,0.2,2.1,0.2v-0.6c0-0.8-0.1-1.6-0.2-2.1c0,0,0,0,0,0c0,0,0,0,0-0.1
	c0-0.1,0.1-0.1,0.1-0.1c0,0,1.9,0.2,1.9,0.6c0,0.1-0.1,0.2-0.3,0.4c-0.1,0.1-0.2,0.1-0.2,0.1c-0.1,0.1-0.2,0.1-0.2,0.6
	c0,0.3,0,0.7,0,1.3h2.2v-0.7c0-0.8-0.1-1.6-0.2-2.1c0,0,0,0,0,0c0,0,0,0,0-0.1c0-0.1,0.1-0.1,0.1-0.1c0,0,1.9,0.2,1.9,0.6
	c0,0.1-0.1,0.2-0.3,0.4c-0.1,0.1-0.2,0.1-0.2,0.1c-0.1,0.1-0.2,0.1-0.2,0.6c0,0.3,0,0.7,0,1.3h0c0,0,0.1,0,0.1-0.1
	c0,0,0.5-0.9,0.8-0.9c0,0,0.1,0,0.1,0h0l0,0c0.6,0.3,1.2,1.1,1.2,1.3c0,0.1-0.1,0.3-0.4,0.3h-1.9c0,1.2,0,2.8,0,4.2c0,1,0,1.9,0,2.6
	h0.1c0,0,0.1,0,0.1-0.1c0,0,0.5-0.9,0.8-0.9c0,0,0.1,0,0.1,0h0l0,0c0.5,0.2,1.2,0.9,1.2,1.3c0,0.1-0.1,0.3-0.4,0.3h-4.9
	c-0.8,0-1.7,0-3.2,0.2l0,0c-0.3,0-0.8-0.7-0.8-0.9v-0.1l0.1,0C125.7,73.8,126.5,73.9,127.2,73.9z M128.3,71.9c0,0.8,0,1.5,0,2h2.2
	c0-0.5,0-1.2,0-2H128.3z M128.3,69.6v1.8h2.3v-1.8H128.3z M130.6,67.9c0-0.3,0-0.5,0-0.8h-2.2c0,0.3,0,0.5,0,0.8c0,0.3,0,0.6,0,1
	h2.3C130.6,68.6,130.6,68.3,130.6,67.9z M158.3,65c0,0.2-0.2,0.3-0.3,0.4c0,0-0.1,0-0.1,0c-0.3,0.2-0.3,0.2-0.3,2.3
	c0,2.5,0.1,6.5,0.1,7.9c0,0.1,0,0.5,0,0.9c0,0.3,0,0.7,0,0.8c0,1.8-1.8,2.1-2.2,2.1c-0.2,0-0.3-0.1-0.4-0.3c-0.1-0.3-1-0.7-1.5-0.9
	c-0.5-0.3-0.6-0.3-0.6-0.4c0-0.1,0.1-0.1,0.1-0.1c0.1,0,0.1,0,0.2,0c0.9,0.1,1.5,0.2,2.1,0.2c0.8,0,1.1-0.2,1.1-0.9
	c0-0.4,0-1.1,0-2.1c0-1.5,0-3.5,0-5.3h-3.4v0.1c0,0.2-0.1,0.3-0.2,0.4c-0.1,0.2-0.4,0.2-0.6,0.2c-0.3,0-0.6-0.2-0.6-0.6v-0.1
	c0.1-1.2,0.1-2.2,0.1-2.8c0-1,0-2.2-0.2-3c0-0.1,0-0.1,0-0.1c0-0.1,0.1-0.1,0.1-0.1c0.1,0,1.3,0.4,1.7,0.7c0,0,0,0,0,0c0,0,0,0,0,0
	h2.5c0.1,0,0.1,0,0.2-0.1c0.1-0.1,0.4-0.4,0.5-0.4C156.9,64,158.3,64.6,158.3,65z M156.4,67.4H153c0,0.5,0,1.2,0,1.8h3.4
	C156.4,68.5,156.4,67.9,156.4,67.4z M156.4,66.8c0-0.8,0-1.3-0.1-1.5c0,0,0-0.1-0.1-0.1h-2.9c-0.3,0.1-0.3,0.1-0.3,0.6
	c0,0.1,0,0.2,0,0.3c0,0.2,0,0.4,0,0.7H156.4z M153.4,77.2c-0.1,0.1-0.3,0.2-0.5,0.2c-0.3,0-0.5-0.2-0.5-0.6v-0.2H149v0.5
	c0,0.4-0.4,0.7-0.7,0.7c-0.3,0-0.5-0.2-0.5-0.5v-0.1c0.1-1,0.1-3.2,0.1-4.1c0-0.3,0-1.4-0.2-1.9c0,0,0,0,0-0.1c0,0,0,0,0-0.1
	c0,0,0-0.1,0.1-0.1c0.1,0,1.1,0.4,1.5,0.6h2.8c0.1,0,0.1,0,0.2-0.1c0,0,0.3-0.4,0.5-0.4c0.2,0,1.4,0.6,1.4,1c0,0.2-0.2,0.3-0.3,0.4
	l-0.1,0c-0.2,0.2-0.3,0.2-0.3,0.9c0,0.9,0.1,2.7,0.1,3.3C153.6,76.9,153.5,77.1,153.4,77.2z M149,74.3V76h3.4c0-0.5,0-1.1,0-1.7H149
	z M148.9,73.7h3.5c0-0.6,0-1.1,0-1.4c0,0,0-0.1-0.1-0.1h-2.9c0,0,0,0,0,0c0,0,0,0-0.1,0.1c0,0-0.1,0-0.1,0c-0.2,0.1-0.2,0.1-0.2,0.5
	c0,0.1,0,0.2,0,0.3C149,73.3,149,73.5,148.9,73.7z M145.3,71.5c0,2.9,0,5.9,0.1,7.3c0,0.2-0.2,0.8-0.8,0.8c-0.3,0-0.6-0.2-0.6-0.6
	v-0.1c0.2-2.9,0.2-7.1,0.2-10.1c0-0.5,0-0.9,0-1.4c0-0.4,0-0.8,0-1.1c0-0.2-0.1-1.6-0.2-2.3c0-0.1,0-0.1,0-0.1
	c0-0.1,0.1-0.1,0.1-0.1c0.1,0,1.3,0.5,1.7,0.8c0,0,0,0,0,0c0,0,0,0,0,0h2.3c0.1,0,0.1,0,0.2-0.1c0.1-0.1,0.4-0.4,0.5-0.4
	c0.2,0,1.5,0.7,1.5,1.1c0,0.2-0.2,0.3-0.3,0.4c0,0-0.1,0-0.1,0c-0.3,0.2-0.3,0.3-0.3,0.7v0.2c0,0.9,0.1,2.7,0.1,3.4
	c0,0.2-0.1,0.4-0.2,0.5c-0.1,0.2-0.3,0.2-0.6,0.2c-0.3,0-0.5-0.1-0.5-0.6v-0.2h-3.1V71.5z M145.4,67.4c0,0.5,0,1.1,0,1.8h3.1
	c0-0.5,0-1.1,0-1.8H145.4z M145.4,65.7c0,0.2,0,0.4,0,0.6c0,0.2,0,0.3,0,0.5h3.1c0-0.7,0-1.3,0-1.5c0,0,0-0.1-0.1-0.1h-2.6
	C145.4,65.3,145.4,65.3,145.4,65.7z M166,74.1c-0.4,0.4-1,0.7-1.4,0.7c-0.1,0-0.3,0-0.3-0.2c-0.1-0.2-0.4-0.4-0.6-0.7
	c-0.3-0.3-0.4-0.4-0.5-0.5c0,1.9,0,3.8,0,5.4c0,0.5-0.4,0.8-0.8,0.8c-0.3,0-0.6-0.2-0.6-0.6v-0.1c0.1-1.9,0.2-5,0.2-8.1
	c0-1.2,0-2.6,0-4c0-0.5-0.1-2.2-0.3-2.8c0-0.1,0-0.1,0-0.1c0,0,0-0.1,0.1-0.1c0.3,0,1.7,0.7,1.8,0.8c0,0,0,0,0,0c0,0,0,0,0,0h1.4
	c0.1,0,0.1,0,0.2-0.1s0.1-0.1,0.2-0.2c0.1-0.1,0.1-0.2,0.2-0.2c0.1,0,0.1-0.1,0.2-0.1c0.1,0,1.4,0.8,1.4,1.2c0,0.2-0.2,0.3-0.4,0.4
	l0,0l0,0c-0.1,0-0.3,0.1-0.4,0.3c-0.2,0.2-0.4,0.5-0.6,0.9c-0.3,0.4-0.7,0.9-0.8,1.1c-0.1,0.2-0.2,0.4-0.2,0.5
	c0,0.2,0.2,0.4,0.4,0.7l0.1,0.1c0.6,0.7,1.5,1.6,1.5,3C166.8,72.9,166.5,73.6,166,74.1z M163.2,73.2c0,0,0.1,0,0.1,0
	c0.3,0.1,0.7,0.2,0.9,0.2c0.8,0,1.2-0.5,1.2-1.7c0-0.9-0.4-1.6-0.9-2.3c-0.3-0.4-0.4-0.7-0.4-1c0-0.2,0-0.4,0.1-0.7
	c0-0.2,0.1-0.4,0.2-0.7c0.2-0.6,0.4-1.3,0.6-1.8l0,0c0,0,0-0.1-0.1-0.1h-1.5l-0.1,0.1c-0.2,0.1-0.2,0.2-0.2,0.8c0,1.9,0,4.3,0,6.9
	C163.1,73,163.1,73.1,163.2,73.2C163.2,73.2,163.2,73.2,163.2,73.2z M177.5,78.2c0,0.1-0.2,0.2-0.7,0.3c-0.4,0.1-1,0.2-1.2,0.4
	c-0.1,0.1-0.2,0.1-0.3,0.1c-0.2,0-1.7-0.9-2.9-2.9c-0.4,0.3-2.4,1.4-5.7,2.7c-0.1,0-0.1,0.1-0.2,0.1c-0.1,0.1-0.1,0.1-0.2,0.1
	c-0.3,0-1.2-1.3-1.2-1.4c0-0.1,0.1-0.1,0.1-0.1c1,0,1.6-0.1,2.8-0.5c0-1.1,0-3,0-4.8c0-2.5,0-5.2,0-5.8c0-0.2-0.1-1.7-0.2-2.4l0-0.1
	c0,0,0-0.1,0.1-0.1c0.2,0,1.3,0.5,1.6,0.8l0,0h3.2c0.1,0,0.1,0,0.2-0.1c0.4-0.5,0.5-0.5,0.6-0.5c0.2,0,1.4,0.7,1.4,1.1
	c0,0.2-0.2,0.4-0.4,0.5l0,0c-0.2,0.1-0.3,0.1-0.3,1c0,1.2,0.1,3.7,0.1,4.4c0,0.1-0.1,0.3-0.2,0.4c-0.1,0.2-0.3,0.2-0.5,0.2
	c-0.3,0-0.5-0.2-0.5-0.5V71H171c0.3,1.1,0.6,2,1.1,2.9c1.7-1.1,2.2-1.6,2.5-2.3c0,0,0-0.1,0.1-0.1c0.2,0,1.5,1.1,1.5,1.5
	c0,0.1-0.1,0.3-0.4,0.3c-0.1,0-0.2,0-0.3,0c-0.1,0-0.1,0-0.2,0c-0.1,0-0.2,0-0.4,0.1c-0.1,0.1-0.3,0.1-0.6,0.2
	c-0.6,0.3-1.5,0.6-2.1,0.8c1.2,1.9,2.8,3.2,4.9,3.8C177.4,78,177.5,78.1,177.5,78.2z M173.2,67.5c0-2.2,0-2.2-0.2-2.2l-3.4,0
	c-0.1,0.1-0.2,0.1-0.3,0.2c-0.1,0.1-0.1,0.2-0.1,0.5c0,0.1,0,0.3,0,0.5c0,0.3,0,0.6,0,1H173.2z M173.2,70.3c0-0.3,0-0.7,0-1
	c0-0.4,0-0.8,0-1.2h-4c0,0.3,0,0.7,0,1c0,0.4,0,0.8,0,1.2H173.2z M169.2,71c0,1.1,0,2.3,0,3.4c0,0.9,0,1.7,0,2.4
	c0.9-0.3,1.8-0.6,2.5-0.9c0.2-0.1,0.3-0.1,0.5-0.2c-0.8-1.4-1.4-3.1-1.6-4.8H169.2z M191.6,66.2c-0.1,0.1-0.2,0.1-0.2,0.1h-4.3
	c0-0.1,0-0.3,0-0.4c0-0.2,0-0.5,0-0.7c0-0.5,0-0.5,0.4-0.7l0,0c0.2-0.1,0.4-0.2,0.4-0.5c0-0.5-2-0.8-2.2-0.8c-0.1,0-0.1,0-0.1,0.1
	c0,0,0,0.1,0,0.1c0.1,0.6,0.2,1.6,0.2,2.4v0.4h-4.1c0-0.3-0.1-1.4-0.3-1.4c-0.1,0-0.1,0.1-0.2,0.3c-0.2,1.1-0.6,1.7-1.6,2.6
	c-0.3,0.3-0.5,0.6-0.5,0.8c0,0.4,0.3,0.6,0.7,0.6c0.6,0,1.6-0.6,1.9-2.3h9.6c0,0,0,0,0,0c0,0.1-0.6,0.9-0.9,1.3
	c-0.1,0.1-0.1,0.1-0.1,0.2c0,0.1,0.1,0.1,0.1,0.1c0,0,0.1,0,0.1,0c0,0,0,0,0.1,0c0.1,0,0.2-0.1,0.3-0.2c0.6-0.3,1.2-0.5,2-0.6
	c0.7,0,0.8-0.4,0.8-0.5c0-0.5-1.1-1.3-1.5-1.4l0,0c0,0,0,0,0,0c0,0,0,0-0.1,0C191.9,65.7,191.6,66.2,191.6,66.2z M194.8,77.2
	c0,0-0.1,0-0.1,0c0,0-0.1,0-0.1,0c-1.5,0.4-3.2,0.6-4.8,0.6c-0.9,0-1.8-0.1-2.5-0.2c0-0.2,0-0.5,0-0.8c0-0.3,0-0.7,0-1
	c0-0.3,0-0.7,0-1c0-0.3,0-0.6,0-0.9h4.9c0.4,0,0.4-0.2,0.4-0.3c0-0.5-1.1-1.3-1.6-1.5l0,0c0,0,0,0,0,0c0,0-0.1,0-0.1,0
	c-0.1,0-0.2,0-1,1c0,0.1-0.1,0.1-0.2,0.1h-2.4c0-2.5,0-2.5,0.3-2.7c0.2-0.1,0.3-0.2,0.3-0.4c0-0.1,0-0.1-0.1-0.1h4.5
	c0.4,0,0.5-0.2,0.5-0.3c0-0.4-1-1.2-1.5-1.4l0,0c0,0,0,0,0,0c0,0-0.1,0-0.1,0c-0.3,0-0.9,1-0.9,1c0,0.1-0.2,0.1-0.2,0.1h-4.5
	c-1.2,0-3.5-0.1-5.1-0.3l-0.1,0v0.1c0,0.3,0.5,0.9,0.8,0.9l0,0c1.4-0.1,3.1-0.2,4.3-0.2h0.5c0,0.6,0,1.7,0,2c0,0.4,0,1.2,0,2.2
	c0,0.9,0,1.9,0,2.8c-1.2-0.5-2.1-1.4-2.6-2.6c0.2-0.4,0.3-0.9,0.4-1.3c0.1-0.5,0.1-0.5,0.3-0.5c0.3-0.1,0.4-0.2,0.4-0.4
	c0-0.4-1.8-0.6-1.8-0.6c-0.1,0-0.1,0.1-0.1,0.1V72c0,1.5-0.9,5.3-3.9,7.2c-0.3,0.2-0.4,0.3-0.4,0.4c0,0,0,0.1,0.1,0.1
	c0.2,0,3.1-1.1,4.6-4.5c0.4,0.9,1.4,2.8,3.4,3.4c1.5,0.5,3.2,0.6,4.4,0.6c1.8,0,2.1-0.1,2.2-0.3c0.1-0.2,0.6-0.6,1-0.9
	c0.5-0.4,0.7-0.6,0.7-0.7C194.9,77.2,194.9,77.2,194.8,77.2z M207.9,69.1c-0.2,0-0.8,0-0.8,0.2c0,0.1,0.1,0.1,0.3,0.2l0.1,0
	c0.6,0.3,1.1,0.8,1.5,1.3l0,0c0.2,0.2,0.4,0.3,0.5,0.3c0.3,0,0.6-0.3,0.6-0.7C210.1,69.7,209.3,69.1,207.9,69.1z M209.8,68.2
	c-0.3,0-0.9,0.1-0.9,0.2c0,0.1,0.1,0.1,0.2,0.2c0,0,0.1,0,0.1,0c0.6,0.3,1.2,0.7,1.6,1.2l0,0c0.2,0.2,0.3,0.3,0.5,0.3
	c0.3,0,0.6-0.3,0.6-0.6C212,68.6,210.9,68.2,209.8,68.2z M208,77c-0.2,0-0.3,0-0.5,0.1c-0.4,0.1-0.7,0.2-1,0.2
	c-0.8,0-2.8-0.4-2.8-3.7c0-2.2,0.9-5,2.2-5.8c0.5-0.2,1.5-0.5,2.6-0.5c0.4,0,0.7,0,1,0.1c0.1,0,0.3,0,0.4,0c0.7,0,0.9-0.3,0.9-0.6
	c0-0.2-0.1-0.9-2-0.9l-0.1,0c-0.6,0-0.9,0.2-1.1,0.3c-0.1,0-0.2,0.1-0.3,0.1c-1.9,0.5-4,1.5-5.4,2.1c-0.6,0.3-1.1,0.5-1.3,0.6
	c-0.4,0.1-0.7,0.2-1,0.2c-0.3,0-0.5,0-0.7-0.1c-0.1,0-0.1,0-0.2,0c-0.1,0-0.1,0-0.2,0c-0.1,0-0.2,0-0.2,0c-0.1,0-0.2,0.1-0.2,0.3
	c0,0.7,0.8,1,1.6,1c0.4,0,0.9-0.1,1.2-0.3c1.6-0.8,3.3-1.6,3.8-1.7c0,0-0.1,0.1-0.1,0.1c-1,1-1.7,3.6-1.7,5.8c0,4.3,2.9,4.6,3.9,4.6
	c0.7,0,2.2-0.3,2.2-1C208.9,77.3,208.5,77,208,77z M215.3,63.8C215.3,63.8,215.3,63.8,215.3,63.8c0-0.1,0-0.2,0.1-0.2
	c0.2,0,1.3,0.6,1.7,0.8l0,0h1.5c0.1,0,0.1-0.1,0.2-0.1c0.1-0.1,0.2-0.3,0.4-0.4l0,0c0,0,0.1-0.1,0.2-0.1c0.3,0,1.4,0.6,1.4,1
	c0,0.2-0.2,0.4-0.4,0.5l0,0c0,0-0.1,0-0.1,0.1c-0.2,0.1-0.2,0.1-0.2,0.5c0,0.3,0,1,0,1.9c0,2.2,0.1,5.1,0.1,6.6v0
	c0,0.5-0.4,0.8-0.8,0.8c-0.3,0-0.5-0.2-0.5-0.6v-0.2h-2.2v0.2c0,0.4-0.4,0.7-0.8,0.7c-0.3,0-0.5-0.2-0.5-0.6v-0.1
	c0.1-1.8,0.1-4,0.1-5.5C215.5,65.5,215.5,64.7,215.3,63.8C215.3,63.9,215.3,63.9,215.3,63.8z M219,70.3c0-0.4,0-0.8,0-1.1
	c0-0.3,0-0.7,0-1h-2.3v2.1H219z M216.7,70.9c0,0.5,0,0.9,0,1.4c0,0.5,0,0.9,0,1.4h2.2l0-2.8H216.7z M216.7,67.5h2.3c0-1,0-1.9,0-2.3
	c0-0.1,0-0.1-0.1-0.1H217c0,0,0,0,0,0c0,0,0,0-0.1,0C216.7,65.3,216.7,65.4,216.7,67.5z M231,78.1c0,0.1-0.1,0.1-0.5,0.2
	c-0.4,0.1-1.1,0.3-1.4,0.6C229,79,229,79,228.9,79c-0.2,0-1.8-0.9-3.1-3c-2.1,2.7-4.8,3.3-5.2,3.3c-0.1,0-0.2-0.1-0.2-0.1
	c0-0.1,0.2-0.2,0.6-0.4c1.7-0.7,3.2-2.1,4.2-3.8c-0.8-1.7-1.3-3.7-1.5-5.8h-0.7c-0.1,3.7-0.6,7.8-3.4,9.7c-0.3,0.2-0.5,0.3-0.7,0.3
	c-0.1,0-0.1-0.1-0.1-0.1c0-0.1,0.1-0.2,0.4-0.5c2.3-1.9,2.6-6.1,2.6-9.5c0-2.3-0.1-4.1-0.3-4.9c0-0.1,0-0.1,0-0.1
	c0-0.1,0.1-0.1,0.1-0.1c0.2,0,1.1,0.5,1.7,0.9c0,0,0,0,0.1,0c0,0,0,0,0,0h3.7c0,0,0.1,0,0.2-0.1c0.6-0.9,0.7-1,0.9-1
	c0.6,0,1.6,1.1,1.6,1.4c0,0.2-0.2,0.3-0.4,0.3h-6.1c0,0-0.1,0.1-0.1,0.1h0l0,0c-0.2,0.1-0.2,0.1-0.2,0.9v2.1h3.9
	c0.1,0,0.2,0,0.2-0.1c0,0,0-0.1,0.1-0.1c0.1-0.1,0.2-0.2,0.2-0.3l0,0c0,0,0.1,0,0.1,0c0.3,0,1.5,0.7,1.5,1.1c0,0.2-0.1,0.3-0.4,0.4
	c-0.1,0-0.1,0.1-0.2,0.1c-0.1,0-0.2,0.1-0.2,0.3c-0.4,1.9-1.1,3.6-2,5c1.1,1.4,2.6,2.3,4.3,2.8C230.9,78,231,78,231,78.1z M227,69.3
	h-2.8c0.2,1.3,0.6,3.1,1.6,4.8c0.9-1.9,1.4-4.3,1.4-4.7C227.1,69.3,227.1,69.3,227,69.3z M223.3,65.6L223.3,65.6
	C223.3,65.6,223.3,65.6,223.3,65.6L223.3,65.6z M219.1,77.1c0.2,0.4,0.4,0.5,0.6,0.5c0.3,0,0.6-0.3,0.6-0.7c0-1.1-2.3-1.7-2.4-1.7
	c-0.2,0-0.2,0.1-0.2,0.1c0,0.1,0,0.1,0.1,0.2C218.6,76.2,219,76.8,219.1,77.1L219.1,77.1z M216.5,75.3c-0.1,0-0.1,0.1-0.1,0.2
	c-0.3,1-1.4,2.6-2.4,3.5c-0.2,0.2-0.2,0.3-0.2,0.3c0,0.1,0,0.1,0.1,0.1c0.4,0,2-1.1,3.3-2.5c0.2-0.2,0.2-0.2,0.3-0.2h0.2
	c0.4,0,0.4-0.2,0.4-0.2C218,76.1,216.7,75.3,216.5,75.3z M232.9,73.4c1.1,0,1.8-1.5,2-2.5h10.1c0,0,0,0,0,0c0,0.3-0.9,1.5-1.3,2.1
	c-0.1,0.1-0.1,0.1-0.1,0.2c0,0.1,0,0.1,0.1,0.1c0.1,0,0.1,0,0.2-0.1c0.3-0.1,0.6-0.3,0.9-0.6c0.7-0.5,1.5-1,1.9-1
	c0.7,0,0.8-0.3,0.8-0.5c0-0.6-1.5-1.3-1.6-1.3l0,0c-0.2,0-0.5,0.2-0.6,0.4c-0.1,0.1-0.2,0.1-0.3,0.1h-10.1c0-0.3-0.1-1.2-0.3-1.2
	c-0.1,0-0.2,0.1-0.2,0.3c-0.2,1-0.7,1.7-1.7,2.5c-0.3,0.3-0.5,0.6-0.5,0.9C232.2,73.1,232.5,73.4,232.9,73.4z M233.6,66.3
	L233.6,66.3c1.8-0.2,4.3-0.2,4.6-0.2h1.2V68h-0.2c-0.9,0-3.6-0.1-5.3-0.3l-0.1,0v0.1c0,0.3,0.6,1,0.9,1c0.8,0,1.8-0.1,2.7-0.1
	c0.7,0,1.3-0.1,1.7-0.1h6.4c0.4,0,0.4-0.2,0.4-0.3c0-0.4-1.2-1.4-1.6-1.4c-0.1,0-0.1,0-0.2,0.1c-0.2,0.1-0.4,0.4-0.6,0.7
	c-0.1,0.1-0.1,0.2-0.2,0.2c-0.1,0.1-0.1,0.1-0.2,0.1h-2.5c0-0.2,0-0.4,0-0.7c0-0.4,0-0.8,0-1.2h6.1c0.4,0,0.4-0.2,0.4-0.3
	c0-0.3-1.2-1.5-1.7-1.5c-0.1,0-0.1,0-0.2,0.1c-0.2,0.2-0.5,0.5-0.6,0.8c-0.1,0.1-0.1,0.2-0.2,0.2c0,0.1-0.1,0.1-0.2,0.1h-3.7v-0.7
	c0-0.4,0-0.4,0.2-0.5c0.1,0,0.2-0.1,0.3-0.1c0.2-0.1,0.3-0.3,0.3-0.4c0-0.5-2.1-0.7-2.2-0.7c0,0-0.1,0-0.1,0.1c0,0,0,0.1,0,0.1
	c0.1,0.7,0.2,1.4,0.2,2.2v0.1h-1.1c-0.9,0-3.7-0.1-5.4-0.3l-0.1,0v0.1C232.7,65.6,233.2,66.3,233.6,66.3z M247.4,77.3
	c-0.3-0.2-0.4-1.3-0.5-2c-0.1-0.5-0.1-0.6-0.2-0.6h0l0,0c0,0,0,0,0,0.1l-0.1,0.3c-0.2,1.3-0.4,2.5-1.2,2.6c-0.5,0.1-1.1,0.1-1.6,0.1
	c-2.1,0-2.1-0.3-2.1-1.5c0-1.2,0.1-2.7,0.1-3.3l0,0c0-0.4,0-0.5,0.2-0.5c0.2-0.1,0.3-0.2,0.3-0.4c0-0.5-1.8-0.6-1.8-0.6
	c0,0-0.1,0-0.1,0.1c0,0,0,0,0,0.1c0,0,0,0,0,0.1c0.1,0.5,0.1,0.7,0.1,1.7c0,0.3,0,1.6-0.1,3.6v0.1c0,1.8,1.7,1.9,3.3,1.9
	c0.5,0,1.2,0,1.9-0.1h0c1.5-0.2,2.2-0.8,2.2-1.2C247.7,77.6,247.6,77.4,247.4,77.3z M237.5,71.7c-0.1,0-0.2,0-0.2,0.1c0,0,0,0,0,0
	c0,0,0,0,0,0.1l0,0.1c0,0.3,0.1,0.6,0.1,1.2c0,4.2-3.2,5.6-5.2,6.1c-0.6,0.2-0.6,0.2-0.6,0.3c0,0.1,0.2,0.1,0.3,0.1
	c0.1,0,0.3,0,0.5-0.1c4-0.6,6.1-2.7,6.2-6.3c0-0.6,0-0.6,0.2-0.7c0,0,0,0,0.1,0c0.2-0.1,0.2-0.2,0.2-0.3
	C239.3,71.8,237.5,71.7,237.5,71.7z"/>
</svg>
