<svg xmlns="http://www.w3.org/2000/svg" viewBox="0 0 363.5 28.3" style="enable-background:new 0 0 363.5 28.3" xml:space="preserve"><path d="M2.6 2c0-.3.3-.3.8-.3 1.9 0 4.8.9 4.8 2.8 0 .8-.6 1.5-1.4 1.5-.4 0-1-.1-1.4-1-.5-.7-1.4-1.7-2.3-2.4-.3-.2-.5-.4-.5-.6zm2.8 19.2c0-2.4.8-5 5.3-15 .1-.2.2-.5.2-.7 0-.4-.2-.4-.3-.4-1 0-6.8 11.7-7.1 12.2-.6 1.1-1.1 1.2-2.3 1.2-.3 0-1 0-1 .5 0 .3.4.5.9.6 2 .5 2.2 1.6 2.2 2.7 0 .5-.1 1-.1 1.6-.1.4-.1.8-.1 1.2v.4c0 1.7.8 2.4 1.5 2.4.4 0 .8-.2 1.1-.6.5-.7.6-1.8.2-3-.3-1-.5-2-.5-3.1zM15 7c.9-.1 1-.5 1-.7 0-.9-3.1-1.8-3.3-1.8-.1 0-.3 0-.4.4h.3l-.3.1v.5c0 .4-.1.8-.2 1.2-1.2 3.6-3.1 7.1-4.3 8.6-.2.3-.3.4-.3.6 0 .2.2.3.3.3.4 0 3.3-1.5 6.8-8.8.1-.4.1-.4.4-.4zM.5 9.2c.9.5 2 1.4 2.5 2 .5.6 1 .8 1.3.8.7 0 1.3-.6 1.3-1.5 0-1.4-1.6-2.3-4.1-2.3-1.3.1-1.5.2-1.5.5 0 .2.2.3.4.5h.1zM28 12.8c-5.7-2-7.3-7.5-7.5-8 .1 0 .2-.1.3-.1.2 0 .4-.1.6-.1.8-.2 1-.6 1-.9 0-.8-1.9-2-2.4-2-.3 0-.4.1-1.1 1-.1.1-.2.1-.2.1H17c-.1 0-2.4 0-4.5-.4l-.3-.1v.3c0 .5 1 1.7 1.7 1.7 1.3-.1 2.8-.2 3.2-.2h1.6c.2 0 .2 0 .3.2 1 6.2 4.9 10.3 5.7 10.3.2 0 .3-.1.5-.2.4-.3 1.4-.5 2.1-.6.8-.1 1.2-.2 1.2-.5s-.3-.4-.5-.5zm-3.7 3.9c0 .5-.4.7-.8.9l-.2-.2.1.2c-.4.4-.4.4-.4 2.3 0 1.7.1 4.2.2 6.4 0 .4-.1.7-.3 1-.3.3-.8.5-1.2.5-.7 0-1.2-.5-1.2-1.2v-1h-7.1v1.2c0 .3-.1.6-.3.8-.4.4-1 .4-1.2.4-.7 0-1.1-.4-1.1-1.1v-.1c.2-2.8.2-4.9.2-6.2 0-1.8 0-3.9-.4-5.6v-.2c0-.4.3-.4.3-.4.3 0 2.3.8 3 1.3H20s.1 0 .2-.1c.4-.6.8-1 1.2-1 .6.1 2.9 1.3 2.9 2.1zm-10.8 4.2v3.3h7.1v-3.5c0-1.4 0-2.6-.1-3.4 0-.1 0-.1-.1-.1H14s-.1 0-.1.1l-.2.1c-.2.2-.2.2-.3.8.1.9.1 1.9.1 2.7zm46.1 4.2c0 .3-.3.4-1.1.6-.7.1-1.7.4-2.2.7-.2.1-.3.2-.5.2-.3 0-4-2.6-5.7-10.1 0 1.9.1 5.3.2 6.3 0 .2 0 .4.1.7 0 .5.1 1 .1 1.4 0 2.5-2.6 3.4-3.5 3.4-.4 0-.6-.2-.7-.5-.2-.4-1.3-1-2.1-1.4-1-.5-1.2-.6-1.2-.9 0-.1 0-.3.4-.3h.5c1.3.3 2.1.4 2.8.4 1.5 0 1.5-.5 1.5-1.8 0-1.2 0-3.7-.1-6-.1.2-.3.3-.5.4l-.2.1c-.2.1-.3.1-.4.5-2.2 6-6.9 8.7-8 8.7-.3 0-.4-.2-.4-.3 0-.2.2-.4.5-.7 3.9-2.5 5.7-7.8 5.9-8.7h-.5c-.4 0-1.2.1-2.4.3-.2 0-.3-.1-.5-.2-.3-.3-.9-1.1-.9-1.4V16h.1c-.4-.2-.5-.8-.8-1.7-.3.1-.7.2-1 .3h-.1v.2c0 .3-.3.5-.5.6-.2.1-.2.1-.3 1.4h.2c.8 0 4.1 2.3 4.1 4.3 0 .8-.6 1.5-1.3 1.5-.5 0-1-.3-1.3-1.2-.4-1.4-1-2.8-1.6-3.6-.1-.1-.1-.2-.2-.3v.8c0 2.5.1 6.2.1 8.6 0 .3-.1.7-.4.9-.3.3-.7.5-1.1.5-.5 0-1.1-.4-1.1-1.2V27c.2-3.1.3-6.3.3-9.7v-1.9c-1.1.3-2.1.5-2.6.7-.1 0-.2.1-.3.2-.1.1-.3.2-.5.2-.7 0-1.7-2.2-1.7-2.6 0-.3.3-.4.5-.3h.1c.6.1 1.4.1 2.1.1h.8c1.7-2.3 4.7-7.4 5-9.1 0-.2.1-.5.4-.5.3 0 2.9 1.2 2.9 2 0 .3-.2.7-1.1.8-.2 0-.3.1-.5.3-1.5 2-3.5 4.7-5.2 6.6 1.4-.1 2.8-.2 3.8-.3-.3-.7-.6-1.2-.9-1.6-.2-.2-.2-.4-.2-.5 0-.2.2-.3.3-.3.6 0 3.8 2 3.8 3.9 0 .9-.6 1.4-1.1 1.5 1.5.2 2.5.3 2.8.3h.8l.1-.1c.1-.2.6-.7.9-.7.4 0 1.6.8 2 1.5 0-1.6-.1-3-.1-3.6h-2.1v.3c0 .3-.1.5-.3.7-.3.3-.7.4-1.1.4-.7 0-1.1-.4-1.1-1v-.1c.2-1.8.2-5.1.2-6.3 0-.3-.1-2.9-.3-4V3h.3c.3 0 2.1.9 2.8 1.3h.7c.2-.8.5-2 .5-3.1V.5c-.1-.5.2-.5.3-.5.3 0 3.4.9 3.4 1.8 0 .2-.2.8-1.2.9-.2 0-.2.1-.3.2V3c-.3.4-.6.9-1 1.3h3.7c.1 0 .1 0 .2-.1.6-.7.8-.9 1.2-.9.5 0 2.6 1.2 2.6 2 0 .5-.5.7-.9.9-.4.2-.4.2-.4 1.5 0 1.8.1 4.7.2 5.7 0 .3-.1.6-.3.9-.3.3-.7.5-1.1.5-.5 0-1.1-.4-1.1-1v-.3H51v.1c0 .2-.1.4-.4.6.4 1.5.8 2.8 1.3 3.9 1.3-1 2.7-2.4 2.9-3.2 0-.1.1-.4.4-.4.5 0 2.7 1.8 2.7 2.5 0 .1-.1.6-.9.6h-.5c-.3-.1-.5-.1-.7 0l-.4.4c-.9.4-2 .8-2.9 1.2 1.6 2.9 3.9 4.8 6.6 5.6.2 0 .5.1.5.3zm-14-15.6c0 .9 0 1.8.1 2.7h7V9.5h-7.1zm7.1-1.4c0-1.5 0-2.3-.1-2.5h-6.3c-.1.1-.3.2-.5.3-.2.2-.2 1.3-.2 2.2h7.1zm-21-.8c.8.6 1.6 1.3 2.2 2.5.3.6.8 1 1.3 1 .7 0 1.2-.6 1.2-1.4 0-.5-.2-1.3-1.6-2.1.8-1.1 2-2.7 2.6-3.8.1-.2.2-.3.5-.3 1-.2 1.1-.7 1.1-.9 0-.9-3.1-1.9-3.2-1.9-.4 0-.4.4-.4.6 0 1.4-.6 3.1-1.6 5.7-.6-.2-1.5-.4-2-.4-.3 0-.4.2-.4.3 0 .3 0 .5.3.7zm4.2 11.5c0-.9-2.9-1.7-3.3-1.7-.2 0-.3.2-.3.6 0 3.1-1.5 7.2-2.1 8.3-.1.2-.2.4-.2.5 0 .2.2.4.3.4.6 0 2.6-2.9 4.1-6.9.1-.4.2-.4.5-.5.7 0 1-.3 1-.7zM82 26c0 .8-.5 1.3-1.2 1.3-.3 0-.9-.1-1.4-.9-.5-.8-1.3-1.5-2.2-2.1-.9 2.3-3.5 3.7-5.6 3.7-2.5 0-4.1-1.8-4.1-3.4 0-2.5 3.8-3.4 6.4-3.4.4 0 .8 0 1.2.1v-2.1c-.1-.7-.1-1.6-.1-2.4-1.5.3-2.9.4-3.3.4-4.1 0-5.1-2.2-5.1-2.5 0-.2.1-.4.5-.4.3 0 .6.1.8.2 1.2.4 2.3.6 3.5.6 1.5 0 2.9-.3 3.6-.4 0-1.2 0-2.5.1-3.9h-.4c-4 0-4.9-2.6-4.9-3.3 0-.3.2-.5.4-.5s.4.1.6.3l.1.1c1.1.6 2.3 1.2 3.7 1.2h.6c0-.4.1-.8.1-1.2 0-.2.3-2.1.3-3.2 0-.9-.1-1-.6-1.1-.4-.2-.9-.3-.9-.7 0-.3.8-1.1 1.6-1.1 1 0 2.3 1.6 2.3 2.5 0 .3-.1.7-.2 1.1 0 .2-.1.4-.1.6v.1s-.2.4-.5 2.4c.5-.3 1.1-.6 1.6-.6.7 0 1.1.4 1.1 1 0 1.2-2.3 1.9-3 2.1-.1.9-.1 1.9-.1 3v.5c1.9-.7 2-1.1 2-1.2 0-.1-.2-.4-1.2-1.2-.1 0-.2-.2-.2-.4s.1-.3.4-.3c.1 0 .3 0 .4.1.6.3 1.8.7 2.5.8 1 0 1.3.6 1.3 1.1 0 1.7-4.1 3.1-5.1 3.4 0 .7.1 1.3.2 2 0 .3.1.7.1 1 0 .3.1.7.1 1 .1.5.1 1.1.2 1.7 2.9 1 4.5 3 4.5 4zM77.2 8.2zm-8 16.3c0 .5.8 1.3 2.2 1.3 1.4 0 3.1-.8 3.7-2.4-.7-.2-1.4-.3-2.1-.3-1.4-.1-3.8.2-3.8 1.4zm45-5.1c0 3.5-3.2 7.1-8.7 7.1-2.4 0-5.1-1.3-5.1-3.4 0-1.6 1.6-2.5 3.1-2.5 1.9 0 3.5 1.5 3.5 3.4 0 .2 0 .4-.1.6 3.4-.8 4.6-3.2 4.6-5.1 0-2.1-1.6-4.4-4.7-4.4-1.8 0-4.5.7-6.4 4.2-.1.2-.3.5-.4.8-.2.5-.4.9-.6 1.1-.4.6-1 1-1.5 1-.7 0-1.1-.5-1.1-1.2 0-.6.4-1.4 2.6-3.9 1.2-1.4 6.8-9.1 7.3-9.9l.3-.6c0-.2-.2-.3-.5-.3-.5 0-1 .6-1.6 1.1-.7.8-1.5 1.6-2.7 1.6-1.3 0-2.2-.8-2.2-2 0-.6.3-.8.5-.8s.3.1.5.1l.2.1c.2.1.4.1.7.1.4 0 .8-.1 1.1-.4 1.1-.9 2.7-1.9 4.3-1.9 1.5 0 2.9 1.2 2.9 2.1 0 .7-.6 1.3-1.3 1.8-1.8 1.4-4.4 4.7-5.6 6.3 1.3-.6 2.7-1 4.1-1 5.1.1 6.8 3.7 6.8 6zm-12 3.7c0 .9 1.4 1.5 2.7 1.6.1-.2.1-.5.1-.8 0-1-.8-1.8-1.7-1.8-1 .1-1.1.8-1.1 1zm40.2-.8c-.2 0-.5 0-.8.1-.4.1-.7.2-1.1.4-.5.2-1 .4-1.7.5-.8.2-1.6.3-2.5.3-3.6 0-6.6-1.5-6.6-3.2 0-.4.2-.8.4-1.2.1-.2.3-.6.3-.8 0-.4-.2-.5-.4-.5-.5 0-1.9 1.6-1.9 3.2 0 2.9 4 5.1 9 5.1 3.9 0 7.1-1.2 7.1-2.7.1-.8-.7-1.2-1.8-1.2zm-8.1-14h1.5c-.3.4-1.1 1.4-1.6 2-.2.3-.4.5-.4.7 0 .2.2.4.4.4s.5-.1.9-.5c2.4-1.8 4.7-2.3 5.3-2.4 1.2 0 1.6-.6 1.6-1.1 0-.8-1.1-1.6-2.7-1.6h-1.5c-.9 0-1.8.1-2.8.1-1.2 0-2.6-.1-3.9-.5l-.3-.1c-.3-.1-.6-.2-.8-.2-.3 0-.4.2-.4.4.3.5 1.5 2.6 4.7 2.8zm10.8-5.7c-1.7 0-1.7.4-1.7.5 0 .2.2.3.5.4l.2.1c.9.5 1.9 1.2 2.6 2 .3.3.7.5 1 .5.7 0 1.2-.6 1.2-1.3 0-1.5-2-2.2-3.8-2.2zM141.8 4c-1.5 0-1.5.4-1.5.5 0 .2.2.3.6.6.6.3 1.6 1 2.5 2.1.3.4.7.5 1 .5.6 0 1.2-.6 1.2-1.3.1-1.2-1.2-2.4-3.8-2.4zm30.3 19.8c-.4 0-.8.1-1.1.3-1.1.6-2.5.9-4 .9-2.7 0-4.5-1.3-4.5-3.2 0-2.6 3.8-4.9 6.2-4.9h.7c1.1 0 2.7-.5 2.7-1.8 0-.2-.1-1.2-1.6-1.2-.6 0-1.2.1-2.7.7-1.2-.4-1.8-1.3-1.8-3 0-1.3.3-2.7.6-4 .1-.3.1-.6.2-.9 0-.2.1-.3.1-.5.1-.4.2-.9.2-1.4 0-2.1-2.2-3.2-3.1-3.2-.9 0-1.5.6-1.5 1.1 0 .1.1.5.7.6 1.1.2 1.4.5 1.4 1.5 0 .4-.1 1-.1 1.6v.4c0 .3-.1.6-.1 1-.2 1.1-.3 2.3-.3 3.4 0 2.1.6 3.5 1.8 4.3-3.1 1.5-5.1 4.1-5.1 6.6 0 2.2 1.9 5.5 7.2 5.5 1.9 0 5.7-.6 5.7-2.4-.1-.8-.8-1.4-1.6-1.4zm26.5-11.5c2.3-.3 4.3-.2 6.2.1 1.4.2 2-.4 2-.9 0-1.1-2.3-1.8-3.8-1.8-.7 0-1.1.2-1.5.4-.3.2-.6.3-1.3.4-.5.1-1.2.2-2 .3 0-.6.1-1.1.1-1.5 0-.4.1-.8.2-1.1.1-.3.2-.6.2-.8 0-1.5-2.7-2.3-3.6-2.3-1.1 0-1.5.7-1.5 1.1 0 .4.4.6.7.6H194.6c.7 0 1.5.3 1.5 2.3v2c-3.5.4-3.8.4-4.3.4-1.2 0-2.2-.2-3.4-.7-.4-.2-.6-.2-.8-.2-.2 0-.6.1-.6.8 0 1.5 3 2.3 4.2 2.3.5 0 .9-.1 1.4-.2.3-.1.7-.2 1.2-.3.6-.1 1.4-.3 2.2-.4 0 5.8 0 6.9-.1 7.6v.1h-.1c-.3-.2-.9-.6-1.4-1-.4-.3-.7-.5-.9-.7-.1-.1-.3-.2-.5-.2s-.4.2-.4.4.1.3.2.5c1.2 1.6 2.1 3.2 2.3 4.2.2 1.1.8 1.6 1.3 1.6 1 0 1.7-1.4 1.7-3.3 0-.5-.1-1-.1-1.6-.1-.5-.1-1.1-.2-1.8v-6l.8-.3zm1.5 2.6c-.3 0-.4.2-.4.3 0 .2.2.4.7.7 1.7 1 3.5 2.8 4.7 4.7.4.6.8.9 1.3.9.8 0 1.4-.7 1.4-1.6 0-2.6-6.3-5-7.7-5zm-8.2.2c-.3 0-.4.3-.6.6-.7 1.7-2 2.9-4.4 4-.8.4-1.2.9-1.2 1.5 0 .7.6 1.2 1.4 1.2 1.4 0 5.2-2.8 5.2-6.3.1-.2.1-1-.4-1zm32.2-7.4c.3 0 .7 0 1.1-.1.6-.1 1.3-.2 2-.3 1.7-.3 3.6-.6 5.2-.6 1.2 0 1.6-.5 1.6-1 0-1-1.7-1.4-2.7-1.4-.6 0-1 .1-1.4.3-.2.1-.5.2-.8.2l-.6.1c-1.3.3-3 .7-4.5.7-.9 0-1.7-.2-2.2-.5h-.1c-.1-.1-.2-.1-.4-.1-.3 0-.6.3-.6.6.2.5.7 2.1 3.4 2.1zm10.3 1.6c-.5 0-.9.2-1.3.3-.3.1-.7.3-1.2.3-3 .3-5.8.8-8.3 1.2-.6.1-1.3.2-1.8.3-.2 0-.4.1-.7.1-1 0-2.3-.2-2.8-.5-.3-.1-.5-.2-.8-.2-.3 0-.6.2-.6.6 0 1.5 2.8 2.5 4.2 2.5.6 0 .9-.1 1.5-.4l.3-.1c1-.4 2.2-.7 3.4-.9.1.3.3.4.6.4h.4c.3 0 .4.6.4 1 0 4-4.8 10.2-9.9 12.6-.9.4-.9.6-.9.7 0 .2.1.3.4.3 1.1 0 11.4-3.1 13.2-13.3.1-.3.1-.6.1-.8 0-.7-.2-1.1-.5-1.3 1.6-.1 2.1-.1 2.3-.1 1.4 0 2.7.2 4.1.5.2 0 .3.1.5.1.8 0 1.4-.5 1.4-1.1-.2-1.5-3.4-2.2-4-2.2zm37.7-.6c-.2 0-.4.1-.9.9-4.1 5.8-10.3 9.5-10.8 9.6v-.1c0-.7.4-6.3.8-7.6.1-.3.1-.6.1-.9 0-1.4-1.5-3.3-3-3.3-.7 0-1.6.3-1.6.8 0 .4.5.7.9.8.5.2 1.2.7 1.2 3.5 0 1.5-.2 3.5-.5 5.9-.1.4-.2.7-.2 1-.1.2-.1.4-.1.6 0 .6 1.2 2.7 2.3 2.7.6 0 1.1-.5 1.5-.9l.4-.4c6.1-4.2 10.2-11.2 10.2-12.3 0-.3-.3-.3-.3-.3zm-19 .3c-1.1 0-1.6.8-1.6 1.2 0 .1.1.5.7.6.8.1 1.6.4 1.6 1.6 0 2.8-4.7 9.7-8.6 11.7-.3.2-.7.4-.7.7 0 .2.1.3.4.3 1.4 0 8.7-3.8 11.3-11.4.1-.4.3-.9.3-1.5.1-1.8-2-3.2-3.4-3.2zm47.3 5.8c0 9.2-10.4 12.1-13.3 12.1-.6 0-.7-.3-.7-.4 0-.2 0-.5 1.6-.9 9.2-2.5 9.9-9 9.9-10.9 0-4-2.7-8.3-8.6-8.3h-.5c.5.8.9 2.1.9 3.8 0 6.7-5.3 13.7-8.2 13.7-1.2 0-1.9-1.1-2.6-2.4L278 20c-.5-.7-.8-1.7-.8-2.9 0-5.1 4.4-12.2 12.5-12.2 7.3-.1 10.7 5.1 10.7 9.9zM288 9.1c0-2.4-.7-2.4-.9-2.4h-.5c-4.8 1.4-7.4 6-7.4 9.6 0 2.6 1.3 4.4 2.5 4.4 1.8 0 6.3-6.2 6.3-11.6zm45.5 16.4c0 1.1-1.6 1.8-4.1 1.8-2.6 0-3.7-.9-3.7-2.8 0-1.4.6-11.7.8-14.8 0-.1 0-.2-.2-.2h-1.8c-.5 8.4-2.3 16.3-11.2 18.6-.4.1-.6.1-.7.1-.1.1-.3.1-.5.1-.5 0-1-.3-1-1.2V27c0-.9.1-2.7.1-5-1.6 0-3.1.1-4.7.3-.7 0-1.6-1.3-1.6-1.7v-.3h.3c2.5.3 4.8.4 5.9.4 0-1.1 0-2.2.1-3.3h-1.9v.6c0 .7-.7 1.2-1.3 1.2-.5 0-1-.3-1-1v-.1c.2-2.4.2-4.1.2-5.3 0-2.4-.2-4.1-.3-4.8v-.3c0-.2.2-.4.4-.4 0 0 .2 0 .3.1.3.1 1.7.7 2.3 1.1h1.4V6c-1 0-2.3.1-4.1.3-.7 0-1.6-1.3-1.6-1.7v-.4h.3c1.8.2 3.6.4 5.3.4 0-1-.1-2.6-.3-3.7V.7c0-.1 0-.4.4-.4 0 0 3.4.3 3.4 1.4 0 .4-.5.7-.6.8-.1 0-.2.1-.2.1-.2.1-.3.2-.4.8v1.2h1.7s.1 0 .1-.1c0 0 .9-1.7 1.6-1.7H317.2c.7.3 2.4 1.7 2.4 2.5 0 .2-.1.6-.9.6h-5.2v2.5h1.8s.1 0 .1-.1c.4-.6.6-.8.9-.8.4 0 2.4 1.2 2.4 1.9 0 .2-.1.5-.4.7-.1.1-.2.1-.3.2-.3.2-.3.2-.3.5v.7c0 1.3.1 3.8.2 5.5v.1c0 .8-.7 1.3-1.3 1.3-.6 0-1-.4-1-1.1v-.1h-2.1v3.3h1.8l.1-.1s1-1.6 1.5-1.6H317.2c.7.3 2.3 1.5 2.3 2.4 0 .1 0 .1-.1.3 1.6-2.9 2.4-6.8 2.7-12.1-.7.1-1.5.1-2.4.2h-.1c-.6 0-1.5-1.3-1.5-1.7v-.2h.3c1.4.2 2.8.3 3.7.3 0-.8.1-1.5.1-2.3 0-2.3-.1-3.9-.2-4.4v-.2c0-.2.2-.3.3-.3.3 0 3.6.6 3.6 1.5 0 .4-.4.7-.7.8-.4.2-.5.2-.5.9 0 1.3-.1 2.7-.1 4.1h1.5c.2 0 .2 0 .3-.1.5-.6.7-.8 1.1-.8.8 0 2.6 1.3 2.6 1.9 0 .5-.5.7-.8.9-.1 0-.1.1-.2.1-.2.1-.2.1-.3.9-.1.8-.7 10.9-.7 12.9 0 .8.3 1.1 1.1 1.1 1.4 0 1.6 0 2.3-5.6.1-.6.1-.8.4-.8.3 0 .3.1.5 2 .1 1.2.2 3.4.5 3.7.4.3.6.7.6 1.2zm-24.1-13.3h2V9.9h-1.6l-.1.1c-.3.1-.3.1-.3 2.2zm0 1.3v2.4h1.9v-2.4h-1.9zm6.2-1.3c0-.9 0-1.7-.1-2.3h-2.1v2.3h2.2zm-2.1 1.3v2.4h2.1V13.5h-2.1zm5.1 8.4h-5.1c0 2 .1 3.7.1 4.8v.1c2.5-1.1 4.5-2.8 5.8-5.3-.1.2-.3.4-.8.4zm44.9-3.7c0 .9-.5 1.6-1.2 1.6-.4 0-1.1-.2-1.5-1.6-.5-1.6-2.2-3.9-3.6-5.5v11.5c0 2.7-2.6 3.5-3.5 3.5-.4 0-.6-.3-.8-.5-.2-.3-1.3-.9-1.9-1.3-1.1-.6-1.3-.7-1.3-1 0-.2.1-.3.4-.3h.4c1.2.2 2.1.3 2.7.3 1.3 0 1.5-.5 1.5-.9.1-1.2.1-3.6.1-6.1 0-3.5 0-7.2-.1-8.4 0-.3 0-1-.1-1.6h-.6c0 .3-.2.5-.5.6l-.1.1c-.2.1-.3.1-.3.9V11.1c0 9.2-3.2 14.7-9.7 16.7-.5.1-.8.2-.9.2-.4 0-.4-.3-.4-.3 0-.3.5-.6.9-.7 4.8-2.2 7.4-6.5 7.8-13.2-.1.1-.3.2-.6.2-.2.1-.2.1-.4.4v.1c-2.2 4.3-5 7-5.7 7h-.3v-.3c0-.2.2-.5.4-.7.5-.5 1.3-1.9 2.1-3.4H343v5.7c1.3-.4 2.6-.9 4-1.5.2-.1.3-.1.4-.1.2 0 .4.2.4.4 0 1.1-10.3 5.3-10.4 5.3-.1 0-.1.1-.2.2s-.2.3-.5.3c-.6 0-1.7-2.4-1.7-2.6 0-.3.4-.3.5-.3h.4c.6 0 1.2-.1 1.6-.1v-6.7c0-1.4-.2-2.6-.3-3.1v-.2c0-.2.2-.4.4-.4 0 0 3.2.3 3.2 1.3 0 .4-.5.8-.9 1h-.1c-.2.2-.2 2.1-.2 7.6l1.2-.3V10.4h-1v.6c0 .7-.7 1.2-1.3 1.2-.6 0-1-.4-1-1v-.1c.2-2 .2-3.2.2-4 0-3.2-.2-4.8-.3-5.3v-.2c0-.2.2-.4.3-.4.3 0 2.1.9 2.7 1.3h3.1s.1 0 .2-.1c.5-.9.9-.9 1-.9.5 0 2.5 1.1 2.5 2 0 .4-.3.6-.6.8l-.1.1c-.1.1-.1.1-.2.1-.2.1-.2.1-.2.6v.7c0 .9.1 2 .1 3.1 0 .5.1.9.1 1.4v.1c0 .8-.7 1.3-1.3 1.3-.5 0-1-.3-1-1.1v-.3c-.1.2-.3.3-.4.4-.2.1-.2.5-.2 5h.3v-.1s.9-1.5 1.4-1.5c.1 0 .2 0 .3.1.6.3 1.6 1 1.9 1.7.6-1.4 1.1-2.8 1.2-3.8 0-.2 0-.6.4-.6.1 0 1.8.4 2.5 1.1v-.9c0-1.6-.1-3.1-.2-3.6-1.1 0-2.1.1-3.3.2-.8 0-1.5-1.3-1.5-1.7v-.4h.3c2.9.3 5.2.4 6.6.4V5.1c0-.6 0-2.6-.3-3.6v-.4l.2-.2h.1c.2 0 3.6.4 3.6 1.4 0 .4-.4.7-.7.9l-.1.1c-.4.3-.4.3-.4.8v.3c0 .3-.1 1.4-.1 2.2h3.6l.2-.2v-.1c.9-1.4 1.3-1.6 1.5-1.6.6 0 2.7 1.6 2.7 2.5 0 .2-.1.7-.9.7h-4.4c0 .1-.1.4-.5.6-.4.2-.4.2-.4.8v.1c0 .5 0 1.4-.1 2.5h.1c.4 0 6.1 3.3 6.1 6.3zM339.8 6.7v2.1h3.9V6.3c0-.8 0-1.6-.1-2.3 0-.1 0-.1-.1-.1h-3.3l-.1.1s-.1.1-.2.1c-.2.1-.2.1-.2.8.1.6.1 1.2.1 1.8z"/></svg>