<?xml version="1.0" encoding="utf-8"?>
<!-- Generator: Adobe Illustrator 26.3.1, SVG Export Plug-In . SVG Version: 6.00 Build 0)  -->
<svg version="1.1" id="Layer_1" xmlns="http://www.w3.org/2000/svg" xmlns:xlink="http://www.w3.org/1999/xlink" x="0px" y="0px"
	 viewBox="0 0 328.8 48.2" style="enable-background:new 0 0 328.8 48.2;" xml:space="preserve">
<path d="M1.5,1.1C1.5,1,1.7,1,1.9,1C3,1,4.7,1.5,4.7,2.6c0,0.4-0.3,0.8-0.7,0.8c-0.2,0-0.5-0.1-0.8-0.6l0,0C2.9,2.4,2.3,1.8,1.8,1.4
	C1.6,1.2,1.5,1.2,1.5,1.1z M4.4,9.3c0,0.1,0,0.1,0.1,0.1c0,0,1.7-0.5,3.9-5.1C8.6,4,8.6,4,8.8,4c0.4-0.1,0.5-0.2,0.5-0.3
	c0-0.4-1.7-1-1.8-1c-0.1,0-0.1,0.1-0.1,0.1c0,0,0,0,0,0.1c0,0.1,0,0.2,0,0.3c0,0.2,0,0.5-0.1,0.7C6.5,6,5.3,8.1,4.6,9
	C4.5,9.1,4.4,9.2,4.4,9.3z M0.3,5.3c0.5,0.3,1.2,0.9,1.5,1.2l0,0C2,6.9,2.3,7,2.5,7c0.4,0,0.7-0.3,0.7-0.8c0-0.8-0.9-1.3-2.3-1.3
	C0,4.9,0,5,0,5.1C0,5.1,0.1,5.2,0.3,5.3L0.3,5.3z M8.2,2.4L8.2,2.4C9,2.3,9.8,2.2,10.1,2.2h1c0.2,0,0.2,0,0.3,0.2
	c0.6,3.8,2.9,6,3.3,6c0.1,0,0.1,0,0.2-0.1C15.1,8.1,15.6,8,16.1,8c0.4-0.1,0.6-0.1,0.6-0.2c0-0.1-0.1-0.1-0.2-0.1l0,0
	C12.9,6.3,12,2.7,12,2.7c0-0.1,0.1-0.1,0.3-0.1c0.1,0,0.2,0,0.3-0.1C13,2.4,13.2,2.2,13.2,2c0-0.4-1.1-1.1-1.3-1.1
	c-0.1,0-0.2,0-0.6,0.5c-0.1,0.1-0.1,0.1-0.2,0.1h-1c-0.1,0-1.4,0-2.7-0.3l-0.1,0v0.1C7.3,1.7,7.9,2.4,8.2,2.4z M3.2,16
	c0.3-0.4,0.3-1,0.1-1.7C3.1,13.7,3,13.1,3,12.5c0-1.4,0.5-3,3.2-8.9c0.1-0.1,0.1-0.3,0.1-0.4c0,0,0-0.1-0.1-0.1
	c-0.5,0-4.1,7.1-4.1,7.2C1.7,10.9,1.3,11,0.6,11c-0.3,0-0.5,0.1-0.5,0.2c0,0.1,0.1,0.2,0.5,0.3C1.9,11.8,2,12.5,2,13.1
	c0,0.3,0,0.6-0.1,0.9c0,0.2-0.1,0.4-0.1,0.7V15c0,0.9,0.4,1.4,0.8,1.4C2.9,16.3,3.1,16.2,3.2,16z M7.8,15l0,0.8c0,0.2,0,0.3-0.2,0.4
	c-0.2,0.2-0.4,0.2-0.6,0.2c-0.3,0-0.6-0.2-0.6-0.5v-0.1c0.1-1.7,0.1-2.9,0.1-3.7c0-1.1,0-2.3-0.2-3.3c0-0.1,0-0.1,0-0.1
	c0-0.1,0-0.1,0.1-0.1c0.2,0,1.3,0.5,1.8,0.8l0,0h3.7c0.1,0,0.1,0,0.2-0.1c0.3-0.5,0.5-0.5,0.6-0.5c0.2,0,1.5,0.7,1.5,1.1
	c0,0.2-0.2,0.4-0.4,0.5l0,0c-0.3,0.2-0.3,0.2-0.3,1.4c0,1,0.1,2.5,0.1,3.8c0,0.2,0,0.4-0.2,0.5c-0.2,0.2-0.4,0.2-0.6,0.2
	c-0.3,0-0.6-0.2-0.6-0.6v0l0-0.7H7.8z M7.8,12.3c0,0.7,0,1.4,0,2.1h4.4c0-0.8,0-1.5,0-2.2c0-0.8,0-1.5,0-2c0,0,0-0.1-0.2-0.1H8.2
	c0,0,0,0-0.1,0.1L8,10.1c-0.2,0.1-0.2,0.1-0.2,0.6C7.8,11.3,7.8,11.8,7.8,12.3z M27.7,10.7L27.7,10.7c0.1,0,0.1,0,0.1-0.1
	c0.1-0.1,0.3-0.2,0.3-0.3c0-0.3-0.9-1-1.1-1c-0.2,0-0.4,0.3-0.5,0.4c-0.1,0.1-0.1,0.1-0.1,0.1h-0.5c-0.2,0-1,0-2-0.2l-0.1,0v0.1
	c0,0.2,0.3,0.6,0.5,0.8c0.1,0.1,0.2,0.1,0.2,0.1c0.7-0.1,1.2-0.2,1.4-0.2h0.4c0,0,0,0,0,0c0,0.2-1.1,3.7-3.6,5.3
	c-0.1,0.1-0.3,0.2-0.3,0.3c0,0,0,0.1,0.1,0.1c0.7,0,3.4-1.6,4.7-5.1C27.5,10.8,27.6,10.7,27.7,10.7z M18.5,4.2
	c0.5,0.4,1,0.8,1.3,1.5C20,6,20.3,6.2,20.6,6.2c0.3,0,0.6-0.3,0.6-0.7c0-0.3-0.1-0.8-1-1.2c0.5-0.6,1.2-1.7,1.6-2.4
	c0.1-0.2,0.2-0.2,0.3-0.2c0.5-0.1,0.5-0.3,0.5-0.4c0-0.4-1.8-1-1.8-1c-0.1,0-0.1,0.1-0.1,0.3c0,0.9-0.3,1.9-1,3.5
	c-0.3-0.1-0.9-0.3-1.2-0.3c-0.1,0-0.2,0-0.2,0.1C18.3,4,18.3,4.1,18.5,4.2z M18.9,9.6c0.1,0,0.2-0.1,0.3-0.1c0.1,0,0.1-0.1,0.2-0.1
	c0.3-0.1,1-0.3,1.7-0.4c0,0.5,0,0.9,0,1.2c0,2-0.1,3.9-0.2,5.8V16c0,0.4,0.3,0.6,0.5,0.6c0.2,0,0.4-0.1,0.6-0.3
	c0.1-0.1,0.2-0.3,0.2-0.5c0-1.4-0.1-3.6-0.1-5.1c0-1.6,0-1.6,0.2-1.7c0.1-0.1,0.2-0.2,0.2-0.3c0-0.1,0-0.1-0.1-0.2
	c0.1,0,0.1,0,0.2-0.1c0.3-0.1,0.5-0.1,0.7-0.2c0.2,0.8,0.3,1.1,0.8,1.1c0.3,0,0.7-0.3,0.7-0.8c0-1-1.8-2.2-2.2-2.2
	c-0.1,0-0.1,0-0.1,0.1c0,0,0,0.1,0.1,0.3C22.8,7,23,7.4,23.2,7.8c-0.7,0.1-1.6,0.2-2.6,0.2c1-1.1,2.3-2.8,3.2-4.1
	c0.1-0.2,0.2-0.2,0.4-0.2c0.4,0,0.6-0.2,0.6-0.4c0-0.4-1.5-1.1-1.6-1.1C23,2.3,23,2.5,23,2.6c-0.2,1.1-2,4.1-3,5.5l-0.2,0h-0.3
	c-0.4,0-0.9,0-1.2-0.1c0,0,0,0-0.1,0c0,0,0,0-0.1,0c0,0-0.1,0-0.1,0.1C17.9,8.3,18.5,9.6,18.9,9.6z M25.8,15.4
	c-0.5-0.3-0.6-0.4-0.6-0.4c0-0.1,0.1-0.1,0.1-0.1c0,0,0.1,0,0.1,0c0,0,0.1,0,0.1,0c0.8,0.2,1.3,0.2,1.7,0.2c1,0,1-0.4,1-1.2
	c0-1.4-0.1-5.5-0.2-6.2h-1.5v0.3c0,0.1,0,0.3-0.1,0.4c-0.1,0.1-0.4,0.2-0.6,0.2c-0.3,0-0.5-0.2-0.5-0.5V8.1c0.1-1.1,0.1-3,0.1-3.7
	c0-0.2,0-1.7-0.2-2.4c0-0.1,0-0.1,0-0.1c0-0.1,0.1-0.1,0.1-0.1c0.1,0,1.2,0.5,1.6,0.8l0,0h0.5c0.1-0.4,0.3-1.3,0.3-2
	c0-0.1,0-0.2,0-0.2c0-0.1,0-0.1,0-0.2c0,0,0-0.2,0.1-0.2c0.2,0,1.9,0.6,1.9,1c0,0.1-0.1,0.3-0.6,0.4c-0.1,0-0.2,0.1-0.3,0.2l0,0
	c-0.2,0.3-0.4,0.6-0.7,0.9h2.4c0.1,0,0.1,0,0.2-0.1C31.1,2.1,31.2,2,31.4,2c0.2,0,1.4,0.7,1.4,1.1c0,0.2-0.3,0.4-0.5,0.5
	c-0.3,0.1-0.3,0.1-0.3,1c0,1.1,0.1,2.8,0.1,3.4c0,0.2-0.1,0.3-0.2,0.4c-0.1,0.2-0.4,0.2-0.6,0.2c-0.3,0-0.5-0.2-0.5-0.5V7.8h-1.2
	c0.1,0.1,0.1,0.1,0.1,0.2c0,0.1-0.1,0.2-0.3,0.3c0.2,1,0.5,1.8,0.9,2.5c0.3-0.3,1.7-1.4,1.9-2c0,0,0-0.1,0.1-0.1
	c0.2,0,1.5,1,1.5,1.4c0,0.1,0,0.3-0.4,0.3c-0.1,0-0.2,0-0.3,0c-0.1,0-0.2,0-0.2,0c-0.1,0-0.2,0-0.2,0l-0.3,0.1
	c-0.5,0.2-1.3,0.5-1.8,0.7c1,1.8,2.4,3,4,3.5c0.2,0.1,0.2,0.1,0.2,0.2c0,0.1-0.2,0.2-0.6,0.2c-0.4,0.1-1,0.2-1.3,0.4
	c-0.1,0.1-0.1,0.1-0.2,0.1c-0.2,0-2.6-1.8-3.5-6.8c0,0.2,0,0.5,0,0.7c0,1.1,0.1,3.3,0.1,3.9c0,0.1,0,0.2,0,0.4
	c0,0.3,0.1,0.6,0.1,0.8v0c0,1.3-1.4,1.9-2,1.9c-0.2,0-0.3-0.1-0.4-0.2C26.9,16,26.3,15.7,25.8,15.4z M26.6,5.4c0,0.6,0,1.2,0,1.8H31
	c0-0.6,0-1.2,0-1.8H26.6z M31,4.8c0-1.5,0-1.7-0.2-1.7h-3.7c-0.1,0-0.2,0.1-0.3,0.2c-0.2,0.1-0.2,0.8-0.2,1.5H31z M17.7,15.8
	c0.2,0,1.4-1.5,2.3-4c0.1-0.2,0.1-0.3,0.3-0.4c0.3-0.1,0.5-0.2,0.5-0.4c0-0.4-1.6-0.9-1.9-0.9c-0.1,0-0.1,0.2-0.1,0.3
	c0,1.8-0.9,4.3-1.2,5c-0.1,0.1-0.1,0.2-0.1,0.3C17.5,15.8,17.6,15.8,17.7,15.8z M22.2,10.1c0,0,0,0.1,0.1,0.3c0.4,0.5,0.7,1.3,1,2.2
	c0.1,0.5,0.4,0.7,0.7,0.7c0.4,0,0.7-0.3,0.7-0.8C24.6,11.3,22.7,10,22.2,10.1C22.3,10,22.2,10,22.2,10.1z M38.9,8.6
	c0-0.1,0-0.2,0.2-0.2c0.1,0,0.4,0.1,0.5,0.1c0.7,0.2,1.4,0.4,2.1,0.4c1,0,1.8-0.2,2.2-0.3c0-0.8,0-1.6,0.1-2.5c-0.1,0-0.2,0-0.4,0
	c-2.1,0-2.8-1.3-2.8-1.8c0-0.1,0.1-0.2,0.1-0.2c0.1,0,0.2,0.1,0.3,0.1l0,0c0.7,0.4,1.4,0.8,2.2,0.8c0.1,0,0.2,0,0.4,0l0.1,0
	c0-0.3,0.1-0.5,0.1-0.8c0-0.1,0.2-1.3,0.2-1.9c0-0.6-0.1-0.7-0.4-0.8c-0.3-0.1-0.5-0.2-0.5-0.3c0-0.1,0.4-0.6,0.8-0.6
	c0.6,0,1.3,0.9,1.3,1.4c0,0.2-0.1,0.4-0.1,0.6c0,0.1-0.1,0.2-0.1,0.4l0,0c0,0-0.1,0.2-0.3,1.6l0.1,0l0,0.1l0-0.1
	c0.3-0.2,0.7-0.4,1-0.4c0.4,0,0.5,0.3,0.5,0.5c0,0.7-1.5,1.1-1.8,1.2c0,0.6-0.1,1.1-0.1,1.9v0.5c1.3-0.4,1.4-0.7,1.4-0.8
	c0-0.2-0.5-0.6-0.7-0.8c0,0-0.1-0.1-0.1-0.1c0,0,0-0.1,0.1-0.1c0.1,0,0.1,0,0.2,0C46,6.7,46.8,7,47.2,7c0.4,0,0.7,0.2,0.7,0.5
	c0,0.9-2.6,1.8-3,1.9c0,0.4,0.1,0.8,0.1,1.2c0,0.2,0,0.4,0.1,0.6c0,0.2,0,0.4,0.1,0.6c0,0.3,0.1,0.7,0.1,1c1.9,0.6,2.7,1.9,2.7,2.4
	c0,0.4-0.3,0.7-0.6,0.7c-0.2,0-0.5-0.1-0.7-0.5c-0.3-0.5-0.8-1-1.4-1.3c-0.4,1.4-2,2.2-3.3,2.2c-1.4,0-2.3-1-2.3-1.9
	c0-1.4,2.2-1.9,3.7-1.9c0.3,0,0.6,0,0.8,0.1c0-0.3,0-0.5,0-0.8c0-0.2,0-0.3,0-0.5c0-0.5-0.1-1-0.1-1.6C43,10,42.1,10,41.9,10
	C39.5,10,38.9,8.8,38.9,8.6z M40.3,14.4c0,0.3,0.4,0.8,1.4,0.8c0.9,0,2-0.6,2.3-1.6c-0.5-0.1-0.9-0.2-1.4-0.2
	C42.5,13.5,40.3,13.5,40.3,14.4z M61.7,15.5c-1.4,0-2.9-0.8-2.9-1.9c0-0.9,0.9-1.4,1.8-1.4c1.1,0,2,0.8,2,1.9c0,0.2,0,0.3-0.1,0.5
	c2.2-0.5,3-1.9,3-3.2c0-1.3-1-2.7-2.9-2.7c-1.1,0-2.7,0.4-3.9,2.5c-0.1,0.1-0.2,0.3-0.3,0.5c-0.1,0.3-0.3,0.5-0.3,0.6
	c-0.2,0.3-0.5,0.5-0.8,0.5c-0.3,0-0.6-0.3-0.6-0.6c0-0.3,0.1-0.6,1.5-2.3c0.7-0.9,4-5.4,4.3-5.9c0.1-0.2,0.2-0.4,0.2-0.4
	c0-0.2-0.1-0.3-0.4-0.3c-0.4,0-0.7,0.3-1,0.7c-0.4,0.4-0.8,0.9-1.5,0.9c-0.7,0-1.2-0.4-1.2-1.1c0-0.1,0-0.4,0.2-0.4
	c0.1,0,0.2,0,0.3,0.1c0,0,0.1,0,0.1,0c0.1,0,0.3,0.1,0.4,0.1c0.3,0,0.5-0.1,0.7-0.2c0.6-0.5,1.6-1.1,2.5-1.1c0.9,0,1.6,0.7,1.6,1.1
	c0,0.4-0.4,0.7-0.7,1c-1.2,0.9-3.1,3.4-3.6,4.1C61,8.3,62,8,62.9,8c2.8,0,3.8,2.1,3.8,3.4C66.7,13.4,64.8,15.5,61.7,15.5z
	 M59.6,13.6c0,0.6,0.9,1,1.8,1.1c0.1-0.2,0.1-0.3,0.1-0.6c0-0.6-0.5-1.2-1.1-1.2C59.6,13,59.6,13.5,59.6,13.6z M84.2,1.9
	c0,0,0.1,0,0.1,0c0.6,0.3,1.1,0.7,1.6,1.2l0,0c0.2,0.2,0.3,0.3,0.5,0.3c0.3,0,0.6-0.3,0.6-0.6c0-0.9-1.1-1.2-2.1-1.2
	c-0.2,0-0.9,0-0.9,0.2C84,1.8,84,1.9,84.2,1.9z M82.4,2.8C82.8,3,83.4,3.4,84,4l0,0c0.2,0.2,0.4,0.3,0.5,0.3c0.3,0,0.6-0.3,0.6-0.7
	c0-0.6-0.8-1.3-2.2-1.3c-0.2,0-0.8,0-0.8,0.2C82.1,2.6,82.2,2.7,82.4,2.8z M78.5,4.8c0.1,0,0.3,0,0.4,0c0.1,0,0.3,0,0.4,0
	c0.1,0,0.2,0,0.2,0c0,0.1-0.7,0.9-1,1.3c-0.1,0.1-0.2,0.3-0.2,0.4c0,0.1,0,0.1,0.1,0.1c0.1,0,0.3-0.1,0.5-0.2
	C80.4,5.3,81.7,5,82.1,5c0.6,0,0.8-0.3,0.8-0.5c0-0.4-0.6-0.9-1.5-0.9c-0.1,0-0.3,0-0.4,0c-0.1,0-0.3,0-0.4,0c-0.6,0-1.1,0-1.7,0
	c-0.7,0-1.6,0-2.3-0.3c-0.1,0-0.1,0-0.1-0.1c-0.2-0.1-0.3-0.1-0.4-0.1c-0.1,0-0.2,0.1-0.2,0.1C75.9,3.4,76.6,4.6,78.5,4.8z
	 M84.3,13.8c0-0.4-0.4-0.6-1-0.6c-0.1,0-0.3,0-0.4,0l0,0c-0.2,0-0.4,0.1-0.7,0.2c-0.3,0.1-0.6,0.2-1,0.3c-0.5,0.1-1,0.2-1.5,0.2
	c-1.9,0-4-0.8-4-2c0-0.3,0.1-0.5,0.3-0.8C76,11,76,10.9,76,10.7c0-0.2-0.1-0.2-0.1-0.2c-0.2,0-1,0.8-1,1.8c0,1.7,2.3,3,5.2,3
	C82.3,15.3,84.3,14.6,84.3,13.8z M100.6,14.1c-0.2,0-0.4,0.1-0.6,0.2c-0.7,0.3-1.5,0.5-2.4,0.5c-1.7,0-2.8-0.8-2.8-2
	c0-1.6,2.3-3,3.8-3h0.2c0,0,0.1,0,0.1,0c0,0,0.1,0,0.1,0c0.6,0,1.5-0.3,1.5-1c0-0.1,0-0.6-0.8-0.6c-0.3,0-0.7,0.1-1.6,0.4
	c-0.8-0.2-1.1-0.8-1.1-1.9c0-0.8,0.2-1.6,0.4-2.4c0-0.2,0.1-0.4,0.1-0.5c0-0.1,0-0.2,0.1-0.3c0.1-0.2,0.1-0.5,0.1-0.8
	c0-1.2-1.2-1.8-1.7-1.8c-0.5,0-0.8,0.3-0.8,0.6c0,0.1,0,0.2,0.3,0.3c0.7,0.1,0.9,0.4,0.9,1c0,0.3,0,0.6-0.1,0.9l0,0.2
	c0,0.2-0.1,0.4-0.1,0.6c-0.1,0.6-0.2,1.3-0.2,2c0,1.3,0.4,2.1,1.1,2.5c-1.9,0.9-3.1,2.4-3.1,3.9c0,1.3,1.1,3.1,4.2,3.1
	c1.3,0,3.3-0.4,3.3-1.3C101.4,14.4,101,14.1,100.6,14.1z M116,7.1c0.6-0.1,1.2-0.1,1.7-0.1c0.7,0,1.4,0.1,2,0.2c0.1,0,0.2,0,0.3,0
	c0.4,0,0.7-0.2,0.7-0.5c0-0.5-1.2-1-2.2-1c-0.4,0-0.6,0.1-0.8,0.2c-0.2,0.1-0.4,0.2-0.8,0.3c-0.3,0.1-0.8,0.1-1.3,0.2
	c0-0.4,0-0.7,0.1-1c0-0.3,0.1-0.5,0.1-0.7c0-0.2,0.1-0.3,0.1-0.5c0-0.8-1.5-1.3-2-1.3c-0.6,0-0.8,0.4-0.8,0.5c0,0.2,0.2,0.3,0.3,0.3
	h0c0,0,0.1,0,0.1,0c0,0,0,0,0.1,0c0.7,0,1,0.5,1,1.5v1.3c-2.2,0.3-2.3,0.3-2.6,0.3c-0.7,0-1.3-0.1-2.1-0.4c-0.2-0.1-0.3-0.1-0.4-0.1
	c-0.1,0-0.2,0.1-0.2,0.4c0,0.8,1.7,1.2,2.4,1.2c0.3,0,0.5-0.1,0.8-0.1c0.2-0.1,0.4-0.1,0.7-0.2c0.4-0.1,0.9-0.2,1.4-0.2
	c0,3.5,0,4.2,0,4.6c0,0.1,0,0.1-0.1,0.1c0,0,0,0-0.1,0c-0.2-0.1-0.5-0.3-0.8-0.6c-0.2-0.2-0.4-0.3-0.6-0.4c0,0-0.1-0.1-0.2-0.1
	c-0.1,0-0.1,0-0.1,0.1c0,0.1,0,0.1,0.1,0.2c0.8,1,1.3,1.9,1.4,2.5c0.1,0.6,0.4,0.9,0.7,0.9c0.5,0,0.9-0.8,0.9-1.9
	c0-0.3,0-0.6-0.1-0.9c0-0.3-0.1-0.7-0.1-1.1c0-0.6,0-1.2,0-1.8c0-0.6,0-1.2,0-1.8L116,7.1z M112,8.9c-0.1,0-0.2,0.1-0.2,0.3
	c-0.4,1-1.2,1.7-2.6,2.4c-0.4,0.2-0.7,0.5-0.7,0.8c0,0.4,0.3,0.6,0.8,0.6c0.8,0,3-1.6,3-3.6C112.2,9.3,112.2,8.9,112,8.9z
	 M116.8,8.9c0,0.1,0.1,0.2,0.4,0.3c1,0.6,2.1,1.7,2.8,2.8l0,0c0.2,0.3,0.4,0.5,0.7,0.5c0.4,0,0.7-0.4,0.7-0.9c0-1.5-3.7-2.9-4.5-2.9
	C116.8,8.8,116.8,8.9,116.8,8.9z M134.5,7.8c0-0.5-0.2-0.7-0.5-0.9c1.2-0.1,1.5-0.1,1.7-0.1c0.9,0,1.6,0.1,2.5,0.3l0,0
	c0.1,0,0.2,0,0.2,0c0.4,0,0.7-0.2,0.7-0.5c0-0.7-1.8-1.2-2.2-1.2c-0.3,0-0.5,0.1-0.7,0.2c-0.2,0.1-0.4,0.2-0.7,0.2
	c-1.8,0.2-3.4,0.5-4.9,0.7c-0.4,0.1-0.8,0.1-1.1,0.2c-0.1,0-0.3,0-0.4,0c-0.6,0-1.4-0.1-1.7-0.3c-0.2-0.1-0.3-0.1-0.4-0.1
	c-0.1,0-0.3,0-0.3,0.3c0,0.9,1.7,1.4,2.4,1.4c0.3,0,0.5-0.1,0.9-0.2l0.2-0.1c0.6-0.2,1.4-0.4,2.1-0.6c0,0,0,0,0,0
	c0,0.2,0.1,0.3,0.3,0.3c0,0,0.1,0,0.1,0c0,0,0,0,0.1,0c0,0,0,0,0,0c0.2,0,0.3,0.2,0.3,0.7c0,2.4-2.9,6.1-5.9,7.6
	c-0.2,0.1-0.5,0.2-0.5,0.4c0,0.1,0,0.1,0.1,0.1c0.6,0,6.7-1.8,7.7-7.8C134.5,8.1,134.5,8,134.5,7.8z M130.8,4.4c0.2,0,0.4,0,0.6,0
	c0.3,0,0.8-0.1,1.2-0.2c1-0.2,2.2-0.4,3.1-0.4c0.5,0,0.8-0.2,0.8-0.5c0-0.5-0.9-0.7-1.5-0.7c-0.3,0-0.6,0.1-0.8,0.2
	c-0.2,0.1-0.3,0.1-0.5,0.1c-0.1,0-0.2,0-0.4,0.1c-0.8,0.2-1.8,0.4-2.7,0.4c-0.6,0-1-0.1-1.3-0.3l0,0c-0.1,0-0.1-0.1-0.2-0.1
	c-0.1,0-0.2,0.1-0.2,0.3C129,3.5,129.4,4.4,130.8,4.4z M149.7,7.1c0-1-1.2-1.8-1.9-1.8c-0.6,0-0.8,0.5-0.8,0.6c0,0.1,0,0.2,0.3,0.3
	l0,0c0.3,0,1,0.1,1,1c0,0.8-0.6,2.2-1.7,3.7c-1.1,1.5-2.4,2.8-3.4,3.3c-0.1,0.1-0.4,0.2-0.4,0.3c0,0,0,0.1,0.1,0.1
	c0.8,0,5.1-2.2,6.6-6.7C149.7,7.8,149.7,7.5,149.7,7.1z M150.5,5.1c0.5,0.2,0.8,0.9,0.8,2.2c0,0.9-0.1,2.1-0.3,3.5
	c0,0.3-0.1,0.5-0.1,0.6c0,0.1-0.1,0.2-0.1,0.3c0,0.3,0.7,1.5,1.3,1.5c0.3,0,0.6-0.3,0.8-0.5c0.1-0.1,0.2-0.2,0.3-0.2
	c3.6-2.5,6-6.6,6-7.2c0-0.1,0-0.1-0.1-0.1c-0.1,0-0.1,0-0.5,0.5c-2.5,3.6-6.2,5.7-6.5,5.7c0,0-0.1,0-0.1-0.2c0-0.4,0.2-3.7,0.5-4.5
	c0.1-0.2,0.1-0.3,0.1-0.5c0-0.8-0.8-1.9-1.7-1.9c-0.4,0-0.9,0.2-0.9,0.4C150.1,4.9,150.2,5,150.5,5.1z M175.4,8.7
	c0,5.4-6.1,7.1-7.8,7.1c-0.2,0-0.3-0.1-0.3-0.1c0-0.1,0-0.2,0.9-0.4c1.4-0.4,6-2,6-6.6c0-2.4-1.6-5-5.2-5c-0.2,0-0.3,0-0.5,0
	c0.4,0.4,0.6,1.3,0.6,2.3c0,3.9-3.1,8-4.8,8c-0.7,0-1-0.6-1.5-1.4c-0.2-0.3-0.3-0.6-0.6-0.9c-0.3-0.4-0.4-1-0.4-1.7
	c0-1.5,0.7-3.3,1.8-4.6c1-1.2,2.7-2.5,5.5-2.5C173.5,2.8,175.4,5.9,175.4,8.7z M168.3,5.3c0-1.4-0.3-1.5-0.6-1.5c-0.1,0-0.1,0-0.2,0
	c-0.1,0-0.1,0-0.2,0c-2.9,0.8-4.5,3.6-4.5,5.8c0,1.5,0.7,2.7,1.6,2.7C165.6,12.3,168.3,8.6,168.3,5.3z M178.5,16.5
	c0.1,0,6.7-0.1,8.1-4.8h0.1c1.2,3.2,5,4.7,5.9,4.7c0.1,0,0.2,0,0.3-0.2c0.2-0.3,0.9-0.6,1.4-0.8c0.5-0.2,0.6-0.3,0.6-0.4
	c0-0.1-0.2-0.1-0.3-0.1h-0.1c-3.2,0-5.8-1.2-7.3-3.2h6.1c0.4,0,0.5-0.2,0.5-0.3c0-0.3-1-1.3-1.6-1.5l0,0c0,0,0,0,0,0
	c0,0-0.1,0-0.1,0c-0.4,0-1.1,1.1-1.1,1.1c0,0.1-0.2,0.1-0.2,0.1h-4c0.1-0.3,0.2-1,0.2-1.9h3.9c0.4,0,0.4-0.2,0.4-0.3
	c0-0.4-0.9-1.1-1.4-1.3l0,0c0,0,0,0,0,0c0,0-0.1,0-0.1,0c-0.3,0-0.9,0.9-0.9,0.9c0,0.1-0.1,0.1-0.2,0.1h-1.7c0-0.3,0-0.7,0-1
	c0-0.3,0-0.6,0-0.8h4.7c0.4,0,0.5-0.2,0.5-0.3c0-0.4-1-1.2-1.5-1.4c-0.1,0-0.1,0-0.1,0c-0.3,0-1,1-1,1c0,0.1-0.2,0.1-0.2,0.1h-2.3
	V5.8c0-0.5,0-0.5,0.2-0.6c0,0,0.1,0,0.2-0.1c0.3-0.1,0.4-0.3,0.4-0.5c0-0.5-2.1-0.7-2.1-0.7c-0.1,0-0.1,0.1-0.1,0.1c0,0,0,0.1,0,0.1
	c0,0.3,0.2,1,0.2,2.1h-0.9c-0.9,0-2.3,0-4.2-0.3l-0.1,0V6c0,0.3,0.5,0.9,0.8,0.9l0,0c1.6-0.1,2.5-0.2,3.3-0.2h1c0,0.6,0,1.1,0,1.8
	h-0.6c-0.9,0-2.3,0-4-0.3l-0.1,0v0.1c0,0.3,0.5,0.9,0.9,0.9l0,0c1.4-0.1,2.1-0.2,3.1-0.2h0.6c0,0.6,0,1.2-0.2,1.9h-0.8
	c-1.4,0-4.2-0.1-5.8-0.3l-0.1,0V11c0,0.3,0.6,0.9,0.9,0.9h0c1.6-0.1,3.9-0.2,4.9-0.2h0.7c-0.9,2.3-3.1,3.8-6.6,4.4
	c-0.4,0.1-0.6,0.2-0.6,0.3C178.1,16.5,178.2,16.5,178.5,16.5z M179.5,5.9c0.6,0,1.6-0.6,1.9-2.3h9.9c0,0,0,0,0,0
	c0,0.1-0.6,0.9-0.9,1.3c-0.1,0.1-0.1,0.1-0.1,0.2c0,0.1,0.1,0.1,0.1,0.1c0,0,0.1,0,0.1,0c0,0,0,0,0.1,0c0.1,0,0.2-0.1,0.3-0.2
	c0.6-0.3,1.2-0.5,2-0.6c0.7,0,0.8-0.4,0.8-0.5c0-0.5-1.1-1.3-1.5-1.4l0,0c0,0,0,0,0,0c-0.3-0.1-0.7,0.4-0.7,0.4
	c-0.1,0.1-0.2,0.1-0.2,0.1h-4.4c0-0.1,0-0.3,0-0.4l0-0.4c0-0.5,0-0.5,0.4-0.7l0,0c0.2-0.1,0.4-0.2,0.4-0.5c0-0.5-2-0.8-2.2-0.8
	c-0.1,0-0.1,0-0.1,0.1c0,0,0,0.1,0,0.1c0.1,0.6,0.2,1.6,0.2,2.4V3h-4.3c0-0.3-0.1-1.4-0.3-1.4c-0.1,0-0.1,0.1-0.2,0.3
	c-0.2,1.1-0.6,1.7-1.7,2.6c-0.3,0.3-0.5,0.6-0.5,0.8C178.7,5.6,179.1,5.9,179.5,5.9z M196.7,4.6L196.7,4.6c1.1-0.1,2-0.2,2.8-0.2
	h3.3c0.1,0,0.4,0,0.4-0.3c0-0.4-1.2-1.4-1.5-1.4c-0.1,0-0.1,0-0.2,0.1c-0.2,0.2-0.5,0.6-0.6,0.9c0,0.1-0.1,0.1-0.2,0.1h-1.2
	c-0.8,0-2.3-0.1-3.5-0.3l-0.1,0v0.1C195.9,3.9,196.4,4.6,196.7,4.6z M196.9,8.3c0,0.3,0.5,0.9,0.8,0.9l0,0c0.9-0.1,1.3-0.2,1.8-0.2
	h2.1c0.3,0,0.4-0.2,0.4-0.3c0-0.4-0.7-1-1.2-1.2c0,0-0.1,0-0.1,0c-0.3,0-0.8,0.8-0.8,0.8c0,0.1-0.1,0.1-0.1,0.1h-0.3
	C199.2,8.5,198.2,8.5,196.9,8.3L196.9,8.3L196.9,8.3z M203.6,2.8L203.6,2.8c1.2-0.1,2.1-0.2,3.1-0.2c0,0.6,0.1,2,0.1,2.4
	c0,0.6,0,1.5,0,2.6c0,2.4,0,5.3-0.1,7.1l0,0.2h-0.2c-0.4,0-0.9,0-1.5,0l0,0c0-0.8,0-1.8,0-2.8c0-1.9,0-3.6,0.1-4.2
	c0-0.1,0-0.1,0-0.2c0-0.3,0-0.4,0.3-0.6c0.3-0.2,0.4-0.3,0.4-0.5c0-0.5-2-0.8-2.1-0.8c-0.1,0-0.1,0-0.1,0.1c0,0,0,0.1,0,0.1l0,0
	c0.1,0.7,0.2,2,0.2,2.9c0,0.3,0,0.6,0,0.9c0,0.4,0,0.8,0,1.2c0,1.1,0,2.4,0,3.7l0,0c-0.5,0-1.1-0.1-1.7-0.2l-0.2,0v0.1
	c0,0.2,0.5,1,0.9,1l0,0c1.5-0.2,2.6-0.2,3.6-0.2h5.7c0.4,0,0.4-0.2,0.4-0.3c0-0.3-1-1.3-1.6-1.5c-0.1,0-0.1,0-0.1,0
	c-0.2,0-0.5,0.3-1,1.1l0,0.1c0,0.1-0.1,0.1-0.2,0.1H208c0-1.8,0-4.2,0-6.4h3.3c0.4,0,0.4-0.2,0.4-0.3c0-0.4-0.9-1.1-1.5-1.4
	c-0.1,0-0.1,0-0.1,0c-0.2,0-0.8,0.8-1,1c0,0.1-0.1,0.1-0.2,0.1h-1c0-1.9,0-3.4,0-4c0-0.5,0-0.5,0.3-0.6c0.2-0.1,0.3-0.2,0.3-0.4
	c0-0.1-0.1-0.2-0.3-0.3h3.3c0.4,0,0.4-0.2,0.4-0.3c0-0.3-0.9-1.2-1.6-1.5c-0.1,0-0.1,0-0.1,0c-0.3,0-1,1.1-1,1.1
	c0,0.1-0.1,0.1-0.2,0.1h-2.1c-0.7,0-2.4,0-4.3-0.3l-0.1,0v0.1C202.7,2.1,203.2,2.8,203.6,2.8z M197.5,16.5c-0.3,0-0.5-0.2-0.5-0.5
	V16c0.1-1.3,0.1-2.1,0.1-2.8c0-1.2-0.1-2.2-0.2-2.8c0,0,0,0,0-0.1c0,0,0,0,0-0.1c0,0,0-0.1,0.1-0.1c0.2,0,1.2,0.4,1.6,0.7l0,0h1.5
	c0.1,0,0.1,0,0.2-0.1c0.2-0.4,0.4-0.5,0.6-0.5c0.3,0,1.4,0.7,1.4,1.1c0,0.2-0.2,0.4-0.4,0.5l0,0c-0.3,0.2-0.3,0.3-0.3,0.9
	c0,0.8,0.1,1.9,0.1,2.8c0,0.2-0.1,0.3-0.2,0.4c-0.2,0.2-0.4,0.2-0.6,0.2c-0.3,0-0.6-0.2-0.6-0.5v-0.4h-2.2l0,0.6
	C198.3,16.3,197.9,16.5,197.5,16.5z M198.3,12.1L198.3,12.1c0,0.6,0,1,0,1.5c0,0.2,0,0.4,0,0.5c0,0.2,0,0.3,0,0.5h2.2
	c0-0.6,0-1.2,0-1.7c0-0.5,0-1,0-1.4c0,0,0-0.1-0.1-0.1h-1.8c0,0,0,0-0.1,0.1l0,0C198.3,11.7,198.3,11.7,198.3,12.1z M197.7,2.1
	L197.7,2.1c0.9-0.1,1.3-0.2,1.8-0.2h2.1c0.3,0,0.4-0.2,0.4-0.3c0-0.3-0.6-1-1.2-1.3c0,0-0.1,0-0.1,0c-0.2,0-0.5,0.5-0.8,0.9
	c0,0.1-0.1,0.1-0.1,0.1h-0.2c-0.4,0-1.3,0-2.5-0.3l-0.1,0v0.1C196.9,1.5,197.4,2.1,197.7,2.1z M197.7,6.9L197.7,6.9
	c0.8-0.1,1.2-0.2,1.8-0.2h2.1c0.3,0,0.4-0.2,0.4-0.3c0-0.4-0.8-1-1.2-1.2c0,0-0.1,0-0.1,0c-0.3,0-0.8,0.8-0.8,0.8
	c0,0.1-0.1,0.1-0.1,0.1h-0.3c-0.4,0-1.3,0-2.5-0.3l-0.1,0v0.1C196.9,6.3,197.4,6.9,197.7,6.9z M215.1,5.9c0.6,0,1.6-0.6,1.9-2.3h9.9
	c0,0,0,0,0,0c0,0.1-0.6,0.9-0.9,1.3C226,4.9,226,5,226,5c0,0.1,0.1,0.1,0.1,0.1c0,0,0.1,0,0.1,0c0,0,0,0,0.1,0
	c0.1,0,0.2-0.1,0.3-0.2c0.6-0.3,1.2-0.5,2-0.6c0.7,0,0.8-0.4,0.8-0.5c0-0.5-1.1-1.3-1.5-1.4l0,0c0,0,0,0,0,0c0,0,0,0-0.1,0
	c-0.3,0-0.6,0.5-0.6,0.5C227.1,2.9,227,3,227,3h-4.4c0-0.1,0-0.3,0-0.4l0-0.4c0-0.5,0-0.5,0.4-0.7l0,0c0.2-0.1,0.4-0.2,0.4-0.5
	c0-0.5-2-0.8-2.2-0.8c-0.1,0-0.1,0-0.1,0.1c0,0,0,0.1,0,0.1c0.1,0.6,0.2,1.6,0.2,2.4V3H217c0-0.3-0.1-1.4-0.3-1.4
	c-0.1,0-0.1,0.1-0.2,0.3c-0.2,1.1-0.6,1.7-1.7,2.6c-0.3,0.3-0.5,0.6-0.5,0.8C214.4,5.6,214.7,5.9,215.1,5.9z M229.9,15.4
	c0.5-0.2,0.6-0.3,0.6-0.4c0-0.1-0.2-0.1-0.3-0.1h-0.1c-3.2,0-5.8-1.2-7.3-3.2h6.1c0.4,0,0.5-0.2,0.5-0.3c0-0.3-1-1.3-1.6-1.5l0,0
	c0,0,0,0,0,0c0,0-0.1,0-0.1,0c-0.4,0-1.1,1.1-1.1,1.1c0,0.1-0.2,0.1-0.2,0.1h-4c0.1-0.3,0.2-1,0.2-1.9h3.9c0.4,0,0.4-0.2,0.4-0.3
	c0-0.4-0.9-1.1-1.4-1.3l0,0c0,0,0,0,0,0c0,0-0.1,0-0.1,0c-0.3,0-0.9,0.9-0.9,0.9c0,0.1-0.1,0.1-0.2,0.1h-1.7c0-0.3,0-0.7,0-1
	c0-0.3,0-0.6,0-0.8h4.7c0.4,0,0.5-0.2,0.5-0.3c0-0.4-1-1.2-1.5-1.4c-0.1,0-0.1,0-0.1,0c-0.3,0-1,1-1,1c0,0.1-0.2,0.1-0.2,0.1h-2.3
	V5.8c0-0.5,0-0.5,0.2-0.6c0,0,0.1,0,0.2-0.1c0.3-0.1,0.4-0.3,0.4-0.5c0-0.5-2.1-0.7-2.1-0.7c-0.1,0-0.1,0.1-0.1,0.1c0,0,0,0.1,0,0.1
	c0,0.3,0.2,1,0.2,2.1h-0.9c-0.9,0-2.3,0-4.2-0.3l-0.1,0V6c0,0.3,0.5,0.9,0.8,0.9l0,0c1.6-0.1,2.5-0.2,3.3-0.2h1c0,0.6,0,1.1,0,1.8
	h-0.6c-0.9,0-2.3,0-4-0.3l-0.1,0v0.1c0,0.3,0.5,0.9,0.9,0.9l0,0c1.4-0.1,2.1-0.2,3.1-0.2h0.6c0,0.6,0,1.2-0.2,1.9h-0.8
	c-1.4,0-4.2-0.1-5.8-0.3l-0.1,0V11c0,0.3,0.6,0.9,0.9,0.9h0c1.6-0.1,3.9-0.2,4.9-0.2h0.7c-0.9,2.3-3.1,3.8-6.6,4.4
	c-0.4,0.1-0.6,0.2-0.6,0.3c0,0.1,0.1,0.1,0.4,0.1c0.1,0,6.7-0.1,8.1-4.8h0.1c1.2,3.2,5,4.7,5.9,4.7c0.1,0,0.2,0,0.3-0.2
	C228.7,16,229.4,15.6,229.9,15.4z M232.7,1.2c0-0.1,0-0.1,0-0.1c0-0.1,0.1-0.1,0.1-0.1c0.2,0,1.1,0.4,1.5,0.7h2.9c0,0,0.1,0,0.1-0.1
	c0,0,0,0,0-0.1c0.3-0.5,0.5-0.8,0.6-0.8c0.1,0,0.1,0,0.2,0c0.7,0.3,1.1,1,1.1,1.2c0,0.1-0.1,0.3-0.4,0.3h-2.1c0,0,0,0,0,0.1
	c0,0.1-0.1,0.2-0.2,0.3l0,0c-0.2,0.1-0.2,0.1-0.2,0.3c0,0.2,0,0.4,0,0.6c0,0.2,0,0.5,0,0.7h0.4c0,0,0.1,0,0.2-0.1
	c0.5-0.7,0.6-0.7,0.6-0.7c0,0,0.1,0,0.1,0h0l0,0c0.7,0.3,1.1,0.8,1.1,1c0,0.2-0.1,0.3-0.4,0.3h-2c0,0.3,0,0.6,0,0.9
	c0,0.3,0,0.6,0,0.9h0.4c0,0,0.1,0,0.2-0.1c0,0,0.4-0.7,0.6-0.7c0,0,0.1,0,0.1,0h0l0,0c0.4,0.2,0.8,0.5,1,0.8c0,0,0.1,0,0.1-0.1
	c1.6-1.4,3.3-4.5,3.5-6c0,0,0-0.1,0-0.1c0,0,0-0.1,0.1-0.1c0,0,2,0.6,2,0.9c0,0.2-0.2,0.3-0.7,0.4c0,0,0,0,0,0
	c1,1.5,2.8,3.4,4.9,3.9c0.2,0.1,0.2,0.1,0.2,0.2c0,0.1-0.2,0.2-0.7,0.3c-0.3,0.1-0.8,0.2-0.9,0.3c0,0,0,0,0,0c0,0-0.1,0.1-0.2,0.1
	c-0.2,0-2.4-2-3.6-4.5c-0.6,1.1-1.4,2.3-2.3,3.2c0.9,0.1,1.7,0.2,2.4,0.2h0.2c0,0,0.1,0,0.1-0.1c0,0,0.4-0.8,0.7-0.8
	c0,0,0.1,0,0.1,0h0l0,0c0.7,0.3,1.1,0.9,1.1,1.1c0,0.1-0.1,0.3-0.4,0.3h-1c0.1,0,0.1,0.1,0.1,0.2c0,0.1,0,0.2-0.3,0.3
	c-0.2,0.1-0.3,0.1-0.3,1.2h1.5c0.1,0,0.1,0,0.2-0.1c0.2-0.4,0.3-0.4,0.5-0.4c0.3,0,1.3,0.7,1.3,1c0,0.2-0.2,0.3-0.3,0.4
	c-0.3,0.2-0.3,0.2-0.3,0.5c0,0.5,0.1,1.8,0.1,2c0,0.2-0.1,0.4-0.2,0.5c-0.1,0.1-0.3,0.2-0.5,0.2c-0.3,0-0.5-0.2-0.5-0.5v-0.3h-1.7
	c0.8,2.2,2.7,4,4.7,4.5c0.1,0,0.2,0,0.2,0.1c0,0.1-0.1,0.1-0.6,0.3c-0.4,0.1-1,0.3-1.2,0.5c-0.1,0.1-0.2,0.1-0.2,0.1
	c-0.4,0-2.5-1.9-3.2-4.9c-1.1,4.9-6.1,5.3-6.1,5.3c-0.1,0-0.2,0-0.2-0.1c0-0.1,0.3-0.3,0.6-0.3c2.6-0.8,4.3-2.8,4.8-5.4h-1.6v0.5
	c0,0.4-0.3,0.6-0.7,0.6c-0.2,0-0.5-0.1-0.5-0.5v-0.1c0.1-0.8,0.1-2,0.1-2.6c0-0.2,0-1.1-0.2-1.6c0,0,0,0,0-0.1c0,0,0,0,0,0
	c0-0.1,0-0.1,0.1-0.1c0.1,0,0.7,0.2,1.5,0.6h1.4V7.1c0-0.5,0-0.8-0.1-1.2c-0.4,0-0.7,0.1-1.4,0.1l0,0c-0.2,0-0.4-0.2-0.6-0.4
	c-0.8,0.8-1.4,1.2-1.7,1.3c0,0.1-0.1,0.3-0.4,0.3h-2v2.1h1.2c0.1,0,0.2,0,0.2-0.1l0,0c0.3-0.3,0.4-0.4,0.5-0.4c0.3,0,1.2,0.7,1.2,1
	c0,0.2-0.2,0.3-0.5,0.5c-0.2,0.1-0.2,0.1-0.2,0.3c-0.1,0.9-0.3,2.5-0.6,3.3c-0.8,2.1-2.2,2.2-2.6,2.2c-0.1,0-0.2-0.1-0.3-0.2
	c-0.2-0.3-0.7-0.6-1.1-0.9c-0.4-0.3-0.5-0.4-0.5-0.5c0-0.1,0.1-0.1,0.1-0.1c0,0,0.1,0,0.1,0l0.1,0c0.4,0.1,0.9,0.2,1.3,0.2
	c1.9,0,2.1-2.1,2.3-4.7c0-0.1-0.1-0.2-0.1-0.2H234v0.1c0,0.4-0.4,0.6-0.7,0.6c-0.3,0-0.5-0.2-0.5-0.5V10c0.1-1.8,0.1-4.6,0.1-5.7
	C232.9,2.3,232.7,1.4,232.7,1.2z M234,7.1c0,0.4,0,0.7,0,1.1c0,0.3,0,0.7,0,1h1.2c0-0.2,0-0.5,0-0.7c0-0.4,0-0.9,0-1.3H234z
	 M234,4.8v1.8h1.3V4.8H234z M234,4.2h1.3V3.5c0-0.4,0-1,0-1.3h-0.8c0,0-0.1,0.1-0.1,0.1C234,2.5,234,2.5,234,3L234,4.2z M240.8,10.2
	h1.6c0-0.1,0-0.2,0-0.2c0-0.5,0.1-1.2,0.1-1.9h-1.3c0,0,0,0-0.1,0c0,0,0,0-0.1,0c-0.2,0.1-0.2,0.1-0.3,0.4l0,0.1V10.2z M245.4,10.2
	c0-0.7,0-1.5,0-2c0,0,0-0.1-0.1-0.1h-1.6l0,0.2c0,0.7,0,1.4-0.1,1.9H245.4z M237,11.8c0.2,0,0.4-0.3,0.4-0.5c0-0.6-0.9-1-1.5-1
	c-0.1,0-0.2,0-0.2,0.1c0,0,0,0.1,0.1,0.1c0.3,0.2,0.5,0.7,0.7,0.9C236.7,11.8,236.9,11.8,237,11.8z M233.8,11
	c-0.1,0-0.1,0.1-0.1,0.1c0,0,0,0.1,0,0.1c0.1,0.3,0.1,0.9,0.1,1.3c0,0.1,0,0.1,0,0.2c0,0,0,0.1,0,0.1V13c0,0.5,0.3,0.6,0.5,0.6
	c0.1,0,0.3-0.1,0.4-0.2c0.2-0.2,0.3-0.5,0.2-0.7C234.9,12,234,11,233.8,11z M231.9,14.7c0.6,0,1.4-0.8,1.4-2.3
	c0-0.7-0.2-1.3-0.3-1.3c-0.1,0-0.1,0.1-0.1,0.2c-0.1,0.6-0.3,1.5-1.1,2c-0.3,0.2-0.4,0.5-0.4,0.8C231.3,14.4,231.5,14.7,231.9,14.7z
	 M234.7,10.8c0,0,0,0.1,0.1,0.2c0.2,0.3,0.5,0.9,0.6,1.4c0.1,0.3,0.2,0.5,0.5,0.5c0.3,0,0.5-0.3,0.5-0.6c0-0.7-1.2-1.5-1.6-1.5
	C234.7,10.7,234.7,10.8,234.7,10.8z M7,31.8C7,31.8,7,31.8,7,31.8c-0.8,0-1.4,0.1-2,0.1c-0.5,0-1,0-1.7,0l-0.6,0
	c-0.3,0-0.5,0.2-0.5,0.5l0,0c0.1,1,0.1,3.2,0.1,6.4c0,3.4-0.1,6.7-0.2,8.5c0,0.3,0.3,0.3,0.5,0.3c0.4,0,0.5-0.1,0.5-0.3
	c0-2.2-0.1-5.9-0.1-9.3c0-2.2,0-4.1,0-5.1c0-0.1,0-0.2,0.1-0.2c0.3,0,0.7,0,1.1,0c1,0,2.2,0,2.5,0.1c0.1,0,0.3-0.1,0.3-0.5
	c0-0.1,0-0.3,0-0.3C7.2,31.8,7.1,31.8,7,31.8z M24.5,38.8c0,0.3-0.3,0.3-0.4,0.3h-3.6v3.7h0.9c0,0,0.1,0,0.2-0.1
	c0.2-0.3,0.6-0.8,0.7-0.9c0.1,0,0.1-0.1,0.2-0.1c0.4,0,1.6,1.1,1.6,1.5c0,0.3-0.3,0.3-0.4,0.3h-9.1c-0.8,0-3.7,0-5.1,0.2
	c0,0,0,0,0,0c-0.1,0-0.2-0.1-0.3-0.2c-0.2-0.2-0.5-0.6-0.5-0.8v-0.1l0.1,0c0.6,0.1,1.6,0.1,2.8,0.2c0-0.7,0-2.2,0-3.6
	c-0.9,0-2,0.1-2.9,0.1c-0.1,0-0.2,0-0.3-0.2c-0.2-0.2-0.5-0.6-0.5-0.8v-0.1l0.1,0c1.2,0.1,2.5,0.2,3.6,0.2c0-0.7,0-1.3,0-1.8
	c0-0.2,0-0.4,0-0.5c0-0.3,0-0.5,0-0.8c-1.4,1.6-2.8,2.4-3.1,2.4c0,0-0.1,0-0.1-0.1c0-0.1,0.1-0.2,0.2-0.3c1.4-1.2,3.5-4.3,3.6-5.5
	l0,0c0-0.1,0-0.2,0.1-0.2c0.2,0,1.9,0.7,1.9,1.1c0,0.2-0.2,0.3-0.6,0.3l0,0c-0.3,0-0.3,0-0.4,0.2c-0.3,0.4-0.7,0.9-1,1.2h8
	c0,0,0.1,0,0.2-0.1c0.8-1,0.8-1,1-1c0.4,0,1.6,1,1.6,1.4c0,0.1,0,0.3-0.4,0.3H21c0,0,0,0,0,0.1c0,0.1-0.1,0.2-0.3,0.3
	c-0.2,0.1-0.2,0.1-0.2,2.9h1.4c0,0,0.1,0,0.2-0.1c0.2-0.3,0.6-0.8,0.8-1c0.1,0,0.1-0.1,0.2-0.1C23.2,37.3,24.5,38.4,24.5,38.8z
	 M17.8,39.1v3.7h1.5c0-0.7,0-2.3,0-3.7H17.8z M17.8,38.5h1.5c0-0.7,0-1.3,0-1.8c0-0.2,0-0.4,0-0.5c0-0.1,0-0.2,0-0.3
	c0-0.2,0-0.4,0-0.6h-1c0,0,0,0,0,0.1c0,0.1-0.1,0.2-0.3,0.3C17.8,35.7,17.8,35.7,17.8,38.5z M15.3,39.1v3.7h1.4c0-0.7,0-2.3,0-3.7
	H15.3z M15.3,38.5h1.4c0-0.7,0-1.3,0-1.8c0-0.2,0-0.4,0-0.5c0-0.1,0-0.2,0-0.3c0-0.2,0-0.4,0-0.6h-0.9c0,0,0,0,0,0.1
	c0,0.2-0.2,0.3-0.3,0.3C15.3,35.7,15.3,35.7,15.3,38.5z M13.6,39.1c-0.1,0-0.2,0-0.3,0c-0.2,0-0.4,0-0.6,0v3.6l0.2,0
	c0.5,0,0.9,0,1.3,0c0-0.7,0-2.2,0-3.7H13.6z M12.7,38.5h1.5c0-0.7,0-1.3,0-1.7c0-0.2,0-0.4,0-0.6c0-0.1,0-0.2,0-0.3
	c0-0.2,0-0.4,0-0.6h-1c0,0,0,0,0,0.1c0,0.2-0.2,0.3-0.3,0.3C12.7,35.7,12.7,35.7,12.7,38.5z M16.9,44.2c0,0-0.1,0-0.1,0.1
	c0,0.1,0,0.1,0.1,0.2c0.3,0.6,0.7,1.6,0.9,2.4l0,0c0.2,0.7,0.5,0.8,0.7,0.8c0.3,0,0.7-0.4,0.7-1C19.2,45.4,17.2,44.2,16.9,44.2z
	 M13.9,44.3c-0.1,0-0.1,0.1-0.1,0.1c0,0,0,0.1,0,0.2c0,0.2,0.1,0.6,0.1,1.1c0,0.5,0,1-0.1,1.2c0,0.1,0,0.2,0,0.2
	c0,0.6,0.3,0.8,0.6,0.8c0.2,0,0.4-0.1,0.5-0.2c0.2-0.2,0.3-0.5,0.3-1C15.3,45.6,14.1,44.3,13.9,44.3z M20.1,44.1
	c-0.1,0-0.1,0.1-0.1,0.1c0,0,0,0.1,0.2,0.3l0.1,0.1c0.5,0.5,1.4,1.4,1.9,2.4c0.3,0.6,0.7,0.7,0.8,0.7c0.4,0,0.6-0.3,0.6-0.8
	C23.6,45.3,20.6,44.1,20.1,44.1z M12,44.1c-0.1,0-0.1,0.1-0.2,0.2c-0.5,0.8-1,1.6-2.1,2.1C9,46.6,8.8,47,8.8,47.3
	c0,0.4,0.3,0.7,0.8,0.7c1.3,0,2.5-1.7,2.5-3.4C12.1,44.3,12.1,44.1,12,44.1z M41.7,46.5c-4.8-1.5-7.6-7.4-7.6-12.3v-0.3
	c0.2-0.1,0.3-0.2,0.3-0.4c0-0.6-2.3-0.9-2.4-0.9c-0.1,0-0.1,0.1-0.1,0.1c0,0,0,0.1,0,0.1c0.1,0.4,0.2,1.2,0.2,2v0.1
	c0,4.5-1.9,10-6.1,12.3c-0.2,0.1-0.5,0.3-0.5,0.4c0,0.1,0,0.1,0.1,0.1c0.1,0,2.1-0.6,4-2.6c1.7-1.7,3.8-4.9,3.8-10.2
	c0-0.7,0.1-0.8,0.2-0.9c0,0.3,0,0.7,0,1c0,8.6,5.4,12.4,5.8,12.4c0.1,0,0.2,0,0.2-0.1c0.3-0.3,1.1-0.4,1.6-0.5
	c0.5-0.1,0.6-0.1,0.6-0.2C41.9,46.6,41.8,46.5,41.7,46.5z M59.3,46.8c0,0.1-0.2,0.2-0.7,0.3c-0.4,0.1-1,0.2-1.2,0.4
	c-0.1,0.1-0.2,0.1-0.3,0.1c-0.4,0-2.9-3.2-3.3-9.3h-1.2c-0.2,4.5-1.5,7.6-3.8,9.4c-0.1,0.1-0.5,0.4-0.7,0.4c-0.1,0-0.1-0.1-0.1-0.1
	c0,0,0-0.1,0.4-0.5c2-2,3-5.4,3-10.4c0-2.2-0.2-3.9-0.3-4.6c0-0.1,0-0.1,0-0.1c0,0,0-0.1,0.1-0.1c0.1,0,1.4,0.5,1.9,0.9c0,0,0,0,0,0
	c0,0,0,0,0,0h2.7c0.1,0,0.2-0.1,0.2-0.1c0.3-0.4,0.5-0.6,0.7-0.6c0.4,0,1.5,1,1.5,1.3c0,0.2-0.2,0.4-0.4,0.5
	c-0.4,0.2-0.4,0.2-0.4,0.8c0,0.7,0,2.3,0.1,3.6c0,0.2-0.1,0.3-0.2,0.5c-0.1,0.2-0.4,0.3-0.6,0.3c-0.3,0-0.5-0.1-0.5-0.6v0
	c0-0.1,0-0.1,0-0.2c0,0,0-0.1,0-0.1h-2c0.5,3.2,1.4,6.7,4.8,8.2C59.2,46.7,59.3,46.7,59.3,46.8z M52.7,37.8h3.6c0-0.5,0-1,0-1.5
	c0-1.1,0-2.1,0-2.3c0-0.1,0-0.2-0.2-0.2h-3c0,0-0.1,0.1-0.1,0.1c0,0-0.1,0-0.1,0.1c-0.2,0.1-0.2,0.1-0.2,0.8v0.7
	C52.7,37,52.7,37.5,52.7,37.8C52.7,37.8,52.7,37.8,52.7,37.8z M43.7,42.1L43.7,42.1c-0.1,0-0.2,0.1-0.2,0.2c-0.1,0.6-0.3,1.4-1.1,2
	c-0.3,0.2-0.4,0.5-0.4,0.8c0,0.3,0.3,0.6,0.6,0.6c0.8,0,1.4-1.1,1.4-2.3C44,42.6,43.7,42.2,43.7,42.1L43.7,42.1z M45.4,44.5
	c0.1-0.1,0.2-0.3,0.2-0.7c0-0.8-0.9-1.7-1.1-1.7c-0.1,0-0.1,0.1-0.1,0.1c0,0,0,0.1,0,0.1c0.1,0.3,0.1,0.9,0.1,1.3c0,0.1,0,0.1,0,0.2
	c0,0,0,0.1,0,0.1v0.1c0,0.6,0.4,0.6,0.5,0.6C45.1,44.7,45.3,44.6,45.4,44.5z M45.4,41.9c0,0,0,0.1,0.1,0.2c0.2,0.3,0.5,0.9,0.6,1.3
	c0.1,0.3,0.2,0.5,0.5,0.5c0.3,0,0.5-0.3,0.5-0.7c0-0.7-1.2-1.4-1.6-1.4C45.4,41.9,45.4,41.9,45.4,41.9z M47.3,42.6
	c0.1,0.2,0.3,0.4,0.5,0.4c0.2,0,0.4-0.3,0.4-0.5c0-0.6-0.9-1-1.5-1c0,0-0.2,0-0.2,0.1c0,0.1,0.1,0.1,0.1,0.1
	C46.9,41.9,47.2,42.3,47.3,42.6L47.3,42.6z M49.5,41.6c-0.1,1.6-0.4,5.7-3.1,5.7h-0.1c-0.2,0-0.3-0.1-0.3-0.2
	c-0.1-0.3-0.5-0.7-0.8-1c-0.3-0.3-0.4-0.4-0.4-0.5s0.1-0.1,0.1-0.1c0,0,0.1,0,0.2,0c0.1,0,0.2,0.1,0.4,0.1c0.4,0.1,0.8,0.2,1.2,0.2
	c1.6,0,1.8-2.9,1.9-4.8l0-0.1c0-0.1-0.1-0.2-0.1-0.2h-3.5V41c0,0.4-0.4,0.6-0.7,0.6c-0.3,0-0.5-0.2-0.5-0.5v-0.1
	c0.1-1.8,0.1-4.2,0.1-5.5c0-1.1,0-2.1-0.2-3c0-0.1,0-0.1,0-0.1c0-0.1,0.1-0.1,0.1-0.1c0.2,0,1.1,0.4,1.5,0.7h3c0,0,0.1,0,0.1-0.1
	c0.1-0.1,0.5-0.8,0.7-0.8c0.1,0,0.1,0,0.2,0c0.5,0.2,1.1,0.9,1.1,1.2c0,0.1,0,0.3-0.4,0.3h-2.1c0,0,0,0,0,0c0,0.1-0.1,0.2-0.2,0.3
	c-0.2,0.1-0.2,0.1-0.2,0.4c0,0.2,0,0.4,0,0.5c0,0.2,0,0.4,0,0.6h0.5c0,0,0.1,0,0.2-0.1c0,0,0.4-0.7,0.6-0.7c0,0,0.1,0,0.1,0h0l0,0
	c1,0.4,1.1,1,1.1,1c0,0.2-0.1,0.3-0.4,0.3h-2c0,0.3,0,0.6,0,0.9c0,0.3,0,0.6,0,0.9h0.5c0,0,0.1,0,0.2-0.1c0,0,0.4-0.7,0.6-0.7
	c0,0,0.1,0,0.1,0h0l0,0c1,0.4,1.1,1,1.1,1c0,0.2-0.1,0.3-0.4,0.3h-2v1.9h1.1c0.1,0,0.2,0,0.2-0.1l0,0c0.1-0.1,0.1-0.1,0.2-0.2
	c0-0.1,0.1-0.1,0.2-0.2c0.1-0.1,0.1-0.1,0.2-0.1c0.3,0,1.2,0.7,1.2,1c0,0.2-0.2,0.3-0.5,0.5C49.6,41.3,49.5,41.4,49.5,41.6z
	 M44.7,38.4c0,0.3,0,0.7,0,1c0,0.3,0,0.6,0,1H46c0-0.2,0-0.5,0-0.8c0-0.4,0-0.7,0-1.1H44.7z M44.7,36v1.8h1.4V36H44.7z M44.7,35.4
	h1.4c0-0.6,0-1.4,0-1.8h-0.9c0,0-0.1,0.1-0.1,0.1l0,0c-0.2,0.2-0.2,0.2-0.2,0.6L44.7,35.4z M72.4,38.1c-0.3,0-0.3,0.1-0.3,0.1
	c0,0.1,0.1,0.2,0.6,0.4c0.1,0,0.1,0.1,0.2,0.1c0.9,0.4,2.1,0.8,2.1,2.1c0,0.9-0.7,1.2-1.9,1.5c-0.6,0.1-0.6,0.2-0.6,0.2
	c0,0.1,0.1,0.2,0.6,0.2c0.2,0,0.4,0,0.6,0c0.1,0,0.3,0,0.4,0c0.2,0,0.5,0,0.6,0.1l0,0c0.1,0,0.2,0.1,0.4,0.1c0.7,0,1.3-0.8,1.3-1.7
	C76.4,39.3,74.7,38.1,72.4,38.1z M68.4,37.6c-0.2,0-0.4,0-1,0.2l0,0c0.3-0.8,0.6-1.8,0.6-2.4c0-1.1-0.8-1.2-1-1.2
	c-0.4,0-1.2,0.4-1.2,0.7c0,0.2,0.2,0.3,0.5,0.3c0.4,0.1,0.5,0.4,0.5,1c0,0.7-0.3,1.7-0.3,1.9c-0.6,0.2-1.4,0.5-2.4,0.5
	c-0.5,0-0.9-0.1-1.1-0.4c-0.2-0.2-0.3-0.4-0.4-0.4c-0.1,0-0.2,0.2-0.2,0.7c0,0.8,0.6,1.4,1.5,1.4c0.5,0,1.5-0.4,2.1-0.7
	c-1.1,2.5-3.3,5.4-3.5,5.7c-0.4,0.5-0.6,0.9-0.6,1.2c0,0.3,0.2,0.5,0.5,0.5c0.4,0,0.9-0.3,1.3-1c1-1.8,2.4-4.7,3.3-6.8
	c0.8-0.5,1.2-0.6,1.3-0.6c0.6,0,1,0.7,1,2c0,2.3-1,4.8-2.5,4.8c-0.5,0-0.9-0.3-1.2-0.7c-0.4-0.5-0.5-0.5-0.5-0.5c0,0-0.1,0-0.1,0.1
	c0,0.1,0,0.3,0.1,0.6c0.1,0.2,0.1,0.4,0.1,0.6c0,0.4,0,0.8,0.6,1c0.2,0.1,0.4,0.1,0.7,0.1c1,0,1.9-0.5,2.7-1.5
	c0.6-0.7,1.2-2.1,1.2-4.3C70.3,38.6,69.7,37.6,68.4,37.6z M88.1,40.9c-0.7,0-1.4,0.2-2,0.6c-0.5,0.3-0.9,0.7-1.2,0.9
	c-0.2,0.2-0.4,0.3-0.6,0.5c-0.2,0.2-0.4,0.3-0.6,0.3c-0.4,0-0.6-0.5-0.6-1.5c0-0.7,0.1-1.6,0.3-2.2c0.1-0.3,0.1-0.5,0.1-0.6
	c0.1-0.4,0.2-0.7,0.2-1c0-0.3,0-0.5-0.1-0.9c0-0.1-0.1-0.3-0.1-0.5c0-0.4,0.1-1.2,1.3-1.2c0.3,0,0.9,0,1.2,0.2c0,0,0.1,0,0.1,0
	c0.2,0.1,0.4,0.1,0.5,0.1c0.3,0,0.7-0.4,0.7-0.9c0-1.2-2.3-2.2-2.5-2.2c-0.1,0-0.1,0.1-0.1,0.1c0,0.1,0,0.1,0.1,0.2
	c0,0.1,0.1,0.1,0.1,0.2c0,0.1,0.1,0.2,0.2,0.3c0.1,0.1,0.2,0.3,0.3,0.5c0,0,0,0,0,0c0,0,0,0,0,0c0,0.2-0.3,0.4-0.4,0.5
	c-0.1,0.1-0.2,0.1-0.3,0.2c-1,0.6-2,1.2-2,2.5c0,0.1,0,0.2,0,0.4c0,0.1,0,0.3,0,0.4c0,0.5-0.1,1-0.1,1.1c0,0.1,0,0.3-0.1,0.5
	c-0.1,0.9-0.3,1.9-0.3,2.7c0,2.1,1.1,2.8,1.6,2.8c0.3,0,0.5-0.2,0.8-0.6c0.1-0.2,0.3-0.4,0.4-0.6c0.5-0.7,0.8-1.1,1.5-1.6
	c0.4-0.3,0.8-0.4,1.2-0.4c1,0,2,0.7,2,1.9c0,1.4-1.7,3.3-4.9,4.1C84,47.9,84,48,84,48c0,0.1,0.1,0.1,0.3,0.1c2.8,0,6.8-1.6,6.8-4.5
	C91,42.2,89.7,40.9,88.1,40.9z M100.1,39.8c-0.4,0-1.9,3.5-2,3.5c-0.1,0.2-0.1,0.3-0.1,0.3c-0.1,0-0.2-0.5-0.2-1.1
	c0-1.2,0.5-2.5,1-3.7c0.1-0.3,0.2-0.5,0.3-0.7c0.2-0.5,0.4-1,0.4-1.5c0-1.3-1.4-3-2.1-3c-0.2,0-0.3,0.1-0.3,0.2c0,0.1,0,0.1,0.1,0.2
	c0,0,0.1,0.1,0.1,0.1c0.6,0.8,0.9,1.6,0.9,2.4c0,0.5-0.1,1-0.2,1.6c0,0.1,0,0.2-0.1,0.3c-0.1,0.4-0.2,0.8-0.3,1.2
	c-0.3,1.2-0.6,2.5-0.6,3.9c0,1.9,0.6,3.9,1.4,3.9c0.3,0,0.5-0.3,0.5-0.6c0-0.2,0-0.3-0.1-0.5c-0.1-0.2-0.1-0.5-0.1-0.8
	c0-0.8,0.4-2.8,1.5-5.1c0.1-0.2,0.1-0.3,0.1-0.4C100.3,39.9,100.2,39.8,100.1,39.8z M110.3,45.9c0,0.4-0.3,0.8-0.6,0.8
	c-0.2,0-0.4-0.1-0.7-0.5c-0.4-0.6-1-1.2-1.6-1.5c-0.3,1.5-1.5,2.6-2.9,2.6c-1.3,0-2.5-1-2.5-2c0-1.1,1.5-1.9,3.3-1.9
	c0.4,0,0.7,0,1.1,0.1v-0.8c0-0.8,0-2.3-0.1-4l0-0.1c-0.4,0.1-0.7,0.1-0.8,0.1c-2.3,0-3-1.6-3-1.7c0,0,0-0.1,0.1-0.1
	c0.1,0,0.3,0.1,0.4,0.1c0.1,0.1,0.3,0.1,0.5,0.2c0.3,0.1,0.6,0.3,0.8,0.3c0.3,0.1,0.7,0.2,1.2,0.2c0.1,0,0.3,0,0.7-0.1v-1
	c0-1.7-0.1-1.7-0.5-1.9c-0.2-0.1-0.5-0.1-0.5-0.3c0-0.2,0.4-0.6,0.8-0.6c0.4,0,1.3,0.8,1.3,1.4c0,0.1,0,0.2,0,0.3
	c0.1,0,0.2,0.1,0.3,0.1c0.3,0.1,0.7,0.3,0.8,0.3c0.7,0.2,1,0.3,1,0.8c0,0.7-0.8,1.2-2.4,1.7V39c0,1.6,0.1,2.9,0.1,3.4
	c0,0.1,0,0.3,0,0.4c0,0.3,0,0.6,0,0.8C108.8,44,110.3,45.1,110.3,45.9z M108.5,36.4c0-0.2-0.3-0.4-1-0.8c-0.1,1-0.2,1.4-0.2,1.6
	C108.5,36.8,108.5,36.5,108.5,36.4z M102.7,45.2c0,0.7,0.9,0.9,1.5,0.9c1.1,0,1.9-0.7,2.1-1.8c-0.6-0.1-1.1-0.2-1.5-0.2
	C103.6,44.1,102.7,44.7,102.7,45.2z M120.3,36L120.3,36L120.3,36c0,0.1,0.1,0.2,0.2,0.3l0.1,0c0.6,0.3,1.2,0.8,1.6,1.4
	c0.2,0.2,0.4,0.3,0.6,0.3c0.3,0,0.6-0.3,0.6-0.7c0-0.9-1.2-1.4-2.4-1.4C120.5,35.9,120.4,36,120.3,36z M122.7,35.4
	C122.8,35.5,122.8,35.5,122.7,35.4c0.6,0.4,1.2,0.9,1.7,1.4c0.2,0.2,0.4,0.3,0.6,0.3c0.3,0,0.6-0.3,0.6-0.7c0-0.7-0.8-1.4-2.4-1.4
	c-0.2,0-0.7,0-0.7,0.2C122.5,35.3,122.6,35.4,122.7,35.4z M126.5,43.5c-0.1,0-0.3,0.2-0.4,0.2c-1.7,1.5-3.6,2.3-5.3,2.3
	c-2.1,0-3.2-1.3-3.2-3.8c0-1.7,0.4-3.6,0.6-5.1c0.1-0.5,0.2-1,0.2-1.3c0-0.2,0.1-0.4,0.1-0.6c0-2-1.9-2-2-2c-0.2,0-0.3,0.1-0.3,0.2
	c0,0.1,0.1,0.2,0.3,0.4c0.4,0.5,0.5,1.3,0.5,2.1c0,1-0.1,2-0.2,3c-0.1,1-0.2,2-0.2,3c0,2,0.5,5.4,4,5.4c3.2,0,6-3.3,6-3.7
	C126.6,43.6,126.5,43.5,126.5,43.5z M141.2,46.8c0,0.4-0.3,0.7-0.6,0.7c-0.2,0-0.5-0.1-0.7-0.5c-0.3-0.5-0.8-1-1.4-1.3
	c-0.4,1.4-2,2.2-3.3,2.2c-1.4,0-2.3-1-2.3-1.9c0-1.4,2.2-1.9,3.7-1.9c0.3,0,0.6,0,0.8,0.1c0-0.3,0-0.5,0-0.8c0-0.2,0-0.3,0-0.5
	c0-0.5-0.1-1-0.1-1.6c-0.9,0.2-1.8,0.2-2.1,0.2c-2.3,0-2.9-1.2-2.9-1.4c0-0.1,0-0.2,0.2-0.2c0.1,0,0.4,0.1,0.5,0.1
	c0.7,0.2,1.4,0.4,2.1,0.4c1,0,1.8-0.2,2.2-0.3c0-0.8,0-1.6,0.1-2.5c-0.1,0-0.2,0-0.4,0c-2.1,0-2.8-1.3-2.8-1.8
	c0-0.1,0.1-0.2,0.1-0.2c0.1,0,0.2,0.1,0.3,0.1l0,0c0.7,0.4,1.4,0.8,2.2,0.8c0.1,0,0.2,0,0.4,0l0.1,0c0-0.3,0.1-0.5,0.1-0.8
	c0-0.1,0.2-1.3,0.2-1.9c0-0.6-0.1-0.7-0.4-0.8c-0.3-0.1-0.5-0.2-0.5-0.3c0-0.1,0.4-0.6,0.8-0.6c0.6,0,1.3,0.9,1.3,1.4
	c0,0.2-0.1,0.4-0.1,0.6c0,0.1-0.1,0.2-0.1,0.4l0,0c0,0-0.1,0.2-0.3,1.6l0.1,0l0,0.1l0-0.1c0.3-0.2,0.7-0.4,1-0.4
	c0.4,0,0.5,0.3,0.5,0.5c0,0.7-1.5,1.1-1.8,1.2c0,0.6-0.1,1.1-0.1,1.9v0.5c1.3-0.4,1.4-0.7,1.4-0.8c0-0.2-0.5-0.6-0.7-0.8
	c0,0-0.1-0.1-0.1-0.1c0,0,0-0.1,0.1-0.1c0.1,0,0.1,0,0.2,0c0.4,0.2,1.1,0.5,1.5,0.5c0.4,0,0.7,0.2,0.7,0.5c0,0.9-2.6,1.8-3,1.9
	c0,0.4,0.1,0.8,0.1,1.2c0,0.2,0,0.4,0.1,0.6c0,0.2,0,0.4,0.1,0.6c0,0.3,0.1,0.7,0.1,1C140.4,45.1,141.2,46.3,141.2,46.8z
	 M133.6,45.9c0,0.3,0.4,0.8,1.4,0.8c0.9,0,2-0.6,2.3-1.6c-0.5-0.1-0.9-0.2-1.4-0.2C135.8,45,133.6,45,133.6,45.9z M159.3,42.9
	c0,2-1.9,4.1-5,4.1c-1.4,0-2.9-0.8-2.9-1.9c0-0.9,0.9-1.4,1.8-1.4c1.1,0,2,0.8,2,1.9c0,0.2,0,0.3-0.1,0.5c2.2-0.5,3-1.9,3-3.2
	c0-1.3-1-2.7-2.9-2.7c-1.1,0-2.7,0.4-3.9,2.5c-0.1,0.1-0.2,0.3-0.3,0.5c-0.1,0.3-0.3,0.5-0.3,0.6c-0.2,0.3-0.5,0.5-0.8,0.5
	c-0.3,0-0.6-0.3-0.6-0.6c0-0.3,0.1-0.6,1.5-2.3c0.7-0.9,4-5.4,4.3-5.9c0.1-0.2,0.2-0.4,0.2-0.4c0-0.2-0.1-0.3-0.4-0.3
	c-0.4,0-0.7,0.3-1,0.7c-0.4,0.4-0.8,0.9-1.5,0.9c-0.7,0-1.2-0.4-1.2-1.1c0-0.1,0-0.4,0.2-0.4c0.1,0,0.2,0,0.3,0.1c0,0,0.1,0,0.1,0
	c0.1,0,0.3,0.1,0.4,0.1c0.3,0,0.5-0.1,0.7-0.2c0.6-0.5,1.6-1.1,2.5-1.1c0.9,0,1.6,0.7,1.6,1.1c0,0.4-0.4,0.7-0.7,1
	c-1.2,0.9-3.1,3.4-3.6,4.1c0.8-0.5,1.8-0.8,2.8-0.8C158.3,39.5,159.3,41.6,159.3,42.9z M152.2,45.1c0,0.6,0.9,1,1.8,1.1
	c0.1-0.2,0.1-0.3,0.1-0.6c0-0.6-0.5-1.2-1.1-1.2C152.2,44.5,152.2,45,152.2,45.1z M163.4,44.8c-0.1,0-0.2,0-0.2,0.1
	c0,0.1,0.1,0.1,0.2,0.2c0.1,0,0.1,0.1,0.2,0.1c0.7,0.5,1.6,1.2,2.2,2.2v0c0.2,0.4,0.5,0.6,0.8,0.6c0.4,0,0.8-0.4,0.8-0.9
	C167.3,45.5,164.2,44.8,163.4,44.8z M188.1,43.3c-0.1,0-0.1,0-0.1,0.1c0,0.1,0,0.1,0.1,0.2c1,0.8,1.7,1.8,2.1,2.7v0
	c0.2,0.4,0.4,0.6,0.7,0.6c0.4,0,0.7-0.4,0.7-0.9C191.5,44.4,188.1,43.3,188.1,43.3z M175.6,36.8L175.6,36.8c0.6,0.3,1.3,0.9,1.6,1.3
	c0.3,0.4,0.5,0.4,0.7,0.4c0.4,0,0.7-0.4,0.7-0.8c0-0.9-1.2-1.2-2.3-1.2c-0.8,0-0.8,0.1-0.8,0.2C175.4,36.7,175.5,36.7,175.6,36.8z
	 M191.6,34c0,0.1-0.1,0.3-0.5,0.3h-3.5c0.3,0.1,0.4,0.2,0.4,0.3c0,0.1-0.2,0.3-0.5,0.3c-0.2,0-0.2,0.1-0.3,0.2l0,0
	c-0.2,0.4-0.5,0.9-0.7,1.3h1.8c0.1,0,0.1,0,0.2-0.1c0.3-0.5,0.4-0.5,0.6-0.5c0.1,0,1.4,0.7,1.4,1.1c0,0.2-0.2,0.3-0.4,0.5l-0.1,0
	c-0.3,0.2-0.3,0.2-0.3,1c0,0.8,0.1,1.9,0.1,3l0,0.3c0,0.4-0.4,0.6-0.7,0.6c-0.3,0-0.6-0.1-0.6-0.6v-0.2h-0.8c0,0,0,0.1,0,0.1
	c0,0.1-0.1,0.2-0.2,0.3l0,0c-0.2,0.1-0.2,0.1-0.2,0.6c0,0.4,0,0.9,0,1.5v0.7c0,0.1,0,0.3,0,0.5c0,0.2,0,0.4,0,0.6
	c0,1.5-1.3,1.9-1.8,1.9c-0.2,0-0.3-0.1-0.4-0.3c-0.1-0.2-0.6-0.5-1-0.7c-0.6-0.3-0.7-0.4-0.7-0.5c0-0.1,0.1-0.1,0.1-0.1
	c0,0,0.1,0,0.2,0c0.7,0.1,1.2,0.2,1.5,0.2c0.6,0,0.9-0.2,0.9-0.6c0-0.4,0-1.1,0-1.7c0-1.2,0-2-0.1-2.4h-1.2V42c0,0.1,0,0.3-0.1,0.4
	c-0.1,0.2-0.4,0.2-0.6,0.2c-0.3,0-0.5-0.2-0.5-0.5v-0.1c0.1-1.4,0.1-2.4,0.1-3.2c0-1.2-0.1-2.2-0.2-2.9c0,0,0-0.1,0-0.1c0,0,0,0,0,0
	c0-0.1,0.1-0.1,0.1-0.1c0.1,0,1.1,0.4,1.6,0.8l0,0h0.5c0.1-0.6,0.2-1.3,0.2-1.5c0-0.3,0-0.5,0-0.7h-3c0,0-0.1,0.1-0.2,0.1
	c0,0-0.1,0-0.1,0.1c-0.1,0.1-0.1,0.1-0.2,0.7v0.6c0,0.2,0,0.4,0,0.7c0,2.8-0.1,8.7-4.3,11.1c-0.3,0.2-0.5,0.3-0.6,0.3
	c-0.1,0-0.1-0.1-0.1-0.1c0-0.1,0.1-0.2,0.4-0.4c3-2.2,3.4-7.1,3.4-10.5v-1c0-0.5-0.1-2-0.2-2.7c0-0.1,0-0.1,0-0.1
	c0-0.1,0-0.1,0.1-0.1c0.2,0,1.4,0.5,1.8,0.8l0,0h5.6c0,0,0.2,0,0.2-0.1c0.5-0.8,0.7-1,1-1C190.4,32.6,191.6,33.6,191.6,34z
	 M185,38.7h3.7c0-0.5,0-1,0-1.4c0,0,0-0.1-0.2-0.1h-3.1c0,0-0.1,0-0.1,0.1c0,0-0.1,0-0.1,0.1c-0.1,0.1-0.1,0.1-0.2,0.5l0,0.1
	C185,38.2,185,38.4,185,38.7z M185,39.3c0,0.6,0,1.2,0,1.8h3.6c0-0.6,0-1.2,0-1.8H185z M184.7,44.6c0.1-0.2,0.1-0.2,0.2-0.2h0.1
	c0.3,0,0.5-0.1,0.5-0.3c0-0.3-1.4-1.1-1.5-1.1c-0.1,0-0.1,0.1-0.1,0.2c0,0,0,0,0,0.1c-0.1,1-2.1,3.2-3.2,3.9
	c-0.2,0.1-0.3,0.2-0.3,0.3c0,0.1,0.1,0.1,0.1,0.1C181,47.6,183.5,46.1,184.7,44.6z M178.6,46.7c0.2-0.4,0.3-0.9,0.1-1.4
	c-0.2-0.5-0.3-1-0.3-1.6c0-2.3,1.8-6.7,2.3-8c0.1-0.2,0.1-0.3,0.1-0.4c0,0,0-0.1-0.1-0.1c-0.4,0-3.3,6.2-3.3,6.3
	c-0.3,0.7-0.7,0.8-1.4,0.8c-0.4,0-0.5,0.1-0.5,0.2c0,0.1,0.1,0.2,0.5,0.3c1.2,0.3,1.4,1,1.4,1.6c0,0.3,0,0.6-0.1,0.9
	c0,0.2-0.1,0.4-0.1,0.6V46c0,0.8,0.4,1.1,0.8,1.1C178.2,47.1,178.4,47,178.6,46.7z M177.2,32.9c0.6,0.4,1.1,1,1.4,1.5l0,0
	c0.3,0.5,0.6,0.6,0.8,0.6c0.4,0,0.7-0.4,0.7-0.8c0-1.1-1.6-1.6-2.8-1.6c-0.3,0-0.4,0-0.4,0.1C177,32.7,177,32.8,177.2,32.9z
	 M202.2,35.8c0.1-0.1,0.1-0.2,0.2-0.2c0.1,0,0.5-0.1,0.5-0.3v0h5c0.4,0,0.5-0.2,0.5-0.3c0-0.4-0.9-1.2-1.4-1.4c-0.1,0-0.1,0-0.1,0
	c-0.1,0-0.3,0-0.9,1c0,0.1-0.2,0.1-0.2,0.1H203c0-0.2,0-0.5,0-0.8c0-0.1,0-0.2,0-0.3c0-0.5,0-0.5,0.3-0.6c0.3-0.1,0.4-0.3,0.4-0.4
	c0-0.4-1.9-0.6-2-0.6c0,0-0.1,0-0.1,0.1c0,0,0,0.1,0,0.1c0.1,0.4,0.1,1.1,0.1,1.7v0.8c-1.1,0-2.9-0.1-4.5-0.3l-0.1,0v0.1
	c0,0.2,0.5,0.9,0.8,0.9l0,0c1.1-0.1,2-0.1,2.8-0.2c-0.1,1-0.4,2.1-0.5,2.6c-0.3,0-0.7,0-1.1,0c-0.3,0-0.9-0.1-1.4-0.2
	c-0.1,0-0.1,0-0.1,0c-0.1,0-0.1,0.1-0.1,0.1c0,0.1,0.6,1.5,1,1.5c0.1,0,0.2,0,0.2-0.1c0.1,0,0.2-0.1,0.3-0.1l0.1,0
	c2.5-0.4,4.7-0.7,6.5-1.2c0.3,0.3,0.5,0.6,0.6,0.8c0.2,0.4,0.5,0.6,0.8,0.6c0.4,0,0.7-0.4,0.7-0.8c0-1.4-3.1-2.4-3.9-2.4
	c-0.1,0-0.1,0.1-0.1,0.1c0,0.1,0.1,0.1,0.1,0.2c0.5,0.4,1,0.8,1.4,1.2c-1.2,0.2-2.7,0.3-4.2,0.4C201.4,37.3,201.9,36.3,202.2,35.8
	C202.2,35.9,202.2,35.9,202.2,35.8z M200.7,39.9c-0.1-0.1-1.4-0.3-1.6-0.3c-0.1,0-0.1,0.1-0.1,0.1l0,0.4c0.1,0.7,0.1,0.9,0.1,1.3
	c0,2.8-1.2,5.1-3.4,6.1c-0.2,0.1-0.4,0.2-0.4,0.3c0,0,0,0.1,0.2,0.1c0,0,4.8-0.9,4.8-6.8v-0.4c0-0.2,0-0.2,0.2-0.2c0,0,0.1,0,0.1,0
	c0.2-0.1,0.3-0.2,0.3-0.4C201,40.1,200.9,40,200.7,39.9z M208.6,46c-0.2-0.1-0.3-1.3-0.3-2c-0.1-1-0.1-1-0.2-1
	c-0.1,0-0.1,0.1-0.1,0.4c-0.4,3-0.5,3.2-1.7,3.2c-0.7,0-0.7-0.4-0.8-0.7c0-0.5,0-1.6,0-2.6c0-2.5,0-2.5,0.4-2.6
	c0.2-0.1,0.3-0.2,0.3-0.4c0-0.1,0-0.2-0.3-0.3c-0.4-0.1-1.4-0.3-1.5-0.3c-0.1,0-0.2,0.1-0.2,0.1c0,0,0,0,0,0.1
	c0.1,0.5,0.1,1.2,0.1,1.4c0,0.2,0,0.7,0,1.3c0,0.9,0,2,0,2.9c0,1.3,0,2.2,2.2,2.2c0.8,0,2.5-0.1,2.5-0.9
	C209,46.4,208.8,46.2,208.6,46z M192.8,37c0.6,0.3,1.2,0.9,1.5,1.2c0.3,0.4,0.5,0.4,0.7,0.4c0.4,0,0.7-0.4,0.7-0.8
	c0-0.9-1.2-1.2-2.3-1.2c-0.8,0-0.8,0.1-0.8,0.2C192.5,36.8,192.6,36.9,192.8,37L192.8,37z M194.4,32.7c-0.3,0-0.4,0-0.4,0.1
	c0,0.1,0.1,0.1,0.2,0.3c0.6,0.4,1.1,1,1.4,1.5l0,0c0.3,0.5,0.6,0.6,0.8,0.6c0.4,0,0.7-0.4,0.7-0.8C197.2,33.2,195.5,32.7,194.4,32.7
	z M195.8,45.5c-0.2-0.5-0.3-1.1-0.3-1.6c0-1.7,0.7-3.6,2.1-7.3c0-0.1,0.1-0.4,0.1-0.5c0-0.1,0-0.1-0.1-0.1c-0.2,0-0.9,1.3-3,5.4
	l-0.1,0.2c-0.4,0.7-0.7,0.8-1.4,0.8c-0.3,0-0.5,0.1-0.5,0.2c0,0.1,0.1,0.2,0.5,0.3c1.2,0.3,1.4,1,1.4,1.6c0,0.3,0,0.6-0.1,0.9
	c0,0.2-0.1,0.4-0.1,0.7v0.2c0,0.9,0.4,1.3,0.8,1.3c0.2,0,0.4-0.1,0.6-0.3C196,46.8,196,46.2,195.8,45.5z M201.6,39.6
	c-0.1,0-0.2,0.1-0.2,0.1c0,0,0,0.1,0,0.1c0.1,0.4,0.1,1.1,0.1,2.2c0,1.3-0.1,3.6-0.1,4.7v0.1c0,0.4,0.3,0.5,0.6,0.5
	c0.2,0,0.4-0.1,0.6-0.2c0.1-0.1,0.2-0.2,0.1-0.4l0-0.3c0-1,0-2.4,0-3.6c0-0.8,0-1.4,0-1.7c0-0.4,0.1-0.4,0.4-0.5
	c0.1,0,0.2-0.2,0.2-0.3C203.4,39.9,202.4,39.6,201.6,39.6z M225.5,42.9c-1.6-0.2-3.1-1.3-4.8-2.6c-1-0.8-2-1.5-3.2-2.2
	c-0.4-0.2-0.8-0.4-1.2-0.4c-0.5,0-1.1,0.2-1.5,0.6c-0.5,0.4-1.1,0.9-1.5,1.3c-0.3,0.3-0.6,0.6-0.8,0.7c-0.3,0.2-0.5,0.2-0.7,0.2
	c-0.2,0-0.4-0.1-0.5-0.2c-0.1-0.1-0.2-0.2-0.3-0.2c-0.1,0-0.2,0.1-0.2,0.3c0,0.9,1,1.4,1.6,1.4c0.5,0,0.9-0.2,1.2-0.7
	c0.1-0.1,0.2-0.4,0.4-0.6c0.4-0.6,0.9-1.5,1.3-1.8c0.3-0.3,0.6-0.4,0.9-0.4c0.2,0,0.4,0.1,0.6,0.2c1.1,0.7,2.1,1.6,3,2.5
	c1.6,1.5,3,2.9,5.2,3.4c0.2,0,0.4,0.1,0.6,0.1c0.7,0,0.9-0.3,0.9-0.6C226.6,43.5,226.2,43,225.5,42.9z M242,40.2
	c0,5.4-6.1,7.1-7.8,7.1c-0.2,0-0.3-0.1-0.3-0.1c0-0.1,0-0.2,0.9-0.4c1.4-0.4,6-2,6-6.6c0-2.4-1.6-5-5.2-5c-0.2,0-0.3,0-0.5,0
	c0.4,0.4,0.6,1.3,0.6,2.3c0,3.9-3.1,8-4.8,8c-0.7,0-1-0.6-1.5-1.4c-0.2-0.3-0.3-0.6-0.6-0.9c-0.3-0.4-0.4-1-0.4-1.7
	c0-1.5,0.7-3.3,1.8-4.6c1-1.2,2.7-2.5,5.5-2.5C240,34.3,242,37.4,242,40.2z M234.8,36.8c0-1.4-0.3-1.5-0.6-1.5c-0.1,0-0.1,0-0.2,0
	c-0.1,0-0.1,0-0.2,0c-2.9,0.8-4.5,3.6-4.5,5.8c0,1.5,0.7,2.7,1.6,2.7C232.1,43.8,234.8,40.1,234.8,36.8z M250.3,39.9
	c-0.1,1.5-0.2,2.8-0.4,4.2c-0.4,2.9-1.9,3.4-2.8,3.4c-0.2,0-0.3-0.1-0.3-0.2c-0.1-0.3-0.6-0.7-0.9-1c-0.1-0.1-0.2-0.2-0.3-0.3
	c-0.9,1.4-2,2.1-2.2,2.1c-0.1,0-0.1,0-0.1-0.1c0-0.1,0.1-0.3,0.3-0.5c2.9-2.8,3-10.6,3-10.6c0-0.4,0-0.7-0.1-1c-0.5,0-1,0.1-1.8,0.1
	l0,0c-0.3,0-0.8-0.7-0.8-0.9v-0.1l0.1,0c1,0.1,2.1,0.2,2.9,0.2l0-0.6c0-0.9,0-2-0.2-2.5c0-0.1,0-0.1,0-0.2c0-0.1,0-0.1,0.1-0.1
	c0,0,2,0.2,2,0.7c0,0.1-0.1,0.3-0.4,0.4l0,0c-0.3,0.2-0.3,0.2-0.3,0.7c0,0.3,0,0.7,0,1c0,0.2,0,0.3,0,0.5h1.2c0,0,0.1,0,0.2-0.1
	c0.5-0.8,0.6-1,0.8-1c0,0,0.1,0,0.1,0c0,0,0,0,0,0l0,0c0.7,0.3,1.3,1.1,1.3,1.3c0,0.1,0,0.3-0.4,0.3h-2.9c0.2,0.1,0.2,0.2,0.2,0.3
	c0,0.1-0.1,0.3-0.4,0.4c-0.3,0.1-0.3,0.1-0.3,0.6c0,0.5-0.1,1-0.1,1.4h1.2c0.1,0,0.2,0,0.2-0.1l0,0c0.1-0.1,0.1-0.1,0.2-0.2
	c0-0.1,0.1-0.1,0.1-0.2c0,0,0.1-0.1,0.2-0.1c0.1,0,0.4,0.2,0.7,0.3c0-0.1,0.1-0.2,0.3-0.4c0.8-0.9,2.7-4.1,2.8-5.7c0,0,0-0.1,0-0.1
	c0-0.1,0-0.2,0.1-0.2c0.2,0,1.8,0.7,1.8,1c0,0.1-0.1,0.3-0.6,0.3c-0.2,0-0.2,0.1-0.3,0.2c0,0,0,0.1-0.1,0.1
	c-0.1,0.1-0.1,0.2-0.2,0.3c-0.2,0.4-0.5,0.9-0.9,1.4h3.5c0,0,0.2,0,0.2-0.1c0.5-0.7,0.7-1,1-1c0.5,0,1.6,1.1,1.6,1.4
	c0,0.1,0,0.3-0.5,0.3H253c-1.3,1.8-2.2,2.5-2.5,2.6c0.3,0.2,0.5,0.4,0.5,0.6c0,0.2-0.2,0.3-0.5,0.5
	C250.3,39.6,250.3,39.6,250.3,39.9z M247.7,39.1c-0.2,2-0.7,4.6-1.9,6.6c0,0,0,0,0,0c0.2,0,0.3,0.1,0.5,0.1c0.3,0.1,0.6,0.2,0.9,0.2
	c1.7,0,1.8-3.1,1.9-6.8c0-0.1,0-0.2-0.1-0.2H247.7z M260.5,46.7c-2.6-0.9-3.9-3.1-4.6-4.8c0.9-0.3,1.9-0.6,2.4-0.8
	c0.1,0,0.2-0.1,0.3-0.1c0.1,0,0.1,0,0.2,0c0.1,0,0.1,0,0.2,0c0,0,0.1,0,0.1,0c0.1,0,0.3,0.1,0.4,0.1c0.4,0,0.4-0.2,0.4-0.3
	c0-0.4-1.3-1.5-1.5-1.5c-0.1,0-0.1,0.1-0.1,0.1c-0.3,0.8-2,1.9-2.4,2.1c-0.3-0.8-0.5-1.8-0.6-2.8c0.9-0.3,1.6-0.5,2.1-0.7
	c0,0,0.1,0,0.1,0c0.1,0,0.2-0.1,0.3-0.1c0,0,0,0,0,0c0,0,0.1,0,0.2,0c0,0,0.1,0,0.1,0c0.3,0,0.5-0.2,0.5-0.3c0-0.3-1.3-1.2-1.5-1.2
	c-0.1,0-0.1,0-0.1,0.1c0,0,0,0,0,0.1c-0.8,1-5,2.6-5.9,2.9c-0.1,0-0.4,0.1-0.4,0.3c0,0.1,0.2,0.1,0.2,0.1c0.3,0,1-0.2,1.8-0.3
	c0,0.5,0,1.1,0,1.8c0,0.9,0,3.8-0.2,6.1v0.1c0,0.5,0.3,0.6,0.6,0.6c0.2,0,0.4-0.1,0.6-0.3c0.1-0.1,0.2-0.3,0.2-0.5
	c-0.1-1.3-0.1-3.4-0.1-4.3c0-3,0-3,0.2-3.2c0.1-0.1,0.3-0.2,0.3-0.4c0-0.2-0.2-0.2-0.4-0.3c0.3-0.1,0.6-0.2,1-0.3
	c0.1,2.9,1,5.1,1.7,6.4c0.8,1.5,1.7,2.3,2,2.3c0.1,0,0.1,0,0.2-0.1l0,0c0.3-0.2,0.9-0.3,1.4-0.4c0.5-0.1,0.6-0.1,0.6-0.2
	C260.7,46.8,260.6,46.7,260.5,46.7z M265.6,32.2c-0.5,0-0.5,0.1-0.5,0.3c0,2.2,0.1,5.9,0.1,9.3c0,2.2,0,4.1,0,5.1
	c0,0.1,0,0.2-0.1,0.2c-0.3,0-0.7,0-1.1,0c-0.7,0-1.5,0-2.5-0.1c-0.1,0-0.3,0.1-0.3,0.5c0,0.1,0,0.3,0,0.3c0,0.1,0.2,0.1,0.2,0.1
	c0,0,0,0,0,0c1.5-0.1,2.3-0.1,3.8,0l0.4,0c0.3,0,0.5-0.2,0.5-0.5l0,0c-0.1-1-0.1-3.2-0.1-6.4c0-3.4,0.1-6.7,0.2-8.5
	C266.1,32.2,265.8,32.2,265.6,32.2z M293.3,40.2c0,5.4-6.1,7.1-7.8,7.1c-0.2,0-0.3-0.1-0.3-0.1c0-0.1,0-0.2,0.9-0.4
	c1.4-0.4,6-2,6-6.6c0-2.4-1.6-5-5.2-5c-0.2,0-0.3,0-0.5,0c0.4,0.4,0.6,1.3,0.6,2.3c0,3.9-3.1,8-4.8,8c-0.7,0-1-0.6-1.5-1.4
	c-0.2-0.3-0.3-0.6-0.6-0.9c-0.3-0.4-0.4-1-0.4-1.7c0-1.5,0.7-3.3,1.8-4.6c1-1.2,2.7-2.5,5.5-2.5C291.3,34.3,293.3,37.4,293.3,40.2z
	 M286.1,36.8c0-1.4-0.3-1.5-0.6-1.5c-0.1,0-0.1,0-0.2,0c-0.1,0-0.1,0-0.2,0c-2.9,0.8-4.5,3.6-4.5,5.8c0,1.5,0.7,2.7,1.6,2.7
	C283.4,43.8,286.1,40.1,286.1,36.8z M296.6,37.4c0.6,0,1.6-0.6,1.9-2.3h9.9c0,0,0,0,0,0c0,0.1-0.6,0.9-0.9,1.3
	c-0.1,0.1-0.1,0.1-0.1,0.2c0,0.1,0.1,0.1,0.1,0.1c0,0,0.1,0,0.1,0c0,0,0,0,0.1,0c0.1,0,0.2-0.1,0.3-0.2c0.6-0.3,1.2-0.5,2-0.6
	c0.7,0,0.8-0.4,0.8-0.5c0-0.5-1.1-1.3-1.5-1.4l0,0c0,0,0,0,0,0c0,0,0,0-0.1,0c-0.3,0-0.6,0.5-0.6,0.5c-0.1,0.1-0.2,0.1-0.2,0.1H304
	c0-0.1,0-0.3,0-0.4l0-0.4c0-0.5,0-0.5,0.4-0.7l0,0c0.2-0.1,0.4-0.2,0.4-0.5c0-0.5-2-0.8-2.2-0.8c-0.1,0-0.1,0-0.1,0.1
	c0,0,0,0.1,0,0.1c0.1,0.6,0.2,1.6,0.2,2.4v0.1h-4.3c0-0.3-0.1-1.4-0.3-1.4c-0.1,0-0.1,0.1-0.2,0.3c-0.2,1.1-0.6,1.7-1.7,2.6
	c-0.3,0.3-0.5,0.6-0.5,0.8C295.8,37.1,296.1,37.4,296.6,37.4z M312,46.6c0-0.1-0.2-0.1-0.3-0.1h-0.1c-3.2,0-5.8-1.2-7.3-3.2h6.1
	c0.4,0,0.5-0.2,0.5-0.3c0-0.3-1-1.3-1.6-1.5l0,0c0,0,0,0,0,0c0,0-0.1,0-0.1,0c-0.4,0-1.1,1.1-1.1,1.1c0,0.1-0.2,0.1-0.2,0.1h-4
	c0.1-0.3,0.2-1,0.2-1.9h3.9c0.4,0,0.4-0.2,0.4-0.3c0-0.4-0.9-1.1-1.4-1.3l0,0c0,0,0,0,0,0c0,0-0.1,0-0.1,0c-0.3,0-0.9,0.9-0.9,0.9
	c0,0.1-0.1,0.1-0.2,0.1H304c0-0.3,0-0.7,0-1c0-0.3,0-0.6,0-0.8h4.7c0.4,0,0.5-0.2,0.5-0.3c0-0.4-1-1.2-1.5-1.4c-0.1,0-0.1,0-0.1,0
	c-0.3,0-1,1-1,1c0,0.1-0.2,0.1-0.2,0.1H304v-0.4c0-0.5,0-0.5,0.2-0.6c0,0,0.1,0,0.2-0.1c0.3-0.1,0.4-0.3,0.4-0.5
	c0-0.5-2.1-0.7-2.1-0.7c-0.1,0-0.1,0.1-0.1,0.1c0,0,0,0.1,0,0.1c0,0.3,0.2,1,0.2,2.1h-0.9c-0.9,0-2.3,0-4.2-0.3l-0.1,0v0.1
	c0,0.3,0.5,0.9,0.8,0.9l0,0c1.6-0.1,2.5-0.2,3.3-0.2h1c0,0.6,0,1.1,0,1.8h-0.6c-0.9,0-2.3,0-4-0.3l-0.1,0V40c0,0.3,0.5,0.9,0.9,0.9
	l0,0c1.4-0.1,2.1-0.2,3.1-0.2h0.6c0,0.6,0,1.2-0.2,1.9h-0.8c-1.4,0-4.2-0.1-5.8-0.3l-0.1,0v0.1c0,0.3,0.6,0.9,0.9,0.9l0,0
	c1.6-0.1,3.9-0.2,4.9-0.2h0.7c-0.9,2.3-3.1,3.8-6.6,4.4c-0.4,0.1-0.6,0.2-0.6,0.3c0,0.1,0.1,0.1,0.4,0.1c0.1,0,6.7-0.1,8.1-4.8h0.1
	c1.2,3.2,5,4.7,5.9,4.7c0.1,0,0.2,0,0.3-0.2c0.2-0.3,0.9-0.6,1.4-0.8C311.8,46.7,312,46.6,312,46.6z M328.8,46.3
	c0,0.5-0.7,1-2.2,1.2c-0.7,0.1-2.2,0.1-2.6,0.1c-1.6,0-3.5,0-3.5-1.8v-0.1c0-0.7,0-1.4,0-2.1c0-0.5,0-1,0-1.5
	c-0.2,0.1-0.5,0.3-0.8,0.5c-0.1,0-0.1,0.1-0.2,0.1c-0.3,0-0.9-0.2-1-0.5l0-0.1l0.1,0c0.7-0.2,1.4-0.5,2-0.8c0-0.2,0-0.4,0-0.6
	c0-0.2,0-0.4,0-0.6c0-0.4,0-1.5-0.1-2.2c0,0,0-0.1,0-0.1c0,0,0,0,0,0c0-0.1,0-0.1,0.1-0.1c0.1,0,1.8,0.3,1.8,0.7
	c0,0.2-0.2,0.3-0.4,0.4c0,0-0.1,0-0.1,0c-0.1,0.1-0.2,0.1-0.2,0.5c0,0.2,0,0.6-0.1,1.4c0.1,0,0.1-0.1,0.2-0.1l1.4-0.8
	c0-2.4-0.1-2.9-0.2-3.3c0,0,0-0.1,0-0.1c0-0.1,0-0.1,0.1-0.1c0.2,0,1.9,0.3,1.9,0.7c0,0.2-0.2,0.3-0.3,0.3c-0.1,0-0.1,0.1-0.2,0.1
	c-0.2,0.1-0.2,0.1-0.2,0.5c0,0.4-0.1,0.9-0.1,1.3l1.3-0.7c0.1,0,0.2-0.1,0.2-0.2c0.2-0.5,0.3-0.6,0.4-0.6c0,0,1.6,0.2,1.6,0.8
	c0,0.1-0.1,0.3-0.3,0.5c-0.1,0.1-0.1,0.1-0.2,0.1c-0.1,0.1-0.2,0.1-0.2,0.2c0,0.2,0,0.4,0,0.6c0,0.7,0,1.7-0.1,2.4
	c-0.1,1-0.4,2.1-1.9,2.3l-0.1,0c-0.1,0-0.2,0-0.2-0.1c-0.1-0.2-0.3-0.4-0.5-0.6l0,0.5c0,0.4-0.3,0.7-0.7,0.7c-0.2,0-0.5-0.2-0.5-0.6
	v0l0-1.1c0-1.1,0.1-2.1,0.1-3l-1.7,0.9c0,1.4,0,2.4,0,3.1c0,1.8,0,1.8,2.3,1.8c0.8,0,1.9,0,2.5-0.1c0.8-0.1,1-1.3,1.3-2.6l0-0.2
	c0-0.1,0-0.1,0-0.1l0,0h0c0.1,0,0.1,0.1,0.2,0.8c0.1,0.5,0.2,1.5,0.4,1.6C328.6,45.9,328.8,46.1,328.8,46.3z M324.3,43.5
	c0.1,0,0.2,0,0.3,0.1c0.2,0.1,0.4,0.1,0.6,0.1c0.4,0,0.9,0,0.9-3c0-0.3,0-0.6,0-0.8c0-0.2,0-0.4,0-0.5c0-0.1-0.1-0.1-0.1-0.1
	c0,0,0,0-0.1,0l-1.5,0.8V41C324.3,41.8,324.3,42.6,324.3,43.5z M319,38.3C319,38.3,319,38.4,319,38.3c0.2,0.1,1-0.4,2.3-2.5h6.5
	c0.4,0,0.5-0.2,0.5-0.3c0-0.4-1.2-1.4-1.7-1.4c-0.3,0-0.4,0.2-1,1c0,0.1-0.2,0.1-0.2,0.1h-3.7c0.3-0.5,0.6-1,0.8-1.5
	c0.1-0.1,0.1-0.3,0.2-0.4l0-0.1c0.1-0.2,0.1-0.2,0.3-0.2c0.5-0.1,0.5-0.3,0.5-0.4c0-0.4-1.9-0.9-1.9-0.9c-0.1,0-0.1,0.2-0.1,0.3
	c0,1.3-1.6,4.8-2.3,5.8C319,38.1,319,38.2,319,38.3z M318.6,39.8c-0.1,1.5-0.2,2.8-0.4,4.2c-0.3,2.2-1.3,3.4-2.8,3.4
	c-0.2,0-0.3-0.1-0.3-0.2c-0.1-0.3-0.5-0.7-0.9-1c-0.1-0.1-0.2-0.2-0.3-0.3c-0.7,1.1-2,2.2-2.3,2.2c-0.1,0-0.1-0.1-0.1-0.1
	c0-0.1,0.2-0.3,0.3-0.5c2.9-2.9,3.1-10.7,3.1-10.8c0-0.4,0-0.7-0.1-1c-0.6,0-1.2,0.1-1.8,0.1l0,0c-0.4,0-0.8-0.7-0.8-0.9V35l0.1,0
	c1,0.1,2.1,0.2,3,0.2l0-0.6c0-0.9,0-2.1-0.2-2.5c0,0,0,0,0-0.1c0,0,0-0.1,0-0.1c0-0.1,0.1-0.1,0.1-0.1c0.1,0,2,0.2,2,0.7
	c0,0.1-0.1,0.3-0.4,0.4l0,0c-0.3,0.2-0.3,0.2-0.3,0.8c0,0.4,0,0.8-0.1,1.2c0,0.1,0,0.3,0,0.4h1.2c0,0,0.1,0,0.2-0.1
	c0.5-0.9,0.7-1,0.8-1c0.3,0,1.5,0.9,1.5,1.4c0,0.1,0,0.3-0.4,0.3h-3c0.2,0.1,0.2,0.2,0.2,0.3c0,0.1-0.1,0.3-0.4,0.4
	c-0.3,0.1-0.3,0.1-0.3,0.6l0,0.1c0,0.4-0.1,0.9-0.1,1.4h1.2c0.1,0,0.2,0,0.2-0.1l0,0c0.1-0.1,0.1-0.1,0.2-0.2c0-0.1,0.1-0.1,0.1-0.2
	c0,0,0.1-0.1,0.2-0.1c0.3,0,1.3,0.6,1.3,1c0,0.2-0.2,0.3-0.5,0.5C318.6,39.5,318.6,39.5,318.6,39.8z M316.1,39c-0.3,2.9-1,5-2,6.7
	c0.2,0,0.3,0.1,0.5,0.1c0.3,0.1,0.6,0.2,0.9,0.2c1.4,0,1.8-2.3,1.9-6.8c0-0.1-0.1-0.2-0.1-0.2H316.1z"/>
</svg>
