<svg id="Layer_2" xmlns="http://www.w3.org/2000/svg" viewBox="0 0 12.41 10.58"><defs><style>.cls-1{fill:#fff;stroke-width:0}</style></defs><g id="text"><g id="TCAfHj"><path class="cls-1" d="M0 6.15c.35 0 .7.02 1.05 0 .47-.03.62.17.6.62-.03.53 0 1.07-.01 1.61-.01.34.1.48.46.48h8.19c.36 0 .46-.16.45-.49-.01-.59 0-1.17 0-1.76 0-.32.14-.44.45-.46 1.22-.09 1.23-.09 1.23 1.13v2.36c0 .71-.22.93-.93.94-1.04.01-2.08 0-3.12 0H1.03c-.4 0-.78-.03-1.02-.41V6.14z"/><path class="cls-1" d="M7.26 1.73c0 .3.02.6 0 .9-.03.48.2.66.66.66.27 0 .63-.15.78.16.15.3-.19.5-.35.72-.55.76-1.13 1.5-1.7 2.24-.35.46-.56.47-.9.03-.65-.85-1.3-1.71-1.95-2.56-.1-.13-.24-.26-.14-.45.1-.18.29-.14.45-.15h.45c.37 0 .55-.18.55-.56V.76c0-.54.19-.73.72-.75 1.48-.07 1.45.15 1.42 1.32v.4z"/></g></g></svg>