<svg xmlns="http://www.w3.org/2000/svg" viewBox="0 0 500 500"><path d="M250 .1c44.8 0 89.6-.2 134.3 0C445.5.4 493 44.5 498.7 105.4c.9 9.8 1.2 19.5 1.2 29.3 0 81.4.1 162.7 0 244.1 0 34.4-11.2 64.3-36.2 88.4-22.7 21.9-50.4 31.6-81.5 32.5-10.1.3-20.2-.1-30.3.1-6.6.1-9.6-2.3-9.6-9.4.2-58.7.2-117.3.1-176 0-7.5 2.9-10 10.1-9.9 14.2.3 28.4-.3 42.6.2 7.9.3 12-1.5 12.8-10.5 1.7-17.9 4.3-35.7 7.3-53.4 1.4-8.3-1.9-9.8-8.9-9.7-17.3.3-34.7-.3-52 .2-9.2.3-12.2-3.3-11.8-12.2.6-14.5-.1-29 .3-43.5.5-18.8 10.8-29.1 29.6-29.8 12.3-.4 24.6-.4 36.9-.1 6.9.1 9.7-2.5 9.6-9.4-.3-15.8-.2-31.5 0-47.3.1-7-2.6-10.9-9.8-10.8-21.1.2-42-3.2-63.2-.7-43.8 5.3-75.2 37.7-78.6 82.2-1.5 20.2-1.4 40.3-1.2 60.5.1 8.2-2.8 11.3-11 11-14.8-.4-29.6.1-44.5-.2-7-.1-9.5 2.7-9.4 9.5.3 18 .4 36 0 53.9-.2 8.2 3.3 10.2 10.8 10.1 14.8-.4 29.6.1 44.5-.2 6.7-.1 9.4 2.3 9.7 9.3 2.3 58.6.4 117.3 1.1 175.9.1 6.5-2.1 10.1-9.2 10-51.4-.7-102.8 2.1-154.1-1.4C47.4 494.5.5 444.8.3 388.3c-.4-92.7-.4-185.4.2-278.1C.8 51 51.6.8 111 .2c46.3-.4 92.7-.1 139-.1z"/></svg>