<svg xmlns="http://www.w3.org/2000/svg" viewBox="0 0 500 500"><path d="M161.8 101.3c11.6-25.7 13.3-25.7 14.1-25.7.6 0 .6.7.6.9 0 .8-.4 2.1-.8 3.1-6.7 17.7-22.4 60.7-22.4 79.3 0 3.2.4 5.9 1.4 8.4.8 2.2 1.2 4.2 1.2 6 0 5.5-3.3 8.4-6.6 8.4-4.4 0-6.5-4.9-6.5-9.5 0-.3 0-.5.1-.8 0-.3.1-.6.1-.9.1-1.8.3-3.5.6-5.2.3-2.2.6-4.2.6-6.1 0-4.2-1.1-8.4-9.4-10.5-2.6-.6-3.7-1.2-3.7-2s1-1.1 4-1.3c4.9-.1 8.5-.6 10.3-5.2 3.4-8.8 10.1-25 16.4-38.9zm.9 31c0 .5.4.9.9.9 1.5 0 16.4-7.5 29.1-35.7.7-1.6 1-1.9 2.3-2.1 3-.5 3.5-1.7 3.5-2.4 0-3.2-12.8-7.5-13.9-7.5-1 0-1 .7-1.1 1.2 0 .1 0 .2-.1.5-.8 15.3-13.2 35.7-19.3 42.8-1 1.1-1.4 1.8-1.4 2.3zm26.7-48.7h.2c5.2-.8 11.3-1.1 13.4-1.1h5.6c1.1 0 1.7.2 1.9 1.5 3.5 24.5 18.2 42.8 21.9 42.8.8 0 1.4-.3 2.1-.7 3.2-2.3 7.8-3.1 10.9-3.6 2.4-.4 3.3-.5 3.3-1.3 0-.3-.2-.6-1.3-1.1-23.3-8.9-31.5-31.3-31.7-34 0-.4.4-.6 2.2-.9.7-.1 1.5-.3 2.4-.6 1.8-.5 3.8-1.7 3.8-3.3 0-3-7.7-7.7-9.4-7.7-.9 0-1.5.5-4.3 3.9-.4.5-1.1.9-1.5.9h-6c-2.5 0-10.6-.3-18.5-1.8-.2 0-.3 0-.4.1-.1.1-.2.2-.2.4-.2 1.6 3.5 6.5 5.6 6.5zm-58.4 22c3.4 1.9 7.9 6.2 10.1 9.1 1.6 2.1 3.5 3.2 5.4 3.2 3.1 0 5.7-2.9 5.7-6.3 0-3.8-2.5-6.6-7.2-8.1-2.4-.8-5.4-1.2-8.7-1.2-1.7 0-7.2.1-7.2 1.5 0 .5.4.9 1.9 1.8zm45.7 72.3c.6-8 .9-16.6.9-26.5 0-10.3-.3-16.7-1.6-23.2v-.2c0-.1-.1-.2-.1-.4 0-1 .7-1 .9-1 1.5 0 10.3 3.7 13.3 5.8l.2.2h24.4c.5 0 .8-.1 1.2-.7 2.2-2.9 3.8-4.3 4.9-4.3 2 0 11.4 5.2 11.4 8.2 0 1.4-1.3 2.4-2.9 3.5-2.4 1.5-2.6 1.9-2.6 8.6 0 7.1.5 18.9 1.1 28v.4c0 3.8-3.8 5.2-6.2 5.2-3 0-4.8-1.7-4.8-4.4v-4.8h-29.2l.1 5.3c0 2.5-1.9 5.2-6.2 5.2-2.4 0-4.8-1.4-4.8-4.4v-.5zm40.4-26.9c0-5.2 0-9.7-.3-12.8 0-.6-.1-1.2-1.4-1.2H190l-.7.6c-1.7 1.2-1.7 1.2-1.7 14.8 0 5.1 0 10.3.1 15.4H217c.1-5.8.1-11.6.1-16.8zm-76.6-75c.2.1.4.3.7.5 3.5 2.5 7.3 7.3 9.1 10.6 2 3.6 4.4 4.3 6 4.3 3.2 0 5.8-2.9 5.8-6.5 0-7.3-9.6-11.2-19-11.2-3.8 0-3.8.5-3.8.9 0 .6.4.8 1.2 1.4zm111.6 102.1c1.4 0 9.4-8.7 17.1-27.9v-.1c.6-1.7.8-2.2 2.4-2.5 3.1-.7 3.4-2.1 3.4-2.7 0-3.4-13.3-6.6-13.9-6.6-.8 0-.8 1.3-.8 1.8 0 9.4-4.6 27.2-8.4 35.1-.4.9-.5 1.5-.5 2-.1.6.1.9.7.9zm53.3-97.7c-.1-.4-.1-.7-.1-.9 0-.6.4-.9.8-.9 1.5 0 9.5 3.8 12.5 5.9l.2.2h2.9c1-4.2 2-9 2-14.3 0-.5 0-1-.1-1.5 0-.4-.1-.8-.1-1.2 0-.3 0-1.3.9-1.3.7 0 14.6 3.8 14.6 7.5 0 1.3-1.6 2.7-4.5 2.8-1.1.1-1.3.5-1.9 1.3l-.1.1c-1.7 2.3-3.6 4.5-5.4 6.5h15.7c.7 0 1.2-.6 1.4-.8 2.8-3.7 3.7-4.3 4.7-4.3.8 0 3.7 1.5 5.8 3 2.3 1.5 4.9 3.7 4.9 5.4 0 1.7-1.8 2.8-3.5 3.6-1.3.7-1.6 1.1-1.6 6.6 0 7.4.5 18.6.9 23.8v.3c0 1.4-1 5.2-5.8 5.2-2.2 0-4.6-1.4-4.6-4.4v-1h-8c1 .4 1.5.9 1.5 1.9 0 .6-.3 1.4-1.6 2.1 1.4 5.9 3.5 11.7 6 16.8 2.6-2.3 10.1-9.4 11.8-13.9v-.1c.1-.4.2-1 1-1 1.8 0 11.4 7.1 11.4 10.4 0 .5-.2 2-2.9 2-.5 0-1-.1-1.6-.2l-.4-.1c-.5-.1-1-.2-1.4-.2-.4 0-.9.1-1.5.3-3.6 1.4-9.5 3.6-14.9 5.4 6.7 12.2 16.1 20.6 27.2 24.3.7.2 1.4.5 1.4 1.1 0 .8-1.1 1.1-3.9 1.7-3 .7-7.1 1.7-9.2 3.5-.8.6-1.4.9-2 .9-2.4 0-17.6-13.4-23.2-48.6-.1 1-.2 2.8-.2 6.1 0 2 .1 13.2 1.1 34.9v.5c0 6.7-4.8 13.4-14.1 13.4-1.5 0-2.4-.6-3.2-2-1.1-2-5.7-4.7-8.7-6.6-3.2-1.9-3.9-2.4-3.9-2.9 0-.1 0-.8 1-.8.2 0 .5.1 1 .2l.5.1c4.6 1 8.4 1.5 11.2 1.5 6.8 0 6.8-1.6 6.8-12.3 0-1.2 0-29.9-1.1-38.4h-8.9v1.5c0 2.6-2.7 4.8-5.8 4.8-2.2 0-4.4-1.3-4.4-4.2v-.4c.7-8.8 1-21.3 1-27.1-.1-2.5-.6-11.3-1.6-16.2zm39.8 20.3c0-11-.1-11.6-1.5-11.6H319l-.1.1c-.5.4-1.1.8-1.9 1.3-.6.4-1.1 1.4-1.1 10.3h29.3zm-29.3 4.3c0 4.4 0 8.8.1 12.6h28.9c.1-3.9.2-8.3.2-12.6h-29.2zm-31.3 33c0 .4.5 1.3 1 1.9 2.7 4.3 4.8 11.3 5.8 15.1 1.2 4.7 4 5.2 5.2 5.2 2.5 0 5.2-2.3 5.2-6.1 0-8.6-14.8-16.7-16.5-16.7-.4 0-.7.2-.7.6zm3.7 39.1c-1.2.8-1.9 1.6-1.9 2.2 0 .1 0 .8 1 .8 3.6 0 23.7-9.2 33.3-35.5.6-1.7 1.2-2.1 1.9-2.4.1-.1.3-.1.4-.2l.2-.1c.8-.6 2.1-1.4 2.1-2.6 0-2.4-7.3-7.5-8.8-7.5-.7 0-1.7 1-3 2.5l-.3.3v.1c-.4.6-.8.8-1 .8h-2.9c-1.4 0-6.7-.1-13.8-1.5-.2 0-.3 0-.4.1-.1.1-.2.2-.2.4 0 1.3 3.5 6.2 5.1 6.2h.1c4.8-.8 8.5-1 9.9-1h2.4c.2 0 .2 0 .2.2 0 2.4-7.8 26-24.3 37.2zm-30.7-81c2.6 2.1 6.2 5.7 8.9 10.7 1.4 2.6 3.3 4.1 5.4 4.1 2.7 0 4.8-2.6 4.8-5.7 0-3.4-2.3-6.3-6.6-8.5 3.6-4.5 8.5-11.4 11.3-16.3.7-1.3 1.1-1.5 2.4-1.8 3.6-.4 3.9-2 3.9-2.5 0-3.3-13.2-7.7-13.9-7.7-.9 0-.9.8-.9 1.9 0 3.4-.7 9.3-6.4 24.9-3.4-1.1-6.4-1.6-8.9-1.6-.7 0-1.4 0-1.4.8-.1.4.3.8 1.4 1.7zm3.1 38.8c.7 0 1.2-.5 1.7-.9.4-.4.9-.7 1.4-.9l11.3-3c.2 3.3.2 7.4.2 10.7 0 11.7-.5 25.4-1.3 37.8v.5c0 3.5 2.4 4.7 4.4 4.7 2.9 0 6.1-2 6.1-5.3v-.3c-.3-11.9-.6-25.4-.6-35.5 0-11.3.1-11.4 1.5-12.2.9-.6 1.8-1.2 1.8-2.1 0-.6-.4-1.1-1-1.5l5.2-1.6c.2.9.4 1.6.5 2.2.7 3.6 2.6 5.7 5.1 5.7 2.6 0 5.2-2.3 5.2-6.2 0-7.9-13-15.3-15.8-15.3-.4 0-.8.4-.8.8 0 .3.1.7.8 1.8 1.6 2.6 2.9 5.1 3.9 7.5-4.5.5-10.3.8-15.9 1.2l-1.2.1c7.8-8.1 17.4-20.6 22.6-27.5.8-1.1 1.4-1.6 2.5-1.7 3.7-.2 4-1.9 4-2.4 0-2.9-11.8-8.5-13.1-8.5-.8 0-.9.9-1 1.7-1.6 10.9-18.2 35.9-19.9 38.6-.4 0-.8 0-1.1.1-.4 0-.8.1-1.1.1h-2c-1.2 0-5.2 0-8.9-.5-.2 0-.3 0-.4-.1-.1 0-.3-.1-.5-.1s-.8.1-.8.8c.1 0 4.4 11.3 7.2 11.3zM133.5 288.6c-9.8 0-15.1-7.1-15.1-12.2 0-7.3 9-12.3 21.9-12.3 1.8 0 3.6.2 5.5.4 0-1.7-.1-3.5-.2-5.3 0-.8-.1-1.5-.1-2.2-.2-2.9-.3-5.9-.3-8.9-2.6.6-7.9 1.2-11.5 1.2-15.6 0-19.2-8.4-19.2-9.7 0-.5.5-1 1.1-1 .6 0 1.5.3 2.3.6l.5.2c4.4 1.6 8.6 2.3 13.5 2.3 2 0 8.5-.3 13.4-1.6 0-5.2.1-9.9.4-14.1h-.5c-.4 0-.7.1-1.1.1-16.6 0-17.4-12.3-17.4-12.4 0-1.1.7-1.2 1-1.2.5 0 1 .4 1.7.8.2.1.3.2.5.3 3.9 2.3 8.5 4.7 13.6 4.7 1 0 2-.1 2.9-.2l.4-4.1c.7-7 .9-9.2.9-10.4 0-4.1-.9-4.5-2.6-5.1-2-.7-3.2-1.1-3.2-2.1s2.9-4.4 5.9-4.4c4.1 0 8.7 6 8.7 9.2 0 1.3-.4 2.6-.8 4.1-.2.5-.3 1.1-.5 1.7-.9 2.6-1.5 5.7-2 8.8l.3-.1c2.2-1.3 3.9-2 6-2 3.6 0 3.9 2.4 3.9 3.5 0 4-6.1 6.8-11.5 8-.3 2.8-.4 5.7-.4 9.1 0 .8 0 1.6.1 2.4v1.7c4.7-1.6 7.6-3.5 7.6-4.8 0-.9-1.5-2.3-4.2-4.6-.4-.3-.8-.7-.8-1.2 0-.4.3-.6.9-.6.3 0 .7.1 1.3.4 2.7 1.2 6.6 2.4 9.4 2.5 3.1.1 5.1 1.6 5.1 3.7 0 3.4-5 8.5-18.8 12.7.2 3.6.5 7.2 1 10.7l.8 5.5c.2 1.2.4 2.4.5 3.7 8.2 2.8 16.6 9.1 16.6 15.1 0 2.8-1.8 4.9-4.3 4.9-1.9 0-3.8-1.3-5.3-3.7-1.8-2.8-4.4-5.4-7.6-7.5-3.6 8.7-13 13.4-20.3 13.4zm3.6-18.7c-5.4 0-13.9 1.6-13.9 6 0 2.8 3.7 5 8.4 5 9 0 13-5.8 14-9.6-2.8-.9-5.7-1.4-8.5-1.4zm83.7 22.4c0 .7-.1 1.4-.2 2 12.2-3.3 16.6-11.9 16.6-18.9 0-7.7-5.3-16-16.8-16-4.8 0-16.6 1.6-23.6 16.4-2.7 5.9-4.6 9.4-8.6 9.4-2.3 0-4-1.8-4-4.3 0-3.4 4.3-8.4 9.3-14.1 6.7-7.7 22.2-28.6 26.7-36.1.4-.6.7-1.3.7-1.8 0-1.1-1.2-1.4-2.2-1.4-2.1 0-3.8 2-5.7 4.4-2.4 2.9-5 6.2-9.3 6.2-4.6 0-7.9-3-7.9-7.2 0-1.8.5-2.7 1.5-2.7.7 0 1.4.3 2.3.6.7.3 1.5.4 2.5.4 1.6 0 3-.5 4.2-1.4l.4-.3c4.4-3 9.3-6.5 15.1-6.5 6.8 0 11 4.8 11 7.5 0 2.4-2.4 4.5-4.9 6.4-6.5 5-17.1 18.6-20.8 23.5 4.8-2.7 10.4-4.1 16.1-4.1 15.2 0 23.5 10.9 23.5 21.1 0 10.3-9.8 25.7-31 25.7-10.5 0-18.4-5.1-18.4-11.8 0-5.7 5.8-8.8 11.3-8.8 7.6-.1 12.2 5.9 12.2 11.8zm-18.6-3.4c0 .9.5 5.1 10.2 6.2.5-1 .8-2.1.8-3.2 0-3.7-2.9-6.7-6.5-6.7-4.2 0-4.5 2.8-4.5 3.7zm56.4-23.5c0 10.6 14.4 18.8 32.8 18.8 8.3 0 25.6-2.4 25.6-9.7 0-2.8-2.8-4.6-7-4.6-.8 0-1.7.1-2.5.2h-.1c-1.4.2-2.6.7-4 1.3-1.3.6-2.9 1.2-4.8 1.7-3.4.8-6.9 1.2-10.2 1.2-11.8 0-24.5-4.6-24.5-12.1 0-1.3.5-2.9 1.5-4.5.3-.6 1.1-2 1.1-3 0-1.1-.7-1.2-1-1.2-1.9.1-6.9 6.3-6.9 11.9zm67.6-56c1.3 1.4 2.6 1.7 3.5 1.7 2.1 0 3.7-1.9 3.7-4.2 0-5.7-7.9-7.8-13.2-7.8-.1 0-5.5 0-5.5 1.5 0 .6.7 1 2.2 1.7 3.2 1.6 6.6 4.2 9.3 7.1zm-4.2 2.9c0-5.8-8-7.9-13.3-7.9-5 0-5 .9-5 1.3 0 .5.5.8 1.3 1.3.2.1.4.2.7.4 2.5 1.3 6.2 4 9.2 7.5 1.1 1.2 2.2 1.8 3.4 1.8 1.9-.1 3.7-2 3.7-4.4zm-52.6-2.2c-1.8-.6-3-1-3.7-1-.9 0-1 .7-1 .9 0 1.2 4.4 8.5 16 10 1 .2 2 .2 2.9.3.5 0 .9 0 1.4.1.2 0 1 .1 1.1.3 0 .5-1.8 3.1-5.1 6.8-1.6 1.9-1.8 2.6-1.8 3 0 .5.3.9.9.9.8 0 2.3-1 3.5-1.9 6.5-4.9 15-7.9 19.6-8.1 3.7-.1 6-1.6 6-3.8 0-2.1-3-6.1-10.1-6.1-1.1 0-2.2.1-3.2.2-.5 0-1.1.1-1.6.1-3.6.2-7.2.3-10.7.3-4.4-.1-9.5-.4-14.2-2zm105.9 76.4c-1.2 0-2.6.4-4 1-3.9 2-8.9 3-14.1 3-10.2 0-16.6-4.4-16.6-11.5 0-6.3 5.4-10.7 8.6-12.7 5.2-3.2 10.9-4.7 14.3-4.7h1c.2 0 .4 0 .7.1.3 0 .5.1.8.1 6.1 0 9.9-3.6 9.9-6.9 0-3.3-3-4.5-5.8-4.5-1.2 0-2.7.2-4.3.7-1.9.5-3.1 1.1-4.5 1.7-.6.3-1.2.5-1.8.8-3.7-1.5-5.4-5.1-5.4-11.2 0-5.1 1.3-10.7 2.5-15.6.2-.6.3-1.3.4-1.9.1-.4.2-.8.3-1.1.5-2 .9-3.8.9-5.8 0-5-5.4-11.5-11.1-11.5-4.2 0-6 3.2-6 4.2 0 1.2 1.4 1.7 2.6 1.9 3.3.8 4.8 1.1 4.8 5.8 0 1.7-.2 3.9-.5 6.9l-.3 2.7c-.5 3.9-1.1 8.3-1.1 12.6 0 8 2.2 13.1 6.9 15.8-11.3 5.7-18.8 15.4-18.8 24.4 0 7.9 6.9 19.7 25.9 19.7 6.7 0 20.5-2.1 20.5-8.8-.1-3-2.6-5.2-5.8-5.2zm-205.2 38.6h-9.3c-.3 0-.5.2-.5.5v16.5h-14.7v-16.5c0-.3-.2-.5-.5-.5h-9.3c-.3 0-.5.2-.5.5v43.1c0 .3.2.5.5.5h9.3c.3 0 .5-.2.5-.5v-18.3h14.7v18.3c0 .3.2.5.5.5h9.3c.3 0 .5-.2.5-.5v-43.1c0-.2-.2-.5-.5-.5zm30.4 45c-12.4 0-19.7-8.5-19.7-22.8s7.4-22.8 19.8-22.8 19.7 8.5 19.7 22.7c0 14.3-7.4 22.9-19.8 22.9zm.1-37.7c-5.7 0-8.9 5.3-8.9 14.9 0 9.6 3.1 14.9 8.9 14.9 5.6 0 8.8-5.4 8.8-14.9 0-9.6-3.2-14.9-8.8-14.9zm58.4.6v-7.3c0-.3-.2-.5-.5-.5h-34.3c-.3 0-.5.2-.5.5v7.3c0 .3.2.5.5.5h12v35.3c0 .3.2.5.5.5h9.3c.3 0 .5-.2.5-.5v-35.3h12.1c.2 0 .4-.2.4-.5zm39.8 35.8v-7.2c0-.3-.2-.5-.5-.5h-20.6v-10.8h15.1c.3 0 .5-.2.5-.5v-7.1c0-.3-.2-.5-.5-.5h-15.1v-8.7h20.1c.3 0 .5-.2.5-.5v-7.2c0-.3-.2-.5-.5-.5H268c-.3 0-.5.2-.5.5v43.1c0 .3.2.5.5.5h30.2c.3-.1.6-.3.6-.6zm39.9 0v-7.3c0-.3-.2-.5-.5-.5h-19.4v-35.3c0-.3-.2-.5-.5-.5H309c-.3 0-.5.2-.5.5v43.1c0 .3.2.5.5.5h29.2c.3 0 .5-.2.5-.5zm-175.1 25.8c0 7.2-5.1 11.4-14.1 11.4h-7.3v16.2c0 .3-.2.5-.5.5h-4.5c-.3 0-.5-.2-.5-.5V384c0-.3.2-.5.5-.5h12.7c11.3 0 13.7 6.1 13.7 11.1zm-14-6.4h-7.5v13.3h7.1c5.7 0 8.6-2.3 8.6-6.8.1-4.4-2.6-6.5-8.2-6.5zm51.3 33.8c.1.2.1.4 0 .5s-.3.2-.4.2h-5c-.2 0-.4-.1-.5-.3l-8.2-17.5h-8.4v17.3c0 .3-.2.5-.5.5h-4.4c-.3 0-.5-.2-.5-.5V384c0-.3.2-.5.5-.5h12.8c11.3 0 13.6 5.7 13.6 10.5 0 5-2.8 8.6-7.8 10l8.8 18zm-14.8-33.8h-7.7v12.2h7.4c5.7 0 8.5-2 8.5-6.3 0-2.8-.9-5.9-8.2-5.9zm57.1 14.9c0 12.4-6.4 20.4-16.3 20.4s-16.3-7.9-16.3-20.2c0-12.4 6.4-20.4 16.3-20.4 9.9-.1 16.3 7.9 16.3 20.2zm-16.3-15.5c-6.5 0-10.5 5.8-10.5 15.5s3.9 15.5 10.5 15.5c6.5 0 10.5-5.8 10.5-15.5s-3.9-15.5-10.5-15.5zm38.3-4.1h-4.5c-.3 0-.5.2-.5.5v28.2c0 4.1-2 6.6-5.4 6.6-.9 0-2 0-3.5-.3-.2 0-.3 0-.4.1-.1.1-.2.3-.2.4l.2 3.7c0 .3.2.5.5.5h.3c1.2.1 2.3.2 3.3.2 6.7 0 10.7-4 10.7-10.7V384c0-.3-.2-.5-.5-.5zm40.4 34.4h-19.4v-13.6h14.2c.3 0 .5-.2.5-.5V400c0-.3-.2-.5-.5-.5h-14.2v-11.2h19c.3 0 .5-.2.5-.5V384c0-.3-.2-.5-.5-.5h-24c-.3 0-.5.2-.5.5v38.2c0 .3.2.5.5.5h24.4c.3 0 .5-.2.5-.5v-3.8c.1-.3-.2-.5-.5-.5zm37.6-6.3l-4.3-1.5h-.4l-.3.3c-1.2 5.6-4.2 8.1-9.2 8.1-6.6 0-10.7-6-10.7-15.5 0-9.6 4.1-15.5 10.7-15.5 4.6 0 7.5 2.7 8.8 8 0 .1.1.3.2.3.1.1.3.1.4.1l4.5-1.2c.3-.1.4-.4.4-.6-1.8-7.2-7-11.3-14.3-11.3-9.9 0-16.5 8.2-16.5 20.4 0 12.3 6.5 20.2 16.5 20.2 7.5 0 12.4-3.8 14.5-11.2.2-.2 0-.5-.3-.6zm35.5-28.1h-28.4c-.3 0-.5.2-.5.5v3.8c0 .3.2.5.5.5h11.3v33.8c0 .3.2.5.5.5h4.6c.3 0 .5-.2.5-.5v-33.8h11.4c.3 0 .5-.2.5-.5V384c.2-.3-.1-.5-.4-.5zm-298 34.6l-1-1c-.3-.3-.8-.3-1.2 0l-1.2 1.1c-4.8-5-9.5-10.1-13.8-15.4l-1.2 1c4.4 5.3 9 10.5 13.9 15.5l-2.5 2.5c-5-5.1-9.7-10.3-14.1-15.7l-1.2 1c4.5 5.4 9.2 10.7 14.2 15.8l-1.1 1.1c-.2.2-.2.4-.2.6 0 .2.1.4.2.6l1.1 1.1c.2.2.4.2.6.2.2 0 .4-.1.6-.2l7-7c.3-.4.3-.9-.1-1.2zm107.1 62.1c-.5-.1-.9-.2-1.4-.4-.4-.1-.9.1-1 .6l-.4 1.5c-6.6-1.8-13.2-3.9-19.7-6.3l-.6 1.5c6.5 2.5 13.1 4.6 19.8 6.5l-.9 3.2c-6.8-1.8-13.5-4-20.1-6.4l-.6 1.5c6.6 2.5 13.4 4.7 20.2 6.6l-.4 1.4c-.1.4.1.9.6 1l1.5.4h.2c.4 0 .7-.2.8-.6l2.5-9.5c.2-.4-.1-.9-.5-1zm-88.2-44.7c0-.2-.1-.4-.3-.5l-1.1-.9c-.2-.1-.4-.2-.6-.2-.2 0-.4.1-.6.3l-1 1.3c-5.3-4.4-10.4-9-15.3-13.9l-1.1 1.1c5 4.9 10.1 9.5 15.4 14l-2.2 2.7c-5.4-4.5-10.6-9.2-15.6-14.2l-1.1 1.1c5.1 5 10.3 9.7 15.7 14.3l-1 1.2c-.3.3-.2.9.1 1.2l1.2 1c.2.1.3.2.5.2s.5-.1.6-.3l6.2-7.6c.2-.4.2-.6.2-.8zm.2-372.2c.2.2.4.3.6.3.2 0 .4-.1.5-.2l1.1-.9c.4-.3.4-.8.1-1.1l-.6-.7c5.4-4.3 11-8.3 16.8-12.1l-1.6-2.5c-5.9 3.8-11.6 7.9-17.1 12.2l-1.3-1.6c5.5-4.4 11.3-8.5 17.2-12.4l-1.6-2.5c-6 3.9-11.8 8.1-17.4 12.5l-.5-.6c-.1-.2-.3-.3-.5-.3s-.4 0-.6.2l-1.2 1c-.2.1-.3.3-.3.5s0 .4.2.6l6.2 7.6zm-58.7 50.3l8.2 5.4c.1.1.3.1.4.1h.2c.2 0 .4-.2.5-.4l.8-1.2c.2-.4.1-.9-.2-1.1l-.8-.5c3.9-5.7 8-11.2 12.3-16.6l-2.4-1.9c-4.4 5.4-8.5 11.1-12.4 16.8L46 113c3.9-5.8 8.2-11.5 12.6-17l-2.4-1.9c-4.5 5.6-8.7 11.3-12.7 17.2l-.7-.5c-.2-.1-.4-.2-.6-.1-.2 0-.4.2-.5.3-.3.4-.6.9-.9 1.3-.1.2-.2.4-.1.6.1.4.3.5.4.7zM64 399.5c-.3-.4-.6-.7-.9-1.1-.3-.3-.8-.4-1.1-.1l-1.3 1c-4.3-5.4-8.4-11-12.2-16.8l-1.3.9c3.8 5.8 7.9 11.4 12.2 16.9l-2.8 2.2c-4.4-5.5-8.6-11.3-12.4-17.1l-1.3.9c3.9 5.9 8.1 11.6 12.5 17.2l-1.2 1c-.2.1-.3.3-.3.5s0 .4.2.6l1 1.2c.1.2.3.3.6.3h.1c.2 0 .4-.1.5-.2l7.6-6.2c.3-.4.4-.9.1-1.2zm.2-300.8c.2.1.3.2.5.2s.5-.1.6-.3l.9-1.1c.3-.3.2-.9-.1-1.2l-.7-.6c4.4-5.3 9.1-10.4 14-15.3l-2.2-2.2c-4.9 5-9.6 10.1-14.1 15.5l-1.5-1.3c4.5-5.4 9.3-10.6 14.3-15.6l-2.2-2.2c-5 5.1-9.8 10.3-14.4 15.8l-.7-.4c-.3-.3-.9-.2-1.2.1-.3.4-.7.8-1 1.2-.1.2-.2.4-.2.6 0 .2.1.4.3.6l7.7 6.2zm77.4 364c-.1-.2-.2-.4-.4-.5l-1.3-.7c-.4-.2-.9 0-1.1.3l-.8 1.5c-6.1-3.2-12-6.7-17.9-10.4l-.8 1.3c5.9 3.7 11.8 7.2 18 10.5l-1.6 3.1c-6.2-3.3-12.3-6.8-18.2-10.6l-.8 1.3c6 3.8 12.1 7.4 18.4 10.7l-.7 1.3c-.1.2-.1.4-.1.6.1.2.2.4.4.5l1.4.7c.1.1.2.1.4.1h.3c.2-.1.4-.2.5-.4l4.5-8.8c-.2 0-.2-.3-.2-.5zm22.4 9.8l-1.3-.5c-.4-.2-.9 0-1.1.5l-.6 1.5c-.2-.1-.3-.1-.5-.2-6.3-2.5-12.4-5.3-18.4-8.3l-.7 1.4c6 3 12.1 5.8 18.4 8.3.2.1.4.2.6.2l-1.3 3.3c-.1-.1-.3-.1-.4-.2-6.4-2.5-12.7-5.4-18.8-8.5l-.7 1.4c6.1 3.1 12.4 5.9 18.7 8.4.2.1.4.2.7.3l-.6 1.4c-.1.2-.1.4 0 .6s.2.4.4.4c.5.2 1 .4 1.4.6.1 0 .2.1.3.1.3 0 .6-.2.8-.5l3.5-9.2c.2-.4 0-.9-.4-1zM165 26c.1.3.4.5.8.5.1 0 .2 0 .3-.1l1.4-.5c.4-.2.6-.6.5-1l-.4-1c6.5-2.4 13.1-4.5 19.8-6.3l-.7-2.7c-6.8 1.8-13.5 3.9-20.1 6.3l-.8-2.1c6.6-2.4 13.4-4.6 20.2-6.4l-.7-2.7c-6.9 1.8-13.8 4-20.5 6.4l-.3-.8c-.1-.2-.2-.4-.4-.5-.2-.1-.4-.1-.6 0l-1.5.5c-.2.1-.4.2-.5.4-.1.2-.1.4 0 .6L165 26zm-45.5 423.7l-1.2-.8c-.4-.2-.9-.1-1.1.2l-.9 1.4c-5.7-3.8-11.3-7.9-16.7-12.2l-1 1.2c5.4 4.3 11 8.4 16.8 12.3l-1.9 2.9c-5.8-3.9-11.5-8-17-12.5l-1 1.2c5.6 4.4 11.3 8.6 17.1 12.5l-.9 1.3c-.1.2-.2.4-.1.6 0 .2.2.4.4.5l1.3.8c.1.1.3.1.4.1h.2c.2 0 .4-.2.5-.4l5.4-8.3c.2-.1.1-.6-.3-.8zM142 36.2c.1.3.4.5.7.5.1 0 .2 0 .4-.1l1.3-.6c.2-.1.3-.3.4-.5.1-.2.1-.4 0-.6l-.4-.9c4.4-2.2 8.9-4.2 13.4-6.1 1.9-.8 3.7-1.5 5.6-2.2l-1-2.6c-1.9.7-3.8 1.5-5.7 2.3-4.6 1.9-9.1 4-13.6 6.1l-1-2c4.5-2.2 9.1-4.3 13.7-6.2 1.9-.8 3.8-1.6 5.7-2.3l-1-2.6c-1.9.7-3.9 1.5-5.8 2.3-4.7 1.9-9.3 4-13.9 6.3l-.4-.8c-.2-.4-.7-.6-1.1-.4l-1.4.7c-.2.1-.3.3-.4.5-.1.2-.1.4 0 .6l4.5 8.6zm-92.7 343l-.8-1.2c-.2-.4-.7-.5-1.1-.3l-1.4.9c-3.7-5.8-7.2-11.8-10.4-18l-1.4.7c3.2 6.2 6.7 12.2 10.4 18.1l-3 1.9c-3.8-6-7.3-12.1-10.6-18.3l-1.4.7c3.3 6.3 6.8 12.4 10.6 18.5l-1.3.8c-.4.2-.5.8-.2 1.1l.8 1.3c.1.2.3.3.5.4h.2c.2 0 .3 0 .4-.1l8.3-5.4c.6-.2.7-.7.4-1.1zm70.9-330.6c.2.2.4.4.7.4.2 0 .3 0 .4-.1l1.2-.8c.4-.2.5-.7.3-1.1l-.5-.8c5.9-3.7 11.9-7.1 18-10.3l-1.3-2.6c-6.2 3.2-12.3 6.7-18.3 10.4l-1.1-1.8c6-3.8 12.1-7.3 18.4-10.5l-1.3-2.6c-6.4 3.3-12.6 6.8-18.7 10.6l-.4-.7c-.1-.2-.3-.3-.5-.4-.2 0-.4 0-.6.1l-1.3.8c-.2.1-.3.3-.4.5 0 .2 0 .4.1.6l5.3 8.3zM81.1 80.1c.2.2.4.2.6.2.2 0 .4-.1.6-.2l1-1c.3-.3.3-.8 0-1.2l-.6-.6c4.9-4.8 10.1-9.4 15.4-13.8l-1.9-2.4c-5.4 4.4-10.6 9.1-15.7 13.9l-1.4-1.4c5.1-4.9 10.3-9.6 15.8-14.1L93 57.2c-5.5 4.5-10.9 9.3-16 14.2l-.6-.6c-.3-.3-.8-.3-1.2 0l-1.1 1.1c-.2.2-.2.4-.2.6 0 .2.1.4.2.6l7 7zM9.2 184.9l9.5 2.6h.2c.1 0 .3 0 .4-.1.2-.1.3-.3.4-.5l.4-1.4c.1-.4-.1-.9-.6-1l-1-.3c1.9-6.6 4.1-13.2 6.5-19.7l-2.6-1c-2.5 6.5-4.6 13.2-6.5 19.9l-2.2-.6c1.9-6.8 4.1-13.5 6.7-20.1l-2.6-1c-2.5 6.7-4.7 13.5-6.7 20.3l-.9-.2c-.2-.1-.4 0-.6.1-.2.1-.3.3-.4.5l-.4 1.5c-.3.4-.1.9.4 1zm442.1-62.5l.8 1.2c.2.2.4.4.7.4.1 0 .3 0 .4-.1l1.4-.9c3.7 5.9 7.1 12 10.2 18.2l1.4-.7c-3.2-6.2-6.6-12.4-10.3-18.3l3-1.9c3.8 6.1 7.3 12.3 10.5 18.6l1.4-.7c-3.2-6.4-6.7-12.6-10.5-18.7l1.3-.8c.2-.1.3-.3.4-.5 0-.2 0-.4-.1-.6l-.8-1.3c-.1-.2-.3-.3-.5-.4-.2 0-.4 0-.6.1l-8.3 5.3c-.5.2-.6.7-.4 1.1zM17.3 160l9.2 3.6c.1 0 .2.1.3.1.3 0 .6-.2.8-.5l.5-1.3c.1-.2.1-.4 0-.6-.1-.2-.2-.4-.4-.4l-1-.4c.3-.8.6-1.6 1-2.5 2.3-5.6 4.8-11 7.6-16.4l-2.6-1.3c-2.7 5.4-5.3 11-7.6 16.6-.3.8-.7 1.7-1 2.5l-2.1-.8c.3-.8.7-1.7 1-2.5 2.4-5.7 4.9-11.3 7.7-16.7l-2.6-1.3c-2.8 5.5-5.4 11.2-7.8 17-.4.9-.7 1.7-1 2.6l-.8-.3c-.4-.2-.9 0-1.1.5l-.6 1.4c-.1.2-.1.4 0 .6.1-.1.3 0 .5.1zm446.3-15.8l.6 1.3c.1.3.4.5.7.5.1 0 .2 0 .4-.1l1.5-.7c2.6 5.4 5 10.9 7.2 16.4.4.9.7 1.9 1 2.8l1.5-.6c-.4-1-.8-2.1-1.2-3.1-2.2-5.5-4.5-10.9-7.1-16.2l3.2-1.5c2.7 5.5 5.1 11.1 7.4 16.8.4.9.7 1.9 1.1 2.8l1.5-.6c-.4-1.1-.8-2.1-1.2-3.2-2.2-5.6-4.6-11.1-7.3-16.5l1.4-.7c.4-.2.6-.7.4-1.1l-.7-1.4c-.1-.2-.3-.3-.5-.4-.2-.1-.4-.1-.6 0l-8.8 4.4c-.6.2-.7.7-.5 1.1zm22.1 71.5l.2 1.4c0 .2.1.4.3.5.1.1.3.2.5.2h.1l1.4-.2c.9 6.9 1.5 13.9 1.8 20.8l2.3-.1c-.4-7-1-14-2-21l3-.4c.9 7.1 1.5 14.1 1.8 21.3l2.3-.1c-.4-7.2-1.1-14.3-2-21.4l1.3-.2c.2 0 .4-.1.5-.3.1-.2.2-.4.2-.6l-.2-1.5c0-.2-.1-.4-.3-.5-.2-.1-.4-.2-.6-.2l-9.7 1.4c-.6 0-.9.5-.9.9zm-4.8-24.6l.4 1.4c.1.2.2.4.4.5.1.1.3.1.4.1h.2l1.5-.4c1.6 6.8 2.9 13.6 3.9 20.5l2-.3c-1.1-6.9-2.5-13.8-4.2-20.7l3.1-.8c1.6 6.9 3 13.9 4 21l2-.3c-1.1-7.1-2.5-14.1-4.2-21.1l1.3-.3c.4-.1.7-.6.6-1-.1-.5-.2-1-.4-1.5-.1-.2-.2-.4-.4-.5-.2-.1-.4-.1-.6-.1l-9.5 2.4c-.4.3-.6.7-.5 1.1zm-7.4-23.9l.5 1.4c.1.3.4.5.8.5h.3l1.6-.6c2.3 6.6 4.4 13.2 6.1 20l1.8-.5c-1.8-6.8-3.9-13.5-6.3-20.1l3.2-1.2c2.4 6.7 4.5 13.5 6.2 20.4l1.8-.5c-1.8-6.9-4-13.8-6.5-20.5l1.4-.5c.4-.2.6-.6.5-1l-.5-1.5c-.2-.4-.6-.6-1.1-.5l-9.2 3.4c-.6.3-.8.8-.6 1.2zm-446.8 168c.1-.2.1-.4 0-.6-.2-.5-.3-.9-.5-1.4-.1-.2-.2-.4-.4-.5-.2-.1-.4-.1-.6 0l-1.6.6c-2.4-6.5-4.4-13.1-6.2-19.8l-1.8.5c1.9 6.7 4 13.3 6.4 19.9l-3.2 1.2c-2.4-6.6-4.5-13.4-6.3-20.2l-1.8.5c1.9 6.9 4.1 13.6 6.6 20.3l-1.4.5c-.2.1-.4.2-.5.4-.1.2-.1.4 0 .6.2.5.4 1 .5 1.5.1.2.2.4.4.5.1 0 .2.1.3.1.1 0 .2 0 .3-.1l9.2-3.5c.4-.1.6-.3.6-.5zM19 311.4c.1-.2.1-.4.1-.6l-.4-1.4c-.1-.4-.6-.7-1-.6l-1.5.4c-1.7-6.7-3-13.5-4.1-20.3l-2 .3c1.1 6.9 2.6 13.7 4.3 20.4l-3.1.8c-1.7-6.9-3.1-13.8-4.2-20.8l-2 .3c1.2 7 2.7 14 4.4 20.9l-1.3.3c-.2.1-.4.2-.5.4-.1.2-.1.4-.1.6l.4 1.5c.1.2.2.4.4.5.1.1.3.1.4.1H9l9.5-2.5c.3 0 .4-.2.5-.3zm9-175.2l8.8 4.5c.1.1.2.1.4.1.3 0 .6-.2.7-.4l.7-1.3c.2-.4.1-.9-.3-1.1l-.9-.5c3.2-6.1 6.8-12 10.5-17.8l-2.5-1.6c-3.8 5.9-7.3 11.9-10.6 18.1l-1.9-1c3.3-6.2 6.9-12.3 10.7-18.2l-2.5-1.6c-3.9 6-7.5 12.2-10.8 18.5l-.8-.4c-.2-.1-.4-.1-.6-.1-.2.1-.4.2-.5.4-.2.5-.5.9-.7 1.4-.1.2-.1.4-.1.6.1.1.2.3.4.4zm8.9 221.3l-.7-1.3c-.2-.4-.7-.6-1.1-.4l-1.5.7c-3-6-5.7-12.1-8.2-18.4-.1-.2-.1-.4-.2-.6l-1.5.6.3.9c2.4 6.2 5.2 12.3 8.1 18.2l-3.1 1.6c-3-6.2-5.8-12.4-8.4-18.8-.1-.2-.1-.4-.2-.6l-1.4.6c.1.3.2.6.4.9 2.5 6.3 5.3 12.5 8.3 18.6l-1.4.7c-.4.2-.6.7-.4 1.1l.7 1.4c.1.3.4.4.7.4.1 0 .3 0 .4-.1l8.8-4.5c.4-.1.6-.6.4-1zM1 236.5l9.8.5c.4 0 .8-.3.8-.8l.1-1.4c0-.2-.1-.4-.2-.6-.1-.2-.3-.3-.6-.3l-1.1-.1c.5-6.9 1.2-13.8 2.3-20.6l-2.6-.4c-1 6.9-1.8 13.9-2.2 20.8l-2.5-.2c.5-7 1.3-14.1 2.3-21l-2.6-.4c-1.1 7.1-1.8 14.1-2.2 21.3l-1.1-.1c-.5 0-.8.3-.9.8 0 .5-.1 1-.1 1.5 0 .2.1.4.2.6.1.3.3.4.6.4zm2.7-26l9.7 1.6h.1c.2 0 .3-.1.5-.2s.3-.3.3-.5l.2-1.4c.1-.4-.2-.9-.7-.9l-1.1-.2c.3-2 .7-3.9 1.1-5.8 1-4.8 2.1-9.6 3.3-14.4l-2.7-.7c-1.8 6.8-3.2 13.6-4.4 20.5l-2.1-.5c.3-2 .7-4 1.1-6 1-4.9 2.1-9.8 3.4-14.7l-2.7-.7c-1.8 6.9-3.3 13.9-4.5 20.9l-1-.2c-.4-.1-.9.2-.9.7l-.3 1.5c0 .2 0 .4.1.6.2.2.4.3.6.4zm10.2 76.3c.1-.2.2-.4.1-.6l-.2-1.4c-.1-.4-.5-.7-.9-.7l-1.4.2c-.9-6.8-1.6-13.7-2-20.6l-2.3.1c.4 7 1.1 13.9 2.2 20.8l-3 .4c-1-7-1.6-14-2-21.1l-2.3.1c.4 7.1 1.2 14.2 2.2 21.2l-1.3.2c-.2 0-.4.1-.5.3-.1.2-.2.4-.2.6l.2 1.5c.1.4.4.7.8.7h.1l9.7-1.5c.5.1.7 0 .8-.2zm-2.4-25.5l-.1-1.5c0-.5-.4-.8-.9-.8l-1.3.1c-.1-3.1-.2-6.2-.1-9.2 0-3.8.1-7.7.3-11.5l-2.4-.1c-.2 3.9-.2 7.7-.2 11.6 0 3.1.1 6.2.2 9.3l-2.8.1c-.1-3.1-.2-6.3-.2-9.4 0-3.9.1-7.8.3-11.7L2 238c-.2 3.9-.2 7.9-.2 11.8 0 3.2.1 6.4.2 9.5H.8c-.5 0-.8.4-.8.9l.1 1.5c0 .4.4.8.8.8l9.8-.5c.5.1.9-.3.8-.7zM266 12c.2 0 .4-.1.5-.2.2-.1.3-.3.3-.6l.1-1.3c6.9.5 13.8 1.2 20.7 2.3l.3-2c-7-1.2-13.9-2-20.9-2.5l.2-2.8c7.1.5 14.1 1.2 21.1 2.3l.3-2c-7.1-1.1-14.2-2-21.3-2.5l.1-1.2c0-.2-.1-.4-.2-.6-.1-.2-.3-.3-.6-.3l-1.5-.1c-.4 0-.8.3-.9.8l-.6 9.8c0 .2.1.4.2.6.1.2.3.3.6.3h1.6c-.1 0-.1 0 0 0zm167.8 390.7c-.2-.1-.4-.2-.6-.2-.2 0-.4.1-.6.3l-.9 1.1c-.1.2-.2.4-.2.6 0 .2.1.4.3.6l.7.6c-3.5 4.1-7.1 8-10.9 11.9l2.2 2.2c3.8-3.9 7.4-7.9 11-12l1.5 1.3c-3.6 4.2-7.3 8.2-11.1 12.1l2.2 2.2c3.9-4 7.6-8.1 11.2-12.3l.6.5c.2.1.3.2.5.2s.5-.1.6-.3l1-1.2c.3-.3.2-.9-.1-1.2l-7.4-6.4zm15.1-20.1c-.4-.2-.9-.1-1.1.2l-.8 1.2c-.3.4-.2.9.2 1.1l.8.5c-3.9 5.7-8.1 11.3-12.6 16.6l2.4 1.9c4.5-5.4 8.7-11.1 12.7-16.9l1.7 1.2c-4 5.8-8.3 11.5-12.8 17l2.4 1.9c4.6-5.6 8.9-11.3 12.9-17.2l.7.5c.1.1.3.1.5.1.3 0 .5-.1.7-.4l.9-1.3c.1-.2.2-.4.1-.6 0-.2-.2-.4-.3-.5l-8.4-5.3zM420 82.6c0 .2.1.4.2.6l1 1c.2.2.4.2.6.2.2 0 .4-.1.6-.2l1.2-1.1c4.8 5 9.4 10.3 13.8 15.6l1.2-1c-4.4-5.4-9-10.7-13.9-15.7l2.5-2.4c4.9 5.2 9.6 10.5 14.1 16l1.2-1c-4.5-5.5-9.2-10.9-14.2-16.1l1.1-1.1c.2-.2.2-.4.3-.6 0-.2-.1-.4-.2-.6l-1.1-1.1c-.2-.2-.4-.2-.6-.2-.2 0-.4.1-.6.2l-7 6.9c-.1.2-.2.4-.2.6zm16.8 19.4l.9 1.1c.2.2.4.3.6.3.2 0 .4-.1.5-.2l1.3-1c4.3 5.5 8.3 11.2 12.1 17l1.3-.8c-3.8-5.9-7.9-11.6-12.2-17.1l2.8-2.2c4.4 5.6 8.5 11.4 12.4 17.4l1.3-.8c-3.9-6-8-11.8-12.4-17.5l1.2-1c.2-.1.3-.3.3-.5s0-.4-.2-.6l-.9-1.2c-.1-.2-.3-.3-.5-.3s-.4 0-.6.2l-7.7 6.1c-.4.2-.5.7-.2 1.1zm-35.5 333c-.3-.3-.8-.4-1.1-.1l-1.1.9c-.2.1-.3.3-.3.5s0 .4.2.6l.5.7c-5.3 4.3-10.9 8.4-16.5 12.2l1.7 2.5c5.8-3.9 11.4-8 16.8-12.3l1.3 1.6c-5.5 4.4-11.1 8.5-16.9 12.5l1.7 2.5c5.9-3.9 11.6-8.1 17.2-12.6l.5.7c.2.2.4.3.6.3.2 0 .4-.1.5-.2l1.2-1c.3-.3.4-.8.1-1.2l-6.4-7.6zm18.6-16.9c-.3-.3-.8-.3-1.2 0l-1 1c-.3.3-.3.8 0 1.2l.6.6c-4.9 4.8-9.9 9.4-15.2 13.8l2 2.4c5.3-4.4 10.5-9.1 15.4-13.9l1.4 1.4c-5 4.9-10.1 9.6-15.5 14.1l2 2.4c5.4-4.5 10.7-9.3 15.7-14.2l.6.6c.2.2.4.2.6.2.2 0 .4-.1.6-.2l1.1-1.1c.2-.2.2-.4.2-.6 0-.2-.1-.4-.2-.6l-7.1-7.1zm-18.2-353c-.3.3-.2.9.1 1.1l1.1.9c.2.1.3.2.5.2s.5-.1.6-.3l1-1.2c5.1 4.3 10.1 8.9 14.9 13.7l.4.4 1.1-1.1-.4-.4c-4.8-4.8-9.9-9.4-15-13.8l2.3-2.7c5.2 4.4 10.3 9.1 15.2 14l.4.4 1.1-1.1-.4-.4c-4.9-4.9-10.1-9.6-15.3-14.1l1-1.2c.1-.2.2-.4.2-.6 0-.2-.1-.4-.3-.6l-1.2-1c-.2-.1-.4-.2-.6-.2-.2 0-.4.1-.6.3l-6.1 7.7zm68.7 300.5l-8.7-4.6c-.4-.2-.9-.1-1.1.3l-.7 1.3c-.2.4-.1.9.3 1.1l.9.5c-3.3 6.1-6.9 12.1-10.8 17.9l2.5 1.6c3.9-5.9 7.5-11.9 10.9-18.1l1.9 1c-3.4 6.2-7.1 12.3-11 18.2l2.5 1.6c4-6 7.7-12.2 11.1-18.5l.7.4c.1.1.3.1.4.1h.2c.2-.1.4-.2.5-.4l.7-1.4c.2-.3.1-.8-.3-1zM381.8 51.3l1.2.8c.1.1.3.1.5.1.3 0 .5-.1.7-.4l.9-1.4c5.7 3.9 11.3 8 16.7 12.4l1-1.2c-5.4-4.4-11.1-8.6-16.8-12.5l2-2.9c5.8 4 11.5 8.2 17.1 12.7l1-1.2c-5.6-4.5-11.3-8.8-17.2-12.8l.9-1.3c.1-.2.2-.4.1-.6 0-.2-.2-.4-.3-.5l-1.3-.9c-.4-.2-.9-.1-1.1.2l-5.4 8.2c-.5.5-.4 1 0 1.3zm116.6 214.3l-9.8-.6c-.4 0-.8.3-.9.8l-.1 1.4c0 .4.3.8.8.9l1.1.1c-.5 6.9-1.4 13.9-2.5 20.7l2.6.4c1.1-6.9 1.9-13.9 2.4-21l2.5.2c-.6 7.1-1.4 14.1-2.6 21.2l2.6.4c1.1-7.1 2-14.2 2.5-21.4l1 .1h.1c.2 0 .4-.1.5-.2.2-.1.3-.3.3-.6 0-.5.1-1 .1-1.5.1-.5-.2-.9-.6-.9zm1.1-25.4c0-.2-.1-.4-.3-.6-.2-.1-.4-.2-.6-.2l-9.8.4c-.4 0-.8.4-.8.8l.1 1.5c0 .4.4.8.8.8h1.2c.1 2.3.1 4.7.1 7 0 4.6-.2 9.2-.5 13.8l2.5.1c.2-4.7.4-9.3.3-14 0-2.4-.1-4.7-.1-7.1l2.7-.1c.1 2.4.1 4.8.1 7.2 0 4.7-.2 9.4-.5 14.1l2.5.1c.3-4.8.4-9.5.4-14.3 0-2.4-.1-4.8-.2-7.3h1.2c.2 0 .4-.1.6-.3.1-.2.2-.4.2-.6.1-.3.1-.8.1-1.3zm-4.1 51.3l-9.7-1.7c-.4-.1-.9.2-.9.7l-.3 1.4c-.1.4.2.9.7.9l1.1.2c-.2 1.2-.4 2.4-.7 3.7-1.1 5.6-2.4 11.2-3.9 16.7l2.7.7c1.8-6.8 3.4-13.7 4.6-20.6l2.4.4c-.2 1.3-.4 2.5-.7 3.8-1.1 5.7-2.5 11.4-4 17l2.7.7c1.9-6.9 3.4-14 4.7-21l1 .2h.1c.2 0 .3-.1.5-.1.2-.1.3-.3.3-.5l.3-1.5c0-.2 0-.4-.1-.6l-.8-.4zm-5.7 25.6l-9.5-2.7c-.4-.1-.9.1-1 .6-.1.5-.3.9-.4 1.4-.1.4.1.9.6 1l1 .3c-2 6.7-4.2 13.3-6.7 19.7l2.6 1c2.6-6.6 4.8-13.2 6.8-20l2.2.6c-2 6.8-4.3 13.6-6.9 20.2l2.6 1c2.6-6.7 4.9-13.5 6.9-20.4l.9.3h.2c.1 0 .3 0 .4-.1.2-.1.3-.3.4-.5l.4-1.5c.1-.2 0-.4-.1-.6-.1-.1-.2-.3-.4-.3zm-8.4 24.8l-9.1-3.7c-.4-.2-.9 0-1.1.5l-.5 1.3c-.1.2-.1.4 0 .6.1.2.2.4.4.4l1 .4c-.1.1-.1.3-.2.4-2.6 6.3-5.5 12.5-8.7 18.5l2.6 1.3c3.2-6.1 6.1-12.4 8.7-18.7.1-.1.1-.3.2-.4l2.1.8c-.1.1-.1.3-.2.4-2.7 6.4-5.6 12.7-8.9 18.9l2.6 1.3c3.2-6.2 6.2-12.6 8.9-19.1.1-.1.1-.3.2-.4l.8.3c.1 0 .2.1.3.1.1 0 .2 0 .3-.1.2-.1.4-.2.4-.4l.6-1.4c.1-.2.1-.4 0-.6 0-.2-.2-.4-.4-.4zM214.3 14h.1l1.4-.2c.4-.1.8-.5.7-.9l-.2-1.1c6.9-1 13.8-1.6 20.7-2V7.2c-7 .3-14 1-20.9 1.9l-.3-2.4c7-1 14.1-1.7 21.1-2.1l-.1-2.5c-7.1.3-14.3 1-21.4 2l-.1-1c-.1-.4-.5-.8-.9-.7-.5.1-1 .1-1.5.2-.2 0-.4.1-.5.3-.1.2-.2.4-.2.6l1.5 9.7c-.1.5.3.8.6.8zm75 .7l1.4.2h.1c.4 0 .7-.3.8-.7l.2-1.4c6.8 1.2 13.6 2.6 20.4 4.4l.5-1.8c-6.8-1.8-13.6-3.4-20.5-4.6l.5-3c7 1.2 13.9 2.7 20.8 4.5l.5-1.8c-6.9-1.9-13.9-3.4-20.9-4.7l.2-1.3c0-.2 0-.4-.1-.6-.1-.2-.3-.3-.5-.3l-1.5-.3c-.2 0-.4 0-.6.1-.2.1-.3.3-.3.5l-1.6 9.7c-.1.6.2 1 .6 1.1zm-2.1 470.7l-1.4.2c-.2 0-.4.1-.5.3-.1.2-.2.4-.1.6l.2 1.1c-6.8 1-13.6 1.7-20.5 2.2l.2 2.6c6.9-.4 13.9-1.1 20.7-2.1l.4 2.4c-6.9 1-13.9 1.8-20.9 2.2l.2 2.6c7.1-.4 14.2-1.1 21.2-2.1l.1 1c.1.4.4.7.8.7h.1l1.5-.2c.2 0 .4-.2.5-.3.1-.2.2-.4.1-.6l-1.5-9.7c-.3-.7-.7-1-1.1-.9zM239.4 11.6l1.4-.1c.2 0 .4-.1.6-.3.1-.2.2-.4.2-.6V9.4c2.7-.1 5.4-.2 8.1-.2 4.2 0 8.4.1 12.7.3l.1-2.3c-4.2-.1-8.5-.2-12.8-.2-2.7 0-5.5 0-8.2.1l-.1-2.6c2.8-.1 5.5-.2 8.3-.2 4.3 0 8.6.1 12.9.3l.1-2.3c-4.3-.2-8.7-.4-13.1-.4-2.8 0-5.6 0-8.4.1V.9c0-.2-.1-.4-.3-.6-.2-.1-.4-.2-.6-.2-.5 0-1 0-1.5.1-.2 0-.4.1-.6.3-.1.2-.2.4-.2.6l.4 9.8c0 .2.1.4.3.6.3.1.5.1.7.1zm141.7 438.3c-.1-.2-.3-.3-.5-.4-.2 0-.4 0-.6.1l-1.2.8c-.4.2-.5.8-.2 1.1l.5.8c-5.8 3.7-11.7 7.2-17.8 10.4l1.4 2.6c6.2-3.2 12.2-6.7 18-10.5l1.1 1.8c-5.9 3.8-12 7.3-18.2 10.6l1.4 2.6c6.3-3.3 12.4-6.9 18.4-10.7l.5.7c.1.2.3.3.5.4h.2c.2 0 .3 0 .4-.1l1.3-.8c.4-.2.5-.8.2-1.1l-5.4-8.3zM237.2 488l-1.4-.1c-.4 0-.8.3-.9.8l-.1 1.3c-6.9-.4-13.7-1.1-20.5-2l-.3 2c6.9 1 13.8 1.8 20.7 2.2l-.2 2.8c-7-.4-14-1.1-21-2.1l-.3 2.1c7 1.1 14.1 1.8 21.2 2.3l-.1 1.2c0 .2.1.4.2.6.1.2.3.3.6.3l1.5.1c.4 0 .8-.3.8-.8l.5-9.8c0-.2-.1-.4-.2-.6-.1-.2-.3-.3-.5-.3zm-24.9-2.6l-1.4-.2c-.4-.1-.9.2-.9.7l-.2 1.4c-6.8-1.1-13.5-2.5-20.2-4.2l-.5 1.8c6.7 1.8 13.5 3.2 20.4 4.4l-.5 3c-6.9-1.1-13.8-2.6-20.7-4.3l-.5 1.8c6.9 1.8 13.8 3.3 20.8 4.5l-.2 1.3c-.1.4.2.9.7.9l1.5.2h.1c.2 0 .3-.1.5-.2s.3-.3.3-.5l1.5-9.7c0-.4-.3-.8-.7-.9zm-23.4-467c.1.2.2.4.4.5.1.1.3.1.4.1h.2l1.4-.4c.4-.1.7-.6.6-1l-.3-1.1c3.7-.9 7.4-1.8 11.2-2.5 3.1-.6 6.1-1.1 9.2-1.6l-.4-2.7c-6.9 1.1-13.8 2.4-20.6 4.1l-.6-2.3c3.8-.9 7.6-1.8 11.4-2.5 3.1-.6 6.3-1.2 9.4-1.7l-.4-2.7c-7.1 1.1-14.1 2.5-21.1 4.2l-.2-.9c-.1-.2-.2-.4-.4-.5-.2-.1-.4-.1-.6-.1l-1.5.6c-.4.1-.7.6-.6 1l2.5 9.5zM262.2 488l-1.4.1c-.4 0-.8.4-.8.9l.1 1.2c-3.4.2-6.9.3-10.3.3-3.4 0-6.9 0-10.3-.2l-.1 2.3c3.5.2 6.9.3 10.4.3s7 0 10.5-.2l.1 2.6c-3.5.2-7 .3-10.6.3-3.5 0-7-.1-10.5-.2l-.1 2.3c3.5.2 7.1.3 10.6.3 3.6 0 7.1 0 10.7-.2v1.1c0 .4.4.8.8.8l1.5-.1c.2 0 .4-.1.6-.3.1-.2.2-.4.2-.6l-.5-9.8c0-.6-.4-.9-.9-.9zm97.2-25.4c-.2-.4-.7-.6-1.1-.4-.4.2-.9.4-1.3.7-.4.2-.6.7-.4 1.1l.5.9c-5 2.5-10.2 4.9-15.4 7.1-1.1.5-2.3.9-3.4 1.4l1 2.6c1.1-.5 2.3-.9 3.4-1.4 5.3-2.2 10.5-4.6 15.6-7.1l1 2c-5.2 2.6-10.4 5-15.7 7.2-1.1.5-2.3.9-3.5 1.4l1 2.6c1.2-.5 2.3-.9 3.5-1.4 5.4-2.2 10.7-4.7 16-7.3l.4.7c.1.3.4.5.7.5.1 0 .2 0 .4-.1l1.4-.7c.2-.1.3-.3.4-.5.1-.2 0-.4-.1-.6l-4.4-8.7zM337 27c-.2.4 0 .9.5 1.1l1.3.5c.1 0 .2.1.3.1.3 0 .6-.2.8-.5l.6-1.6c6.4 2.6 12.8 5.5 18.9 8.7l.7-1.4c-6.2-3.2-12.6-6.1-19.1-8.7l1.3-3.3c6.6 2.7 13 5.6 19.4 8.9l.7-1.4c-6.4-3.3-12.9-6.2-19.5-8.9l.6-1.4c.1-.2.1-.4 0-.6-.1-.2-.2-.4-.4-.4l-1.4-.6c-.4-.2-.9 0-1.1.5l-3.6 9zm23.2 11.5c.4.2.9.4 1.3.7.1.1.3.1.4.1.3 0 .6-.2.7-.4l.8-1.5c6.1 3.3 12.1 6.8 17.9 10.6l.9-1.3c-5.9-3.8-11.9-7.4-18-10.7l1.7-3.1c6.2 3.3 12.4 7 18.3 10.9l.9-1.3c-6-3.9-12.1-7.6-18.4-10.9l.7-1.4c.1-.2.1-.4.1-.6-.1-.2-.2-.4-.4-.5l-1.4-.7c-.4-.2-.9-.1-1.1.3l-4.6 8.7c-.3.4-.2.9.2 1.1zm-23.7 434.4c-.2-.4-.6-.6-1.1-.5l-1.4.5c-.4.2-.6.6-.5 1.1l.4 1c-6.4 2.4-13 4.6-19.6 6.4l.7 2.7c6.7-1.8 13.3-4 19.8-6.4l.8 2.1c-6.6 2.5-13.2 4.7-20 6.5l.7 2.7c6.8-1.9 13.6-4.1 20.3-6.6l.3.8c.1.2.2.4.4.5.1 0 .2.1.3.1.1 0 .2 0 .3-.1l1.4-.5c.4-.2.6-.6.5-1.1l-3.3-9.2zM313.3 19.7c.1.2.3.3.5.4l1.4.4h.2c.4 0 .7-.2.8-.6l.4-1.5c6.7 1.9 13.3 4.1 19.8 6.5l.6-1.5c-6.5-2.5-13.1-4.8-19.9-6.8l.9-3.2c6.8 1.9 13.6 4.2 20.2 6.7l.6-1.5c-6.7-2.6-13.4-4.9-20.3-6.9l.4-1.4c.1-.4-.1-.9-.6-1-.5-.1-1-.3-1.5-.4-.4-.1-.9.1-1 .6l-2.6 9.5c-.1.3 0 .6.1.7zm-.7 461.1c-.1-.4-.6-.7-1-.6l-1.4.4c-.2.1-.4.2-.5.4s-.1.4-.1.6l.3 1c-4.4 1.1-8.8 2.2-13.3 3.1-2.3.4-4.6.9-6.9 1.2l.4 2.7c6.9-1.1 13.7-2.6 20.4-4.3l.6 2.3c-4.5 1.2-9 2.2-13.6 3.1-2.3.5-4.7.9-7 1.3l.4 2.7c7-1.2 14-2.6 20.8-4.4l.2.9c.1.2.2.4.4.5.1.1.3.1.4.1h.2c.5-.1 1-.3 1.5-.4.2-.1.4-.2.5-.4.1-.2.1-.4.1-.6l-2.4-9.6z"/></svg>