<?xml version="1.0" encoding="UTF-8"?><svg id="Layer_2" xmlns="http://www.w3.org/2000/svg" viewBox="0 0 12.41 10.58"><defs><style>.cls-1{fill:#fff;stroke-width:0px;}</style></defs><g id="text"><g id="TCAfHj"><path class="cls-1" d="m0,6.15c.35,0,.7.02,1.05,0,.47-.03.62.17.6.62-.03.53,0,1.07-.01,1.61-.01.34.1.48.46.48,2.73,0,5.46,0,8.19,0,.36,0,.46-.16.45-.49-.01-.59,0-1.17,0-1.76,0-.32.14-.44.45-.46,1.22-.09,1.23-.09,1.23,1.13,0,.79,0,1.57,0,2.36,0,.71-.22.93-.93.94-1.04.01-2.08,0-3.12,0-2.45,0-4.89,0-7.34,0-.4,0-.78-.03-1.02-.41v-4.03Z"/><path class="cls-1" d="m7.26,1.73c0,.3.02.6,0,.9-.03.48.2.66.66.66.27,0,.63-.15.78.16.15.3-.19.5-.35.72-.55.76-1.13,1.5-1.7,2.24-.35.46-.56.47-.9.03-.65-.85-1.3-1.71-1.95-2.56-.1-.13-.24-.26-.14-.45.1-.18.29-.14.45-.15.15,0,.3,0,.45,0,.37,0,.55-.18.55-.56,0-.65,0-1.31,0-1.96,0-.54.19-.73.72-.75,1.48-.07,1.45.15,1.42,1.32,0,.13,0,.27,0,.4Z"/></g></g></svg>