<?xml version="1.0" encoding="UTF-8"?><svg id="Layer_2" xmlns="http://www.w3.org/2000/svg" viewBox="0 0 17.94 18"><defs><style>.cls-1{stroke-width:0px;}</style></defs><g id="pic"><g id="_1IDyRA"><path class="cls-1" d="m17.94,8.98c0,1.11.01,2.23,0,3.34-.02.95-.1,1.88-.5,2.76-.59,1.29-1.56,2.14-2.91,2.57-.57.18-1.16.27-1.76.29-2.08.06-4.17.06-6.25.04-.94-.01-1.89-.01-2.81-.27-1.78-.5-2.91-1.63-3.42-3.41-.23-.79-.24-1.61-.26-2.42-.03-1.91-.03-3.81,0-5.72.01-.82.03-1.64.25-2.45C.85,1.56,2.55.3,4.65.13,6.98-.06,9.32,0,11.66.04c.93.01,1.87.03,2.78.3,1.82.54,3.14,2.09,3.39,3.97.19,1.4.08,2.8.11,4.2,0,.16,0,.32,0,.48ZM8.85,1.71c-1.34.03-2.78-.06-4.21.13-1.38.18-2.32.91-2.72,2.28-.19.66-.19,1.33-.2,2-.02,1.99-.01,3.98,0,5.97,0,.48.02.95.11,1.42.22,1.24.89,2.11,2.12,2.52.74.25,1.52.23,2.28.24,1.77.03,3.53.02,5.3,0,.62,0,1.23-.01,1.85-.1,1.24-.19,2.15-.81,2.6-2.02.28-.76.29-1.56.3-2.35.02-1.78.02-3.55,0-5.33,0-.58-.02-1.16-.09-1.73-.14-1.1-.6-2-1.62-2.53-.57-.3-1.18-.39-1.81-.43-1.26-.09-2.52-.05-3.89-.07Z"/><path class="cls-1" d="m13.62,9.01c0,2.55-2.1,4.65-4.63,4.65-2.52,0-4.66-2.13-4.64-4.66.02-2.67,2.24-4.63,4.65-4.64,2.54,0,4.69,2.18,4.63,4.64Zm-1.7,0c.07-1.59-1.38-2.95-2.93-2.94-1.47,0-2.92,1.21-2.94,2.92-.02,1.62,1.33,2.97,2.93,2.97,1.63,0,2.94-1.32,2.94-2.95Z"/><path class="cls-1" d="m14.89,4.22c0,.6-.52,1.14-1.12,1.14-.59,0-1.13-.54-1.13-1.14,0-.59.53-1.1,1.12-1.11.58,0,1.12.53,1.13,1.1Z"/></g></g></svg>