<?xml version="1.0" encoding="UTF-8"?><svg id="Layer_2" xmlns="http://www.w3.org/2000/svg" viewBox="0 0 25.71 18"><defs><style>.cls-1{stroke-width:0px;}</style></defs><g id="pic"><g id="gO0jUY"><path class="cls-1" d="m12.98,17.99c-1.96.03-3.81.01-5.67-.08-1.3-.07-2.61-.12-3.9-.33-1.68-.26-2.69-1.25-2.97-2.93C.04,12.23-.06,9.8.03,7.36c.05-1.49.22-2.98.49-4.45C.74,1.69,1.87.67,3.22.43c.9-.16,1.81-.22,2.71-.27C9.1-.03,12.28,0,15.45.02c2.01.02,4.01.1,6.01.29.54.05,1.1.1,1.61.29,1.28.47,1.98,1.4,2.2,2.74.41,2.44.49,4.9.41,7.36-.05,1.47-.23,2.93-.48,4.38-.22,1.23-1.34,2.25-2.72,2.49-.89.15-1.78.22-2.68.27-2.31.12-4.62.19-6.83.15Zm-2.62-8.99c0,1.13,0,2.26,0,3.4,0,.29.04.35.32.19,1.96-1.14,3.92-2.26,5.88-3.39.32-.18.32-.21,0-.39-1.96-1.13-3.93-2.25-5.88-3.39-.28-.16-.32-.1-.32.19.01,1.13,0,2.26,0,3.4Z"/></g></g></svg>