<?xml version="1.0" encoding="utf-8"?>
<!-- Generator: Adobe Illustrator 26.3.1, SVG Export Plug-In . SVG Version: 6.00 Build 0)  -->
<svg version="1.1" id="Layer_1" xmlns="http://www.w3.org/2000/svg" xmlns:xlink="http://www.w3.org/1999/xlink" x="0px" y="0px"
	 viewBox="0 0 500 500" style="enable-background:new 0 0 500 500;" xml:space="preserve">
<path d="M250,0.1c44.8,0,89.6-0.2,134.3,0C445.5,0.4,493,44.5,498.7,105.4c0.9,9.8,1.2,19.5,1.2,29.3c0,81.4,0.1,162.7,0,244.1
	c0,34.4-11.2,64.3-36.2,88.4c-22.7,21.9-50.4,31.6-81.5,32.5c-10.1,0.3-20.2-0.1-30.3,0.1c-6.6,0.1-9.6-2.3-9.6-9.4
	c0.2-58.7,0.2-117.3,0.1-176c0-7.5,2.9-10,10.1-9.9c14.2,0.3,28.4-0.3,42.6,0.2c7.9,0.3,12-1.5,12.8-10.5
	c1.7-17.9,4.3-35.7,7.3-53.4c1.4-8.3-1.9-9.8-8.9-9.7c-17.3,0.3-34.7-0.3-52,0.2c-9.2,0.3-12.2-3.3-11.8-12.2
	c0.6-14.5-0.1-29,0.3-43.5c0.5-18.8,10.8-29.1,29.6-29.8c12.3-0.4,24.6-0.4,36.9-0.1c6.9,0.1,9.7-2.5,9.6-9.4
	c-0.3-15.8-0.2-31.5,0-47.3c0.1-7-2.6-10.9-9.8-10.8c-21.1,0.2-42-3.2-63.2-0.7c-43.8,5.3-75.2,37.7-78.6,82.2
	c-1.5,20.2-1.4,40.3-1.2,60.5c0.1,8.2-2.8,11.3-11,11c-14.8-0.4-29.6,0.1-44.5-0.2c-7-0.1-9.5,2.7-9.4,9.5c0.3,18,0.4,36,0,53.9
	c-0.2,8.2,3.3,10.2,10.8,10.1c14.8-0.4,29.6,0.1,44.5-0.2c6.7-0.1,9.4,2.3,9.7,9.3c2.3,58.6,0.4,117.3,1.1,175.9
	c0.1,6.5-2.1,10.1-9.2,10c-51.4-0.7-102.8,2.1-154.1-1.4C47.4,494.5,0.5,444.8,0.3,388.3c-0.4-92.7-0.4-185.4,0.2-278.1
	C0.8,51,51.6,0.8,111,0.2C157.3-0.2,203.7,0.1,250,0.1C250,0.1,250,0.1,250,0.1z"/>
</svg>
